<?xml version="1.0" encoding="utf-8"?>
<!-- Generator: Adobe Illustrator 27.5.0, SVG Export Plug-In . SVG Version: 6.00 Build 0)  -->
<svg version="1.1" xmlns="http://www.w3.org/2000/svg" xmlns:xlink="http://www.w3.org/1999/xlink" x="0px" y="0px"
	 viewBox="0 0 500 500" style="enable-background:new 0 0 500 500;" xml:space="preserve">
<g id="Background_Complete">
	<g>
		<g>
			<g>
				<g>
					<g>
						<g>
							<g>
								
									<rect x="147.948" y="57.786" transform="matrix(1 -0.0054 0.0054 1 -0.4269 0.8179)" style="fill:#E0E0E0;" width="8.958" height="44.575"/>
							</g>
						</g>
					</g>
				</g>
			</g>
		</g>
		<g>
			<g>
				<g>
					<g>
						<g>
							<g>
								<g>
									
										<rect x="70.288" y="57.941" transform="matrix(1 -0.0053 0.0053 1 -0.3746 0.4391)" style="fill:#EBEBEB;" width="23.198" height="24.609"/>
								</g>
							</g>
						</g>
					</g>
				</g>
			</g>
			<g>
				<g>
					<g>
						<g>
							<g>
								<g>
									
										<rect x="93.376" y="57.817" transform="matrix(1 -0.0053 0.0053 1 -0.3736 0.5626)" style="fill:#F5F5F5;" width="23.198" height="24.609"/>
								</g>
							</g>
						</g>
					</g>
				</g>
			</g>
			<g>
				<g>
					<g>
						<g>
							<g>
								<g>
									<g>
										<path style="fill:#E0E0E0;" d="M70.258,64.799c15.416,0.127,30.871,0.037,46.286-0.213
											c0.317-0.005,0.315-0.491-0.003-0.493c-15.417-0.085-30.872-0.009-46.286,0.283
											C69.984,64.382,69.986,64.797,70.258,64.799L70.258,64.799z"/>
									</g>
								</g>
							</g>
						</g>
					</g>
				</g>
			</g>
		</g>
		<g>
			<g>
				<g>
					<g>
						<g>
							<g>
								<g>
									
										<rect x="55.812" y="82.189" transform="matrix(1 -0.0054 0.0054 1 -0.4929 0.4132)" style="fill:#EBEBEB;" width="42.148" height="20.054"/>
								</g>
							</g>
						</g>
					</g>
				</g>
			</g>
			<g>
				<g>
					<g>
						<g>
							<g>
								<g>
									
										<rect x="97.76" y="81.965" transform="matrix(1 -0.0054 0.0054 1 -0.4909 0.6377)" style="fill:#F5F5F5;" width="42.148" height="20.054"/>
								</g>
							</g>
						</g>
					</g>
				</g>
			</g>
			<g>
				<g>
					<g>
						<g>
							<g>
								<g>
									<g>
										<path style="fill:#E0E0E0;" d="M55.788,87.88c28,0.317,56.097,0.033,84.095-0.415c0.317-0.005,0.315-0.492-0.003-0.493
											c-28.001-0.148-56.1-0.131-84.095,0.486C55.514,87.463,55.516,87.877,55.788,87.88L55.788,87.88z"/>
									</g>
								</g>
							</g>
						</g>
					</g>
				</g>
			</g>
		</g>
		<g>
			<g>
				<g>
					<g>
						<g>
							<g>
								<rect x="40.027" y="102.356" style="fill:#E0E0E0;" width="163.292" height="7.184"/>
							</g>
						</g>
					</g>
				</g>
			</g>
			<g>
				<g>
					<g>
						<g>
							<g>
								<rect x="66.761" y="105.811" style="fill:#E0E0E0;" width="6.629" height="24.515"/>
							</g>
						</g>
					</g>
				</g>
			</g>
			<g>
				<g>
					<g>
						<g>
							<g>
								<rect x="165.715" y="105.811" style="fill:#E0E0E0;" width="6.629" height="24.515"/>
							</g>
						</g>
					</g>
				</g>
			</g>
		</g>
		<g>
			<g>
				<g>
					<g>
						<g>
							<g>
								
									<rect x="156.735" y="41.164" transform="matrix(1 -0.0054 0.0054 1 -0.3825 0.8648)" style="fill:#EBEBEB;" width="8.958" height="61.307"/>
							</g>
						</g>
					</g>
				</g>
			</g>
		</g>
		<g>
			<g>
				<g>
					<g>
						<g>
							<g>
								<g>
									
										<rect x="165.739" y="52.59" transform="matrix(1 -0.0054 0.0054 1 -0.4136 0.9291)" style="fill:#F5F5F5;" width="13.92" height="49.682"/>
								</g>
							</g>
						</g>
					</g>
				</g>
			</g>
			<g>
				<g>
					<g>
						<g>
							<g>
								<g>
									<path style="fill:#E0E0E0;" d="M179.432,62.124c0,0.133-3.116,0.241-6.959,0.241c-3.845,0-6.96-0.108-6.96-0.241
										c0-0.133,3.116-0.241,6.96-0.241C176.316,61.883,179.432,61.991,179.432,62.124z"/>
								</g>
							</g>
						</g>
					</g>
				</g>
			</g>
			<g>
				<g>
					<g>
						<g>
							<g>
								<g>
									<path style="fill:#E0E0E0;" d="M179.432,60.037c0,0.133-3.116,0.241-6.959,0.241c-3.845,0-6.96-0.108-6.96-0.241
										c0-0.133,3.116-0.241,6.96-0.241C176.316,59.796,179.432,59.904,179.432,60.037z"/>
								</g>
							</g>
						</g>
					</g>
				</g>
			</g>
			<g>
				<g>
					<g>
						<g>
							<g>
								<g>
									<path style="fill:#E0E0E0;" d="M179.432,94.759c0,0.133-3.116,0.241-6.959,0.241c-3.845,0-6.96-0.108-6.96-0.241
										s3.116-0.241,6.96-0.241C176.316,94.518,179.432,94.626,179.432,94.759z"/>
								</g>
							</g>
						</g>
					</g>
				</g>
			</g>
			<g>
				<g>
					<g>
						<g>
							<g>
								<g>
									<path style="fill:#E0E0E0;" d="M179.432,92.672c0,0.133-3.116,0.241-6.959,0.241c-3.845,0-6.96-0.108-6.96-0.241
										c0-0.133,3.116-0.241,6.96-0.241C176.316,92.431,179.432,92.539,179.432,92.672z"/>
								</g>
							</g>
						</g>
					</g>
				</g>
			</g>
			<g>
				<g>
					<g>
						<g>
							<g>
								<g>
									<path style="fill:#E0E0E0;" d="M172.696,88.119c-0.133,0-0.241-5.012-0.241-11.194c0-6.184,0.108-11.195,0.241-11.195
										c0.133,0,0.241,5.011,0.241,11.195C172.938,83.106,172.83,88.119,172.696,88.119z"/>
								</g>
							</g>
						</g>
					</g>
				</g>
			</g>
		</g>
		<g>
			<g>
				<g>
					<g>
						<g>
							<g>
								<rect x="179.583" y="64.753" style="fill:#EBEBEB;" width="15.151" height="37.5"/>
							</g>
						</g>
					</g>
				</g>
			</g>
		</g>
		<g>
			<g>
				<g>
					<g>
						<g>
							<path style="fill:#E0E0E0;" d="M163.492,51.607c0,1.422-1.153,2.575-2.575,2.575c-1.422,0-2.575-1.153-2.575-2.575
								c0-1.422,1.153-2.575,2.575-2.575C162.34,49.033,163.492,50.185,163.492,51.607z"/>
						</g>
					</g>
				</g>
			</g>
		</g>
		<g>
			<g>
				<g>
					<g>
						<g>
							<rect x="160.122" y="58.689" style="fill:#E0E0E0;" width="1.592" height="36.47"/>
						</g>
					</g>
				</g>
			</g>
		</g>
	</g>
	<g>
		<g>
			
				<rect x="106.261" y="308.026" transform="matrix(6.123234e-17 -1 1 6.123234e-17 -250.5527 578.4388)" style="fill:#EBEBEB;" width="115.364" height="212.939"/>
		</g>
		<g>
			<g>
				<path style="fill:#E0E0E0;" d="M270.412,356.814c0,0-0.176,0.15-0.534,0.42c-0.374,0.279-0.906,0.675-1.598,1.191
					c-1.426,1.048-3.504,2.575-6.175,4.538c-5.39,3.932-13.166,9.606-22.769,16.612c-19.267,13.994-45.861,33.311-75.234,54.646
					l-0.005,0.004l-0.153,0.111l-0.153-0.111c-29.382-21.341-55.978-40.659-75.244-54.652c-9.602-7.006-17.377-12.678-22.766-16.61
					c-2.671-1.963-4.748-3.489-6.174-4.537c-0.693-0.516-1.224-0.912-1.598-1.191c-0.358-0.27-0.534-0.42-0.534-0.42
					s0.197,0.12,0.565,0.377c0.381,0.269,0.923,0.651,1.628,1.149c1.439,1.03,3.536,2.529,6.231,4.458
					c5.412,3.9,13.22,9.527,22.864,16.476c19.289,13.962,45.916,33.236,75.333,54.529h-0.306l0.005-0.004
					c29.408-21.287,56.034-40.559,75.324-54.522c9.644-6.95,17.453-12.577,22.866-16.478c2.696-1.929,4.793-3.429,6.233-4.459
					c0.706-0.498,1.247-0.88,1.629-1.149C270.216,356.934,270.412,356.814,270.412,356.814z"/>
			</g>
		</g>
	</g>
	<g>
		<g>
			<g>
				<g>
					<path style="fill:#E0E0E0;" d="M389.654,396.384c-3.532-2.218-7.579-3.611-11.729-4.037c-1.916-0.197-4.01-0.141-5.548,1.02
						c-0.326,0.246-0.644,0.611-0.571,1.013c0.054,0.296,0.304,0.511,0.542,0.693C377.12,398.714,384.339,399.174,389.654,396.384"
						/>
				</g>
			</g>
			<g>
				<g>
					<path style="fill:#E0E0E0;" d="M389.353,396.053c-2.655-2.072-5.326-4.159-7.575-6.665c-2.249-2.507-4.077-5.483-4.749-8.784
						c-0.204-1.001-0.267-2.145,0.375-2.939C383.442,382.381,388.185,388.48,389.353,396.053"/>
				</g>
			</g>
			<g>
				<g>
					<path style="fill:#E0E0E0;" d="M389.591,396.339c-0.455-3.303-0.618-6.699,0.14-9.946c0.759-3.247,2.525-6.355,5.298-8.207
						c1.044,2.439,0.595,5.249-0.14,7.798c-1.136,3.939-2.918,7.691-5.253,11.06"/>
				</g>
			</g>
			<g>
				<g>
					<path style="fill:#E0E0E0;" d="M395.511,406.946c-3.593,0.437-6.723,2.331-9.406,4.76c-2.683,2.43-4.59,5.704-5.38,9.236
						c3.525-0.218,6.515-2.703,8.684-5.49c2.169-2.787,3.671-5.845,6.054-8.452"/>
				</g>
			</g>
			<g>
				<g>
					<path style="fill:#E0E0E0;" d="M396.796,408.642c-2.894-7.129-1.846-15.72,2.679-21.944
						C401.522,393.98,400.771,402.206,396.796,408.642"/>
				</g>
			</g>
			<g>
				<g>
					<path style="fill:#E0E0E0;" d="M404.618,417.956c-3.261-0.203-6.577,0.574-9.408,2.204c-2.832,1.63-5.169,4.107-6.631,7.029
						c-0.199,0.397-0.374,0.902-0.108,1.258c0.231,0.309,0.678,0.338,1.064,0.313c3.161-0.205,5.963-2.107,8.275-4.272
						c2.312-2.166,4.326-4.668,6.88-6.54"/>
				</g>
			</g>
			<g>
				<g>
					<path style="fill:#E0E0E0;" d="M404.368,417.448c-1.682-5.383-1.787-11.248-0.298-16.688c0.588-2.148,1.575-4.409,3.561-5.417
						c0.169-0.086,0.367-0.163,0.545-0.096c0.169,0.064,0.267,0.236,0.344,0.399c0.707,1.476,0.912,3.152,0.84,4.788
						c-0.073,1.635-0.412,3.245-0.75,4.846c-0.625,2.962-0.958,6.145-2.583,8.7c-0.386,0.606-0.725,1.261-1.033,1.911
						c-0.307,0.649-0.31,0.878-0.592,1.394"/>
				</g>
			</g>
			<g>
				<g>
					<path style="fill:#E0E0E0;" d="M425.072,420.533c-1.534-5.835,0.094-12.908,3.771-17.691c0.271-0.352,0.63-0.73,1.072-0.689
						c0.677,0.063,0.853,0.965,0.822,1.644C430.471,409.76,428.482,415.635,425.072,420.533"/>
				</g>
			</g>
			<g>
				<g>
					<path style="fill:#E0E0E0;" d="M426.938,421.809c7.089,1.845,15.221,0.052,21.117-4.295c-3.494-1.771-7.613-2.276-11.431-1.403
						C432.805,416.984,429.315,418.695,426.938,421.809"/>
				</g>
			</g>
			<g>
				<g>
					<path style="fill:#E0E0E0;" d="M428.512,417.924c3.97-6.473,11.581-10.697,19.165-11.082c-0.874,3.085-3.408,5.482-6.268,6.93
						c-2.86,1.449-6.053,2.079-9.2,2.691C430.985,416.701,429.306,416.962,428.512,417.924"/>
				</g>
			</g>
			<g>
				<g>
					<path style="fill:#E0E0E0;" d="M425.466,399.073c1.075-3.683,2.156-7.398,2.451-11.224c0.295-3.825-0.25-7.819-2.235-11.102
						c-3.708,7.176-4.084,15.56-0.327,22.711"/>
				</g>
			</g>
			<g>
				<g>
					<path style="fill:#E0E0E0;" d="M437.951,392.763c4.337-7.882,13.185-14.178,22.137-15.06
						C456.635,386.302,447.216,392.947,437.951,392.763"/>
				</g>
			</g>
			<g>
				<g>
					<path style="fill:#E0E0E0;" d="M435.223,394.307c6.468,0.985,11.978,5.116,18.022,7.62c1.293,0.536,2.687,0.962,4.074,0.78
						c1.387-0.182,2.756-1.112,3.067-2.477c0.258-1.133-0.257-2.335-1.07-3.165c-0.813-0.83-1.887-1.349-2.959-1.795
						c-6.583-2.741-13.643-2.809-20.577-1.147"/>
				</g>
			</g>
			<g>
				<g>
					<path style="fill:#E0E0E0;" d="M431.48,398.843c1.464,0.419,1.965,1.177,3.124,2.165c3.934,3.35,8.652,5.774,13.666,7.02
						c0.522,0.13,1.207,0.181,1.466-0.29c0.226-0.412-0.06-0.911-0.353-1.278c-2.101-2.629-5.098-4.427-8.252-5.602
						c-3.154-1.174-5.886-2.59-9.651-2.286"/>
				</g>
			</g>
			<g>
				<g>
					<path style="fill:#E0E0E0;" d="M427.257,371.446c5.259,4.909,12.667,7.429,19.829,6.746c0.326-0.031,0.681-0.083,0.903-0.324
						c0.499-0.543-0.1-1.381-0.681-1.834C441.477,371.489,434.416,369.604,427.257,371.446"/>
				</g>
			</g>
			<g>
				<g>
					<path style="fill:#E0E0E0;" d="M432.264,369.613c6.952-5.212,16.485-6.785,24.743-4.083c-3.116,3.071-7.439,4.723-11.791,5.176
						C440.865,371.16,436.508,370.677,432.264,369.613"/>
				</g>
			</g>
			<g>
				<g>
					<path style="fill:#E0E0E0;" d="M430.274,357.023c-0.573-5.819-0.201-10.412-0.605-16.258c-0.032-0.467-0.133-1.029-0.569-1.197
						c-0.608-0.234-1.116,0.513-1.315,1.134c-1.732,5.389-0.785,11.57,2.481,16.193"/>
				</g>
			</g>
			<g>
				<g>
					<path style="fill:#E0E0E0;" d="M429.856,357.667c3.944-2.439,6.903-5.624,9.639-9.368c1.904-2.605,3.509-5.726,3.076-8.923
						c-2.674-0.054-5.214,1.421-6.953,3.453c-1.739,2.031-2.773,4.571-3.545,7.131C431.301,352.519,430.761,355.151,429.856,357.667
						"/>
				</g>
			</g>
			<g>
				<g>
					<path style="fill:#E0E0E0;" d="M439.326,355.035c8.656-3.201,16.731-7.962,23.721-13.987c-2.834-1.141-6.078-0.458-8.911,0.685
						c-6.472,2.613-11.76,7.023-14.934,13.239"/>
				</g>
			</g>
			<g>
				<g>
					<path style="fill:#E0E0E0;" d="M432.518,360.85c4.379,0.479,8.827,0.79,13.172,0.064c4.27-0.714,8.306-2.406,12.297-4.086
						c0.331-0.139,0.691-0.306,0.835-0.634c0.157-0.357-0.01-0.791-0.299-1.052c-0.289-0.261-0.673-0.387-1.049-0.491
						c-4.338-1.213-9.02-0.645-13.289,0.794C439.917,356.884,436.417,358.594,432.518,360.85"/>
				</g>
			</g>
			<g>
				<g>
					<path style="fill:#E0E0E0;" d="M407.514,371.645c-2.987-6.031-2.793-13.068-0.213-19.284c1.817,2.768,2.039,6.293,1.706,9.588
						c-0.332,3.294-1.335,6.685-1.4,9.995"/>
				</g>
			</g>
			<g>
				<g>
					<path style="fill:#E0E0E0;" d="M395.579,365.625c-7.459-0.143-14.921,3.036-19.986,8.514c3.723,0.585,7.557-0.375,10.944-2.029
						c3.386-1.654,6.396-3.974,9.378-6.277"/>
				</g>
			</g>
			<g>
				<g>
					<path style="fill:#E0E0E0;" d="M387.555,362.942c-3.649-0.296-7.16-0.748-10.669,0.327c-3.509,1.075-6.702,3.516-8.132,6.895
						c3.413,0.385,6.874-0.471,10.002-1.889C381.885,366.858,384.73,364.894,387.555,362.942"/>
				</g>
			</g>
			<g>
				<g>
					<path style="fill:#E0E0E0;" d="M399.436,363.064c-3.283-2.151-6.654-4.341-10.476-5.232c-3.822-0.891-8.252-0.233-10.917,2.648
						c3.094,1.816,6.848,2.03,10.436,2.027c3.587-0.003,7.985-0.044,11.367,1.153"/>
				</g>
			</g>
			<g>
				<g>
					<path style="fill:#E0E0E0;" d="M399.455,363.238c-5.612-5.511-7.74-15.411-5.482-22.945
						C398.385,346.996,400.36,355.265,399.455,363.238"/>
				</g>
			</g>
			<g>
				<g>
					<path style="fill:#E0E0E0;" d="M414.887,347.624c1.058-2.461,1.803-5.043,2.752-7.548c0.95-2.505,2.13-4.969,3.924-6.958
						c1.794-1.989,4.275-3.47,6.951-3.602c-1.675,7.583-6.711,14.358-13.49,18.148"/>
				</g>
			</g>
			<g>
				<g>
					<path style="fill:#E0E0E0;" d="M412.095,350.877c-1.751-2.411-3.775-5.683-6.15-7.483c-2.375-1.799-5.468-2.888-8.367-2.197
						C400.525,346.467,406.096,350.182,412.095,350.877"/>
				</g>
			</g>
			<g>
				<g>
					<path style="fill:#E0E0E0;" d="M412.653,347.824c-1.148-2.917-2.304-5.865-2.769-8.966c-0.464-3.1-0.182-6.412,1.404-9.117
						c3.081,5.823,4.073,12.074,1.522,18.149"/>
				</g>
			</g>
			<g>
				<g>
					<path style="fill:#E0E0E0;" d="M414.915,329.741c1.745-5.773,7.031-10.023,12.738-11.974c0.719-0.246,1.482-0.451,2.233-0.335
						c0.751,0.116,1.488,0.63,1.646,1.374c0.208,0.982-0.603,1.862-1.366,2.514C425.722,325.121,420.499,328.005,414.915,329.741"/>
				</g>
			</g>
			<g>
				<g>
					<path style="fill:#E0E0E0;" d="M414.978,325.02c0.222-3.722,0.454-7.498,1.665-11.025c1.211-3.527,3.544-6.835,6.938-8.378
						c0.577,3.759-1.081,7.499-3.082,10.734c-2,3.235-4.411,6.288-5.613,9.897"/>
				</g>
			</g>
			<g>
				<g>
					<path style="fill:#E0E0E0;" d="M414.887,327.582c-1.442-4.207-1.591-9.551-4.111-13.216c-1.761-2.562-4.581-4.307-6.098-7.021
						c-1.008,2.534-0.7,5.455,0.355,7.97c1.054,2.516,2.796,4.681,4.66,6.672S413.154,325.476,414.887,327.582"/>
				</g>
			</g>
			<g>
				<g>
					<g>
						<path style="fill:#E0E0E0;" d="M414.915,451.48c-0.112,0-0.209-28.066-0.217-62.679c-0.008-34.625,0.077-62.685,0.189-62.685
							s0.209,28.06,0.217,62.685C415.112,423.414,415.027,451.48,414.915,451.48z"/>
					</g>
				</g>
			</g>
			<g>
				<g>
					<g>
						<path style="fill:#E0E0E0;" d="M439.442,367.41c0.008,0.027-0.368,0.167-1.055,0.396c-0.758,0.256-1.734,0.585-2.904,0.98
							c-2.449,0.834-5.812,2.042-9.463,3.538c-3.615,1.551-7.024,2.81-8.965,4.492c-0.97,0.83-1.527,1.728-1.802,2.383
							c-0.278,0.659-0.328,1.062-0.365,1.055c-0.014-0.002-0.009-0.103,0.012-0.294c0.032-0.189,0.081-0.472,0.206-0.818
							c0.237-0.692,0.778-1.653,1.758-2.54c0.976-0.89,2.334-1.689,3.89-2.417c1.556-0.726,3.281-1.484,5.112-2.236
							c3.662-1.501,7.052-2.67,9.528-3.436c1.237-0.386,2.247-0.671,2.947-0.858C439.042,367.471,439.434,367.383,439.442,367.41z"
							/>
					</g>
				</g>
			</g>
			<g>
				<g>
					<g>
						<path style="fill:#E0E0E0;" d="M447.481,347.663c0.009,0.011-0.093,0.119-0.296,0.316c-0.239,0.225-0.537,0.504-0.901,0.846
							c-0.836,0.76-1.975,1.794-3.362,3.054c-2.903,2.585-6.84,6.09-11.19,9.964c-4.368,3.888-8.143,7.604-10.759,10.401
							c-1.31,1.397-2.342,2.554-3.045,3.362c-0.328,0.375-0.597,0.682-0.813,0.929c-0.188,0.21-0.293,0.317-0.304,0.308
							c-0.011-0.009,0.072-0.132,0.24-0.359c0.17-0.226,0.417-0.562,0.755-0.978c0.668-0.841,1.669-2.03,2.956-3.455
							c2.569-2.855,6.323-6.613,10.7-10.509c4.383-3.879,8.372-7.364,11.271-9.876c1.423-1.221,2.59-2.222,3.447-2.958
							c0.384-0.319,0.699-0.579,0.951-0.789C447.351,347.74,447.471,347.652,447.481,347.663z"/>
					</g>
				</g>
			</g>
			<g>
				<g>
					<g>
						<path style="fill:#E0E0E0;" d="M427.017,365.796c-0.115-0.051,0.798-2.158,1.707-4.823c0.918-2.664,1.349-4.913,1.466-4.894
							c0.106,0.011-0.152,2.325-1.082,5.024c-0.457,1.347-0.962,2.532-1.359,3.373C427.352,365.318,427.066,365.818,427.017,365.796
							z"/>
					</g>
				</g>
			</g>
			<g>
				<g>
					<g>
						<path style="fill:#E0E0E0;" d="M414.941,382.784c-0.023,0.016-0.261-0.263-0.673-0.781c-0.457-0.586-1.035-1.327-1.724-2.211
							c-1.449-1.872-3.451-4.457-5.695-7.285c-2.246-2.829-4.309-5.366-5.803-7.201c-0.705-0.872-1.295-1.604-1.762-2.181
							c-0.412-0.519-0.629-0.815-0.608-0.833c0.021-0.018,0.279,0.243,0.728,0.73c0.449,0.487,1.086,1.204,1.862,2.099
							c1.552,1.79,3.653,4.301,5.901,7.134c2.247,2.832,4.216,5.447,5.607,7.365c0.696,0.959,1.25,1.741,1.622,2.29
							C414.768,382.456,414.964,382.767,414.941,382.784z"/>
					</g>
				</g>
			</g>
			<g>
				<g>
					<g>
						<path style="fill:#E0E0E0;" d="M409.563,375.88c-0.066,0.071-1.501-1.631-2.253-4.218c-0.555-1.823-0.579-3.49-0.511-4.252
							l0.179,0.014c-0.08,0.325-0.139,0.496-0.171,0.491c-0.032-0.005-0.034-0.186-0.007-0.52l0.179,0.015
							c0.066,0.756,0.18,2.366,0.719,4.137C408.425,374.053,409.672,375.811,409.563,375.88z"/>
					</g>
				</g>
			</g>
			<g>
				<g>
					<g>
						<path style="fill:#E0E0E0;" d="M402.621,367.146c-0.052,0.056-0.514-0.526-1.573-0.914c-1.051-0.407-2.632-0.496-4.367-0.347
							c-1.737,0.127-3.288,0.437-4.398,0.71c-1.11,0.275-1.789,0.491-1.81,0.434c-0.018-0.048,0.628-0.361,1.733-0.71
							c1.103-0.347,2.676-0.708,4.444-0.838c1.755-0.151,3.419-0.016,4.505,0.486C402.256,366.454,402.657,367.137,402.621,367.146z
							"/>
					</g>
				</g>
			</g>
			<g>
				<g>
					<g>
						<path style="fill:#E0E0E0;" d="M400.975,365.03c-0.031,0.063-0.916-0.367-2.41-0.878c-1.491-0.513-3.615-1.051-6.013-1.238
							c-2.399-0.179-4.58,0.031-6.132,0.312c-1.554,0.278-2.494,0.569-2.515,0.502c-0.009-0.027,0.218-0.122,0.639-0.272
							c0.418-0.156,1.041-0.334,1.82-0.511c1.556-0.357,3.776-0.617,6.219-0.435c2.441,0.19,4.596,0.784,6.08,1.373
							c0.743,0.293,1.332,0.563,1.721,0.781C400.777,364.876,400.988,365.005,400.975,365.03z"/>
					</g>
				</g>
			</g>
			<g>
				<g>
					<g>
						<path style="fill:#E0E0E0;" d="M414.887,356.08c-0.109,0.028-0.895-2.706-1.757-6.104c-0.862-3.4-1.473-6.177-1.364-6.205
							c0.109-0.028,0.895,2.705,1.758,6.105C414.385,353.274,414.996,356.052,414.887,356.08z"/>
					</g>
				</g>
			</g>
			<g>
				<g>
					<g>
						<path style="fill:#E0E0E0;" d="M414.999,356.08c-0.121,0.039-0.627-1.787-1.948-3.655c-1.286-1.907-2.927-2.864-2.867-2.959
							c0.021-0.042,0.474,0.124,1.107,0.571c0.634,0.441,1.417,1.188,2.092,2.155C414.754,354.135,415.097,356.073,414.999,356.08z"
							/>
					</g>
				</g>
			</g>
			<g>
				<g>
					<g>
						<path style="fill:#E0E0E0;" d="M414.915,436.519c-0.044,0.007-0.126-0.675-0.443-1.866c-0.313-1.192-0.901-2.882-1.875-4.859
							c-1.939-3.963-5.467-8.987-9.951-14.019c-2.221-2.538-4.377-4.933-6.206-7.225c-1.832-2.289-3.338-4.471-4.438-6.401
							c-1.103-1.928-1.821-3.583-2.24-4.75c-0.206-0.585-0.357-1.042-0.44-1.358c-0.089-0.314-0.129-0.481-0.115-0.485
							c0.036-0.012,0.24,0.642,0.703,1.786c0.462,1.143,1.214,2.767,2.341,4.662c1.123,1.897,2.642,4.046,4.482,6.311
							c1.837,2.269,3.995,4.65,6.221,7.193c4.495,5.046,8.015,10.133,9.904,14.161c0.949,2.01,1.503,3.733,1.77,4.946
							c0.13,0.608,0.217,1.081,0.248,1.408C414.915,436.346,414.929,436.517,414.915,436.519z"/>
					</g>
				</g>
			</g>
			<g>
				<g>
					<g>
						<path style="fill:#E0E0E0;" d="M437.078,411.486c0.013,0.03-0.411,0.245-1.161,0.652c-0.745,0.419-1.802,1.063-3.013,1.992
							c-1.211,0.927-2.566,2.145-3.957,3.609c-1.389,1.467-2.819,3.171-4.279,4.996c-2.919,3.663-5.649,6.904-7.284,9.491
							c-0.83,1.283-1.434,2.365-1.829,3.124c-0.399,0.757-0.61,1.183-0.64,1.169c-0.013-0.006,0.025-0.119,0.108-0.329
							c0.086-0.209,0.204-0.522,0.39-0.91c0.354-0.784,0.923-1.895,1.728-3.207c1.588-2.649,4.296-5.935,7.21-9.591
							c1.463-1.829,2.911-3.536,4.326-5.001c1.418-1.462,2.808-2.672,4.055-3.58c1.247-0.909,2.338-1.523,3.111-1.902
							c0.385-0.193,0.699-0.312,0.907-0.401C436.96,411.512,437.072,411.473,437.078,411.486z"/>
					</g>
				</g>
			</g>
			<g>
				<g>
					<g>
						<path style="fill:#E0E0E0;" d="M437.512,419.607c0.005,0.059-0.938,0.173-2.455,0.357c-1.512,0.196-3.617,0.448-5.823,1.147
							c-2.197,0.716-4.024,1.806-5.213,2.736c-1.202,0.929-1.768,1.697-1.824,1.652c-0.02-0.014,0.098-0.223,0.364-0.565
							c0.263-0.344,0.693-0.803,1.279-1.309c1.171-1.009,3.015-2.165,5.27-2.9c2.259-0.715,4.393-0.922,5.918-1.046
							C436.559,419.567,437.507,419.554,437.512,419.607z"/>
					</g>
				</g>
			</g>
			<g>
				<g>
					<g>
						<path style="fill:#E0E0E0;" d="M422.913,424.606c-0.128-0.073,0.978-1.763,1.836-4.036c0.805-2.294,0.994-4.305,1.138-4.282
							c0.052,0.006,0.05,0.509-0.041,1.317c-0.096,0.805-0.29,1.924-0.716,3.103c-0.429,1.177-0.992,2.161-1.424,2.846
							C423.27,424.239,422.959,424.634,422.913,424.606z"/>
					</g>
				</g>
			</g>
			<g>
				<g>
					<g>
						<path style="fill:#E0E0E0;" d="M444.256,389.684c0.005,0.013-0.13,0.085-0.393,0.209c-0.305,0.138-0.686,0.312-1.154,0.524
							c-0.505,0.217-1.119,0.491-1.81,0.856c-0.694,0.358-1.503,0.726-2.346,1.233c-0.428,0.243-0.875,0.497-1.339,0.761
							c-0.464,0.267-0.924,0.584-1.413,0.89c-0.987,0.599-1.976,1.337-3.032,2.09c-2.066,1.568-4.238,3.424-6.329,5.567
							c-2.071,2.164-3.852,4.399-5.349,6.518c-0.716,1.081-1.42,2.095-1.985,3.102c-0.289,0.499-0.59,0.969-0.841,1.442
							c-0.248,0.473-0.487,0.929-0.715,1.365c-0.477,0.859-0.818,1.681-1.152,2.387c-0.341,0.703-0.594,1.325-0.793,1.838
							c-0.196,0.474-0.357,0.862-0.485,1.171c-0.115,0.266-0.182,0.404-0.195,0.4c-0.013-0.004,0.028-0.151,0.118-0.427
							c0.109-0.317,0.246-0.714,0.414-1.2c0.177-0.523,0.411-1.157,0.733-1.872c0.315-0.717,0.64-1.552,1.103-2.425
							c0.222-0.443,0.455-0.905,0.696-1.385c0.245-0.48,0.542-0.957,0.827-1.463c0.556-1.022,1.254-2.049,1.967-3.144
							c1.49-2.146,3.277-4.406,5.365-6.587c2.108-2.16,4.305-4.023,6.399-5.585c1.07-0.75,2.073-1.483,3.075-2.073
							c0.496-0.302,0.963-0.614,1.434-0.876c0.472-0.258,0.926-0.506,1.361-0.743c0.857-0.493,1.679-0.846,2.385-1.186
							c0.704-0.346,1.329-0.601,1.846-0.796c0.48-0.185,0.873-0.335,1.186-0.455C444.105,389.717,444.251,389.671,444.256,389.684z"
							/>
					</g>
				</g>
			</g>
			<g>
				<g>
					<g>
						<path style="fill:#E0E0E0;" d="M426.715,401.436c-0.036-0.006,0.16-0.687,0.964-1.436c0.785-0.748,2.218-1.441,3.886-1.491
							c1.663-0.044,3.105,0.421,4.089,0.799c0.99,0.389,1.566,0.704,1.546,0.751c-0.023,0.056-0.64-0.166-1.64-0.48
							c-0.997-0.305-2.406-0.707-3.982-0.664c-1.57,0.048-2.926,0.653-3.712,1.303C427.064,400.864,426.78,401.475,426.715,401.436z
							"/>
					</g>
				</g>
			</g>
			<g>
				<g>
					<g>
						<path style="fill:#E0E0E0;" d="M424.094,404.141c-0.111-0.062,0.878-1.512,1.103-3.59c0.259-2.074-0.37-3.713-0.247-3.748
							c0.044-0.018,0.265,0.363,0.456,1.046c0.192,0.679,0.318,1.669,0.194,2.749c-0.128,1.08-0.479,2.013-0.822,2.63
							C424.435,403.849,424.133,404.169,424.094,404.141z"/>
					</g>
				</g>
			</g>
		</g>
		<g>
			<g>
				<path style="fill:#E0E0E0;" d="M395.531,440.54c0.605,10.726,3.837,21.634,8.808,32.662h21.619
					c4.741-10.919,7.75-21.81,8.285-32.662H395.531z"/>
			</g>
		</g>
		<g>
			<g>
				<g>
					<path style="fill:#FAFAFA;" d="M430.739,457.896c0,0.112-7.118,0.203-15.896,0.203c-8.781,0-15.898-0.091-15.898-0.203
						c0-0.112,7.116-0.203,15.898-0.203C423.621,457.693,430.739,457.784,430.739,457.896z"/>
				</g>
			</g>
		</g>
		<g>
			<g>
				<g>
					<path style="fill:#FAFAFA;" d="M430.256,461.782c0,0.112-6.673,0.203-14.902,0.203c-8.232,0-14.904-0.091-14.904-0.203
						c0-0.112,6.671-0.203,14.904-0.203C423.583,461.579,430.256,461.67,430.256,461.782z"/>
				</g>
			</g>
		</g>
		<g>
			<g>
				<g>
					<path style="fill:#FAFAFA;" d="M404.688,447.582c0.112,0,0.203,2.23,0.203,4.979c0,2.751-0.091,4.98-0.203,4.98
						c-0.112,0-0.203-2.229-0.203-4.98C404.486,449.812,404.576,447.582,404.688,447.582z"/>
				</g>
			</g>
		</g>
		<g>
			<g>
				<g>
					<path style="fill:#FAFAFA;" d="M416.271,447.582c0.112,0,0.203,2.309,0.203,5.157c0,2.849-0.091,5.157-0.203,5.157
						c-0.112,0-0.203-2.308-0.203-5.157C416.069,449.891,416.159,447.582,416.271,447.582z"/>
				</g>
			</g>
		</g>
		<g>
			<g>
				<g>
					<path style="fill:#FAFAFA;" d="M427.145,447.495c0.112,0,0.203,2.355,0.203,5.259c0,2.905-0.091,5.26-0.203,5.26
						c-0.112,0-0.203-2.354-0.203-5.26C426.942,449.85,427.033,447.495,427.145,447.495z"/>
				</g>
			</g>
		</g>
		<g>
			<g>
				<g>
					<path style="fill:#FAFAFA;" d="M433.556,447.582c0,0.112-8.348,0.203-18.645,0.203c-10.3,0-18.646-0.091-18.646-0.203
						c0-0.112,8.347-0.203,18.646-0.203C425.208,447.38,433.556,447.47,433.556,447.582z"/>
				</g>
			</g>
		</g>
	</g>
</g>
<g id="Background_Simple" style="display:none;">
	<g style="display:inline;">
		<path style="fill:#F5F5F5;" d="M118.303,27.271l1.262,0.766c10.636,6.454,17.048,18.124,16.27,30.428
			c-0.1,1.582-0.314,3.156-0.647,4.71c-2.395,11.187-10.854,20.92-21.688,24.955c-6.372,2.373-13.708,3.036-18.765,7.539
			c-6.582,5.86-6.789,15.809-6.516,24.557c0.273,8.747,0.04,18.703-6.568,24.535c-4.138,3.652-10.024,4.813-15.566,4.519
			c-14.674-0.78-27.794-11.005-34.315-24.008c-6.521-13.003-7.106-28.313-4.237-42.545c4.019-19.936,15.056-38.896,32.102-50.292
			C76.68,21.037,99.905,18.153,118.303,27.271z"/>
	</g>
	<path style="display:inline;fill:#F5F5F5;" d="M327.438,423.03l-0.351-1.434c-2.957-12.085,0.761-24.87,10.011-33.02
		c1.189-1.048,2.454-2.01,3.788-2.873c9.603-6.217,22.468-7.118,32.982-2.31c6.183,2.828,11.839,7.546,18.6,7.939
		c8.798,0.51,15.979-6.379,21.972-12.757c5.992-6.378,13.197-13.253,21.993-12.704c5.509,0.344,10.491,3.685,14.202,7.812
		c9.824,10.927,11.872,27.435,7.289,41.241c-4.583,13.806-14.996,25.045-27.088,33.08c-16.939,11.255-38.149,16.858-58.261,12.862
		C352.462,456.87,334,442.487,327.438,423.03z"/>
	<g style="display:inline;">
		
			<ellipse transform="matrix(0.9147 -0.4041 0.4041 0.9147 -74.5155 42.1439)" style="fill:#F5F5F5;" cx="62.577" cy="197.592" rx="22.533" ry="22.533"/>
	</g>
	<circle style="display:inline;fill:#F5F5F5;" cx="271.096" cy="436.964" r="22.533"/>
</g>
<g id="Floor">
	<g>
		<path style="fill:#263238;" d="M473.038,473.019c0,0.144-99.865,0.26-223.027,0.26c-123.204,0-223.048-0.117-223.048-0.26
			c0-0.144,99.844-0.26,223.048-0.26C373.172,472.759,473.038,472.875,473.038,473.019z"/>
	</g>
</g>
<g id="Letter">
	<g>
		<g>
			<g>
				<rect x="106.504" y="72.005" style="fill:#FFFFFF;" width="242.517" height="334.642"/>
			</g>
			<g>
				<g>
					<path style="fill:#263238;" d="M349.021,406.647c-0.001-2.092-0.096-136.718-0.236-334.642l0.236,0.236
						c-73.107,0.007-155.556,0.015-242.489,0.024h-0.028l0.26-0.26c-0.018,125.116-0.035,240.919-0.048,334.641l-0.212-0.212
						C253.61,406.563,347.274,406.645,349.021,406.647c-1.746,0.001-95.411,0.083-242.517,0.212l-0.212,0l0-0.212
						c-0.014-93.722-0.03-209.526-0.048-334.641l0-0.26h0.261h0.028c86.934,0.009,169.382,0.017,242.489,0.024h0.236l0,0.236
						C349.118,269.928,349.023,404.556,349.021,406.647z"/>
				</g>
			</g>
			<g>
				<g>
					<path style="fill:#263238;" d="M347.574,302.522c0,0.144-53.645,0.26-119.805,0.26c-66.183,0-119.816-0.117-119.816-0.26
						s53.634-0.26,119.816-0.26C293.928,302.262,347.574,302.379,347.574,302.522z"/>
				</g>
			</g>
		</g>
		<g>
			<g>
				
					<ellipse transform="matrix(0.2277 -0.9737 0.9737 0.2277 8.0803 252.3345)" style="fill:#FF725E;" cx="163.112" cy="121.073" rx="21.215" ry="21.215"/>
			</g>
			<g>
				<path style="fill:#FFFFFF;" d="M162.312,132.109L162.312,132.109c-4.711,0-8.529-3.62-8.529-8.085v-12.008l8.529,1.784
					l8.529-1.784v12.008C170.841,128.49,167.022,132.109,162.312,132.109z"/>
			</g>
		</g>
		<g>
			<path style="fill:#FF725E;" d="M253.039,117.519h-50.294c-1.755,0-3.177-1.422-3.177-3.177v-0.329
				c0-1.755,1.422-3.177,3.177-3.177h50.294c1.755,0,3.177,1.423,3.177,3.177v0.329
				C256.216,116.097,254.794,117.519,253.039,117.519z"/>
		</g>
		<g>
			<path style="fill:#E0E0E0;" d="M314.612,204.214H140.913c-1.755,0-3.177-1.423-3.177-3.177v-0.329
				c0-1.755,1.422-3.177,3.177-3.177h173.699c1.755,0,3.177,1.422,3.177,3.177v0.329
				C317.789,202.792,316.367,204.214,314.612,204.214z"/>
		</g>
		<g>
			<path style="fill:#E0E0E0;" d="M314.612,224.256H140.913c-1.755,0-3.177-1.423-3.177-3.177v-0.329
				c0-1.755,1.422-3.177,3.177-3.177h173.699c1.755,0,3.177,1.422,3.177,3.177v0.329
				C317.789,222.833,316.367,224.256,314.612,224.256z"/>
		</g>
		<g>
			<path style="fill:#E0E0E0;" d="M314.612,296.819H140.913c-1.755,0-3.177-1.422-3.177-3.177v-0.329
				c0-1.755,1.422-3.177,3.177-3.177h173.699c1.755,0,3.177,1.422,3.177,3.177v0.329
				C317.789,295.397,316.367,296.819,314.612,296.819z"/>
		</g>
		<g>
			<path style="fill:#E0E0E0;" d="M314.612,318.157H140.913c-1.755,0-3.177-1.422-3.177-3.177v-0.329
				c0-1.755,1.422-3.177,3.177-3.177h173.699c1.755,0,3.177,1.422,3.177,3.177v0.329
				C317.789,316.734,316.367,318.157,314.612,318.157z"/>
		</g>
		<g>
			<path style="fill:#E0E0E0;" d="M314.612,339.494H140.913c-1.755,0-3.177-1.422-3.177-3.177v-0.329
				c0-1.755,1.422-3.177,3.177-3.177h173.699c1.755,0,3.177,1.422,3.177,3.177v0.329
				C317.789,338.072,316.367,339.494,314.612,339.494z"/>
		</g>
		<g>
			<path style="fill:#E0E0E0;" d="M314.991,187.384H141.292c-1.755,0-3.177-1.422-3.177-3.177v-0.329
				c0-1.755,1.422-3.177,3.177-3.177h173.699c1.755,0,3.177,1.423,3.177,3.177v0.329
				C318.168,185.962,316.746,187.384,314.991,187.384z"/>
		</g>
		<g>
			<path style="fill:#E0E0E0;" d="M184.931,167.095h-43.639c-1.755,0-3.177-1.422-3.177-3.177v-0.329
				c0-1.755,1.422-3.177,3.177-3.177h43.639c1.755,0,3.177,1.422,3.177,3.177v0.329
				C188.108,165.673,186.686,167.095,184.931,167.095z"/>
		</g>
		<g>
			<path style="fill:#E0E0E0;" d="M304.123,131.311H201.926c-1.755,0-3.177-1.422-3.177-3.177v-0.329
				c0-1.755,1.422-3.177,3.177-3.177h102.197c1.755,0,3.177,1.422,3.177,3.177v0.329C307.3,129.888,305.878,131.311,304.123,131.311
				z"/>
		</g>
		<g>
			<g>
				<path style="fill:#FF725E;" d="M162.33,261.555h-9.42l-1.797,4.348h-4.812l9.044-20.29h4.638l9.073,20.29h-4.928L162.33,261.555
					z M160.852,257.99l-3.217-7.768l-3.218,7.768H160.852z"/>
				<path style="fill:#FF725E;" d="M171.171,245.613h9.218c2.203,0,4.149,0.42,5.84,1.261c1.691,0.841,3.005,2.025,3.942,3.551
					c0.937,1.526,1.406,3.304,1.406,5.332c0,2.029-0.469,3.808-1.406,5.334c-0.938,1.526-2.251,2.71-3.942,3.551
					c-1.691,0.841-3.638,1.261-5.84,1.261h-9.218V245.613z M180.156,262.047c2.029,0,3.647-0.565,4.855-1.695
					c1.207-1.131,1.811-2.662,1.811-4.595c0-1.932-0.604-3.464-1.811-4.594c-1.208-1.13-2.826-1.696-4.855-1.696h-4.29v12.58
					H180.156z"/>
				<path style="fill:#FF725E;" d="M213.577,265.903l-0.029-12.174l-5.971,10.029h-2.116l-5.942-9.768v11.913h-4.405v-20.29h3.884
					l7.595,12.608l7.478-12.608h3.855l0.058,20.29H213.577z"/>
				<path style="fill:#FF725E;" d="M222.795,245.613h4.695v20.29h-4.695V245.613z"/>
				<path style="fill:#FF725E;" d="M236.504,249.439h-6.492v-3.826h17.682v3.826H241.2v16.463h-4.696V249.439z"/>
				<path style="fill:#FF725E;" d="M254.707,249.439h-6.492v-3.826h17.682v3.826h-6.493v16.463h-4.696V249.439z"/>
				<path style="fill:#FF725E;" d="M284.128,262.134v3.769h-15.71v-20.29h15.333v3.768h-10.667v4.406h9.421v3.652h-9.421v4.695
					H284.128z"/>
				<path style="fill:#FF725E;" d="M287.867,245.613h9.217c2.203,0,4.149,0.42,5.841,1.261c1.69,0.841,3.005,2.025,3.942,3.551
					c0.937,1.526,1.405,3.304,1.405,5.332c0,2.029-0.469,3.808-1.405,5.334c-0.938,1.526-2.252,2.71-3.942,3.551
					c-1.691,0.841-3.638,1.261-5.841,1.261h-9.217V245.613z M296.852,262.047c2.029,0,3.647-0.565,4.855-1.695
					c1.207-1.131,1.811-2.662,1.811-4.595c0-1.932-0.604-3.464-1.811-4.594c-1.208-1.13-2.826-1.696-4.855-1.696h-4.29v12.58
					H296.852z"/>
			</g>
			<g>
				<path style="fill:#FF725E;" d="M320.26,277.912H135.524v-45.161H320.26V277.912z M136.524,276.912H319.26v-43.161H136.524
					V276.912z"/>
			</g>
		</g>
		<g>
			<g>
				<path style="fill:#FF725E;" d="M304.126,374.155c-0.226,0.007-0.27-1.358-0.969-3.605c-0.69-2.207-2.277-5.394-5.621-7.802
					c-1.657-1.176-3.714-2.162-6.062-2.533c-2.333-0.356-4.947-0.248-7.413,0.724c-1.243,0.446-2.439,1.112-3.535,1.947
					c-1.11,0.818-2.116,1.829-2.943,2.997c-1.712,2.301-2.667,5.237-2.699,8.27c0.031,3.034,0.986,5.971,2.698,8.273
					c0.827,1.169,1.833,2.18,2.943,2.998c1.097,0.835,2.292,1.502,3.536,1.948c2.467,0.972,5.081,1.08,7.414,0.724
					c2.348-0.372,4.405-1.357,6.062-2.533c3.343-2.409,4.93-5.595,5.62-7.802C303.855,375.514,303.899,374.149,304.126,374.155
					c0.129-0.009,0.445,1.368,0.014,3.852c-0.198,1.242-0.695,2.727-1.547,4.319c-0.859,1.585-2.142,3.259-3.94,4.7
					c-1.791,1.428-4.092,2.661-6.782,3.192c-2.67,0.514-5.707,0.475-8.629-0.591c-1.468-0.492-2.89-1.245-4.197-2.204
					c-1.322-0.943-2.524-2.118-3.519-3.486c-2.05-2.696-3.22-6.192-3.247-9.784c0.028-3.591,1.198-7.086,3.248-9.78
					c0.995-1.367,2.197-2.543,3.518-3.485c1.307-0.96,2.729-1.712,4.197-2.204c2.922-1.066,5.959-1.105,8.628-0.591
					c2.689,0.53,4.99,1.763,6.782,3.191c1.798,1.441,3.082,3.115,3.94,4.7c0.852,1.592,1.349,3.077,1.547,4.319
					C304.57,372.788,304.255,374.165,304.126,374.155z"/>
			</g>
		</g>
		<g>
			<g>
				<path style="fill:#263238;" d="M239.578,379.85c0.006,0.007-0.1,0.102-0.312,0.28c-0.21,0.181-0.534,0.435-0.969,0.757
					c-0.875,0.631-2.211,1.531-4.111,2.335c-1.887,0.789-4.396,1.509-7.347,1.274c-1.464-0.12-3.024-0.478-4.542-1.184
					c-1.514-0.699-3.005-1.747-4.16-3.221c-1.161-1.464-1.923-3.357-2.079-5.393c-0.159-2.022,0.309-4.244,1.658-6.022
					c0.663-0.89,1.562-1.632,2.61-2.114c1.041-0.476,2.29-0.682,3.461-0.324c1.179,0.335,2.15,1.225,2.752,2.287
					c0.612,1.066,0.903,2.32,0.838,3.576c-0.158,2.553-1.685,4.794-3.453,6.608c-1.801,1.82-3.845,3.463-6.098,4.874
					c-2.253,1.406-4.706,2.583-7.305,3.463c-2.598,0.861-5.345,1.503-8.188,1.535c-2.814,0.032-5.733-0.622-7.952-2.371
					c-2.223-1.728-3.585-4.287-4.195-6.885c-0.622-2.624-0.436-5.318,0.127-7.81c0.591-2.5,1.499-4.836,2.62-7.018
					c0.593-1.075,1.286-2.093,2.153-2.941c0.853-0.844,1.915-1.554,3.126-1.736c1.199-0.211,2.456,0.172,3.342,0.937
					c0.895,0.761,1.464,1.805,1.748,2.88c0.569,2.214-0.22,4.395-1.227,6.113c-0.513,0.874-1.089,1.683-1.701,2.428
					c-0.592,0.763-1.227,1.461-1.849,2.142c-1.278,1.329-2.603,2.485-3.918,3.497c-1.331,0.991-2.646,1.843-3.925,2.551
					c-2.555,1.428-4.94,2.291-6.912,2.86c-1.975,0.579-3.564,0.793-4.631,0.949c-0.519,0.047-0.924,0.083-1.225,0.11
					c-0.276,0.022-0.417,0.029-0.418,0.02c-0.001-0.009,0.139-0.033,0.413-0.073c0.298-0.039,0.701-0.093,1.215-0.161
					c1.059-0.189,2.634-0.434,4.588-1.04c1.951-0.596,4.307-1.48,6.826-2.92c1.261-0.714,2.557-1.569,3.867-2.561
					c1.293-1.013,2.596-2.165,3.851-3.487c0.61-0.677,1.234-1.37,1.813-2.128c0.601-0.74,1.161-1.538,1.656-2.391
					c0.975-1.678,1.696-3.766,1.157-5.802c-0.268-1-0.805-1.965-1.617-2.648c-0.8-0.684-1.912-1.017-2.984-0.826
					c-1.077,0.164-2.06,0.812-2.867,1.618c-0.821,0.806-1.49,1.792-2.061,2.836c-1.086,2.127-1.988,4.46-2.557,6.9
					c-0.547,2.441-0.719,5.055-0.116,7.583c0.592,2.508,1.909,4.957,4.016,6.592c2.101,1.655,4.889,2.29,7.629,2.26
					c2.762-0.031,5.465-0.658,8.027-1.506c2.561-0.865,4.979-2.022,7.2-3.405c2.219-1.385,4.242-3.006,6.011-4.787
					c1.737-1.769,3.183-3.926,3.331-6.287c0.143-2.297-1.113-4.763-3.242-5.399c-1.042-0.324-2.177-0.148-3.147,0.291
					c-0.976,0.444-1.826,1.137-2.451,1.97c-1.28,1.671-1.744,3.787-1.601,5.731c0.14,1.957,0.862,3.783,1.968,5.195
					c1.104,1.427,2.541,2.456,4.01,3.148c1.473,0.7,2.995,1.063,4.427,1.194c2.884,0.258,5.366-0.419,7.245-1.172
					c1.892-0.767,3.238-1.633,4.128-2.233c0.443-0.306,0.777-0.546,0.997-0.713C239.455,379.923,239.572,379.843,239.578,379.85z"/>
			</g>
		</g>
		<g>
			<path style="fill:#FF725E;" d="M288.853,383.186L288.853,383.186c-3.741,0-6.774-2.875-6.774-6.421v-9.537l6.774,1.417
				l6.774-1.417v9.537C295.627,380.311,292.594,383.186,288.853,383.186z"/>
		</g>
		<g>
			<g>
				<path style="fill:#263238;" d="M347.574,184.576c0,0.144-53.645,0.26-119.805,0.26c-66.183,0-119.816-0.117-119.816-0.26
					s53.634-0.26,119.816-0.26C293.928,184.315,347.574,184.432,347.574,184.576z"/>
			</g>
		</g>
	</g>
</g>
<g id="Plant">
	<g>
		<g>
			<g>
				<path style="fill:#263238;" d="M74.235,439.923c0,0-4.936-33.935-4.525-53.679c0.411-19.744-0.024-41.956-0.024-41.956h2.274
					c0,0-1.54,39.19,0.136,62.826c1.675,23.618,6.089,32.809,6.089,32.809H74.235"/>
			</g>
			<g>
				<path style="fill:#455A64;" d="M88.938,306.106c-0.457-1.159-1.02-2.367-2.072-3.034c-1.443-0.915-3.335-0.534-4.945,0.035
					c-6.872,2.43-12.965,15.244-15.742,21.983l9.124,30.742C91.77,340.555,94.622,320.513,88.938,306.106z"/>
			</g>
			<g>
				<g>
					<path style="fill:#263238;" d="M86.333,304.316c0.012,0.005-0.034,0.143-0.132,0.401c-0.117,0.294-0.265,0.665-0.447,1.12
						c-0.4,0.967-0.961,2.374-1.632,4.12c-1.344,3.491-3.056,8.372-4.586,13.87c-1.524,5.502-2.574,10.567-3.221,14.251
						c-0.325,1.842-0.57,3.337-0.726,4.372c-0.079,0.483-0.144,0.877-0.195,1.19c-0.049,0.271-0.08,0.413-0.093,0.412
						c-0.013-0.002-0.006-0.147,0.018-0.422c0.033-0.315,0.074-0.713,0.125-1.2c0.111-1.042,0.316-2.545,0.608-4.396
						c0.582-3.702,1.593-8.791,3.121-14.308c1.534-5.513,3.29-10.395,4.701-13.867c0.704-1.737,1.303-3.13,1.745-4.081
						c0.208-0.444,0.377-0.806,0.512-1.093C86.252,304.438,86.321,304.31,86.333,304.316z"/>
				</g>
			</g>
			<g>
				<path style="fill:#455A64;" d="M71.247,363.204c-8.552-4.725-13.592-13.616-14.062-23.375
					c-0.329-6.822,1.767-13.516,4.142-19.92c0.206-0.556,0.451-1.154,0.966-1.446c0.717-0.406,1.615-0.045,2.331,0.363
					c6.214,3.539,9.979,10.285,11.983,17.15c1.333,4.568,2.023,9.385,1.407,14.103C77.397,354.797,74.7,359.931,71.247,363.204"/>
			</g>
			<g>
				<g>
					<path style="fill:#263238;" d="M71.247,363.204c-0.013,0-0.024-0.142-0.034-0.412c-0.006-0.311-0.013-0.702-0.023-1.18
						c-0.003-1.024-0.044-2.506-0.128-4.334c-0.165-3.656-0.644-8.696-1.587-14.202c-0.949-5.507-2.1-10.437-2.948-14.001
						c-0.418-1.744-0.761-3.173-1.012-4.22c-0.107-0.466-0.194-0.847-0.263-1.151c-0.056-0.264-0.08-0.404-0.067-0.408
						c0.013-0.003,0.061,0.131,0.14,0.389c0.087,0.299,0.197,0.674,0.332,1.133c0.281,0.986,0.67,2.418,1.129,4.193
						c0.915,3.55,2.109,8.48,3.061,14.002c0.946,5.521,1.386,10.586,1.482,14.255c0.05,1.834,0.051,3.32,0.009,4.345
						c-0.019,0.479-0.035,0.869-0.048,1.18C71.274,363.063,71.26,363.205,71.247,363.204z"/>
				</g>
			</g>
			<g style="opacity:0.3;">
				<g>
					<path d="M71.247,363.204c-8.552-4.725-13.592-13.616-14.062-23.375c-0.329-6.822,1.767-13.516,4.142-19.92
						c0.206-0.556,0.451-1.154,0.966-1.446c0.717-0.406,1.615-0.045,2.331,0.363c6.214,3.539,9.979,10.285,11.983,17.15
						c1.333,4.568,2.023,9.385,1.407,14.103C77.397,354.797,74.7,359.931,71.247,363.204"/>
				</g>
			</g>
			<g>
				<path style="fill:#455A64;" d="M80.895,415.127c8.417,1.849,15.347,7.786,23.467,10.673c5.372,1.91,11.448,2.586,15.737,6.342
					c-1.029-2.599-3.469-4.329-5.84-5.81c-6.678-4.171-13.828-7.584-21.27-10.154c-3.82-1.319-7.965-2.421-11.858-1.335"/>
			</g>
			<g>
				<path style="fill:#455A64;" d="M68.726,422.625c-10.541-0.17-21.639-9.144-32.132-9.68
					C47.574,409.401,63.295,412.296,68.726,422.625"/>
			</g>
			<g>
				<path style="fill:#455A64;" d="M72.844,397.339c5.353-1.929,11.229-2.021,16.852-1.147c5.622,0.874,11.052,2.677,16.451,4.472
					c-0.541-3.657-3.503-6.407-6.285-8.842c-2.094-1.832-4.204-3.675-6.606-5.078c-2.402-1.403-5.143-2.353-7.923-2.235
					c-3.353,0.142-6.545,1.872-8.744,4.407S73.208,394.003,72.844,397.339"/>
			</g>
			<g>
				<path style="fill:#455A64;" d="M51.211,385.701c-6.636-5.665-16.686-5.111-25.409-4.915c13.408,6.411,27.857,15.2,39.405,24.556
					C65.562,399.176,59.592,392.857,51.211,385.701z"/>
			</g>
			<g style="opacity:0.3;">
				<g>
					<path d="M51.211,385.701c-6.636-5.665-16.686-5.111-25.409-4.915c13.408,6.411,27.857,15.2,39.405,24.556
						C65.562,399.176,59.592,392.857,51.211,385.701z"/>
				</g>
			</g>
			<g>
				<path style="fill:#455A64;" d="M75.829,377.881c3.336-2.224,6.712-4.344,10.204-5.931c3.492-1.587,6.751-4.115,10.124-5.941
					c4.374-2.368,8.163-5.66,12.178-8.597c4.015-2.936,8.425-5.587,13.337-6.364c-4.006-0.827-8.192-0.376-12.138,0.702
					c-3.946,1.077-7.694,2.764-11.424,4.444c-5.176,2.332-10.442,4.721-14.673,8.506C79.206,368.486,75.382,372.221,75.829,377.881"
					/>
			</g>
			<g>
				<g>
					<path style="fill:#263238;" d="M104.17,422.625c-0.006,0.011-0.121-0.039-0.334-0.144c-0.249-0.129-0.552-0.286-0.92-0.477
						c-0.794-0.422-1.934-1.048-3.369-1.77c-0.71-0.375-1.498-0.767-2.352-1.167c-0.845-0.42-1.764-0.834-2.737-1.255
						c-1.946-0.831-4.12-1.699-6.491-2.262c-2.363-0.58-4.718-0.707-6.761-0.17c-1.031,0.249-2.001,0.495-2.865,0.855
						c-0.867,0.351-1.64,0.762-2.313,1.187c-1.351,0.85-2.294,1.752-2.906,2.401c-0.611,0.654-0.908,1.054-0.935,1.034
						c-0.01-0.008,0.055-0.114,0.189-0.31c0.132-0.198,0.345-0.477,0.637-0.822c0.585-0.686,1.514-1.631,2.871-2.526
						c0.676-0.448,1.458-0.88,2.339-1.252c0.879-0.382,1.871-0.645,2.903-0.904c2.088-0.571,4.536-0.449,6.928,0.141
						c2.408,0.573,4.592,1.457,6.543,2.311c0.975,0.432,1.893,0.859,2.735,1.292c0.852,0.414,1.634,0.821,2.338,1.212
						c1.423,0.754,2.545,1.416,3.317,1.878c0.354,0.215,0.646,0.393,0.886,0.538C104.074,422.542,104.176,422.614,104.17,422.625z"
						/>
				</g>
			</g>
			<g>
				<g>
					<path style="fill:#263238;" d="M60.863,417.402c0.009-0.024,0.243,0.046,0.66,0.193c0.419,0.142,1.009,0.394,1.718,0.747
						c1.418,0.7,3.284,1.893,5.036,3.571c1.747,1.684,3.014,3.501,3.771,4.89c0.38,0.694,0.656,1.273,0.815,1.686
						c0.164,0.411,0.243,0.642,0.219,0.652c-0.061,0.027-0.454-0.866-1.264-2.205c-0.806-1.339-2.084-3.097-3.801-4.752
						c-1.722-1.649-3.53-2.855-4.9-3.607C61.747,417.821,60.839,417.464,60.863,417.402z"/>
				</g>
			</g>
			<g>
				<g>
					<path style="fill:#263238;" d="M37.541,385.172c0.004-0.012,0.159,0.034,0.449,0.133c0.326,0.116,0.746,0.265,1.265,0.45
						c0.562,0.207,1.229,0.453,1.995,0.736c0.777,0.289,1.622,0.715,2.577,1.136c3.795,1.723,8.845,4.622,13.723,8.743
						c2.405,2.093,4.58,4.222,6.399,6.302c1.812,2.084,3.346,4.044,4.542,5.755c1.203,1.705,2.116,3.125,2.741,4.107
						c0.296,0.464,0.535,0.839,0.721,1.13c0.163,0.26,0.244,0.4,0.234,0.407c-0.01,0.008-0.112-0.118-0.296-0.364
						c-0.184-0.246-0.452-0.612-0.781-1.093c-0.663-0.958-1.608-2.353-2.835-4.033c-1.219-1.685-2.768-3.619-4.585-5.68
						c-1.824-2.057-3.993-4.164-6.384-6.245c-4.848-4.095-9.842-7.011-13.593-8.789c-0.944-0.434-1.777-0.876-2.544-1.183
						c-0.755-0.304-1.412-0.569-1.966-0.793c-0.508-0.212-0.919-0.383-1.238-0.516C37.683,385.254,37.537,385.184,37.541,385.172z"
						/>
				</g>
			</g>
			<g>
				<g>
					<path style="fill:#263238;" d="M88.661,391.414c-0.007,0.025-0.307-0.015-0.84-0.108c-0.29-0.053-0.611-0.113-0.968-0.179
						c-0.376-0.073-0.816-0.075-1.295-0.124c-1.896-0.138-4.657,0.019-7.244,1.429c-1.305,0.661-2.401,1.552-3.296,2.446
						c-0.909,0.887-1.599,1.812-2.119,2.62c-1.058,1.619-1.384,2.788-1.449,2.766c-0.021-0.005,0.038-0.303,0.214-0.822
						c0.194-0.51,0.492-1.25,1.009-2.084c0.5-0.841,1.181-1.801,2.099-2.723c0.903-0.928,2.023-1.854,3.367-2.535
						c2.669-1.454,5.525-1.571,7.443-1.362c0.485,0.067,0.93,0.089,1.307,0.182c0.356,0.09,0.676,0.17,0.965,0.243
						C88.381,391.301,88.668,391.389,88.661,391.414z"/>
				</g>
			</g>
			<g>
				<g>
					<path style="fill:#263238;" d="M99.255,358.549c0.006,0.012-0.132,0.096-0.399,0.246c-0.303,0.165-0.693,0.376-1.176,0.639
						c-1.023,0.551-2.494,1.364-4.282,2.417c-1.779,1.068-3.876,2.379-6.106,3.973c-2.224,1.598-4.613,3.456-6.818,5.712
						c-1.088,1.135-2.09,2.321-2.788,3.61c-0.69,1.326-1.35,2.607-1.957,3.838c-1.219,2.459-2.212,4.722-2.929,6.667
						c-0.715,1.946-1.16,3.566-1.425,4.694c-0.27,1.128-0.367,1.764-0.404,1.758c-0.013-0.002,0.002-0.162,0.042-0.466
						c0.038-0.304,0.102-0.752,0.219-1.323c0.221-1.143,0.631-2.785,1.318-4.754c0.689-1.968,1.662-4.255,2.868-6.729
						c0.6-1.238,1.255-2.526,1.941-3.855c0.725-1.349,1.743-2.551,2.845-3.702c2.232-2.284,4.641-4.142,6.888-5.733
						c2.252-1.587,4.371-2.879,6.173-3.92c1.811-1.027,3.304-1.806,4.349-2.318c0.496-0.237,0.897-0.428,1.209-0.577
						C99.1,358.599,99.249,358.537,99.255,358.549z"/>
				</g>
			</g>
			<g>
				<g>
					<path style="fill:#263238;" d="M69.697,390.465c-0.026,0.004-0.099-0.313-0.209-0.888c-0.123-0.65-0.277-1.466-0.461-2.435
						c-0.402-2.052-1.015-4.878-1.993-7.91c-0.969-3.036-2.149-5.678-3.01-7.583c-0.409-0.899-0.753-1.654-1.028-2.257
						c-0.24-0.535-0.361-0.836-0.338-0.848c0.023-0.012,0.189,0.268,0.469,0.783c0.28,0.515,0.673,1.267,1.137,2.208
						c0.925,1.88,2.151,4.522,3.128,7.582c0.985,3.055,1.561,5.909,1.897,7.978c0.165,1.036,0.284,1.877,0.344,2.461
						C69.699,390.137,69.723,390.461,69.697,390.465z"/>
				</g>
			</g>
			<g>
				<path style="fill:#455A64;" d="M68.935,366.483c-0.265-3.982-1.562-7.852-3.428-11.38c-5.116-9.673-14.732-16.844-25.462-18.988
					c7.858,11.712,15.715,23.423,23.573,35.135l3.044,6.271C68.739,374.113,69.199,370.466,68.935,366.483z"/>
			</g>
		</g>
		<g>
			<g>
				<g>
					<rect x="47.935" y="435.725" style="fill:#FF725E;" width="54.814" height="9.715"/>
				</g>
			</g>
			<g>
				<g>
					<polygon style="fill:#FF725E;" points="52.028,443.513 56.696,473.659 93.086,473.659 98.655,443.513 					"/>
				</g>
			</g>
			<g>
				<g>
					<g>
						<path style="fill:#263238;" d="M102.719,445.452c0,0.107-12.364,0.193-27.612,0.193c-15.254,0-27.615-0.086-27.615-0.193
							c0-0.106,12.361-0.193,27.615-0.193C90.355,445.26,102.719,445.346,102.719,445.452z"/>
					</g>
				</g>
			</g>
		</g>
	</g>
</g>
<g id="Speech_Bubble">
	<g>
		<g>
			<g>
				<g>
					<polygon style="fill:#FFFFFF;" points="421.693,94.943 416.226,75.544 433.935,67.396 416.613,59.195 421.247,43.174 
						405.489,49.142 397.798,34.038 390.027,51.094 373.518,43.91 378.797,61.269 361.329,68.31 377.369,79.111 371.002,94.224 
						390.4,91.581 396.259,109.974 402.393,91.097 					"/>
				</g>
			</g>
			<g>
				<g>
					<g>
						<path style="fill:#263238;" d="M421.693,94.943c-0.824-0.159-7.084-1.368-19.323-3.732l0.134-0.078
							c-1.684,5.22-3.743,11.605-6.093,18.891l-0.153,0.473l-0.152-0.474c-1.761-5.502-3.748-11.708-5.885-18.384l0.204,0.129
							c-6.017,0.826-12.541,1.721-19.395,2.662l-0.361,0.05l0.141-0.337c2.013-4.787,4.151-9.873,6.356-15.117l0.08,0.268
							c-5.107-3.435-10.503-7.065-16.045-10.793l-0.359-0.242l0.402-0.162c5.568-2.246,11.459-4.623,17.465-7.046l-0.137,0.286
							c-1.448-4.761-2.983-9.808-4.538-14.919l-0.742-2.439l-0.149-0.49l0.469,0.204c5.594,2.435,11.104,4.834,16.508,7.186
							l-0.306,0.118c2.654-5.819,5.25-11.513,7.776-17.053l0.196-0.43l0.214,0.422c2.637,5.186,5.2,10.225,7.683,15.108
							l-0.272-0.105c5.45-2.059,10.713-4.048,15.763-5.955l0.385-0.146l-0.115,0.395c-1.637,5.635-3.186,10.968-4.652,16.015
							l-0.1-0.222c6.301,2.995,12.067,5.735,17.31,8.227l0.31,0.147l-0.312,0.142c-6.9,3.156-12.801,5.856-17.726,8.109l0.064-0.138
							C419.759,87.924,421.469,94.13,421.693,94.943c-0.233-0.81-2.016-6.997-5.58-19.368l-0.028-0.096l0.092-0.042
							c4.915-2.274,10.804-5,17.69-8.186l-0.002,0.29c-5.251-2.477-11.024-5.2-17.334-8.176l-0.145-0.068l0.044-0.154
							c1.455-5.051,2.993-10.386,4.617-16.025l0.27,0.249c-5.047,1.916-10.307,3.912-15.754,5.98l-0.183,0.069l-0.089-0.175
							c-2.488-4.88-5.056-9.916-7.699-15.1l0.41-0.009c-2.523,5.542-5.115,11.237-7.765,17.058l-0.095,0.209l-0.211-0.092
							c-5.404-2.351-10.915-4.748-16.509-7.181l0.32-0.285l0.742,2.439c1.554,5.11,3.088,10.158,4.536,14.919l0.063,0.206l-0.2,0.08
							c-6.008,2.42-11.9,4.793-17.469,7.036l0.042-0.404c5.539,3.734,10.931,7.369,16.034,10.809l0.15,0.101l-0.07,0.167
							c-2.213,5.241-4.358,10.324-6.378,15.108l-0.22-0.287c6.856-0.927,13.382-1.809,19.4-2.622l0.157-0.021l0.048,0.15
							c2.118,6.683,4.087,12.895,5.832,18.401l-0.304-0.001c2.381-7.275,4.468-13.652,6.175-18.864l0.033-0.1l0.102,0.021
							C414.626,93.491,420.872,94.774,421.693,94.943z"/>
					</g>
				</g>
			</g>
		</g>
		<g>
			<g>
				<path style="fill:#FF725E;" d="M394.568,78.41c-0.018-1.808,1.448-3.251,3.492-3.27c2.002-0.018,3.452,1.398,3.47,3.206
					c0.018,1.808-1.404,3.293-3.406,3.312C396.079,81.677,394.586,80.218,394.568,78.41z M395.046,56.455l5.899-0.048l-0.828,15.251
					l-3.947,0.033L395.046,56.455z"/>
			</g>
		</g>
	</g>
</g>
<g id="Character">
	<g>
		<g>
			<path style="fill:#455A64;" d="M433.165,324.068c0,0,1.11,3.876-10.481,5.699c-11.591,1.822-36.137,3.186-48.182,2.958
				c-12.046-0.227-20.491-1.281-26.058-9.051c-4.933-6.886-4.308-12.283,2.055-13.874c6.364-1.591,44.23,10.09,51.73,5.939
				C409.73,311.588,431.828,315.638,433.165,324.068z"/>
		</g>
		<g>
			<path style="fill:#FFBF9D;" d="M368.627,263.306c0.366,0.631,2.106,20.221,2.106,20.221s-6.47,25.236-9.449,40.959
				c-3.181,16.788-2.664,43.255-0.799,48.035c3.287,8.423,58.085,44.632,58.085,44.632l7.932-11.35l-45.151-47.191l13.061-60.887
				l-6.022-39.016L368.627,263.306z"/>
		</g>
		<g>
			<g>
				<g>
					<path style="fill:#FFBF9D;" d="M415.58,248.953c0,0,13.335,21.055,14.143,32.048c0.927,12.603-7.356,26.799-11.443,35.588
						c-3.755,8.074-21.666,36.909-21.666,36.909c14.592-1.864,28.16,0.24,44.395,4.75c0,0,6.293,6.514,2.888,13.079
						c0,0-53.107,4.362-59.692,3.954c-6.585-0.407-12.703-5.94-12.482-17.914c0.221-11.974,10.535-51.046,10.535-51.046
						l-1.422-6.949l-2.023-8.833l-5.18-32.011l23.894-9.476L415.58,248.953z"/>
				</g>
				<g>
					<g>
						<path style="fill:#FF9A6C;" d="M415.58,248.953c0,0-0.411,0.019-1.198,0.032c-0.798,0.01-1.963,0.026-3.488,0.046
							c-3.067,0.03-7.569,0.074-13.367,0.13l0.039-0.008c-6.352,2.535-14.393,5.743-23.874,9.526l0.1-0.176
							c1.084,6.642,2.291,14.032,3.601,22.059c0.327,2.007,0.661,4.053,1,6.138c0.17,1.042,0.341,2.094,0.514,3.155
							c0.158,1.064,0.461,2.109,0.688,3.178c0.489,2.132,0.985,4.299,1.49,6.501c0.455,2.214,0.917,4.463,1.386,6.743l0.01,0.05
							l-0.013,0.05c-1.972,7.596-3.943,15.601-5.834,23.967c-0.936,4.185-1.871,8.457-2.697,12.828
							c-0.806,4.368-1.641,8.836-1.917,13.399c-0.101,2.278,0.009,4.592,0.466,6.857c0.457,2.259,1.296,4.474,2.63,6.381
							c0.631,0.982,1.473,1.801,2.34,2.577c0.925,0.708,1.911,1.355,3.008,1.781c1.093,0.415,2.238,0.746,3.421,0.82
							c1.182,0.087,2.386,0.055,3.598,0.016c9.691-0.371,19.608-1.136,29.692-1.857c9.058-0.705,17.977-1.398,26.699-2.077
							l-0.208,0.138c0.488-1.061,0.883-2.175,0.946-3.343c0.071-1.159-0.055-2.327-0.371-3.448c-0.662-2.228-1.892-4.29-3.417-5.992
							l0.115,0.068c-7.614-2.115-15.154-3.846-22.592-4.742c-7.432-0.915-14.749-0.912-21.705-0.02l-0.491,0.063l0.261-0.421
							c4.518-7.293,8.812-14.333,12.828-21.089c4.004-6.769,7.794-13.198,10.713-19.618c3.131-6.3,5.97-12.281,7.736-18.132
							c1.784-5.808,2.529-11.562,1.405-16.526c-1.128-4.957-3.038-9.142-4.689-12.741c-1.691-3.593-3.284-6.584-4.607-8.994
							c-1.332-2.405-2.398-4.23-3.122-5.458c-0.36-0.606-0.635-1.068-0.826-1.389C415.667,249.114,415.58,248.953,415.58,248.953
							s0.111,0.149,0.306,0.454c0.199,0.317,0.484,0.773,0.859,1.37c0.745,1.216,1.833,3.029,3.187,5.425
							c1.345,2.4,2.96,5.383,4.674,8.973c1.674,3.598,3.608,7.776,4.767,12.774c1.159,5.03,0.421,10.837-1.355,16.684
							c-1.759,5.889-4.594,11.9-7.711,18.206c-2.9,6.419-6.703,12.901-10.69,19.667c-4.007,6.766-8.291,13.814-12.803,21.116
							l-0.23-0.358c6.993-0.906,14.356-0.916,21.823-0.003c7.474,0.894,15.04,2.626,22.669,4.741l0.072,0.02l0.044,0.049
							c1.598,1.784,2.846,3.875,3.544,6.206c0.33,1.169,0.466,2.4,0.39,3.627c-0.068,1.237-0.483,2.422-1.001,3.542l-0.059,0.127
							l-0.149,0.012c-8.724,0.68-17.644,1.376-26.703,2.082c-10.089,0.721-19.998,1.484-29.716,1.853
							c-1.213,0.038-2.435,0.071-3.658-0.02c-1.232-0.078-2.428-0.422-3.568-0.857c-1.145-0.446-2.176-1.121-3.139-1.861
							c-0.904-0.808-1.779-1.665-2.433-2.681c-1.382-1.979-2.24-4.26-2.706-6.57c-0.465-2.317-0.575-4.668-0.47-6.979
							c0.284-4.626,1.125-9.089,1.937-13.469c0.832-4.378,1.773-8.653,2.715-12.841c1.903-8.371,3.886-16.375,5.872-23.975
							l-0.003,0.099c-0.465-2.28-0.922-4.528-1.373-6.741c-0.501-2.204-0.994-4.375-1.479-6.509
							c-0.225-1.071-0.526-2.117-0.682-3.182c-0.171-1.062-0.34-2.115-0.508-3.158c-0.335-2.086-0.664-4.135-0.987-6.143
							c-1.289-8.033-2.475-15.43-3.541-22.077l-0.021-0.129l0.12-0.048c9.496-3.743,17.551-6.918,23.913-9.426l0.019-0.008h0.02
							c5.816-0.008,10.332-0.015,13.409-0.019c1.518,0.003,2.679,0.006,3.473,0.007C415.187,248.938,415.58,248.953,415.58,248.953z
							"/>
					</g>
				</g>
			</g>
			<g>
				<g>
					<path style="fill:#FFBF9D;" d="M322.745,118.522c0,0,5.128,38.403,10.127,48.671c2.572,5.283,25.583,34.855,25.583,34.855
						l12.61-17.935l-24.111-26.245l-13.683-40.02L322.745,118.522z"/>
				</g>
				<g>
					<g>
						<g>
							<g>
								<path style="fill:#FFBF9D;" d="M323.118,108.057c-0.046-0.268-0.711-3.399-0.036-4.274c0.674-0.875,1.95-0.679,1.95-0.679
									s0.531-1.333,1.559-1.785c1.027-0.452,2.391-0.005,2.391-0.005l0.888-0.596c1.3-0.873,2.165-0.37,2.165-0.37
									s1.037,0.839,2.198,0.808c1.161-0.031,2.634,3.181,3.454,4.71c0.869,1.619,1.945,3.557,0.436,5.842
									c-2.024,3.064-5.233,6.624-5.233,6.624l-9.568,1.011c0,0-1.302-1.158-1.473-4.58
									C321.677,111.34,323.118,108.057,323.118,108.057z"/>
							</g>
						</g>
					</g>
					<g>
						<g>
							<g>
								<g>
									<path style="fill:#FF9A6C;" d="M325.032,103.104c0.053-0.014,0.291,0.668,0.634,1.783c0.343,1.115,0.79,2.663,1.259,4.378
										c0.059,0.215,0.116,0.426,0.173,0.636c0.015,0.071,0.027,0.063,0.044,0.198c0.002,0.094-0.02,0.177-0.056,0.248
										c-0.07,0.145-0.181,0.236-0.286,0.304c-0.433,0.255-0.859,0.278-1.254,0.314c-0.426,0.035-0.85-0.122-1.134-0.355
										c-0.291-0.231-0.502-0.498-0.657-0.756c-0.315-0.515-0.466-0.974-0.559-1.289c-0.089-0.318-0.106-0.502-0.08-0.508
										c0.065-0.025,0.242,0.698,0.872,1.642c0.315,0.446,0.829,0.98,1.53,0.901c0.364-0.036,0.776-0.091,1.067-0.274
										c0.069-0.045,0.125-0.099,0.146-0.149c0.025-0.065,0.022-0.038-0.017-0.177c-0.057-0.209-0.116-0.421-0.175-0.635
										c-0.47-1.714-0.873-3.272-1.146-4.405C325.122,103.827,324.979,103.119,325.032,103.104z"/>
								</g>
							</g>
						</g>
					</g>
					<g>
						<g>
							<g>
								<g>
									<path style="fill:#FF9A6C;" d="M328.982,101.314c0.053-0.006,0.174,0.587,0.325,1.554c0.152,0.968,0.335,2.311,0.515,3.806
										l-0.008-0.036c0.014,0.052,0.03,0.108,0.045,0.163c0.191,0.771,0.247,1.554,0.04,2.249c-0.2,0.71-0.793,1.18-1.319,1.299
										c-0.535,0.126-0.967,0.025-1.24-0.061c-0.276-0.091-0.41-0.187-0.399-0.21c0.012-0.027,0.161,0.019,0.435,0.06
										c0.269,0.039,0.678,0.084,1.126-0.058c0.442-0.141,0.894-0.533,1.046-1.132c0.161-0.596,0.106-1.329-0.074-2.047
										c-0.014-0.049-0.027-0.098-0.039-0.143l-0.006-0.022l-0.002-0.014c-0.177-1.495-0.315-2.844-0.396-3.82
										C328.951,101.925,328.928,101.321,328.982,101.314z"/>
								</g>
							</g>
						</g>
					</g>
					<g>
						<g>
							<g>
								<g>
									<path style="fill:#FF9A6C;" d="M332.035,100.348c0.057,0.008-0.014,0.913-0.177,2.366l-0.005-0.061
										c0.391,1.209,0.894,2.846,1.426,4.649c0.117,0.398,0.231,0.789,0.341,1.164l0.024,0.083l-0.041,0.067
										c-0.24,0.395-0.52,0.723-0.86,0.987c-0.333,0.264-0.752,0.435-1.165,0.422c-0.41,0.008-0.797-0.228-1.007-0.492
										c-0.228-0.263-0.361-0.545-0.466-0.801c-0.208-0.515-0.282-0.949-0.327-1.245c-0.041-0.298-0.037-0.464-0.013-0.467
										c0.06-0.014,0.142,0.648,0.575,1.608c0.217,0.446,0.587,1.077,1.243,1.053c0.642,0.009,1.274-0.579,1.677-1.255
										l-0.017,0.15c-0.112-0.375-0.228-0.765-0.346-1.163c-0.532-1.803-0.998-3.451-1.326-4.679l-0.009-0.034l0.004-0.027
										C331.803,101.231,331.978,100.34,332.035,100.348z"/>
								</g>
							</g>
						</g>
					</g>
					<g>
						<g>
							<g>
								<g>
									<path style="fill:#FFBF9D;" d="M332.89,118.331c0,0,5.195-6.379,5.233-6.624c0.038-0.245-1.205-7.512-2.397-8.9
										c-1.192-1.388-2.808-3.021-2.808-3.021s-1.871,0.32-1.15,3.141c0.721,2.821,1.682,5.695,1.682,5.695l-1.756,2.212
										c0,0-6.157,1.204-6.209,7.005"/>
								</g>
							</g>
						</g>
						<g>
							<g>
								<g>
									<g>
										<path style="fill:#FF9A6C;" d="M325.485,117.839c-0.017,0-0.015-0.251,0.005-0.728c-0.005-0.24,0.05-0.529,0.121-0.869
											c0.045-0.347,0.193-0.72,0.342-1.144c0.349-0.825,0.968-1.765,1.939-2.573c0.975-0.796,2.245-1.482,3.771-1.854
											l-0.098,0.06c0.555-0.706,1.138-1.448,1.745-2.22l-0.03,0.169c-0.445-1.334-0.888-2.758-1.311-4.258
											c-0.196-0.755-0.455-1.502-0.546-2.35c-0.029-0.42-0.012-0.863,0.145-1.288c0.151-0.424,0.463-0.809,0.876-1.027
											c0.141-0.076,0.276-0.129,0.441-0.165l0.102-0.022l0.073,0.078c0.517,0.556,1.027,1.106,1.53,1.647
											c0.251,0.271,0.5,0.54,0.748,0.806c0.241,0.283,0.507,0.492,0.717,0.841c0.393,0.651,0.593,1.327,0.807,1.985
											c0.207,0.66,0.367,1.314,0.524,1.951c0.3,1.278,0.541,2.499,0.734,3.648c0.044,0.289,0.087,0.573,0.13,0.852l0.025,0.219
											c0.002,0.046,0.005,0.092,0.002,0.137c-0.02,0.047-0.043,0.095-0.069,0.14c-0.091,0.137-0.165,0.237-0.25,0.348
											c-0.333,0.424-0.653,0.832-0.96,1.222c-1.238,1.539-2.259,2.764-2.97,3.607c-0.337,0.391-0.61,0.71-0.827,0.962
											c-0.193,0.217-0.299,0.327-0.31,0.318c-0.011-0.009,0.075-0.135,0.248-0.368c0.202-0.265,0.457-0.598,0.77-1.008
											c0.71-0.911,1.682-2.158,2.87-3.683c0.298-0.393,0.61-0.803,0.934-1.23l0.223-0.317l0.014-0.021l0.009-0.01l0.005-0.005
											c0.016,0.001-0.041-0.01,0.081,0.007c-0.101-0.022-0.072-0.022-0.077-0.029l-0.002-0.017l-0.004-0.035l-0.026-0.196
											c-0.046-0.274-0.092-0.554-0.139-0.838c-0.206-1.139-0.458-2.353-0.765-3.619c-0.161-0.631-0.324-1.278-0.531-1.925
											c-0.209-0.639-0.424-1.318-0.772-1.887c-0.154-0.27-0.455-0.525-0.685-0.792c-0.246-0.264-0.495-0.531-0.745-0.799
											c-0.5-0.537-1.007-1.083-1.521-1.634l0.174,0.056c-0.087,0.02-0.216,0.065-0.32,0.124
											c-0.68,0.346-0.889,1.182-0.816,1.933c0.077,0.76,0.333,1.53,0.526,2.278c0.415,1.494,0.849,2.919,1.28,4.248l0.031,0.094
											l-0.06,0.075c-0.614,0.766-1.205,1.503-1.766,2.203l-0.037,0.046l-0.062,0.014c-1.451,0.336-2.714,0.989-3.664,1.737
											c-0.951,0.763-1.568,1.651-1.933,2.44C325.457,116.795,325.57,117.854,325.485,117.839z"/>
									</g>
								</g>
							</g>
						</g>
					</g>
				</g>
			</g>
			<g>
				<g>
					<g>
						<g>
							<g>
								<g>
									<path style="fill:#455A64;" d="M415.889,419.343l-1.58-1.198c4.913-4.504,8.178-9.977,9.352-16.16l11.224,5.892
										l-18.854,33.467C412.904,439.469,415.889,419.343,415.889,419.343z"/>
								</g>
							</g>
						</g>
					</g>
					<g>
						<g>
							<g>
								<g>
									<g>
										<g>
											<g>
												<g>
													<g>
														<g>
															<path style="fill:#E0E0E0;" d="M434.885,407.876l-2.742-1.439l-17.087,32.693c0,0-0.183,1.83,0.975,2.213
																L434.885,407.876z"/>
														</g>
													</g>
												</g>
											</g>
										</g>
									</g>
								</g>
							</g>
						</g>
					</g>
					<g>
						<g>
							<g>
								<g>
									<g>
										<g>
											<g>
												<g>
													<g>
														<g>
															<g>
																<path style="fill:#263238;" d="M416.133,418.887c0.169,0.081,0.704-0.698,1.689-1.226
																	c0.972-0.553,1.922-0.596,1.941-0.78c0.053-0.167-1.074-0.436-2.256,0.223
																	C416.32,417.753,415.961,418.844,416.133,418.887z"/>
															</g>
														</g>
													</g>
												</g>
											</g>
										</g>
									</g>
								</g>
							</g>
						</g>
					</g>
					<g>
						<g>
							<g>
								<g>
									<path style="fill:#E0E0E0;" d="M426.441,409.724c0.496,0.246,1.113,0.049,1.377-0.441c0.265-0.49,0.077-1.086-0.419-1.332
										c-0.496-0.246-1.113-0.048-1.377,0.441C425.757,408.882,425.945,409.478,426.441,409.724z"/>
								</g>
							</g>
						</g>
					</g>
					<g>
						<g>
							<g>
								<g>
									<g>
										<path style="fill:#263238;" d="M416.161,418.575c0.026,0.019,0.23-0.184,0.555-0.593c0.304-0.409,0.812-1.042,0.952-2.017
											c0.033-0.24,0.035-0.496,0.002-0.757c-0.03-0.258-0.077-0.54-0.256-0.819c-0.167-0.292-0.613-0.473-0.976-0.359
											c-0.37,0.086-0.667,0.376-0.832,0.676c-0.625,1.187-0.572,2.794,0.34,4.026l0.373-0.37
											c-0.228-0.157-0.487-0.302-0.762-0.418c-1.513-0.659-3.28-0.307-4.396,0.572c-0.141,0.109-0.302,0.239-0.407,0.445
											c-0.108,0.206-0.099,0.469-0.004,0.652c0.188,0.367,0.516,0.549,0.825,0.654c0.616,0.207,1.232,0.168,1.749,0.052
											c1.062-0.242,1.719-0.835,2.17-1.159C415.942,418.807,416.18,418.604,416.161,418.575c-0.02-0.03-0.303,0.12-0.786,0.422
											c-0.49,0.279-1.16,0.796-2.121,0.963c-0.474,0.084-1.016,0.091-1.52-0.098c-0.242-0.083-0.469-0.25-0.556-0.443
											c-0.085-0.183,0.009-0.335,0.275-0.526c1.008-0.757,2.551-1.049,3.881-0.471c0.242,0.102,0.469,0.229,0.669,0.365
											c0.118,0.082,0.285,0.054,0.372-0.063c0.07-0.094,0.066-0.219,0.001-0.307c-0.797-1.048-0.853-2.497-0.351-3.495
											c0.229-0.487,0.812-0.646,1.031-0.293c0.23,0.36,0.276,0.9,0.249,1.308c-0.073,0.862-0.5,1.504-0.753,1.938
											C416.282,418.311,416.131,418.554,416.161,418.575z"/>
									</g>
								</g>
							</g>
						</g>
					</g>
				</g>
				<g>
					<g>
						<g>
							<path style="fill:#263238;" d="M415.444,422.44c0.096,0.075,0.776-0.774,1.979-1.263c1.193-0.513,2.289-0.406,2.299-0.526
								c0.042-0.097-1.142-0.405-2.461,0.155C415.937,421.351,415.344,422.402,415.444,422.44z"/>
						</g>
					</g>
				</g>
				<g>
					<g>
						<g>
							<path style="fill:#263238;" d="M415.224,425.385c0.081,0.089,0.833-0.505,1.923-0.897c1.085-0.407,2.049-0.444,2.051-0.564
								c0.016-0.103-1.02-0.252-2.195,0.186C415.823,424.538,415.142,425.318,415.224,425.385z"/>
						</g>
					</g>
				</g>
			</g>
			<g>
				<g>
					<path style="fill:#263238;" d="M369.206,264.207c0.977,14.32-1.211,23.362-9.611,32.21c-2.692,2.836-5.892,5.142-8.694,7.87
						c-2.801,2.728-5.27,6.044-5.913,9.901c1.022-1.529,3.374-1.568,4.963-0.642c1.589,0.925,2.641,2.523,3.784,3.965
						c6.162,7.777,16.282,11.883,26.204,11.857c9.922-0.026,19.587-3.874,27.661-9.639c2.085-1.489,4.207-3.161,6.745-3.513
						c3.099-0.431,6.095,1.206,8.641,3.024c2.546,1.818,5.024,3.931,8.062,4.68c0.677,0.167,1.481,0.23,1.986-0.25
						c0.482-0.458,0.486-1.212,0.456-1.876c-0.334-7.418-0.667-14.836-1.001-22.254c-0.513-11.411-1.171-23.333-6.928-33.198
						l-12.225-19.136c0,0-9.95,0.774-17.077,3.206C389.13,252.843,369.206,264.207,369.206,264.207z"/>
				</g>
				<g>
					<g style="opacity:0.3;">
						<path d="M369.776,275.018l-0.57-6.561l27.549-15.716l22.247-0.07l6.476,16.332c0,0-18.564-7.069-24.021-6.586
							c-5.457,0.483-31.163,17.319-31.163,17.319L369.776,275.018z"/>
					</g>
				</g>
				<g>
					<path style="fill:#455A64;" d="M452.098,243.523c0,0,1.135-37.074-0.104-44.76c-1.566-9.715-14.956-14.645-22.187-16.234
						c-7.231-1.589-19.697,0.905-19.697,0.905s1.693,63.747,2.123,64.208c0.43,0.461,9.611,15.399,9.611,15.399
						s26.43-1.361,28.912-5.736C453.238,252.93,452.098,243.523,452.098,243.523z"/>
				</g>
				<g>
					<g>
						<path style="fill:#FF725E;" d="M377.86,185.544c-0.658,0.614-19.218,24.647-17.815,33.19
							c1.402,8.543,2.305,11.344,3.103,17.48c1.93,14.828-0.507,22.818,0.165,29.425c0.672,6.607,4.017,9.159,4.668,8.756
							c0.651-0.402,19.597-13.431,29.729-18.294c18.333-8.8,22.189,9.264,26.454,8.775c4.264-0.489,4.967-2.376,4.967-2.376
							s-6.136-0.638-6.874-3.849c-0.738-3.211-9.351-33.312-9.351-33.312l4.459-39.911l-12.187-4.458l-21.509,2.439L377.86,185.544z
							"/>
					</g>
					<g>
						<path style="fill:#FF725E;" d="M384.831,185c0,0-1.179-1.213-3.381-1.217c-2.202-0.004-8.888-1.641-8.888-1.641l-7.381-5.917
							c-6.138,1.581-20.236,15.652-16.478,19.901l9.704,9.822l2.065,9.603l15.573-18.923L384.831,185z"/>
					</g>
					<g>
						<path style="fill:#455A64;" d="M360.294,216.862c0,0-4.978-10.775-1.233-20.448c3.745-9.673,11.302-18.645,22.438-20.247
							l-0.041,2.277c0,0-17.263,13.297-18.978,21.782c-1.715,8.485-1.361,8.676-1.361,8.676L360.294,216.862z"/>
					</g>
					<g>
						<g>
							<path style="fill:#263238;" d="M365.078,197.165c-0.03-0.015-0.222,0.313-0.545,0.922c-0.328,0.605-0.751,1.508-1.225,2.645
								c-0.951,2.271-2.01,5.531-2.632,9.247c-0.613,3.719-0.665,7.147-0.5,9.603c0.081,1.229,0.189,2.22,0.304,2.899
								c0.108,0.68,0.184,1.052,0.217,1.048c0.084-0.011-0.101-1.519-0.174-3.963c-0.076-2.442,0.031-5.827,0.637-9.506
								c0.615-3.676,1.609-6.914,2.47-9.2C364.491,198.57,365.154,197.203,365.078,197.165z"/>
						</g>
					</g>
					<g>
						<g>
							<path style="fill:#263238;" d="M407.654,242.598c0.002-0.017-0.147-0.05-0.437-0.097c-0.29-0.044-0.721-0.082-1.28-0.085
								c-1.112,0.007-2.748,0.22-4.604,0.978c-1.865,0.732-3.89,2.04-5.893,3.739c-2.012,1.696-4.044,3.729-6.31,5.711
								c-4.484,4.024-8.958,7.183-12.476,8.962c-1.751,0.903-3.236,1.49-4.263,1.891c-1.039,0.368-1.616,0.574-1.606,0.609
								c0.005,0.016,0.155-0.014,0.438-0.085c0.282-0.074,0.7-0.18,1.23-0.343c1.053-0.347,2.57-0.889,4.357-1.761
								c3.59-1.715,8.145-4.863,12.646-8.904c2.277-1.991,4.306-4.04,6.278-5.733c1.967-1.7,3.926-3.007,5.733-3.764
								c1.798-0.782,3.386-1.042,4.477-1.108C407.04,242.551,407.649,242.643,407.654,242.598z"/>
						</g>
					</g>
				</g>
				<g>
					<g>
						<path style="fill:#263238;" d="M443.939,196.835c0,0-0.135,3.896-2.575,8.216c-1.596,2.824-12.506,14.273-14.132,13.397
							c-1.626-0.875,7.458-20.167,7.458-20.167L443.939,196.835z"/>
					</g>
					<g>
						<path style="fill:#FFBF9D;" d="M434.871,201.113c0.622,0.446,32.695,21.288,33.442,27.706
							c0.474,4.072-2.584,8.716-6.929,11.671c-6.018,4.092-20.566,13.343-20.566,13.343l-8.029-7.552
							c0,0,14.966-12.561,16.766-15.471l-26.427-15.663L434.871,201.113z"/>
					</g>
					<g>
						<g>
							<path style="fill:#FF9A6C;" d="M456.019,227.062c0.003-0.058-0.459-0.156-1.213-0.089c-0.751,0.063-1.788,0.337-2.788,0.932
								c-0.998,0.599-1.73,1.383-2.141,2.015c-0.416,0.633-0.548,1.087-0.496,1.111c0.127,0.082,0.98-1.588,2.889-2.704
								C454.156,227.174,456.031,227.213,456.019,227.062z"/>
						</g>
					</g>
					<g>
						<path style="fill:#FF725E;" d="M411.688,183.352c0,0,7.016,1.337,11.316,3.448c4.3,2.11,20.935,10.035,20.935,10.035
							s-5.635,2.33-9.535,7.321c-3.899,4.992-7.172,14.292-7.172,14.292l-13.269-7.144L411.688,183.352z"/>
					</g>
					<g>
						<path style="fill:#455A64;" d="M411.121,177.335c0,0-7.009-1.082-8.085,5.76c-1.076,6.842,0.343,19.138,1.815,25.062
							c1.472,5.923,9.668,14.467,9.668,14.467l0.349-8.957c0,0-4.69-8.58-4.148-19.904c0.542-11.323,0.979-13.724,2.852-14.498
							c1.872-0.774,6.058,6.082,6.058,6.082l2.094,0.744C421.723,186.091,419.188,176.943,411.121,177.335z"/>
					</g>
					<g>
						<polygon style="fill:#263238;" points="420.99,257.275 408.879,226.97 427.565,210.765 432.016,210.919 447.653,243.934 
							426.132,261.13 422.4,260.901 						"/>
					</g>
					<g>
						<g>
							<path style="fill:#455A64;" d="M427.257,259.551c0.031-0.015-0.144-0.455-0.486-1.239c-0.385-0.867-0.879-1.978-1.47-3.309
								c-1.248-2.79-2.958-6.649-4.777-10.941c-1.818-4.294-3.401-8.208-4.538-11.045c-0.545-1.35-1-2.477-1.355-3.357
								c-0.326-0.791-0.521-1.223-0.552-1.211c-0.032,0.012,0.103,0.466,0.373,1.278c0.269,0.812,0.682,1.979,1.209,3.415
								c1.054,2.872,2.588,6.812,4.409,11.112c1.822,4.298,3.585,8.141,4.915,10.896c0.664,1.378,1.216,2.486,1.612,3.245
								C426.994,259.153,427.227,259.566,427.257,259.551z"/>
						</g>
					</g>
					<g>
						<g>
							<path style="fill:#FFBF9D;" d="M432.789,246.281c0,0-5.027-3.086-5.771-3.725c-0.744-0.639-5.381-0.402-6.238-1.289
								c-0.858-0.887-2.747-0.325-2.133,1.842c0.615,2.167,3.765,4.115,6.148,3.891c0,0-7.258,3.809-7.295,4.881
								c-0.037,1.072,0.393,1.929,1.604,2.354c0,0-2.45,2.137,0.783,3.935c0,0-1.059,1.802,2.042,2.982c0,0-0.741,1.289,1.574,2.015
								c2.315,0.725,4.576,1.812,6.164,0.214c1.588-1.598,10.193-8.847,10.193-8.847l9.416-6.9l-3.751-12.562L432.789,246.281z"/>
						</g>
						<g>
							<g>
								<path style="fill:#FF9A6C;" d="M423.87,252.938c-0.062-0.126-1.113,0.282-2.429,0.69c-1.315,0.414-2.41,0.676-2.39,0.815
									c0.016,0.13,1.178,0.081,2.537-0.346C422.947,253.675,423.931,253.054,423.87,252.938z"/>
							</g>
						</g>
						<g>
							<g>
								<path style="fill:#FF9A6C;" d="M425.6,257.882c-0.008-0.136-1.248-0.177-2.77-0.092c-1.523,0.085-2.751,0.263-2.743,0.399
									c0.008,0.135,1.248,0.177,2.77,0.092C424.379,258.196,425.607,258.017,425.6,257.882z"/>
							</g>
						</g>
						<g>
							<g>
								<path style="fill:#FF9A6C;" d="M426.224,261.21c0.011-0.135-0.949-0.323-2.143-0.418c-1.195-0.096-2.171-0.064-2.182,0.072
									c-0.011,0.135,0.948,0.323,2.143,0.418C425.236,261.378,426.213,261.345,426.224,261.21z"/>
							</g>
						</g>
						<g>
							<g>
								<path style="fill:#FF9A6C;" d="M426.135,251.625c0.064-0.122-0.403-0.491-0.541-1.164c-0.167-0.666,0.095-1.201-0.015-1.283
									c-0.05-0.037-0.208,0.057-0.344,0.309c-0.137,0.247-0.217,0.656-0.121,1.083c0.097,0.427,0.346,0.761,0.577,0.925
									C425.923,251.663,426.106,251.68,426.135,251.625z"/>
							</g>
						</g>
						<g>
							<g>
								<path style="fill:#FF9A6C;" d="M427.594,255.376c0.087-0.109-0.288-0.54-0.4-1.192c-0.134-0.648,0.057-1.186-0.064-1.256
									c-0.102-0.092-0.583,0.502-0.419,1.347C426.868,255.123,427.533,255.499,427.594,255.376z"/>
							</g>
						</g>
						<g>
							<g>
								<path style="fill:#FF9A6C;" d="M428.908,259.978c0.061-0.124-0.398-0.47-0.587-1.106c-0.215-0.628-0.042-1.176-0.164-1.242
									c-0.055-0.029-0.193,0.082-0.294,0.339c-0.102,0.253-0.138,0.651-0.01,1.053c0.129,0.402,0.389,0.705,0.619,0.851
									C428.703,260.023,428.88,260.034,428.908,259.978z"/>
							</g>
						</g>
					</g>
					<g>
						<g>
							<path style="fill:#263238;" d="M421.713,186.293c0.053-0.013-0.127-0.99-0.796-2.439c-0.688-1.428-1.822-3.369-3.795-4.912
								c-0.513-0.359-1.111-0.628-1.735-0.671c-0.625-0.049-1.225,0.146-1.693,0.442c-0.952,0.6-1.456,1.519-1.71,2.275
								c-0.258,0.768-0.34,1.41-0.392,1.848c-0.047,0.44-0.052,0.686-0.019,0.691c0.097,0.023,0.2-0.976,0.736-2.417
								c0.281-0.704,0.776-1.507,1.619-2.01c0.415-0.247,0.91-0.395,1.421-0.349c0.512,0.041,1.024,0.268,1.491,0.595
								c0.93,0.67,1.663,1.569,2.293,2.368c0.622,0.816,1.106,1.609,1.472,2.296C421.339,185.387,421.636,186.319,421.713,186.293z"
								/>
						</g>
					</g>
					<g>
						<g>
							<path style="fill:#263238;" d="M414.474,179.231c-0.088,0.12,1.266,1.126,2.444,2.791c1.197,1.652,1.712,3.258,1.854,3.214
								c0.122-0.017-0.199-1.761-1.454-3.5C416.078,179.987,414.529,179.12,414.474,179.231z"/>
						</g>
					</g>
					<g>
						<g>
							<path style="fill:#263238;" d="M418.642,218.966c0.112-0.099-1.509-1.962-3.029-4.574c-1.537-2.603-2.371-4.927-2.512-4.878
								c-0.119,0.029,0.519,2.469,2.087,5.127C416.741,217.307,418.558,219.056,418.642,218.966z"/>
						</g>
					</g>
					<g>
						<polygon style="fill:#FFFFFF;" points="410.182,226.76 428.19,210.786 431.251,210.893 413.343,226.87 						"/>
					</g>
				</g>
			</g>
			<g>
				<g>
					<g>
						<g>
							<g>
								<g>
									<path style="fill:#455A64;" d="M445.958,373.984l-1.952,0.109c0.684-6.439-0.166-10.991-3.346-16.314
										c3.703-2.286,7.661-3.671,11.836-4.28l7.973,36.7C456.929,390.782,445.958,373.984,445.958,373.984z"/>
								</g>
							</g>
						</g>
					</g>
					<g>
						<g>
							<g>
								<g>
									<g>
										<g>
											<g>
												<g>
													<g>
														<g>
															<path style="fill:#E0E0E0;" d="M452.496,353.498l-2.97,0.664l8.773,35.011c0,0,1.063,1.472,2.17,1.025
																L452.496,353.498z"/>
														</g>
													</g>
												</g>
											</g>
										</g>
									</g>
								</g>
							</g>
						</g>
					</g>
					<g>
						<g>
							<g>
								<g>
									<g>
										<g>
											<g>
												<g>
													<g>
														<g>
															<g>
																<path style="fill:#263238;" d="M445.84,373.491c0.177-0.047,0.064-0.961,0.446-1.974
																	c0.356-1.023,1.031-1.655,0.924-1.803c-0.071-0.158-1.08,0.354-1.522,1.589
																	C445.236,372.533,445.685,373.568,445.84,373.491z"/>
															</g>
														</g>
													</g>
												</g>
											</g>
										</g>
									</g>
								</g>
							</g>
						</g>
					</g>
					<g>
						<g>
							<g>
								<g>
									<path style="fill:#E0E0E0;" d="M447.462,360.196c0.528-0.131,0.855-0.666,0.73-1.196c-0.125-0.53-0.654-0.853-1.182-0.723
										c-0.528,0.131-0.854,0.666-0.729,1.196C446.405,360.003,446.934,360.327,447.462,360.196z"/>
								</g>
							</g>
						</g>
					</g>
					<g>
						<g>
							<g>
								<g>
									<g>
										<path style="fill:#263238;" d="M445.656,373.242c0.032-0.003,0.049-0.282,0.022-0.789
											c-0.043-0.495-0.082-1.284-0.617-2.095c-0.133-0.199-0.299-0.39-0.494-0.562c-0.191-0.172-0.411-0.352-0.726-0.445
											c-0.314-0.111-0.764,0.037-0.957,0.35c-0.218,0.297-0.247,0.7-0.172,1.026c0.315,1.274,1.407,2.431,2.887,2.769
											l0.034-0.51c-0.271,0.027-0.558,0.083-0.838,0.171c-1.55,0.467-2.626,1.842-2.876,3.198
											c-0.033,0.17-0.066,0.368-0.009,0.587c0.055,0.221,0.234,0.41,0.424,0.486c0.379,0.154,0.741,0.081,1.038-0.036
											c0.591-0.236,1.021-0.653,1.327-1.065c0.627-0.849,0.724-1.703,0.846-2.229
											C445.646,373.553,445.69,373.252,445.656,373.242c-0.035-0.01-0.145,0.28-0.305,0.808
											c-0.179,0.516-0.337,1.322-0.938,2.052c-0.295,0.362-0.691,0.709-1.188,0.887c-0.233,0.091-0.51,0.111-0.701,0.023
											c-0.182-0.082-0.212-0.254-0.141-0.563c0.249-1.197,1.2-2.387,2.561-2.798c0.246-0.077,0.497-0.126,0.734-0.151
											c0.141-0.014,0.246-0.14,0.234-0.282c-0.01-0.114-0.095-0.204-0.2-0.228c-1.275-0.274-2.266-1.312-2.548-2.368
											c-0.15-0.505,0.177-0.992,0.571-0.868c0.406,0.122,0.794,0.493,1.041,0.812c0.51,0.685,0.615,1.43,0.712,1.912
											C445.573,372.97,445.62,373.246,445.656,373.242z"/>
									</g>
								</g>
							</g>
						</g>
					</g>
				</g>
				<g>
					<g>
						<g>
							<path style="fill:#263238;" d="M447.657,376.559c0.12-0.005,0.067-1.064,0.636-2.185c0.546-1.133,1.426-1.745,1.356-1.841
								c-0.033-0.099-1.11,0.42-1.718,1.668C447.308,375.441,447.558,376.594,447.657,376.559z"/>
						</g>
					</g>
				</g>
				<g>
					<g>
						<g>
							<path style="fill:#263238;" d="M449.423,378.881c0.118,0.015,0.285-0.9,0.834-1.878c0.536-0.986,1.224-1.623,1.147-1.712
								c-0.056-0.086-0.919,0.457-1.501,1.523C449.311,377.875,449.319,378.882,449.423,378.881z"/>
						</g>
					</g>
				</g>
			</g>
		</g>
		<g>
			<g>
				<path style="fill:#263238;" d="M413.289,149.995c0.056-2.622,0.761-5.188,1.609-7.67l-2.674-14.082
					c0.419-5.715,6.834-4.223,9.004-2.675c2.169,1.548,3.622,3.934,4.531,6.439c0.596,1.644,1.214,3.611,2.879,4.145
					c1.022,0.328,2.12-0.018,3.181-0.187c2.963-0.471,6.126,0.565,8.236,2.697c2.11,2.132,3.114,5.306,2.613,8.263
					c2.726-1.307,6.207,0.162,7.847,2.702c1.64,2.54,1.737,5.813,1.088,8.766c-0.837,3.809-2.971,7.485-6.363,9.41
					c-3.392,1.925-8.106,1.694-10.808-1.119c-0.545,2.113-2.844,3.493-5.022,3.348c-2.177-0.145-4.129-1.584-5.289-3.433
					c-1.16-1.848-1.615-4.06-1.74-6.239c-2.591,0.408-5.272-0.907-6.889-2.973C413.876,155.324,413.233,152.618,413.289,149.995z"/>
			</g>
			<g>
				<g>
					<g>
						<g>
							<g>
								<g>
									<g>
										<g>
											<path style="fill:#455A64;" d="M419.698,136.677c-0.193-2.775-1.862-5.242-3.812-7.226
												c-0.817-0.832-1.731-1.628-2.845-1.972c-1.114-0.344-2.473-0.129-3.195,0.786l-0.12,1.948
												c-0.684,3.024,1.307,5.937,2.021,8.954c0.31,1.312,0.494,2.861,1.643,3.567c0.603,0.37,1.36,0.41,2.054,0.276
												C418.175,142.486,419.891,139.453,419.698,136.677z"/>
										</g>
									</g>
								</g>
							</g>
						</g>
					</g>
					<g>
						<g>
							<g>
								<g>
									<g>
										<g>
											<path style="fill:#263238;" d="M417.936,150.863c2.053-2.057,2.267-5.675,0.47-7.959c1.31-1.271,1.187-3.507,0.222-5.057
												c-0.965-1.549-2.563-2.573-4.108-3.544c-0.367-4.26-4.642-7.775-8.893-7.311c-1.74-3.434-6.251-4.52-10.054-3.924
												c-0.929,0.145-1.867,0.367-2.799,0.243c-0.684-0.091-1.328-0.364-1.994-0.543c-3.664-0.983-7.704,1.164-9.606,4.447
												c-0.304,0.525-0.57,1.085-1,1.513c-0.564,0.561-1.345,0.833-2.033,1.235c-1.486,0.867-2.558,2.413-2.849,4.109
												c-0.248,1.44,0.015,3.037-0.765,4.273c-0.391,0.62-1.012,1.081-1.338,1.736c-0.947,1.901,0.996,4.219,0.321,6.232
												c-0.138,0.411-0.378,0.779-0.549,1.177c-0.348,0.814-0.387,1.757-0.108,2.598c0.215,0.649,0.618,1.269,0.571,1.951
												c-0.036,0.517-0.328,0.977-0.496,1.468c-0.411,1.201,1.636,6.299,2.615,7.107l31.802,4.394
												c2.473-0.18,4.717-2.111,5.265-4.529c0.091-0.402,0.154-0.843,0.448-1.133c0.25-0.247,0.614-0.327,0.942-0.453
												c2.192-0.836,2.803-3.619,2.886-5.964c0.012-0.328,0.021-0.665,0.143-0.97
												C417.209,151.516,417.599,151.202,417.936,150.863z"/>
										</g>
									</g>
								</g>
							</g>
						</g>
					</g>
					<g>
						<g>
							<g>
								<g>
									<g>
										<g>
											<path style="fill:#FFBF9D;" d="M408.856,149.74c0.821-5.623-1.877-12.554-7.119-16.031
												c-3.304-2.192-6.056-2.559-7.883-3.015c-4.093-1.021-7.712,0.606-7.712,0.606c-1.808,0.186-8.999,5.244-10.158,11.591
												c-1.287,7.051-2.581,15.71-2.365,21.11c0.433,10.858,8.441,13.18,8.441,13.18c0.003-0.016-1.373,8.402-1.373,8.402
												l-1.743,6.527l23.016-11.139L408.856,149.74z"/>
										</g>
									</g>
								</g>
							</g>
						</g>
						<g>
							<g>
								<g>
									<g>
										<g>
											<g>
												<g>
													<g>
														<g>
															<g>
																<path style="fill:#263238;" d="M379.747,152.819c-0.111,0.719,0.407,1.405,1.155,1.535
																	c0.747,0.129,1.444-0.347,1.555-1.066c0.111-0.719-0.407-1.406-1.153-1.535
																	C380.555,151.623,379.858,152.1,379.747,152.819z"/>
															</g>
														</g>
													</g>
												</g>
											</g>
										</g>
									</g>
								</g>
							</g>
						</g>
						<g>
							<g>
								<g>
									<g>
										<g>
											<g>
												<g>
													<g>
														<g>
															<g>
																<g>
																	<path style="fill:#263238;" d="M377.9,147.262c0.148,0.198,1.275-0.445,2.745-0.268
																		c1.471,0.156,2.461,1.041,2.642,0.88c0.088-0.071-0.047-0.413-0.476-0.81c-0.422-0.395-1.173-0.82-2.089-0.925
																		c-0.917-0.103-1.727,0.143-2.211,0.436C378.018,146.868,377.826,147.173,377.9,147.262z"/>
																</g>
															</g>
														</g>
													</g>
												</g>
											</g>
										</g>
									</g>
								</g>
							</g>
						</g>
						<g>
							<g>
								<g>
									<g>
										<g>
											<g>
												<g>
													<g>
														<g>
															<g>
																<path style="fill:#263238;" d="M385.134,159.895c0.017-0.083-0.879-0.349-2.338-0.713
																	c-0.371-0.083-0.718-0.2-0.751-0.464c-0.056-0.282,0.148-0.668,0.382-1.083c0.461-0.867,0.943-1.776,1.449-2.729
																	c2.023-3.889,3.536-7.106,3.379-7.186c-0.158-0.08-1.926,3.008-3.949,6.897c-0.49,0.96-0.958,1.875-1.404,2.751
																	c-0.193,0.41-0.494,0.865-0.369,1.451c0.068,0.293,0.32,0.529,0.553,0.622c0.232,0.102,0.443,0.131,0.628,0.164
																	C384.194,159.862,385.118,159.978,385.134,159.895z"/>
															</g>
														</g>
													</g>
												</g>
											</g>
										</g>
									</g>
								</g>
							</g>
						</g>
						<g>
							<g>
								<g>
									<g>
										<g>
											<g>
												<g>
													<g>
														<g>
															<path style="fill:#FF9A6C;" d="M382.061,177.18c0,0,7.115,1.31,14.724-2.121c0,0-4.676,7.211-15.225,4.953
																L382.061,177.18z"/>
														</g>
													</g>
												</g>
											</g>
										</g>
									</g>
								</g>
							</g>
						</g>
						<g>
							<g>
								<g>
									<g>
										<g>
											<g>
												<g>
													<g>
														<g>
															<g>
																<g>
																	<g>
																		<path style="fill:#263238;" d="M379.146,141.821c0.205,0.388,1.359,0.281,2.663,0.546
																			c1.311,0.223,2.352,0.74,2.68,0.451c0.147-0.143,0.045-0.51-0.368-0.925c-0.407-0.413-1.144-0.838-2.043-1.006
																			c-0.898-0.167-1.737-0.037-2.261,0.202C379.284,141.328,379.059,141.634,379.146,141.821z"/>
																	</g>
																</g>
															</g>
														</g>
													</g>
												</g>
											</g>
										</g>
									</g>
								</g>
							</g>
						</g>
						<g>
							<g>
								<g>
									<g>
										<g>
											<g>
												<g>
													<g>
														<g>
															<g>
																<path style="fill:#263238;" d="M395.918,154.998c-0.087,0.722-0.77,1.244-1.526,1.167
																	c-0.754-0.077-1.297-0.723-1.21-1.445c0.087-0.722,0.77-1.245,1.524-1.168
																	C395.462,153.629,396.005,154.276,395.918,154.998z"/>
															</g>
														</g>
													</g>
												</g>
											</g>
										</g>
									</g>
								</g>
							</g>
						</g>
						<g>
							<g>
								<g>
									<g>
										<g>
											<g>
												<g>
													<g>
														<g>
															<g>
																<g>
																	<path style="fill:#263238;" d="M397.957,150.218c-0.196,0.151-1.107-0.772-2.572-0.997
																		c-1.459-0.246-2.651,0.34-2.781,0.135c-0.066-0.091,0.156-0.385,0.677-0.652c0.513-0.267,1.35-0.474,2.261-0.328
																		c0.911,0.148,1.625,0.603,2.012,1.015C397.95,149.807,398.052,150.152,397.957,150.218z"/>
																</g>
															</g>
														</g>
													</g>
												</g>
											</g>
										</g>
									</g>
								</g>
							</g>
						</g>
						<g>
							<g>
								<g>
									<g>
										<g>
											<g>
												<g>
													<g>
														<g>
															<g>
																<g>
																	<g>
																		<path style="fill:#263238;" d="M398.956,145.336c-0.34,0.287-1.415-0.234-2.77-0.463
																			c-1.348-0.271-2.542-0.169-2.752-0.558c-0.09-0.187,0.144-0.492,0.695-0.728c0.544-0.236,1.412-0.363,2.341-0.192
																			c0.929,0.173,1.69,0.6,2.109,1.014C399.005,144.827,399.109,145.194,398.956,145.336z"/>
																	</g>
																</g>
															</g>
														</g>
													</g>
												</g>
											</g>
										</g>
									</g>
								</g>
							</g>
						</g>
						<g>
							<g>
								<g>
									<g>
										<g>
											<g>
												<g>
													<g>
														<g>
															<path style="fill:#FFBF9D;" d="M405.898,159.63c0.096-0.793,1.234-2.556,2.033-2.586
																c2.132-0.079,5.885,0.535,5.292,5.855c-0.811,7.272-7.218,4.736-7.935,4.748
																C404.02,167.668,405.568,162.37,405.898,159.63z"/>
														</g>
													</g>
												</g>
											</g>
										</g>
									</g>
								</g>
							</g>
						</g>
						<g>
							<g>
								<g>
									<g>
										<g>
											<g>
												<g>
													<g>
														<g>
															<g>
																<path style="fill:#FF9A6C;" d="M407.59,165.214c0.035-0.02,0.117,0.103,0.32,0.225
																	c0.199,0.119,0.55,0.225,0.945,0.125c0.8-0.196,1.583-1.344,1.764-2.651c0.092-0.66,0.024-1.305-0.152-1.854
																	c-0.163-0.557-0.465-0.967-0.845-1.078c-0.375-0.132-0.674,0.069-0.786,0.263c-0.12,0.193-0.09,0.343-0.13,0.351
																	c-0.022,0.016-0.143-0.139-0.05-0.432c0.046-0.141,0.15-0.304,0.337-0.424c0.19-0.122,0.455-0.166,0.721-0.107
																	c0.557,0.102,1.004,0.674,1.198,1.275c0.224,0.607,0.317,1.335,0.213,2.076c-0.21,1.46-1.113,2.748-2.198,2.935
																	c-0.526,0.076-0.936-0.125-1.137-0.322C407.584,165.391,407.564,165.224,407.59,165.214z"/>
															</g>
														</g>
													</g>
												</g>
											</g>
										</g>
									</g>
								</g>
							</g>
						</g>
					</g>
					<g>
						<g>
							<g>
								<g>
									<g>
										<g>
											<g>
												<g>
													<path style="fill:#263238;" d="M374.313,142.792c1.577-0.743,2.662-1.88,2.777-3.62
														c0.939,0.406,2.076-0.731,2.744-1.505c0.668-0.775,1.414-1.117,1.491-2.137c0.015-0.201,0.028-0.415,0.143-0.581
														c0.18-0.261,0.537-0.311,0.849-0.369c1.607-0.299,3.021-1.476,3.608-3.002c1.476,0.867,3.171,1.357,4.882,1.414
														c0.623,1.18,1.878,2.002,3.208,2.102c1.331,0.1,2.694-0.526,3.486-1.6c0.331,0.961,1.205,1.657,2.154,2.022
														c0.949,0.365,1.98,0.445,2.994,0.522c-0.668,1.9,0.34,4.231,2.182,5.045c0.249,0.11,0.539,0.224,0.629,0.481
														c0.094,0.267-0.077,0.546-0.209,0.796c-0.832,1.587,0.021,3.813,1.701,4.438c-1.298,0.78-1.429,2.926-0.235,3.858
														c0.245,0.191,0.568,0.424,0.49,0.725c-0.029,0.115-0.115,0.205-0.196,0.291c-0.627,0.655-1.259,1.375-1.431,2.265
														c-0.173,0.89,0.314,1.969,1.208,2.115c-0.522,0.364-1.027,0.851-1.112,1.482c-0.086,0.63,0.477,1.35,1.093,1.192
														c0.262-0.067,3.965-0.348,4.15-0.545c2.388-2.546,0.169-5.938,0.377-9.422s-0.602-6.979-1.974-10.189
														c-0.576-1.347-1.255-2.66-2.164-3.809c-1.035-1.309-2.342-2.374-3.645-3.417c-1.7-1.361-3.453-2.725-5.499-3.472
														c-3.811-1.391-8.055-0.451-11.913,0.804c-1.467,0.477-2.937,1.007-4.224,1.858c-1.54,1.018-2.755,2.455-3.842,3.947
														c-1.571,2.156-2.944,4.52-3.514,7.126"/>
												</g>
											</g>
										</g>
									</g>
								</g>
							</g>
						</g>
					</g>
					<g>
						<g>
							<g>
								<g>
									<g>
										<g>
											<g>
												<g>
													<g>
														<path style="fill:#455A64;" d="M373.19,140.081c0,0,0.108-0.291,0.485-0.733c0.183-0.223,0.434-0.479,0.683-0.814
															c0.244-0.337,0.46-0.776,0.57-1.308c0.122-0.529,0.151-1.137,0.184-1.801c0.033-0.662,0.072-1.4,0.316-2.15
															c0.237-0.748,0.641-1.504,1.23-2.174c0.294-0.335,0.634-0.647,1.017-0.921c0.382-0.278,0.816-0.497,1.25-0.716
															c0.432-0.222,0.871-0.463,1.218-0.82c0.349-0.357,0.593-0.819,0.853-1.285c0.522-0.941,1.223-1.838,2.102-2.597
															c0.874-0.759,1.905-1.417,3.075-1.827c0.578-0.226,1.199-0.349,1.828-0.447c0.634-0.059,1.285-0.086,1.935,0.014
															c0.325,0.037,0.647,0.122,0.969,0.196c0.319,0.089,0.631,0.197,0.945,0.292c0.626,0.204,1.274,0.301,1.941,0.235
															c0.666-0.05,1.332-0.208,2.023-0.294c0.689-0.103,1.394-0.127,2.103-0.116c0.71,0.013,1.422,0.104,2.132,0.237
															c0.708,0.145,1.406,0.363,2.084,0.649c1.338,0.591,2.595,1.534,3.367,2.853c0.076,0.131,0.151,0.261,0.226,0.39
															l-0.11-0.06c2.259-0.242,4.48,0.627,6.103,2.017c1.636,1.388,2.732,3.355,2.906,5.395l-0.049-0.08
															c0.828,0.522,1.646,1.044,2.385,1.651c0.737,0.605,1.396,1.3,1.855,2.11c0.454,0.812,0.677,1.728,0.643,2.621
															c-0.03,0.89-0.364,1.771-0.99,2.372l0.008-0.122c0.912,1.165,1.269,2.61,1.223,3.931
															c-0.045,1.328-0.475,2.574-1.191,3.519c-0.166,0.246-0.377,0.451-0.569,0.661c-0.204,0.199-0.409,0.383-0.578,0.588
															c-0.17,0.205-0.293,0.432-0.344,0.681c-0.055,0.248-0.059,0.504-0.071,0.757c-0.044,1.012-0.178,1.939-0.409,2.748
															c-0.233,0.807-0.558,1.5-0.968,2.012c-0.402,0.518-0.868,0.849-1.272,1.043c-0.405,0.202-0.748,0.258-0.949,0.37
															c-0.206,0.101-0.286,0.194-0.291,0.188c0,0,0.072-0.102,0.278-0.212c0.201-0.123,0.545-0.189,0.937-0.395
															c0.394-0.198,0.844-0.529,1.232-1.043c0.395-0.507,0.708-1.192,0.931-1.991c0.221-0.801,0.346-1.72,0.383-2.724
															c0.01-0.251,0.011-0.514,0.068-0.78c0.052-0.269,0.19-0.525,0.367-0.74c0.177-0.217,0.386-0.406,0.585-0.603
															c0.187-0.207,0.39-0.407,0.55-0.647c0.692-0.923,1.105-2.141,1.143-3.436c0.039-1.289-0.316-2.692-1.2-3.813
															l-0.051-0.065l0.059-0.057c0.585-0.566,0.9-1.396,0.926-2.249c0.031-0.854-0.188-1.738-0.625-2.516
															c-0.444-0.779-1.087-1.457-1.812-2.05c-0.727-0.595-1.538-1.112-2.367-1.632l-0.044-0.028l-0.004-0.052
															c-0.172-1.977-1.24-3.893-2.838-5.247c-1.585-1.356-3.751-2.198-5.938-1.963l-0.071,0.008l-0.039-0.067
															c-0.072-0.124-0.145-0.25-0.219-0.376c-0.744-1.273-1.959-2.188-3.266-2.766c-0.661-0.279-1.345-0.493-2.039-0.636
															c-0.696-0.131-1.396-0.221-2.094-0.234c-0.697-0.011-1.391,0.011-2.068,0.112c-0.679,0.083-1.35,0.242-2.036,0.292
															c-0.342,0.027-0.688,0.027-1.029-0.017c-0.341-0.044-0.67-0.133-0.988-0.23c-0.319-0.098-0.629-0.205-0.941-0.293
															c-0.314-0.072-0.625-0.155-0.941-0.192c-0.631-0.099-1.265-0.073-1.884-0.017c-0.613,0.095-1.22,0.213-1.786,0.432
															c-1.147,0.398-2.16,1.04-3.021,1.783c-0.866,0.743-1.556,1.619-2.074,2.542c-0.26,0.462-0.512,0.937-0.884,1.316
															c-0.372,0.378-0.829,0.623-1.264,0.845c-0.439,0.219-0.862,0.429-1.235,0.698c-0.375,0.265-0.709,0.568-0.998,0.893
															c-0.579,0.651-0.98,1.389-1.218,2.119c-0.245,0.731-0.29,1.456-0.328,2.118c-0.039,0.663-0.074,1.277-0.205,1.814
															c-0.118,0.54-0.347,0.99-0.601,1.328c-0.259,0.337-0.514,0.587-0.702,0.804c-0.191,0.215-0.32,0.392-0.4,0.515
															C373.228,140.015,373.195,140.084,373.19,140.081z"/>
													</g>
												</g>
											</g>
										</g>
									</g>
								</g>
							</g>
						</g>
					</g>
					<g>
						<g>
							<g>
								<g>
									<g>
										<g>
											<g>
												<g>
													<g>
														<path style="fill:#455A64;" d="M402.411,124.984c-0.013,0.015-0.178-0.133-0.51-0.349
															c-0.332-0.213-0.842-0.49-1.528-0.654c-0.68-0.166-1.543-0.212-2.43,0.059c-0.881,0.269-1.776,0.847-2.411,1.705
															c-0.182,0.246-0.345,0.513-0.461,0.778c-0.112,0.264-0.159,0.555-0.04,0.772l0.147,0.268l-0.283-0.118
															c-0.778-0.325-1.626-0.272-2.279-0.004c-0.663,0.265-1.121,0.747-1.395,1.195c-0.277,0.453-0.382,0.875-0.428,1.162
															c-0.045,0.29-0.042,0.452-0.058,0.452c-0.007,0-0.013-0.04-0.02-0.118c-0.008-0.078-0.008-0.194,0.004-0.344
															c0.025-0.297,0.111-0.74,0.384-1.223c0.268-0.477,0.74-1.002,1.442-1.297c0.689-0.296,1.591-0.367,2.433-0.022
															l-0.136,0.15c-0.168-0.309-0.094-0.67,0.026-0.958c0.127-0.295,0.293-0.564,0.486-0.826
															c0.666-0.9,1.606-1.499,2.53-1.769c0.932-0.272,1.83-0.206,2.526-0.015c0.703,0.188,1.215,0.495,1.538,0.734
															c0.162,0.121,0.281,0.222,0.355,0.298C402.38,124.937,402.416,124.979,402.411,124.984z"/>
													</g>
												</g>
											</g>
										</g>
									</g>
								</g>
							</g>
						</g>
					</g>
					<g>
						<g>
							<g>
								<g>
									<g>
										<g>
											<g>
												<g>
													<g>
														<path style="fill:#455A64;" d="M413.189,134.75c0.007,0.011-0.09,0.096-0.285,0.229
															c-0.196,0.131-0.491,0.312-0.891,0.472c-0.398,0.156-0.913,0.296-1.502,0.259c-0.579-0.035-1.247-0.249-1.738-0.764
															l0.164-0.005c-0.081,0.089-0.164,0.18-0.249,0.272c-0.089,0.088-0.187,0.17-0.283,0.256
															c-0.602,0.488-1.297,0.787-1.952,0.91c-0.655,0.13-1.265,0.107-1.757,0.008c-0.494-0.099-0.867-0.268-1.113-0.399
															c-0.24-0.144-0.362-0.237-0.354-0.248c0.021-0.043,0.53,0.335,1.495,0.494c0.478,0.076,1.064,0.081,1.689-0.053
															c0.625-0.128,1.283-0.419,1.853-0.881c0.09-0.082,0.183-0.159,0.267-0.242c0.08-0.087,0.159-0.173,0.236-0.256
															l0.084-0.09l0.08,0.085c0.438,0.465,1.049,0.675,1.592,0.72c0.549,0.047,1.045-0.069,1.437-0.203
															C412.748,135.029,413.169,134.716,413.189,134.75z"/>
													</g>
												</g>
											</g>
										</g>
									</g>
								</g>
							</g>
						</g>
					</g>
					<g>
						<g>
							<g>
								<g>
									<g>
										<g>
											<g>
												<g>
													<g>
														<path style="fill:#455A64;" d="M416.212,141.952c0.007,0.003-0.004,0.047-0.034,0.132
															c-0.035,0.081-0.092,0.202-0.204,0.332c-0.213,0.263-0.652,0.561-1.264,0.636c-0.617,0.083-1.342-0.126-2.048-0.476
															c-0.354-0.177-0.721-0.356-1.092-0.591c-0.359-0.234-0.743-0.554-0.893-1.036c-0.011-0.042-0.021-0.084-0.031-0.122
															l0.165,0.073c-0.766,0.462-1.544,0.85-2.311,1.033c-0.763,0.194-1.502,0.149-2.066-0.036
															c-0.569-0.18-0.968-0.479-1.188-0.724c-0.113-0.12-0.187-0.226-0.23-0.301c-0.044-0.075-0.063-0.115-0.057-0.119
															c0.017-0.012,0.114,0.142,0.347,0.36c0.231,0.218,0.623,0.482,1.172,0.636c0.546,0.158,1.241,0.185,1.973-0.012
															c0.734-0.186,1.489-0.568,2.246-1.026l0.127-0.077l0.038,0.15c0.008,0.032,0.017,0.067,0.026,0.102
															c0.122,0.398,0.456,0.693,0.8,0.918c0.348,0.225,0.719,0.411,1.063,0.59c0.687,0.353,1.368,0.562,1.941,0.504
															c0.575-0.051,0.998-0.309,1.218-0.539C416.138,142.126,416.191,141.942,416.212,141.952z"/>
													</g>
												</g>
											</g>
										</g>
									</g>
								</g>
							</g>
						</g>
					</g>
					<g>
						<g>
							<g>
								<g>
									<path style="fill:#FF9A6C;" d="M389.513,163.943c-0.034-0.328-0.07-0.663-0.211-0.961
										c-0.141-0.298-0.411-0.556-0.738-0.592c-0.238-0.026-0.472,0.066-0.694,0.156c-0.955,0.388-1.909,0.776-2.864,1.164
										l-0.327,0.606c0.396,0.894,0.976,1.705,1.692,2.37c0.216,0.201,0.46,0.395,0.752,0.441c0.371,0.058,0.73-0.137,1.056-0.325
										c0.411-0.238,0.839-0.49,1.096-0.89C389.638,165.344,389.582,164.613,389.513,163.943z"/>
								</g>
							</g>
						</g>
						<g>
							<g>
								<g>
									<g>
										<path style="fill:#263238;" d="M386.98,167.307c-0.016-0.069,0.637-0.079,1.407-0.653
											c0.374-0.284,0.765-0.717,0.974-1.296c0.214-0.573,0.24-1.289,0.006-1.957c-0.057-0.167-0.132-0.325-0.218-0.473
											c-0.085-0.151-0.181-0.283-0.289-0.37c-0.111-0.087-0.21-0.112-0.342-0.088c-0.131,0.024-0.282,0.096-0.435,0.158
											c-0.603,0.251-1.149,0.473-1.609,0.654c-0.92,0.362-1.5,0.562-1.521,0.514c-0.021-0.048,0.521-0.335,1.414-0.76
											c0.447-0.212,0.981-0.459,1.577-0.728c0.148-0.063,0.298-0.147,0.504-0.193c0.203-0.054,0.476,0.009,0.641,0.15
											c0.172,0.135,0.289,0.305,0.386,0.471c0.1,0.169,0.186,0.349,0.251,0.539c0.265,0.759,0.224,1.566-0.037,2.208
											c-0.257,0.651-0.718,1.11-1.145,1.39c-0.433,0.284-0.842,0.398-1.121,0.44
											C387.138,167.352,386.981,167.329,386.98,167.307z"/>
									</g>
								</g>
							</g>
						</g>
					</g>
				</g>
			</g>
		</g>
		<g>
			<g>
				<path style="fill:#455A64;" d="M415.718,308.137c-0.036-0.005-0.009-0.523,0.069-1.455c0.085-0.931,0.184-2.28,0.275-3.947
					c0.187-3.333,0.243-7.952-0.178-13.028c-0.43-5.076-1.255-9.622-1.995-12.877c-0.368-1.628-0.69-2.942-0.929-3.846
					c-0.232-0.906-0.345-1.412-0.31-1.423c0.034-0.011,0.212,0.476,0.505,1.367c0.299,0.888,0.677,2.192,1.092,3.816
					c0.835,3.247,1.723,7.812,2.156,12.92c0.424,5.106,0.309,9.755,0.026,13.096c-0.139,1.671-0.294,3.019-0.441,3.945
					C415.848,307.632,415.754,308.142,415.718,308.137z"/>
			</g>
		</g>
		<g>
			<g>
				<path style="fill:#455A64;" d="M399.297,318.804c-0.017-0.005,0.011-0.174,0.08-0.49c0.088-0.373,0.196-0.828,0.326-1.376
					c0.302-1.189,0.704-2.92,1.157-5.065c0.913-4.288,1.904-10.275,2.358-16.949c0.443-6.677,0.262-12.744-0.069-17.115
					c-0.163-2.186-0.329-3.955-0.469-5.174c-0.055-0.561-0.101-1.026-0.139-1.407c-0.026-0.323-0.031-0.494-0.013-0.496
					c0.018-0.003,0.058,0.163,0.117,0.481c0.064,0.379,0.142,0.839,0.236,1.396c0.202,1.213,0.425,2.98,0.635,5.169
					c0.426,4.377,0.667,10.473,0.221,17.181c-0.457,6.705-1.511,12.713-2.518,16.994c-0.501,2.142-0.958,3.863-1.321,5.038
					c-0.168,0.539-0.307,0.985-0.421,1.352C399.375,318.65,399.314,318.809,399.297,318.804z"/>
			</g>
		</g>
		<g>
			<g>
				<path style="fill:#455A64;" d="M378.289,321.215c-0.016-0.008,0.042-0.168,0.167-0.464c0.155-0.349,0.343-0.772,0.57-1.283
					c0.512-1.105,1.227-2.717,2.079-4.72c1.708-4.004,3.861-9.627,5.73-16c1.861-6.378,3.077-12.275,3.797-16.569
					c0.362-2.146,0.628-3.889,0.793-5.096c0.084-0.553,0.154-1.011,0.211-1.388c0.054-0.317,0.091-0.482,0.109-0.48
					c0.018,0.002,0.016,0.171-0.005,0.492c-0.031,0.38-0.069,0.843-0.114,1.401c-0.103,1.216-0.314,2.97-0.63,5.13
					c-0.628,4.319-1.793,10.254-3.66,16.657c-1.877,6.398-4.094,12.024-5.893,16.001c-0.897,1.99-1.665,3.581-2.234,4.661
					c-0.262,0.494-0.48,0.904-0.659,1.241C378.394,321.079,378.305,321.223,378.289,321.215z"/>
			</g>
		</g>
		<g>
			<g>
				<path style="fill:#455A64;" d="M356.03,313.368c-0.024-0.026,0.405-0.48,1.201-1.278c0.801-0.792,1.941-1.958,3.322-3.422
					c2.766-2.924,6.424-7.122,10.038-12.086c3.606-4.972,6.469-9.749,8.395-13.283c0.965-1.766,1.722-3.21,2.228-4.217
					c0.512-1.003,0.811-1.552,0.844-1.537c0.033,0.015-0.204,0.592-0.661,1.625c-0.45,1.035-1.159,2.508-2.086,4.302
					c-1.848,3.589-4.675,8.421-8.298,13.416c-3.63,4.988-7.351,9.168-10.194,12.036c-1.42,1.436-2.602,2.565-3.447,3.313
					C356.53,312.99,356.054,313.394,356.03,313.368z"/>
			</g>
		</g>
	</g>
</g>
</svg>
