<?xml version="1.0" encoding="utf-8"?>
<!-- Generator: Adobe Illustrator 27.5.0, SVG Export Plug-In . SVG Version: 6.00 Build 0)  -->
<svg version="1.1" xmlns="http://www.w3.org/2000/svg" xmlns:xlink="http://www.w3.org/1999/xlink" x="0px" y="0px"
	 viewBox="0 0 500 500" style="enable-background:new 0 0 500 500;" xml:space="preserve">
<g id="BACKGROUND">
	<rect style="fill:#F5FBFF;" width="500" height="500"/>
</g>
<g id="OBJECTS">
	<g>
		<g>
			<circle style="fill:#D2E9FF;" cx="417.377" cy="181.101" r="36.577"/>
			<circle style="fill:#BDDBFF;" cx="417.377" cy="181.101" r="32.891"/>
			<path style="opacity:0.63;fill:#8FC7FF;" d="M440.634,157.844l-46.515,46.515c12.845,12.845,33.67,12.845,46.515,0
				C453.479,191.514,453.479,170.689,440.634,157.844z"/>
		</g>
		<g>
			<path style="fill:#2488FF;" d="M433.217,181.105c0,13.411-5.621,20.789-15.811,20.789c-10.248,0-15.87-7.378-15.87-20.789
				c0-13.352,5.622-20.789,15.87-20.789C427.596,160.316,433.217,167.753,433.217,181.105z M410.496,181.105
				c0,9.721,2.166,13.996,6.91,13.996c4.685,0,6.852-4.275,6.852-13.996c0-9.779-2.166-13.996-6.852-13.996
				C412.663,167.109,410.496,171.326,410.496,181.105z"/>
		</g>
		<g>
			<path style="fill:#0063B5;" d="M426.695,163.227l-0.966,0.873h-8.352v-3.784C417.376,160.316,422.307,160.018,426.695,163.227z"
				/>
			<path style="fill:#0063B5;" d="M408.058,163.227l0.966,0.873h8.352v-3.784C417.376,160.316,412.445,160.018,408.058,163.227z"/>
		</g>
		<g>
			<path style="fill:#0063B5;" d="M426.695,198.976l-0.966-0.873h-8.352v3.784C417.376,201.887,422.307,202.184,426.695,198.976z"/>
			<path style="fill:#0063B5;" d="M408.058,198.976l0.966-0.873h8.352v3.784C417.376,201.887,412.445,202.184,408.058,198.976z"/>
		</g>
		<path style="fill:#0075EA;" d="M417.406,200.649c-12.089,0-14.626-10.628-14.626-19.544c0-12.603,5.195-19.544,14.626-19.544
			c9.393,0,14.566,6.941,14.566,19.544C431.972,190.021,429.445,200.649,417.406,200.649z M417.406,165.864
			c-7.228,0-8.155,8.145-8.155,15.241c0,6.543,0.845,15.241,8.155,15.241c7.258,0,8.096-8.699,8.096-15.241
			C425.503,174.562,424.664,165.864,417.406,165.864z"/>
	</g>
	<g>
		<g>
			
				<ellipse transform="matrix(0.7071 -0.7071 0.7071 0.7071 -103.8581 111.467)" style="fill:#D2E9FF;" cx="82.623" cy="181.101" rx="36.587" ry="36.587"/>
			<circle style="fill:#BDDBFF;" cx="82.623" cy="181.101" r="32.9"/>
			<path style="opacity:0.63;fill:#8FC7FF;" d="M105.887,157.837L59.36,204.365c12.848,12.848,33.68,12.848,46.528,0
				S118.736,170.686,105.887,157.837z"/>
		</g>
		<g>
			<path style="fill:#2488FF;" d="M85.465,167.424c-6.971,0-10.368,4.803-10.192,12.243c2.05-3.104,5.507-4.921,10.251-4.921
				c8.026,0,13.121,5.272,13.121,13.297c0,8.611-5.916,14-14.878,14c-10.661,0-17.163-7.615-17.163-20.208
				c0-13.121,7.146-21.673,18.276-21.673c4.334,0,9.372,1.288,12.77,3.28l-3.456,6.619
				C91.791,168.361,88.569,167.424,85.465,167.424z M76.444,188.16c-0.058,3.222,2.109,6.326,6.912,6.326
				c4.159,0,6.853-2.343,6.853-6.502c0-3.925-2.46-6.326-6.619-6.326C79.021,181.658,76.385,184.528,76.444,188.16z"/>
			<path style="fill:#0063B5;" d="M98.644,188.042c0-5.921-2.781-10.335-7.459-12.247c-2.6-0.54-5.244-0.384-7.838,0.365
				l7.086,1.975l4.358,5.059l-0.233,9.027l-5.059,5.136l-7.704,1.556l-8.966-2.318c0,0,2.178,2.975,7.569,5.155
				c1.073,0.182,2.19,0.29,3.368,0.29C92.728,202.042,98.644,196.654,98.644,188.042z"/>
			<path style="fill:#0063B5;" d="M75.272,179.666c-0.176-7.439,3.222-12.243,10.192-12.243c3.104,0,6.326,0.938,8.728,2.636
				l-0.479-1.773c-7.303-5.725-15.81-2.447-18.838,2.923c-3.028,5.37-0.396,11.596-0.396,11.596L75.272,179.666z"/>
			<g>
				<path style="fill:#0075EA;" d="M83.766,200.797c-9.967,0-15.918-7.089-15.918-18.963c0-12.41,6.685-20.428,17.031-20.428
					c3.725,0,7.943,0.982,11.098,2.548l-2.263,4.333c-2.396-1.35-5.327-2.108-8.249-2.108c-3.389,0-6.115,1.031-8.101,3.065
					c-2.288,2.344-3.481,5.831-3.336,10.452c0.025,0.802,0.452,3.11,0.452,3.11s0.311-0.571,1.832-2.453
					c2.149-2.66,5.069-4.362,9.212-4.362c7.325,0,11.876,4.618,11.876,12.052C97.399,195.91,92.175,200.797,83.766,200.797z
					 M83.59,180.413c-2.6,0-4.785,0.824-6.32,2.383c-1.369,1.392-2.105,3.304-2.072,5.384c-0.037,2.009,0.683,3.894,2.028,5.263
					c1.47,1.497,3.59,2.288,6.129,2.288c4.995,0,8.099-2.968,8.099-7.747C91.455,183.314,88.441,180.413,83.59,180.413z"/>
			</g>
			<polygon style="fill:#0063B5;" points="93.714,168.286 94.192,170.06 97.649,163.441 95.977,163.953 			"/>
		</g>
	</g>
	<g>
		<g>
			<circle style="fill:#D2E9FF;" cx="333.688" cy="83.367" r="36.587"/>
			<circle style="fill:#BDDBFF;" cx="333.688" cy="83.367" r="32.9"/>
			<path style="opacity:0.63;fill:#8FC7FF;" d="M356.952,60.103l-46.528,46.528c12.848,12.848,33.68,12.848,46.528,0
				C369.8,93.782,369.8,72.951,356.952,60.103z"/>
		</g>
		<g>
			<g>
				<g>
					<path style="fill:#2488FF;" d="M338.902,62.835l-12.242,24.309h9.548v-9.08h8.494l0.058,9.08h5.565v7.439h-5.623v9.314h-8.494
						v-9.314h-19.155v-6.443l13.063-25.305H338.902z"/>
					<polygon style="fill:#0075EA;" points="337.452,102.652 337.452,93.339 318.297,93.339 318.297,88.443 330.874,64.081 
						336.881,64.081 324.638,88.39 337.452,88.39 337.452,79.31 343.464,79.31 343.522,88.39 349.079,88.39 349.079,93.339 
						343.456,93.339 343.456,102.652 					"/>
				</g>
				<polygon style="fill:#0063B5;" points="330.115,62.835 330.874,64.081 318.297,88.443 317.052,88.141 				"/>
				<polygon style="fill:#0063B5;" points="317.052,94.584 318.297,93.339 337.452,93.339 336.207,94.584 				"/>
				<polygon style="fill:#0063B5;" points="337.452,102.652 336.207,103.898 344.701,103.898 343.456,102.652 				"/>
				<polygon style="fill:#0063B5;" points="343.456,93.339 344.701,94.584 350.324,94.584 349.079,93.339 				"/>
				<polygon style="fill:#0063B5;" points="350.324,87.145 349.079,88.39 343.522,88.39 344.759,87.145 				"/>
				<polygon style="fill:#0063B5;" points="344.701,78.065 343.464,79.31 337.452,79.31 336.207,78.065 				"/>
				<polygon style="fill:#0063B5;" points="336.207,87.145 337.452,88.39 324.638,88.39 326.659,87.145 				"/>
			</g>
			<polygon style="fill:#0063B5;" points="336.881,64.081 338.902,62.835 330.115,62.835 330.874,64.081 			"/>
		</g>
	</g>
	<g>
		<g>
			<circle style="fill:#D2E9FF;" cx="417.377" cy="83.367" r="36.587"/>
			<circle style="fill:#BDDBFF;" cx="417.377" cy="83.367" r="32.9"/>
			<path style="opacity:0.63;fill:#8FC7FF;" d="M440.641,60.103l-46.528,46.528c12.848,12.848,33.68,12.848,46.528,0
				C453.489,93.782,453.489,72.951,440.641,60.103z"/>
		</g>
		<g>
			<g>
				<path style="fill:#2488FF;" d="M417.846,77.597c9.489,0,15.639,5.096,15.639,12.418c0,8.493-6.443,14.058-16.401,14.058
					c-5.33,0-11.481-1.992-15.816-4.979l3.749-7.322c3.28,3.163,7.205,4.862,11.012,4.862c4.803,0,7.556-2.226,7.556-6.033
					c0-3.456-2.753-5.506-7.498-5.506c-2.343,0-8.669,0.117-11.363,0.351V62.66h26.945v7.732h-18.452v7.205H417.846z"/>
			</g>
			<path style="fill:#0075EA;" d="M417.084,102.828c-4.632,0-10.082-1.614-14.197-4.163l2.504-4.891
				c3.222,2.658,6.948,4.105,10.639,4.105c5.511,0,8.801-2.721,8.801-7.278c0-4.164-3.35-6.751-8.743-6.751
				c-1.815,0-6.913,0.079-10.118,0.262V63.905h24.455v5.242h-18.452v9.696h5.873c8.61,0,14.394,4.49,14.394,11.173
				C432.24,97.799,426.291,102.828,417.084,102.828z"/>
			<polygon style="fill:#0063B5;" points="404.724,62.66 405.97,63.905 405.97,84.112 404.724,85.446 			"/>
			<polygon style="fill:#0063B5;" points="405.017,91.772 405.391,93.775 402.886,98.665 401.268,99.095 			"/>
			<polygon style="fill:#0063B5;" points="413.217,77.597 411.972,78.842 411.972,69.146 413.217,70.392 			"/>
			<polygon style="fill:#0063B5;" points="430.424,69.146 431.67,70.392 431.67,62.66 430.424,63.905 			"/>
		</g>
	</g>
	<g>
		<g>
			
				<ellipse transform="matrix(0.1647 -0.9863 0.9863 0.1647 30.1944 397.8574)" style="fill:#D2E9FF;" cx="250" cy="181.101" rx="36.587" ry="36.587"/>
			<circle style="fill:#BDDBFF;" cx="250" cy="181.101" r="32.9"/>
			<path style="opacity:0.63;fill:#8FC7FF;" d="M273.264,157.837l-46.528,46.528c12.848,12.848,33.68,12.848,46.528,0
				C286.112,191.517,286.112,170.686,273.264,157.837z"/>
		</g>
		<g>
			<path style="fill:#2488FF;" d="M264.088,171.114c0,3.632-1.992,6.795-5.271,8.552c4.51,1.816,7.38,5.682,7.38,10.368
				c0,7.381-6.267,12.008-16.167,12.008c-9.899,0-16.226-4.568-16.226-11.832c0-4.745,3.104-8.728,7.849-10.544
				c-3.573-1.933-5.741-5.214-5.741-8.904c0-6.502,5.448-10.602,14.059-10.602C258.64,160.16,264.088,164.378,264.088,171.114z
				 M242.532,189.214c0,3.749,2.695,5.858,7.498,5.858c4.745,0,7.498-2.109,7.498-5.8c0-3.632-2.753-5.74-7.556-5.74
				C245.227,183.532,242.532,185.583,242.532,189.214z M243.645,171.583c0,3.163,2.285,4.979,6.385,4.979
				c4.042,0,6.326-1.816,6.326-4.979c0-3.222-2.284-5.038-6.326-5.038C245.929,166.545,243.645,168.361,243.645,171.583z"/>
			<path style="fill:#0063B5;" d="M266.196,190.034c0-4.686-2.87-8.552-7.38-10.368c3.28-1.757,5.271-4.921,5.271-8.552
				c0-3.024-1.105-5.534-3.099-7.389l-4.668-1.328l4.379,6.556l-1.634,6.382l-5.292,4.514l7.004,7.705l-1.09,6.537l-11.596,6.707
				H258C263.166,198.956,266.196,195.162,266.196,190.034z"/>
			<g>
				<path style="fill:#0075EA;" d="M250.03,200.797c-9.24,0-14.981-4.057-14.981-10.587c0-4.122,2.701-7.717,7.049-9.381l2.53-0.968
					l-2.383-1.29c-3.186-1.724-5.088-4.643-5.088-7.808c0-5.772,4.91-9.357,12.814-9.357c7.939,0,12.871,3.72,12.871,9.708
					c0,3.12-1.726,5.907-4.615,7.455l-2.347,1.258l2.471,0.995c4.132,1.664,6.599,5.108,6.599,9.213
					C264.951,196.673,259.234,200.797,250.03,200.797z M249.971,182.287c-5.438,0-8.685,2.589-8.685,6.927
					c0,4.448,3.269,7.103,8.743,7.103c5.475,0,8.743-2.634,8.743-7.045C258.773,184.898,255.482,182.287,249.971,182.287z
					 M250.03,165.3c-4.778,0-7.63,2.349-7.63,6.283c0,3.897,2.853,6.224,7.63,6.224c4.741,0,7.571-2.327,7.571-6.224
					C257.6,167.648,254.771,165.3,250.03,165.3z"/>
			</g>
		</g>
	</g>
	<g>
		<g>
			
				<ellipse transform="matrix(0.6109 -0.7917 0.7917 0.6109 -13.5441 334.6435)" style="fill:#D2E9FF;" cx="333.688" cy="181.101" rx="36.587" ry="36.587"/>
			<circle style="fill:#BDDBFF;" cx="333.688" cy="181.101" r="32.9"/>
			<path style="opacity:0.63;fill:#8FC7FF;" d="M356.952,157.837l-46.528,46.528c12.848,12.848,33.68,12.848,46.528,0
				C369.8,191.517,369.8,170.686,356.952,157.837z"/>
		</g>
		<g>
			<path style="fill:#2488FF;" d="M330.819,194.779c6.97,0,10.251-4.803,10.133-12.301c-2.05,3.163-5.448,4.979-10.192,4.979
				c-7.966,0-13.004-5.272-13.004-13.297c0-8.611,5.857-14,14.762-14c10.661,0,17.104,7.615,17.104,20.209
				c0,13.121-7.088,21.673-18.276,21.673c-4.275,0-9.255-1.288-12.652-3.338l3.456-6.561
				C324.55,193.842,327.713,194.779,330.819,194.779z M326.132,174.219c0,3.925,2.46,6.326,6.56,6.326
				c4.569,0,7.146-2.87,7.146-6.502c0-3.222-2.108-6.385-6.912-6.385C328.768,167.658,326.132,170.06,326.132,174.219z"/>
			<path style="fill:#0063B5;" d="M349.621,180.369c0-12.594-6.444-20.209-17.104-20.209c-0.288,0-0.564,0.021-0.845,0.032
				l-6.379,2.78l13.808,1.039l7.315,10.012l-0.856,14.612l-7.627,9.099l-13.541,0.519l-4.03-0.047l-1.67,0.497
				c3.398,2.05,8.377,3.338,12.652,3.338C342.533,202.042,349.621,193.49,349.621,180.369z"/>
			<path style="fill:#0063B5;" d="M341.591,179.537l-0.64,2.941c0.118,7.498-3.163,12.301-10.133,12.301
				c-3.106,0-6.269-0.938-8.67-2.636l0.474,1.772l1.899,2.368l10.169,1.453l8.301-6.702l1.349-9.932L341.591,179.537z"/>
			<g>
				<path style="fill:#0075EA;" d="M331.345,200.797c-3.692,0-7.866-0.998-10.983-2.59l2.26-4.292
					c2.391,1.351,5.304,2.11,8.196,2.11c3.34,0,6.028-1.009,7.985-2.998c2.292-2.327,3.643-5.707,3.393-10.568
					c-0.037-0.721-0.606-2.921-0.606-2.921s-0.895,1.673-1.44,2.335c-1.914,2.324-5.22,4.34-9.392,4.34
					c-7.253,0-11.759-4.618-11.759-12.052c0-7.867,5.179-12.755,13.517-12.755c9.93,0,15.859,7.089,15.859,18.963
					C348.376,192.779,341.691,200.797,331.345,200.797z M332.927,166.413c-4.885,0-8.04,3.064-8.04,7.806
					c0,4.599,3.064,7.571,7.805,7.571c4.941,0,8.392-3.186,8.392-7.747C341.084,170.245,338.562,166.413,332.927,166.413z"/>
			</g>
		</g>
	</g>
	<g>
		<g>
			
				<ellipse transform="matrix(0.2312 -0.9729 0.9729 0.2312 -48.3281 301.0473)" style="fill:#D2E9FF;" cx="166.312" cy="181.101" rx="36.587" ry="36.587"/>
			<circle style="fill:#BDDBFF;" cx="166.312" cy="181.101" r="32.9"/>
			<path style="opacity:0.63;fill:#8FC7FF;" d="M189.576,157.837l-46.528,46.528c12.848,12.848,33.68,12.848,46.528,0
				C202.424,191.517,202.424,170.686,189.576,157.837z"/>
		</g>
		<g>
			<g>
				<path style="fill:#2488FF;" d="M182.42,160.57v6.619l-16.167,34.443h-9.841l15.757-33.33h-13.707l-0.058,5.741h-8.201V160.57
					H182.42z"/>
				<polygon style="fill:#0075EA;" points="158.378,200.387 174.135,167.057 157.229,167.057 157.171,172.798 151.449,172.798 
					151.449,161.815 181.175,161.815 181.175,166.912 165.462,200.387 				"/>
			</g>
			<polygon style="fill:#0063B5;" points="150.203,160.57 151.449,161.815 151.449,172.798 150.203,174.043 			"/>
			<polygon style="fill:#0063B5;" points="157.171,172.798 158.404,174.043 158.462,168.302 157.229,167.057 			"/>
			<polygon style="fill:#0063B5;" points="172.169,168.302 174.135,167.057 158.378,200.387 156.412,201.632 			"/>
			<polygon style="fill:#0063B5;" points="181.175,161.815 181.175,166.912 165.462,200.387 166.253,201.632 182.42,167.189 
				182.42,160.57 			"/>
		</g>
	</g>
	<g>
		<g>
			<circle style="fill:#D2E9FF;" cx="82.623" cy="83.367" r="36.587"/>
			<circle style="fill:#BDDBFF;" cx="82.623" cy="83.367" r="32.9"/>
			<path style="opacity:0.63;fill:#8FC7FF;" d="M105.887,60.103L59.36,106.631c12.848,12.848,33.68,12.848,46.528,0
				S118.736,72.951,105.887,60.103z"/>
		</g>
		<g>
			<g>
				<path style="fill:#2488FF;" d="M89.624,63.229v40.274h-9.077V70.928h-8.043v-7.699H89.624z"/>
				<polygon style="fill:#0075EA;" points="82.248,101.802 82.248,69.226 74.205,69.226 74.205,64.931 87.922,64.931 
					87.922,101.802 				"/>
			</g>
			<polygon style="fill:#0063B5;" points="87.922,64.931 89.624,63.229 72.503,63.229 74.205,64.931 			"/>
			<polygon style="fill:#0063B5;" points="74.205,69.226 72.503,70.928 80.547,70.928 82.248,69.226 			"/>
			<polygon style="fill:#0063B5;" points="87.922,101.802 89.624,103.504 80.547,103.504 82.248,101.802 			"/>
		</g>
	</g>
	<g>
		<circle style="fill:#D2E9FF;" cx="166.312" cy="83.367" r="36.587"/>
		<circle style="fill:#BDDBFF;" cx="166.312" cy="83.367" r="32.9"/>
		<path style="opacity:0.63;fill:#8FC7FF;" d="M189.576,60.103l-46.528,46.528c12.848,12.848,33.68,12.848,46.528,0
			C202.424,93.782,202.424,72.951,189.576,60.103z"/>
		<g>
			<g>
				<path style="fill:#2488FF;" d="M170.93,74.87c0-2.566-1.996-4.049-5.474-4.049c-3.421,0-7.527,1.939-11.12,5.018l-3.535-6.729
					c4.904-3.706,10.321-5.93,15.966-5.93c7.983,0,13.628,4.048,13.628,10.321c0,4.277-3.25,8.724-7.641,13.286l-9.295,9.181h18.362
					v7.584h-29.994v-6.215l14.769-15.225C169.163,79.546,170.93,76.809,170.93,74.87z"/>
				<path style="fill:#0075EA;" d="M153.529,101.851v-3.824l14.288-14.73c1.786-1.786,4.813-5.283,4.813-8.426
					c0-2.78-1.885-5.751-7.176-5.751c-3.238,0-7.007,1.478-10.569,4.107l-1.893-3.604c4.534-3.147,9.161-4.74,13.774-4.74
					c7.133,0,11.926,3.464,11.926,8.619c0,3.223-2.21,6.956-7.166,12.106L159.315,97.67h20.805v4.18H153.529z"/>
			</g>
			<path style="fill:#0075EA;" d="M153.529,101.851v-3.824l14.288-14.73c1.786-1.786,4.813-5.283,4.813-8.426
				c0-2.78-1.885-5.751-7.176-5.751c-3.238,0-7.007,1.478-10.569,4.107l-1.893-3.604c4.534-3.147,9.161-4.74,13.774-4.74
				c7.133,0,11.926,3.464,11.926,8.619c0,3.223-2.21,6.956-7.166,12.106L159.315,97.67h20.805v4.18H153.529z"/>
			<polygon style="fill:#0063B5;" points="154.886,73.227 154.336,75.839 150.802,69.11 152.993,69.623 			"/>
			<polygon style="fill:#0063B5;" points="151.828,97.337 153.529,98.027 153.529,101.851 151.828,103.552 			"/>
			<polygon style="fill:#0063B5;" points="181.822,95.968 180.12,97.67 180.12,101.851 181.822,103.552 			"/>
		</g>
	</g>
	<g>
		<circle style="fill:#D2E9FF;" cx="250" cy="83.367" r="36.587"/>
		<circle style="fill:#BDDBFF;" cx="250" cy="83.367" r="32.9"/>
		<path style="opacity:0.63;fill:#8FC7FF;" d="M273.264,60.103l-46.528,46.528c12.848,12.848,33.68,12.848,46.528,0
			C286.112,93.782,286.112,72.951,273.264,60.103z"/>
		<g>
			<g>
				<g>
					<path style="fill:#2488FF;" d="M265.652,90.637c0,7.584-6.215,12.887-16.023,12.887c-5.645,0-11.461-1.881-15.282-4.676
						l3.649-7.185c3.193,3.079,7.014,4.733,10.948,4.733c5.018,0,7.869-2.167,7.869-5.645c0-3.649-2.851-5.474-7.926-5.474h-6.386
						v-4.961l10.207-9.808H236.4v-7.299h27.257v5.418l-11.576,10.834l2.167,0.285C260.977,80.544,265.652,84.422,265.652,90.637z"/>
					<path style="fill:#0075EA;" d="M249.629,101.822c-4.607,0-9.481-1.339-13.081-3.547l1.981-3.9
						c3.144,2.444,6.707,3.723,10.416,3.723c7.056,0,9.571-3.795,9.571-7.347c0-2.158-0.938-7.176-9.628-7.176h-4.685v-2.534
						l12.732-12.235h-18.834v-3.895h23.853v2.978l-13.665,12.79l5.737,0.755c6.223,0.737,9.925,4.177,9.925,9.203
						C263.951,97.432,258.329,101.822,249.629,101.822z"/>
				</g>
				<polygon style="fill:#0063B5;" points="236.4,63.209 238.102,64.911 261.955,64.911 263.657,63.209 				"/>
				<polygon style="fill:#0063B5;" points="236.4,70.508 238.102,68.806 256.935,68.806 252.708,70.508 				"/>
				<polygon style="fill:#0063B5;" points="242.501,80.316 244.203,81.041 244.203,83.575 242.501,85.277 				"/>
				<polygon style="fill:#0063B5;" points="237.997,91.663 238.529,94.375 236.548,98.275 234.347,98.848 				"/>
				<polygon style="fill:#0063B5;" points="248.289,80.679 252.081,79.461 263.657,68.627 261.955,67.889 				"/>
			</g>
		</g>
	</g>
	<g>
		<g>
			
				<ellipse transform="matrix(0.0978 -0.9952 0.9952 0.0978 -27.762 781.882)" style="fill:#94D4FF;" cx="417.377" cy="406.254" rx="36.577" ry="36.577"/>
			<circle style="fill:#2488FF;" cx="417.377" cy="406.254" r="32.891"/>
			<path style="fill:#0C7EEF;" d="M440.634,382.996l-46.515,46.515c12.845,12.845,33.67,12.845,46.515,0
				C453.479,416.666,453.479,395.841,440.634,382.996z"/>
		</g>
		<g>
			<path style="fill:#8DCCFF;" d="M433.217,406.257c0,13.41-5.621,20.789-15.811,20.789c-10.248,0-15.87-7.379-15.87-20.789
				c0-13.352,5.622-20.789,15.87-20.789C427.596,385.468,433.217,392.906,433.217,406.257z M410.496,406.257
				c0,9.721,2.166,13.996,6.91,13.996c4.685,0,6.852-4.275,6.852-13.996c0-9.779-2.166-13.996-6.852-13.996
				C412.663,392.261,410.496,396.478,410.496,406.257z"/>
		</g>
		<path style="opacity:0.63;fill:#24B0ED;" d="M417.376,385.468c0,0-4.931-0.297-9.318,2.911l0.966,0.873h8.352h8.352l0.966-0.873
			C422.307,385.171,417.376,385.468,417.376,385.468z"/>
		<path style="opacity:0.63;fill:#24B0ED;" d="M425.728,423.255h-8.352h-8.352l-0.966,0.873c4.387,3.208,9.318,2.911,9.318,2.911
			s4.931,0.297,9.318-2.911L425.728,423.255z"/>
		<path style="fill:#BDDBFF;" d="M417.406,425.801c-12.089,0-14.626-10.628-14.626-19.544c0-12.603,5.195-19.544,14.626-19.544
			c9.393,0,14.566,6.941,14.566,19.544C431.972,415.173,429.445,425.801,417.406,425.801z M417.406,391.017
			c-7.228,0-8.155,8.145-8.155,15.241c0,6.543,0.845,15.241,8.155,15.241c7.258,0,8.096-8.699,8.096-15.241
			C425.503,399.715,424.664,391.017,417.406,391.017z"/>
	</g>
	<g>
		<g>
			
				<ellipse transform="matrix(0.7071 -0.7071 0.7071 0.7071 -263.0648 177.4125)" style="fill:#94D4FF;" cx="82.623" cy="406.254" rx="36.587" ry="36.587"/>
			<circle style="fill:#2488FF;" cx="82.623" cy="406.253" r="32.9"/>
			<path style="fill:#0C7EEF;" d="M105.887,382.99L59.36,429.517c12.848,12.848,33.68,12.848,46.528,0
				S118.736,395.838,105.887,382.99z"/>
		</g>
		<g>
			<path style="fill:#8DCCFF;" d="M85.465,392.576c-6.971,0-10.368,4.803-10.192,12.243c2.05-3.104,5.507-4.921,10.251-4.921
				c8.026,0,13.121,5.272,13.121,13.297c0,8.611-5.916,14-14.878,14c-10.661,0-17.163-7.615-17.163-20.208
				c0-13.121,7.146-21.673,18.276-21.673c4.334,0,9.372,1.288,12.77,3.28l-3.456,6.619
				C91.791,393.513,88.569,392.576,85.465,392.576z M76.444,413.312c-0.058,3.222,2.109,6.326,6.912,6.326
				c4.159,0,6.853-2.343,6.853-6.502c0-3.925-2.46-6.326-6.619-6.326C79.021,406.81,76.385,409.681,76.444,413.312z"/>
			<path style="opacity:0.63;fill:#24B0ED;" d="M98.644,413.195c0-5.921-2.781-10.335-7.459-12.247
				c-2.6-0.54-5.244-0.384-7.838,0.365l7.086,1.975l4.358,5.059l-0.233,9.027l-5.059,5.136l-7.704,1.556l-8.966-2.318
				c0,0,2.178,2.975,7.569,5.155c1.073,0.182,2.19,0.291,3.368,0.291C92.728,427.194,98.644,421.806,98.644,413.195z"/>
			<path style="opacity:0.63;fill:#24B0ED;" d="M75.272,404.818c-0.176-7.439,3.222-12.243,10.192-12.243
				c3.104,0,6.326,0.938,8.728,2.636l-0.479-1.774c-7.303-5.725-15.81-2.447-18.838,2.923c-3.028,5.37-0.396,11.596-0.396,11.596
				L75.272,404.818z"/>
			<g>
				<g>
					<path style="fill:#BDDBFF;" d="M83.766,425.949c-9.967,0-15.918-7.089-15.918-18.963c0-12.41,6.685-20.428,17.031-20.428
						c3.725,0,7.943,0.982,11.098,2.547l-2.263,4.333c-2.396-1.35-5.327-2.108-8.249-2.108c-3.389,0-6.115,1.031-8.101,3.065
						c-2.288,2.344-3.481,5.831-3.336,10.452c0.025,0.802,0.452,3.11,0.452,3.11s0.311-0.571,1.832-2.453
						c2.149-2.66,5.069-4.362,9.212-4.362c7.325,0,11.876,4.618,11.876,12.052C97.399,421.062,92.175,425.949,83.766,425.949z
						 M83.59,405.565c-2.6,0-4.785,0.824-6.32,2.383c-1.369,1.392-2.105,3.304-2.072,5.384c-0.037,2.009,0.683,3.894,2.028,5.263
						c1.47,1.497,3.59,2.288,6.129,2.288c4.995,0,8.099-2.968,8.099-7.747C91.455,408.466,88.441,405.565,83.59,405.565z"/>
				</g>
			</g>
			<polygon style="opacity:0.63;fill:#24B0ED;" points="93.714,393.439 94.192,395.212 97.649,388.593 95.977,389.105 			"/>
		</g>
	</g>
	<g>
		<g>
			<circle style="fill:#A9D8FF;" cx="333.688" cy="308.519" r="36.587"/>
			<circle style="fill:#2488FF;" cx="333.688" cy="308.519" r="32.9"/>
			<path style="fill:#0C7EEF;" d="M356.952,285.255l-46.528,46.528c12.848,12.848,33.68,12.848,46.528,0
				C369.8,318.934,369.8,298.103,356.952,285.255z"/>
		</g>
		<g>
			<g>
				<g>
					<path style="fill:#8DCCFF;" d="M338.902,287.988l-12.242,24.309h9.548v-9.08h8.494l0.058,9.08h5.565v7.439h-5.623v9.314h-8.494
						v-9.314h-19.155v-6.443l13.063-25.305H338.902z"/>
					<polygon style="fill:#BDDBFF;" points="337.452,327.805 337.452,318.491 318.297,318.491 318.297,313.595 330.874,289.233 
						336.881,289.233 324.638,313.542 337.452,313.542 337.452,304.463 343.464,304.463 343.522,313.542 349.079,313.542 
						349.079,318.491 343.456,318.491 343.456,327.805 					"/>
				</g>
				<polygon style="opacity:0.63;fill:#24B0ED;" points="330.115,287.988 330.874,289.233 318.297,313.595 317.052,313.293 				"/>
				<polygon style="opacity:0.63;fill:#24B0ED;" points="317.052,319.736 318.297,318.491 337.452,318.491 336.207,319.736 				"/>
				<polygon style="opacity:0.63;fill:#24B0ED;" points="337.452,327.805 336.207,329.05 344.701,329.05 343.456,327.805 				"/>
				<polygon style="opacity:0.63;fill:#24B0ED;" points="343.456,318.491 344.701,319.736 350.324,319.736 349.079,318.491 				"/>
				<polygon style="opacity:0.63;fill:#24B0ED;" points="350.324,312.297 349.079,313.542 343.522,313.542 344.759,312.297 				"/>
				<polygon style="opacity:0.63;fill:#24B0ED;" points="344.701,303.217 343.464,304.463 337.452,304.463 336.207,303.217 				"/>
				<polygon style="opacity:0.63;fill:#24B0ED;" points="336.207,312.297 337.452,313.542 324.638,313.542 326.659,312.297 				"/>
			</g>
			<polygon style="opacity:0.63;fill:#24B0ED;" points="336.881,289.233 338.902,287.988 330.115,287.988 330.874,289.233 			"/>
		</g>
	</g>
	<g>
		<g>
			<circle style="fill:#A9D8FF;" cx="417.377" cy="308.519" r="36.587"/>
			<circle style="fill:#2488FF;" cx="417.377" cy="308.519" r="32.9"/>
			<path style="fill:#0C7EEF;" d="M440.641,285.255l-46.528,46.528c12.848,12.848,33.68,12.848,46.528,0
				C453.489,318.934,453.489,298.103,440.641,285.255z"/>
		</g>
		<g>
			<g>
				<path style="fill:#8DCCFF;" d="M417.846,302.749c9.489,0,15.639,5.096,15.639,12.418c0,8.493-6.443,14.058-16.401,14.058
					c-5.33,0-11.481-1.992-15.816-4.979l3.749-7.322c3.28,3.163,7.205,4.862,11.012,4.862c4.803,0,7.556-2.226,7.556-6.033
					c0-3.456-2.753-5.506-7.498-5.506c-2.343,0-8.669,0.117-11.363,0.351v-22.786h26.945v7.732h-18.452v7.205H417.846z"/>
			</g>
			<path style="fill:#BDDBFF;" d="M417.084,327.98c-4.632,0-10.082-1.614-14.197-4.163l2.504-4.891
				c3.222,2.658,6.948,4.105,10.639,4.105c5.511,0,8.801-2.721,8.801-7.278c0-4.164-3.35-6.751-8.743-6.751
				c-1.815,0-6.913,0.079-10.118,0.262v-20.207h24.455v5.242h-18.452v9.696h5.873c8.61,0,14.394,4.49,14.394,11.173
				C432.24,322.951,426.291,327.98,417.084,327.98z"/>
			<polygon style="opacity:0.63;fill:#24B0ED;" points="404.724,287.812 405.97,289.057 405.97,309.264 404.724,310.599 			"/>
			<polygon style="opacity:0.63;fill:#24B0ED;" points="405.017,316.925 405.391,318.927 402.886,323.818 401.268,324.247 			"/>
			<polygon style="opacity:0.63;fill:#24B0ED;" points="413.217,302.749 411.972,303.994 411.972,294.299 413.217,295.544 			"/>
			<polygon style="opacity:0.63;fill:#24B0ED;" points="430.424,294.299 431.67,295.544 431.67,287.812 430.424,289.057 			"/>
		</g>
	</g>
	<g>
		<g>
			
				<ellipse transform="matrix(0.1647 -0.9863 0.9863 0.1647 -191.8826 585.9245)" style="fill:#94D4FF;" cx="250" cy="406.254" rx="36.587" ry="36.587"/>
			<circle style="fill:#2488FF;" cx="250" cy="406.253" r="32.9"/>
			<path style="fill:#0C7EEF;" d="M273.264,382.99l-46.528,46.528c12.848,12.848,33.68,12.848,46.528,0
				C286.112,416.669,286.112,395.838,273.264,382.99z"/>
		</g>
		<g>
			<path style="fill:#8DCCFF;" d="M264.088,396.266c0,3.632-1.992,6.795-5.271,8.552c4.51,1.816,7.38,5.682,7.38,10.368
				c0,7.38-6.267,12.008-16.167,12.008c-9.899,0-16.226-4.569-16.226-11.832c0-4.745,3.104-8.728,7.849-10.544
				c-3.573-1.933-5.741-5.214-5.741-8.904c0-6.502,5.448-10.602,14.059-10.602C258.64,385.313,264.088,389.53,264.088,396.266z
				 M242.532,414.366c0,3.749,2.695,5.858,7.498,5.858c4.745,0,7.498-2.109,7.498-5.8c0-3.632-2.753-5.74-7.556-5.74
				C245.227,408.685,242.532,410.735,242.532,414.366z M243.645,396.735c0,3.163,2.285,4.979,6.385,4.979
				c4.042,0,6.326-1.816,6.326-4.979c0-3.222-2.284-5.038-6.326-5.038C245.929,391.697,243.645,393.513,243.645,396.735z"/>
			<path style="opacity:0.63;fill:#24B0ED;" d="M266.196,415.186c0-4.686-2.87-8.552-7.38-10.368
				c3.28-1.757,5.271-4.921,5.271-8.552c0-3.024-1.105-5.534-3.099-7.389l-4.668-1.328l4.379,6.556l-1.634,6.382L253.774,405
				l7.004,7.705l-1.09,6.537l-11.596,6.707H258C263.166,424.108,266.196,420.314,266.196,415.186z"/>
			<g>
				<g>
					<path style="fill:#BDDBFF;" d="M250.03,425.949c-9.24,0-14.981-4.056-14.981-10.587c0-4.122,2.701-7.717,7.049-9.381
						l2.53-0.969l-2.383-1.29c-3.186-1.724-5.088-4.643-5.088-7.808c0-5.772,4.91-9.357,12.814-9.357
						c7.939,0,12.871,3.72,12.871,9.708c0,3.12-1.726,5.907-4.615,7.455l-2.347,1.258l2.471,0.995
						c4.132,1.664,6.599,5.108,6.599,9.213C264.951,421.825,259.234,425.949,250.03,425.949z M249.971,407.439
						c-5.438,0-8.685,2.59-8.685,6.927c0,4.448,3.269,7.103,8.743,7.103c5.475,0,8.743-2.634,8.743-7.045
						C258.773,410.051,255.482,407.439,249.971,407.439z M250.03,390.452c-4.778,0-7.63,2.349-7.63,6.283
						c0,3.897,2.853,6.224,7.63,6.224c4.741,0,7.571-2.327,7.571-6.224C257.6,392.801,254.771,390.452,250.03,390.452z"/>
				</g>
			</g>
		</g>
	</g>
	<g>
		<g>
			
				<ellipse transform="matrix(0.6109 -0.7917 0.7917 0.6109 -191.7963 422.2469)" style="fill:#94D4FF;" cx="333.688" cy="406.254" rx="36.587" ry="36.587"/>
			<circle style="fill:#2488FF;" cx="333.688" cy="406.253" r="32.9"/>
			<path style="fill:#0C7EEF;" d="M356.952,382.99l-46.528,46.528c12.848,12.848,33.68,12.848,46.528,0
				C369.8,416.669,369.8,395.838,356.952,382.99z"/>
		</g>
		<g>
			<path style="fill:#8DCCFF;" d="M330.819,419.931c6.97,0,10.251-4.803,10.133-12.301c-2.05,3.163-5.448,4.979-10.192,4.979
				c-7.966,0-13.004-5.272-13.004-13.297c0-8.611,5.857-14,14.762-14c10.661,0,17.104,7.615,17.104,20.209
				c0,13.121-7.088,21.673-18.276,21.673c-4.275,0-9.255-1.288-12.652-3.339l3.456-6.561
				C324.55,418.994,327.713,419.931,330.819,419.931z M326.132,399.371c0,3.925,2.46,6.326,6.56,6.326
				c4.569,0,7.146-2.87,7.146-6.502c0-3.222-2.108-6.385-6.912-6.385C328.768,392.81,326.132,395.212,326.132,399.371z"/>
			<path style="opacity:0.63;fill:#24B0ED;" d="M349.621,405.521c0-12.594-6.444-20.209-17.104-20.209
				c-0.288,0-0.564,0.021-0.845,0.032l-6.379,2.78l13.808,1.039l7.315,10.012l-0.856,14.612l-7.627,9.099l-13.541,0.519l-4.03-0.047
				l-1.67,0.497c3.398,2.05,8.377,3.339,12.652,3.339C342.533,427.194,349.621,418.642,349.621,405.521z"/>
			<path style="opacity:0.63;fill:#24B0ED;" d="M341.591,404.689l-0.64,2.941c0.118,7.498-3.163,12.301-10.133,12.301
				c-3.106,0-6.269-0.938-8.67-2.636l0.474,1.772l1.899,2.368l10.169,1.453l8.301-6.702l1.349-9.932L341.591,404.689z"/>
			<g>
				<g>
					<path style="fill:#BDDBFF;" d="M331.345,425.949c-3.692,0-7.866-0.998-10.983-2.59l2.26-4.292
						c2.391,1.351,5.304,2.11,8.196,2.11c3.34,0,6.028-1.009,7.985-2.998c2.292-2.327,3.643-5.707,3.393-10.568
						c-0.037-0.721-0.606-2.922-0.606-2.922s-0.895,1.673-1.44,2.335c-1.914,2.324-5.22,4.34-9.392,4.34
						c-7.253,0-11.759-4.618-11.759-12.052c0-7.868,5.179-12.755,13.517-12.755c9.93,0,15.859,7.089,15.859,18.963
						C348.376,417.931,341.691,425.949,331.345,425.949z M332.927,391.565c-4.885,0-8.04,3.064-8.04,7.806
						c0,4.6,3.064,7.571,7.805,7.571c4.941,0,8.392-3.186,8.392-7.747C341.084,395.397,338.562,391.565,332.927,391.565z"/>
				</g>
			</g>
		</g>
	</g>
	<g>
		<g>
			
				<ellipse transform="matrix(0.2312 -0.9729 0.9729 0.2312 -267.3827 474.1554)" style="fill:#94D4FF;" cx="166.312" cy="406.254" rx="36.587" ry="36.587"/>
			<circle style="fill:#2488FF;" cx="166.312" cy="406.253" r="32.9"/>
			<path style="fill:#0C7EEF;" d="M189.576,382.99l-46.528,46.528c12.848,12.848,33.68,12.848,46.528,0
				C202.424,416.669,202.424,395.838,189.576,382.99z"/>
		</g>
		<g>
			<g>
				<path style="fill:#8DCCFF;" d="M182.42,385.722v6.619l-16.167,34.443h-9.841l15.757-33.33h-13.707l-0.058,5.741h-8.201v-13.473
					H182.42z"/>
				<polygon style="fill:#BDDBFF;" points="158.378,425.539 174.135,392.209 157.229,392.209 157.171,397.95 151.449,397.95 
					151.449,386.968 181.175,386.968 181.175,392.064 165.462,425.539 				"/>
			</g>
			<polygon style="opacity:0.63;fill:#24B0ED;" points="150.203,385.722 151.449,386.968 151.449,397.95 150.203,399.195 			"/>
			<polygon style="opacity:0.63;fill:#24B0ED;" points="157.171,397.95 158.404,399.195 158.462,393.454 157.229,392.209 			"/>
			<polygon style="opacity:0.63;fill:#24B0ED;" points="172.169,393.454 174.135,392.209 158.378,425.539 156.412,426.785 			"/>
			<polygon style="opacity:0.63;fill:#24B0ED;" points="181.175,386.968 181.175,392.064 165.462,425.539 166.253,426.785 
				182.42,392.342 182.42,385.722 			"/>
		</g>
	</g>
	<g>
		<g>
			<circle style="fill:#94D4FF;" cx="82.623" cy="308.519" r="36.587"/>
			<circle style="fill:#2488FF;" cx="82.623" cy="308.519" r="32.9"/>
			<path style="fill:#0C7EEF;" d="M105.887,285.255L59.36,331.783c12.848,12.848,33.68,12.848,46.528,0
				C118.736,318.934,118.736,298.103,105.887,285.255z"/>
		</g>
		<g>
			<g>
				<path style="fill:#8DCCFF;" d="M89.624,288.382v40.274h-9.077V296.08h-8.043v-7.699H89.624z"/>
				<polygon style="fill:#BDDBFF;" points="82.248,326.954 82.248,294.378 74.205,294.378 74.205,290.083 87.922,290.083 
					87.922,326.954 				"/>
			</g>
			<polygon style="opacity:0.63;fill:#24B0ED;" points="87.922,290.083 89.624,288.382 72.503,288.382 74.205,290.083 			"/>
			<polygon style="opacity:0.63;fill:#24B0ED;" points="74.205,294.378 72.503,296.08 80.547,296.08 82.248,294.378 			"/>
			<polygon style="opacity:0.63;fill:#24B0ED;" points="87.922,326.954 89.624,328.656 80.547,328.656 82.248,326.954 			"/>
		</g>
	</g>
	<g>
		<circle style="fill:#94D4FF;" cx="166.557" cy="308.519" r="36.587"/>
		<circle style="fill:#2488FF;" cx="166.312" cy="308.519" r="32.9"/>
		<path style="fill:#0C7EEF;" d="M189.576,285.255l-46.528,46.528c12.848,12.848,33.68,12.848,46.528,0
			C202.424,318.934,202.424,298.103,189.576,285.255z"/>
		<g>
			<g>
				<path style="fill:#8DCCFF;" d="M170.93,300.023c0-2.566-1.996-4.049-5.474-4.049c-3.421,0-7.527,1.939-11.12,5.018l-3.535-6.729
					c4.904-3.706,10.321-5.93,15.966-5.93c7.983,0,13.628,4.048,13.628,10.321c0,4.277-3.25,8.724-7.641,13.286l-9.295,9.181h18.362
					v7.584h-29.994v-6.215l14.769-15.225C169.163,304.698,170.93,301.961,170.93,300.023z"/>
				<path style="fill:#0075EA;" d="M153.529,327.003v-3.824l14.288-14.73c1.786-1.786,4.813-5.283,4.813-8.426
					c0-2.78-1.885-5.751-7.176-5.751c-3.238,0-7.007,1.478-10.569,4.107l-1.893-3.604c4.534-3.147,9.161-4.74,13.774-4.74
					c7.133,0,11.926,3.464,11.926,8.619c0,3.223-2.21,6.956-7.166,12.106l-12.213,12.063h20.805v4.18H153.529z"/>
			</g>
			<path style="fill:#BDDBFF;" d="M153.529,327.003v-3.824l14.288-14.73c1.786-1.786,4.813-5.283,4.813-8.426
				c0-2.78-1.885-5.751-7.176-5.751c-3.238,0-7.007,1.478-10.569,4.107l-1.893-3.604c4.534-3.147,9.161-4.74,13.774-4.74
				c7.133,0,11.926,3.464,11.926,8.619c0,3.223-2.21,6.956-7.166,12.106l-12.213,12.063h20.805v4.18H153.529z"/>
			<polygon style="opacity:0.63;fill:#24B0ED;" points="154.886,298.379 154.336,300.991 150.802,294.263 152.993,294.775 			"/>
			<polygon style="opacity:0.63;fill:#24B0ED;" points="151.828,322.489 153.529,323.179 153.529,327.003 151.828,328.704 			"/>
			<polygon style="opacity:0.63;fill:#24B0ED;" points="181.822,321.121 180.12,322.822 180.12,327.003 181.822,328.704 			"/>
		</g>
	</g>
	<g>
		<circle style="fill:#94D4FF;" cx="250" cy="308.519" r="36.587"/>
		<circle style="fill:#2488FF;" cx="250" cy="308.519" r="32.9"/>
		<path style="fill:#0C7EEF;" d="M273.264,285.255l-46.528,46.528c12.848,12.848,33.68,12.848,46.528,0
			C286.112,318.934,286.112,298.103,273.264,285.255z"/>
		<g>
			<g>
				<g>
					<path style="fill:#8DCCFF;" d="M265.652,315.789c0,7.584-6.215,12.887-16.023,12.887c-5.645,0-11.461-1.881-15.282-4.676
						l3.649-7.185c3.193,3.079,7.014,4.733,10.948,4.733c5.018,0,7.869-2.167,7.869-5.645c0-3.649-2.851-5.474-7.926-5.474h-6.386
						v-4.961l10.207-9.808H236.4v-7.299h27.257v5.418l-11.576,10.834l2.167,0.285C260.977,305.696,265.652,309.574,265.652,315.789z
						"/>
					<path style="fill:#BDDBFF;" d="M249.629,326.974c-4.607,0-9.481-1.339-13.081-3.547l1.981-3.9
						c3.144,2.444,6.707,3.723,10.416,3.723c7.056,0,9.571-3.795,9.571-7.347c0-2.158-0.938-7.176-9.628-7.176h-4.685v-2.534
						l12.732-12.234h-18.834v-3.895h23.853v2.978l-13.665,12.79l5.737,0.754c6.223,0.737,9.925,4.177,9.925,9.203
						C263.951,322.584,258.329,326.974,249.629,326.974z"/>
				</g>
				<polygon style="opacity:0.63;fill:#24B0ED;" points="236.4,288.361 238.102,290.063 261.955,290.063 263.657,288.361 				"/>
				<polygon style="opacity:0.63;fill:#24B0ED;" points="236.4,295.66 238.102,293.958 256.935,293.958 252.708,295.66 				"/>
				<polygon style="opacity:0.63;fill:#24B0ED;" points="242.501,305.469 244.203,306.193 244.203,308.727 242.501,310.429 				"/>
				<polygon style="opacity:0.63;fill:#24B0ED;" points="237.997,316.816 238.529,319.527 236.548,323.427 234.347,324.001 				"/>
				<polygon style="opacity:0.63;fill:#24B0ED;" points="248.289,305.832 252.081,304.613 263.657,293.779 261.955,293.041 				"/>
			</g>
		</g>
	</g>
	<g>
		<path style="opacity:0.63;fill:#64BCF9;" d="M50.468,244.81c0,1.224-0.992,2.216-2.216,2.216c-1.224,0-2.216-0.992-2.216-2.216
			c0-1.224,0.992-2.216,2.216-2.216C49.476,242.594,50.468,243.586,50.468,244.81z"/>
		<circle style="opacity:0.63;fill:#64BCF9;" cx="57.855" cy="244.81" r="2.216"/>
		<path style="opacity:0.63;fill:#64BCF9;" d="M69.675,244.81c0,1.224-0.992,2.216-2.216,2.216c-1.224,0-2.216-0.992-2.216-2.216
			c0-1.224,0.992-2.216,2.216-2.216C68.683,242.594,69.675,243.586,69.675,244.81z"/>
		<path style="opacity:0.63;fill:#64BCF9;" d="M79.278,244.81c0,1.224-0.992,2.216-2.216,2.216c-1.224,0-2.216-0.992-2.216-2.216
			c0-1.224,0.992-2.216,2.216-2.216C78.286,242.594,79.278,243.586,79.278,244.81z"/>
		<circle style="opacity:0.63;fill:#64BCF9;" cx="86.666" cy="244.81" r="2.216"/>
		<path style="opacity:0.63;fill:#64BCF9;" d="M98.485,244.81c0,1.224-0.992,2.216-2.216,2.216c-1.224,0-2.216-0.992-2.216-2.216
			c0-1.224,0.992-2.216,2.216-2.216C97.493,242.594,98.485,243.586,98.485,244.81z"/>
		<path style="opacity:0.63;fill:#64BCF9;" d="M108.089,244.81c0,1.224-0.992,2.216-2.216,2.216c-1.224,0-2.216-0.992-2.216-2.216
			c0-1.224,0.992-2.216,2.216-2.216C107.097,242.594,108.089,243.586,108.089,244.81z"/>
		<circle style="opacity:0.63;fill:#64BCF9;" cx="115.477" cy="244.81" r="2.216"/>
		<circle style="opacity:0.63;fill:#64BCF9;" cx="125.08" cy="244.81" r="2.216"/>
		<path style="opacity:0.63;fill:#64BCF9;" d="M136.9,244.81c0,1.224-0.992,2.216-2.216,2.216c-1.224,0-2.216-0.992-2.216-2.216
			c0-1.224,0.992-2.216,2.216-2.216C135.908,242.594,136.9,243.586,136.9,244.81z"/>
		<circle style="opacity:0.63;fill:#64BCF9;" cx="144.288" cy="244.81" r="2.216"/>
		<circle style="opacity:0.63;fill:#64BCF9;" cx="153.891" cy="244.81" r="2.216"/>
		<path style="opacity:0.63;fill:#64BCF9;" d="M165.71,244.81c0,1.224-0.992,2.216-2.216,2.216c-1.224,0-2.216-0.992-2.216-2.216
			c0-1.224,0.992-2.216,2.216-2.216C164.718,242.594,165.71,243.586,165.71,244.81z"/>
		<circle style="opacity:0.63;fill:#64BCF9;" cx="173.098" cy="244.81" r="2.216"/>
		<circle style="opacity:0.63;fill:#64BCF9;" cx="182.702" cy="244.81" r="2.216"/>
		<path style="opacity:0.63;fill:#64BCF9;" d="M194.521,244.81c0,1.224-0.992,2.216-2.216,2.216c-1.224,0-2.216-0.992-2.216-2.216
			c0-1.224,0.992-2.216,2.216-2.216C193.529,242.594,194.521,243.586,194.521,244.81z"/>
		<circle style="opacity:0.63;fill:#64BCF9;" cx="201.909" cy="244.81" r="2.216"/>
		<circle style="opacity:0.63;fill:#64BCF9;" cx="211.513" cy="244.81" r="2.216"/>
		<path style="opacity:0.63;fill:#64BCF9;" d="M223.332,244.81c0,1.224-0.992,2.216-2.216,2.216c-1.224,0-2.216-0.992-2.216-2.216
			c0-1.224,0.992-2.216,2.216-2.216C222.34,242.594,223.332,243.586,223.332,244.81z"/>
		<path style="opacity:0.63;fill:#64BCF9;" d="M232.936,244.81c0,1.224-0.992,2.216-2.216,2.216c-1.224,0-2.216-0.992-2.216-2.216
			c0-1.224,0.992-2.216,2.216-2.216C231.943,242.594,232.936,243.586,232.936,244.81z"/>
		<circle style="opacity:0.63;fill:#64BCF9;" cx="240.323" cy="244.81" r="2.216"/>
		<path style="opacity:0.63;fill:#64BCF9;" d="M252.143,244.81c0,1.224-0.992,2.216-2.216,2.216c-1.224,0-2.216-0.992-2.216-2.216
			c0-1.224,0.992-2.216,2.216-2.216C251.151,242.594,252.143,243.586,252.143,244.81z"/>
		<path style="opacity:0.63;fill:#64BCF9;" d="M261.746,244.81c0,1.224-0.992,2.216-2.216,2.216c-1.224,0-2.216-0.992-2.216-2.216
			c0-1.224,0.992-2.216,2.216-2.216C260.754,242.594,261.746,243.586,261.746,244.81z"/>
		<circle style="opacity:0.63;fill:#64BCF9;" cx="269.134" cy="244.81" r="2.216"/>
		<circle style="opacity:0.63;fill:#64BCF9;" cx="278.738" cy="244.81" r="2.216"/>
		<path style="opacity:0.63;fill:#64BCF9;" d="M290.557,244.81c0,1.224-0.992,2.216-2.216,2.216c-1.224,0-2.216-0.992-2.216-2.216
			c0-1.224,0.992-2.216,2.216-2.216C289.565,242.594,290.557,243.586,290.557,244.81z"/>
		<circle style="opacity:0.63;fill:#64BCF9;" cx="297.945" cy="244.81" r="2.216"/>
		<circle style="opacity:0.63;fill:#64BCF9;" cx="307.548" cy="244.81" r="2.216"/>
		<path style="opacity:0.63;fill:#64BCF9;" d="M319.368,244.81c0,1.224-0.992,2.216-2.216,2.216c-1.224,0-2.216-0.992-2.216-2.216
			c0-1.224,0.992-2.216,2.216-2.216C318.376,242.594,319.368,243.586,319.368,244.81z"/>
		<circle style="opacity:0.63;fill:#64BCF9;" cx="326.755" cy="244.81" r="2.216"/>
		<circle style="opacity:0.63;fill:#64BCF9;" cx="336.359" cy="244.81" r="2.216"/>
		<path style="opacity:0.63;fill:#64BCF9;" d="M348.178,244.81c0,1.224-0.992,2.216-2.216,2.216c-1.224,0-2.216-0.992-2.216-2.216
			c0-1.224,0.992-2.216,2.216-2.216C347.186,242.594,348.178,243.586,348.178,244.81z"/>
		<circle style="opacity:0.63;fill:#64BCF9;" cx="355.566" cy="244.81" r="2.216"/>
		<circle style="opacity:0.63;fill:#64BCF9;" cx="365.17" cy="244.81" r="2.216"/>
		<path style="opacity:0.63;fill:#64BCF9;" d="M376.989,244.81c0,1.224-0.992,2.216-2.216,2.216c-1.224,0-2.216-0.992-2.216-2.216
			c0-1.224,0.992-2.216,2.216-2.216C375.997,242.594,376.989,243.586,376.989,244.81z"/>
		<path style="opacity:0.63;fill:#64BCF9;" d="M386.593,244.81c0,1.224-0.992,2.216-2.216,2.216c-1.224,0-2.216-0.992-2.216-2.216
			c0-1.224,0.992-2.216,2.216-2.216C385.601,242.594,386.593,243.586,386.593,244.81z"/>
		<circle style="opacity:0.63;fill:#64BCF9;" cx="393.98" cy="244.81" r="2.216"/>
		<path style="opacity:0.63;fill:#64BCF9;" d="M405.8,244.81c0,1.224-0.992,2.216-2.216,2.216c-1.224,0-2.216-0.992-2.216-2.216
			c0-1.224,0.992-2.216,2.216-2.216C404.808,242.594,405.8,243.586,405.8,244.81z"/>
		<path style="opacity:0.63;fill:#64BCF9;" d="M415.403,244.81c0,1.224-0.992,2.216-2.216,2.216c-1.224,0-2.216-0.992-2.216-2.216
			c0-1.224,0.992-2.216,2.216-2.216C414.411,242.594,415.403,243.586,415.403,244.81z"/>
		<circle style="opacity:0.63;fill:#64BCF9;" cx="422.791" cy="244.81" r="2.216"/>
		<path style="opacity:0.63;fill:#64BCF9;" d="M434.61,244.81c0,1.224-0.992,2.216-2.216,2.216c-1.224,0-2.216-0.992-2.216-2.216
			c0-1.224,0.992-2.216,2.216-2.216C433.618,242.594,434.61,243.586,434.61,244.81z"/>
		<path style="opacity:0.63;fill:#64BCF9;" d="M444.214,244.81c0,1.224-0.992,2.216-2.216,2.216c-1.224,0-2.216-0.992-2.216-2.216
			c0-1.224,0.992-2.216,2.216-2.216C443.222,242.594,444.214,243.586,444.214,244.81z"/>
		<circle style="opacity:0.63;fill:#64BCF9;" cx="451.602" cy="244.81" r="2.216"/>
	</g>
</g>
<g id="DESIGNED_BY_FREEPIK">
	<g>
		<g>
			<g>
				<path style="fill:#2F91D3;" d="M175.869,477.311c-0.14-0.17-0.34-0.25-0.61-0.25c-0.27,0-0.47,0.09-0.62,0.27
					c-0.14,0.19-0.21,0.46-0.21,0.82v2.599c-0.33-0.359-0.67-0.63-1.02-0.81c-0.35-0.17-0.77-0.26-1.28-0.26
					c-0.87,0-1.58,0.31-2.12,0.92c-0.53,0.62-0.8,1.47-0.8,2.57c0,0.52,0.07,1,0.2,1.449c0.14,0.45,0.33,0.841,0.6,1.17
					c0.26,0.33,0.57,0.58,0.93,0.761c0.35,0.18,0.74,0.269,1.16,0.269c0.32,0,0.62-0.05,0.88-0.14c0.27-0.08,0.52-0.21,0.75-0.38
					c0.23-0.17,0.46-0.391,0.7-0.66v0.17c0,0.32,0.08,0.57,0.23,0.75c0.16,0.17,0.36,0.26,0.6,0.26c0.24,0,0.44-0.09,0.6-0.25
					c0.15-0.17,0.23-0.42,0.23-0.76v-7.75C176.089,477.731,176.019,477.481,175.869,477.311z M174.099,484.481
					c-0.15,0.33-0.35,0.58-0.61,0.74c-0.25,0.16-0.54,0.24-0.84,0.24c-0.31,0-0.59-0.091-0.85-0.261c-0.26-0.17-0.46-0.42-0.61-0.75
					c-0.14-0.34-0.22-0.739-0.22-1.22c0-0.45,0.07-0.85,0.21-1.19c0.14-0.34,0.34-0.6,0.59-0.779c0.25-0.181,0.54-0.28,0.86-0.28
					c0.31,0,0.6,0.09,0.86,0.269c0.26,0.181,0.46,0.44,0.61,0.771c0.16,0.34,0.23,0.74,0.23,1.21
					C174.329,483.731,174.259,484.141,174.099,484.481z"/>
				<path style="fill:#2F91D3;" d="M182.919,484.401c-0.17,0-0.3,0.04-0.39,0.12c-0.22,0.2-0.4,0.37-0.53,0.49
					c-0.14,0.12-0.29,0.23-0.45,0.34c-0.17,0.099-0.33,0.18-0.51,0.229c-0.17,0.051-0.36,0.07-0.57,0.07c-0.32,0-0.6-0.08-0.86-0.23
					c-0.26-0.15-0.47-0.381-0.63-0.69c-0.16-0.3-0.24-0.66-0.24-1.05h3.44c0.46,0,0.81-0.07,1.07-0.2
					c0.25-0.13,0.38-0.42,0.38-0.861c0-0.479-0.13-0.939-0.37-1.399c-0.24-0.46-0.61-0.84-1.11-1.13
					c-0.49-0.29-1.08-0.431-1.76-0.431c-0.53,0-1.01,0.08-1.44,0.25c-0.44,0.17-0.8,0.42-1.1,0.73c-0.29,0.32-0.52,0.7-0.67,1.15
					c-0.16,0.44-0.24,0.921-0.24,1.44c0,1.1,0.32,1.98,0.94,2.62c0.63,0.64,1.51,0.97,2.64,0.97c0.49,0,0.93-0.07,1.31-0.2
					c0.38-0.13,0.69-0.29,0.94-0.479c0.25-0.2,0.44-0.4,0.57-0.61c0.12-0.22,0.18-0.4,0.18-0.56c0-0.181-0.05-0.32-0.16-0.42
					C183.239,484.451,183.099,484.401,182.919,484.401z M179.249,481.331c0.28-0.3,0.64-0.449,1.08-0.449
					c0.46,0,0.83,0.15,1.11,0.449c0.28,0.301,0.44,0.75,0.49,1.351h-3.19C178.799,482.092,178.969,481.641,179.249,481.331z"/>
				<path style="fill:#2F91D3;" d="M189.919,483.661c-0.18-0.25-0.44-0.47-0.79-0.65c-0.34-0.19-0.79-0.35-1.33-0.48
					c-0.46-0.109-0.82-0.21-1.08-0.28c-0.27-0.079-0.47-0.18-0.63-0.3c-0.15-0.109-0.23-0.269-0.23-0.45
					c0-0.199,0.1-0.369,0.31-0.51c0.22-0.13,0.48-0.2,0.8-0.2c0.31,0,0.55,0.051,0.73,0.16c0.18,0.101,0.34,0.24,0.47,0.41
					c0.16,0.2,0.31,0.36,0.43,0.46c0.13,0.101,0.28,0.16,0.46,0.16c0.25,0,0.45-0.07,0.58-0.2c0.14-0.13,0.2-0.29,0.2-0.49
					c0-0.189-0.06-0.38-0.19-0.569c-0.12-0.19-0.31-0.37-0.55-0.53c-0.24-0.16-0.54-0.28-0.91-0.38c-0.36-0.09-0.77-0.14-1.22-0.14
					c-0.58,0-1.08,0.09-1.49,0.279c-0.41,0.19-0.72,0.44-0.93,0.75c-0.21,0.311-0.31,0.651-0.31,1c0,0.391,0.11,0.731,0.34,1
					c0.23,0.271,0.53,0.49,0.91,0.651c0.38,0.16,0.87,0.32,1.48,0.47c0.53,0.13,0.92,0.271,1.15,0.41
					c0.24,0.139,0.35,0.37,0.35,0.67c0,0.21-0.11,0.38-0.33,0.54c-0.23,0.16-0.52,0.24-0.87,0.24c-0.43,0-0.78-0.08-1.03-0.231
					c-0.25-0.16-0.46-0.39-0.65-0.71c-0.08-0.16-0.18-0.29-0.28-0.38c-0.1-0.09-0.24-0.13-0.42-0.13c-0.21,0-0.39,0.07-0.52,0.2
					c-0.14,0.14-0.21,0.31-0.21,0.5c0,0.29,0.11,0.58,0.32,0.87c0.22,0.29,0.55,0.529,1,0.729c0.45,0.19,0.99,0.29,1.62,0.29
					c0.66,0,1.22-0.09,1.68-0.269c0.47-0.181,0.82-0.44,1.05-0.79c0.24-0.34,0.35-0.761,0.35-1.24
					C190.179,484.201,190.099,483.911,189.919,483.661z"/>
				<path style="fill:#2F91D3;" d="M192.599,479.941c-0.17-0.18-0.38-0.27-0.64-0.27c-0.26,0-0.47,0.09-0.63,0.27
					c-0.16,0.17-0.24,0.43-0.24,0.78v5.029c0,0.341,0.08,0.601,0.24,0.79c0.16,0.181,0.37,0.28,0.63,0.28
					c0.26,0,0.47-0.09,0.64-0.269c0.17-0.181,0.25-0.45,0.25-0.801v-5.079C192.849,480.361,192.769,480.111,192.599,479.941z
					 M192.579,477.351c-0.17-0.14-0.37-0.22-0.6-0.22c-0.24,0-0.44,0.08-0.62,0.25c-0.18,0.159-0.27,0.359-0.27,0.609
					c0,0.28,0.09,0.49,0.26,0.641c0.18,0.15,0.39,0.22,0.63,0.22c0.24,0,0.44-0.07,0.61-0.22c0.17-0.16,0.26-0.37,0.26-0.641
					C192.849,477.712,192.759,477.501,192.579,477.351z"/>
				<path style="fill:#2F91D3;" d="M200.379,480.001c-0.11-0.22-0.34-0.329-0.68-0.329c-0.23,0-0.43,0.09-0.58,0.25
					c-0.15,0.17-0.22,0.409-0.22,0.71v0.239c-0.31-0.409-0.65-0.71-1.02-0.899c-0.36-0.19-0.79-0.29-1.29-0.29
					c-0.42,0-0.8,0.08-1.15,0.23c-0.35,0.141-0.65,0.36-0.92,0.66c-0.26,0.29-0.47,0.65-0.61,1.07c-0.15,0.43-0.22,0.9-0.22,1.43
					c0,0.71,0.12,1.33,0.36,1.87c0.23,0.54,0.57,0.96,1.01,1.26c0.44,0.311,0.95,0.46,1.54,0.46c0.49,0,0.91-0.1,1.27-0.3
					c0.35-0.2,0.66-0.49,0.93-0.861c-0.01,0.57-0.02,0.99-0.04,1.25c-0.01,0.261-0.07,0.5-0.17,0.731c-0.1,0.23-0.28,0.4-0.53,0.53
					c-0.25,0.13-0.6,0.189-1.06,0.189c-0.22,0-0.42-0.019-0.59-0.06c-0.17-0.04-0.32-0.1-0.44-0.19c-0.12-0.08-0.24-0.18-0.34-0.3
					c-0.1-0.12-0.2-0.24-0.29-0.35c-0.19-0.231-0.42-0.34-0.68-0.34c-0.2,0-0.38,0.069-0.52,0.199c-0.15,0.141-0.22,0.31-0.22,0.53
					c0,0.28,0.13,0.55,0.38,0.82c0.26,0.27,0.63,0.489,1.1,0.66c0.48,0.17,1.02,0.25,1.63,0.25c0.66,0,1.21-0.06,1.65-0.2
					c0.45-0.13,0.81-0.33,1.08-0.61c0.28-0.27,0.48-0.62,0.6-1.04c0.12-0.42,0.19-0.92,0.19-1.51v-5.1
					C200.549,480.541,200.489,480.221,200.379,480.001z M198.589,484.411c-0.16,0.31-0.37,0.551-0.63,0.7
					c-0.26,0.16-0.54,0.24-0.83,0.24c-0.49,0-0.9-0.18-1.21-0.55c-0.31-0.36-0.46-0.9-0.46-1.61c0-0.71,0.15-1.25,0.45-1.63
					c0.3-0.38,0.7-0.58,1.21-0.58c0.51,0,0.93,0.2,1.24,0.6c0.32,0.4,0.48,0.96,0.48,1.681
					C198.839,483.712,198.749,484.092,198.589,484.411z"/>
				<path style="fill:#2F91D3;" d="M207.899,481.521c-0.03-0.24-0.11-0.48-0.22-0.69c-0.18-0.369-0.45-0.649-0.82-0.859
					c-0.36-0.2-0.78-0.3-1.24-0.3c-0.48,0-0.9,0.1-1.27,0.29c-0.1,0.05-0.19,0.109-0.29,0.18c-0.25,0.18-0.49,0.42-0.72,0.72v-0.22
					c0-0.21-0.04-0.391-0.11-0.53c-0.08-0.15-0.18-0.26-0.3-0.33c-0.13-0.069-0.27-0.109-0.42-0.109c-0.25,0-0.45,0.079-0.6,0.25
					c-0.15,0.159-0.22,0.409-0.22,0.75v5.079c0,0.341,0.08,0.601,0.25,0.79c0.16,0.181,0.37,0.28,0.62,0.28
					c0.26,0,0.48-0.09,0.64-0.269c0.17-0.181,0.25-0.45,0.25-0.801v-2.199c0-0.721,0.04-1.21,0.13-1.471
					c0.12-0.33,0.31-0.58,0.56-0.77c0.26-0.191,0.55-0.28,0.86-0.28c0.48,0,0.8,0.15,0.96,0.46c0.16,0.311,0.24,0.75,0.24,1.33v2.93
					c0,0.341,0.09,0.601,0.25,0.79c0.16,0.181,0.37,0.28,0.64,0.28c0.25,0,0.46-0.09,0.62-0.269c0.17-0.181,0.25-0.45,0.25-0.801
					v-3.269C207.959,482.092,207.939,481.771,207.899,481.521z"/>
				<path style="fill:#2F91D3;" d="M214.769,484.401c-0.17,0-0.29,0.04-0.38,0.12c-0.22,0.2-0.4,0.37-0.54,0.49
					c-0.14,0.12-0.29,0.23-0.45,0.34c-0.16,0.099-0.33,0.18-0.5,0.229c-0.17,0.051-0.35,0.07-0.55,0.07h-0.01c-0.01,0-0.01,0-0.02,0
					c-0.31,0-0.6-0.08-0.86-0.23c-0.26-0.15-0.47-0.381-0.62-0.69c-0.03-0.06-0.06-0.111-0.08-0.17v-0.01
					c-0.11-0.261-0.16-0.561-0.17-0.87h3.44c0.46,0,0.82-0.07,1.07-0.2c0.25-0.13,0.38-0.42,0.38-0.861
					c0-0.479-0.12-0.939-0.37-1.399c-0.24-0.46-0.61-0.84-1.1-1.13c-0.49-0.29-1.08-0.431-1.77-0.431c-0.53,0-1.01,0.08-1.44,0.25
					c-0.43,0.17-0.8,0.42-1.09,0.73c-0.3,0.32-0.53,0.7-0.68,1.15c-0.15,0.44-0.23,0.921-0.23,1.44c0,1.1,0.31,1.98,0.94,2.62
					c0.62,0.64,1.5,0.97,2.63,0.97c0.49,0,0.93-0.07,1.31-0.2c0.01,0,0.03-0.01,0.04-0.01c0.36-0.13,0.66-0.29,0.91-0.47
					c0.25-0.2,0.43-0.4,0.56-0.61c0.12-0.22,0.19-0.4,0.19-0.56c0-0.181-0.06-0.32-0.17-0.42
					C215.099,484.451,214.949,484.401,214.769,484.401z M211.109,481.331c0.28-0.3,0.64-0.449,1.07-0.449
					c0.46,0,0.83,0.15,1.11,0.449c0.29,0.301,0.45,0.75,0.49,1.351h-3.19C210.649,482.092,210.819,481.641,211.109,481.331z"/>
				<path style="fill:#2F91D3;" d="M222.639,477.311c-0.14-0.17-0.35-0.25-0.61-0.25c-0.271,0-0.48,0.09-0.62,0.27
					c-0.14,0.19-0.22,0.46-0.22,0.82v2.599c-0.33-0.359-0.66-0.63-1.01-0.81c-0.35-0.17-0.78-0.26-1.28-0.26
					c-0.88,0-1.58,0.31-2.12,0.92c-0.54,0.62-0.81,1.47-0.81,2.57c0,0.52,0.07,1,0.21,1.449c0.13,0.45,0.33,0.841,0.59,1.17
					c0.26,0.33,0.57,0.58,0.93,0.761c0.36,0.18,0.75,0.269,1.17,0.269c0.32,0,0.61-0.05,0.88-0.14c0.27-0.08,0.52-0.21,0.75-0.38
					c0.23-0.17,0.46-0.391,0.69-0.66v0.17c0,0.32,0.08,0.57,0.24,0.75c0.16,0.17,0.35,0.26,0.6,0.26c0.24,0,0.44-0.09,0.59-0.25
					c0.16-0.17,0.24-0.42,0.24-0.76v-7.75C222.859,477.731,222.779,477.481,222.639,477.311z M220.869,484.481
					c-0.15,0.33-0.36,0.58-0.61,0.74c-0.26,0.16-0.54,0.24-0.85,0.24c-0.3,0-0.58-0.091-0.84-0.261c-0.26-0.17-0.46-0.42-0.61-0.75
					c-0.15-0.34-0.22-0.739-0.22-1.22c0-0.45,0.07-0.85,0.21-1.19c0.14-0.34,0.33-0.6,0.59-0.779c0.25-0.181,0.54-0.28,0.86-0.28
					c0.31,0,0.59,0.09,0.85,0.269c0.26,0.181,0.47,0.44,0.62,0.771c0.15,0.34,0.23,0.74,0.23,1.21
					C221.099,483.731,221.019,484.141,220.869,484.481z"/>
				<path style="fill:#2F91D3;" d="M233.219,481.302c-0.24-0.521-0.58-0.92-1.02-1.2c-0.44-0.28-0.95-0.42-1.54-0.42
					c-0.5,0-0.93,0.1-1.27,0.28c-0.35,0.18-0.68,0.44-1.01,0.789v-2.689c0-0.32-0.08-0.57-0.22-0.74c-0.15-0.18-0.36-0.26-0.63-0.26
					c-0.25,0-0.45,0.09-0.6,0.27c-0.14,0.181-0.21,0.45-0.21,0.811v7.67c0,0.33,0.07,0.58,0.22,0.75c0.15,0.17,0.34,0.26,0.59,0.26
					s0.45-0.09,0.61-0.26c0.16-0.17,0.24-0.42,0.24-0.75v-0.17c0.19,0.22,0.35,0.39,0.46,0.5c0.12,0.109,0.26,0.22,0.43,0.33
					c0.17,0.1,0.37,0.19,0.61,0.25c0.24,0.06,0.49,0.1,0.76,0.1c0.44,0,0.85-0.09,1.22-0.269c0.36-0.181,0.68-0.431,0.93-0.761
					c0.26-0.319,0.46-0.71,0.59-1.15c0.14-0.45,0.2-0.93,0.2-1.47C233.579,482.451,233.459,481.831,233.219,481.302z
					 M231.339,484.882c-0.32,0.39-0.7,0.58-1.14,0.58c-0.52,0-0.94-0.19-1.26-0.57c-0.32-0.37-0.48-0.91-0.48-1.61
					c0-0.47,0.08-0.89,0.23-1.229c0.15-0.351,0.35-0.61,0.61-0.79c0.27-0.181,0.56-0.28,0.9-0.28c0.32,0,0.61,0.1,0.85,0.28
					c0.25,0.18,0.44,0.439,0.57,0.77c0.13,0.34,0.2,0.74,0.2,1.2C231.819,483.951,231.659,484.501,231.339,484.882z"/>
				<path style="fill:#2F91D3;" d="M240.009,480.061c-0.07-0.12-0.16-0.21-0.28-0.28c-0.12-0.069-0.25-0.109-0.38-0.109
					c-0.19,0-0.33,0.029-0.43,0.1c-0.1,0.06-0.2,0.19-0.29,0.37c-0.09,0.189-0.19,0.439-0.3,0.77l-1.41,4.02l-1.49-4.33
					c-0.1-0.3-0.21-0.53-0.34-0.69c-0.13-0.16-0.32-0.239-0.57-0.239c-0.15,0-0.29,0.04-0.42,0.119
					c-0.14,0.07-0.25,0.181-0.32,0.311c-0.08,0.12-0.12,0.26-0.12,0.41c0,0.15,0.07,0.37,0.2,0.689l2.16,5.44l-0.16,0.4
					c-0.12,0.28-0.22,0.5-0.32,0.65c-0.09,0.15-0.19,0.25-0.31,0.31c-0.11,0.061-0.27,0.091-0.47,0.091
					c-0.09,0-0.18-0.011-0.29-0.04c-0.09-0.021-0.19-0.04-0.28-0.04c-0.24,0-0.42,0.06-0.54,0.17c-0.13,0.109-0.19,0.26-0.19,0.46
					c0,0.3,0.13,0.5,0.39,0.62c0.26,0.109,0.64,0.16,1.16,0.16c0.521,0,0.94-0.08,1.25-0.24c0.32-0.16,0.57-0.391,0.75-0.69
					c0.19-0.3,0.39-0.71,0.58-1.24l2.3-6c0.05-0.159,0.1-0.31,0.14-0.46c0.039-0.15,0.06-0.27,0.08-0.35
					C240.109,480.311,240.079,480.181,240.009,480.061z"/>
			</g>
			<g>
				<path style="fill:#2F91D3;" d="M261.319,479.824h0.419v-0.527c0-0.552,0.067-0.987,0.207-1.313
					c0.139-0.324,0.377-0.56,0.71-0.708c0.332-0.148,0.788-0.222,1.367-0.222c1.029,0,1.54,0.249,1.54,0.755
					c0,0.162-0.054,0.302-0.163,0.417c-0.104,0.115-0.232,0.174-0.378,0.174c-0.067,0-0.188-0.013-0.357-0.04
					c-0.161-0.022-0.307-0.038-0.422-0.038c-0.317,0-0.52,0.096-0.614,0.281c-0.086,0.186-0.132,0.453-0.132,0.803v0.418h0.429
					c0.672,0,1.004,0.201,1.004,0.607c0,0.284-0.086,0.468-0.267,0.545c-0.177,0.078-0.423,0.116-0.737,0.116h-0.429v4.656
					c0,0.347-0.082,0.61-0.25,0.792c-0.164,0.185-0.376,0.275-0.639,0.275c-0.249,0-0.455-0.091-0.622-0.275
					c-0.166-0.182-0.247-0.445-0.247-0.792v-4.656h-0.484c-0.263,0-0.462-0.057-0.605-0.178c-0.142-0.115-0.213-0.271-0.213-0.459
					C260.435,480.033,260.73,479.824,261.319,479.824L261.319,479.824z"/>
				<path style="fill:#2F91D3;" d="M267.072,484.28v1.469c0,0.355-0.09,0.623-0.253,0.8c-0.168,0.18-0.379,0.267-0.636,0.267
					c-0.259,0-0.466-0.089-0.628-0.271c-0.16-0.179-0.244-0.444-0.244-0.796v-4.895c0-0.79,0.284-1.186,0.854-1.186
					c0.294,0,0.503,0.092,0.633,0.276c0.128,0.186,0.199,0.457,0.215,0.819c0.208-0.362,0.423-0.634,0.643-0.819
					c0.225-0.185,0.517-0.276,0.888-0.276c0.372,0,0.727,0.092,1.074,0.276c0.349,0.186,0.522,0.432,0.522,0.735
					c0,0.214-0.075,0.394-0.221,0.53c-0.149,0.142-0.308,0.211-0.478,0.211c-0.067,0-0.225-0.043-0.47-0.122
					c-0.247-0.077-0.467-0.117-0.652-0.117c-0.258,0-0.47,0.069-0.632,0.202c-0.164,0.139-0.291,0.337-0.382,0.601
					c-0.088,0.267-0.148,0.587-0.185,0.952C267.088,483.304,267.072,483.753,267.072,484.28L267.072,484.28z"/>
				<path style="fill:#2F91D3;" d="M275.889,484.401c-0.16,0-0.29,0.04-0.38,0.12c-0.22,0.2-0.399,0.37-0.54,0.479
					c-0.14,0.131-0.279,0.24-0.449,0.341c-0.16,0.109-0.33,0.189-0.5,0.229c-0.181,0.061-0.37,0.08-0.58,0.08
					c-0.311,0-0.601-0.08-0.86-0.23c-0.26-0.16-0.47-0.391-0.63-0.69c-0.15-0.3-0.23-0.66-0.24-1.06h3.44
					c0.46,0,0.819-0.06,1.069-0.19c0.25-0.14,0.38-0.42,0.38-0.861c0-0.479-0.12-0.939-0.37-1.409c-0.239-0.461-0.609-0.83-1.1-1.12
					c-0.49-0.29-1.08-0.431-1.77-0.431c-0.53,0-1.011,0.08-1.441,0.25c-0.43,0.17-0.8,0.41-1.09,0.73c-0.3,0.32-0.53,0.7-0.68,1.14
					c-0.16,0.45-0.23,0.931-0.23,1.45c0,1.1,0.31,1.98,0.941,2.62c0.619,0.64,1.5,0.96,2.63,0.96c0.489,0,0.93-0.061,1.31-0.191
					c0.38-0.13,0.7-0.29,0.95-0.479c0.25-0.2,0.44-0.4,0.57-0.62c0.12-0.21,0.18-0.39,0.18-0.55c0-0.181-0.06-0.32-0.17-0.42
					C276.219,484.451,276.069,484.401,275.889,484.401z M272.228,481.331c0.28-0.3,0.641-0.449,1.07-0.449
					c0.471,0,0.83,0.15,1.12,0.449c0.28,0.29,0.441,0.74,0.48,1.341h-3.19C271.77,482.081,271.939,481.641,272.228,481.331z"/>
				<path style="fill:#2F91D3;" d="M283.199,484.401c-0.16,0-0.29,0.04-0.38,0.12c-0.221,0.2-0.4,0.37-0.54,0.479
					c-0.141,0.131-0.28,0.24-0.45,0.341c-0.16,0.109-0.33,0.189-0.51,0.229c-0.17,0.061-0.36,0.08-0.57,0.08
					c-0.31,0-0.6-0.08-0.86-0.23c-0.26-0.16-0.47-0.391-0.619-0.69c-0.16-0.3-0.24-0.66-0.25-1.06h3.44c0.46,0,0.82-0.06,1.07-0.19
					c0.25-0.14,0.38-0.42,0.38-0.861c0-0.479-0.12-0.939-0.37-1.409c-0.24-0.461-0.61-0.83-1.1-1.12
					c-0.5-0.29-1.08-0.431-1.771-0.431c-0.53,0-1.01,0.08-1.44,0.25c-0.439,0.17-0.8,0.41-1.09,0.73c-0.3,0.32-0.529,0.7-0.68,1.14
					c-0.16,0.45-0.24,0.931-0.24,1.45c0,1.1,0.32,1.98,0.95,2.62c0.62,0.64,1.5,0.96,2.63,0.96c0.49,0,0.93-0.061,1.311-0.191
					c0.38-0.13,0.699-0.29,0.949-0.479c0.25-0.2,0.44-0.4,0.56-0.62c0.13-0.21,0.18-0.39,0.18-0.55c0-0.181-0.05-0.32-0.16-0.42
					C283.529,484.451,283.379,484.401,283.199,484.401z M279.529,481.331c0.29-0.3,0.649-0.449,1.08-0.449
					c0.46,0,0.83,0.15,1.119,0.449c0.28,0.29,0.44,0.74,0.481,1.341h-3.19C279.079,482.081,279.249,481.641,279.529,481.331z"/>
				<path style="fill:#2F91D3;" d="M291.509,483.021c-0.02-0.651-0.149-1.21-0.38-1.7c-0.27-0.53-0.63-0.939-1.08-1.22
					c-0.46-0.28-0.96-0.42-1.5-0.42c-0.45,0-0.85,0.1-1.2,0.29c-0.359,0.19-0.71,0.49-1.04,0.899v-0.21
					c0-0.33-0.069-0.569-0.229-0.739c-0.16-0.171-0.36-0.25-0.61-0.25s-0.449,0.079-0.6,0.239c-0.15,0.17-0.22,0.42-0.22,0.761
					v7.579c0,0.391,0.06,0.671,0.159,0.881c0.11,0.189,0.33,0.29,0.66,0.29c0.561,0,0.84-0.391,0.84-1.16v-2.63
					c0.181,0.22,0.36,0.409,0.551,0.569c0.14,0.12,0.279,0.221,0.43,0.311c0.34,0.2,0.76,0.3,1.26,0.3c0.42,0,0.811-0.08,1.17-0.24
					c0.37-0.17,0.681-0.41,0.95-0.71c0.26-0.31,0.47-0.69,0.63-1.14c0.15-0.45,0.221-0.95,0.221-1.49
					C291.52,483.161,291.52,483.092,291.509,483.021z M289.529,484.441c-0.15,0.34-0.34,0.59-0.601,0.76
					c-0.239,0.17-0.52,0.261-0.81,0.261c-0.06,0-0.12,0-0.17-0.021c-0.42-0.03-0.771-0.229-1.06-0.57
					c-0.33-0.38-0.489-0.93-0.489-1.63c0-0.74,0.159-1.3,0.5-1.689c0.329-0.38,0.739-0.57,1.22-0.57c0.31,0,0.59,0.09,0.84,0.269
					c0.25,0.181,0.44,0.431,0.58,0.771c0.15,0.33,0.22,0.729,0.22,1.19c0,0.43-0.06,0.8-0.189,1.109
					C289.559,484.361,289.549,484.401,289.529,484.441z"/>
				<path style="fill:#2F91D3;" d="M293.909,479.931c-0.17-0.181-0.38-0.26-0.64-0.26c-0.25,0-0.461,0.079-0.62,0.26
					c-0.16,0.18-0.25,0.439-0.25,0.79v5.029c0,0.341,0.09,0.601,0.25,0.79c0.159,0.181,0.37,0.27,0.62,0.27
					c0.26,0,0.47-0.08,0.64-0.27c0.17-0.18,0.25-0.439,0.25-0.79v-5.079C294.159,480.351,294.079,480.111,293.909,479.931z
					 M293.899,477.351c-0.181-0.151-0.38-0.22-0.61-0.22c-0.23,0-0.44,0.08-0.62,0.239c-0.18,0.16-0.27,0.37-0.27,0.62
					c0,0.27,0.09,0.48,0.27,0.63c0.17,0.151,0.38,0.231,0.62,0.231c0.24,0,0.439-0.08,0.62-0.231c0.17-0.149,0.25-0.359,0.25-0.63
					C294.159,477.712,294.069,477.491,293.899,477.351z"/>
				<path style="fill:#2F91D3;" d="M299.827,486.013l-1.548-2.552l-0.954,0.901v1.399c0,0.339-0.09,0.598-0.269,0.779
					c-0.175,0.185-0.384,0.275-0.614,0.275c-0.27,0-0.484-0.089-0.638-0.271c-0.153-0.179-0.232-0.444-0.232-0.796v-7.498
					c0-0.388,0.077-0.685,0.224-0.889c0.151-0.207,0.369-0.307,0.646-0.307c0.271,0,0.483,0.093,0.644,0.279
					c0.158,0.183,0.239,0.456,0.239,0.814v4.265l1.977-2.075c0.245-0.255,0.429-0.435,0.561-0.527
					c0.128-0.095,0.283-0.142,0.467-0.142c0.221,0,0.402,0.07,0.553,0.209c0.143,0.14,0.217,0.316,0.217,0.524
					c0,0.257-0.239,0.603-0.715,1.031l-0.933,0.856l1.802,2.835c0.131,0.213,0.229,0.368,0.287,0.479
					c0.058,0.107,0.088,0.217,0.088,0.313c0,0.28-0.077,0.498-0.23,0.661c-0.152,0.161-0.354,0.24-0.601,0.24
					c-0.214,0-0.382-0.055-0.497-0.174C300.185,486.525,300.024,486.315,299.827,486.013L299.827,486.013z"/>
				<path style="fill:#2F91D3;" d="M303.646,486.816c-0.265,0-0.492-0.086-0.686-0.258c-0.192-0.169-0.291-0.411-0.291-0.722
					c0-0.262,0.094-0.487,0.278-0.675c0.186-0.189,0.412-0.283,0.684-0.283c0.268,0,0.498,0.094,0.692,0.279
					c0.19,0.187,0.286,0.414,0.286,0.679c0,0.307-0.097,0.547-0.286,0.718C304.129,486.73,303.903,486.816,303.646,486.816
					L303.646,486.816z"/>
				<path style="fill:#2F91D3;" d="M312.389,484.64c0,0.218-0.066,0.453-0.197,0.701c-0.13,0.251-0.331,0.486-0.601,0.712
					c-0.268,0.225-0.604,0.408-1.013,0.544c-0.407,0.137-0.868,0.208-1.376,0.208c-1.089,0-1.938-0.318-2.547-0.949
					c-0.607-0.635-0.912-1.484-0.912-2.549c0-0.723,0.138-1.359,0.419-1.914c0.276-0.552,0.681-0.98,1.208-1.283
					c0.527-0.304,1.162-0.454,1.894-0.454c0.456,0,0.873,0.066,1.255,0.2c0.38,0.132,0.7,0.306,0.966,0.514
					c0.262,0.213,0.465,0.436,0.603,0.672c0.14,0.238,0.208,0.462,0.208,0.669c0,0.209-0.077,0.388-0.232,0.534
					c-0.159,0.146-0.35,0.22-0.568,0.22c-0.148,0-0.27-0.039-0.367-0.113c-0.097-0.076-0.206-0.196-0.324-0.367
					c-0.215-0.324-0.438-0.57-0.675-0.732c-0.232-0.164-0.528-0.245-0.89-0.245c-0.517,0-0.939,0.202-1.257,0.608
					c-0.316,0.403-0.477,0.962-0.477,1.663c0,0.331,0.043,0.637,0.124,0.913c0.079,0.276,0.197,0.513,0.353,0.708
					c0.156,0.194,0.342,0.342,0.561,0.443c0.22,0.103,0.461,0.152,0.721,0.152c0.353,0,0.655-0.081,0.905-0.244
					c0.255-0.163,0.477-0.411,0.669-0.747c0.107-0.197,0.222-0.351,0.345-0.463c0.124-0.111,0.277-0.169,0.458-0.169
					c0.215,0,0.393,0.083,0.533,0.245C312.316,484.282,312.389,484.458,312.389,484.64L312.389,484.64z"/>
				<path style="fill:#2F91D3;" d="M319.728,481.791c-0.159-0.43-0.39-0.81-0.699-1.13c-0.311-0.319-0.681-0.56-1.11-0.73
					c-0.44-0.181-0.92-0.26-1.45-0.26c-0.529,0-1.01,0.079-1.439,0.25c-0.431,0.17-0.801,0.409-1.11,0.73
					c-0.3,0.31-0.54,0.69-0.7,1.13c-0.16,0.44-0.24,0.931-0.24,1.46c0,0.53,0.08,1.01,0.231,1.45c0.17,0.43,0.4,0.81,0.72,1.13
					c0.3,0.32,0.681,0.57,1.101,0.74c0.42,0.17,0.899,0.26,1.439,0.26c0.53,0,1.01-0.09,1.45-0.26c0.42-0.17,0.79-0.41,1.101-0.73
					c0.31-0.319,0.55-0.699,0.709-1.14c0.16-0.44,0.24-0.93,0.24-1.45C319.969,482.712,319.889,482.231,319.728,481.791z
					 M317.739,484.901c-0.32,0.41-0.74,0.61-1.271,0.61c-0.359,0-0.66-0.09-0.92-0.27c-0.26-0.189-0.46-0.45-0.6-0.8
					c-0.141-0.34-0.21-0.74-0.21-1.2c0-0.46,0.069-0.87,0.21-1.22c0.14-0.34,0.34-0.61,0.609-0.79c0.261-0.17,0.56-0.26,0.91-0.26
					c0.53,0,0.95,0.2,1.271,0.6c0.31,0.4,0.47,0.96,0.47,1.67C318.209,483.951,318.049,484.501,317.739,484.901z"/>
				<path style="fill:#2F91D3;" d="M326.677,483.373v2.336c0,0.371-0.082,0.645-0.251,0.832c-0.169,0.185-0.387,0.276-0.662,0.276
					c-0.267,0-0.484-0.092-0.645-0.276c-0.168-0.188-0.252-0.461-0.252-0.832v-2.8c0-0.442-0.015-0.787-0.043-1.033
					c-0.031-0.239-0.114-0.443-0.246-0.598c-0.133-0.16-0.345-0.238-0.631-0.238c-0.576,0-0.953,0.196-1.136,0.597
					c-0.182,0.391-0.275,0.958-0.275,1.699v2.373c0,0.364-0.083,0.642-0.245,0.829c-0.169,0.186-0.385,0.279-0.654,0.279
					c-0.268,0-0.485-0.094-0.655-0.279c-0.17-0.188-0.255-0.465-0.255-0.829v-5.028c0-0.331,0.076-0.583,0.228-0.753
					c0.155-0.174,0.356-0.259,0.602-0.259c0.242,0,0.441,0.084,0.605,0.241c0.16,0.161,0.24,0.384,0.24,0.667v0.166
					c0.308-0.362,0.634-0.631,0.978-0.8c0.351-0.177,0.733-0.262,1.161-0.262c0.441,0,0.82,0.089,1.137,0.264
					c0.318,0.177,0.579,0.444,0.787,0.798c0.298-0.358,0.616-0.625,0.955-0.8c0.339-0.175,0.714-0.262,1.127-0.262
					c0.478,0,0.895,0.097,1.242,0.284c0.346,0.189,0.605,0.46,0.778,0.81c0.149,0.32,0.224,0.82,0.224,1.503v3.431
					c0,0.371-0.083,0.645-0.249,0.832c-0.167,0.185-0.39,0.276-0.664,0.276c-0.268,0-0.483-0.094-0.653-0.279
					c-0.17-0.188-0.255-0.465-0.255-0.829v-2.956c0-0.378-0.017-0.68-0.047-0.906c-0.032-0.229-0.12-0.421-0.26-0.574
					c-0.144-0.154-0.359-0.232-0.646-0.232c-0.232,0-0.452,0.072-0.66,0.208c-0.208,0.135-0.371,0.323-0.488,0.551
					C326.743,482.095,326.677,482.621,326.677,483.373L326.677,483.373z"/>
			</g>
			<g>
				<path style="fill:#2F91D3;" d="M244.872,482.818c-0.002-0.003-0.002-0.006-0.002-0.012
					C244.871,482.812,244.871,482.815,244.872,482.818z"/>
				<path style="fill:#2F91D3;" d="M244.961,483.381c0.001,0,0.001,0,0.002,0c-0.034-0.16-0.06-0.319-0.081-0.476
					C244.903,483.063,244.929,483.223,244.961,483.381z"/>
				<path style="fill:#2F91D3;" d="M245.542,485.012c-0.004-0.007-0.007-0.015-0.012-0.022
					C245.535,484.997,245.539,485.005,245.542,485.012z"/>
				<path style="fill:#2F91D3;" d="M245.487,484.903c-0.015-0.03-0.03-0.061-0.044-0.091
					C245.457,484.844,245.472,484.873,245.487,484.903z"/>
				<path style="fill:#2F91D3;" d="M245.124,484.009c0.086,0.272,0.19,0.534,0.31,0.785c-0.122-0.256-0.224-0.52-0.308-0.785
					C245.126,484.009,245.125,484.009,245.124,484.009z"/>
				<path style="fill:#2F91D3;" d="M251.675,476.085c0.34,0,0.59,0.027,0.878,0.075l0.081-0.517c0,0-0.794-0.244-1.837-0.159
					l-0.082-0.281c0.324-0.068,0.567-0.356,0.567-0.701c0-0.394-0.321-0.714-0.716-0.714c-0.395,0-0.716,0.319-0.716,0.714
					c0,0.345,0.243,0.633,0.567,0.701l0.09,0.313c-1.107,0.152-1.989,0.585-1.989,0.585l0.156,0.477
					c0.67-0.224,1.252-0.358,1.778-0.416C250.97,476.108,251.358,476.085,251.675,476.085z"/>
				<path style="fill:#2F91D3;" d="M245.529,478.699l0.004-0.005c0.026-0.034,0.051-0.065,0.077-0.097l-0.212-0.153l-0.33-0.241
					c-0.019,0.025-0.539,0.504-0.95,1.388c-0.018-0.027-0.038-0.055-0.061-0.081c-0.123-0.134-0.295-0.202-0.514-0.198
					c-0.003,0-0.006,0-0.01,0c-0.135,0-0.228-0.046-0.289-0.101c0.061-0.076,0.097-0.173,0.097-0.28
					c0-0.249-0.203-0.453-0.454-0.453c-0.249,0-0.453,0.204-0.453,0.453c0,0.251,0.204,0.454,0.453,0.454
					c0.04,0,0.077-0.007,0.113-0.014c0.111,0.123,0.288,0.232,0.547,0.226c0.133-0.001,0.231,0.033,0.296,0.105
					c0.075,0.082,0.1,0.2,0.108,0.29c-0.001,0.001-0.001,0.003-0.002,0.003c-0.295,0.807-0.211,1.809-0.211,1.809l0.716,0.028
					c0.015-0.365,0.067-1.004,0.252-1.512C245.064,479.34,245.511,478.725,245.529,478.699z"/>
				<path style="fill:#2F91D3;" d="M257.909,476.683c-0.249,0-0.453,0.202-0.453,0.453c0,0.039,0.006,0.076,0.016,0.112
					c-0.124,0.112-0.232,0.29-0.228,0.549c0.002,0.134-0.032,0.23-0.104,0.296c-0.058,0.051-0.13,0.078-0.2,0.096
					c-0.533-0.747-1.191-1.203-1.191-1.203l-0.514,0.551c0.389,0.353,0.785,0.797,1.171,1.349c0.267,0.382,0.542,0.875,0.77,1.366
					l0.693-0.33c0,0-0.316-0.783-0.763-1.485c0.077-0.027,0.155-0.069,0.225-0.13c0.136-0.123,0.202-0.296,0.198-0.514
					c-0.001-0.142,0.045-0.236,0.101-0.3c0.077,0.06,0.174,0.098,0.279,0.098c0.252,0,0.454-0.204,0.454-0.454
					C258.363,476.885,258.161,476.683,257.909,476.683z"/>
				<path style="fill:#2F91D3;" d="M256.108,482.92c-0.955,0.466-2.527,1.08-4.596,1.369c-0.812,0.112-1.599,0.154-2.324,0.154
					c-0.942,0-1.775-0.07-2.414-0.151c-0.729-0.092-1.3-0.204-1.648-0.283c0.084,0.266,0.186,0.529,0.308,0.785
					c0.002,0.007,0.005,0.014,0.008,0.019c0.015,0.029,0.029,0.06,0.044,0.091c0.015,0.029,0.029,0.059,0.044,0.086
					c0.004,0.008,0.008,0.016,0.012,0.022c0.205,0.387,0.452,0.742,0.732,1.05c0.976,1.067,1.97,1.236,1.98,1.237l0.016,0.002
					l0.015,0.005c0.009,0.004,0.89,0.288,2.23,0.288c1.319,0,2.613-0.266,3.845-0.791c0.913-0.467,1.777-1.177,2.205-1.81
					c0.331-0.489,0.57-1.012,0.712-1.555c0.075-0.288,0.135-0.75,0.1-1.236C257.108,482.383,256.684,482.639,256.108,482.92z"/>
				<path style="fill:#2F91D3;" d="M256.089,479.101c-1.35-1.94-2.819-2.44-3.569-2.561c-0.29-0.05-0.521-0.069-0.841-0.069
					c-0.31,0-0.68,0.02-1.189,0.069c-0.5,0.051-1.06,0.19-1.71,0.41c-0.92,0.3-1.74,0.78-2.39,1.38l-0.02,0.021
					c-0.1,0.09-0.3,0.28-0.53,0.57c-0.03,0.04-0.45,0.63-0.77,1.529c-0.25,0.681-0.24,1.66-0.24,1.67c0,0.231,0.02,0.46,0.04,0.691
					c0,0,0,0,0,0.01c0.01,0.03,0.01,0.05,0.01,0.08c0.02,0.16,0.05,0.32,0.08,0.48c0.48,0.119,3.31,0.779,6.47,0.34
					c1.99-0.28,3.49-0.86,4.41-1.31c0.76-0.359,1.25-0.699,1.44-0.84C257.089,480.882,256.569,479.781,256.089,479.101z
					 M248.569,482.241c-1.06,0-1.91-0.85-1.91-1.91c0-1.05,0.85-1.899,1.91-1.899c1.05,0,1.91,0.85,1.91,1.899
					C250.479,481.391,249.619,482.241,248.569,482.241z M254.149,480.842c-0.65,0-1.181-0.53-1.181-1.19
					c0-0.651,0.53-1.18,1.181-1.18c0.649,0,1.18,0.529,1.18,1.18C255.329,480.311,254.799,480.842,254.149,480.842z"/>
			</g>
		</g>
	</g>
</g>
</svg>
