<?xml version="1.0" encoding="utf-8"?>
<!-- Generator: Adobe Illustrator 27.5.0, SVG Export Plug-In . SVG Version: 6.00 Build 0)  -->
<svg version="1.1" id="Layer_1" xmlns="http://www.w3.org/2000/svg" xmlns:xlink="http://www.w3.org/1999/xlink" x="0px" y="0px"
	 viewBox="0 0 432 288" style="enable-background:new 0 0 432 288;" xml:space="preserve">
<g>
	<rect x="0" style="fill:#E6E6E6;" width="432" height="288"/>
	<g>
		<g>
			<radialGradient id="SVGID_1_" cx="55.8078" cy="62.1183" r="32.1983" gradientUnits="userSpaceOnUse">
				<stop  offset="0.5314" style="stop-color:#007AFF"/>
				<stop  offset="0.5864" style="stop-color:#3897FF"/>
				<stop  offset="0.6453" style="stop-color:#6CB2FF"/>
				<stop  offset="0.7052" style="stop-color:#99CAFF"/>
				<stop  offset="0.7649" style="stop-color:#BEDDFF"/>
				<stop  offset="0.8243" style="stop-color:#DAECFF"/>
				<stop  offset="0.8834" style="stop-color:#EFF7FF"/>
				<stop  offset="0.9421" style="stop-color:#FBFDFF"/>
				<stop  offset="1" style="stop-color:#FFFFFF"/>
			</radialGradient>
			<circle style="fill:url(#SVGID_1_);" cx="55.808" cy="62.118" r="32.198"/>
			
				<ellipse transform="matrix(0.7071 -0.7071 0.7071 0.7071 -24.5119 59.2255)" style="fill:#FFFFFF;" cx="59.236" cy="59.201" rx="23.763" ry="23.763"/>
			<g>
				
					<linearGradient id="SVGID_00000078732520129535668060000010849575298882970280_" gradientUnits="userSpaceOnUse" x1="33.6513" y1="82.2787" x2="73.489" y2="31.5452">
					<stop  offset="0" style="stop-color:#CD0000"/>
					<stop  offset="1" style="stop-color:#FF2A33"/>
				</linearGradient>
				<path style="fill:url(#SVGID_00000078732520129535668060000010849575298882970280_);" d="M28.411,52.279
					c1.204,0.324,2.443-0.389,2.767-1.593c0.257-0.955-0.145-1.924-0.92-2.449c4.513-11.896,16.114-20.029,28.977-20.029
					S83.7,36.341,88.213,48.236c-0.775,0.525-1.177,1.494-0.92,2.449c0.324,1.204,1.563,1.918,2.767,1.593
					c1.204-0.324,1.918-1.563,1.593-2.767c-0.283-1.05-1.262-1.726-2.306-1.667c-4.68-12.374-16.739-20.838-30.112-20.838
					S33.803,35.47,29.124,47.844c-1.045-0.059-2.024,0.617-2.306,1.667C26.493,50.716,27.207,51.955,28.411,52.279z"/>
				
					<linearGradient id="SVGID_00000023967335434006190200000007217750700493067702_" gradientUnits="userSpaceOnUse" x1="42.9835" y1="89.6067" x2="82.8211" y2="38.8732">
					<stop  offset="0" style="stop-color:#CD0000"/>
					<stop  offset="1" style="stop-color:#FF2A33"/>
				</linearGradient>
				<path style="fill:url(#SVGID_00000023967335434006190200000007217750700493067702_);" d="M90.007,66.353
					c-1.202-0.333-2.446,0.372-2.779,1.573c-0.264,0.954,0.132,1.927,0.904,2.457c-4.589,11.936-15.928,19.812-28.897,19.812
					c-12.969,0-24.308-7.876-28.897-19.812c0.773-0.53,1.168-1.503,0.904-2.457c-0.333-1.202-1.577-1.906-2.779-1.573
					c-1.202,0.333-1.906,1.577-1.573,2.779c0.29,1.047,1.273,1.716,2.316,1.65c4.759,12.418,16.546,20.614,30.03,20.614
					c13.484,0,25.271-8.196,30.029-20.614c1.043,0.066,2.026-0.603,2.316-1.65C91.914,67.93,91.209,66.686,90.007,66.353z"/>
			</g>
			<g>
				<path style="fill:#FC2730;" d="M54.873,67.17c-2.039,0-3.564-0.692-4.577-2.078c-1.012-1.384-1.518-3.233-1.518-5.546
					c0-2.313,0.506-4.162,1.518-5.546c1.013-1.385,2.538-2.077,4.577-2.077c2.038,0,3.564,0.692,4.576,2.077
					c1.012,1.385,1.519,3.234,1.519,5.546c0,2.313-0.506,4.162-1.519,5.546C58.437,66.478,56.911,67.17,54.873,67.17z
					 M52.701,55.992c-0.464,0.9-0.696,2.088-0.696,3.564c0,1.476,0.232,2.665,0.696,3.564c0.464,0.9,1.188,1.35,2.172,1.35
					c0.984,0,1.708-0.45,2.172-1.35c0.464-0.899,0.696-2.088,0.696-3.564c0-1.477-0.232-2.664-0.696-3.564
					c-0.464-0.899-1.188-1.35-2.172-1.35C53.889,54.643,53.164,55.093,52.701,55.992z"/>
				<path style="fill:#FC2730;" d="M61.958,52.26h5.968v14.741h-3.164V55.065h-2.805V52.26z"/>
			</g>
		</g>
		<g>
			
				<radialGradient id="SVGID_00000078045369679409868240000001035707015837753761_" cx="161.3606" cy="62.1183" r="32.1983" gradientUnits="userSpaceOnUse">
				<stop  offset="0.5314" style="stop-color:#007AFF"/>
				<stop  offset="0.5864" style="stop-color:#3897FF"/>
				<stop  offset="0.6453" style="stop-color:#6CB2FF"/>
				<stop  offset="0.7052" style="stop-color:#99CAFF"/>
				<stop  offset="0.7649" style="stop-color:#BEDDFF"/>
				<stop  offset="0.8243" style="stop-color:#DAECFF"/>
				<stop  offset="0.8834" style="stop-color:#EFF7FF"/>
				<stop  offset="0.9421" style="stop-color:#FBFDFF"/>
				<stop  offset="1" style="stop-color:#FFFFFF"/>
			</radialGradient>
			<circle style="fill:url(#SVGID_00000078045369679409868240000001035707015837753761_);" cx="161.361" cy="62.118" r="32.198"/>
			
				<ellipse transform="matrix(0.2298 -0.9732 0.9732 0.2298 69.3101 205.9797)" style="fill:#FFFFFF;" cx="164.788" cy="59.201" rx="23.763" ry="23.763"/>
			<g>
				
					<linearGradient id="SVGID_00000012461604037524971060000007705930184985320359_" gradientUnits="userSpaceOnUse" x1="139.2042" y1="82.2787" x2="179.0418" y2="31.5452">
					<stop  offset="0" style="stop-color:#003575"/>
					<stop  offset="1" style="stop-color:#007DD4"/>
				</linearGradient>
				<path style="fill:url(#SVGID_00000012461604037524971060000007705930184985320359_);" d="M133.964,52.279
					c1.204,0.324,2.443-0.389,2.768-1.593c0.257-0.955-0.145-1.924-0.92-2.449c4.513-11.896,16.114-20.029,28.977-20.029
					c12.863,0,24.465,8.133,28.977,20.029c-0.775,0.525-1.177,1.494-0.92,2.449c0.324,1.204,1.563,1.918,2.768,1.593
					c1.204-0.324,1.918-1.563,1.594-2.767c-0.283-1.05-1.262-1.726-2.307-1.667c-4.68-12.374-16.739-20.838-30.112-20.838
					c-13.373,0-25.432,8.464-30.112,20.838c-1.044-0.059-2.024,0.617-2.306,1.667C132.046,50.716,132.76,51.955,133.964,52.279z"/>
				
					<linearGradient id="SVGID_00000178909258392218937340000007737352679767681968_" gradientUnits="userSpaceOnUse" x1="148.5363" y1="89.6067" x2="188.3739" y2="38.8733">
					<stop  offset="0" style="stop-color:#003575"/>
					<stop  offset="1" style="stop-color:#007DD4"/>
				</linearGradient>
				<path style="fill:url(#SVGID_00000178909258392218937340000007737352679767681968_);" d="M195.56,66.353
					c-1.202-0.333-2.446,0.372-2.779,1.573c-0.264,0.954,0.132,1.927,0.904,2.457c-4.589,11.936-15.928,19.812-28.897,19.812
					c-12.969,0-24.308-7.876-28.897-19.812c0.773-0.53,1.168-1.503,0.904-2.457c-0.333-1.202-1.577-1.906-2.779-1.573
					c-1.202,0.333-1.906,1.577-1.573,2.779c0.29,1.047,1.273,1.716,2.316,1.65c4.759,12.418,16.545,20.614,30.03,20.614
					c13.484,0,25.271-8.196,30.029-20.614c1.043,0.066,2.026-0.603,2.316-1.65C197.467,67.93,196.762,66.686,195.56,66.353z"/>
			</g>
			<g>
				<path style="fill:#0077CB;" d="M158.296,67.17c-2.039,0-3.564-0.692-4.577-2.078c-1.012-1.384-1.518-3.233-1.518-5.546
					c0-2.313,0.506-4.162,1.518-5.546c1.013-1.385,2.538-2.077,4.577-2.077c2.038,0,3.564,0.692,4.576,2.077
					c1.012,1.385,1.519,3.234,1.519,5.546c0,2.313-0.506,4.162-1.519,5.546C161.86,66.478,160.334,67.17,158.296,67.17z
					 M156.123,55.992c-0.464,0.9-0.696,2.088-0.696,3.564c0,1.476,0.232,2.665,0.696,3.564c0.464,0.9,1.188,1.35,2.172,1.35
					c0.984,0,1.708-0.45,2.172-1.35c0.464-0.899,0.696-2.088,0.696-3.564c0-1.477-0.232-2.664-0.696-3.564
					c-0.464-0.899-1.188-1.35-2.172-1.35C157.311,54.643,156.587,55.093,156.123,55.992z"/>
				<path style="fill:#0077CB;" d="M172.141,58.007c0.372-0.527,0.559-1.037,0.559-1.529c0-0.492-0.162-0.903-0.485-1.234
					c-0.324-0.33-0.738-0.496-1.245-0.496c-0.928,0-1.807,0.661-2.636,1.982l-2.636-1.561c0.688-1.068,1.444-1.877,2.267-2.425
					c0.822-0.548,1.87-0.822,3.142-0.822c1.273,0,2.39,0.404,3.353,1.212c0.963,0.809,1.445,1.909,1.445,3.3
					c0,0.759-0.193,1.487-0.58,2.183c-0.387,0.696-1.1,1.585-2.141,2.667l-2.657,2.763h5.821v2.953h-10.397v-2.446l4.323-4.429
					C171.145,59.241,171.768,58.534,172.141,58.007z"/>
			</g>
		</g>
		<g>
			
				<radialGradient id="SVGID_00000059311545462769399710000009260016278584348578_" cx="266.9135" cy="62.1183" r="32.1983" gradientUnits="userSpaceOnUse">
				<stop  offset="0.5314" style="stop-color:#007AFF"/>
				<stop  offset="0.5864" style="stop-color:#3897FF"/>
				<stop  offset="0.6453" style="stop-color:#6CB2FF"/>
				<stop  offset="0.7052" style="stop-color:#99CAFF"/>
				<stop  offset="0.7649" style="stop-color:#BEDDFF"/>
				<stop  offset="0.8243" style="stop-color:#DAECFF"/>
				<stop  offset="0.8834" style="stop-color:#EFF7FF"/>
				<stop  offset="0.9421" style="stop-color:#FBFDFF"/>
				<stop  offset="1" style="stop-color:#FFFFFF"/>
			</radialGradient>
			<circle style="fill:url(#SVGID_00000059311545462769399710000009260016278584348578_);" cx="266.914" cy="62.118" r="32.198"/>
			
				<ellipse transform="matrix(0.7071 -0.7071 0.7071 0.7071 37.3195 208.4998)" style="fill:#FFFFFF;" cx="270.341" cy="59.201" rx="23.763" ry="23.763"/>
			<g>
				
					<linearGradient id="SVGID_00000061461344897934347190000011767267832971386770_" gradientUnits="userSpaceOnUse" x1="244.757" y1="82.2787" x2="284.5947" y2="31.5452">
					<stop  offset="0" style="stop-color:#575757"/>
					<stop  offset="1" style="stop-color:#A6A6A6"/>
				</linearGradient>
				<path style="fill:url(#SVGID_00000061461344897934347190000011767267832971386770_);" d="M239.516,52.279
					c1.204,0.324,2.443-0.389,2.768-1.593c0.257-0.955-0.145-1.924-0.92-2.449c4.513-11.896,16.114-20.029,28.977-20.029
					s24.465,8.133,28.977,20.029c-0.775,0.525-1.177,1.494-0.92,2.449c0.324,1.204,1.563,1.918,2.767,1.593
					c1.204-0.324,1.918-1.563,1.594-2.767c-0.283-1.05-1.262-1.726-2.306-1.667c-4.68-12.374-16.739-20.838-30.112-20.838
					c-13.373,0-25.432,8.464-30.112,20.838c-1.045-0.059-2.024,0.617-2.306,1.667C237.599,50.716,238.312,51.955,239.516,52.279z"/>
				
					<linearGradient id="SVGID_00000073690243414518503740000016159622007479448483_" gradientUnits="userSpaceOnUse" x1="254.0892" y1="89.6067" x2="293.9268" y2="38.8732">
					<stop  offset="0" style="stop-color:#575757"/>
					<stop  offset="1" style="stop-color:#A6A6A6"/>
				</linearGradient>
				<path style="fill:url(#SVGID_00000073690243414518503740000016159622007479448483_);" d="M301.113,66.353
					c-1.202-0.333-2.446,0.372-2.779,1.573c-0.264,0.954,0.132,1.927,0.904,2.457c-4.589,11.936-15.928,19.812-28.897,19.812
					c-12.969,0-24.308-7.876-28.897-19.812c0.773-0.53,1.168-1.503,0.904-2.457c-0.333-1.202-1.577-1.906-2.779-1.573
					c-1.202,0.333-1.906,1.577-1.573,2.779c0.29,1.047,1.273,1.716,2.316,1.65c4.759,12.418,16.546,20.614,30.03,20.614
					c13.484,0,25.271-8.196,30.029-20.614c1.043,0.066,2.026-0.603,2.316-1.65C303.019,67.93,302.315,66.686,301.113,66.353z"/>
			</g>
			<g>
				<path style="fill:#9F9F9F;" d="M263.997,67.17c-2.039,0-3.564-0.692-4.577-2.078c-1.012-1.384-1.518-3.233-1.518-5.546
					c0-2.313,0.506-4.162,1.518-5.546c1.013-1.385,2.538-2.077,4.577-2.077c2.038,0,3.564,0.692,4.576,2.077
					c1.012,1.385,1.519,3.234,1.519,5.546c0,2.313-0.506,4.162-1.519,5.546C267.561,66.478,266.035,67.17,263.997,67.17z
					 M261.825,55.992c-0.464,0.9-0.696,2.088-0.696,3.564c0,1.476,0.232,2.665,0.696,3.564c0.464,0.9,1.188,1.35,2.172,1.35
					c0.984,0,1.708-0.45,2.172-1.35c0.464-0.899,0.696-2.088,0.696-3.564c0-1.477-0.232-2.664-0.696-3.564
					c-0.464-0.899-1.188-1.35-2.172-1.35C263.013,54.643,262.289,55.093,261.825,55.992z"/>
				<path style="fill:#9F9F9F;" d="M272.01,55.065V52.26h9.026v2.277l-3.016,3.438c1.181,0.197,2.095,0.693,2.741,1.487
					c0.647,0.794,0.97,1.712,0.97,2.752c0,1.546-0.524,2.759-1.571,3.638c-1.047,0.879-2.386,1.318-4.017,1.318
					c-1.631,0-3.283-0.577-4.956-1.729l1.35-2.615c1.392,0.984,2.636,1.477,3.733,1.477c0.661,0,1.205-0.162,1.634-0.485
					c0.429-0.323,0.643-0.791,0.643-1.402c0-0.611-0.246-1.097-0.738-1.455c-0.493-0.358-1.174-0.538-2.046-0.538
					c-0.464,0-1.118,0.134-1.961,0.4v-2.425l2.826-3.332H272.01z"/>
			</g>
		</g>
		<g>
			
				<radialGradient id="SVGID_00000182500821971081692650000006623016635153277354_" cx="372.4663" cy="62.1183" r="32.1983" gradientUnits="userSpaceOnUse">
				<stop  offset="0.5314" style="stop-color:#007AFF"/>
				<stop  offset="0.5864" style="stop-color:#3897FF"/>
				<stop  offset="0.6453" style="stop-color:#6CB2FF"/>
				<stop  offset="0.7052" style="stop-color:#99CAFF"/>
				<stop  offset="0.7649" style="stop-color:#BEDDFF"/>
				<stop  offset="0.8243" style="stop-color:#DAECFF"/>
				<stop  offset="0.8834" style="stop-color:#EFF7FF"/>
				<stop  offset="0.9421" style="stop-color:#FBFDFF"/>
				<stop  offset="1" style="stop-color:#FFFFFF"/>
			</radialGradient>
			<circle style="fill:url(#SVGID_00000182500821971081692650000006623016635153277354_);" cx="372.466" cy="62.118" r="32.198"/>
			
				<ellipse transform="matrix(0.2298 -0.9732 0.9732 0.2298 231.9136 411.4381)" style="fill:#FFFFFF;" cx="375.894" cy="59.201" rx="23.763" ry="23.763"/>
			<g>
				
					<linearGradient id="SVGID_00000046302165758499605150000001558529343007758983_" gradientUnits="userSpaceOnUse" x1="350.3099" y1="82.2787" x2="390.1475" y2="31.5452">
					<stop  offset="0" style="stop-color:#006834"/>
					<stop  offset="1" style="stop-color:#00C495"/>
				</linearGradient>
				<path style="fill:url(#SVGID_00000046302165758499605150000001558529343007758983_);" d="M345.069,52.279
					c1.204,0.324,2.443-0.389,2.767-1.593c0.257-0.955-0.145-1.924-0.92-2.449c4.513-11.896,16.114-20.029,28.977-20.029
					c12.863,0,24.465,8.133,28.977,20.029c-0.775,0.525-1.177,1.494-0.92,2.449c0.324,1.204,1.563,1.918,2.768,1.593
					c1.204-0.324,1.918-1.563,1.593-2.767c-0.283-1.05-1.262-1.726-2.306-1.667c-4.68-12.374-16.739-20.838-30.112-20.838
					c-13.373,0-25.432,8.464-30.112,20.838c-1.044-0.059-2.024,0.617-2.306,1.667C343.152,50.716,343.865,51.955,345.069,52.279z"/>
				
					<linearGradient id="SVGID_00000161625300331898205660000010230223283859864197_" gradientUnits="userSpaceOnUse" x1="359.6421" y1="89.6067" x2="399.4796" y2="38.8733">
					<stop  offset="0" style="stop-color:#006834"/>
					<stop  offset="1" style="stop-color:#00C495"/>
				</linearGradient>
				<path style="fill:url(#SVGID_00000161625300331898205660000010230223283859864197_);" d="M406.666,66.353
					c-1.202-0.333-2.446,0.372-2.779,1.573c-0.264,0.954,0.132,1.927,0.904,2.457c-4.589,11.936-15.928,19.812-28.897,19.812
					c-12.969,0-24.308-7.876-28.897-19.812c0.773-0.53,1.168-1.503,0.904-2.457c-0.333-1.202-1.577-1.906-2.779-1.573
					c-1.202,0.333-1.906,1.577-1.573,2.779c0.29,1.047,1.273,1.716,2.316,1.65c4.759,12.418,16.545,20.614,30.03,20.614
					c13.484,0,25.271-8.196,30.029-20.614c1.043,0.066,2.026-0.603,2.316-1.65C408.572,67.93,407.868,66.686,406.666,66.353z"/>
			</g>
			<g>
				<path style="fill:#00BD8E;" d="M369.581,67.17c-2.039,0-3.564-0.692-4.577-2.078c-1.012-1.384-1.518-3.233-1.518-5.546
					c0-2.313,0.506-4.162,1.518-5.546c1.013-1.385,2.538-2.077,4.577-2.077c2.038,0,3.564,0.692,4.576,2.077
					c1.012,1.385,1.519,3.234,1.519,5.546c0,2.313-0.506,4.162-1.519,5.546C373.145,66.478,371.619,67.17,369.581,67.17z
					 M367.409,55.992c-0.464,0.9-0.696,2.088-0.696,3.564c0,1.476,0.232,2.665,0.696,3.564c0.464,0.9,1.188,1.35,2.172,1.35
					c0.984,0,1.708-0.45,2.172-1.35c0.464-0.899,0.696-2.088,0.696-3.564c0-1.477-0.232-2.664-0.696-3.564
					c-0.464-0.899-1.188-1.35-2.172-1.35C368.597,54.643,367.872,55.093,367.409,55.992z"/>
				<path style="fill:#00BD8E;" d="M382.698,60.632v-2.573h3.164v2.573h1.666v2.847h-1.666v3.522h-3.164v-3.522h-5.926v-2.51
					l5.251-8.71h3.586l-4.998,8.372H382.698z"/>
			</g>
		</g>
		<g>
			
				<radialGradient id="SVGID_00000117640279708645108370000015580970381942241444_" cx="55.8078" cy="145.4568" r="32.1983" gradientUnits="userSpaceOnUse">
				<stop  offset="0.5314" style="stop-color:#007AFF"/>
				<stop  offset="0.5864" style="stop-color:#3897FF"/>
				<stop  offset="0.6453" style="stop-color:#6CB2FF"/>
				<stop  offset="0.7052" style="stop-color:#99CAFF"/>
				<stop  offset="0.7649" style="stop-color:#BEDDFF"/>
				<stop  offset="0.8243" style="stop-color:#DAECFF"/>
				<stop  offset="0.8834" style="stop-color:#EFF7FF"/>
				<stop  offset="0.9421" style="stop-color:#FBFDFF"/>
				<stop  offset="1" style="stop-color:#FFFFFF"/>
			</radialGradient>
			<circle style="fill:url(#SVGID_00000117640279708645108370000015580970381942241444_);" cx="55.808" cy="145.457" r="32.198"/>
			
				<ellipse transform="matrix(0.7071 -0.7071 0.7071 0.7071 -83.4412 83.6348)" style="fill:#FFFFFF;" cx="59.236" cy="142.54" rx="23.763" ry="23.763"/>
			<g>
				
					<linearGradient id="SVGID_00000047774402856311844910000016920641454556546965_" gradientUnits="userSpaceOnUse" x1="33.6513" y1="165.6173" x2="73.489" y2="114.8838">
					<stop  offset="0" style="stop-color:#450C67"/>
					<stop  offset="1" style="stop-color:#984BFF"/>
				</linearGradient>
				<path style="fill:url(#SVGID_00000047774402856311844910000016920641454556546965_);" d="M28.411,135.618
					c1.204,0.324,2.443-0.389,2.767-1.594c0.257-0.955-0.145-1.924-0.92-2.449c4.513-11.896,16.114-20.029,28.977-20.029
					s24.465,8.133,28.977,20.029c-0.775,0.525-1.177,1.494-0.92,2.449c0.324,1.204,1.563,1.918,2.767,1.594
					c1.204-0.324,1.918-1.563,1.593-2.768c-0.283-1.05-1.262-1.726-2.306-1.667c-4.68-12.374-16.739-20.838-30.112-20.838
					s-25.432,8.464-30.112,20.838c-1.045-0.059-2.024,0.617-2.306,1.667C26.493,134.054,27.207,135.294,28.411,135.618z"/>
				
					<linearGradient id="SVGID_00000013879988130812686540000017272266547449365914_" gradientUnits="userSpaceOnUse" x1="42.9835" y1="172.9452" x2="82.8211" y2="122.2118">
					<stop  offset="0" style="stop-color:#450C67"/>
					<stop  offset="1" style="stop-color:#984BFF"/>
				</linearGradient>
				<path style="fill:url(#SVGID_00000013879988130812686540000017272266547449365914_);" d="M90.007,149.691
					c-1.202-0.333-2.446,0.372-2.779,1.573c-0.264,0.954,0.132,1.927,0.904,2.457c-4.589,11.936-15.928,19.812-28.897,19.812
					c-12.969,0-24.308-7.876-28.897-19.812c0.773-0.53,1.168-1.503,0.904-2.457c-0.333-1.202-1.577-1.906-2.779-1.573
					c-1.202,0.333-1.906,1.577-1.573,2.779c0.29,1.047,1.273,1.716,2.316,1.65c4.759,12.418,16.546,20.614,30.03,20.614
					c13.484,0,25.271-8.196,30.029-20.614c1.043,0.066,2.026-0.603,2.316-1.65C91.914,151.268,91.209,150.024,90.007,149.691z"/>
			</g>
			<g>
				<path style="fill:#8038D2;" d="M52.838,150.509c-2.039,0-3.564-0.692-4.577-2.078c-1.012-1.384-1.518-3.233-1.518-5.546
					c0-2.313,0.506-4.162,1.518-5.546c1.013-1.385,2.538-2.077,4.577-2.077c2.038,0,3.564,0.692,4.576,2.077
					c1.012,1.385,1.519,3.234,1.519,5.546c0,2.313-0.506,4.162-1.519,5.546C56.402,149.817,54.876,150.509,52.838,150.509z
					 M50.666,139.331c-0.464,0.9-0.696,2.088-0.696,3.564c0,1.476,0.232,2.665,0.696,3.564c0.464,0.9,1.188,1.35,2.172,1.35
					c0.984,0,1.708-0.45,2.172-1.35c0.464-0.899,0.696-2.088,0.696-3.564c0-1.477-0.232-2.664-0.696-3.564
					c-0.464-0.899-1.188-1.35-2.172-1.35C51.854,137.982,51.13,138.432,50.666,139.331z"/>
				<path style="fill:#8038D2;" d="M69.941,135.599v2.847h-5.82v2.468c0.436-0.126,0.935-0.19,1.497-0.19
					c1.42,0,2.643,0.429,3.67,1.287c1.026,0.857,1.539,2.014,1.539,3.469c0,1.455-0.531,2.657-1.592,3.606
					c-1.062,0.949-2.373,1.424-3.933,1.424c-1.997,0-3.663-0.738-4.999-2.214l1.729-2.404c0.126,0.126,0.295,0.281,0.506,0.464
					c0.21,0.183,0.597,0.425,1.16,0.728c0.562,0.303,1.124,0.454,1.687,0.454s1.062-0.169,1.498-0.506
					c0.436-0.337,0.654-0.836,0.654-1.497c0-0.661-0.236-1.171-0.707-1.529c-0.471-0.358-1.079-0.538-1.824-0.538
					c-0.746,0-1.61,0.267-2.594,0.801l-1.371-1.476v-7.191H69.941z"/>
			</g>
		</g>
		<g>
			
				<radialGradient id="SVGID_00000167360332027320784340000006451068361982946452_" cx="161.3606" cy="145.4568" r="32.1983" gradientUnits="userSpaceOnUse">
				<stop  offset="0.5314" style="stop-color:#007AFF"/>
				<stop  offset="0.5864" style="stop-color:#3897FF"/>
				<stop  offset="0.6453" style="stop-color:#6CB2FF"/>
				<stop  offset="0.7052" style="stop-color:#99CAFF"/>
				<stop  offset="0.7649" style="stop-color:#BEDDFF"/>
				<stop  offset="0.8243" style="stop-color:#DAECFF"/>
				<stop  offset="0.8834" style="stop-color:#EFF7FF"/>
				<stop  offset="0.9421" style="stop-color:#FBFDFF"/>
				<stop  offset="1" style="stop-color:#FFFFFF"/>
			</radialGradient>
			<circle style="fill:url(#SVGID_00000167360332027320784340000006451068361982946452_);" cx="161.361" cy="145.457" r="32.198"/>
			
				<ellipse transform="matrix(0.2298 -0.9732 0.9732 0.2298 -11.7991 270.171)" style="fill:#FFFFFF;" cx="164.788" cy="142.54" rx="23.763" ry="23.763"/>
			<g>
				
					<linearGradient id="SVGID_00000102516798608736650530000007352191107007771550_" gradientUnits="userSpaceOnUse" x1="139.2042" y1="165.6173" x2="179.0418" y2="114.8838">
					<stop  offset="0" style="stop-color:#FF6F00"/>
					<stop  offset="1" style="stop-color:#FFD500"/>
				</linearGradient>
				<path style="fill:url(#SVGID_00000102516798608736650530000007352191107007771550_);" d="M133.964,135.618
					c1.204,0.324,2.443-0.389,2.768-1.594c0.257-0.955-0.145-1.924-0.92-2.449c4.513-11.896,16.114-20.029,28.977-20.029
					c12.863,0,24.465,8.133,28.977,20.029c-0.775,0.525-1.177,1.494-0.92,2.449c0.324,1.204,1.563,1.918,2.768,1.594
					c1.204-0.324,1.918-1.563,1.594-2.768c-0.283-1.05-1.262-1.726-2.307-1.667c-4.68-12.374-16.739-20.838-30.112-20.838
					c-13.373,0-25.432,8.464-30.112,20.838c-1.044-0.059-2.024,0.617-2.306,1.667C132.046,134.054,132.76,135.294,133.964,135.618z"
					/>
				
					<linearGradient id="SVGID_00000060031008202054879820000006654515293030940818_" gradientUnits="userSpaceOnUse" x1="148.5363" y1="172.9452" x2="188.3739" y2="122.2119">
					<stop  offset="0" style="stop-color:#FF6F00"/>
					<stop  offset="1" style="stop-color:#FFD500"/>
				</linearGradient>
				<path style="fill:url(#SVGID_00000060031008202054879820000006654515293030940818_);" d="M195.56,149.691
					c-1.202-0.333-2.446,0.372-2.779,1.573c-0.264,0.954,0.132,1.927,0.904,2.457c-4.589,11.936-15.928,19.812-28.897,19.812
					c-12.969,0-24.308-7.876-28.897-19.812c0.773-0.53,1.168-1.503,0.904-2.457c-0.333-1.202-1.577-1.906-2.779-1.573
					c-1.202,0.333-1.906,1.577-1.573,2.779c0.29,1.047,1.273,1.716,2.316,1.65c4.759,12.418,16.545,20.614,30.03,20.614
					c13.484,0,25.271-8.196,30.029-20.614c1.043,0.066,2.026-0.603,2.316-1.65C197.467,151.268,196.762,150.024,195.56,149.691z"/>
			</g>
			<g>
				<path style="fill:#FFB800;" d="M158.032,150.509c-2.039,0-3.564-0.692-4.577-2.078c-1.012-1.384-1.518-3.233-1.518-5.546
					c0-2.313,0.506-4.162,1.518-5.546c1.013-1.385,2.538-2.077,4.577-2.077c2.038,0,3.564,0.692,4.576,2.077
					c1.012,1.385,1.518,3.234,1.518,5.546c0,2.313-0.506,4.162-1.518,5.546C161.596,149.817,160.07,150.509,158.032,150.509z
					 M155.86,139.331c-0.464,0.9-0.696,2.088-0.696,3.564c0,1.476,0.232,2.665,0.696,3.564c0.464,0.9,1.188,1.35,2.172,1.35
					c0.984,0,1.708-0.45,2.172-1.35c0.464-0.899,0.696-2.088,0.696-3.564c0-1.477-0.232-2.664-0.696-3.564
					c-0.464-0.899-1.188-1.35-2.172-1.35C157.048,137.982,156.324,138.432,155.86,139.331z"/>
				<path style="fill:#FFB800;" d="M171.929,138.087c-0.914,0-1.62,0.306-2.119,0.917c-0.5,0.612-0.805,1.445-0.917,2.499
					c0.913-0.59,1.884-0.886,2.91-0.886c1.378,0,2.527,0.45,3.448,1.35c0.921,0.9,1.381,2.099,1.381,3.596
					c0,1.498-0.496,2.696-1.487,3.596c-0.991,0.9-2.239,1.35-3.743,1.35c-1.041,0-1.944-0.201-2.71-0.601
					c-0.767-0.401-1.36-0.96-1.782-1.677c-0.844-1.392-1.265-3.135-1.265-5.23c0-1.35,0.165-2.534,0.496-3.554
					c0.33-1.019,0.783-1.824,1.36-2.415c1.125-1.181,2.517-1.771,4.176-1.771c0.689,0,1.346,0.102,1.972,0.306
					c0.625,0.204,1.107,0.411,1.444,0.622c0.337,0.211,0.71,0.478,1.118,0.801l-1.561,2.32c-0.084-0.084-0.207-0.197-0.369-0.337
					c-0.162-0.14-0.482-0.323-0.96-0.548C172.843,138.2,172.379,138.087,171.929,138.087z M171.497,143.402
					c-0.654,0-1.202,0.193-1.645,0.58c-0.443,0.387-0.664,0.889-0.664,1.508c0,0.619,0.211,1.149,0.632,1.592
					c0.422,0.443,0.949,0.665,1.582,0.665c0.632,0,1.16-0.197,1.582-0.591c0.422-0.394,0.633-0.903,0.633-1.529
					c0-0.625-0.19-1.153-0.569-1.582C172.667,143.616,172.151,143.402,171.497,143.402z"/>
			</g>
		</g>
		<g>
			
				<radialGradient id="SVGID_00000039121337433908439200000004701532401869373074_" cx="266.9135" cy="145.4568" r="32.1983" gradientUnits="userSpaceOnUse">
				<stop  offset="0.5314" style="stop-color:#007AFF"/>
				<stop  offset="0.5864" style="stop-color:#3897FF"/>
				<stop  offset="0.6453" style="stop-color:#6CB2FF"/>
				<stop  offset="0.7052" style="stop-color:#99CAFF"/>
				<stop  offset="0.7649" style="stop-color:#BEDDFF"/>
				<stop  offset="0.8243" style="stop-color:#DAECFF"/>
				<stop  offset="0.8834" style="stop-color:#EFF7FF"/>
				<stop  offset="0.9421" style="stop-color:#FBFDFF"/>
				<stop  offset="1" style="stop-color:#FFFFFF"/>
			</radialGradient>
			<circle style="fill:url(#SVGID_00000039121337433908439200000004701532401869373074_);" cx="266.914" cy="145.457" r="32.198"/>
			
				<ellipse transform="matrix(0.7071 -0.7071 0.7071 0.7071 -21.6098 232.9091)" style="fill:#FFFFFF;" cx="270.341" cy="142.54" rx="23.763" ry="23.763"/>
			<g>
				
					<linearGradient id="SVGID_00000180347989433361144550000007310908438450440848_" gradientUnits="userSpaceOnUse" x1="244.757" y1="165.6173" x2="284.5947" y2="114.8838">
					<stop  offset="0" style="stop-color:#FF1A00"/>
					<stop  offset="1" style="stop-color:#FF8000"/>
				</linearGradient>
				<path style="fill:url(#SVGID_00000180347989433361144550000007310908438450440848_);" d="M239.516,135.618
					c1.204,0.324,2.443-0.389,2.768-1.594c0.257-0.955-0.145-1.924-0.92-2.449c4.513-11.896,16.114-20.029,28.977-20.029
					s24.465,8.133,28.977,20.029c-0.775,0.525-1.177,1.494-0.92,2.449c0.324,1.204,1.563,1.918,2.767,1.594
					c1.204-0.324,1.918-1.563,1.594-2.768c-0.283-1.05-1.262-1.726-2.306-1.667c-4.68-12.374-16.739-20.838-30.112-20.838
					c-13.373,0-25.432,8.464-30.112,20.838c-1.045-0.059-2.024,0.617-2.306,1.667C237.599,134.054,238.312,135.294,239.516,135.618z
					"/>
				
					<linearGradient id="SVGID_00000004528215471064146290000001588734013302934951_" gradientUnits="userSpaceOnUse" x1="254.0892" y1="172.9452" x2="293.9268" y2="122.2118">
					<stop  offset="0" style="stop-color:#FF1A00"/>
					<stop  offset="1" style="stop-color:#FF8000"/>
				</linearGradient>
				<path style="fill:url(#SVGID_00000004528215471064146290000001588734013302934951_);" d="M301.113,149.691
					c-1.202-0.333-2.446,0.372-2.779,1.573c-0.264,0.954,0.132,1.927,0.904,2.457c-4.589,11.936-15.928,19.812-28.897,19.812
					c-12.969,0-24.308-7.876-28.897-19.812c0.773-0.53,1.168-1.503,0.904-2.457c-0.333-1.202-1.577-1.906-2.779-1.573
					c-1.202,0.333-1.906,1.577-1.573,2.779c0.29,1.047,1.273,1.716,2.316,1.65c4.759,12.418,16.546,20.614,30.03,20.614
					c13.484,0,25.271-8.196,30.029-20.614c1.043,0.066,2.026-0.603,2.316-1.65C303.019,151.268,302.315,150.024,301.113,149.691z"/>
			</g>
			<g>
				<path style="fill:#FF7800;" d="M264.123,150.509c-2.039,0-3.564-0.692-4.577-2.078c-1.012-1.384-1.518-3.233-1.518-5.546
					c0-2.313,0.506-4.162,1.518-5.546c1.013-1.385,2.538-2.077,4.577-2.077c2.038,0,3.564,0.692,4.576,2.077
					c1.012,1.385,1.519,3.234,1.519,5.546c0,2.313-0.506,4.162-1.519,5.546C267.687,149.817,266.161,150.509,264.123,150.509z
					 M261.951,139.331c-0.464,0.9-0.696,2.088-0.696,3.564c0,1.476,0.232,2.665,0.696,3.564c0.464,0.9,1.188,1.35,2.172,1.35
					c0.984,0,1.708-0.45,2.172-1.35c0.464-0.899,0.696-2.088,0.696-3.564c0-1.477-0.232-2.664-0.696-3.564
					c-0.464-0.899-1.188-1.35-2.172-1.35C263.139,137.982,262.415,138.432,261.951,139.331z"/>
				<path style="fill:#FF7800;" d="M271.546,140.322v-4.724h10.65v2.488l-5.968,12.253h-3.585l5.694-11.916h-3.711v1.898H271.546z"
					/>
			</g>
		</g>
		<g>
			
				<radialGradient id="SVGID_00000173854629534464354080000001264244701518951051_" cx="372.4663" cy="145.4568" r="32.1983" gradientUnits="userSpaceOnUse">
				<stop  offset="0.5314" style="stop-color:#007AFF"/>
				<stop  offset="0.5864" style="stop-color:#3897FF"/>
				<stop  offset="0.6453" style="stop-color:#6CB2FF"/>
				<stop  offset="0.7052" style="stop-color:#99CAFF"/>
				<stop  offset="0.7649" style="stop-color:#BEDDFF"/>
				<stop  offset="0.8243" style="stop-color:#DAECFF"/>
				<stop  offset="0.8834" style="stop-color:#EFF7FF"/>
				<stop  offset="0.9421" style="stop-color:#FBFDFF"/>
				<stop  offset="1" style="stop-color:#FFFFFF"/>
			</radialGradient>
			<circle style="fill:url(#SVGID_00000173854629534464354080000001264244701518951051_);" cx="372.466" cy="145.457" r="32.198"/>
			
				<ellipse transform="matrix(0.2298 -0.9732 0.9732 0.2298 150.8044 475.6294)" style="fill:#FFFFFF;" cx="375.894" cy="142.54" rx="23.763" ry="23.763"/>
			<g>
				
					<linearGradient id="SVGID_00000044167498403193651280000004359348443698635414_" gradientUnits="userSpaceOnUse" x1="350.3098" y1="165.6173" x2="390.1475" y2="114.8838">
					<stop  offset="0" style="stop-color:#007AFF"/>
					<stop  offset="1" style="stop-color:#1DC8FE"/>
				</linearGradient>
				<path style="fill:url(#SVGID_00000044167498403193651280000004359348443698635414_);" d="M345.069,135.618
					c1.204,0.324,2.443-0.389,2.767-1.594c0.257-0.955-0.145-1.924-0.92-2.449c4.513-11.896,16.114-20.029,28.977-20.029
					c12.863,0,24.465,8.133,28.977,20.029c-0.775,0.525-1.177,1.494-0.92,2.449c0.324,1.204,1.563,1.918,2.768,1.594
					c1.204-0.324,1.918-1.563,1.593-2.768c-0.283-1.05-1.262-1.726-2.306-1.667c-4.68-12.374-16.739-20.838-30.112-20.838
					c-13.373,0-25.432,8.464-30.112,20.838c-1.044-0.059-2.024,0.617-2.306,1.667C343.152,134.054,343.865,135.294,345.069,135.618z
					"/>
				
					<linearGradient id="SVGID_00000135655359164914832640000011267513393779166882_" gradientUnits="userSpaceOnUse" x1="359.642" y1="172.9452" x2="399.4796" y2="122.2119">
					<stop  offset="0" style="stop-color:#007AFF"/>
					<stop  offset="1" style="stop-color:#1DC8FE"/>
				</linearGradient>
				<path style="fill:url(#SVGID_00000135655359164914832640000011267513393779166882_);" d="M406.666,149.691
					c-1.202-0.333-2.446,0.372-2.779,1.573c-0.264,0.954,0.132,1.927,0.904,2.457c-4.589,11.936-15.928,19.812-28.897,19.812
					c-12.969,0-24.308-7.876-28.897-19.812c0.773-0.53,1.168-1.503,0.904-2.457c-0.333-1.202-1.577-1.906-2.779-1.573
					c-1.202,0.333-1.906,1.577-1.573,2.779c0.29,1.047,1.273,1.716,2.316,1.65c4.759,12.418,16.545,20.614,30.03,20.614
					c13.484,0,25.271-8.196,30.029-20.614c1.043,0.066,2.026-0.603,2.316-1.65C408.572,151.268,407.868,150.024,406.666,149.691z"/>
			</g>
			<g>
				<path style="fill:#14AFFE;" d="M369.012,150.509c-2.039,0-3.564-0.692-4.577-2.078c-1.012-1.384-1.518-3.233-1.518-5.546
					c0-2.313,0.506-4.162,1.518-5.546c1.013-1.385,2.538-2.077,4.577-2.077c2.038,0,3.564,0.692,4.576,2.077
					c1.012,1.385,1.518,3.234,1.518,5.546c0,2.313-0.506,4.162-1.518,5.546C372.576,149.817,371.05,150.509,369.012,150.509z
					 M366.839,139.331c-0.464,0.9-0.696,2.088-0.696,3.564c0,1.476,0.232,2.665,0.696,3.564c0.464,0.9,1.188,1.35,2.172,1.35
					c0.984,0,1.708-0.45,2.172-1.35c0.464-0.899,0.696-2.088,0.696-3.564c0-1.477-0.232-2.664-0.696-3.564
					c-0.464-0.899-1.188-1.35-2.172-1.35C368.027,137.982,367.303,138.432,366.839,139.331z"/>
				<path style="fill:#14AFFE;" d="M378.554,136.421c0.977-0.773,2.196-1.16,3.659-1.16s2.678,0.387,3.648,1.16
					c0.97,0.773,1.455,1.726,1.455,2.858c0,1.132-0.436,2.105-1.307,2.92c1.223,0.942,1.834,2.18,1.834,3.712
					c0,1.293-0.52,2.383-1.56,3.269c-1.04,0.886-2.398,1.329-4.07,1.329c-1.673,0-3.03-0.443-4.07-1.329
					c-1.041-0.886-1.561-1.976-1.561-3.269c0-1.532,0.612-2.77,1.835-3.712c-0.886-0.829-1.329-1.806-1.329-2.931
					C377.088,138.144,377.577,137.195,378.554,136.421z M380.61,147.272c0.492,0.331,1.026,0.496,1.603,0.496
					c0.577,0,1.11-0.165,1.603-0.496c0.492-0.33,0.738-0.812,0.738-1.445s-0.239-1.118-0.717-1.455
					c-0.478-0.337-1.02-0.506-1.624-0.506s-1.146,0.169-1.624,0.506c-0.479,0.337-0.717,0.822-0.717,1.455
					S380.118,146.942,380.61,147.272z M380.81,140.829c0.401,0.337,0.868,0.506,1.402,0.506s1.002-0.169,1.402-0.506
					c0.401-0.337,0.601-0.755,0.601-1.255c0-0.499-0.197-0.918-0.59-1.255c-0.394-0.337-0.865-0.506-1.413-0.506
					c-0.548,0-1.02,0.169-1.413,0.506c-0.394,0.337-0.59,0.756-0.59,1.255C380.209,140.074,380.41,140.491,380.81,140.829z"/>
			</g>
		</g>
		<g>
			
				<radialGradient id="SVGID_00000099635352554160526440000009188644811641087623_" cx="55.8078" cy="228.7954" r="32.1983" gradientUnits="userSpaceOnUse">
				<stop  offset="0.5314" style="stop-color:#007AFF"/>
				<stop  offset="0.5864" style="stop-color:#3897FF"/>
				<stop  offset="0.6453" style="stop-color:#6CB2FF"/>
				<stop  offset="0.7052" style="stop-color:#99CAFF"/>
				<stop  offset="0.7649" style="stop-color:#BEDDFF"/>
				<stop  offset="0.8243" style="stop-color:#DAECFF"/>
				<stop  offset="0.8834" style="stop-color:#EFF7FF"/>
				<stop  offset="0.9421" style="stop-color:#FBFDFF"/>
				<stop  offset="1" style="stop-color:#FFFFFF"/>
			</radialGradient>
			<circle style="fill:url(#SVGID_00000099635352554160526440000009188644811641087623_);" cx="55.808" cy="228.795" r="32.198"/>
			
				<ellipse transform="matrix(0.2298 -0.9732 0.9732 0.2298 -174.21 231.6332)" style="fill:#FFFFFF;" cx="59.236" cy="225.878" rx="23.763" ry="23.763"/>
			<g>
				
					<linearGradient id="SVGID_00000118381648879648625590000009563056888450374815_" gradientUnits="userSpaceOnUse" x1="33.6513" y1="248.9559" x2="73.489" y2="198.2224">
					<stop  offset="0" style="stop-color:#008200"/>
					<stop  offset="1" style="stop-color:#77C600"/>
				</linearGradient>
				<path style="fill:url(#SVGID_00000118381648879648625590000009563056888450374815_);" d="M28.411,218.956
					c1.204,0.324,2.443-0.39,2.767-1.594c0.257-0.955-0.145-1.924-0.92-2.449c4.513-11.896,16.114-20.029,28.977-20.029
					s24.465,8.133,28.977,20.029c-0.775,0.525-1.177,1.494-0.92,2.449c0.324,1.204,1.563,1.918,2.767,1.594
					c1.204-0.324,1.918-1.564,1.593-2.768c-0.283-1.05-1.262-1.726-2.306-1.667c-4.68-12.374-16.739-20.838-30.112-20.838
					s-25.432,8.464-30.112,20.838c-1.045-0.059-2.024,0.617-2.306,1.667C26.493,217.393,27.207,218.632,28.411,218.956z"/>
				
					<linearGradient id="SVGID_00000111906755785104895400000007628977054858401926_" gradientUnits="userSpaceOnUse" x1="42.9835" y1="256.2838" x2="82.8211" y2="205.5504">
					<stop  offset="0" style="stop-color:#008200"/>
					<stop  offset="1" style="stop-color:#77C600"/>
				</linearGradient>
				<path style="fill:url(#SVGID_00000111906755785104895400000007628977054858401926_);" d="M90.007,233.03
					c-1.202-0.333-2.446,0.372-2.779,1.573c-0.264,0.954,0.132,1.927,0.904,2.457c-4.589,11.936-15.928,19.812-28.897,19.812
					c-12.969,0-24.308-7.876-28.897-19.812c0.773-0.53,1.168-1.503,0.904-2.457c-0.333-1.202-1.577-1.906-2.779-1.573
					c-1.202,0.333-1.906,1.577-1.573,2.779c0.29,1.047,1.273,1.716,2.316,1.65c4.759,12.418,16.546,20.614,30.03,20.614
					c13.484,0,25.271-8.196,30.029-20.614c1.043,0.066,2.026-0.603,2.316-1.65C91.914,234.607,91.209,233.363,90.007,233.03z"/>
			</g>
			<g>
				<path style="fill:#52B100;" d="M52.49,233.847c-2.039,0-3.564-0.692-4.577-2.078c-1.012-1.384-1.518-3.233-1.518-5.546
					c0-2.313,0.506-4.162,1.518-5.546c1.013-1.385,2.538-2.077,4.577-2.077c2.038,0,3.564,0.692,4.576,2.077
					c1.012,1.385,1.519,3.234,1.519,5.546c0,2.313-0.506,4.162-1.519,5.546C56.054,233.155,54.528,233.847,52.49,233.847z
					 M50.318,222.67c-0.464,0.9-0.696,2.088-0.696,3.564c0,1.476,0.232,2.665,0.696,3.564c0.464,0.9,1.188,1.35,2.172,1.35
					c0.984,0,1.708-0.45,2.172-1.35c0.464-0.899,0.696-2.088,0.696-3.564c0-1.477-0.232-2.664-0.696-3.564
					c-0.464-0.899-1.188-1.35-2.172-1.35C51.506,221.32,50.782,221.77,50.318,222.67z"/>
				<path style="fill:#52B100;" d="M64.721,231.021c0.914,0,1.621-0.306,2.12-0.917c0.499-0.611,0.805-1.444,0.918-2.499
					c-0.9,0.604-1.87,0.907-2.91,0.907c-1.378,0-2.528-0.453-3.448-1.36c-0.921-0.907-1.381-2.105-1.381-3.596
					c0-1.49,0.496-2.689,1.487-3.596c0.991-0.907,2.239-1.36,3.743-1.36c1.041,0,1.943,0.2,2.71,0.601
					c0.766,0.4,1.367,0.96,1.803,1.676c0.83,1.392,1.244,3.136,1.244,5.23c0,1.35-0.166,2.534-0.496,3.553
					c-0.33,1.02-0.777,1.824-1.339,2.415c-1.153,1.181-2.552,1.771-4.197,1.771c-0.689,0-1.35-0.102-1.982-0.306
					c-0.633-0.204-1.111-0.408-1.434-0.611c-0.324-0.204-0.696-0.467-1.118-0.791l1.645-2.32c0.098,0.084,0.228,0.193,0.39,0.327
					c0.161,0.134,0.474,0.313,0.939,0.538C63.878,230.909,64.313,231.021,64.721,231.021z M65.175,225.707
					c0.654,0,1.198-0.19,1.634-0.569c0.436-0.38,0.654-0.878,0.654-1.498c0-0.618-0.211-1.152-0.633-1.603
					c-0.421-0.45-0.949-0.675-1.582-0.675c-0.633,0-1.149,0.2-1.55,0.601c-0.401,0.4-0.601,0.91-0.601,1.529
					c0,0.619,0.183,1.143,0.548,1.571C64.011,225.492,64.521,225.707,65.175,225.707z"/>
			</g>
		</g>
		<g>
			
				<radialGradient id="SVGID_00000129175706282373695250000003369002475965801125_" cx="161.3606" cy="228.7954" r="32.1983" gradientUnits="userSpaceOnUse">
				<stop  offset="0.5314" style="stop-color:#007AFF"/>
				<stop  offset="0.5864" style="stop-color:#3897FF"/>
				<stop  offset="0.6453" style="stop-color:#6CB2FF"/>
				<stop  offset="0.7052" style="stop-color:#99CAFF"/>
				<stop  offset="0.7649" style="stop-color:#BEDDFF"/>
				<stop  offset="0.8243" style="stop-color:#DAECFF"/>
				<stop  offset="0.8834" style="stop-color:#EFF7FF"/>
				<stop  offset="0.9421" style="stop-color:#FBFDFF"/>
				<stop  offset="1" style="stop-color:#FFFFFF"/>
			</radialGradient>
			<circle style="fill:url(#SVGID_00000129175706282373695250000003369002475965801125_);" cx="161.361" cy="228.795" r="32.198"/>
			
				<ellipse transform="matrix(0.7071 -0.7071 0.7071 0.7071 -111.4548 182.6812)" style="fill:#FFFFFF;" cx="164.788" cy="225.878" rx="23.763" ry="23.763"/>
			<g>
				
					<linearGradient id="SVGID_00000117636232724848567820000018015131360646859427_" gradientUnits="userSpaceOnUse" x1="139.2042" y1="248.9559" x2="179.0418" y2="198.2224">
					<stop  offset="0" style="stop-color:#000000"/>
					<stop  offset="1" style="stop-color:#505050"/>
				</linearGradient>
				<path style="fill:url(#SVGID_00000117636232724848567820000018015131360646859427_);" d="M133.964,218.956
					c1.204,0.324,2.443-0.39,2.768-1.594c0.257-0.955-0.145-1.924-0.92-2.449c4.513-11.896,16.114-20.029,28.977-20.029
					c12.863,0,24.465,8.133,28.977,20.029c-0.775,0.525-1.177,1.494-0.92,2.449c0.324,1.204,1.563,1.918,2.768,1.594
					c1.204-0.324,1.918-1.564,1.594-2.768c-0.283-1.05-1.262-1.726-2.307-1.667c-4.68-12.374-16.739-20.838-30.112-20.838
					c-13.373,0-25.432,8.464-30.112,20.838c-1.044-0.059-2.024,0.617-2.306,1.667C132.046,217.393,132.76,218.632,133.964,218.956z"
					/>
				
					<linearGradient id="SVGID_00000183931831915353824700000013249274365160221111_" gradientUnits="userSpaceOnUse" x1="148.5363" y1="256.2838" x2="188.3739" y2="205.5504">
					<stop  offset="0" style="stop-color:#000000"/>
					<stop  offset="1" style="stop-color:#505050"/>
				</linearGradient>
				<path style="fill:url(#SVGID_00000183931831915353824700000013249274365160221111_);" d="M195.56,233.03
					c-1.202-0.333-2.446,0.372-2.779,1.573c-0.264,0.954,0.132,1.927,0.904,2.457c-4.589,11.936-15.928,19.812-28.897,19.812
					c-12.969,0-24.308-7.876-28.897-19.812c0.773-0.53,1.168-1.503,0.904-2.457c-0.333-1.202-1.577-1.906-2.779-1.573
					c-1.202,0.333-1.906,1.577-1.573,2.779c0.29,1.047,1.273,1.716,2.316,1.65c4.759,12.418,16.545,20.614,30.03,20.614
					c13.484,0,25.271-8.196,30.029-20.614c1.043,0.066,2.026-0.603,2.316-1.65C197.467,234.607,196.762,233.363,195.56,233.03z"/>
			</g>
			<g>
				<path style="fill:#4A4A4A;" d="M153.804,218.937h5.968v14.741h-3.164v-11.937h-2.805V218.937z"/>
				<path style="fill:#4A4A4A;" d="M168.081,233.847c-2.039,0-3.564-0.692-4.577-2.078c-1.012-1.384-1.518-3.233-1.518-5.546
					c0-2.313,0.506-4.162,1.518-5.546c1.013-1.385,2.538-2.077,4.577-2.077c2.038,0,3.564,0.692,4.576,2.077
					c1.012,1.385,1.519,3.234,1.519,5.546c0,2.313-0.506,4.162-1.519,5.546C171.645,233.155,170.119,233.847,168.081,233.847z
					 M165.909,222.67c-0.464,0.9-0.696,2.088-0.696,3.564c0,1.476,0.232,2.665,0.696,3.564c0.464,0.9,1.188,1.35,2.172,1.35
					c0.984,0,1.708-0.45,2.172-1.35c0.464-0.899,0.696-2.088,0.696-3.564c0-1.477-0.232-2.664-0.696-3.564
					c-0.464-0.899-1.188-1.35-2.172-1.35C167.097,221.32,166.372,221.77,165.909,222.67z"/>
			</g>
		</g>
		<g>
			
				<radialGradient id="SVGID_00000145770662685923134860000001698082370957910187_" cx="266.9135" cy="228.7954" r="32.1983" gradientUnits="userSpaceOnUse">
				<stop  offset="0.5314" style="stop-color:#007AFF"/>
				<stop  offset="0.5864" style="stop-color:#3897FF"/>
				<stop  offset="0.6453" style="stop-color:#6CB2FF"/>
				<stop  offset="0.7052" style="stop-color:#99CAFF"/>
				<stop  offset="0.7649" style="stop-color:#BEDDFF"/>
				<stop  offset="0.8243" style="stop-color:#DAECFF"/>
				<stop  offset="0.8834" style="stop-color:#EFF7FF"/>
				<stop  offset="0.9421" style="stop-color:#FBFDFF"/>
				<stop  offset="1" style="stop-color:#FFFFFF"/>
			</radialGradient>
			<circle style="fill:url(#SVGID_00000145770662685923134860000001698082370957910187_);" cx="266.914" cy="228.795" r="32.198"/>
			
				<ellipse transform="matrix(0.2298 -0.9732 0.9732 0.2298 -11.6063 437.0916)" style="fill:#FFFFFF;" cx="270.341" cy="225.878" rx="23.763" ry="23.763"/>
			<g>
				
					<linearGradient id="SVGID_00000170975342526433092940000017136964414028649126_" gradientUnits="userSpaceOnUse" x1="244.757" y1="248.9559" x2="284.5947" y2="198.2224">
					<stop  offset="0" style="stop-color:#FF0055"/>
					<stop  offset="1" style="stop-color:#FF5990"/>
				</linearGradient>
				<path style="fill:url(#SVGID_00000170975342526433092940000017136964414028649126_);" d="M239.516,218.956
					c1.204,0.324,2.443-0.39,2.768-1.594c0.257-0.955-0.145-1.924-0.92-2.449c4.513-11.896,16.114-20.029,28.977-20.029
					s24.465,8.133,28.977,20.029c-0.775,0.525-1.177,1.494-0.92,2.449c0.324,1.204,1.563,1.918,2.767,1.594
					c1.204-0.324,1.918-1.564,1.594-2.768c-0.283-1.05-1.262-1.726-2.306-1.667c-4.68-12.374-16.739-20.838-30.112-20.838
					c-13.373,0-25.432,8.464-30.112,20.838c-1.045-0.059-2.024,0.617-2.306,1.667C237.599,217.393,238.312,218.632,239.516,218.956z
					"/>
				
					<linearGradient id="SVGID_00000029724780614294107280000012160051881859800219_" gradientUnits="userSpaceOnUse" x1="254.0892" y1="256.2838" x2="293.9268" y2="205.5504">
					<stop  offset="0" style="stop-color:#FF0055"/>
					<stop  offset="1" style="stop-color:#FF5990"/>
				</linearGradient>
				<path style="fill:url(#SVGID_00000029724780614294107280000012160051881859800219_);" d="M301.113,233.03
					c-1.202-0.333-2.446,0.372-2.779,1.573c-0.264,0.954,0.132,1.927,0.904,2.457c-4.589,11.936-15.928,19.812-28.897,19.812
					c-12.969,0-24.308-7.876-28.897-19.812c0.773-0.53,1.168-1.503,0.904-2.457c-0.333-1.202-1.577-1.906-2.779-1.573
					c-1.202,0.333-1.906,1.577-1.573,2.779c0.29,1.047,1.273,1.716,2.316,1.65c4.759,12.418,16.546,20.614,30.03,20.614
					c13.484,0,25.271-8.196,30.029-20.614c1.043,0.066,2.026-0.603,2.316-1.65C303.019,234.607,302.315,233.363,301.113,233.03z"/>
			</g>
			<g>
				<path style="fill:#FF548D;" d="M262.383,218.937h5.968v14.741h-3.164v-11.937h-2.805V218.937z"/>
				<path style="fill:#FF548D;" d="M270.039,218.937h5.968v14.741h-3.164v-11.937h-2.805V218.937z"/>
			</g>
		</g>
		<g>
			
				<radialGradient id="SVGID_00000163035949292072857930000015423415655011778714_" cx="372.4663" cy="228.7954" r="32.1983" gradientUnits="userSpaceOnUse">
				<stop  offset="0.5314" style="stop-color:#007AFF"/>
				<stop  offset="0.5864" style="stop-color:#3897FF"/>
				<stop  offset="0.6453" style="stop-color:#6CB2FF"/>
				<stop  offset="0.7052" style="stop-color:#99CAFF"/>
				<stop  offset="0.7649" style="stop-color:#BEDDFF"/>
				<stop  offset="0.8243" style="stop-color:#DAECFF"/>
				<stop  offset="0.8834" style="stop-color:#EFF7FF"/>
				<stop  offset="0.9421" style="stop-color:#FBFDFF"/>
				<stop  offset="1" style="stop-color:#FFFFFF"/>
			</radialGradient>
			<circle style="fill:url(#SVGID_00000163035949292072857930000015423415655011778714_);" cx="372.466" cy="228.795" r="32.198"/>
			
				<ellipse transform="matrix(0.7071 -0.7071 0.7071 0.7071 -49.6233 331.9555)" style="fill:#FFFFFF;" cx="375.894" cy="225.878" rx="23.763" ry="23.763"/>
			<g>
				
					<linearGradient id="SVGID_00000065043481603069896430000009395882786650443138_" gradientUnits="userSpaceOnUse" x1="350.3099" y1="248.9559" x2="390.1475" y2="198.2224">
					<stop  offset="0" style="stop-color:#021559"/>
					<stop  offset="1" style="stop-color:#0953B8"/>
				</linearGradient>
				<path style="fill:url(#SVGID_00000065043481603069896430000009395882786650443138_);" d="M345.069,218.956
					c1.204,0.324,2.443-0.39,2.767-1.594c0.257-0.955-0.145-1.924-0.92-2.449c4.513-11.896,16.114-20.029,28.977-20.029
					c12.863,0,24.465,8.133,28.977,20.029c-0.775,0.525-1.177,1.494-0.92,2.449c0.324,1.204,1.563,1.918,2.768,1.594
					c1.204-0.324,1.918-1.564,1.593-2.768c-0.283-1.05-1.262-1.726-2.306-1.667c-4.68-12.374-16.739-20.838-30.112-20.838
					c-13.373,0-25.432,8.464-30.112,20.838c-1.044-0.059-2.024,0.617-2.306,1.667C343.152,217.393,343.865,218.632,345.069,218.956z
					"/>
				
					<linearGradient id="SVGID_00000064331125349952938760000015431234405505307323_" gradientUnits="userSpaceOnUse" x1="359.642" y1="256.2838" x2="399.4796" y2="205.5504">
					<stop  offset="0" style="stop-color:#021559"/>
					<stop  offset="1" style="stop-color:#0953B8"/>
				</linearGradient>
				<path style="fill:url(#SVGID_00000064331125349952938760000015431234405505307323_);" d="M406.666,233.03
					c-1.202-0.333-2.446,0.372-2.779,1.573c-0.264,0.954,0.132,1.927,0.904,2.457c-4.589,11.936-15.928,19.812-28.897,19.812
					c-12.969,0-24.308-7.876-28.897-19.812c0.773-0.53,1.168-1.503,0.904-2.457c-0.333-1.202-1.577-1.906-2.779-1.573
					c-1.202,0.333-1.906,1.577-1.573,2.779c0.29,1.047,1.273,1.716,2.316,1.65c4.759,12.418,16.545,20.614,30.03,20.614
					c13.484,0,25.271-8.196,30.029-20.614c1.043,0.066,2.026-0.603,2.316-1.65C408.572,234.607,407.868,233.363,406.666,233.03z"/>
			</g>
			<g>
				<path style="fill:#0950B3;" d="M365.806,218.937h5.968v14.741h-3.164v-11.937h-2.805V218.937z"/>
				<path style="fill:#0950B3;" d="M380.221,224.684c0.372-0.527,0.559-1.037,0.559-1.529s-0.162-0.903-0.485-1.234
					c-0.324-0.33-0.738-0.496-1.245-0.496c-0.928,0-1.807,0.661-2.636,1.982l-2.636-1.561c0.688-1.068,1.444-1.877,2.267-2.425
					c0.822-0.548,1.87-0.822,3.142-0.822c1.273,0,2.39,0.404,3.353,1.212c0.963,0.809,1.445,1.909,1.445,3.3
					c0,0.759-0.193,1.487-0.58,2.183c-0.387,0.696-1.1,1.585-2.141,2.668l-2.657,2.763h5.821v2.953h-10.397v-2.446l4.323-4.429
					C379.225,225.918,379.848,225.211,380.221,224.684z"/>
			</g>
		</g>
	</g>
</g>
</svg>
