<?xml version="1.0" encoding="utf-8"?>
<!-- Generator: Adobe Illustrator 27.5.0, SVG Export Plug-In . SVG Version: 6.00 Build 0)  -->
<svg version="1.1" xmlns="http://www.w3.org/2000/svg" xmlns:xlink="http://www.w3.org/1999/xlink" x="0px" y="0px"
	 viewBox="0 0 500 500" style="enable-background:new 0 0 500 500;" xml:space="preserve">
<g id="BACKGROUND">
</g>
<g id="OBJECTS">
	<g>
		<path style="fill:#FFE6A1;" d="M318.823,111.153l-5.237-27.002l-27.173-4.411c-0.26-0.042-0.26-0.416,0-0.458l27.173-4.411
			l5.237-27.002c0.048-0.25,0.406-0.251,0.455-0.001l5.345,27.003l25.888,4.412c0.257,0.044,0.257,0.414,0,0.458l-25.888,4.412
			l-5.345,27.003C319.229,111.404,318.872,111.403,318.823,111.153z"/>
		<path style="fill:#FFE6A1;" d="M354.061,114.5l-35.959-24.277l-35.229,25.388c-0.337,0.243-0.754-0.174-0.511-0.511l25.388-35.229
			l-24.277-35.959c-0.225-0.333,0.173-0.733,0.507-0.509L320.06,67.56l33.796-23.955c0.336-0.238,0.749,0.174,0.51,0.51
			l-23.955,33.796l24.158,36.081C354.793,114.327,354.394,114.725,354.061,114.5z"/>
	</g>
	<g>
		<path style="fill:#FFC229;" d="M465.505,79.702l-34.424,3.358l-3.508,35.256c-0.051,0.315-0.504,0.315-0.555,0l-4.105-35.256
			l-34.04-3.358c-0.303-0.059-0.304-0.492-0.001-0.552l34.041-2.807l4.105-35.642c0.053-0.312,0.501-0.312,0.554,0l3.508,35.642
			l34.425,2.807C465.809,79.211,465.808,79.644,465.505,79.702z"/>
		<circle style="fill:#FFC229;" cx="426.997" cy="79.702" r="9.212"/>
	</g>
	<path style="fill:#FFC229;" d="M241.576,79.077l-32.403,6.284l-5.294,32.608c-0.051,0.312-0.499,0.312-0.55,0l-5.294-32.608
		l-32.403-6.284c-0.3-0.058-0.301-0.487-0.001-0.547l32.404-6.414l5.294-31.066c0.053-0.309,0.497-0.309,0.549,0l5.294,31.066
		l32.404,6.414C241.876,78.589,241.876,79.019,241.576,79.077z"/>
	<path style="fill:#FFD694;" d="M121.763,79.611c0,1.11-0.674,2.111-1.711,2.512l-16.036,6.152
		c-5.643,2.166-10.066,6.68-12.141,12.377l-6.098,16.801c-0.043,0.126-0.139,0.215-0.202,0.328c-0.052,0.093-0.102,0.185-0.166,0.27
		c-0.098,0.13-0.196,0.246-0.318,0.35c-0.188,0.168-0.394,0.314-0.625,0.416c-0.146,0.055-0.291,0.109-0.437,0.127
		c-0.146,0.036-0.291,0.055-0.437,0.055l-0.473-0.055c-0.146-0.018-0.291-0.073-0.437-0.127c-0.24-0.104-0.45-0.254-0.641-0.426
		c-0.117-0.102-0.212-0.215-0.308-0.34c-0.055-0.073-0.099-0.15-0.145-0.229c-0.076-0.126-0.182-0.229-0.235-0.37l-6.098-16.801
		c-2.057-5.697-6.48-10.211-12.123-12.377l-16.036-6.152c-1.037-0.4-1.729-1.402-1.729-2.512c0-1.165,0.765-2.203,1.875-2.548
		l14.671-4.623c6.353-2.002,11.358-6.917,13.506-13.215l5.97-17.638c0.073-0.2,0.164-0.382,0.273-0.546
		c0.073-0.109,0.146-0.218,0.255-0.31c0.218-0.236,0.491-0.419,0.819-0.546c0.091-0.036,0.2-0.073,0.309-0.091
		c0.164-0.055,0.346-0.073,0.528-0.073c0.182,0,0.364,0.018,0.528,0.073c0.109,0.018,0.218,0.055,0.309,0.091
		c0.291,0.109,0.546,0.291,0.765,0.492c0.091,0.091,0.164,0.182,0.237,0.273c0.146,0.2,0.273,0.4,0.346,0.637l5.97,17.638
		c2.13,6.298,7.153,11.213,13.488,13.215l14.671,4.623C121.017,77.408,121.763,78.446,121.763,79.611z"/>
	<g>
		<circle style="fill:#FFE6A1;" cx="301.873" cy="216.035" r="2.703"/>
		<circle style="fill:#FFC229;" cx="311.873" cy="231.035" r="2.703"/>
		<path style="fill:#FFC229;" d="M292.998,224.508c0-0.978,0.793-1.771,1.771-1.771c0.978,0,1.771,0.793,1.771,1.771
			c0,0.978-0.793,1.771-1.771,1.771C293.791,226.279,292.998,225.486,292.998,224.508z"/>
		<g>
			<path style="fill:#FFE6A1;" d="M321.882,210.661l-21.057-17.314l-21.604,17.694c-0.204,0.147-0.456-0.105-0.309-0.309
				l17.361-21.937l-17.1-20.843c-0.136-0.202,0.105-0.443,0.307-0.308l20.536,17.408l22.152-17.576
				c0.203-0.144,0.453,0.105,0.309,0.309l-17.909,21.82l17.622,20.75C322.325,210.556,322.083,210.797,321.882,210.661z"/>
			<circle style="fill:#FFE6A1;" cx="300.42" cy="189.2" r="7.26"/>
		</g>
		<g>
			<path style="fill:#FFC229;" d="M357.591,231.405l-15.339-12.612l-15.738,12.889c-0.148,0.107-0.332-0.077-0.225-0.225
				l12.647-15.98l-12.456-15.183c-0.099-0.147,0.076-0.323,0.224-0.224l14.96,12.681l16.137-12.803
				c0.148-0.105,0.33,0.077,0.225,0.225l-13.046,15.895l12.836,15.115C357.914,231.329,357.738,231.504,357.591,231.405z"/>
			<circle style="fill:#FFC229;" cx="341.958" cy="215.772" r="5.289"/>
		</g>
		<g>
			<path style="fill:#FFC229;" d="M357.705,183.076l-11.589-9.529l-11.89,9.738c-0.112,0.081-0.251-0.058-0.17-0.17l9.555-12.073
				l-9.411-11.471c-0.075-0.111,0.058-0.244,0.169-0.169l11.302,9.58l12.192-9.673c0.112-0.079,0.249,0.058,0.17,0.17l-9.856,12.008
				l9.698,11.42C357.949,183.018,357.816,183.151,357.705,183.076z"/>
			<path style="fill:#FFC229;" d="M343.068,168.439c1.56-1.561,4.091-1.561,5.651,0c1.56,1.56,1.56,4.09,0,5.651
				c-1.56,1.561-4.09,1.561-5.651,0S341.508,170,343.068,168.439z"/>
		</g>
	</g>
	<g>
		<path style="fill:#FFD694;" d="M461.485,196.12l-29.266,5.676l-4.781,29.451c-0.046,0.282-0.451,0.282-0.497,0l-4.781-29.451
			l-29.266-5.676c-0.271-0.053-0.272-0.44-0.001-0.494l29.267-5.793l4.781-28.059c0.048-0.279,0.448-0.279,0.496,0l4.782,28.059
			l29.267,5.793C461.757,195.679,461.756,196.067,461.485,196.12z"/>
		<g>
			<path style="fill:#FFE6A1;" d="M463.857,171.306l-3.774,2.404c-2.236,1.42-3.908,3.572-4.723,6.093l-1.143,3.521l-0.252,0.773
				l-0.151,0.395l-0.16-0.395l-0.252-0.773l-1.143-3.521c-0.815-2.521-2.488-4.673-4.724-6.093l-3.774-2.404l3.757-2.614
				c1.975-1.378,3.463-3.345,4.253-5.614l2.026-5.833l0.017,0.034l0.008-0.034l2.026,5.833c0.79,2.269,2.278,4.236,4.253,5.614
				L463.857,171.306z"/>
			<path style="fill:#FFE6A1;" d="M410.617,222.59l-3.774,2.404c-2.236,1.42-3.908,3.572-4.723,6.093l-1.143,3.522l-0.252,0.773
				l-0.151,0.395l-0.16-0.395l-0.252-0.773l-1.143-3.522c-0.815-2.521-2.488-4.673-4.724-6.093l-3.774-2.404l3.757-2.614
				c1.975-1.378,3.463-3.345,4.253-5.614l2.025-5.833l0.017,0.034l0.008-0.034l2.026,5.833c0.79,2.269,2.278,4.236,4.253,5.614
				L410.617,222.59z"/>
		</g>
	</g>
	<g>
		<path style="fill:#FFD694;" d="M209.201,190.876l-7.591,4.835c-4.497,2.857-7.861,7.185-9.501,12.257l-2.299,7.083l-0.507,1.555
			l-0.304,0.795l-0.321-0.795l-0.507-1.555l-2.299-7.083c-1.64-5.072-5.004-9.4-9.501-12.257l-7.591-4.835l7.557-5.258
			c3.973-2.772,6.965-6.728,8.554-11.293l4.074-11.733l0.034,0.068l0.017-0.068l4.074,11.733c1.589,4.564,4.581,8.52,8.554,11.293
			L209.201,190.876z"/>
		<path style="fill:#FFC229;" d="M238.428,175.415l-5.051,3.218c-2.992,1.901-5.231,4.781-6.322,8.156l-1.53,4.714l-0.338,1.035
			l-0.202,0.529l-0.214-0.529l-0.338-1.035l-1.53-4.714c-1.091-3.375-3.33-6.255-6.323-8.156l-5.051-3.218l5.029-3.499
			c2.644-1.845,4.635-4.477,5.692-7.515l2.711-7.808l0.022,0.045l0.011-0.045l2.711,7.808c1.057,3.038,3.049,5.67,5.693,7.515
			L238.428,175.415z"/>
		<path style="fill:#FFC229;" d="M224.979,223.863l-3.596,2.291c-2.13,1.354-3.724,3.404-4.501,5.807l-1.089,3.356l-0.24,0.737
			l-0.144,0.376l-0.152-0.376l-0.24-0.737l-1.089-3.356c-0.777-2.403-2.371-4.453-4.501-5.807l-3.596-2.291l3.58-2.491
			c1.882-1.313,3.3-3.188,4.053-5.35l1.93-5.558l0.016,0.032l0.008-0.032l1.93,5.558c0.753,2.162,2.17,4.036,4.053,5.35
			L224.979,223.863z"/>
	</g>
	<g>
		<path style="fill:#FFC229;" d="M107.418,195.374c0,0.664-0.403,1.262-1.023,1.502l-9.589,3.679
			c-3.374,1.295-6.019,3.994-7.26,7.401l-3.646,10.046c-0.026,0.075-0.083,0.129-0.121,0.196c-0.031,0.056-0.061,0.111-0.099,0.161
			c-0.059,0.077-0.117,0.147-0.19,0.21c-0.112,0.1-0.235,0.188-0.373,0.249c-0.087,0.033-0.174,0.065-0.261,0.076
			c-0.087,0.022-0.174,0.033-0.261,0.033l-0.283-0.033c-0.087-0.011-0.174-0.044-0.261-0.076c-0.143-0.062-0.269-0.152-0.383-0.255
			c-0.07-0.061-0.127-0.129-0.184-0.203c-0.033-0.044-0.059-0.09-0.087-0.137c-0.046-0.075-0.109-0.137-0.14-0.221l-3.646-10.046
			c-1.23-3.407-3.875-6.106-7.249-7.401l-9.589-3.679c-0.62-0.24-1.034-0.838-1.034-1.502c0-0.697,0.457-1.317,1.121-1.524
			l8.772-2.764c3.798-1.197,6.791-4.136,8.076-7.902l3.57-10.546c0.044-0.12,0.098-0.229,0.163-0.326
			c0.044-0.065,0.087-0.131,0.152-0.185c0.131-0.141,0.294-0.25,0.49-0.326c0.054-0.022,0.12-0.044,0.185-0.054
			c0.098-0.033,0.207-0.044,0.316-0.044c0.109,0,0.218,0.011,0.316,0.044c0.065,0.011,0.131,0.033,0.185,0.054
			c0.174,0.065,0.326,0.174,0.457,0.294c0.054,0.054,0.098,0.109,0.141,0.163c0.087,0.12,0.163,0.239,0.207,0.381l3.57,10.546
			c1.273,3.766,4.277,6.704,8.065,7.902l8.772,2.764C106.972,194.057,107.418,194.678,107.418,195.374z"/>
		<path style="fill:#FFE6A1;" d="M72.185,171.737c0,0.39-0.237,0.742-0.602,0.883l-5.638,2.163
			c-1.984,0.762-3.539,2.349-4.268,4.351l-2.144,5.906c-0.015,0.044-0.049,0.076-0.071,0.116c-0.018,0.033-0.036,0.065-0.058,0.095
			c-0.035,0.046-0.069,0.086-0.112,0.123c-0.066,0.059-0.138,0.11-0.22,0.146c-0.051,0.019-0.102,0.038-0.154,0.045
			c-0.051,0.013-0.102,0.019-0.154,0.019l-0.166-0.019c-0.051-0.006-0.102-0.026-0.153-0.045c-0.084-0.037-0.158-0.089-0.225-0.15
			c-0.041-0.036-0.075-0.076-0.108-0.119c-0.019-0.026-0.035-0.053-0.051-0.081c-0.027-0.044-0.064-0.08-0.083-0.13l-2.144-5.906
			c-0.723-2.003-2.278-3.59-4.262-4.351l-5.638-2.163c-0.365-0.141-0.608-0.493-0.608-0.883c0-0.41,0.269-0.774,0.659-0.896
			l5.158-1.625c2.233-0.704,3.993-2.432,4.748-4.646l2.099-6.201c0.026-0.07,0.058-0.134,0.096-0.192
			c0.026-0.038,0.051-0.077,0.09-0.109c0.077-0.083,0.173-0.147,0.288-0.192c0.032-0.013,0.07-0.026,0.109-0.032
			c0.058-0.019,0.122-0.025,0.186-0.025c0.064,0,0.128,0.006,0.186,0.025c0.038,0.006,0.077,0.019,0.109,0.032
			c0.102,0.038,0.192,0.102,0.269,0.173c0.032,0.032,0.058,0.064,0.083,0.096c0.051,0.07,0.096,0.141,0.122,0.224l2.099,6.201
			c0.749,2.214,2.515,3.942,4.742,4.646l5.158,1.625C71.923,170.963,72.185,171.328,72.185,171.737z"/>
		<path style="fill:#FFE6A1;" d="M121.804,221.356c0,0.39-0.237,0.742-0.601,0.883l-5.638,2.163
			c-1.984,0.762-3.539,2.349-4.268,4.351l-2.144,5.906c-0.015,0.044-0.049,0.076-0.071,0.115c-0.018,0.033-0.036,0.065-0.058,0.095
			c-0.035,0.046-0.069,0.086-0.112,0.123c-0.066,0.059-0.138,0.11-0.219,0.146c-0.051,0.019-0.103,0.038-0.154,0.045
			c-0.051,0.013-0.102,0.019-0.154,0.019l-0.166-0.019c-0.051-0.006-0.102-0.025-0.154-0.045c-0.084-0.037-0.158-0.089-0.225-0.15
			c-0.041-0.036-0.074-0.076-0.108-0.12c-0.019-0.026-0.035-0.053-0.051-0.08c-0.027-0.044-0.064-0.08-0.082-0.13l-2.144-5.906
			c-0.723-2.003-2.278-3.59-4.262-4.351l-5.638-2.163c-0.365-0.141-0.608-0.493-0.608-0.883c0-0.41,0.269-0.774,0.659-0.896
			l5.158-1.625c2.233-0.704,3.993-2.432,4.748-4.646l2.099-6.201c0.026-0.07,0.058-0.134,0.096-0.192
			c0.026-0.038,0.051-0.077,0.09-0.109c0.077-0.083,0.173-0.147,0.288-0.192c0.032-0.013,0.07-0.026,0.109-0.032
			c0.058-0.019,0.122-0.026,0.186-0.026c0.064,0,0.128,0.006,0.186,0.026c0.038,0.006,0.077,0.019,0.109,0.032
			c0.102,0.038,0.192,0.102,0.269,0.173c0.032,0.032,0.058,0.064,0.083,0.096c0.051,0.07,0.096,0.141,0.122,0.224l2.099,6.201
			c0.749,2.214,2.515,3.942,4.742,4.646l5.158,1.625C121.542,220.581,121.804,220.946,121.804,221.356z"/>
		<path style="fill:#FFC229;" d="M103.318,179.717c0-1.493,1.21-2.703,2.703-2.703c1.493,0,2.703,1.21,2.703,2.703
			c0,1.493-1.21,2.703-2.703,2.703C104.528,182.42,103.318,181.21,103.318,179.717z"/>
		<circle style="fill:#FFE6A1;" cx="60.556" cy="224.671" r="2.703"/>
		<path style="fill:#FFC229;" d="M48.477,200.16c0-0.807,0.654-1.46,1.46-1.46c0.807,0,1.461,0.654,1.461,1.46
			c0,0.807-0.654,1.461-1.461,1.461C49.13,201.62,48.477,200.966,48.477,200.16z"/>
		<path style="fill:#FFE6A1;" d="M114.499,190.73c0-0.978,0.793-1.771,1.771-1.771c0.978,0,1.771,0.793,1.771,1.771
			s-0.793,1.771-1.771,1.771C115.292,192.501,114.499,191.708,114.499,190.73z"/>
		<circle style="fill:#FFE6A1;" cx="112.729" cy="173.473" r="1.771"/>
		<circle style="fill:#FFC229;" cx="65.03" cy="212.25" r="1.771"/>
	</g>
	<g>
		<path style="fill:#FFC229;" d="M299.257,428.939c0,0.563,0.341,1.07,0.867,1.273l8.126,3.117c2.859,1.098,5.1,3.385,6.152,6.272
			l3.09,8.513c0.022,0.064,0.07,0.109,0.102,0.166c0.026,0.047,0.052,0.094,0.084,0.137c0.05,0.066,0.099,0.125,0.161,0.177
			c0.095,0.085,0.199,0.159,0.316,0.211c0.074,0.028,0.148,0.055,0.221,0.065c0.074,0.018,0.148,0.028,0.221,0.028l0.24-0.028
			c0.074-0.009,0.148-0.037,0.221-0.065c0.122-0.053,0.228-0.129,0.325-0.216c0.059-0.051,0.107-0.109,0.156-0.172
			c0.028-0.037,0.05-0.076,0.074-0.116c0.039-0.064,0.092-0.116,0.119-0.188l3.09-8.513c1.042-2.887,3.284-5.174,6.143-6.272
			l8.126-3.117c0.526-0.203,0.876-0.71,0.876-1.273c0-0.59-0.387-1.116-0.95-1.291l-7.434-2.343
			c-3.219-1.015-5.755-3.505-6.844-6.696l-3.025-8.937c-0.037-0.101-0.083-0.194-0.138-0.277c-0.037-0.055-0.074-0.111-0.129-0.157
			c-0.111-0.12-0.249-0.212-0.415-0.277c-0.046-0.018-0.102-0.037-0.157-0.046c-0.083-0.028-0.175-0.037-0.267-0.037
			s-0.184,0.009-0.268,0.037c-0.055,0.009-0.111,0.028-0.157,0.046c-0.147,0.055-0.277,0.148-0.387,0.249
			c-0.046,0.046-0.083,0.092-0.12,0.138c-0.074,0.102-0.138,0.203-0.175,0.323l-3.025,8.937c-1.079,3.191-3.625,5.682-6.834,6.696
			l-7.434,2.343C299.635,427.823,299.257,428.349,299.257,428.939z"/>
		<path style="fill:#FFE6A1;" d="M324.68,408.913c0,0.386,0.234,0.734,0.595,0.874l5.579,2.14c1.963,0.753,3.502,2.324,4.223,4.306
			l2.121,5.844c0.015,0.044,0.048,0.075,0.07,0.114c0.018,0.033,0.035,0.064,0.058,0.094c0.034,0.045,0.068,0.085,0.111,0.122
			c0.065,0.058,0.137,0.109,0.217,0.145c0.051,0.019,0.101,0.038,0.152,0.044c0.051,0.013,0.101,0.019,0.152,0.019l0.165-0.019
			c0.051-0.006,0.101-0.025,0.152-0.044c0.083-0.036,0.157-0.088,0.223-0.148c0.041-0.035,0.074-0.075,0.107-0.118
			c0.019-0.025,0.035-0.052,0.051-0.08c0.026-0.044,0.063-0.079,0.082-0.129l2.121-5.844c0.716-1.982,2.254-3.552,4.217-4.306
			l5.578-2.14c0.361-0.139,0.602-0.488,0.602-0.874c0-0.405-0.266-0.766-0.652-0.887l-5.104-1.608
			c-2.21-0.697-3.951-2.406-4.698-4.597l-2.077-6.136c-0.025-0.07-0.057-0.133-0.095-0.19c-0.025-0.038-0.051-0.076-0.089-0.108
			c-0.076-0.082-0.171-0.146-0.285-0.19c-0.032-0.013-0.07-0.025-0.108-0.032c-0.057-0.019-0.12-0.025-0.184-0.025
			c-0.063,0-0.127,0.006-0.184,0.025c-0.038,0.006-0.076,0.019-0.108,0.032c-0.101,0.038-0.19,0.101-0.266,0.171
			c-0.032,0.032-0.057,0.063-0.082,0.095c-0.051,0.07-0.095,0.139-0.12,0.222l-2.077,6.136c-0.741,2.191-2.488,3.9-4.692,4.597
			l-5.104,1.608C324.939,408.147,324.68,408.508,324.68,408.913z"/>
		<path style="fill:#FFE6A1;" d="M285.669,448.933c0,0.386,0.234,0.734,0.595,0.874l5.578,2.14c1.963,0.754,3.502,2.324,4.224,4.306
			l2.121,5.844c0.015,0.044,0.048,0.075,0.07,0.114c0.018,0.033,0.036,0.064,0.058,0.094c0.034,0.045,0.068,0.085,0.111,0.122
			c0.065,0.058,0.137,0.109,0.217,0.145c0.051,0.019,0.101,0.038,0.152,0.044c0.051,0.013,0.101,0.019,0.152,0.019l0.165-0.019
			c0.051-0.006,0.101-0.025,0.152-0.044c0.083-0.036,0.157-0.088,0.223-0.148c0.041-0.035,0.074-0.075,0.107-0.118
			c0.019-0.025,0.035-0.052,0.051-0.08c0.026-0.044,0.063-0.079,0.082-0.129l2.121-5.844c0.716-1.982,2.254-3.552,4.217-4.306
			l5.578-2.14c0.361-0.139,0.602-0.488,0.602-0.874c0-0.405-0.266-0.766-0.652-0.887l-5.104-1.608
			c-2.21-0.697-3.951-2.406-4.698-4.597l-2.077-6.136c-0.025-0.07-0.057-0.133-0.095-0.19c-0.025-0.038-0.051-0.076-0.089-0.108
			c-0.076-0.082-0.171-0.146-0.285-0.19c-0.032-0.013-0.07-0.025-0.108-0.032c-0.057-0.019-0.12-0.025-0.184-0.025
			c-0.063,0-0.127,0.006-0.184,0.025c-0.038,0.006-0.076,0.019-0.108,0.032c-0.101,0.038-0.19,0.101-0.266,0.171
			c-0.032,0.032-0.057,0.063-0.082,0.095c-0.051,0.07-0.095,0.139-0.12,0.222l-2.077,6.136c-0.741,2.191-2.488,3.9-4.692,4.597
			l-5.104,1.608C285.928,448.167,285.669,448.528,285.669,448.933z"/>
		<path style="fill:#FFC229;" d="M299.257,416.253c0,0.127,0.077,0.242,0.196,0.288l1.84,0.706c0.647,0.248,1.155,0.766,1.393,1.42
			l0.699,1.927c0.005,0.014,0.016,0.025,0.023,0.038c0.006,0.011,0.012,0.021,0.019,0.031c0.011,0.015,0.022,0.028,0.036,0.04
			c0.021,0.019,0.045,0.036,0.072,0.048c0.017,0.006,0.033,0.013,0.05,0.015c0.017,0.004,0.033,0.006,0.05,0.006l0.054-0.006
			c0.017-0.002,0.033-0.008,0.05-0.015c0.027-0.012,0.052-0.029,0.073-0.049c0.014-0.012,0.024-0.025,0.035-0.039
			c0.006-0.008,0.011-0.017,0.017-0.026c0.009-0.014,0.021-0.026,0.027-0.043l0.699-1.927c0.236-0.654,0.743-1.171,1.391-1.42
			l1.84-0.706c0.119-0.046,0.198-0.161,0.198-0.288c0-0.134-0.088-0.253-0.215-0.292l-1.683-0.53
			c-0.729-0.23-1.303-0.794-1.549-1.516l-0.685-2.023c-0.008-0.023-0.019-0.044-0.031-0.063c-0.008-0.013-0.017-0.025-0.029-0.035
			c-0.025-0.027-0.056-0.048-0.094-0.063c-0.01-0.004-0.023-0.008-0.035-0.01c-0.019-0.006-0.04-0.008-0.06-0.008
			c-0.021,0-0.042,0.002-0.061,0.008c-0.013,0.002-0.025,0.006-0.035,0.01c-0.033,0.013-0.063,0.033-0.088,0.056
			c-0.01,0.01-0.019,0.021-0.027,0.031c-0.017,0.023-0.031,0.046-0.04,0.073l-0.685,2.023c-0.244,0.723-0.821,1.286-1.547,1.516
			l-1.683,0.53C299.343,416,299.257,416.119,299.257,416.253z"/>
		<path style="fill:#FFC229;" d="M329.203,442.839c0,0.127,0.077,0.242,0.196,0.288l1.84,0.706c0.647,0.249,1.155,0.766,1.393,1.42
			l0.7,1.927c0.005,0.014,0.016,0.025,0.023,0.038c0.006,0.011,0.012,0.021,0.019,0.031c0.011,0.015,0.023,0.028,0.036,0.04
			c0.022,0.019,0.045,0.036,0.072,0.048c0.017,0.006,0.033,0.012,0.05,0.015c0.017,0.004,0.033,0.006,0.05,0.006l0.054-0.006
			c0.017-0.002,0.033-0.008,0.05-0.015c0.027-0.012,0.052-0.029,0.074-0.049c0.013-0.012,0.024-0.025,0.035-0.039
			c0.006-0.008,0.011-0.017,0.017-0.026c0.009-0.014,0.021-0.026,0.027-0.042l0.7-1.927c0.236-0.654,0.743-1.171,1.391-1.42
			l1.84-0.706c0.119-0.046,0.198-0.161,0.198-0.288c0-0.134-0.088-0.253-0.215-0.292l-1.683-0.53
			c-0.729-0.23-1.303-0.793-1.549-1.516l-0.685-2.023c-0.008-0.023-0.019-0.044-0.031-0.063c-0.008-0.013-0.017-0.025-0.029-0.035
			c-0.025-0.027-0.056-0.048-0.094-0.063c-0.01-0.004-0.023-0.008-0.035-0.01c-0.019-0.006-0.04-0.008-0.061-0.008
			s-0.042,0.002-0.061,0.008c-0.012,0.002-0.025,0.006-0.035,0.01c-0.033,0.013-0.063,0.034-0.088,0.056
			c-0.01,0.01-0.019,0.021-0.027,0.031c-0.017,0.023-0.031,0.046-0.04,0.073l-0.685,2.023c-0.244,0.723-0.821,1.286-1.547,1.516
			l-1.683,0.53C329.289,442.586,329.203,442.705,329.203,442.839z"/>
	</g>
	<g>
		<g>
			<path style="fill:#FFE6A1;" d="M444.194,438.144l-26.436,2.579l-2.694,27.075c-0.039,0.242-0.387,0.242-0.426,0l-3.152-27.075
				l-26.141-2.579c-0.233-0.045-0.233-0.378-0.001-0.424l26.142-2.156l3.153-27.371c0.041-0.239,0.385-0.239,0.426,0l2.694,27.371
				l26.436,2.156C444.427,437.766,444.427,438.099,444.194,438.144z"/>
			<path style="fill:#FFE6A1;" d="M407.548,438.144c0-3.907,3.167-7.074,7.074-7.074c3.907,0,7.074,3.167,7.074,7.074
				c0,3.907-3.167,7.074-7.074,7.074C410.715,445.218,407.548,442.051,407.548,438.144z"/>
		</g>
		<g>
			<path style="fill:#FFC229;" d="M469.089,410.381l-18.06,1.762l-1.84,18.497c-0.027,0.165-0.264,0.165-0.291,0l-2.154-18.497
				l-17.859-1.762c-0.159-0.031-0.159-0.258-0.001-0.289l17.859-1.473l2.154-18.699c0.028-0.163,0.263-0.163,0.291,0l1.84,18.699
				l18.061,1.473C469.248,410.123,469.248,410.35,469.089,410.381z"/>
			<circle style="fill:#FFC229;" cx="448.886" cy="410.381" r="4.833"/>
		</g>
	</g>
	<g>
		<path style="fill:#FFD694;" d="M221.287,440.185c0,0.78-0.473,1.484-1.202,1.765l-11.269,4.323
			c-3.965,1.522-7.073,4.694-8.531,8.698L196,466.776c-0.03,0.088-0.098,0.151-0.142,0.231c-0.037,0.066-0.072,0.13-0.117,0.19
			c-0.069,0.091-0.137,0.173-0.223,0.246c-0.132,0.118-0.277,0.221-0.439,0.293c-0.102,0.038-0.205,0.077-0.307,0.09
			c-0.102,0.026-0.205,0.038-0.307,0.038l-0.332-0.038c-0.102-0.013-0.205-0.051-0.307-0.09c-0.169-0.073-0.316-0.179-0.45-0.299
			c-0.083-0.071-0.149-0.151-0.216-0.239c-0.038-0.051-0.07-0.105-0.102-0.161c-0.054-0.089-0.128-0.161-0.165-0.26l-4.285-11.806
			c-1.445-4.003-4.554-7.175-8.519-8.698l-11.269-4.323c-0.729-0.281-1.215-0.985-1.215-1.765c0-0.819,0.537-1.548,1.317-1.791
			l10.309-3.249c4.464-1.407,7.981-4.86,9.491-9.286l4.195-12.394c0.051-0.141,0.115-0.269,0.192-0.384
			c0.051-0.077,0.102-0.153,0.179-0.217c0.154-0.166,0.345-0.294,0.576-0.384c0.064-0.025,0.141-0.051,0.217-0.064
			c0.115-0.038,0.243-0.051,0.371-0.051c0.128,0,0.256,0.013,0.371,0.051c0.077,0.013,0.154,0.038,0.217,0.064
			c0.205,0.077,0.384,0.205,0.537,0.345c0.064,0.064,0.115,0.128,0.166,0.192c0.102,0.141,0.192,0.281,0.243,0.448l4.195,12.394
			c1.497,4.426,5.027,7.879,9.478,9.286l10.309,3.249C220.762,438.637,221.287,439.366,221.287,440.185z"/>
		<path style="fill:#FFE6A1;" d="M239.603,417.958c0,0.427-0.259,0.812-0.658,0.966l-6.17,2.367
			c-2.171,0.833-3.873,2.57-4.671,4.763l-2.346,6.464c-0.017,0.048-0.053,0.083-0.078,0.126c-0.02,0.036-0.039,0.071-0.064,0.104
			c-0.038,0.05-0.075,0.094-0.122,0.135c-0.072,0.065-0.152,0.121-0.24,0.16c-0.056,0.021-0.112,0.042-0.168,0.049
			c-0.056,0.014-0.112,0.021-0.168,0.021l-0.182-0.021c-0.056-0.007-0.112-0.028-0.168-0.049c-0.092-0.04-0.173-0.098-0.246-0.164
			c-0.045-0.039-0.081-0.083-0.119-0.131c-0.021-0.028-0.038-0.058-0.056-0.088c-0.029-0.049-0.07-0.088-0.09-0.143l-2.346-6.464
			c-0.791-2.192-2.493-3.929-4.664-4.763l-6.17-2.367c-0.399-0.154-0.665-0.539-0.665-0.966c0-0.448,0.294-0.848,0.721-0.981
			l5.645-1.779c2.444-0.77,4.37-2.661,5.197-5.085l2.297-6.787c0.028-0.077,0.063-0.147,0.105-0.21
			c0.028-0.042,0.056-0.084,0.098-0.119c0.084-0.091,0.189-0.161,0.315-0.21c0.035-0.014,0.077-0.028,0.119-0.035
			c0.063-0.021,0.133-0.028,0.203-0.028c0.07,0,0.14,0.007,0.203,0.028c0.042,0.007,0.084,0.021,0.119,0.035
			c0.112,0.042,0.21,0.112,0.294,0.189c0.035,0.035,0.063,0.07,0.091,0.105c0.056,0.077,0.105,0.154,0.133,0.245l2.297,6.787
			c0.819,2.423,2.752,4.314,5.19,5.085l5.645,1.779C239.316,417.11,239.603,417.509,239.603,417.958z"/>
		<path style="fill:#FFC229;" d="M214.477,399.944c0,0.281-0.171,0.535-0.434,0.636l-4.063,1.559
			c-1.43,0.549-2.55,1.693-3.076,3.136l-1.545,4.257c-0.011,0.032-0.035,0.054-0.051,0.083c-0.013,0.024-0.026,0.047-0.042,0.068
			c-0.025,0.033-0.049,0.062-0.081,0.089c-0.048,0.043-0.1,0.08-0.158,0.106c-0.037,0.014-0.074,0.028-0.111,0.032
			c-0.037,0.009-0.074,0.014-0.111,0.014l-0.12-0.014c-0.037-0.005-0.074-0.018-0.111-0.032c-0.061-0.027-0.114-0.065-0.162-0.108
			c-0.03-0.026-0.054-0.055-0.078-0.086c-0.014-0.018-0.025-0.038-0.037-0.058c-0.019-0.032-0.046-0.058-0.059-0.094l-1.545-4.257
			c-0.521-1.444-1.642-2.587-3.072-3.136l-4.063-1.559c-0.263-0.102-0.438-0.355-0.438-0.636c0-0.295,0.194-0.558,0.475-0.646
			l3.717-1.171c1.61-0.507,2.878-1.753,3.422-3.348l1.513-4.469c0.018-0.051,0.041-0.097,0.069-0.138
			c0.018-0.028,0.037-0.055,0.065-0.078c0.055-0.06,0.124-0.106,0.208-0.138c0.023-0.009,0.051-0.018,0.078-0.023
			c0.042-0.014,0.088-0.018,0.134-0.018s0.092,0.005,0.134,0.018c0.028,0.005,0.055,0.014,0.078,0.023
			c0.074,0.028,0.138,0.074,0.194,0.125c0.023,0.023,0.042,0.046,0.06,0.069c0.037,0.051,0.069,0.102,0.088,0.161l1.513,4.469
			c0.54,1.596,1.813,2.841,3.417,3.348l3.717,1.171C214.287,399.386,214.477,399.649,214.477,399.944z"/>
	</g>
	<g>
		<g>
			<path style="fill:#FFE6A1;" d="M104.505,432.906l-3.149-16.237l-16.34-2.653c-0.156-0.025-0.156-0.25,0-0.276l16.34-2.653
				l3.149-16.237c0.029-0.15,0.244-0.151,0.274-0.001l3.214,16.237l15.567,2.653c0.155,0.026,0.155,0.249,0,0.275l-15.567,2.653
				l-3.214,16.237C104.749,433.056,104.534,433.056,104.505,432.906z"/>
			<path style="fill:#FFE6A1;" d="M125.694,434.918l-21.623-14.598l-21.184,15.266c-0.203,0.146-0.453-0.105-0.307-0.307
				l15.266-21.184l-14.598-21.623c-0.135-0.2,0.104-0.441,0.305-0.306l21.696,14.526l20.322-14.404
				c0.202-0.143,0.45,0.105,0.307,0.307l-14.404,20.322L126,434.613C126.134,434.814,125.894,435.053,125.694,434.918z"/>
		</g>
		<g>
			<path style="fill:#FFC229;" d="M74.043,454.799l-10.312-6.962l-10.103,7.28c-0.097,0.07-0.216-0.05-0.146-0.147l7.28-10.103
				L53.8,434.557c-0.064-0.095,0.05-0.21,0.145-0.146l10.347,6.928l9.692-6.87c0.096-0.068,0.215,0.05,0.146,0.146l-6.869,9.692
				l6.928,10.347C74.253,454.75,74.138,454.864,74.043,454.799z"/>
			<path style="fill:#FFC229;" d="M86.385,444.599l-19.267,3.737l-3.148,19.389c-0.03,0.185-0.297,0.185-0.327,0l-3.148-19.389
				l-19.267-3.737c-0.179-0.035-0.179-0.29-0.001-0.325l19.268-3.814l3.148-18.472c0.031-0.184,0.295-0.184,0.326,0l3.148,18.472
				l19.268,3.814C86.563,444.309,86.563,444.564,86.385,444.599z"/>
		</g>
		<g>
			<path style="fill:#FFD694;" d="M57.209,412.378l-1.735-8.945l-9.001-1.461c-0.086-0.014-0.086-0.138,0-0.152l9.001-1.461
				l1.735-8.945c0.016-0.083,0.134-0.083,0.151,0l1.771,8.945l8.576,1.461c0.085,0.015,0.085,0.137,0,0.152l-8.576,1.461
				l-1.771,8.945C57.343,412.461,57.225,412.461,57.209,412.378z"/>
			<path style="fill:#FFD694;" d="M68.882,413.486l-11.912-8.042l-11.67,8.41c-0.112,0.081-0.25-0.058-0.169-0.169l8.41-11.67
				l-8.042-11.912c-0.075-0.11,0.057-0.243,0.168-0.169l11.952,8.002l11.195-7.935c0.111-0.079,0.248,0.058,0.169,0.169
				l-7.935,11.195l8.002,11.952C69.124,413.429,68.992,413.561,68.882,413.486z"/>
		</g>
	</g>
	<g>
		<path style="fill:#FFC229;" d="M304.396,310.043l21.208,4.113l3.465,21.342c0.033,0.204,0.327,0.204,0.36,0l3.465-21.342
			l21.208-4.113c0.196-0.038,0.197-0.319,0.001-0.358l-21.209-4.198l-3.465-20.333c-0.034-0.202-0.325-0.202-0.359,0l-3.465,20.333
			l-21.209,4.198C304.199,309.724,304.199,310.005,304.396,310.043z"/>
		<path style="fill:#FFC229;" d="M282.769,335.469l13.668,2.651l2.233,13.755c0.021,0.132,0.211,0.132,0.232,0l2.233-13.755
			l13.668-2.651c0.126-0.025,0.127-0.206,0-0.231l-13.669-2.706l-2.233-13.104c-0.022-0.13-0.209-0.13-0.232,0l-2.233,13.104
			l-13.669,2.706C282.642,335.263,282.643,335.444,282.769,335.469z"/>
		<path style="fill:#FFE6A1;" d="M293.7,284.882l9.001,1.746l1.471,9.058c0.014,0.087,0.139,0.087,0.153,0l1.47-9.058l9.001-1.746
			c0.083-0.016,0.084-0.135,0-0.152l-9.001-1.782l-1.471-8.63c-0.015-0.086-0.138-0.086-0.152,0l-1.471,8.63l-9.001,1.782
			C293.616,284.746,293.617,284.865,293.7,284.882z"/>
	</g>
	<path style="fill:#FFC229;" d="M456.019,314.367l-10.828,6.897c-6.415,4.076-11.214,10.249-13.553,17.484l-3.28,10.104
		l-0.724,2.219l-0.434,1.133l-0.458-1.133l-0.723-2.219l-3.28-10.104c-2.339-7.235-7.138-13.408-13.553-17.484l-10.828-6.897
		l10.779-7.5c5.667-3.955,9.936-9.598,12.202-16.109l5.812-16.736l0.048,0.096l0.024-0.096l5.812,16.736
		c2.267,6.511,6.535,12.154,12.202,16.109L456.019,314.367z"/>
	<g>
		<circle style="fill:#FFE6A1;" cx="229.09" cy="341.458" r="2.703"/>
		<circle style="fill:#FFE6A1;" cx="166.734" cy="296.958" r="2.703"/>
		<circle style="fill:#FFC229;" cx="216.841" cy="332.445" r="1.771"/>
		<circle style="fill:#FFC229;" cx="222.382" cy="347.702" r="1.771"/>
		<g>
			<path style="fill:#FFC229;" d="M174.847,333.685l10.335-15.308l-10.808-14.997c-0.103-0.143,0.074-0.321,0.217-0.218
				l14.997,10.808l15.308-10.335c0.142-0.096,0.312,0.074,0.217,0.216l-10.284,15.359l10.197,14.387
				c0.101,0.143-0.074,0.319-0.217,0.217l-14.387-10.197l-15.359,10.284C174.921,333.997,174.752,333.827,174.847,333.685z"/>
			<path style="fill:#FFC229;" d="M189.99,352.005l-5.547-28.601l-28.782-4.673c-0.275-0.045-0.275-0.441,0-0.485l28.782-4.673
				l5.547-28.601c0.051-0.265,0.43-0.266,0.482-0.001l5.661,28.602l27.421,4.673c0.273,0.047,0.273,0.438,0,0.485l-27.421,4.673
				l-5.661,28.602C190.42,352.271,190.041,352.27,189.99,352.005z"/>
		</g>
		<g>
			<path style="fill:#FFC229;" d="M251.629,295.315l-18.681,1.823l-1.904,19.133c-0.028,0.171-0.273,0.171-0.301,0l-2.228-19.133
				l-18.473-1.823c-0.164-0.032-0.165-0.267-0.001-0.299l18.474-1.523l2.228-19.343c0.029-0.169,0.272-0.169,0.301,0l1.904,19.343
				l18.682,1.523C251.794,295.048,251.794,295.283,251.629,295.315z"/>
			<circle style="fill:#FFC229;" cx="230.732" cy="295.315" r="4.999"/>
		</g>
	</g>
	<g>
		<path style="fill:#FFE6A1;" d="M90.762,318.101l-9.759,6.217c-5.782,3.673-10.107,9.238-12.215,15.758l-2.956,9.107l-0.652,2
			l-0.391,1.022l-0.413-1.022l-0.652-2l-2.956-9.107c-2.108-6.521-6.434-12.085-12.215-15.758l-9.759-6.217l9.716-6.76
			c5.108-3.565,8.955-8.651,10.998-14.52l5.238-15.085l0.043,0.087l0.022-0.087l5.238,15.085c2.043,5.869,5.89,10.955,10.998,14.52
			L90.762,318.101z"/>
		<path style="fill:#FFC229;" d="M128.34,298.221l-6.494,4.137c-3.847,2.444-6.726,6.147-8.129,10.487l-1.967,6.061l-0.434,1.331
			l-0.26,0.68l-0.275-0.68l-0.434-1.331l-1.967-6.061c-1.403-4.339-4.281-8.042-8.129-10.487l-6.494-4.137l6.465-4.499
			c3.399-2.372,5.959-5.757,7.319-9.662l3.486-10.038l0.029,0.058l0.014-0.058l3.486,10.038c1.36,3.905,3.92,7.29,7.319,9.662
			L128.34,298.221z"/>
	</g>
</g>
</svg>
