<?xml version="1.0" encoding="utf-8"?>
<!-- Generator: Adobe Illustrator 27.5.0, SVG Export Plug-In . SVG Version: 6.00 Build 0)  -->
<svg version="1.1" xmlns="http://www.w3.org/2000/svg" xmlns:xlink="http://www.w3.org/1999/xlink" x="0px" y="0px"
	 viewBox="0 0 800 800" style="enable-background:new 0 0 800 800;" xml:space="preserve">
<g id="_x35_7">
	<rect style="fill:#FFFCEC;" width="800" height="800"/>
	<g>
		<g>
			<path style="fill:#FF9D27;" d="M394.683,455.547c-5.332,0-10.541-1.875-14.659-5.279c-4.746-3.917-7.677-9.446-8.261-15.571
				c-0.582-6.122,1.255-12.106,5.175-16.852c4.392-5.314,10.866-8.362,17.765-8.362c5.335,0,10.54,1.875,14.661,5.279
				c4.742,3.92,7.677,9.449,8.257,15.571c0.586,6.123-1.251,12.109-5.171,16.853C408.059,452.498,401.582,455.547,394.683,455.547
				L394.683,455.547z M394.702,411.922c-6.167,0-11.957,2.725-15.882,7.476c-3.503,4.243-5.148,9.595-4.626,15.067
				c0.52,5.473,3.142,10.417,7.384,13.92c3.684,3.046,8.336,4.722,13.104,4.722c6.169,0,11.957-2.725,15.883-7.476
				c3.503-4.243,5.148-9.595,4.626-15.067c-0.522-5.473-3.145-10.417-7.384-13.92C404.124,413.598,399.469,411.922,394.702,411.922
				L394.702,411.922z"/>
		</g>
		<path style="fill:#FF9D27;" d="M401.641,424.107c4.639,3.831,5.3,10.703,1.456,15.35c-3.833,4.646-10.716,5.304-15.354,1.461
			c-4.641-3.828-5.298-10.708-1.456-15.352C390.125,420.92,396.997,420.275,401.641,424.107z"/>
		<path style="fill:#999999;" d="M320.624,412.349c0,3.819-1.418,5.922-3.904,5.922c-2.189,0-3.678-2.056-3.712-5.77
			c0-3.767,1.616-5.832,3.9-5.832C319.274,406.669,320.624,408.775,320.624,412.349z M314.53,412.518
			c0,2.923,0.89,4.577,2.275,4.577c1.553,0,2.295-1.806,2.295-4.68c0-2.762-0.71-4.581-2.279-4.581
			C315.486,407.834,314.53,409.464,314.53,412.518z"/>
		<path style="fill:#999999;" d="M320.246,385.81v-0.928l1.198-1.158c2.858-2.73,4.152-4.182,4.171-5.882
			c0-1.132-0.549-2.185-2.227-2.185c-1.016,0-1.869,0.508-2.378,0.956l-0.491-1.082c0.784-0.657,1.88-1.14,3.18-1.14
			c2.421,0,3.439,1.662,3.439,3.269c0,2.064-1.499,3.743-3.874,6.021l-0.892,0.832v0.032h5.035v1.266H320.246z"/>
		<path style="fill:#999999;" d="M336.566,380.078c0,3.818-1.414,5.921-3.899,5.921c-2.196,0-3.678-2.054-3.717-5.77
			c0-3.765,1.626-5.837,3.905-5.837C335.222,374.392,336.566,376.504,336.566,380.078z M330.471,380.25
			c0,2.923,0.904,4.576,2.282,4.576c1.551,0,2.298-1.81,2.298-4.683c0-2.765-0.706-4.574-2.279-4.574
			C331.442,375.569,330.471,377.193,330.471,380.25z"/>
		<path style="fill:#999999;" d="M347.252,357.565v-3.056h-5.22v-0.999l5.013-7.168h1.635v6.975h1.575v1.192h-1.575v3.056H347.252z
			 M347.252,353.316v-3.747c0-0.581,0.011-1.173,0.043-1.755h-0.043c-0.348,0.656-0.622,1.131-0.939,1.653l-2.742,3.818v0.03
			H347.252z"/>
		<path style="fill:#999999;" d="M358.873,351.832c0,3.818-1.411,5.925-3.899,5.925c-2.195,0-3.678-2.055-3.711-5.772
			c0-3.768,1.625-5.835,3.899-5.835C357.529,346.151,358.873,348.259,358.873,351.832z M352.778,352.01
			c0,2.916,0.903,4.574,2.284,4.574c1.55,0,2.293-1.811,2.293-4.684c0-2.762-0.703-4.577-2.282-4.577
			C353.749,347.324,352.778,348.945,352.778,352.01z"/>
		<path style="fill:#999999;" d="M379.965,334.173c-0.306-0.022-0.71,0-1.14,0.067c-2.378,0.4-3.639,2.14-3.897,3.99h0.047
			c0.541-0.714,1.471-1.298,2.715-1.298c1.979,0,3.38,1.437,3.38,3.622c0,2.06-1.402,3.962-3.731,3.962
			c-2.4,0-3.971-1.864-3.971-4.789c0-2.212,0.796-3.946,1.905-5.054c0.926-0.919,2.17-1.485,3.589-1.66
			c0.444-0.064,0.83-0.085,1.102-0.085V334.173z M377.358,343.341c1.296,0,2.178-1.088,2.178-2.691c0-1.609-0.914-2.58-2.311-2.58
			c-0.916,0-1.767,0.569-2.177,1.384c-0.108,0.168-0.174,0.399-0.174,0.673c0.038,1.853,0.877,3.214,2.467,3.214H377.358z"/>
		<path style="fill:#999999;" d="M389.884,338.59c0,3.818-1.418,5.926-3.904,5.926c-2.19,0-3.678-2.064-3.712-5.772
			c0-3.764,1.622-5.834,3.903-5.834C388.53,332.91,389.884,335.017,389.884,338.59z M383.79,338.763
			c0,2.921,0.895,4.578,2.275,4.578c1.553,0,2.299-1.814,2.299-4.68c0-2.767-0.707-4.579-2.283-4.579
			C384.759,334.082,383.79,335.706,383.79,338.763z"/>
		<path style="fill:#999999;" d="M406.794,337.026c-1.247-0.591-1.784-1.554-1.784-2.526c0-1.777,1.507-2.987,3.467-2.987
			c2.181,0,3.267,1.365,3.267,2.762c0,0.946-0.462,1.972-1.845,2.625v0.053c1.402,0.55,2.269,1.531,2.269,2.903
			c0,1.95-1.679,3.261-3.829,3.261c-2.334,0-3.76-1.397-3.76-3.035c0-1.421,0.851-2.419,2.233-3.008L406.794,337.026z
			 M410.622,340.015c0-1.365-0.946-2.021-2.466-2.459c-1.314,0.376-2.019,1.239-2.019,2.314c-0.053,1.147,0.808,2.14,2.243,2.14
			C409.746,342.01,410.622,341.148,410.622,340.015z M406.445,334.401c0,1.118,0.846,1.719,2.141,2.07
			c0.972-0.324,1.703-1.022,1.703-2.043c0-0.889-0.525-1.826-1.888-1.826C407.135,332.602,406.445,333.433,406.445,334.401z"/>
		<path style="fill:#999999;" d="M421.043,337.197c0,3.82-1.421,5.919-3.904,5.919c-2.191,0-3.68-2.053-3.713-5.769
			c0-3.764,1.623-5.835,3.907-5.835C419.697,331.513,421.043,333.626,421.043,337.197z M414.948,337.369
			c0,2.92,0.896,4.575,2.278,4.575c1.555,0,2.289-1.817,2.289-4.678c0-2.767-0.706-4.577-2.276-4.577
			C415.912,332.69,414.948,334.313,414.948,337.369z"/>
		<polygon style="fill:#999999;" points="433.265,347.753 433.227,347.753 431.273,348.809 430.981,347.653 433.434,346.342 
			434.721,346.342 434.721,357.565 433.265,357.565 		"/>
		<path style="fill:#999999;" d="M446.285,351.832c0,3.818-1.408,5.925-3.9,5.925c-2.201,0-3.677-2.055-3.715-5.772
			c0-3.768,1.623-5.835,3.899-5.835C444.939,346.151,446.285,348.259,446.285,351.832z M440.185,352.01
			c0,2.916,0.901,4.574,2.287,4.574c1.547,0,2.294-1.811,2.294-4.684c0-2.762-0.709-4.577-2.273-4.577
			C441.159,347.324,440.185,348.945,440.185,352.01z"/>
		<path style="fill:#999999;" d="M455.145,351.832c0,3.818-1.411,5.925-3.893,5.925c-2.204,0-3.683-2.055-3.723-5.772
			c0-3.768,1.625-5.835,3.906-5.835C453.803,346.151,455.145,348.259,455.145,351.832z M449.048,352.01
			c0,2.916,0.904,4.574,2.282,4.574c1.555,0,2.299-1.811,2.299-4.684c0-2.762-0.709-4.577-2.271-4.577
			C450.022,347.324,449.048,348.945,449.048,352.01z"/>
		<polygon style="fill:#999999;" points="458.886,375.998 458.858,375.998 456.902,377.054 456.614,375.894 459.063,374.585 
			460.359,374.585 460.359,385.81 458.886,385.81 		"/>
		<path style="fill:#999999;" d="M464.45,385.81v-0.928l1.194-1.158c2.872-2.73,4.164-4.182,4.179-5.882
			c0-1.132-0.555-2.185-2.221-2.185c-1.022,0-1.872,0.508-2.39,0.956l-0.479-1.082c0.772-0.657,1.883-1.14,3.172-1.14
			c2.421,0,3.44,1.662,3.44,3.269c0,2.064-1.499,3.743-3.872,6.021l-0.894,0.832v0.032h5.043v1.266H464.45z"/>
		<path style="fill:#999999;" d="M480.779,380.078c0,3.818-1.411,5.921-3.904,5.921c-2.19,0-3.67-2.054-3.71-5.77
			c0-3.765,1.625-5.837,3.901-5.837C479.436,374.392,480.779,376.504,480.779,380.078z M474.685,380.25
			c0,2.923,0.9,4.576,2.281,4.576c1.544,0,2.294-1.81,2.294-4.683c0-2.765-0.707-4.574-2.279-4.574
			C475.65,375.569,474.685,377.193,474.685,380.25z"/>
		<polygon style="fill:#999999;" points="469.379,408.271 469.344,408.271 467.391,409.326 467.101,408.168 469.554,406.852 
			470.843,406.852 470.843,418.082 469.379,418.082 		"/>
		<path style="fill:#999999;" d="M479.641,418.082v-3.06h-5.211v-0.997l5.007-7.173h1.638v6.982h1.575v1.188h-1.575v3.06H479.641z
			 M479.641,413.834v-3.754c0-0.582,0.022-1.169,0.053-1.756h-0.053c-0.343,0.659-0.618,1.14-0.929,1.659l-2.746,3.815v0.035
			H479.641z"/>
		<path style="fill:#999999;" d="M491.265,412.349c0,3.819-1.418,5.922-3.898,5.922c-2.198,0-3.683-2.056-3.713-5.77
			c0-3.767,1.623-5.832,3.904-5.832C489.917,406.669,491.265,408.775,491.265,412.349z M485.168,412.518
			c0,2.923,0.898,4.577,2.283,4.577c1.55,0,2.295-1.806,2.295-4.68c0-2.762-0.704-4.581-2.282-4.581
			C486.14,407.834,485.168,409.464,485.168,412.518z"/>
		<polygon style="fill:#999999;" points="465.809,440.449 465.773,440.449 463.819,441.505 463.524,440.35 465.987,439.03 
			467.279,439.03 467.279,450.268 465.809,450.268 		"/>
		<path style="fill:#999999;" d="M477.781,440.112c-0.314-0.023-0.707,0-1.134,0.065c-2.385,0.397-3.65,2.14-3.904,3.99h0.043
			c0.535-0.716,1.477-1.303,2.721-1.303c1.982,0,3.379,1.436,3.379,3.627c0,2.064-1.397,3.959-3.734,3.959
			c-2.398,0-3.965-1.87-3.965-4.787c0-2.212,0.792-3.947,1.898-5.055c0.932-0.919,2.178-1.482,3.586-1.658
			c0.455-0.065,0.833-0.089,1.111-0.089V440.112z M475.177,449.278c1.292,0,2.173-1.095,2.173-2.695
			c0-1.605-0.914-2.576-2.317-2.576c-0.911,0-1.759,0.572-2.168,1.386c-0.11,0.167-0.182,0.397-0.182,0.673
			c0.041,1.85,0.881,3.213,2.469,3.213H475.177z"/>
		<path style="fill:#999999;" d="M487.699,444.527c0,3.819-1.419,5.924-3.904,5.924c-2.189,0-3.683-2.062-3.71-5.769
			c0-3.77,1.62-5.835,3.899-5.835C486.352,438.848,487.699,440.955,487.699,444.527z M481.606,444.699
			c0,2.922,0.889,4.579,2.27,4.579c1.561,0,2.304-1.817,2.304-4.682c0-2.764-0.712-4.577-2.281-4.577
			C482.568,440.02,481.606,441.642,481.606,444.699z"/>
		<polygon style="fill:#999999;" points="447.902,472.867 447.864,472.867 445.916,473.925 445.624,472.77 448.066,471.451 
			449.363,471.451 449.363,482.682 447.902,482.682 		"/>
		<path style="fill:#999999;" d="M455.542,476.777c-1.249-0.594-1.784-1.555-1.784-2.522c0-1.782,1.499-2.991,3.465-2.991
			c2.181,0,3.266,1.369,3.266,2.761c0,0.946-0.459,1.974-1.845,2.625v0.052c1.405,0.551,2.271,1.535,2.271,2.903
			c0,1.954-1.681,3.267-3.826,3.267c-2.345,0-3.766-1.403-3.766-3.04c0-1.418,0.851-2.42,2.229-3.004L455.542,476.777z
			 M459.373,479.765c0-1.365-0.951-2.021-2.474-2.453c-1.314,0.376-2.014,1.239-2.014,2.306c-0.063,1.148,0.808,2.15,2.241,2.15
			C458.489,481.768,459.373,480.904,459.373,479.765z M455.191,474.15c0,1.118,0.85,1.722,2.143,2.07
			c0.969-0.32,1.706-1.02,1.706-2.039c0-0.892-0.53-1.83-1.894-1.83C455.88,472.352,455.191,473.185,455.191,474.15z"/>
		<path style="fill:#999999;" d="M469.783,476.947c0,3.818-1.413,5.924-3.901,5.924c-2.193,0-3.678-2.061-3.715-5.771
			c0-3.765,1.627-5.836,3.909-5.836C468.438,471.264,469.783,473.376,469.783,476.947z M463.688,477.118
			c0,2.92,0.903,4.574,2.284,4.574c1.552,0,2.289-1.81,2.289-4.676c0-2.762-0.702-4.578-2.274-4.578
			C464.657,472.439,463.688,474.063,463.688,477.118z"/>
		
			<rect x="355.171" y="161.961" transform="matrix(0.9849 -0.1731 0.1731 0.9849 -25.3036 64.6845)" style="fill:#707070;" width="6.197" height="30.96"/>
		<polygon style="fill:#707070;" points="290.48,217.384 285.136,220.473 269.648,193.664 275.007,190.567 		"/>
		
			<rect x="213.333" y="243.344" transform="matrix(0.6439 -0.7651 0.7651 0.6439 -120.957 257.7462)" style="fill:#707070;" width="6.189" height="30.954"/>
		<polygon style="fill:#707070;" points="188.891,333.476 186.783,339.288 157.696,328.7 159.804,322.885 		"/>
		<polygon style="fill:#707070;" points="174.206,412.149 174.206,418.332 143.261,418.327 143.248,412.142 		"/>
		<polygon style="fill:#707070;" points="511,612.015 516.354,608.918 531.834,635.727 526.463,638.842 		"/>
		<polygon style="fill:#707070;" points="572.546,561.661 576.521,556.925 600.222,576.826 596.239,581.582 		"/>
		<polygon style="fill:#707070;" points="612.108,493.869 614.226,488.053 643.301,498.645 641.193,504.477 		"/>
		<polygon style="fill:#707070;" points="626.198,416.349 626.183,410.166 657.134,410.174 657.154,416.375 		"/>
		<polygon style="fill:#707070;" points="612.32,338.873 610.2,333.063 639.288,322.488 641.418,328.311 		"/>
		<polygon style="fill:#707070;" points="574.519,271.558 570.537,266.824 594.25,246.938 598.258,251.678 		"/>
		<polygon style="fill:#707070;" points="515.321,219.815 509.974,216.716 525.446,189.923 530.834,193.013 		"/>
		<polygon style="fill:#707070;" points="442.481,193.225 436.385,192.152 441.772,161.676 447.885,162.746 		"/>
		
			<rect x="315.252" y="175.658" transform="matrix(0.9394 -0.3427 0.3427 0.9394 -45.0286 120.2173)" style="fill:#999999;" width="4.74" height="23.705"/>
		
			<rect x="242.997" y="217.372" transform="matrix(0.766 -0.6429 0.6429 0.766 -89.9386 211.3758)" style="fill:#999999;" width="4.741" height="23.704"/>
		<polygon style="fill:#999999;" points="203.186,297 200.814,301.109 180.292,289.256 182.654,285.157 		"/>
		<polygon style="fill:#999999;" points="173.531,370.636 172.707,375.316 149.37,371.196 150.183,366.537 		"/>
		<polygon style="fill:#999999;" points="544.755,589.709 548.382,586.663 563.622,604.819 559.988,607.873 		"/>
		
			<rect x="605.455" y="521.507" transform="matrix(0.5001 -0.866 0.866 0.5001 -158.019 792.9841)" style="fill:#999999;" width="4.74" height="23.704"/>
		<polygon style="fill:#999999;" points="624.272,455.24 625.102,450.57 648.447,454.689 647.619,459.351 		"/>
		<polygon style="fill:#999999;" points="625.102,375.928 624.272,371.247 647.629,367.14 648.447,371.805 		"/>
		<polygon style="fill:#999999;" points="598.747,301.112 596.375,297.007 616.913,285.157 619.272,289.256 		"/>
		<polygon style="fill:#999999;" points="548.392,239.828 544.763,236.779 560.011,218.614 563.625,221.67 		"/>
		
			<rect x="470.09" y="185.141" transform="matrix(0.3433 -0.9392 0.9392 0.3433 140.3974 575.8055)" style="fill:#999999;" width="23.714" height="4.733"/>
		<polygon style="fill:#999999;" points="402.152,184.876 397.419,184.87 397.419,161.158 402.163,161.167 		"/>
		
			<rect x="390.044" y="164.626" transform="matrix(0.9994 -0.0332 0.0332 0.9994 -5.5465 13.1032)" style="fill:#999999;" width="3.579" height="17.918"/>
		<polygon style="fill:#999999;" points="385.884,182.841 382.321,183.079 381.061,165.21 384.635,164.963 		"/>
		
			<rect x="373.355" y="165.795" transform="matrix(0.9946 -0.1035 0.1035 0.9946 -16.0762 39.7774)" style="fill:#999999;" width="3.573" height="17.916"/>
		<polygon style="fill:#999999;" points="369.853,184.395 366.315,184.895 363.815,167.145 367.364,166.657 		"/>
		<polygon style="fill:#999999;" points="353.972,187.074 350.477,187.811 346.748,170.28 350.252,169.546 		"/>
		<polygon style="fill:#999999;" points="346.105,188.822 342.646,189.683 338.303,172.295 341.782,171.438 		"/>
		<polygon style="fill:#999999;" points="338.316,190.846 334.885,191.825 329.938,174.6 333.383,173.626 		"/>
		<polygon style="fill:#999999;" points="330.589,193.136 327.195,194.243 321.656,177.203 325.061,176.102 		"/>
		<polygon style="fill:#999999;" points="315.419,198.531 312.111,199.871 305.39,183.253 308.709,181.919 		"/>
		<polygon style="fill:#999999;" points="307.979,201.624 304.719,203.069 297.424,186.705 300.692,185.256 		"/>
		
			<rect x="293.339" y="188.738" transform="matrix(0.899 -0.438 0.438 0.899 -56.7792 149.2527)" style="fill:#999999;" width="3.567" height="17.919"/>
		<polygon style="fill:#999999;" points="293.445,208.571 290.3,210.245 281.882,194.421 285.043,192.75 		"/>
		<polygon style="fill:#999999;" points="279.434,216.512 276.412,218.405 266.907,203.21 269.946,201.319 		"/>
		
			<rect x="264.376" y="205.458" transform="matrix(0.8293 -0.5588 0.5588 0.8293 -74.3842 185.3405)" style="fill:#999999;" width="3.569" height="17.918"/>
		<polygon style="fill:#999999;" points="266.015,225.417 263.131,227.51 252.595,213.017 255.489,210.922 		"/>
		<polygon style="fill:#999999;" points="259.548,230.216 256.735,232.404 245.699,218.29 248.517,216.097 		"/>
		<polygon style="fill:#999999;" points="247.124,240.468 244.476,242.857 232.481,229.544 235.141,227.16 		"/>
		<polygon style="fill:#999999;" points="241.196,245.916 238.633,248.394 226.173,235.511 228.75,233.034 		"/>
		<polygon style="fill:#999999;" points="235.453,251.57 232.976,254.134 220.08,241.696 222.566,239.127 		"/>
		<polygon style="fill:#999999;" points="229.914,257.42 227.534,260.066 214.204,248.08 216.602,245.429 		"/>
		<polygon style="fill:#999999;" points="219.472,269.673 217.277,272.483 203.143,261.458 205.351,258.643 		"/>
		<polygon style="fill:#999999;" points="214.566,276.068 212.48,278.95 197.973,268.427 200.08,265.542 		"/>
		<polygon style="fill:#999999;" points="209.901,282.631 207.904,285.583 193.048,275.572 195.055,272.614 		"/>
		<polygon style="fill:#999999;" points="205.458,289.353 203.575,292.375 188.376,282.888 190.271,279.858 		"/>
		<polygon style="fill:#999999;" points="197.296,303.238 195.629,306.383 179.804,297.98 181.492,294.828 		"/>
		<polygon style="fill:#999999;" points="193.586,310.389 192.026,313.587 175.915,305.744 177.489,302.533 		"/>
		<polygon style="fill:#999999;" points="190.128,317.663 188.679,320.917 172.302,313.633 173.768,310.37 		"/>
		<polygon style="fill:#999999;" points="186.924,325.046 185.582,328.354 168.979,321.649 170.324,318.338 		"/>
		<polygon style="fill:#999999;" points="181.296,340.138 180.2,343.529 163.153,338.004 164.273,334.607 		"/>
		<polygon style="fill:#999999;" points="178.886,347.82 177.899,351.248 160.679,346.321 161.668,342.888 		"/>
		<polygon style="fill:#999999;" points="176.745,355.586 175.868,359.048 158.491,354.721 159.365,351.248 		"/>
		<polygon style="fill:#999999;" points="174.867,363.424 174.123,366.912 156.6,363.19 157.351,359.694 		"/>
		<polygon style="fill:#999999;" points="171.951,379.26 171.446,382.787 153.713,380.306 154.216,376.767 		"/>
		<polygon style="fill:#999999;" points="170.915,387.25 170.529,390.792 152.714,388.931 153.101,385.369 		"/>
		<polygon style="fill:#999999;" points="170.149,395.267 169.887,398.823 152.023,397.581 152.283,394.013 		"/>
		<polygon style="fill:#999999;" points="169.659,403.308 169.53,406.865 151.626,406.251 151.768,402.678 		"/>
		<polygon style="fill:#999999;" points="520.962,609.747 523.992,607.876 533.494,623.066 530.456,624.949 		"/>
		<polygon style="fill:#999999;" points="527.745,605.42 530.713,603.437 540.742,618.278 537.779,620.269 		"/>
		<polygon style="fill:#999999;" points="534.38,600.849 537.274,598.766 547.813,613.254 544.919,615.349 		"/>
		<polygon style="fill:#999999;" points="540.846,596.05 543.667,593.866 554.716,607.979 551.887,610.17 		"/>
		<polygon style="fill:#999999;" points="553.263,585.797 555.923,583.424 567.926,596.725 565.266,599.113 		"/>
		<polygon style="fill:#999999;" points="559.195,580.352 561.775,577.885 574.237,590.76 571.655,593.234 		"/>
		<polygon style="fill:#999999;" points="564.94,574.699 567.421,572.146 580.319,584.579 577.836,587.144 		"/>
		<polygon style="fill:#999999;" points="570.479,568.849 572.869,566.209 586.202,578.185 583.802,580.842 		"/>
		<polygon style="fill:#999999;" points="580.923,556.592 583.133,553.795 597.256,564.812 595.056,567.623 		"/>
		<polygon style="fill:#999999;" points="585.821,550.2 587.934,547.32 602.432,557.843 600.325,560.727 		"/>
		<polygon style="fill:#999999;" points="590.492,543.632 592.494,540.694 607.358,550.698 605.35,553.654 		"/>
		<polygon style="fill:#999999;" points="594.932,536.915 596.837,533.898 612.032,543.385 610.135,546.408 		"/>
		<polygon style="fill:#999999;" points="603.091,523.029 604.779,519.888 620.602,528.29 618.914,531.44 		"/>
		<polygon style="fill:#999999;" points="606.801,515.879 608.381,512.684 624.494,520.525 622.912,523.732 		"/>
		<polygon style="fill:#999999;" points="610.269,508.605 611.729,505.356 628.101,512.632 626.637,515.898 		"/>
		<polygon style="fill:#999999;" points="613.471,501.224 614.818,497.921 631.435,504.623 630.079,507.932 		"/>
		<polygon style="fill:#999999;" points="619.094,486.132 620.214,482.746 637.257,488.265 636.126,491.661 		"/>
		<polygon style="fill:#999999;" points="621.509,478.443 622.506,475.022 639.73,479.949 638.73,483.381 		"/>
		<polygon style="fill:#999999;" points="623.648,470.682 624.529,467.223 641.916,471.547 641.04,475.02 		"/>
		<polygon style="fill:#999999;" points="625.524,462.844 626.286,459.361 643.806,463.078 643.051,466.575 		"/>
		<polygon style="fill:#999999;" points="628.44,447.009 628.961,443.483 646.693,445.965 646.185,449.503 		"/>
		<polygon style="fill:#999999;" points="629.483,439.02 629.872,435.48 647.689,437.341 647.304,440.899 		"/>
		<polygon style="fill:#999999;" points="630.243,431.004 630.516,427.45 648.387,428.69 648.121,432.253 		"/>
		<polygon style="fill:#999999;" points="630.727,422.969 630.877,419.405 648.775,420.017 648.634,423.591 		"/>
		<polygon style="fill:#999999;" points="630.847,406.863 630.756,403.295 648.651,402.656 648.763,406.238 		"/>
		<polygon style="fill:#999999;" points="630.496,398.816 630.264,395.257 648.137,393.996 648.366,397.567 		"/>
		<polygon style="fill:#999999;" points="629.852,390.79 629.502,387.24 647.313,385.357 647.675,388.913 		"/>
		<polygon style="fill:#999999;" points="628.934,382.786 628.464,379.248 646.193,376.745 646.678,380.293 		"/>
		<polygon style="fill:#999999;" points="626.261,366.9 625.544,363.413 643.063,359.679 643.785,363.179 		"/>
		<polygon style="fill:#999999;" points="624.512,359.045 623.661,355.579 641.045,351.238 641.893,354.71 		"/>
		<polygon style="fill:#999999;" points="622.485,351.248 621.519,347.815 638.738,342.868 639.7,346.308 		"/>
		<polygon style="fill:#999999;" points="620.184,343.529 619.106,340.125 636.144,334.585 637.231,337.994 		"/>
		<polygon style="fill:#999999;" points="614.801,328.349 613.478,325.036 630.084,318.32 631.407,321.636 		"/>
		<polygon style="fill:#999999;" points="611.707,320.912 610.273,317.641 626.637,310.356 628.078,313.622 		"/>
		<polygon style="fill:#999999;" points="608.357,313.587 606.815,310.37 622.912,302.517 624.464,305.734 		"/>
		<polygon style="fill:#999999;" points="604.757,306.383 603.103,303.227 618.914,294.804 620.583,297.967 		"/>
		<polygon style="fill:#999999;" points="596.811,292.374 594.944,289.339 610.124,279.842 612.007,282.883 		"/>
		<polygon style="fill:#999999;" points="592.476,285.583 590.503,282.616 605.347,272.595 607.333,275.569 		"/>
		<polygon style="fill:#999999;" points="587.905,278.95 585.834,276.057 600.313,265.522 602.412,268.426 		"/>
		<polygon style="fill:#999999;" points="583.105,272.483 580.938,269.66 595.045,258.628 597.238,261.448 		"/>
		<polygon style="fill:#999999;" points="572.852,260.066 570.484,257.4 583.787,245.41 586.177,248.08 		"/>
		<polygon style="fill:#999999;" points="567.405,254.134 564.947,251.554 577.823,239.105 580.302,241.686 		"/>
		<polygon style="fill:#999999;" points="561.752,248.394 559.201,245.903 571.638,233.012 574.209,235.508 		"/>
		<polygon style="fill:#999999;" points="555.905,242.857 553.272,240.457 565.245,227.143 567.902,229.544 		"/>
		<polygon style="fill:#999999;" points="543.644,232.414 540.855,230.202 551.869,216.083 554.684,218.29 		"/>
		<polygon style="fill:#999999;" points="537.25,227.518 534.388,225.4 544.896,210.907 547.789,213.017 		"/>
		<polygon style="fill:#999999;" points="530.685,222.848 527.745,220.835 537.752,205.98 540.712,207.992 		"/>
		<polygon style="fill:#999999;" points="523.973,218.406 520.962,216.502 530.438,201.306 533.469,203.21 		"/>
		<polygon style="fill:#999999;" points="510.082,210.252 506.945,208.555 515.347,192.736 518.506,194.421 		"/>
		<polygon style="fill:#999999;" points="502.932,206.541 499.745,204.957 507.586,188.849 510.804,190.431 		"/>
		<polygon style="fill:#999999;" points="495.661,203.077 492.418,201.603 499.691,185.241 502.96,186.705 		"/>
		<polygon style="fill:#999999;" points="488.27,199.873 484.976,198.519 491.677,181.907 494.992,183.256 		"/>
		<polygon style="fill:#999999;" points="473.185,194.247 469.806,193.125 475.325,176.09 478.727,177.203 		"/>
		<polygon style="fill:#999999;" points="465.495,191.838 462.078,190.833 467.01,173.613 470.452,174.605 		"/>
		<polygon style="fill:#999999;" points="457.735,189.694 454.282,188.809 458.601,171.422 462.083,172.299 		"/>
		<polygon style="fill:#999999;" points="449.906,187.822 446.419,187.063 450.131,169.534 453.642,170.288 		"/>
		<polygon style="fill:#999999;" points="434.067,184.898 430.534,184.383 433.016,166.644 436.568,167.148 		"/>
		<polygon style="fill:#999999;" points="426.082,183.856 422.537,183.465 424.395,165.646 427.955,166.033 		"/>
		<polygon style="fill:#999999;" points="418.064,183.093 414.512,182.824 415.745,164.953 419.319,165.212 		"/>
		<polygon style="fill:#999999;" points="410.029,182.61 406.461,182.466 407.068,164.564 410.657,164.693 		"/>
		<path style="fill:#999999;" d="M201.265,415.639c0,8.788-3.261,13.635-8.984,13.635c-5.054,0-8.467-4.728-8.556-13.277
			c0-8.667,3.74-13.444,8.987-13.444C198.162,402.552,201.265,407.404,201.265,415.639z M187.227,416.037
			c0,6.717,2.064,10.535,5.247,10.535c3.581,0,5.291-4.174,5.291-10.773c0-6.365-1.635-10.539-5.253-10.539
			C189.453,405.26,187.227,408.994,187.227,416.037z"/>
		<polygon style="fill:#999999;" points="204.421,333.66 204.343,333.66 199.851,336.092 199.177,333.424 204.821,330.401 
			207.801,330.401 207.801,356.249 204.421,356.249 		"/>
		<path style="fill:#999999;" d="M234.416,343.043c0,8.793-3.256,13.645-8.982,13.645c-5.051,0-8.467-4.732-8.55-13.282
			c0-8.668,3.743-13.443,8.984-13.443C231.317,329.963,234.416,334.814,234.416,343.043z M220.383,343.446
			c0,6.719,2.067,10.538,5.247,10.538c3.583,0,5.29-4.175,5.29-10.779c0-6.36-1.63-10.534-5.252-10.534
			C222.609,332.671,220.383,336.406,220.383,343.446z"/>
		<path style="fill:#999999;" d="M232.364,299.796v-2.143l2.746-2.667c6.598-6.282,9.583-9.623,9.621-13.521
			c0-2.622-1.275-5.046-5.128-5.046c-2.355,0-4.301,1.196-5.492,2.186l-1.114-2.467c1.795-1.504,4.341-2.622,7.319-2.622
			c5.566,0,7.912,3.818,7.912,7.511c0,4.775-3.456,8.635-8.903,13.884l-2.077,1.906v0.076h11.616v2.903H232.364z"/>
		<path style="fill:#999999;" d="M269.946,286.594c0,8.789-3.255,13.641-8.979,13.641c-5.054,0-8.467-4.732-8.553-13.28
			c0-8.665,3.743-13.44,8.984-13.44C266.848,273.515,269.946,278.366,269.946,286.594z M255.913,286.996
			c0,6.719,2.067,10.532,5.249,10.532c3.578,0,5.29-4.174,5.29-10.778c0-6.357-1.633-10.534-5.252-10.534
			C258.145,276.216,255.913,279.953,255.913,286.996z"/>
		<path style="fill:#999999;" d="M285.16,247.684c0.998,0.637,3.301,1.629,5.723,1.629c4.493,0,5.887-2.858,5.847-5.011
			c-0.04-3.614-3.298-5.166-6.687-5.166h-1.947v-2.627h1.947c2.549,0,5.772-1.311,5.772-4.374c0-2.067-1.313-3.896-4.526-3.896
			c-2.075,0-4.065,0.911-5.18,1.71l-0.914-2.546c1.359-0.992,3.979-1.986,6.765-1.986c5.088,0,7.391,3.018,7.391,6.16
			c0,2.668-1.581,4.932-4.769,6.086v0.079c3.188,0.638,5.769,3.022,5.769,6.641c0,4.136-3.225,7.751-9.43,7.751
			c-2.9,0-5.447-0.915-6.713-1.747L285.16,247.684z"/>
		<path style="fill:#999999;" d="M321.908,238.502c0,8.784-3.258,13.632-8.982,13.632c-5.049,0-8.47-4.729-8.553-13.277
			c0-8.667,3.74-13.44,8.99-13.44C318.804,225.417,321.908,230.271,321.908,238.502z M307.877,238.898
			c0,6.723,2.065,10.534,5.242,10.534c3.58,0,5.293-4.177,5.293-10.775c0-6.362-1.633-10.538-5.252-10.538
			C310.098,228.119,307.877,231.856,307.877,238.898z"/>
		<path style="fill:#999999;" d="M350.732,225.717v-7.039h-12.014v-2.306l11.534-16.502h3.775v16.063h3.616v2.746h-3.616v7.039
			H350.732z M350.732,215.933v-8.627c0-1.354,0.038-2.699,0.12-4.055h-0.12c-0.801,1.508-1.432,2.623-2.15,3.819l-6.325,8.791v0.072
			H350.732z"/>
		<path style="fill:#999999;" d="M377.5,212.521c0,8.782-3.261,13.633-8.987,13.633c-5.051,0-8.472-4.727-8.548-13.28
			c0-8.665,3.735-13.442,8.987-13.442C374.399,199.432,377.5,204.29,377.5,212.521z M363.462,212.912
			c0,6.722,2.064,10.539,5.251,10.539c3.578,0,5.282-4.177,5.282-10.778c0-6.359-1.622-10.534-5.247-10.534
			C365.687,202.14,363.462,205.874,363.462,212.912z"/>
		<path style="fill:#999999;" d="M438.15,202.812h-9.862l-0.991,6.646c0.598-0.081,1.155-0.163,2.105-0.163
			c1.988,0,3.975,0.439,5.569,1.391c2.027,1.156,3.7,3.379,3.7,6.646c0,5.044-4.018,8.822-9.62,8.822
			c-2.827,0-5.209-0.796-6.446-1.59l0.874-2.66c1.072,0.634,3.182,1.43,5.529,1.43c3.298,0,6.117-2.15,6.117-5.606
			c-0.033-3.341-2.262-5.73-7.433-5.73c-1.469,0-2.624,0.159-3.581,0.281l1.676-12.408h12.363V202.812z"/>
		<path style="fill:#999999;" d="M460.311,212.521c0,8.782-3.268,13.633-8.987,13.633c-5.052,0-8.472-4.727-8.55-13.28
			c0-8.665,3.74-13.442,8.989-13.442C457.21,199.432,460.311,204.29,460.311,212.521z M446.272,212.912
			c0,6.722,2.064,10.539,5.252,10.539c3.57,0,5.282-4.177,5.282-10.778c0-6.359-1.626-10.534-5.242-10.534
			C448.498,202.14,446.272,205.874,446.272,212.912z"/>
		<path style="fill:#999999;" d="M494.689,228.318c-0.712-0.038-1.633,0-2.619,0.158c-5.489,0.917-8.396,4.93-8.995,9.188h0.127
			c1.229-1.633,3.379-2.98,6.241-2.98c4.572,0,7.79,3.3,7.79,8.351c0,4.729-3.218,9.101-8.583,9.101
			c-5.534,0-9.148-4.293-9.148-11.007c0-5.097,1.83-9.104,4.374-11.652c2.144-2.11,5.012-3.423,8.272-3.817
			c1.032-0.164,1.91-0.202,2.541-0.202V228.318z M488.688,249.432c2.985,0,5.012-2.505,5.012-6.2c0-3.697-2.114-5.924-5.332-5.924
			c-2.108,0-4.056,1.311-5.01,3.182c-0.242,0.391-0.394,0.909-0.394,1.55c0.075,4.252,2.023,7.392,5.686,7.392H488.688z"/>
		<path style="fill:#999999;" d="M517.521,238.502c0,8.784-3.256,13.632-8.984,13.632c-5.045,0-8.465-4.729-8.553-13.277
			c0-8.667,3.745-13.44,8.989-13.44C514.42,225.417,517.521,230.271,517.521,238.502z M503.492,238.898
			c0,6.723,2.063,10.534,5.244,10.534c3.581,0,5.285-4.177,5.285-10.775c0-6.362-1.628-10.538-5.247-10.538
			C505.716,228.119,503.492,231.856,503.492,238.898z"/>
		<polygon style="fill:#999999;" points="550.819,273.872 550.819,276.175 539.569,299.72 535.95,299.72 547.158,276.85 
			547.158,276.771 534.519,276.771 534.519,273.872 		"/>
		<path style="fill:#999999;" d="M571.625,286.514c0,8.794-3.258,13.641-8.981,13.641c-5.048,0-8.47-4.734-8.554-13.281
			c0-8.665,3.74-13.438,8.985-13.438C568.526,273.435,571.625,278.283,571.625,286.514z M557.596,286.91
			c0,6.722,2.064,10.538,5.242,10.538c3.581,0,5.294-4.171,5.294-10.776c0-6.357-1.635-10.534-5.254-10.534
			C559.819,276.137,557.596,279.875,557.596,286.91z"/>
		<path style="fill:#999999;" d="M571.582,342.652c-2.856-1.354-4.088-3.584-4.088-5.807c0-4.096,3.455-6.882,7.992-6.882
			c5.01,0,7.519,3.146,7.519,6.365c0,2.186-1.075,4.536-4.253,6.043v0.119c3.215,1.271,5.204,3.542,5.204,6.684
			c0,4.491-3.857,7.514-8.788,7.514c-5.405,0-8.671-3.222-8.671-6.999c0-3.263,1.945-5.574,5.136-6.92L571.582,342.652z
			 M580.423,349.529c0-3.142-2.193-4.653-5.687-5.648c-3.028,0.879-4.658,2.863-4.658,5.33c-0.116,2.625,1.873,4.93,5.163,4.93
			C578.384,354.142,580.423,352.154,580.423,349.529z M570.795,336.609c0,2.581,1.953,3.976,4.929,4.767
			c2.229-0.754,3.937-2.348,3.937-4.687c0-2.074-1.229-4.217-4.368-4.217C572.382,332.473,570.795,334.38,570.795,336.609z"/>
		<path style="fill:#999999;" d="M604.405,343.043c0,8.793-3.263,13.645-8.986,13.645c-5.056,0-8.475-4.732-8.548-13.282
			c0-8.668,3.737-13.443,8.989-13.443C601.304,329.963,604.405,334.814,604.405,343.043z M590.363,343.446
			c0,6.719,2.07,10.538,5.252,10.538c3.576,0,5.285-4.175,5.285-10.779c0-6.36-1.62-10.534-5.244-10.534
			C592.595,332.671,590.363,336.406,590.363,343.446z"/>
		<path style="fill:#999999;" d="M583.024,426.375c0.758,0.078,1.628,0,2.822-0.117c2.023-0.281,3.937-1.118,5.408-2.507
			c1.708-1.555,2.947-3.817,3.419-6.883h-0.121c-1.428,1.752-3.492,2.786-6.079,2.786c-4.648,0-7.63-3.499-7.63-7.911
			c0-4.894,3.531-9.191,8.823-9.191c5.285,0,8.551,4.298,8.551,10.896c0,5.69-1.916,9.666-4.457,12.131
			c-1.989,1.948-4.737,3.14-7.516,3.457c-1.272,0.199-2.39,0.238-3.221,0.199V426.375z M589.352,405.219
			c-2.945,0-5.055,2.625-5.055,6.282c0,3.223,1.948,5.485,4.969,5.485c2.348,0,4.177-1.15,5.088-2.702
			c0.199-0.319,0.32-0.716,0.32-1.271c0-4.414-1.627-7.795-5.287-7.795H589.352z"/>
		<path style="fill:#999999;" d="M618.589,415.639c0,8.788-3.263,13.635-8.992,13.635c-5.05,0-8.472-4.728-8.548-13.277
			c0-8.667,3.74-13.444,8.992-13.444C615.484,402.552,618.589,407.404,618.589,415.639z M604.547,416.037
			c0,6.717,2.072,10.535,5.252,10.535c3.576,0,5.284-4.174,5.284-10.773c0-6.365-1.622-10.539-5.244-10.539
			C606.775,405.26,604.547,408.994,604.547,416.037z"/>
		<polygon style="fill:#999999;" points="555.942,470.126 555.864,470.126 551.37,472.552 550.688,469.887 556.336,466.863 
			559.324,466.863 559.324,492.709 555.942,492.709 		"/>
		<path style="fill:#999999;" d="M585.938,479.515c0,8.784-3.264,13.632-8.987,13.632c-5.053,0-8.472-4.73-8.553-13.274
			c0-8.671,3.742-13.442,8.992-13.442C582.836,466.43,585.938,471.277,585.938,479.515z M571.897,479.907
			c0,6.718,2.077,10.541,5.249,10.541c3.576,0,5.29-4.177,5.29-10.779c0-6.362-1.628-10.539-5.252-10.539
			C574.124,469.13,571.897,472.867,571.897,479.907z"/>
		<path style="fill:#999999;" d="M606.347,479.515c0,8.784-3.266,13.632-8.987,13.632c-5.05,0-8.47-4.73-8.553-13.274
			c0-8.671,3.74-13.442,8.989-13.442C603.239,466.43,606.347,471.277,606.347,479.515z M592.31,479.907
			c0,6.718,2.064,10.541,5.241,10.541c3.584,0,5.293-4.177,5.293-10.779c0-6.362-1.631-10.539-5.252-10.539
			C594.535,469.13,592.31,472.867,592.31,479.907z"/>
		<polygon style="fill:#999999;" points="522.566,532.36 522.486,532.36 517.994,534.789 517.32,532.124 522.968,529.101 
			525.948,529.101 525.948,554.951 522.566,554.951 		"/>
		<polygon style="fill:#999999;" points="542.976,532.36 542.902,532.36 538.405,534.789 537.722,532.124 543.375,529.101 
			546.355,529.101 546.355,554.951 542.976,554.951 		"/>
		<path style="fill:#999999;" d="M572.973,541.747c0,8.792-3.263,13.641-8.986,13.641c-5.053,0-8.476-4.729-8.549-13.285
			c0-8.667,3.733-13.438,8.985-13.438C569.871,528.665,572.973,533.519,572.973,541.747z M558.934,542.148
			c0,6.719,2.064,10.539,5.249,10.539c3.576,0,5.287-4.18,5.287-10.78c0-6.362-1.628-10.539-5.247-10.539
			C561.162,531.368,558.934,535.108,558.934,542.148z"/>
		<polygon style="fill:#999999;" points="474.54,574.148 474.457,574.148 469.965,576.571 469.294,573.906 474.939,570.882 
			477.914,570.882 477.914,596.731 474.54,596.731 		"/>
		<path style="fill:#999999;" d="M487.361,596.731v-2.146l2.737-2.668c6.604-6.281,9.583-9.617,9.626-13.516
			c0-2.628-1.274-5.049-5.134-5.049c-2.344,0-4.29,1.191-5.481,2.184l-1.115-2.465c1.787-1.513,4.328-2.622,7.316-2.622
			c5.565,0,7.912,3.819,7.912,7.517c0,4.771-3.465,8.629-8.906,13.876l-2.069,1.906v0.085h11.611v2.897H487.361z"/>
		<path style="fill:#999999;" d="M524.941,583.529c0,8.79-3.261,13.641-8.987,13.641c-5.05,0-8.469-4.734-8.548-13.282
			c0-8.667,3.738-13.438,8.99-13.438C521.84,570.45,524.941,575.303,524.941,583.529z M510.904,583.929
			c0,6.723,2.072,10.538,5.25,10.538c3.573,0,5.287-4.174,5.287-10.779c0-6.36-1.628-10.538-5.244-10.538
			C513.131,573.149,510.904,576.893,510.904,583.929z"/>
		<polygon style="fill:#FF9D27;" points="303.993,412.32 303.696,417.102 281.389,415.718 281.675,410.942 		"/>
		<polygon style="fill:#FF9D27;" points="473.137,483.986 476.185,480.296 493.418,494.524 490.382,498.218 		"/>
		<polygon style="fill:#FF9D27;" points="484.706,467.44 486.914,463.192 506.735,473.536 504.535,477.775 		"/>
		<polygon style="fill:#FF9D27;" points="492.582,448.852 493.864,444.234 515.396,450.234 514.127,454.833 		"/>
		<polygon style="fill:#FF9D27;" points="496.426,429.03 496.722,424.248 519.025,425.639 518.733,430.408 		"/>
		<polygon style="fill:#FF9D27;" points="496.058,408.845 495.351,404.108 517.461,400.828 518.165,405.549 		"/>
		<polygon style="fill:#FF9D27;" points="491.502,389.176 489.826,384.685 510.77,376.883 512.444,381.355 		"/>
		<polygon style="fill:#FF9D27;" points="482.957,370.88 480.388,366.836 499.25,354.85 501.819,358.876 		"/>
		<polygon style="fill:#FF9D27;" points="470.798,354.766 467.443,351.343 483.398,335.693 486.753,339.103 		"/>
		
			<rect x="448.556" y="328.494" transform="matrix(0.5519 -0.8339 0.8339 0.5519 -69.9251 531.6492)" style="fill:#FF9D27;" width="22.352" height="4.791"/>
		<polygon style="fill:#FF9D27;" points="437.891,331.749 433.429,329.992 441.642,309.207 446.091,310.952 		"/>
		<polygon style="fill:#FF9D27;" points="418.574,325.858 413.848,325.065 417.563,303.024 422.271,303.81 		"/>
		<polygon style="fill:#FF9D27;" points="398.456,324.116 393.67,324.32 392.718,301.989 397.501,301.777 		"/>
		<polygon style="fill:#FF9D27;" points="378.423,326.585 373.779,327.787 368.21,306.139 372.833,304.938 		"/>
		<polygon style="fill:#FF9D27;" points="359.333,333.173 355.04,335.307 345.093,315.295 349.367,313.158 		"/>
		<polygon style="fill:#FF9D27;" points="342.037,343.586 338.279,346.565 324.388,329.057 328.123,326.078 		"/>
		<polygon style="fill:#FF9D27;" points="327.273,357.359 324.225,361.059 307,346.824 310.033,343.133 		"/>
		<polygon style="fill:#FF9D27;" points="315.712,373.906 313.494,378.161 293.679,367.813 295.88,363.577 		"/>
		<polygon style="fill:#FF9D27;" points="307.832,392.495 306.547,397.117 285.019,391.124 286.285,386.513 		"/>
		<path style="fill:#999999;" d="M160.033,467.709c-0.148-2.755-0.325-6.073-0.291-8.533h-0.093
			c-0.672,2.313-1.495,4.807-2.491,7.506l-3.49,9.592h-1.934l-3.197-9.418c-0.941-2.781-1.732-5.335-2.289-7.68h-0.06
			c-0.058,2.46-0.204,5.778-0.379,8.734l-0.525,8.475h-2.438l1.374-19.76h3.263l3.368,9.557c0.824,2.436,1.496,4.608,1.992,6.659
			h0.091c0.5-1.992,1.206-4.163,2.083-6.659l3.518-9.557h3.257l1.235,19.76h-2.499L160.033,467.709z"/>
		<path style="fill:#999999;" d="M166.964,456.854c1.23-0.205,2.846-0.382,4.901-0.382c2.523,0,4.367,0.591,5.54,1.645
			c1.087,0.94,1.73,2.374,1.73,4.135c0,1.791-0.524,3.199-1.525,4.224c-1.347,1.435-3.552,2.175-6.036,2.175
			c-0.767,0-1.468-0.033-2.059-0.18v7.914h-2.551V456.854z M169.516,466.388c0.563,0.147,1.263,0.208,2.111,0.208
			c3.085,0,4.958-1.498,4.958-4.226c0-2.611-1.845-3.869-4.662-3.869c-1.115,0-1.964,0.085-2.407,0.203V466.388z"/>
		<polygon style="fill:#999999;" points="185.134,456.625 185.134,464.893 194.695,464.893 194.695,456.625 197.272,456.625 
			197.272,476.385 194.695,476.385 194.695,467.124 185.134,467.124 185.134,476.385 182.583,476.385 182.583,456.625 		"/>
		<path style="fill:#999999;" d="M281.329,468.169h0.048c0.285-0.406,0.692-0.907,1.027-1.311l3.38-3.98h2.529l-4.458,4.744
			l5.078,6.792h-2.55l-3.978-5.53l-1.075,1.189v4.341h-2.072v-16.923h2.072V468.169z"/>
		<path style="fill:#999999;" d="M290.845,465.999c0-1.188-0.024-2.168-0.095-3.121h1.835l0.096,1.863h0.071
			c0.643-1.101,1.717-2.125,3.624-2.125c1.574,0,2.765,0.954,3.261,2.313h0.048c0.36-0.644,0.81-1.147,1.29-1.501
			c0.691-0.523,1.451-0.813,2.548-0.813c1.528,0,3.793,1.002,3.793,5.006v6.792h-2.05v-6.528c0-2.222-0.813-3.554-2.505-3.554
			c-1.188,0-2.119,0.886-2.475,1.904c-0.096,0.287-0.169,0.67-0.169,1.051v7.127h-2.048v-6.91c0-1.84-0.813-3.172-2.41-3.172
			c-1.314,0-2.263,1.051-2.596,2.101c-0.121,0.307-0.167,0.664-0.167,1.023v6.958h-2.051V465.999z"/>
		<polygon style="fill:#999999;" points="308.969,475.365 315.618,458.09 317.238,458.09 310.569,475.365 		"/>
		<path style="fill:#999999;" d="M318.912,457.491h2.098v7.2h0.048c0.333-0.597,0.858-1.121,1.501-1.48
			c0.625-0.355,1.359-0.595,2.143-0.595c1.55,0,4.029,0.954,4.029,4.934v6.864h-2.101v-6.626c0-1.856-0.686-3.429-2.665-3.429
			c-1.36,0-2.43,0.949-2.813,2.091c-0.119,0.289-0.142,0.598-0.142,1.006v6.958h-2.098V457.491z"/>
		<polygon style="fill:#FF9D27;" points="391.053,430.512 602.172,313.339 394.394,436.342 		"/>
	</g>
</g>
<g id="Layer_1">
</g>
</svg>
