<?xml version="1.0" encoding="utf-8"?>
<!-- Generator: Adobe Illustrator 27.5.0, SVG Export Plug-In . SVG Version: 6.00 Build 0)  -->
<svg version="1.1" xmlns="http://www.w3.org/2000/svg" xmlns:xlink="http://www.w3.org/1999/xlink" x="0px" y="0px"
	 viewBox="0 0 700 500" style="enable-background:new 0 0 700 500;" xml:space="preserve">
<g id="BACKGROUND">
	<rect style="fill:#8A9EDB;" width="700" height="500"/>
	<g>
		<defs>
			<rect id="SVGID_1_" y="310.604" width="700" height="189.396"/>
		</defs>
		<clipPath id="SVGID_00000109721616789500989540000015812192827617572514_">
			<use xlink:href="#SVGID_1_"  style="overflow:visible;"/>
		</clipPath>
		<g style="clip-path:url(#SVGID_00000109721616789500989540000015812192827617572514_);">
			<g>
				<path style="fill:#7A8BC1;" d="M7.292,396.203c-9.258,0.682-18.511,1.617-27.739,3.103c-9.215,1.555-18.454,3.434-27.456,7.32
					c-2.245,0.989-4.47,2.14-6.624,3.615c-2.125,1.503-4.294,3.248-5.881,6.103c-0.776,1.412-1.346,3.171-1.353,5.055
					c-0.039,1.879,0.444,3.789,1.11,5.43c1.354,3.315,3.235,5.931,5.145,8.293c3.869,4.687,8.074,8.413,12.311,11.896
					c4.245,3.453,8.577,6.638,12.906,9.719c17.358,12.124,35.421,20.546,53.755,24.759c9.163,2.117,18.394,3.19,27.616,3.044
					c9.213-0.194,18.451-1.485,27.452-4.971c4.483-1.764,8.953-4.022,13.029-7.703c1.993-1.868,3.987-4.145,5.201-7.262
					c0.609-1.546,0.878-3.265,0.738-4.929c-0.141-1.694-0.755-3.367-1.444-4.875c-1.461-3.003-3.377-5.416-5.342-7.545
					c-1.981-2.121-4.055-3.986-6.168-5.686c-4.24-3.357-8.61-6.186-13.038-8.634c-8.859-4.903-17.915-8.566-27.041-11.193
					c-9.13-2.599-18.338-4.205-27.56-3.998c-9.216,0.211-18.455,1.779-27.494,5.234c-2.256,0.882-4.498,1.901-6.696,3.156
					c-2.179,1.278-4.395,2.701-6.259,4.951c-0.929,1.11-1.703,2.743-1.198,3.865c0.565,1.356,1.681,2.31,2.706,3.073
					c2.118,1.528,4.377,2.512,6.625,3.439c9.048,3.503,18.282,5.373,27.489,7.163c9.218,1.728,18.456,3.092,27.699,4.323
					c-9.252-0.934-18.502-2-27.74-3.433c-9.234-1.497-18.476-3.064-27.631-6.301c-2.284-0.867-4.564-1.832-6.796-3.386
					c-1.099-0.859-2.252-1.596-3.189-3.704c-0.205-0.582-0.407-1.337-0.361-2.178c0.005-0.801,0.186-1.54,0.386-2.062
					c0.403-1.131,0.913-1.845,1.419-2.512c2.06-2.527,4.293-3.962,6.521-5.326c2.236-1.321,4.503-2.394,6.781-3.327
					c9.122-3.657,18.414-5.402,27.717-5.784c9.313-0.403,18.626,1.08,27.821,3.684c9.2,2.593,18.322,6.224,27.279,11.123
					c4.478,2.447,8.907,5.281,13.24,8.682c2.162,1.725,4.295,3.623,6.364,5.823c2.058,2.229,4.089,4.704,5.809,8.206
					c0.817,1.803,1.642,3.863,1.901,6.63c0.256,2.763-0.259,5.609-1.048,7.588c-1.597,4.052-3.762,6.367-5.885,8.416
					c-4.319,3.921-8.88,6.239-13.458,8.058c-9.181,3.497-18.513,4.735-27.815,4.878c-9.308,0.092-18.609-1.045-27.837-3.233
					c-18.451-4.403-36.658-12.813-54.052-25.43c-4.344-3.182-8.653-6.438-12.923-10.002c-4.256-3.592-8.482-7.419-12.435-12.305
					c-1.955-2.482-3.894-5.176-5.399-8.914c-0.729-1.847-1.359-4.184-1.305-6.799c0.028-2.629,0.823-4.894,1.717-6.479
					c1.843-3.221,4.084-4.902,6.281-6.431c2.219-1.464,4.478-2.619,6.757-3.535c9.122-3.63,18.38-5.208,27.622-6.472
					C-11.233,397.229-1.97,396.589,7.292,396.203z"/>
				<path style="fill:#7A8BC1;" d="M227.463,477.353c12.335-2.448,24.66-5.074,36.96-8.064c12.295-3.022,24.582-6.301,36.75-10.727
					c6.067-2.276,12.163-4.641,17.978-8.455c1.442-0.978,2.871-2.073,4.164-3.492c1.242-1.333,2.598-3.529,1.941-5.378
					c-0.641-2.007-2.139-3.391-3.487-4.5c-1.395-1.122-2.858-2.02-4.332-2.832c-5.924-3.17-12.043-5.152-18.15-7.001
					c-6.116-1.792-12.264-3.376-18.406-4.807c-24.592-5.564-49.388-7.707-74.144-6.766c-12.378,0.476-24.75,1.715-37.079,3.823
					c-12.325,2.124-24.623,5.048-36.767,9.447c-6.063,2.221-12.114,4.73-17.97,8.258c-2.901,1.797-5.842,3.777-8.334,6.716
					c-1.228,1.381-2.32,3.648-1.918,4.696c0.172,0.743,0.71,1.621,1.303,2.294c0.594,0.701,1.271,1.281,1.957,1.815
					c2.778,2.1,5.801,3.391,8.804,4.553c3.017,1.132,6.068,2.026,9.127,2.802c6.122,1.542,12.285,2.607,18.457,3.431
					c12.346,1.615,24.733,2.257,37.112,2.112c12.381-0.173,24.752-1.182,37.076-3.427c12.321-2.247,24.612-5.393,36.762-9.895
					c3.035-1.141,6.061-2.375,9.058-3.794c2.979-1.461,6.007-2.946,8.759-5.293c0.333-0.309,0.668-0.626,0.958-0.995
					c0.277-0.324,0.58-0.864,0.583-1.014c-0.01-0.039,0.038,0.131-0.032-0.032c-0.032-0.111-0.195-0.276-0.319-0.409
					c-0.296-0.267-0.641-0.487-0.998-0.662c-1.439-0.703-2.982-1.027-4.509-1.313c-3.068-0.526-6.161-0.757-9.253-0.925
					c-12.379-0.58-24.783-0.081-37.175,0.501c-12.394,0.622-24.786,1.498-37.176,2.472c12.383-1.272,24.769-2.445,37.161-3.365
					c12.393-0.88,24.791-1.678,37.21-1.395c3.105,0.093,6.212,0.307,9.322,0.79c1.557,0.274,3.11,0.567,4.681,1.308
					c0.394,0.191,0.79,0.425,1.197,0.788c0.208,0.23,0.413,0.383,0.631,0.849c0.217,0.324,0.41,1.322,0.265,1.986
					c-0.264,1.279-0.667,1.618-1.009,2.129c-0.357,0.456-0.718,0.801-1.081,1.145c-2.915,2.527-5.927,4.023-8.94,5.551
					c-3.018,1.472-6.055,2.754-9.1,3.941c-12.187,4.686-24.498,8.006-36.855,10.429c-12.358,2.445-24.787,3.6-37.204,3.788
					c-12.419,0.201-24.842-0.387-37.242-1.953c-6.199-0.8-12.393-1.842-18.569-3.369c-3.087-0.769-6.17-1.658-9.241-2.795
					c-3.067-1.179-6.133-2.45-9.136-4.698c-0.749-0.582-1.496-1.208-2.227-2.061c-0.714-0.87-1.491-1.832-2.012-3.797
					c-0.248-0.961-0.331-2.316-0.155-3.358c0.065-0.568,0.182-1.028,0.315-1.448c0.121-0.467,0.273-0.811,0.425-1.16
					c0.612-1.371,1.298-2.358,1.995-3.196c2.804-3.308,5.781-5.269,8.76-7.146c5.978-3.625,12.069-6.185,18.181-8.437
					c12.237-4.376,24.585-7.254,36.96-9.332c12.377-2.061,24.788-3.249,37.205-3.671c24.829-0.781,49.708,1.289,74.354,7.308
					c6.162,1.52,12.3,3.185,18.436,5.067c6.128,1.941,12.259,4.004,18.275,7.31c1.501,0.849,2.995,1.785,4.456,2.983
					c0.733,0.581,1.449,1.29,2.15,2.09c0.684,0.86,1.392,1.816,1.877,3.439c0.241,0.785,0.362,1.883,0.254,2.861
					c-0.095,1.002-0.369,1.802-0.659,2.442c-0.591,1.294-1.287,2.157-1.985,2.932c-1.408,1.517-2.879,2.611-4.36,3.596
					c-5.947,3.798-12.054,6.103-18.159,8.267c-12.231,4.147-24.543,7.133-36.863,9.863
					C252.155,472.868,239.813,475.198,227.463,477.353z"/>
				<path style="fill:#7A8BC1;" d="M24.12,290.485c15.076,9.716,30.458,17.655,46.053,23.42
					c15.576,5.938,31.379,9.571,47.225,10.923c15.846,1.134,31.745,0.271,47.467-3.687c7.862-1.923,15.676-4.53,23.429-7.708
					c7.759-3.146,15.44-6.968,23.137-10.805c30.859-15.266,62.526-24.372,94.316-27.752c15.897-1.705,31.826-2.156,47.733-1.356
					c15.907,0.884,31.786,2.879,47.618,5.723c-15.859-2.25-31.746-3.648-47.635-3.936c-15.888-0.431-31.782,0.33-47.627,2.373
					c-31.689,3.953-63.221,12.995-93.934,28.482c-7.7,3.782-15.426,7.569-23.234,10.679c-7.803,3.141-15.674,5.712-23.589,7.592
					c-15.83,3.82-31.834,4.768-47.751,3.189c-15.915-1.701-31.758-5.652-47.339-11.976C54.413,309.283,39.095,300.76,24.12,290.485z
					"/>
				<path style="fill:#7A8BC1;" d="M370.45,390.835c-14.457-13.837-29.352-25.97-44.629-35.912
					c-15.263-9.99-30.909-17.854-46.801-22.911c-7.949-2.457-15.94-4.442-23.968-5.556c-8.027-1.103-16.079-1.488-24.12-1.042
					c-8.041,0.438-16.067,1.718-24.047,3.721c-7.983,1.978-15.908,4.726-23.839,7.637c-31.795,11.685-64.327,15.7-96.633,12.991
					c-16.158-1.34-32.279-4.139-48.29-8.379c-16.007-4.318-31.908-9.901-47.699-16.412c15.854,5.927,31.797,10.918,47.818,14.639
					c16.01,3.868,32.109,6.35,48.226,7.344c32.224,2.118,64.584-1.852,96.23-13.77c7.936-2.856,15.917-5.568,23.956-7.505
					c8.037-1.961,16.128-3.197,24.23-3.583c16.205-0.788,32.442,1.669,48.381,7.158c15.947,5.422,31.616,13.615,46.859,23.99
					C341.344,363.776,356.133,376.47,370.45,390.835z"/>
				<path style="fill:#7A8BC1;" d="M475.368,508.079c-17.281-17.203-34.827-33.389-52.53-48.895
					c-17.677-15.609-35.489-30.667-53.511-44.702c-9.016-6.982-18.065-13.829-27.225-20.004c-4.58-3.089-9.193-5.958-13.845-8.48
					c-4.69-2.448-9.392-4.805-14.107-7.034c-18.859-8.901-38.03-15.389-57.366-18.681c-9.663-1.687-19.358-2.732-29.056-2.724
					c-9.699-0.052-19.388,1.042-29.054,2.847c-9.669,1.732-19.335,4.116-29.078,5.315c-9.736,1.331-19.525,1.359-29.264,0.175
					c-9.741-1.151-19.438-3.46-29.036-6.751c-9.603-3.254-19.105-7.563-28.464-12.768c-2.345-1.271-4.685-2.571-6.996-4.049
					l-6.953-4.309c-4.585-3.155-9.205-6.117-13.723-9.614c-9.114-6.595-17.999-14.27-26.836-22.085
					c8.902,7.545,17.843,14.942,26.999,21.249c4.539,3.354,9.177,6.17,13.777,9.178l6.972,4.087c2.317,1.404,4.662,2.629,7.01,3.824
					c4.673,2.559,9.404,4.676,14.127,6.845l7.129,2.862c2.376,0.952,4.777,1.666,7.163,2.51c9.571,3.112,19.227,5.242,28.913,6.219
					c9.687,0.984,19.396,0.816,29.07-0.521c9.679-1.245,19.323-3.678,29.024-5.473c9.697-1.867,19.455-3.026,29.217-3.029
					c9.763-0.06,19.517,0.924,29.232,2.581c19.431,3.418,38.69,10.05,57.607,19.092c4.73,2.264,9.44,4.654,14.135,7.133
					c4.71,2.582,9.351,5.498,13.948,8.628c9.202,6.216,18.237,13.227,27.233,20.39C405.806,440.786,441.059,472.739,475.368,508.079
					z"/>
				<path style="fill:#7A8BC1;" d="M432.242,492.989c-14.682-18.035-29.913-34.406-45.647-48.698
					c-15.691-14.456-31.942-26.651-48.606-36.148c-16.669-9.441-33.751-16.191-51.044-19.454
					c-17.289-3.344-34.709-3.889-52.08-2.577c-17.391,1.238-34.745,3.658-51.896,9.183c-8.583,2.644-17.096,6.157-25.757,8.631
					c-4.321,1.31-8.697,2.077-13.073,2.553c-2.192,0.084-4.384,0.329-6.575,0.177l-3.286-0.103l-3.279-0.367
					c-8.745-0.924-17.415-3.614-25.932-7.371c-8.507-3.882-16.853-8.982-24.979-15.113c-8.117-6.183-16.028-13.318-23.716-21.229
					c-7.672-7.973-15.123-16.686-22.408-25.867c7.37,8.932,14.894,17.381,22.625,25.076c7.746,7.633,15.698,14.474,23.834,20.352
					c8.127,5.916,16.447,10.849,24.913,14.533c8.475,3.567,17.085,6.067,25.745,6.815l3.245,0.301l3.247,0.038
					c2.165,0.11,4.326-0.176,6.487-0.299c4.316-0.527,8.627-1.287,12.91-2.62c8.572-2.502,17.101-6.075,25.717-8.786
					c17.221-5.659,34.691-8.218,52.108-9.549c17.442-1.207,34.946-0.551,52.329,2.922c17.381,3.443,34.598,10.165,51.284,20.076
					c16.694,9.872,32.945,22.396,48.59,37.227C402.636,457.554,417.728,474.458,432.242,492.989z"/>
			</g>
			<path style="fill:#7A8BC1;" d="M722.145,374.23c9.258-0.682,18.511-1.617,27.739-3.103c9.215-1.555,18.454-3.434,27.456-7.32
				c2.245-0.989,4.47-2.14,6.624-3.614c2.125-1.503,4.294-3.248,5.881-6.103c0.776-1.413,1.346-3.171,1.353-5.055
				c0.039-1.879-0.444-3.789-1.11-5.43c-1.354-3.315-3.235-5.931-5.145-8.292c-3.869-4.688-8.074-8.413-12.311-11.896
				c-4.245-3.453-8.578-6.637-12.906-9.719c-17.358-12.124-35.421-20.546-53.754-24.759c-9.163-2.117-18.395-3.189-27.616-3.044
				c-9.213,0.194-18.451,1.485-27.452,4.971c-4.483,1.764-8.953,4.022-13.029,7.703c-1.993,1.868-3.987,4.145-5.201,7.262
				c-0.609,1.546-0.878,3.265-0.738,4.93c0.141,1.694,0.755,3.367,1.444,4.875c1.46,3.003,3.377,5.416,5.342,7.545
				c1.981,2.121,4.055,3.986,6.168,5.686c4.24,3.357,8.61,6.186,13.039,8.634c8.859,4.903,17.915,8.566,27.041,11.193
				c9.13,2.599,18.338,4.205,27.56,3.998c9.216-0.211,18.455-1.779,27.494-5.234c2.256-0.882,4.498-1.9,6.696-3.156
				c2.179-1.278,4.395-2.701,6.259-4.951c0.929-1.11,1.703-2.743,1.198-3.865c-0.565-1.356-1.681-2.31-2.706-3.073
				c-2.118-1.528-4.377-2.512-6.625-3.439c-9.048-3.503-18.282-5.373-27.489-7.163c-9.218-1.728-18.456-3.092-27.699-4.323
				c9.252,0.934,18.502,2,27.74,3.433c9.234,1.497,18.476,3.064,27.631,6.301c2.284,0.867,4.564,1.833,6.796,3.386
				c1.099,0.859,2.252,1.596,3.189,3.704c0.205,0.582,0.407,1.337,0.361,2.178c-0.005,0.801-0.186,1.54-0.386,2.062
				c-0.403,1.131-0.913,1.845-1.419,2.512c-2.06,2.527-4.293,3.962-6.521,5.326c-2.237,1.321-4.503,2.394-6.781,3.327
				c-9.122,3.657-18.414,5.402-27.717,5.785c-9.313,0.403-18.626-1.08-27.821-3.683c-9.201-2.594-18.322-6.224-27.279-11.123
				c-4.478-2.447-8.907-5.281-13.24-8.682c-2.162-1.725-4.294-3.623-6.364-5.823c-2.058-2.229-4.089-4.704-5.809-8.206
				c-0.817-1.803-1.642-3.863-1.901-6.63c-0.256-2.763,0.259-5.61,1.048-7.589c1.597-4.052,3.762-6.367,5.885-8.415
				c4.319-3.921,8.88-6.239,13.458-8.059c9.181-3.497,18.513-4.735,27.815-4.878c9.308-0.092,18.609,1.045,27.837,3.233
				c18.451,4.403,36.658,12.813,54.052,25.43c4.344,3.182,8.653,6.438,12.924,10.001c4.256,3.592,8.482,7.419,12.435,12.305
				c1.955,2.482,3.894,5.176,5.399,8.914c0.729,1.847,1.359,4.184,1.305,6.799c-0.028,2.629-0.823,4.894-1.717,6.479
				c-1.843,3.221-4.084,4.902-6.28,6.431c-2.219,1.464-4.478,2.619-6.757,3.535c-9.122,3.63-18.38,5.208-27.622,6.472
				C740.67,373.205,731.408,373.844,722.145,374.23z"/>
			<path style="fill:#7A8BC1;" d="M501.974,293.081c-12.335,2.448-24.66,5.073-36.96,8.064
				c-12.296,3.022-24.583,6.301-36.751,10.727c-6.067,2.276-12.163,4.641-17.978,8.455c-1.442,0.978-2.871,2.073-4.164,3.492
				c-1.242,1.333-2.598,3.529-1.941,5.378c0.641,2.006,2.139,3.391,3.487,4.5c1.395,1.122,2.858,2.02,4.332,2.832
				c5.924,3.17,12.043,5.152,18.15,7.001c6.116,1.792,12.264,3.376,18.406,4.807c24.592,5.564,49.388,7.707,74.145,6.766
				c12.378-0.476,24.75-1.715,37.078-3.823c12.325-2.124,24.623-5.048,36.767-9.447c6.063-2.221,12.114-4.73,17.97-8.258
				c2.901-1.797,5.842-3.777,8.333-6.716c1.228-1.381,2.32-3.648,1.918-4.696c-0.172-0.743-0.711-1.621-1.303-2.294
				c-0.594-0.701-1.271-1.28-1.957-1.814c-2.778-2.1-5.801-3.391-8.804-4.553c-3.017-1.132-6.068-2.026-9.127-2.802
				c-6.122-1.542-12.285-2.607-18.457-3.431c-12.346-1.615-24.733-2.257-37.112-2.112c-12.381,0.173-24.752,1.181-37.076,3.426
				c-12.321,2.247-24.612,5.393-36.762,9.895c-3.035,1.141-6.061,2.375-9.058,3.794c-2.979,1.46-6.007,2.946-8.759,5.293
				c-0.333,0.309-0.668,0.626-0.958,0.995c-0.277,0.324-0.58,0.864-0.583,1.014c0.01,0.039-0.038-0.131,0.032,0.032
				c0.032,0.111,0.195,0.276,0.319,0.409c0.296,0.267,0.641,0.487,0.998,0.662c1.439,0.703,2.982,1.027,4.508,1.314
				c3.068,0.526,6.161,0.757,9.253,0.925c12.379,0.58,24.783,0.081,37.175-0.502c12.395-0.622,24.786-1.498,37.176-2.472
				c-12.383,1.272-24.768,2.445-37.161,3.365c-12.393,0.88-24.791,1.678-37.211,1.395c-3.105-0.093-6.211-0.307-9.322-0.79
				c-1.557-0.274-3.11-0.567-4.681-1.308c-0.394-0.191-0.79-0.425-1.197-0.788c-0.208-0.229-0.413-0.383-0.631-0.849
				c-0.217-0.324-0.41-1.322-0.265-1.985c0.264-1.279,0.667-1.618,1.009-2.129c0.357-0.456,0.718-0.801,1.081-1.145
				c2.915-2.527,5.927-4.023,8.94-5.551c3.018-1.472,6.055-2.754,9.1-3.941c12.188-4.686,24.498-8.006,36.855-10.429
				c12.358-2.445,24.787-3.6,37.204-3.788c12.419-0.201,24.842,0.387,37.242,1.953c6.199,0.8,12.393,1.842,18.569,3.369
				c3.087,0.769,6.17,1.658,9.24,2.795c3.067,1.179,6.133,2.45,9.136,4.698c0.749,0.582,1.496,1.208,2.227,2.061
				c0.714,0.87,1.491,1.832,2.012,3.797c0.247,0.961,0.331,2.316,0.155,3.358c-0.065,0.568-0.182,1.028-0.315,1.448
				c-0.121,0.467-0.273,0.811-0.425,1.16c-0.612,1.371-1.298,2.358-1.995,3.196c-2.803,3.308-5.78,5.269-8.76,7.146
				c-5.978,3.625-12.069,6.185-18.18,8.437c-12.237,4.376-24.586,7.254-36.96,9.332c-12.377,2.061-24.788,3.249-37.205,3.671
				c-24.829,0.781-49.708-1.289-74.354-7.307c-6.162-1.52-12.3-3.185-18.436-5.067c-6.128-1.941-12.258-4.005-18.275-7.31
				c-1.501-0.849-2.995-1.785-4.456-2.983c-0.733-0.581-1.449-1.29-2.151-2.09c-0.683-0.86-1.392-1.816-1.876-3.44
				c-0.241-0.785-0.362-1.883-0.254-2.86c0.095-1.002,0.369-1.802,0.659-2.442c0.591-1.293,1.287-2.157,1.985-2.932
				c1.408-1.517,2.879-2.611,4.36-3.596c5.947-3.798,12.054-6.104,18.159-8.267c12.231-4.147,24.543-7.133,36.863-9.862
				C477.283,297.566,489.625,295.235,501.974,293.081z"/>
			<path style="fill:#7A8BC1;" d="M466.593,444.604c14.322,11.028,29.078,20.311,44.204,27.446
				c15.095,7.306,30.583,12.335,46.279,15.094c15.713,2.542,31.622,3.098,47.581,0.553c7.976-1.216,15.954-3.119,23.913-5.595
				c7.962-2.445,15.896-5.57,23.847-8.709c31.868-12.468,64.093-18.723,96.026-19.261c15.969-0.284,31.879,0.685,47.677,2.9
				c15.791,2.298,31.474,5.701,47.049,9.946c-15.644-3.656-31.378-6.464-47.195-8.167c-15.805-1.845-31.703-2.502-47.645-1.877
				c-31.873,1.117-63.96,7.321-95.698,20.022c-7.95,3.084-15.925,6.17-23.934,8.575c-8.006,2.436-16.037,4.297-24.064,5.466
				c-16.056,2.398-32.077,1.917-47.828-1.075c-15.74-3.113-31.245-8.462-46.317-16.154
				C495.422,466.04,480.773,456.18,466.593,444.604z"/>
			<path style="fill:#7A8BC1;" d="M435.187,513.501c-9.902-9.936-20.086-18.846-30.624-25.845
				c-10.519-7.037-21.337-12.526-32.357-15.433c-11.002-3.007-22.175-3.73-33.217-1.599c-11.064,2.048-21.849,7.417-32.468,13.936
				c-5.328,3.227-10.755,6.092-16.2,8.636c-2.738,1.159-5.463,2.444-8.223,3.406l-4.129,1.53l-4.149,1.313
				c-11.07,3.401-22.262,5.367-33.464,5.672c-11.2,0.389-22.403-0.544-33.534-2.695c-11.126-2.247-22.189-5.476-33.141-9.731
				c11.029,3.44,22.098,6.31,33.223,7.948c11.115,1.784,22.279,2.398,33.414,1.67c22.264-1.328,44.453-7.971,65.642-21.234
				c10.661-6.432,21.645-11.793,32.858-13.752c11.195-1.998,22.523-1.339,33.602,2.135c11.099,3.275,21.951,9.105,32.457,16.525
				C415.355,493.579,425.487,502.841,435.187,513.501z"/>
			<path style="fill:#7A8BC1;" d="M358.988,379.599c14.457,13.837,29.352,25.97,44.629,35.912
				c15.263,9.99,30.909,17.854,46.801,22.911c7.949,2.457,15.94,4.441,23.968,5.555c8.027,1.103,16.079,1.488,24.12,1.042
				c8.042-0.438,16.068-1.718,24.047-3.721c7.983-1.978,15.908-4.726,23.839-7.636c31.795-11.685,64.327-15.7,96.633-12.991
				c16.158,1.34,32.279,4.139,48.29,8.379c16.007,4.318,31.908,9.901,47.699,16.411c-15.854-5.927-31.797-10.918-47.818-14.639
				c-16.01-3.868-32.109-6.35-48.226-7.344c-32.224-2.117-64.584,1.852-96.23,13.77c-7.935,2.856-15.917,5.568-23.956,7.505
				c-8.037,1.961-16.128,3.197-24.23,3.583c-16.205,0.788-32.442-1.669-48.381-7.157c-15.948-5.422-31.616-13.615-46.859-23.99
				C388.094,406.657,373.304,393.963,358.988,379.599z"/>
			<path style="fill:#7A8BC1;" d="M308.021,300.509c17.94,14.494,36.103,27.934,54.393,40.671
				c18.269,12.844,36.649,25.119,55.197,36.342c9.277,5.575,18.582,11.011,27.969,15.759c4.693,2.376,9.411,4.527,14.153,6.327
				c4.777,1.719,9.562,3.347,14.354,4.845c19.168,5.976,38.548,9.5,57.959,9.811c9.703,0.197,19.41-0.249,29.076-1.747
				c9.67-1.438,19.282-4.016,28.843-7.3c9.566-3.211,19.103-7.073,28.765-9.763c9.65-2.822,19.406-4.353,29.163-4.669
				c9.758-0.349,19.519,0.464,29.224,2.271c9.708,1.769,19.358,4.605,28.903,8.356c2.39,0.907,4.777,1.843,7.142,2.962l7.11,3.228
				c4.702,2.441,9.43,4.683,14.079,7.476c9.359,5.174,18.534,11.461,27.667,17.893c-9.187-6.153-18.406-12.154-27.796-17.035
				c-4.664-2.647-9.404-4.741-14.115-7.033l-7.12-3.003c-2.368-1.044-4.756-1.905-7.146-2.736
				c-4.764-1.833-9.568-3.217-14.366-4.654l-7.225-1.758c-2.408-0.584-4.831-0.927-7.245-1.402
				c-9.67-1.632-19.383-2.272-29.079-1.759c-9.696,0.507-19.368,2.165-28.955,4.983c-9.596,2.727-19.108,6.634-28.704,9.913
				c-9.588,3.35-19.267,6.004-28.998,7.506c-9.729,1.559-19.493,2.076-29.246,1.916c-19.511-0.423-38.984-4.077-58.216-10.185
				c-4.809-1.531-9.603-3.19-14.386-4.94c-4.802-1.85-9.55-4.045-14.262-6.459c-9.431-4.783-18.728-10.384-27.993-16.143
				C380.156,356.905,343.689,330.467,308.021,300.509z"/>
			<path style="fill:#7A8BC1;" d="M351.637,308.928c15.384,15.723,31.247,29.702,47.524,41.532
				c16.241,11.999,32.947,21.66,49.953,28.568c17.008,6.851,34.316,10.956,51.688,11.553c17.373,0.679,34.76-1.454,52.021-5.429
				c17.284-3.904,34.482-8.982,51.349-17.124c8.446-3.954,16.786-8.763,25.316-12.558c4.253-1.969,8.583-3.406,12.925-4.553
				c2.182-0.42,4.356-1.001,6.546-1.186l3.28-0.402l3.284-0.138c8.755-0.422,17.509,0.928,26.155,3.365
				c8.641,2.563,17.172,6.365,25.527,11.229c8.348,4.917,16.53,10.814,24.522,17.519c7.979,6.769,15.768,14.31,23.411,22.343
				c-7.718-7.772-15.569-15.038-23.594-21.521c-8.038-6.419-16.249-12.017-24.603-16.627c-8.347-4.649-16.845-8.288-25.438-10.66
				c-8.596-2.254-17.283-3.424-25.946-2.839l-3.248,0.198l-3.238,0.461c-2.163,0.223-4.304,0.84-6.454,1.294
				c-4.281,1.188-8.546,2.608-12.76,4.594c-8.44,3.81-16.794,8.682-25.27,12.708c-16.931,8.285-34.239,13.519-51.544,17.521
				c-17.336,3.882-34.812,5.916-52.283,5.123c-17.469-0.763-34.91-4.819-51.954-12.136c-17.051-7.277-33.77-17.265-49.981-29.646
				C382.62,339.703,366.874,325.17,351.637,308.928z"/>
		</g>
	</g>
	<rect x="50" style="fill:#CFE9FF;" width="650" height="310.604"/>
	<g>
		<polygon style="fill:#8A9EDB;" points="406.424,172.855 406.424,190.099 415.665,190.099 415.665,307.276 425.24,307.276 
			425.24,149.32 		"/>
		<g>
			<rect x="358.818" y="190.099" style="fill:#B9DEFA;" width="56.847" height="117.177"/>
			<rect x="204.167" y="148.699" style="fill:#B9DEFA;" width="56.848" height="158.577"/>
			<rect x="623.309" y="190.099" style="fill:#B9DEFA;" width="56.847" height="117.177"/>
			<rect x="519.188" y="155.514" style="fill:#B9DEFA;" width="34.707" height="151.762"/>
			<rect x="274.593" y="174.613" style="fill:#B9DEFA;" width="34.707" height="132.663"/>
			<rect x="566.888" y="155.514" style="fill:#B9DEFA;" width="34.707" height="151.762"/>
			<polygon style="fill:#B9DEFA;" points="482.087,307.276 425.24,307.276 425.24,149.32 482.087,119.896 			"/>
		</g>
		<g>
			<g>
				
					<rect x="436.002" y="165.813" transform="matrix(-1 -1.224647e-16 1.224647e-16 -1 877.9204 351.9074)" style="fill:#8A9EDB;" width="5.916" height="20.282"/>
				
					<rect x="450.651" y="165.813" transform="matrix(-1 -1.224647e-16 1.224647e-16 -1 907.2168 351.9074)" style="fill:#8A9EDB;" width="5.916" height="20.282"/>
				
					<rect x="465.299" y="165.813" transform="matrix(-1 -1.224647e-16 1.224647e-16 -1 936.513 351.9074)" style="fill:#8A9EDB;" width="5.916" height="20.282"/>
			</g>
			<g>
				
					<rect x="436.002" y="194.546" transform="matrix(-1 -1.224647e-16 1.224647e-16 -1 877.9204 409.3733)" style="fill:#8A9EDB;" width="5.916" height="20.282"/>
				
					<rect x="450.651" y="194.546" transform="matrix(-1 -1.224647e-16 1.224647e-16 -1 907.2168 409.3733)" style="fill:#8A9EDB;" width="5.916" height="20.282"/>
				
					<rect x="465.299" y="194.546" transform="matrix(-1 -1.224647e-16 1.224647e-16 -1 936.513 409.3733)" style="fill:#8A9EDB;" width="5.916" height="20.282"/>
			</g>
			<g>
				
					<rect x="436.002" y="223.279" transform="matrix(-1 -1.224647e-16 1.224647e-16 -1 877.9204 466.8391)" style="fill:#8A9EDB;" width="5.916" height="20.282"/>
				
					<rect x="450.651" y="223.279" transform="matrix(-1 -1.224647e-16 1.224647e-16 -1 907.2168 466.8391)" style="fill:#8A9EDB;" width="5.916" height="20.282"/>
				
					<rect x="465.299" y="223.279" transform="matrix(-1 -1.224647e-16 1.224647e-16 -1 936.513 466.8391)" style="fill:#8A9EDB;" width="5.916" height="20.282"/>
			</g>
			<g>
				
					<rect x="436.002" y="252.011" transform="matrix(-1 -1.224647e-16 1.224647e-16 -1 877.9204 524.3049)" style="fill:#8A9EDB;" width="5.916" height="20.282"/>
				
					<rect x="450.651" y="252.011" transform="matrix(-1 -1.224647e-16 1.224647e-16 -1 907.2168 524.3049)" style="fill:#8A9EDB;" width="5.916" height="20.282"/>
				
					<rect x="465.299" y="252.011" transform="matrix(-1 -1.224647e-16 1.224647e-16 -1 936.513 524.3049)" style="fill:#8A9EDB;" width="5.916" height="20.282"/>
			</g>
			<g>
				
					<rect x="436.002" y="280.744" transform="matrix(-1 -1.224647e-16 1.224647e-16 -1 877.9204 581.7708)" style="fill:#8A9EDB;" width="5.916" height="20.282"/>
				
					<rect x="450.651" y="280.744" transform="matrix(-1 -1.224647e-16 1.224647e-16 -1 907.2168 581.7708)" style="fill:#8A9EDB;" width="5.916" height="20.282"/>
				
					<rect x="465.299" y="280.744" transform="matrix(-1 -1.224647e-16 1.224647e-16 -1 936.513 581.7708)" style="fill:#8A9EDB;" width="5.916" height="20.282"/>
			</g>
		</g>
		<g>
			<g>
				
					<rect x="634.316" y="204.123" transform="matrix(-1 -1.224647e-16 1.224647e-16 -1 1274.5474 428.5285)" style="fill:#8A9EDB;" width="5.916" height="20.282"/>
				
					<rect x="648.964" y="204.123" transform="matrix(-1 -1.224647e-16 1.224647e-16 -1 1303.8438 428.5285)" style="fill:#8A9EDB;" width="5.916" height="20.282"/>
				
					<rect x="663.612" y="204.123" transform="matrix(-1 -1.224647e-16 1.224647e-16 -1 1333.14 428.5285)" style="fill:#8A9EDB;" width="5.916" height="20.282"/>
			</g>
			<g>
				
					<rect x="634.316" y="232.856" transform="matrix(-1 -1.224647e-16 1.224647e-16 -1 1274.5474 485.9944)" style="fill:#8A9EDB;" width="5.916" height="20.282"/>
				
					<rect x="648.964" y="232.856" transform="matrix(-1 -1.224647e-16 1.224647e-16 -1 1303.8438 485.9944)" style="fill:#8A9EDB;" width="5.916" height="20.282"/>
				
					<rect x="663.612" y="232.856" transform="matrix(-1 -1.224647e-16 1.224647e-16 -1 1333.14 485.9944)" style="fill:#8A9EDB;" width="5.916" height="20.282"/>
			</g>
			<g>
				
					<rect x="634.316" y="261.589" transform="matrix(-1 -1.224647e-16 1.224647e-16 -1 1274.5474 543.4603)" style="fill:#8A9EDB;" width="5.916" height="20.282"/>
				
					<rect x="648.964" y="261.589" transform="matrix(-1 -1.224647e-16 1.224647e-16 -1 1303.8438 543.4603)" style="fill:#8A9EDB;" width="5.916" height="20.282"/>
				
					<rect x="663.612" y="261.589" transform="matrix(-1 -1.224647e-16 1.224647e-16 -1 1333.14 543.4603)" style="fill:#8A9EDB;" width="5.916" height="20.282"/>
			</g>
			<g>
				
					<rect x="634.316" y="290.322" transform="matrix(-1 -1.224647e-16 1.224647e-16 -1 1274.5474 600.9261)" style="fill:#8A9EDB;" width="5.916" height="20.282"/>
				
					<rect x="648.964" y="290.322" transform="matrix(-1 -1.224647e-16 1.224647e-16 -1 1303.8438 600.9261)" style="fill:#8A9EDB;" width="5.916" height="20.282"/>
				
					<rect x="663.612" y="290.322" transform="matrix(-1 -1.224647e-16 1.224647e-16 -1 1333.14 600.9261)" style="fill:#8A9EDB;" width="5.916" height="20.282"/>
			</g>
		</g>
		<g>
			<g>
				
					<rect x="371.614" y="205.529" transform="matrix(-1 -1.224647e-16 1.224647e-16 -1 749.1444 431.3407)" style="fill:#8A9EDB;" width="5.916" height="20.282"/>
				
					<rect x="386.263" y="205.529" transform="matrix(-1 -1.224647e-16 1.224647e-16 -1 778.4408 431.3407)" style="fill:#8A9EDB;" width="5.916" height="20.282"/>
				
					<rect x="400.911" y="205.529" transform="matrix(-1 -1.224647e-16 1.224647e-16 -1 807.7372 431.3407)" style="fill:#8A9EDB;" width="5.916" height="20.282"/>
			</g>
			<g>
				
					<rect x="371.614" y="234.262" transform="matrix(-1 -1.224647e-16 1.224647e-16 -1 749.1444 488.8065)" style="fill:#8A9EDB;" width="5.916" height="20.282"/>
				
					<rect x="386.263" y="234.262" transform="matrix(-1 -1.224647e-16 1.224647e-16 -1 778.4408 488.8065)" style="fill:#8A9EDB;" width="5.916" height="20.282"/>
				
					<rect x="400.911" y="234.262" transform="matrix(-1 -1.224647e-16 1.224647e-16 -1 807.7372 488.8065)" style="fill:#8A9EDB;" width="5.916" height="20.282"/>
			</g>
			<g>
				
					<rect x="371.614" y="262.995" transform="matrix(-1 -1.224647e-16 1.224647e-16 -1 749.1444 546.2723)" style="fill:#8A9EDB;" width="5.916" height="20.282"/>
				
					<rect x="386.263" y="262.995" transform="matrix(-1 -1.224647e-16 1.224647e-16 -1 778.4408 546.2723)" style="fill:#8A9EDB;" width="5.916" height="20.282"/>
				
					<rect x="400.911" y="262.995" transform="matrix(-1 -1.224647e-16 1.224647e-16 -1 807.7372 546.2723)" style="fill:#8A9EDB;" width="5.916" height="20.282"/>
			</g>
		</g>
		<g>
			<g>
				
					<rect x="216.843" y="165.813" transform="matrix(-1 -1.224647e-16 1.224647e-16 -1 439.6024 351.9074)" style="fill:#8A9EDB;" width="5.916" height="20.282"/>
				
					<rect x="231.492" y="165.813" transform="matrix(-1 -1.224647e-16 1.224647e-16 -1 468.8988 351.9074)" style="fill:#8A9EDB;" width="5.916" height="20.282"/>
				
					<rect x="246.14" y="165.813" transform="matrix(-1 -1.224647e-16 1.224647e-16 -1 498.195 351.9074)" style="fill:#8A9EDB;" width="5.916" height="20.282"/>
			</g>
			<g>
				
					<rect x="216.843" y="194.546" transform="matrix(-1 -1.224647e-16 1.224647e-16 -1 439.6024 409.3733)" style="fill:#8A9EDB;" width="5.916" height="20.282"/>
				
					<rect x="231.492" y="194.546" transform="matrix(-1 -1.224647e-16 1.224647e-16 -1 468.8988 409.3733)" style="fill:#8A9EDB;" width="5.916" height="20.282"/>
				
					<rect x="246.14" y="194.546" transform="matrix(-1 -1.224647e-16 1.224647e-16 -1 498.195 409.3733)" style="fill:#8A9EDB;" width="5.916" height="20.282"/>
			</g>
			<g>
				
					<rect x="216.843" y="223.279" transform="matrix(-1 -1.224647e-16 1.224647e-16 -1 439.6024 466.8391)" style="fill:#8A9EDB;" width="5.916" height="20.282"/>
				
					<rect x="231.492" y="223.279" transform="matrix(-1 -1.224647e-16 1.224647e-16 -1 468.8988 466.8391)" style="fill:#8A9EDB;" width="5.916" height="20.282"/>
				
					<rect x="246.14" y="223.279" transform="matrix(-1 -1.224647e-16 1.224647e-16 -1 498.195 466.8391)" style="fill:#8A9EDB;" width="5.916" height="20.282"/>
			</g>
			<g>
				
					<rect x="216.843" y="252.011" transform="matrix(-1 -1.224647e-16 1.224647e-16 -1 439.6024 524.3049)" style="fill:#8A9EDB;" width="5.916" height="20.282"/>
				
					<rect x="231.492" y="252.011" transform="matrix(-1 -1.224647e-16 1.224647e-16 -1 468.8988 524.3049)" style="fill:#8A9EDB;" width="5.916" height="20.282"/>
				
					<rect x="246.14" y="252.011" transform="matrix(-1 -1.224647e-16 1.224647e-16 -1 498.195 524.3049)" style="fill:#8A9EDB;" width="5.916" height="20.282"/>
			</g>
			<g>
				
					<rect x="216.843" y="280.744" transform="matrix(-1 -1.224647e-16 1.224647e-16 -1 439.6024 581.7708)" style="fill:#8A9EDB;" width="5.916" height="20.282"/>
				
					<rect x="231.492" y="280.744" transform="matrix(-1 -1.224647e-16 1.224647e-16 -1 468.8988 581.7708)" style="fill:#8A9EDB;" width="5.916" height="20.282"/>
				
					<rect x="246.14" y="280.744" transform="matrix(-1 -1.224647e-16 1.224647e-16 -1 498.195 581.7708)" style="fill:#8A9EDB;" width="5.916" height="20.282"/>
			</g>
		</g>
		<g>
			
				<rect x="527.025" y="169.381" transform="matrix(-1 -1.224647e-16 1.224647e-16 -1 1059.9664 350.7757)" style="fill:#8A9EDB;" width="5.916" height="12.014"/>
			
				<rect x="539.044" y="169.381" transform="matrix(-1 -1.224647e-16 1.224647e-16 -1 1084.0044 350.7757)" style="fill:#8A9EDB;" width="5.916" height="12.014"/>
			
				<rect x="527.025" y="186.401" transform="matrix(-1 -1.224647e-16 1.224647e-16 -1 1059.9664 384.8163)" style="fill:#8A9EDB;" width="5.916" height="12.014"/>
			
				<rect x="539.044" y="186.401" transform="matrix(-1 -1.224647e-16 1.224647e-16 -1 1084.0044 384.8163)" style="fill:#8A9EDB;" width="5.916" height="12.014"/>
			
				<rect x="527.025" y="203.421" transform="matrix(-1 -1.224647e-16 1.224647e-16 -1 1059.9664 418.8569)" style="fill:#8A9EDB;" width="5.916" height="12.014"/>
			
				<rect x="539.044" y="203.421" transform="matrix(-1 -1.224647e-16 1.224647e-16 -1 1084.0044 418.8569)" style="fill:#8A9EDB;" width="5.916" height="12.014"/>
			
				<rect x="527.025" y="220.441" transform="matrix(-1 -1.224647e-16 1.224647e-16 -1 1059.9664 452.8973)" style="fill:#8A9EDB;" width="5.916" height="12.014"/>
			
				<rect x="539.044" y="220.441" transform="matrix(-1 -1.224647e-16 1.224647e-16 -1 1084.0044 452.8973)" style="fill:#8A9EDB;" width="5.916" height="12.014"/>
			
				<rect x="527.025" y="237.462" transform="matrix(-1 -1.224647e-16 1.224647e-16 -1 1059.9664 486.9379)" style="fill:#8A9EDB;" width="5.916" height="12.014"/>
			
				<rect x="539.044" y="237.462" transform="matrix(-1 -1.224647e-16 1.224647e-16 -1 1084.0044 486.9379)" style="fill:#8A9EDB;" width="5.916" height="12.014"/>
			
				<rect x="527.025" y="254.828" transform="matrix(-1 -1.224647e-16 1.224647e-16 -1 1059.9664 521.6709)" style="fill:#8A9EDB;" width="5.916" height="12.014"/>
			
				<rect x="539.044" y="254.828" transform="matrix(-1 -1.224647e-16 1.224647e-16 -1 1084.0044 521.6709)" style="fill:#8A9EDB;" width="5.916" height="12.014"/>
			
				<rect x="527.025" y="271.849" transform="matrix(-1 -1.224647e-16 1.224647e-16 -1 1059.9664 555.7115)" style="fill:#8A9EDB;" width="5.916" height="12.014"/>
			
				<rect x="539.044" y="271.849" transform="matrix(-1 -1.224647e-16 1.224647e-16 -1 1084.0044 555.7115)" style="fill:#8A9EDB;" width="5.916" height="12.014"/>
		</g>
		<g>
			
				<rect x="282.901" y="186.401" transform="matrix(-1 -1.224647e-16 1.224647e-16 -1 571.7176 384.8163)" style="fill:#8A9EDB;" width="5.916" height="12.014"/>
			
				<rect x="294.92" y="186.401" transform="matrix(-1 -1.224647e-16 1.224647e-16 -1 595.7556 384.8163)" style="fill:#8A9EDB;" width="5.916" height="12.014"/>
			
				<rect x="282.901" y="203.421" transform="matrix(-1 -1.224647e-16 1.224647e-16 -1 571.7176 418.8569)" style="fill:#8A9EDB;" width="5.916" height="12.014"/>
			
				<rect x="294.92" y="203.421" transform="matrix(-1 -1.224647e-16 1.224647e-16 -1 595.7556 418.8569)" style="fill:#8A9EDB;" width="5.916" height="12.014"/>
			
				<rect x="282.901" y="220.441" transform="matrix(-1 -1.224647e-16 1.224647e-16 -1 571.7176 452.8973)" style="fill:#8A9EDB;" width="5.916" height="12.014"/>
			
				<rect x="294.92" y="220.441" transform="matrix(-1 -1.224647e-16 1.224647e-16 -1 595.7556 452.8973)" style="fill:#8A9EDB;" width="5.916" height="12.014"/>
			
				<rect x="282.901" y="237.462" transform="matrix(-1 -1.224647e-16 1.224647e-16 -1 571.7176 486.9379)" style="fill:#8A9EDB;" width="5.916" height="12.014"/>
			
				<rect x="294.92" y="237.462" transform="matrix(-1 -1.224647e-16 1.224647e-16 -1 595.7556 486.9379)" style="fill:#8A9EDB;" width="5.916" height="12.014"/>
			
				<rect x="282.901" y="254.828" transform="matrix(-1 -1.224647e-16 1.224647e-16 -1 571.7176 521.6709)" style="fill:#8A9EDB;" width="5.916" height="12.014"/>
			
				<rect x="294.92" y="254.828" transform="matrix(-1 -1.224647e-16 1.224647e-16 -1 595.7556 521.6709)" style="fill:#8A9EDB;" width="5.916" height="12.014"/>
			
				<rect x="282.901" y="271.849" transform="matrix(-1 -1.224647e-16 1.224647e-16 -1 571.7176 555.7115)" style="fill:#8A9EDB;" width="5.916" height="12.014"/>
			
				<rect x="294.92" y="271.849" transform="matrix(-1 -1.224647e-16 1.224647e-16 -1 595.7556 555.7115)" style="fill:#8A9EDB;" width="5.916" height="12.014"/>
		</g>
		<g>
			
				<rect x="575.289" y="167.315" transform="matrix(-1 -1.224647e-16 1.224647e-16 -1 1156.494 346.6443)" style="fill:#8A9EDB;" width="5.916" height="12.014"/>
			
				<rect x="587.308" y="167.315" transform="matrix(-1 -1.224647e-16 1.224647e-16 -1 1180.532 346.6443)" style="fill:#8A9EDB;" width="5.916" height="12.014"/>
			
				<rect x="575.289" y="184.335" transform="matrix(-1 -1.224647e-16 1.224647e-16 -1 1156.494 380.6847)" style="fill:#8A9EDB;" width="5.916" height="12.014"/>
			
				<rect x="587.308" y="184.335" transform="matrix(-1 -1.224647e-16 1.224647e-16 -1 1180.532 380.6847)" style="fill:#8A9EDB;" width="5.916" height="12.014"/>
			
				<rect x="575.289" y="201.355" transform="matrix(-1 -1.224647e-16 1.224647e-16 -1 1156.494 414.7253)" style="fill:#8A9EDB;" width="5.916" height="12.014"/>
			
				<rect x="587.308" y="201.355" transform="matrix(-1 -1.224647e-16 1.224647e-16 -1 1180.532 414.7253)" style="fill:#8A9EDB;" width="5.916" height="12.014"/>
			
				<rect x="575.289" y="218.376" transform="matrix(-1 -1.224647e-16 1.224647e-16 -1 1156.494 448.7659)" style="fill:#8A9EDB;" width="5.916" height="12.014"/>
			
				<rect x="587.308" y="218.376" transform="matrix(-1 -1.224647e-16 1.224647e-16 -1 1180.532 448.7659)" style="fill:#8A9EDB;" width="5.916" height="12.014"/>
			
				<rect x="575.289" y="235.396" transform="matrix(-1 -1.224647e-16 1.224647e-16 -1 1156.494 482.8063)" style="fill:#8A9EDB;" width="5.916" height="12.014"/>
			
				<rect x="587.308" y="235.396" transform="matrix(-1 -1.224647e-16 1.224647e-16 -1 1180.532 482.8063)" style="fill:#8A9EDB;" width="5.916" height="12.014"/>
			
				<rect x="575.289" y="252.763" transform="matrix(-1 -1.224647e-16 1.224647e-16 -1 1156.494 517.5395)" style="fill:#8A9EDB;" width="5.916" height="12.014"/>
			
				<rect x="587.308" y="252.763" transform="matrix(-1 -1.224647e-16 1.224647e-16 -1 1180.532 517.5395)" style="fill:#8A9EDB;" width="5.916" height="12.014"/>
			
				<rect x="575.289" y="269.783" transform="matrix(-1 -1.224647e-16 1.224647e-16 -1 1156.494 551.5799)" style="fill:#8A9EDB;" width="5.916" height="12.014"/>
			
				<rect x="587.308" y="269.783" transform="matrix(-1 -1.224647e-16 1.224647e-16 -1 1180.532 551.5799)" style="fill:#8A9EDB;" width="5.916" height="12.014"/>
		</g>
		<polygon style="fill:#8A9EDB;" points="519.176,307.276 514.174,307.276 514.174,163.841 519.176,155.514 		"/>
		<polygon style="fill:#8A9EDB;" points="566.888,307.276 561.886,307.276 561.886,163.841 566.888,155.514 		"/>
		<polygon style="fill:#8A9EDB;" points="614.879,307.276 623.309,307.276 623.309,190.099 614.879,195.766 		"/>
		<polygon style="fill:#8A9EDB;" points="350.396,307.276 358.826,307.276 358.826,190.099 350.396,195.766 		"/>
		<polyline style="fill:#8A9EDB;" points="266.169,307.276 274.599,307.276 274.599,174.58 266.169,180.247 		"/>
	</g>
	<rect style="fill:#F2F1E6;" width="242.251" height="302.409"/>
	<path style="fill:#FBFAEF;" d="M492.609,0h-18.388v76.668H266.83V0h-24.579v301.026h24.579V199.296h207.391v101.731h18.388V199.296
		H700v-10.449H492.609V87.116H700V76.668H492.609V0z M474.221,188.847H266.83V87.116h207.391V188.847z"/>
	<path style="fill:#FFFFFF;" d="M376.035,161.624c-2.896-0.77-2.791-2.166-4.841-2.231c-2.436-0.077-7.461-1.439-7.413-2.156
		c0.17-2.513-4.391-4.152-6.933-3.979c-0.666-1.538-1.739-2.92-3.324-3.923c-3.13-1.981-6.708-1.672-9.7-0.42
		c-0.217-0.561-0.525-1.104-0.949-1.612c-1.611-1.931-4.902-3.445-7.495-2.762c-2.47,0.651-3.466,3.048-3.608,5.178
		c-1.428-0.626-3.02-0.961-3.945-0.5c-1.407,0.701-1.301,3.25-0.804,5.38c-9.967-4.38-17.162,1.516-16.995,3.981
		c0.048,0.717,0.477,1.39,1.031,1.975c-0.634,0.228-1.327,0.519-2.12,0.856c-1.568,0.668-3.888-0.752-6.324-0.675
		c-2.05,0.065-1.945,1.461-4.841,2.231c-2.564,0.682-7.225,1.033-7.228,1.252c-0.004,0.278,5.976,0.298,10.03,0.668
		c5.414,0.494,4.402-0.186,9.452-0.169c7.596,0.027,21.145,2.269,27.866,1.737c4.2-0.332,2.339-1.436,6.308-1.667
		c0,0,5.799,3.735,10.389,0.628c0.433-0.293,0.836-0.698,1.2-1.186c2.283-0.43,4.748-0.845,7.989-0.856
		c5.049-0.018,4.038,0.663,9.451,0.169c4.055-0.37,10.034-0.39,10.03-0.668C383.26,162.658,378.599,162.306,376.035,161.624z"/>
	<path style="fill:#FFFFFF;" d="M649.875,109.636c-2.896-0.77-2.791-2.166-4.841-2.231c-2.436-0.077-7.461-1.439-7.413-2.156
		c0.17-2.513-4.39-4.152-6.933-3.979c-0.666-1.538-1.739-2.92-3.324-3.923c-3.13-1.981-6.708-1.672-9.7-0.42
		c-0.217-0.561-0.525-1.104-0.949-1.612c-1.611-1.931-4.902-3.445-7.495-2.762c-2.47,0.651-3.466,3.048-3.608,5.178
		c-1.428-0.626-3.02-0.961-3.945-0.5c-1.407,0.701-1.301,3.25-0.804,5.38c-9.967-4.38-17.162,1.516-16.995,3.981
		c0.048,0.717,0.477,1.39,1.031,1.975c-0.635,0.228-1.327,0.519-2.12,0.857c-1.568,0.668-3.888-0.752-6.324-0.675
		c-2.05,0.065-1.945,1.461-4.841,2.231c-2.564,0.682-7.225,1.033-7.228,1.252c-0.004,0.278,5.975,0.298,10.03,0.668
		c5.414,0.494,4.402-0.186,9.452-0.169c7.596,0.027,21.145,2.269,27.866,1.737c4.2-0.332,2.339-1.436,6.308-1.667
		c0,0,5.799,3.735,10.389,0.628c0.433-0.293,0.836-0.698,1.2-1.186c2.283-0.43,4.748-0.845,7.989-0.856
		c5.049-0.018,4.038,0.662,9.451,0.169c4.055-0.37,10.034-0.39,10.03-0.668C657.1,110.669,652.439,110.317,649.875,109.636z"/>
	<rect y="294.656" style="fill:#DBDAD0;" width="700" height="15.948"/>
	<rect x="33.821" y="37.586" style="fill:#DBDAD0;" width="43.642" height="76.142"/>
	<rect x="97.656" y="71.045" style="fill:#DBDAD0;" width="43.642" height="76.142"/>
</g>
<g id="OBJECTS">
	<g>
		<path style="fill:#6D7CAC;" d="M240.608,313.288c0,1.827-9.626,3.309-21.501,3.309c-11.875,0-21.501-1.481-21.501-3.309
			c0-1.827,9.626-3.308,21.501-3.308C230.982,309.98,240.608,311.461,240.608,313.288z"/>
		<g>
			<ellipse style="fill:#8B5437;" cx="219.781" cy="256.933" rx="24.966" ry="1.362"/>
			<g>
				<g>
					<path style="fill:#8EB576;" d="M276.38,194.848c-0.368,0.167-0.9,0.38-1.553,0.627c-10.162,3.834-21.138,5-31.897,3.515
						l-1.491-0.206c0,0-8.056-58.796,61.941-42.101C303.38,156.684,296.244,185.847,276.38,194.848z"/>
				</g>
				<path style="fill:none;stroke:#588761;stroke-linecap:round;stroke-miterlimit:10;" d="M218.584,254.487
					c0,0,2.859-15.36,13.074-25.213"/>
				<path style="fill:none;stroke:#588761;stroke-linecap:round;stroke-miterlimit:10;" d="M222.621,197.138
					c0,0-9.094,46.435-0.892,76.749"/>
				<path style="fill:#8EB576;" d="M227.918,194.527c-1.437-2.398-7.239-11.611-7.781-13.302c-4.304-7.532-6.99-12.53-6.99-12.53
					s-43.855,26.62,5.481,64.512C218.628,233.206,236.53,208.9,227.918,194.527z"/>
				<path style="fill:none;stroke:#588761;stroke-linecap:round;stroke-miterlimit:10;" d="M218.628,233.206
					c0,0,1.161-17.832-0.911-32.926c-2.173-15.83-4.19-24.055-4.19-24.055"/>
				<path style="fill:none;stroke:#588761;stroke-linecap:round;stroke-miterlimit:10;" d="M206.544,212.074
					c0,0,9.001,3.569,11.95,11.484c0,0,2.794-14.743,6.984-20.33"/>
				<path style="fill:none;stroke:#588761;stroke-linecap:round;stroke-miterlimit:10;" d="M199.715,195.935
					c0,0,15.61,4.316,18.869,13.783c0,0,2.547-10.368,4.875-13.938"/>
				<path style="fill:none;stroke:#588761;stroke-linecap:round;stroke-miterlimit:10;" d="M204.061,182.433
					c0,0,9.584,2.494,12.688,11.185c0,0,1.125-7.771,0.969-9.788"/>
				<path style="fill:none;stroke:#588761;stroke-linecap:round;stroke-miterlimit:10;" d="M286.002,163.499
					c0,0-62.697,27.314-67.353,93.425"/>
				<path style="fill:none;stroke:#588761;stroke-linecap:round;stroke-miterlimit:10;" d="M251.446,169.604
					c0,0-5.38,13.864-2.897,21.313c0,0,21.106-9.105,33.314-9.518"/>
				<path style="fill:none;stroke:#588761;stroke-linecap:round;stroke-miterlimit:10;" d="M261.378,162.154l-2.769,19.244
					c0,0,19.944-11.588,30.911-9.932"/>
				<path style="fill:none;stroke:#588761;stroke-linecap:round;stroke-miterlimit:10;" d="M273.043,157.214l-0.155,13.579
					c0,0,12.493-5.949,24.908-8.639"/>
				<g>
					<g>
						<path style="fill:#8EB576;" d="M225.15,238.086c0,0,2.17-17.907,12.852-22.055c10.682-4.148,18.853-7.692,18.853-7.692
							S266.351,236.087,225.15,238.086z"/>
						<path style="fill:none;stroke:#588761;stroke-linecap:round;stroke-miterlimit:10;" d="M225.15,238.086
							c0,0,6.379-5.138,14.682-11.424c8.31-6.291,15.674-16.683,15.674-16.683"/>
					</g>
					<path style="fill:none;stroke:#588761;stroke-linecap:round;stroke-miterlimit:10;" d="M243.867,215.101l-2.308,10.187
						c-0.09,0.353,0.233-0.482,0.59-0.555c2.449-0.502,10.093-2.355,12.814-6.372"/>
					<path style="fill:none;stroke:#588761;stroke-linecap:round;stroke-miterlimit:10;" d="M232.15,222.24v10.058
						c0,0,8.691,0.96,16.916-3.307"/>
				</g>
			</g>
			<g>
				<path style="fill:#B56D47;" d="M194.815,256.826l7.4,55.4c0,2.714,7.864,4.914,17.566,4.914c9.701,0,17.565-2.2,17.565-4.914
					l7.4-55.4H194.815z"/>
			</g>
		</g>
	</g>
	<rect x="425.468" y="365.5" style="fill:#D4D2D2;" width="34.792" height="3.439"/>
	<g>
		
			<rect x="184.609" y="397.827" transform="matrix(-1 -1.224647e-16 1.224647e-16 -1 409.8081 800.2347)" style="fill:#D4D2D2;" width="40.59" height="4.582"/>
		
			<rect x="184.609" y="400.117" transform="matrix(-1 -1.224647e-16 1.224647e-16 -1 409.8081 802.5255)" style="fill:#ACABAB;" width="40.59" height="2.291"/>
		
			<rect x="200.418" y="374.807" transform="matrix(-1 -1.224647e-16 1.224647e-16 -1 435.6276 753.2787)" style="fill:#D4D2D2;" width="34.792" height="3.664"/>
		
			<rect x="200.418" y="376.637" transform="matrix(-1 -1.224647e-16 1.224647e-16 -1 435.6276 755.1082)" style="fill:#ACABAB;" width="34.792" height="1.835"/>
		<path style="fill:#242424;" d="M191.555,381.43h22.908v-8.862h-22.908l0,0C189.949,375.304,189.949,378.694,191.555,381.43
			L191.555,381.43z"/>
		
			<rect x="191.448" y="385.018" transform="matrix(-1 -1.224647e-16 1.224647e-16 -1 423.4859 774.9177)" style="fill:#D4D2D2;" width="40.59" height="4.882"/>
		
			<rect x="191.448" y="387.575" transform="matrix(-1 -1.224647e-16 1.224647e-16 -1 423.4859 777.4745)" style="fill:#ACABAB;" width="40.59" height="2.325"/>
		<path style="fill:#242424;" d="M181.109,392.744h26.725v-10.338h-26.725l0,0C179.235,385.597,179.235,389.552,181.109,392.744
			L181.109,392.744z"/>
		<path style="fill:#242424;" d="M174.27,405.245h26.725v-10.338H174.27l0,0C172.396,398.098,172.396,402.053,174.27,405.245
			L174.27,405.245z"/>
		<path style="fill:#ACABAB;" d="M204.906,385.209c0,0.411-2.493,0.744-5.569,0.744c-3.076,0-5.569-0.333-5.569-0.744
			c0-0.411,2.493-0.744,5.569-0.744C202.413,384.466,204.906,384.799,204.906,385.209z"/>
	</g>
	<g>
		<defs>
			<rect id="SVGID_00000100379330726632820880000012090649869518981803_" x="-0.565" y="92.387" width="242.816" height="407.613"/>
		</defs>
		<clipPath id="SVGID_00000119803883854097047300000009639891267698631337_">
			<use xlink:href="#SVGID_00000100379330726632820880000012090649869518981803_"  style="overflow:visible;"/>
		</clipPath>
		<g style="clip-path:url(#SVGID_00000119803883854097047300000009639891267698631337_);">
			
				<rect x="203.106" y="365.5" transform="matrix(-1 -1.224647e-16 1.224647e-16 -1 440.9137 734.421)" style="fill:#D4D2D2;" width="34.701" height="3.422"/>
			
				<rect x="203.106" y="367.211" transform="matrix(-1 -1.224647e-16 1.224647e-16 -1 440.9137 736.1318)" style="fill:#ACABAB;" width="34.701" height="1.711"/>
			<path style="fill:#FFBAA8;" d="M203.873,350.993c0,0-6.625-5.179-14.282-3.605c-8.734,1.796-7.118,21.633-7.118,21.633
				s3.243,9.647,11.658,8.939c3.603-0.303,26.4,2.936,19.717-11.649C208.652,354.967,203.873,350.993,203.873,350.993z"/>
			<g>
				<path style="fill:#FFBAA8;" d="M189.592,347.388c-22.75-9.876-25.334-8.31-47.113-19.574c1.289-3.166,2.24-16.18,5.604-27.206
					c-15.533-9.643-51.113-31.105-51.113-31.105c-13.576,42.901-13.421,49.906,0.932,62.198
					c10.172,8.711,17.977,11.962,30.079,17.18c24.383,10.514,28.607,14.245,54.493,20.14
					C182.474,369.021,189.592,347.388,189.592,347.388z"/>
				<path style="fill:none;stroke:#191919;stroke-linecap:round;stroke-miterlimit:10;" d="M130.537,315.004
					c0,0-6.493-10.935-23.047-7.452"/>
			</g>
			<polygon style="fill:#242424;" points="200.951,372.312 219.492,372.312 219.492,361.974 192.767,361.974 			"/>
			<g>
				<path style="fill:#FFBAA8;" d="M210.667,356.313c0,0-5.907-6.474-8.115-5.569c-5.301,2.173,0.935,7.298,2.594,10.252
					c3.452,6.148,6.345,9.048,11.169,7.926C221.407,367.737,210.667,356.313,210.667,356.313z"/>
			</g>
			<path style="fill:none;stroke:#191919;stroke-linecap:round;stroke-miterlimit:10;" d="M213.446,368.921
				c-5.457-1.126-7.716-7.662-8.299-7.926c0,0-5.14,2.756-12.379-3.131"/>
			<path style="fill:#FFBAA8;stroke:#191919;stroke-linecap:round;stroke-miterlimit:10;" d="M190.96,364.611
				c-4.504-2.809-5.114,1.7-5.114,1.7s-0.73,7.027,1.292,8.936"/>
			<path style="fill:#FFBAA8;stroke:#191919;stroke-linecap:round;stroke-miterlimit:10;" d="M197.811,363.486
				c0,0-0.606-3.79-4.599-2.749c-1.135,0.296-1.732,1.486-1.973,2.8c-0.842,4.579,0.245,13.399,2.893,14.423"/>
			<path style="fill:#FFBAA8;stroke:#000000;stroke-linecap:round;stroke-miterlimit:10;" d="M211.23,372.087l-4.78-1.083
				c0,0-2.677-9.119-5.611-9.03c-3.936,0.12-3.866,2.985-2.239,10.113c1.278,5.6,4.678,5.994,4.678,5.994"/>
		</g>
		<g style="clip-path:url(#SVGID_00000119803883854097047300000009639891267698631337_);">
			<path style="fill:#CCCB20;" d="M136.793,500c0,0,4.617-9.632,2.277-21.749c-3.333-17.253-26.685-124.981-26.685-124.981
				s-63.108-3.297-116.549,0l-8.065,23.081c-5.325,21.995-4.58,39.772,2.831,48.832v10.513L-0.565,500h50.566v-81.671l9.267-1.248
				c0,0,27.642,80.454,30.187,82.919H136.793z"/>
			<path style="fill:none;stroke:#191919;stroke-linecap:round;stroke-miterlimit:10;" d="M95.682,498.581
				c-9.867-30.489-20.41-58.253-30.276-88.741l8.996-7.363"/>
			<polyline style="fill:none;stroke:#191919;stroke-linecap:round;stroke-miterlimit:10;" points="50.001,418.329 52.765,411.725 
				65.406,409.839 			"/>
			<path style="fill:#B56D47;" d="M101.165,159.093l-0.296,8.501c-0.026,0.738,0.255,1.454,0.776,1.978l2.011,2.023l1.574-12.043
				L101.165,159.093z"/>
			<g>
				<path style="fill:#FFBAA8;" d="M57.703,231.674c4.642-8.608,31.383-40.121,31.383-40.121l2.97,0.647
					c0.822,0.179,1.66,0.27,2.501,0.275c1.714,0.01,2.43,0.068,3.274-2.073l6.565-16.652l39.702,15.651l-6.565,16.652
					c-1.013,2.569,0.124,5.423,2.538,6.375l1.494,0.589c6.074,2.395,11.746,20.017,9.265,29.477l-59.315-0.549L4.392,354.088
					L57.703,231.674z"/>
				<path style="opacity:0.25;fill:#86618C;" d="M97.714,190.698l3.532,1.832c9.027,4.682,25.745,16.115,35.982,16.256l0.054-2.096
					l6.816-17.289l-39.702-15.652L97.714,190.698z"/>
				<path style="fill:#FFFFFF;" d="M182.038,162.091"/>
				<path style="fill:#4F2DBD;" d="M143.077,212.837c0,0-16.59,25.042-53.991-21.284c0,0-37.416-6.45-56.799,49.009l-17.049,57.883
					l-29.32,70.577l0,0c24.616,17.581,37.064,18.446,56.871,23.887c26.534,7.289,54.943,2.334,77.526-13.387l0,0l23.026-68.585
					l10.266,1.568C153.607,312.503,181.925,235.493,143.077,212.837z"/>
				<path style="fill:#FFBAA8;" d="M95.903,145.259c-2.244,5.759,0.112,11.952,5.262,13.833c5.149,1.881,11.143-1.263,13.386-7.022
					c2.243-5.759-0.112-11.952-5.262-13.833C104.14,136.357,98.147,139.5,95.903,145.259z"/>
				<path style="opacity:0.25;fill:#86618C;" d="M95.903,145.259c-2.244,5.759,0.112,11.952,5.262,13.833
					c5.149,1.881,11.143-1.263,13.386-7.022c2.243-5.759-0.112-11.952-5.262-13.833C104.14,136.357,98.147,139.5,95.903,145.259z"/>
				<path style="fill:#FFBAA8;" d="M155.249,169.501c-2.51,6.443,0.126,13.372,5.887,15.477c5.761,2.104,12.466-1.413,14.976-7.856
					c2.51-6.443-0.126-13.372-5.887-15.477C164.464,159.541,157.759,163.058,155.249,169.501z"/>
				<path style="opacity:0.25;fill:#86618C;" d="M155.249,169.501c-2.51,6.443,0.126,13.372,5.887,15.477
					c5.761,2.104,12.466-1.413,14.976-7.856c2.51-6.443-0.126-13.372-5.887-15.477C164.464,159.541,157.759,163.058,155.249,169.501
					z"/>
				<path style="fill:#FFBAA8;" d="M110.465,144.621c-11.016,24.356-10.398,49.621,14.699,58.299
					c15.287,5.286,31.662,9.104,42.434-16.684c2.329-5.577,6.119-16.546,6.119-16.546c11.686-20.307,9.276-43.37-19.539-51.444
					C131.064,111.77,121.481,120.265,110.465,144.621z"/>
				<path style="opacity:0.25;fill:#86618C;" d="M114.889,135.619l4.286-6.999c0,0-22.91,68.176,32.933,75.097
					c0.318,0.04,1.19,0.41,1.499,0.45c-2.442,1.341-5.576,2.28-9.677,2.58c-6.134,0.234-12.54-1.673-18.766-3.826
					c-23.61-8.164-24.747-30.229-17.673-50.958c0.241-0.707,0.506-1.401,0.782-2.096
					C109.435,146.945,111.984,140.09,114.889,135.619z"/>
				<path style="fill:#B56D47;" d="M166.653,160.124c-0.753-0.352-0.812-1.452-0.114-2.004c0.915-0.723,2.295-1.336,4.014-0.641
					c3.221,1.303,3.264,3.692,2.332,4.528C172.222,162.602,168.65,161.059,166.653,160.124z"/>
				<g>
					<path style="fill:#B56D47;" d="M141.235,148.398c-1.31-0.314-0.679-1.625-0.062-2.23c0.948-0.929,2.306-1.27,3.597-1.031
						c3.474,0.643,3.896,2.921,3.085,3.895C147.276,149.725,143.41,148.919,141.235,148.398z"/>
				</g>
				<path style="fill:none;stroke:#191919;stroke-linecap:round;stroke-miterlimit:10;" d="M132.526,168.87
					c0,0,0.814,11.069,12.755,12.173"/>
				<path style="fill:none;stroke:#191919;stroke-linecap:round;stroke-miterlimit:10;" d="M137.533,206.053
					c0,0-21.405-5.655-28.983-21.343"/>
				
					<line style="fill:none;stroke:#191919;stroke-linecap:round;stroke-linejoin:round;stroke-miterlimit:10;" x1="148.248" y1="288.596" x2="138.482" y2="322.327"/>
				<path style="fill:none;stroke:#191919;stroke-linecap:round;stroke-miterlimit:10;" d="M104.14,143.976
					c0,0,3.706,2.575,3.028,7.214c0,0-5.84-1.93-4.877,1.884"/>
				<path style="fill:#FFBAA8;stroke:#191919;stroke-linecap:round;stroke-miterlimit:10;" d="M158.651,162.402
					c0,0-0.947,7.884-1.478,9.343c-0.902,2.478-2.363,4.746-6.343,3.479"/>
				<path style="fill:#191919;" d="M143.318,163.204c-0.511,1.296-1.633,2.068-2.507,1.724c-0.873-0.344-1.167-1.674-0.656-2.97
					c0.511-1.296,1.633-2.068,2.507-1.723C143.535,160.578,143.829,161.908,143.318,163.204z"/>
				<path style="fill:#191919;" d="M168.123,171.573c-0.511,1.296-1.633,2.068-2.507,1.723c-0.874-0.344-1.167-1.674-0.656-2.97
					c0.511-1.296,1.633-2.068,2.507-1.723C168.34,168.947,168.634,170.277,168.123,171.573z"/>
			</g>
			<path style="fill:#B56D47;" d="M112.302,140.689l1.117,14.257c0,0,3.175-7.074,6.668-11.188c0,0,9.894,0.222,14.646-11.567
				c0,0,12.901-2.92,26.437,2.832c13.537,5.752,18.998,15.359,18.998,15.359s17.374-21.978,15.321-29.026
				c-2.053-7.048-19.157-11.549-41.401-14.495c-22.244-2.947-31.443,5.073-31.443,5.073s-14.149-4.126-16.527,7.416
				c-2.378,11.542-2.577,18.726-2.577,18.726S109.29,138.238,112.302,140.689z"/>
			<path style="fill:none;stroke:#191919;stroke-linecap:round;stroke-miterlimit:10;" d="M118.07,125.622
				c0,0-6.19,9.674-5.768,15.067"/>
			<path style="fill:none;stroke:#191919;stroke-linecap:round;stroke-miterlimit:10;" d="M113.072,118.297
				c0,0-4.958,13.557-3.782,19.941"/>
			<path style="fill:none;stroke:#191919;stroke-linecap:round;stroke-miterlimit:10;" d="M-1.338,378.07
				c0,0-2.614,16.871,7.569,121.93"/>
			<path style="fill:none;stroke:#191919;stroke-linecap:round;stroke-miterlimit:10;" d="M-12.229,382.19l4.58,1.531
				c0,0,0.101,27.972-7.24,29.311"/>
		</g>
		<g style="clip-path:url(#SVGID_00000119803883854097047300000009639891267698631337_);">
			<path style="fill:#FFBAA8;" d="M181.925,381.608c0,0,9.751,1.315,10.572,7.656c0.28,2.16-6.025,4.812-6.025,4.812
				L181.925,381.608z"/>
			<path style="fill:#FFBAA8;" d="M182.344,380.841c-1.426-2.81-2.565-11.856-19.141-13.434
				c-11.089-1.055-8.891,27.023-8.891,27.023s2.15,10.244,11.671,14.785c3.576,1.706,12.346,2.936,18.388,2.319
				c0,0,4.681,3.258,7.852,0.162C195.287,408.704,186.292,388.621,182.344,380.841z"/>
			<g>
				<path style="fill:#FFBAA8;" d="M162.174,367.405c-25.196-10.938-44.638-27.116-68.758-39.59
					c1.428-3.506-4.341-24.994-4.064-42.033c-17.203-10.679-47.904-6.177-47.904-6.177c1.273,67.486,10.183,68.859,10.183,68.859
					c11.265,9.647,28.906,14.816,42.309,20.595c27.004,11.644,31.682,15.776,60.351,22.305
					C154.291,391.364,162.174,367.405,162.174,367.405z"/>
				<path style="fill:none;stroke:#191919;stroke-linecap:round;stroke-miterlimit:10;" d="M93.416,327.814
					c0,0-3.836-8.385-22.169-4.528"/>
			</g>
			
				<line style="fill:none;stroke:#191919;stroke-linecap:round;stroke-miterlimit:10;" x1="184.995" y1="384.976" x2="188.404" y2="392.839"/>
			<path style="fill:none;stroke:#191919;stroke-linecap:round;stroke-miterlimit:10;" d="M179.898,399.838
				c0,0,4.083,11.814,5.096,11.576"/>
			<path style="fill:none;stroke:#191919;stroke-linecap:round;stroke-miterlimit:10;" d="M172.086,399.838
				c0,0,4.083,11.814,5.096,11.576"/>
			<path style="fill:none;stroke:#191919;stroke-linecap:round;stroke-miterlimit:10;" d="M164.771,399.838
				c0,0,3.731,10.784,4.745,10.547"/>
		</g>
	</g>
	<g>
		<defs>
			
				<rect id="SVGID_00000064345559236380157100000009790400942262907069_" x="429.826" y="77.334" width="270.174" height="422.666"/>
		</defs>
		<clipPath id="SVGID_00000005255298645882058930000005254371898971407749_">
			<use xlink:href="#SVGID_00000064345559236380157100000009790400942262907069_"  style="overflow:visible;"/>
		</clipPath>
		<path style="clip-path:url(#SVGID_00000005255298645882058930000005254371898971407749_);fill:#242424;" d="M469.123,371.592
			h-22.908v-8.861h22.908l0,0C470.729,365.466,470.729,368.856,469.123,371.592L469.123,371.592z"/>
		<path style="clip-path:url(#SVGID_00000005255298645882058930000005254371898971407749_);fill:#B56D47;" d="M462.377,360.486
			c0,0,6.613-5.117,14.282-3.605c14.197,2.799,7.118,21.633,7.118,21.633s-3.244,9.647-11.658,8.939
			c-3.603-0.303-26.4,2.936-19.717-11.649C457.598,364.461,462.377,360.486,462.377,360.486z"/>
		<g style="clip-path:url(#SVGID_00000005255298645882058930000005254371898971407749_);">
			<path style="fill:#B56D47;" d="M483.776,378.515c25.886-5.896,30.11-9.626,54.493-20.14c12.102-5.218,19.907-8.469,30.079-17.18
				c14.353-12.291,14.509-19.297,0.932-62.198c0,0-23.638,8.652-39.171,18.295c3.364,11.026,4.315,24.04,5.604,27.206
				c-21.779,11.263-34.757,24.75-57.508,34.626C478.206,359.123,483.776,378.515,483.776,378.515z"/>
			<path style="fill:none;stroke:#191919;stroke-linecap:round;stroke-miterlimit:10;" d="M535.713,324.497
				c0,0,6.493-10.935,23.047-7.452"/>
		</g>
		<polygon style="clip-path:url(#SVGID_00000005255298645882058930000005254371898971407749_);fill:#242424;" points="
			695.457,349.178 640.233,502.65 565.559,502.65 570.99,363.021 		"/>
		<polygon style="clip-path:url(#SVGID_00000005255298645882058930000005254371898971407749_);fill:#242424;" points="
			700.904,349.851 739.978,502.65 665.303,502.65 576.437,363.694 		"/>
		<path style="clip-path:url(#SVGID_00000005255298645882058930000005254371898971407749_);fill:#B56D47;" d="M647.013,212.05
			c-3.875-8.922-40.99-26.396-40.99-26.396c-2.473,0.74-5.117-0.793-5.904-3.424l-5.104-17.057l-40.665,12.169l5.104,17.056
			c0.787,2.631-0.579,5.364-3.052,6.105l-1.53,0.458c-6.221,1.862-25.658,15.234-23.995,24.818L647.013,212.05z"/>
		<path style="opacity:0.25;clip-path:url(#SVGID_00000005255298645882058930000005254371898971407749_);fill:#86618C;" d="
			M600.21,182.533l-3.655,1.518c-9.341,3.881-26.872,13.804-37.029,13.082l0.123-2.082l-5.299-17.709l40.665-12.169L600.21,182.533z
			"/>
		<path style="clip-path:url(#SVGID_00000005255298645882058930000005254371898971407749_);fill:#FFFFFF;" d="M523.225,137.921"/>
		<path style="clip-path:url(#SVGID_00000005255298645882058930000005254371898971407749_);fill:#CCCB20;" d="M553.389,200.656
			c0,0,7.748,31.337,55.301-16.549c0,0,49.518-2.935,67.185,94.269l34.376,74.367l0,0c-42.459,25.188-90.381,39.733-139.677,42.395
			l-2.428,0.131l-26.126-99.66l-18.443,5.337C523.576,300.944,498.305,231.568,553.389,200.656z"/>
		<path style="clip-path:url(#SVGID_00000005255298645882058930000005254371898971407749_);fill:#B56D47;" d="M610.57,148.768
			c0.321,6.87-4.364,12.565-10.463,12.719c-6.099,0.155-11.302-5.289-11.623-12.16c-0.32-6.87,4.364-12.565,10.462-12.72
			C605.046,136.454,610.249,141.898,610.57,148.768z"/>
		<path style="opacity:0.25;clip-path:url(#SVGID_00000005255298645882058930000005254371898971407749_);fill:#86618C;" d="
			M610.57,148.768c0.321,6.87-4.364,12.565-10.463,12.719c-6.099,0.155-11.302-5.289-11.623-12.16
			c-0.32-6.87,4.364-12.565,10.462-12.72C605.046,136.454,610.249,141.898,610.57,148.768z"/>
		<path style="clip-path:url(#SVGID_00000005255298645882058930000005254371898971407749_);fill:#B56D47;" d="M546.124,159.251
			c0.321,6.871-4.364,12.565-10.463,12.72c-6.099,0.155-11.302-5.289-11.623-12.16c-0.32-6.87,4.364-12.565,10.462-12.72
			C540.599,146.937,545.803,152.38,546.124,159.251z"/>
		<path style="opacity:0.25;clip-path:url(#SVGID_00000005255298645882058930000005254371898971407749_);fill:#86618C;" d="
			M546.124,159.251c0.321,6.871-4.364,12.565-10.463,12.72c-6.099,0.155-11.302-5.289-11.623-12.16
			c-0.32-6.87,4.364-12.565,10.462-12.72C540.599,146.937,545.803,152.38,546.124,159.251z"/>
		<path style="clip-path:url(#SVGID_00000005255298645882058930000005254371898971407749_);fill:#B56D47;" d="M599.2,144.406
			c2.651,26.455-8.915,49.845-35.328,50.057c-16.088,0.13-32.735-1.47-34.702-29.198c-0.425-5.996-0.515-17.539-0.515-17.539
			c-4.568-22.851,3.377-43.608,29.555-42.678C582.071,105.896,596.549,117.95,599.2,144.406z"/>
		<path style="opacity:0.25;clip-path:url(#SVGID_00000005255298645882058930000005254371898971407749_);fill:#86618C;" d="
			M597.766,135.862l-5.515-10.783c0,0,0.806,72.786-54.029,61.581c-0.312-0.064-1.252,0.009-1.556-0.052
			c1.876,2.039,4.532,3.92,8.303,5.504c5.708,2.169,12.352,2.404,18.903,2.351c25.379-0.204,37.044-21.81,35.566-46.97
			C599.227,145.174,599.222,141.535,597.766,135.862z"/>
		<path style="clip-path:url(#SVGID_00000005255298645882058930000005254371898971407749_);fill:#191919;" d="M535.703,146.086
			c0.817-0.123,1.186-1.154,0.676-1.879c-0.667-0.949-1.81-1.924-3.645-1.749c-3.44,0.329-4.158,2.596-3.507,3.656
			C529.691,146.871,533.533,146.412,535.703,146.086z"/>
		<g style="clip-path:url(#SVGID_00000005255298645882058930000005254371898971407749_);">
			<path style="fill:#191919;" d="M562.531,141.189c1.338,0.072,1.108-1.357,0.691-2.108c-0.641-1.154-1.839-1.865-3.137-2.003
				c-3.494-0.371-4.543,1.681-4.045,2.839C556.395,140.742,560.31,141.069,562.531,141.189z"/>
		</g>
		
			<path style="clip-path:url(#SVGID_00000005255298645882058930000005254371898971407749_);fill:none;stroke:#191919;stroke-linecap:round;stroke-miterlimit:10;" d="
			M568.471,163.629c0,0-4.455,11.038-16.138,6.703"/>
		
			<path style="clip-path:url(#SVGID_00000005255298645882058930000005254371898971407749_);fill:none;stroke:#191919;stroke-linecap:round;stroke-miterlimit:10;" d="
			M553.46,193.376c0,0,21.972,1.465,34.096-10.917"/>
		<path style="clip-path:url(#SVGID_00000005255298645882058930000005254371898971407749_);fill:#191919;" d="M591.329,150.839
			c0,0-7.549-3.301-9.491-10.268c-1.51-5.418-3.605-18.576-3.605-18.576s-44.354-14.064-49.979,7.242l0.401,18.489
			c0,0-2.99-19.007-5.146-32.682c-4.642-29.436,75.411-30.201,77.225-2.233C602.294,136.873,591.329,150.839,591.329,150.839z"/>
		
			<line style="clip-path:url(#SVGID_00000005255298645882058930000005254371898971407749_);fill:none;stroke:#191919;stroke-linecap:round;stroke-linejoin:round;stroke-miterlimit:10;" x1="541.79" y1="295.795" x2="535.081" y2="263.413"/>
		
			<line style="clip-path:url(#SVGID_00000005255298645882058930000005254371898971407749_);fill:none;stroke:#191919;stroke-linecap:round;stroke-linejoin:round;stroke-miterlimit:10;" x1="616.486" y1="297.38" x2="603.516" y2="261.232"/>
		
			<path style="clip-path:url(#SVGID_00000005255298645882058930000005254371898971407749_);fill:none;stroke:#191919;stroke-linecap:round;stroke-miterlimit:10;" d="
			M602.34,144.489c0,0-4.823,1.4-5.756,6.533c0,0,6.845,0.04,4.474,3.719"/>
		<path style="clip-path:url(#SVGID_00000005255298645882058930000005254371898971407749_);fill:#191919;" d="M557.378,155.014
			c0.147,1.385,1.023,2.428,1.957,2.329c0.933-0.099,1.571-1.303,1.424-2.688c-0.147-1.385-1.023-2.428-1.957-2.329
			C557.868,152.425,557.231,153.628,557.378,155.014z"/>
		<path style="clip-path:url(#SVGID_00000005255298645882058930000005254371898971407749_);fill:#191919;" d="M531.239,156.468
			c0.147,1.385,1.023,2.428,1.957,2.329c0.934-0.099,1.572-1.302,1.424-2.688c-0.147-1.385-1.023-2.428-1.957-2.329
			C531.73,153.879,531.092,155.083,531.239,156.468z"/>
		<polygon style="clip-path:url(#SVGID_00000005255298645882058930000005254371898971407749_);fill:#191919;" points="
			600.838,114.859 601.967,137 594.824,136.814 		"/>
		
			<path style="clip-path:url(#SVGID_00000005255298645882058930000005254371898971407749_);fill:#B56D47;stroke:#191919;stroke-linecap:round;stroke-miterlimit:10;" d="
			M541.01,155.858c0,0-1.99,2.537-1.897,4.078c0.158,2.618,2.833,5.372,6.986,5.292"/>
		
			<polyline style="clip-path:url(#SVGID_00000005255298645882058930000005254371898971407749_);fill:none;stroke:#B56D47;stroke-miterlimit:10;" points="
			605.629,439.796 625.142,439.796 649.26,477.564 		"/>
		<g style="clip-path:url(#SVGID_00000005255298645882058930000005254371898971407749_);">
			<path style="fill:#B56D47;" d="M576.518,382.638c25.341-7.914,30.664-9.976,54.144-22.375
				c11.654-6.155,22.797-14.069,32.252-23.553c17.667-17.721,7.875-32.652-3.24-60.059c0,0-24.503,10.714-40.256,21.056
				c4.221,10.727,8.288,16.904,9.822,19.958c-20.826,12.942-42.842,33.856-64.745,45.492
				C564.495,363.156,576.518,382.638,576.518,382.638z"/>
			<path style="fill:none;stroke:#191919;stroke-linecap:round;stroke-miterlimit:10;" d="M629.241,317.664
				c0,0,2.589-9.457,18.045-7.202"/>
		</g>
		<g style="clip-path:url(#SVGID_00000005255298645882058930000005254371898971407749_);">
			<path style="fill:#B56D47;" d="M523.531,371.247c0,0,9.937-2.244,11.13,1.229c1.193,3.473-4.893,5.443-8.207,5.024
				C523.14,377.082,519.799,373.908,523.531,371.247z"/>
			<g>
				<g>
					<g>
						<path style="fill:#B56D47;" d="M573.891,362.276c0,0-17.815-3.88-21.46-3.368c-3.645,0.512-15.447,9.298-18.45,12.643
							c0,0-3.606,2.071-4.663,2.937c-1.057,0.867-6.714,13.179-7.058,18.281c-0.155,2.304,3.172,4.02,4.856-0.049
							c1.521-3.673,1.164-1.941,1.164-1.941s0.945,7.003,3.031,7.953c2.217,1.011,3.664-0.708,3.382-4.719
							c-0.213-3.026-0.573-3.365-0.395-4.419l1.429-2.958c0,0,2.963,7.495,5.774,6.945c2.39-0.467,2.303-4.519-0.814-9.263
							c0,0,4.024,3.408,5.99,3.368c1.896-0.038,2.678-2.842,1.176-4.976c-0.561-0.797-1.045-1.403-1.436-1.853
							c-0.686-0.788-0.269-1.834,0.141-2.794c0.537-1.256,1.112-2.258,1.684-2.519c4.104-1.87,7.317,0.895,10.303,0.979
							c0,0,5.607,7.552,16.398,6.7C585.398,382.401,577.239,364.471,573.891,362.276z"/>
						<path style="fill:none;stroke:#000000;stroke-linecap:round;stroke-miterlimit:10;" d="M528.28,390.78
							c0,0,1.359-16.584,2.346-17.202"/>
						<path style="fill:none;stroke:#000000;stroke-linecap:round;stroke-miterlimit:10;" d="M535.727,386.637
							c0,0-2.888-13.939-1.746-15.086"/>
						<path style="fill:none;stroke:#000000;stroke-linecap:round;stroke-miterlimit:10;" d="M551.669,363.156
							c-1.125,0.568-10.432,7.221-10.988,8.915c-0.557,1.693,0.006,12.249,0.006,12.249"/>
					</g>
				</g>
			</g>
		</g>
		<polygon style="clip-path:url(#SVGID_00000005255298645882058930000005254371898971407749_);fill:#242424;" points="
			465.299,381.806 446.758,381.806 446.758,371.468 473.483,371.468 		"/>
		
			<path style="clip-path:url(#SVGID_00000005255298645882058930000005254371898971407749_);fill:none;stroke:#191919;stroke-linecap:round;stroke-miterlimit:10;" d="
			M452.804,378.415c5.457-1.126,7.716-7.662,8.3-7.926c0,0,5.14,2.756,12.379-3.132"/>
		
			<path style="clip-path:url(#SVGID_00000005255298645882058930000005254371898971407749_);fill:#B56D47;stroke:#191919;stroke-linecap:round;stroke-miterlimit:10;" d="
			M475.29,374.104c4.504-2.809,5.114,1.7,5.114,1.7s0.73,7.027-1.293,8.936"/>
		
			<path style="clip-path:url(#SVGID_00000005255298645882058930000005254371898971407749_);fill:#B56D47;stroke:#191919;stroke-linecap:round;stroke-miterlimit:10;" d="
			M468.439,372.979c0,0,0.606-3.79,4.599-2.749c1.135,0.296,1.732,1.486,1.973,2.8c0.842,4.579-0.245,13.399-2.893,14.423"/>
		
			<path style="clip-path:url(#SVGID_00000005255298645882058930000005254371898971407749_);fill:#B56D47;stroke:#000000;stroke-linecap:round;stroke-miterlimit:10;" d="
			M455.019,381.581l4.78-1.083c0,0,2.677-9.119,5.611-9.03c3.936,0.12,3.865,2.985,2.239,10.113c-1.278,5.6-4.678,5.994-4.678,5.994
			"/>
		
			<line style="clip-path:url(#SVGID_00000005255298645882058930000005254371898971407749_);fill:none;stroke:#191919;stroke-linecap:round;stroke-linejoin:round;stroke-miterlimit:10;" x1="662.894" y1="274.661" x2="649.924" y2="238.513"/>
		<g style="clip-path:url(#SVGID_00000005255298645882058930000005254371898971407749_);">
			<path style="fill:#B56D47;" d="M455.583,365.806c0,0,5.908-6.474,8.115-5.569c5.301,2.173-0.935,7.298-2.594,10.252
				c-3.452,6.147-6.345,9.048-11.169,7.926C444.843,377.23,455.583,365.806,455.583,365.806z"/>
		</g>
	</g>
	<g>
		<rect x="435.323" y="385.018" style="fill:#D4D2D2;" width="40.59" height="4.882"/>
		<rect x="435.323" y="387.459" style="fill:#ACABAB;" width="40.59" height="2.441"/>
		<path style="fill:#242424;" d="M486.252,392.744h-26.725v-10.338h26.725l0,0C488.125,385.597,488.125,389.552,486.252,392.744
			L486.252,392.744z"/>
		<path style="fill:#ACABAB;" d="M483.377,384.466c0,0.411-2.493,0.744-5.569,0.744c-3.076,0-5.569-0.333-5.569-0.744
			c0-0.411,2.493-0.744,5.569-0.744C480.883,383.722,483.377,384.055,483.377,384.466z"/>
	</g>
	<g>
		<rect x="442.162" y="397.827" style="fill:#D4D2D2;" width="40.59" height="4.499"/>
		<rect x="442.162" y="400.076" style="fill:#ACABAB;" width="40.59" height="2.25"/>
		<path style="fill:#242424;" d="M493.091,405.245h-26.725v-10.338h26.725l0,0C494.964,398.098,494.964,402.053,493.091,405.245
			L493.091,405.245z"/>
		<path style="fill:#ACABAB;" d="M492.208,397.827c0,0.411-2.493,0.744-5.569,0.744c-3.076,0-5.569-0.333-5.569-0.744
			c0-0.411,2.493-0.744,5.569-0.744C489.714,397.083,492.208,397.416,492.208,397.827z"/>
	</g>
	<g>
		<rect x="425.468" y="367.219" style="fill:#ACABAB;" width="34.792" height="1.719"/>
		<rect x="433.875" y="374.802" style="fill:#D4D2D2;" width="29.269" height="3.67"/>
		<rect x="433.875" y="376.637" style="fill:#ACABAB;" width="29.269" height="1.835"/>
		<rect x="436.799" y="470.976" style="fill:#8B5437;" width="29.024" height="29.024"/>
		<rect x="207.987" y="410.252" style="fill:#8B5437;" width="257.836" height="60.724"/>
		<polygon style="fill:#476A5C;" points="432.44,357.191 241.37,357.191 207.987,410.252 465.823,410.252 		"/>
		<polygon style="fill:#588761;" points="422.045,364.97 249.229,364.97 228.017,404.041 444.06,404.041 		"/>
		<path style="fill:#242424;" d="M412.732,433.427h25.472c4.348,0,7.872,3.524,7.872,7.872l0,0c0,4.348-3.524,7.872-7.872,7.872
			h-25.472c-4.348,0-7.872-3.524-7.872-7.872l0,0C404.86,436.951,408.384,433.427,412.732,433.427z"/>
		<rect x="207.987" y="470.976" style="fill:#8B5437;" width="29.024" height="29.024"/>
		<rect x="396.372" y="470.976" style="fill:#8B5437;" width="23" height="29.024"/>
		<rect x="252.948" y="470.976" style="fill:#8B5437;" width="23" height="29.024"/>
		<rect x="252.948" y="470.976" style="fill:#663E28;" width="23" height="9.685"/>
		<rect x="396.372" y="470.976" style="fill:#663E28;" width="23" height="9.685"/>
		<path style="fill:#9C9B9B;" d="M412.657,449.171h25.622c4.306,0,7.797-3.491,7.797-7.797v-0.15c0-0.671-0.094-1.319-0.253-1.94
			c-0.864,3.365-3.909,5.857-7.544,5.857h-25.622c-3.635,0-6.68-2.491-7.544-5.857c-0.159,0.621-0.253,1.269-0.253,1.94v0.15
			C404.86,445.68,408.351,449.171,412.657,449.171z"/>
		
			<line style="fill:none;stroke:#000000;stroke-linecap:round;stroke-miterlimit:10;" x1="237.01" y1="470.976" x2="207.987" y2="470.976"/>
		
			<line style="fill:none;stroke:#000000;stroke-linecap:round;stroke-miterlimit:10;" x1="465.823" y1="470.976" x2="436.799" y2="470.976"/>
		<path style="fill:#B56D47;" d="M432.44,357.191H241.37l-33.383,53.061h257.836L432.44,357.191z M245.813,361.974h180.539
			l23.695,39.107H223.764L245.813,361.974z"/>
		<g>
			<polygon style="fill:#B3DEFF;" points="396.501,406.91 275.576,406.91 278.016,403.092 394.061,403.092 			"/>
			<polygon style="fill:#242424;" points="278.598,407.594 273.029,407.594 275.814,402.408 281.383,402.408 			"/>
			<polygon style="fill:#242424;" points="393.345,407.594 398.914,407.594 396.13,402.408 390.561,402.408 			"/>
		</g>
		<g>
			<polygon style="fill:#B3DEFF;" points="380.545,360.138 291.497,360.138 294.282,357.973 377.758,357.973 			"/>
			<polygon style="fill:#242424;" points="293.723,360.526 289.622,360.526 292.698,357.585 296.704,357.585 			"/>
			<polygon style="fill:#242424;" points="378.221,360.526 382.322,360.526 379.246,357.585 375.24,357.585 			"/>
		</g>
		<polygon style="fill:#242424;" points="207.987,410.252 229.273,410.252 214.463,400.076 		"/>
		<polygon style="fill:#242424;" points="465.623,410.252 444.336,410.252 459.147,400.076 		"/>
		<polygon style="fill:#242424;" points="241.37,357.191 252.451,357.191 237.785,362.889 		"/>
		<polygon style="fill:#242424;" points="432.46,357.191 421.379,357.191 436.045,362.889 		"/>
		<g>
			<defs>
				<polygon id="SVGID_00000106142992003094873490000003897466387545931185_" points="256.735,342.921 415.217,342.921 
					450.046,401.081 223.764,401.081 				"/>
			</defs>
			<clipPath id="SVGID_00000016788319245354211850000011466983154100218793_">
				<use xlink:href="#SVGID_00000106142992003094873490000003897466387545931185_"  style="overflow:visible;"/>
			</clipPath>
			<g style="clip-path:url(#SVGID_00000016788319245354211850000011466983154100218793_);">
				<rect x="237.01" y="365.5" style="fill:#D4D2D2;" width="199.789" height="3.439"/>
				<rect x="237.01" y="367.219" style="fill:#ACABAB;" width="199.789" height="1.719"/>
				<g>
					<g>
						<g>
							<g>
								<path style="fill:#4F2DBD;" d="M285.956,368.788l1.365-10.641c0.115-0.893-0.508-1.692-1.318-1.692h-8.583
									c-0.81,0-1.433,0.799-1.318,1.692l1.428,11.135l-0.063-0.493H285.956z"/>
								<path style="fill:#FFBAA8;" d="M277.923,372.332l0.47,3.663c0.094,0.73,0.655,1.273,1.318,1.273h4.003
									c0.663,0,1.224-0.542,1.318-1.273l0.73-5.688l-0.26,2.024H277.923z"/>
								<polygon style="fill:#4F2DBD;" points="285.956,368.788 285.761,370.308 285.956,368.788 								"/>
								<polygon style="fill:#4F2DBD;" points="277.923,372.332 277.923,372.332 277.532,369.281 								"/>
								<polygon style="fill:#FFFFFF;" points="277.468,368.788 277.532,369.281 277.923,372.332 285.502,372.332 285.761,370.308 
									285.956,368.788 								"/>
							</g>
							<path style="fill:#242424;" d="M278.389,375.965l0.004,0.031c0.094,0.73,0.655,1.273,1.318,1.273h4.003
								c0.663,0,1.224-0.542,1.318-1.273l0.004-0.031H278.389z"/>
							<path style="fill:#FFBAA8;" d="M284.32,352.326c0,1.617-1.168,2.928-2.608,2.928c-1.44,0-2.608-1.311-2.608-2.928
								c0-1.617,1.168-2.928,2.608-2.928C283.153,349.398,284.32,350.709,284.32,352.326z"/>
						</g>
						<path style="fill:#242424;" d="M279.601,350.611c0,0,2.329,1.414,4.222,0v2.101l0.496-0.386c0,0,1.044-3.545-2.608-3.545
							c-3.652,0-2.608,3.545-2.608,3.545l0.288,0.386L279.601,350.611z"/>
					</g>
					<g>
						<g>
							<g>
								<path style="fill:#4F2DBD;" d="M335.976,368.788l1.365-10.641c0.115-0.893-0.508-1.692-1.318-1.692h-8.583
									c-0.81,0-1.433,0.799-1.318,1.692l1.429,11.135l-0.063-0.493H335.976z"/>
								<path style="fill:#FFBAA8;" d="M327.943,372.332l0.47,3.663c0.094,0.73,0.655,1.273,1.318,1.273h4.003
									c0.663,0,1.224-0.542,1.318-1.273l0.73-5.688l-0.26,2.024H327.943z"/>
								<polygon style="fill:#4F2DBD;" points="335.976,368.788 335.781,370.308 335.976,368.788 								"/>
								<polygon style="fill:#4F2DBD;" points="327.943,372.332 327.943,372.332 327.551,369.281 								"/>
								<polygon style="fill:#FFFFFF;" points="327.488,368.788 327.551,369.281 327.943,372.332 335.521,372.332 335.781,370.308 
									335.976,368.788 								"/>
							</g>
							<path style="fill:#242424;" d="M328.409,375.965l0.004,0.031c0.094,0.73,0.655,1.273,1.318,1.273h4.003
								c0.663,0,1.224-0.542,1.318-1.273l0.004-0.031H328.409z"/>
							<path style="fill:#FFBAA8;" d="M334.34,352.326c0,1.617-1.167,2.928-2.608,2.928c-1.44,0-2.608-1.311-2.608-2.928
								c0-1.617,1.168-2.928,2.608-2.928C333.172,349.398,334.34,350.709,334.34,352.326z"/>
						</g>
						<path style="fill:#242424;" d="M329.621,350.611c0,0,2.329,1.414,4.222,0v2.101l0.496-0.386c0,0,1.044-3.545-2.608-3.545
							c-3.652,0-2.608,3.545-2.608,3.545l0.288,0.386L329.621,350.611z"/>
					</g>
					<g>
						<g>
							<g>
								<path style="fill:#4F2DBD;" d="M385.996,368.788l1.365-10.641c0.114-0.893-0.508-1.692-1.318-1.692h-8.582
									c-0.81,0-1.433,0.799-1.318,1.692l1.429,11.135l-0.063-0.493H385.996z"/>
								<path style="fill:#FFBAA8;" d="M377.963,372.332l0.47,3.663c0.094,0.73,0.655,1.273,1.318,1.273h4.003
									c0.662,0,1.224-0.542,1.318-1.273l0.73-5.688l-0.26,2.024H377.963z"/>
								<polygon style="fill:#4F2DBD;" points="385.996,368.788 385.801,370.308 385.996,368.788 								"/>
								<polygon style="fill:#4F2DBD;" points="377.963,372.332 377.963,372.332 377.571,369.281 								"/>
								<polygon style="fill:#FFFFFF;" points="377.508,368.788 377.571,369.281 377.963,372.332 385.541,372.332 385.801,370.308 
									385.996,368.788 								"/>
							</g>
							<path style="fill:#242424;" d="M378.429,375.965l0.004,0.031c0.094,0.73,0.655,1.273,1.318,1.273h4.003
								c0.662,0,1.224-0.542,1.318-1.273l0.004-0.031H378.429z"/>
							<path style="fill:#FFBAA8;" d="M384.36,352.326c0,1.617-1.168,2.928-2.608,2.928s-2.608-1.311-2.608-2.928
								c0-1.617,1.168-2.928,2.608-2.928S384.36,350.709,384.36,352.326z"/>
						</g>
						<path style="fill:#242424;" d="M379.641,350.611c0,0,2.329,1.414,4.222,0v2.101l0.496-0.386c0,0,1.044-3.545-2.608-3.545
							s-2.608,3.545-2.608,3.545l0.288,0.386L379.641,350.611z"/>
					</g>
				</g>
				<rect x="237.01" y="374.802" style="fill:#D4D2D2;" width="201.209" height="3.67"/>
				<polygon style="fill:#ACABAB;" points="438.219,378.472 235.97,378.472 237.01,376.637 438.219,376.637 				"/>
				<g>
					<g>
						<g>
							<g>
								<path style="fill:#CCCB20;" d="M302.302,378.235l1.365-10.641c0.115-0.893-0.508-1.692-1.318-1.692h-8.583
									c-0.81,0-1.433,0.799-1.318,1.692l1.428,11.135l-0.063-0.493H302.302z"/>
								<path style="fill:#FFBAA8;" d="M294.269,381.78l0.47,3.663c0.094,0.73,0.655,1.273,1.318,1.273h4.003
									c0.663,0,1.224-0.542,1.318-1.273l0.73-5.688l-0.26,2.024H294.269z"/>
								<polygon style="fill:#4F2DBD;" points="302.302,378.235 302.107,379.756 302.302,378.235 								"/>
								<polygon style="fill:#4F2DBD;" points="294.269,381.78 294.269,381.78 293.878,378.729 								"/>
								<polygon style="fill:#FFFFFF;" points="293.814,378.235 293.878,378.729 294.269,381.78 301.848,381.78 302.107,379.756 
									302.302,378.235 								"/>
							</g>
							<path style="fill:#242424;" d="M294.735,385.413l0.004,0.03c0.094,0.73,0.655,1.273,1.318,1.273h4.003
								c0.663,0,1.224-0.542,1.318-1.273l0.004-0.03H294.735z"/>
							<ellipse style="fill:#FFBAA8;" cx="298.059" cy="361.774" rx="2.608" ry="2.928"/>
						</g>
						<path style="fill:#242424;" d="M295.948,360.059c0,0,2.329,1.414,4.222,0v2.101l0.496-0.386c0,0,1.044-3.545-2.608-3.545
							c-3.652,0-2.608,3.545-2.608,3.545l0.287,0.386L295.948,360.059z"/>
					</g>
					<g>
						<g>
							<g>
								<path style="fill:#CCCB20;" d="M352.322,378.235l1.365-10.641c0.115-0.893-0.508-1.692-1.318-1.692h-8.583
									c-0.81,0-1.433,0.799-1.318,1.692l1.429,11.135l-0.063-0.493H352.322z"/>
								<path style="fill:#FFBAA8;" d="M344.289,381.78l0.47,3.663c0.094,0.73,0.655,1.273,1.318,1.273h4.003
									c0.663,0,1.224-0.542,1.318-1.273l0.73-5.688l-0.26,2.024H344.289z"/>
								<polygon style="fill:#4F2DBD;" points="352.322,378.235 352.127,379.756 352.322,378.235 								"/>
								<polygon style="fill:#4F2DBD;" points="344.289,381.78 344.289,381.78 343.897,378.729 								"/>
								<polygon style="fill:#FFFFFF;" points="343.834,378.235 343.897,378.729 344.289,381.78 351.867,381.78 352.127,379.756 
									352.322,378.235 								"/>
							</g>
							<path style="fill:#242424;" d="M344.755,385.413l0.004,0.03c0.094,0.73,0.655,1.273,1.318,1.273h4.003
								c0.663,0,1.224-0.542,1.318-1.273l0.004-0.03H344.755z"/>
							<path style="fill:#FFBAA8;" d="M350.686,361.774c0,1.617-1.168,2.928-2.608,2.928c-1.44,0-2.608-1.311-2.608-2.928
								c0-1.617,1.168-2.928,2.608-2.928C349.518,358.846,350.686,360.157,350.686,361.774z"/>
						</g>
						<path style="fill:#242424;" d="M345.967,360.059c0,0,2.329,1.414,4.223,0v2.101l0.496-0.386c0,0,1.044-3.545-2.608-3.545
							c-3.652,0-2.608,3.545-2.608,3.545l0.288,0.386L345.967,360.059z"/>
					</g>
					<g>
						<g>
							<g>
								<path style="fill:#CCCB20;" d="M402.342,378.235l1.365-10.641c0.114-0.893-0.508-1.692-1.318-1.692h-8.582
									c-0.81,0-1.433,0.799-1.318,1.692l1.429,11.135l-0.063-0.493H402.342z"/>
								<path style="fill:#FFBAA8;" d="M394.309,381.78l0.47,3.663c0.094,0.73,0.655,1.273,1.318,1.273h4.003
									c0.662,0,1.224-0.542,1.318-1.273l0.73-5.688l-0.26,2.024H394.309z"/>
								<polygon style="fill:#4F2DBD;" points="402.342,378.235 402.147,379.756 402.342,378.235 								"/>
								<polygon style="fill:#4F2DBD;" points="394.309,381.78 394.309,381.78 393.917,378.729 								"/>
								<polygon style="fill:#FFFFFF;" points="393.854,378.235 393.917,378.729 394.309,381.78 401.887,381.78 402.147,379.756 
									402.342,378.235 								"/>
							</g>
							<path style="fill:#242424;" d="M394.775,385.413l0.004,0.03c0.094,0.73,0.655,1.273,1.318,1.273h4.003
								c0.662,0,1.224-0.542,1.318-1.273l0.004-0.03H394.775z"/>
							<ellipse style="fill:#FFBAA8;" cx="398.098" cy="361.774" rx="2.608" ry="2.928"/>
						</g>
						<path style="fill:#242424;" d="M395.987,360.059c0,0,2.329,1.414,4.222,0v2.101l0.496-0.386c0,0,1.044-3.545-2.608-3.545
							s-2.608,3.545-2.608,3.545l0.288,0.386L395.987,360.059z"/>
					</g>
				</g>
				<g>
					<g>
						<g>
							<g>
								<path style="fill:#4F2DBD;" d="M267.965,389.493l1.365-10.641c0.115-0.893-0.508-1.692-1.318-1.692h-8.582
									c-0.81,0-1.433,0.799-1.318,1.692l1.428,11.135l-0.063-0.493H267.965z"/>
								<path style="fill:#FFBAA8;" d="M259.932,393.037l0.47,3.663c0.094,0.73,0.655,1.273,1.318,1.273h4.003
									c0.663,0,1.224-0.543,1.318-1.273l0.73-5.688l-0.26,2.024H259.932z"/>
								<polygon style="fill:#4F2DBD;" points="267.965,389.493 267.77,391.013 267.965,389.493 								"/>
								<polygon style="fill:#4F2DBD;" points="259.932,393.037 259.932,393.037 259.54,389.986 								"/>
								<polygon style="fill:#FFFFFF;" points="259.477,389.493 259.54,389.986 259.932,393.037 267.51,393.037 267.77,391.013 
									267.965,389.493 								"/>
							</g>
							<path style="fill:#242424;" d="M260.398,396.67l0.004,0.031c0.094,0.73,0.655,1.273,1.318,1.273h4.003
								c0.663,0,1.224-0.543,1.318-1.273l0.004-0.031H260.398z"/>
							<path style="fill:#FFBAA8;" d="M266.329,373.031c0,1.617-1.168,2.928-2.608,2.928c-1.44,0-2.608-1.311-2.608-2.928
								c0-1.617,1.168-2.928,2.608-2.928C265.161,370.103,266.329,371.414,266.329,373.031z"/>
						</g>
						<path style="fill:#242424;" d="M261.61,371.316c0,0,2.329,1.414,4.223,0v2.101l0.496-0.386c0,0,1.044-3.545-2.608-3.545
							c-3.652,0-2.608,3.545-2.608,3.545l0.288,0.386L261.61,371.316z"/>
					</g>
					<g>
						<g>
							<g>
								<path style="fill:#4F2DBD;" d="M317.985,389.493l1.365-10.641c0.115-0.893-0.508-1.692-1.318-1.692h-8.582
									c-0.81,0-1.433,0.799-1.318,1.692l1.429,11.135l-0.063-0.493H317.985z"/>
								<path style="fill:#FFBAA8;" d="M309.952,393.037l0.47,3.663c0.094,0.73,0.655,1.273,1.318,1.273h4.003
									c0.662,0,1.224-0.543,1.318-1.273l0.73-5.688l-0.26,2.024H309.952z"/>
								<polygon style="fill:#4F2DBD;" points="317.985,389.493 317.79,391.013 317.985,389.493 								"/>
								<polygon style="fill:#4F2DBD;" points="309.952,393.037 309.952,393.037 309.56,389.986 								"/>
								<polygon style="fill:#FFFFFF;" points="309.497,389.493 309.56,389.986 309.952,393.037 317.53,393.037 317.79,391.013 
									317.985,389.493 								"/>
							</g>
							<path style="fill:#242424;" d="M310.418,396.67l0.004,0.031c0.094,0.73,0.655,1.273,1.318,1.273h4.003
								c0.662,0,1.224-0.543,1.318-1.273l0.004-0.031H310.418z"/>
							<path style="fill:#FFBAA8;" d="M316.349,373.031c0,1.617-1.168,2.928-2.608,2.928c-1.44,0-2.608-1.311-2.608-2.928
								c0-1.617,1.167-2.928,2.608-2.928C315.181,370.103,316.349,371.414,316.349,373.031z"/>
						</g>
						<path style="fill:#242424;" d="M311.63,371.316c0,0,2.329,1.414,4.222,0v2.101l0.496-0.386c0,0,1.044-3.545-2.608-3.545
							s-2.608,3.545-2.608,3.545l0.288,0.386L311.63,371.316z"/>
					</g>
					<g>
						<g>
							<g>
								<path style="fill:#4F2DBD;" d="M368.005,389.493l1.365-10.641c0.115-0.893-0.508-1.692-1.318-1.692h-8.583
									c-0.81,0-1.433,0.799-1.318,1.692l1.429,11.135l-0.063-0.493H368.005z"/>
								<path style="fill:#FFBAA8;" d="M359.971,393.037l0.47,3.663c0.094,0.73,0.655,1.273,1.318,1.273h4.003
									c0.663,0,1.224-0.543,1.318-1.273l0.73-5.688l-0.26,2.024H359.971z"/>
								<polygon style="fill:#4F2DBD;" points="368.005,389.493 367.81,391.013 368.005,389.493 								"/>
								<polygon style="fill:#4F2DBD;" points="359.971,393.037 359.971,393.037 359.58,389.986 								"/>
								<polygon style="fill:#FFFFFF;" points="359.517,389.493 359.58,389.986 359.971,393.037 367.55,393.037 367.81,391.013 
									368.005,389.493 								"/>
							</g>
							<path style="fill:#242424;" d="M360.438,396.67l0.004,0.031c0.094,0.73,0.655,1.273,1.318,1.273h4.003
								c0.663,0,1.224-0.543,1.318-1.273l0.004-0.031H360.438z"/>
							<path style="fill:#FFBAA8;" d="M366.368,373.031c0,1.617-1.168,2.928-2.608,2.928c-1.44,0-2.608-1.311-2.608-2.928
								c0-1.617,1.167-2.928,2.608-2.928C365.201,370.103,366.368,371.414,366.368,373.031z"/>
						</g>
						<path style="fill:#242424;" d="M361.65,371.316c0,0,2.329,1.414,4.222,0v2.101l0.496-0.386c0,0,1.044-3.545-2.608-3.545
							c-3.652,0-2.608,3.545-2.608,3.545l0.287,0.386L361.65,371.316z"/>
					</g>
				</g>
				<rect x="227.403" y="385.209" style="fill:#D4D2D2;" width="221.844" height="4.499"/>
				<rect x="227.403" y="387.575" style="fill:#ACABAB;" width="221.844" height="2.134"/>
				<g>
					<g>
						<g>
							<g>
								<path style="fill:#CCCB20;" d="M340.753,402.433l1.365-10.641c0.115-0.893-0.508-1.692-1.318-1.692h-8.583
									c-0.81,0-1.433,0.799-1.318,1.692l1.429,11.135l-0.063-0.493H340.753z"/>
								<path style="fill:#FFBAA8;" d="M332.72,405.978l0.47,3.663c0.094,0.73,0.655,1.273,1.318,1.273h4.003
									c0.663,0,1.224-0.543,1.318-1.273l0.73-5.688l-0.26,2.024H332.72z"/>
								<polygon style="fill:#4F2DBD;" points="340.753,402.433 340.558,403.953 340.753,402.433 								"/>
								<polygon style="fill:#4F2DBD;" points="332.72,405.978 332.72,405.978 332.328,402.926 								"/>
								<polygon style="fill:#FFFFFF;" points="332.265,402.433 332.328,402.926 332.72,405.978 340.298,405.978 340.558,403.953 
									340.753,402.433 								"/>
							</g>
							<path style="fill:#242424;" d="M333.186,409.611l0.004,0.03c0.094,0.73,0.655,1.273,1.318,1.273h4.003
								c0.663,0,1.224-0.543,1.318-1.273l0.004-0.03H333.186z"/>
							<ellipse style="fill:#FFBAA8;" cx="336.509" cy="385.972" rx="2.608" ry="2.928"/>
						</g>
						<path style="fill:#242424;" d="M334.398,384.257c0,0,2.329,1.414,4.222,0v2.101l0.496-0.386c0,0,1.044-3.545-2.608-3.545
							c-3.652,0-2.608,3.545-2.608,3.545l0.287,0.386L334.398,384.257z"/>
					</g>
					<g>
						<g>
							<g>
								<path style="fill:#CCCB20;" d="M390.773,402.433l1.365-10.641c0.115-0.893-0.508-1.692-1.318-1.692h-8.583
									c-0.81,0-1.433,0.799-1.318,1.692l1.428,11.135l-0.063-0.493H390.773z"/>
								<path style="fill:#FFBAA8;" d="M382.74,405.978l0.47,3.663c0.094,0.73,0.655,1.273,1.318,1.273h4.003
									c0.663,0,1.224-0.543,1.318-1.273l0.73-5.688l-0.26,2.024H382.74z"/>
								<polygon style="fill:#4F2DBD;" points="390.773,402.433 390.578,403.953 390.773,402.433 								"/>
								<polygon style="fill:#4F2DBD;" points="382.74,405.978 382.74,405.978 382.348,402.926 								"/>
								<polygon style="fill:#FFFFFF;" points="382.285,402.433 382.348,402.926 382.74,405.978 390.318,405.978 390.578,403.953 
									390.773,402.433 								"/>
							</g>
							<path style="fill:#242424;" d="M383.206,409.611l0.004,0.03c0.094,0.73,0.655,1.273,1.318,1.273h4.003
								c0.663,0,1.224-0.543,1.318-1.273l0.004-0.03H383.206z"/>
							<path style="fill:#FFBAA8;" d="M389.137,385.972c0,1.617-1.168,2.928-2.608,2.928c-1.44,0-2.608-1.311-2.608-2.928
								c0-1.617,1.168-2.928,2.608-2.928C387.969,383.043,389.137,384.354,389.137,385.972z"/>
						</g>
						<path style="fill:#242424;" d="M384.418,384.257c0,0,2.329,1.414,4.222,0v2.101l0.496-0.386c0,0,1.044-3.545-2.608-3.545
							c-3.652,0-2.608,3.545-2.608,3.545l0.288,0.386L384.418,384.257z"/>
					</g>
					<g>
						<g>
							<g>
								<path style="fill:#CCCB20;" d="M440.793,402.433l1.365-10.641c0.115-0.893-0.508-1.692-1.318-1.692h-8.582
									c-0.81,0-1.433,0.799-1.318,1.692l1.429,11.135l-0.063-0.493H440.793z"/>
								<path style="fill:#FFBAA8;" d="M432.759,405.978l0.47,3.663c0.094,0.73,0.655,1.273,1.318,1.273h4.003
									c0.662,0,1.224-0.543,1.318-1.273l0.73-5.688l-0.26,2.024H432.759z"/>
								<polygon style="fill:#4F2DBD;" points="440.793,402.433 440.598,403.953 440.793,402.433 								"/>
								<polygon style="fill:#4F2DBD;" points="432.759,405.978 432.759,405.978 432.368,402.926 								"/>
								<polygon style="fill:#FFFFFF;" points="432.305,402.433 432.368,402.926 432.759,405.978 440.338,405.978 440.598,403.953 
									440.793,402.433 								"/>
							</g>
							<path style="fill:#242424;" d="M433.225,409.611l0.004,0.03c0.094,0.73,0.655,1.273,1.318,1.273h4.003
								c0.662,0,1.224-0.543,1.318-1.273l0.004-0.03H433.225z"/>
							<path style="fill:#FFBAA8;" d="M439.156,385.972c0,1.617-1.168,2.928-2.608,2.928c-1.44,0-2.608-1.311-2.608-2.928
								c0-1.617,1.167-2.928,2.608-2.928C437.989,383.043,439.156,384.354,439.156,385.972z"/>
						</g>
						<path style="fill:#242424;" d="M434.438,384.257c0,0,2.329,1.414,4.223,0v2.101l0.496-0.386c0,0,1.044-3.545-2.608-3.545
							c-3.652,0-2.608,3.545-2.608,3.545l0.288,0.386L434.438,384.257z"/>
					</g>
				</g>
				<rect x="221.67" y="397.827" style="fill:#D4D2D2;" width="233.31" height="4.499"/>
				<rect x="221.67" y="400.076" style="fill:#ACABAB;" width="233.31" height="2.25"/>
			</g>
		</g>
		<g>
			<path style="fill:#F2F1E6;" d="M412.902,391.314c0,2.961-2.4,5.361-5.361,5.361c-2.961,0-5.361-2.4-5.361-5.361
				c0-2.961,2.4-5.361,5.361-5.361C410.502,385.953,412.902,388.353,412.902,391.314z"/>
			<path style="fill:#FFFFFF;" d="M410.222,389.246c0,0.909-0.737,1.645-1.645,1.645c-0.909,0-1.645-0.737-1.645-1.645
				c0-0.909,0.737-1.645,1.645-1.645C409.486,387.601,410.222,388.337,410.222,389.246z"/>
		</g>
	</g>
</g>
</svg>
