<?xml version="1.0" encoding="utf-8"?>
<!-- Generator: Adobe Illustrator 27.5.0, SVG Export Plug-In . SVG Version: 6.00 Build 0)  -->
<svg version="1.1" id="Capa_1" xmlns="http://www.w3.org/2000/svg" xmlns:xlink="http://www.w3.org/1999/xlink" x="0px" y="0px"
	 viewBox="0 0 391.503 425.196" style="enable-background:new 0 0 391.503 425.196;" xml:space="preserve">
<g>
	<rect x="0" y="0" style="fill:#FFFFFF;" width="391.503" height="425.196"/>
	<g>
		<g>
			<g>
				<polygon style="fill:#E4B39B;" points="120.011,82.058 129.24,91.676 111.12,110.138 118.51,126.291 102.21,140.058 
					118.51,163.855 99.708,174.774 121.789,206.097 146.094,161.897 146.094,103.032 136.599,58.15 				"/>
				<path style="fill:#F9C2A7;" d="M278.1,235.032c-1.126,2.43-5.634,55.24-5.634,55.24h-19.184h-74.887
					c2.635-20.822-18.058-36.465-18.058-36.465c-33.961-22.639-34.803-59.651-34.803-59.651l87.848-100.841l39.124,70.014
					l41.314,14.033C293.82,177.362,287.45,214.88,278.1,235.032z"/>
				<g>
					<path style="fill:#00818F;" d="M225.513,253.311c-1.575,4.886-6.809,7.567-11.695,5.991l-106.863-34.455
						c-4.883-1.575-7.568-6.809-5.993-11.694l53.703-166.56c1.573-4.882,6.812-7.565,11.695-5.991l106.863,34.454
						c4.886,1.575,7.566,6.813,5.993,11.694L225.513,253.311z"/>
					<path style="fill:#259DAB;" d="M221.092,251.886c-1.575,4.886-6.53,7.657-11.067,6.194l-99.274-32.009
						c-4.538-1.463-6.94-6.605-5.365-11.491l53.702-166.562c1.574-4.881,6.53-7.656,11.067-6.193l99.275,32.01
						c4.538,1.462,6.939,6.609,5.365,11.491L221.092,251.886z"/>
					<path style="fill:#352E35;" d="M255.978,126.023c-0.825,2.558-3.569,3.966-6.126,3.141l-96.125-30.992
						c-2.559-0.826-3.962-3.57-3.137-6.128l9.086-28.182c0.825-2.558,3.566-3.964,6.126-3.138l96.126,30.991
						c2.557,0.825,3.962,3.568,3.138,6.127L255.978,126.023z"/>
					<path style="fill:#463D48;" d="M251.152,122.911c-0.741,2.3-3.21,3.564-5.512,2.822l-86.493-27.887
						c-2.301-0.742-3.564-3.21-2.823-5.51l8.177-25.359c0.741-2.3,3.208-3.566,5.509-2.823l86.493,27.886
						c2.302,0.743,3.567,3.211,2.825,5.512L251.152,122.911z"/>
					<path style="fill:#524855;" d="M161.685,97.697c-2.183-0.704-3.381-3.045-2.678-5.226l7.749-24.036
						c0.703-2.182,3.044-3.381,5.226-2.677l81.985,26.433c2.182,0.705,3.379,3.045,2.676,5.227L161.685,97.697z"/>
					<g>
						<path style="fill:#00818F;" d="M163.011,124.352c-0.667,2.067-2.885,3.206-4.954,2.539l-9.566-3.085
							c-2.068-0.666-3.204-2.885-2.537-4.954l3.084-9.565c0.667-2.067,2.884-3.205,4.952-2.539l9.566,3.086
							c2.069,0.666,3.205,2.885,2.538,4.952L163.011,124.352z"/>
						<path style="fill:#00818F;" d="M155.645,147.197c-0.668,2.069-2.884,3.206-4.954,2.538l-9.565-3.084
							c-2.068-0.666-3.204-2.883-2.537-4.953l3.084-9.564c0.666-2.067,2.883-3.203,4.952-2.536l9.566,3.084
							c2.069,0.667,3.205,2.884,2.538,4.95L155.645,147.197z"/>
						<path style="fill:#00818F;" d="M148.278,170.045c-0.667,2.067-2.883,3.202-4.952,2.535l-9.565-3.084
							c-2.068-0.667-3.205-2.883-2.538-4.951l3.084-9.564c0.668-2.07,2.884-3.207,4.952-2.539l9.565,3.084
							c2.069,0.667,3.206,2.883,2.538,4.955L148.278,170.045z"/>
						<path style="fill:#00818F;" d="M140.912,192.892c-0.667,2.068-2.884,3.207-4.954,2.54l-9.566-3.085
							c-2.067-0.667-3.203-2.885-2.536-4.954l3.084-9.566c0.667-2.066,2.884-3.202,4.951-2.535l9.566,3.084
							c2.07,0.667,3.206,2.883,2.539,4.95L140.912,192.892z"/>
						<path style="fill:#00818F;" d="M133.545,215.738c-0.667,2.069-2.884,3.204-4.953,2.538l-9.565-3.084
							c-2.068-0.667-3.204-2.885-2.537-4.953l3.084-9.565c0.667-2.067,2.885-3.206,4.953-2.539l9.566,3.085
							c2.068,0.666,3.204,2.886,2.537,4.953L133.545,215.738z"/>
						<path style="fill:#00818F;" d="M183.277,130.886c-0.667,2.068-2.884,3.205-4.953,2.539l-9.564-3.084
							c-2.069-0.667-3.206-2.886-2.539-4.954l3.084-9.566c0.667-2.067,2.885-3.204,4.954-2.538l9.564,3.084
							c2.069,0.667,3.205,2.886,2.538,4.953L183.277,130.886z"/>
						<path style="fill:#00818F;" d="M175.911,153.731c-0.667,2.07-2.884,3.207-4.953,2.54l-9.564-3.085
							c-2.069-0.666-3.206-2.885-2.539-4.955l3.085-9.564c0.666-2.066,2.884-3.203,4.953-2.535l9.564,3.083
							c2.069,0.668,3.205,2.884,2.539,4.951L175.911,153.731z"/>
						<path style="fill:#00818F;" d="M168.544,176.579c-0.667,2.067-2.883,3.203-4.953,2.535l-9.564-3.083
							c-2.069-0.668-3.206-2.884-2.539-4.951l3.084-9.564c0.667-2.071,2.885-3.205,4.954-2.538l9.564,3.084
							c2.069,0.666,3.206,2.883,2.538,4.953L168.544,176.579z"/>
						<path style="fill:#00818F;" d="M161.179,199.426c-0.667,2.069-2.885,3.206-4.954,2.54l-9.564-3.084
							c-2.069-0.667-3.205-2.885-2.538-4.954l3.084-9.567c0.667-2.066,2.884-3.201,4.953-2.534l9.564,3.083
							c2.069,0.668,3.206,2.884,2.539,4.95L161.179,199.426z"/>
						<path style="fill:#00818F;" d="M153.813,222.272c-0.667,2.068-2.885,3.205-4.954,2.537l-9.564-3.082
							c-2.069-0.668-3.206-2.886-2.539-4.954l3.084-9.564c0.667-2.068,2.885-3.206,4.954-2.538l9.564,3.082
							c2.069,0.667,3.204,2.888,2.538,4.955L153.813,222.272z"/>
						<path style="fill:#00818F;" d="M203.544,137.42c-0.667,2.068-2.885,3.205-4.953,2.538l-9.565-3.082
							c-2.068-0.668-3.206-2.887-2.539-4.955l3.084-9.566c0.667-2.068,2.886-3.205,4.954-2.537l9.565,3.083
							c2.068,0.667,3.204,2.887,2.537,4.954L203.544,137.42z"/>
						<path style="fill:#00818F;" d="M196.178,160.267c-0.667,2.07-2.885,3.205-4.953,2.539l-9.565-3.084
							c-2.068-0.667-3.206-2.885-2.539-4.954l3.084-9.565c0.667-2.066,2.885-3.202,4.953-2.535l9.565,3.084
							c2.068,0.666,3.205,2.884,2.538,4.95L196.178,160.267z"/>
						<path style="fill:#00818F;" d="M188.812,183.113c-0.666,2.067-2.884,3.203-4.952,2.536l-9.565-3.084
							c-2.068-0.666-3.206-2.883-2.539-4.951l3.083-9.564c0.667-2.07,2.886-3.204,4.954-2.537l9.565,3.084
							c2.068,0.665,3.205,2.883,2.537,4.953L188.812,183.113z"/>
						<path style="fill:#00818F;" d="M181.445,205.961c-0.667,2.069-2.885,3.206-4.953,2.539l-9.565-3.085
							c-2.067-0.666-3.205-2.885-2.538-4.953l3.084-9.567c0.667-2.067,2.885-3.201,4.953-2.534l9.565,3.084
							c2.068,0.666,3.205,2.883,2.538,4.949L181.445,205.961z"/>
						<path style="fill:#00818F;" d="M174.08,228.808c-0.667,2.068-2.885,3.204-4.953,2.537l-9.565-3.084
							c-2.068-0.666-3.206-2.885-2.539-4.952l3.084-9.565c0.667-2.067,2.886-3.205,4.954-2.539l9.565,3.084
							c2.068,0.667,3.204,2.887,2.537,4.954L174.08,228.808z"/>
						<path style="fill:#00818F;" d="M223.812,143.955c-0.667,2.068-2.885,3.206-4.954,2.538l-9.565-3.084
							c-2.069-0.666-3.205-2.885-2.538-4.955l3.084-9.564c0.666-2.068,2.884-3.205,4.954-2.538l9.565,3.084
							c2.068,0.667,3.204,2.886,2.537,4.953L223.812,143.955z"/>
						<path style="fill:#00818F;" d="M216.446,166.801c-0.667,2.069-2.885,3.206-4.953,2.538l-9.565-3.082
							c-2.069-0.668-3.206-2.886-2.538-4.955l3.084-9.564c0.666-2.067,2.884-3.203,4.953-2.537l9.565,3.084
							c2.067,0.668,3.204,2.886,2.538,4.952L216.446,166.801z"/>
						<path style="fill:#00818F;" d="M209.08,189.648c-0.667,2.067-2.885,3.202-4.952,2.535l-9.566-3.084
							c-2.069-0.667-3.206-2.883-2.539-4.952l3.084-9.563c0.667-2.071,2.885-3.205,4.954-2.539l9.565,3.084
							c2.068,0.667,3.205,2.883,2.537,4.954L209.08,189.648z"/>
						<path style="fill:#00818F;" d="M201.713,212.496c-0.668,2.067-2.885,3.206-4.953,2.539l-9.565-3.084
							c-2.069-0.667-3.205-2.886-2.538-4.955l3.084-9.566c0.666-2.067,2.883-3.202,4.953-2.534l9.565,3.084
							c2.067,0.665,3.204,2.883,2.538,4.949L201.713,212.496z"/>
						<path style="fill:#00818F;" d="M194.347,235.342c-0.667,2.068-2.884,3.204-4.953,2.538l-9.565-3.085
							c-2.069-0.667-3.205-2.884-2.538-4.952l3.084-9.566c0.667-2.067,2.885-3.206,4.954-2.538l9.565,3.083
							c2.068,0.667,3.204,2.887,2.537,4.954L194.347,235.342z"/>
						<path style="fill:#00818F;" d="M244.08,150.489c-0.668,2.068-2.885,3.205-4.954,2.539l-9.565-3.084
							c-2.069-0.667-3.205-2.886-2.538-4.954l3.084-9.566c0.667-2.067,2.884-3.204,4.954-2.538l9.565,3.084
							c2.069,0.667,3.205,2.885,2.539,4.954L244.08,150.489z"/>
						<path style="fill:#00818F;" d="M236.714,173.336c-0.668,2.069-2.885,3.205-4.954,2.538l-9.565-3.084
							c-2.069-0.666-3.206-2.885-2.538-4.955l3.083-9.563c0.667-2.066,2.883-3.203,4.953-2.536l9.565,3.085
							c2.069,0.667,3.205,2.884,2.539,4.95L236.714,173.336z"/>
						<path style="fill:#00818F;" d="M229.347,196.184c-0.667,2.067-2.884,3.202-4.953,2.535l-9.565-3.084
							c-2.069-0.668-3.206-2.884-2.539-4.952l3.083-9.563c0.668-2.072,2.885-3.207,4.954-2.54l9.565,3.084
							c2.069,0.668,3.205,2.884,2.537,4.955L229.347,196.184z"/>
						<path style="fill:#00818F;" d="M222.526,204.513l-9.566-3.084c-2.069-0.666-4.286,0.469-4.952,2.535l-10.451,32.412
							c-0.667,2.07,0.469,4.287,2.538,4.955l9.565,3.084c2.069,0.666,4.287-0.47,4.954-2.538l10.451-32.413
							C225.732,207.395,224.595,205.181,222.526,204.513z"/>
					</g>
					<g>
						<path style="fill:#FFFFFF;" d="M161.718,122.715c-0.666,2.067-2.884,3.206-4.953,2.539l-9.566-3.085
							c-2.068-0.666-3.203-2.887-2.537-4.952l3.084-9.563c0.667-2.071,2.885-3.208,4.953-2.543l9.566,3.086
							c2.069,0.666,3.204,2.885,2.537,4.956L161.718,122.715z"/>
						<path style="fill:#FFFFFF;" d="M154.353,145.561c-0.667,2.067-2.884,3.207-4.954,2.539l-9.565-3.084
							c-2.068-0.667-3.203-2.887-2.536-4.954l3.084-9.564c0.666-2.067,2.883-3.205,4.951-2.539l9.565,3.084
							c2.07,0.668,3.205,2.888,2.539,4.953L154.353,145.561z"/>
						<path style="fill:#FFFFFF;" d="M146.986,168.407c-0.667,2.068-2.884,3.203-4.953,2.537l-9.565-3.084
							c-2.068-0.668-3.205-2.883-2.537-4.952l3.083-9.564c0.667-2.07,2.885-3.205,4.952-2.538l9.565,3.084
							c2.069,0.667,3.206,2.883,2.538,4.954L146.986,168.407z"/>
						<path style="fill:#FFFFFF;" d="M139.621,191.254c-0.667,2.067-2.885,3.206-4.954,2.539l-9.566-3.085
							c-2.067-0.666-3.203-2.885-2.536-4.954l3.083-9.564c0.667-2.067,2.885-3.204,4.952-2.539l9.565,3.086
							c2.07,0.666,3.206,2.885,2.539,4.953L139.621,191.254z"/>
						<path style="fill:#FFFFFF;" d="M132.253,214.102c-0.666,2.066-2.884,3.204-4.953,2.538l-9.566-3.084
							c-2.068-0.667-3.203-2.887-2.537-4.953l3.085-9.566c0.666-2.066,2.884-3.204,4.951-2.537l9.566,3.084
							c2.07,0.668,3.205,2.886,2.539,4.951L132.253,214.102z"/>
						<path style="fill:#FFFFFF;" d="M181.985,129.25c-0.665,2.065-2.884,3.204-4.953,2.538l-9.564-3.084
							c-2.069-0.667-3.205-2.888-2.539-4.953l3.083-9.564c0.668-2.07,2.886-3.207,4.955-2.541l9.564,3.084
							c2.069,0.667,3.204,2.886,2.537,4.957L181.985,129.25z"/>
						<path style="fill:#FFFFFF;" d="M174.619,152.096c-0.667,2.067-2.884,3.206-4.954,2.539l-9.564-3.084
							c-2.069-0.667-3.205-2.888-2.538-4.955l3.083-9.564c0.667-2.066,2.885-3.205,4.954-2.538l9.564,3.084
							c2.069,0.668,3.204,2.887,2.538,4.953L174.619,152.096z"/>
						<path style="fill:#FFFFFF;" d="M167.253,174.941c-0.667,2.069-2.884,3.204-4.953,2.536l-9.564-3.082
							c-2.069-0.668-3.206-2.885-2.538-4.953l3.083-9.563c0.668-2.072,2.885-3.206,4.955-2.538l9.564,3.083
							c2.069,0.668,3.205,2.884,2.538,4.953L167.253,174.941z"/>
						<path style="fill:#FFFFFF;" d="M159.887,197.788c-0.667,2.068-2.885,3.205-4.954,2.539l-9.564-3.084
							c-2.069-0.667-3.205-2.886-2.538-4.954l3.083-9.564c0.667-2.067,2.885-3.204,4.954-2.538l9.564,3.085
							c2.069,0.667,3.205,2.885,2.538,4.952L159.887,197.788z"/>
						<path style="fill:#FFFFFF;" d="M152.52,220.636c-0.666,2.066-2.884,3.205-4.953,2.537l-9.564-3.082
							c-2.069-0.668-3.205-2.887-2.538-4.954l3.084-9.566c0.666-2.066,2.885-3.203,4.953-2.536l9.564,3.084
							c2.069,0.666,3.205,2.886,2.539,4.951L152.52,220.636z"/>
						<path style="fill:#FFFFFF;" d="M202.253,135.784c-0.666,2.066-2.884,3.206-4.953,2.538l-9.565-3.083
							c-2.069-0.668-3.205-2.889-2.538-4.954l3.083-9.563c0.667-2.071,2.885-3.209,4.954-2.541l9.565,3.084
							c2.068,0.668,3.205,2.886,2.537,4.955L202.253,135.784z"/>
						<path style="fill:#FFFFFF;" d="M194.887,158.63c-0.667,2.067-2.885,3.205-4.953,2.539l-9.565-3.084
							c-2.069-0.667-3.205-2.887-2.538-4.954l3.084-9.565c0.666-2.066,2.885-3.204,4.954-2.537l9.565,3.084
							c2.068,0.666,3.204,2.886,2.537,4.952L194.887,158.63z"/>
						<path style="fill:#FFFFFF;" d="M187.521,181.477c-0.668,2.069-2.884,3.203-4.952,2.536l-9.565-3.084
							c-2.07-0.666-3.206-2.883-2.539-4.952l3.083-9.562c0.668-2.072,2.885-3.206,4.955-2.539l9.565,3.084
							c2.068,0.666,3.205,2.883,2.537,4.953L187.521,181.477z"/>
						<path style="fill:#FFFFFF;" d="M180.154,204.322c-0.667,2.068-2.885,3.206-4.953,2.538l-9.566-3.082
							c-2.069-0.668-3.206-2.887-2.538-4.955l3.083-9.564c0.667-2.067,2.884-3.204,4.954-2.537l9.565,3.084
							c2.068,0.666,3.204,2.886,2.537,4.953L180.154,204.322z"/>
						<path style="fill:#FFFFFF;" d="M172.788,227.171c-0.666,2.066-2.884,3.205-4.953,2.538l-9.566-3.085
							c-2.069-0.666-3.205-2.886-2.538-4.952l3.084-9.567c0.667-2.066,2.885-3.203,4.954-2.537l9.565,3.084
							c2.068,0.667,3.204,2.887,2.538,4.952L172.788,227.171z"/>
						<path style="fill:#FFFFFF;" d="M222.52,142.318c-0.667,2.066-2.884,3.206-4.953,2.539l-9.565-3.084
							c-2.069-0.667-3.205-2.888-2.539-4.953l3.084-9.563c0.667-2.071,2.885-3.208,4.954-2.541l9.565,3.084
							c2.069,0.666,3.204,2.885,2.537,4.955L222.52,142.318z"/>
						<path style="fill:#FFFFFF;" d="M215.154,165.164c-0.667,2.067-2.885,3.206-4.954,2.538l-9.565-3.082
							c-2.069-0.668-3.205-2.888-2.539-4.955l3.085-9.564c0.666-2.067,2.884-3.205,4.954-2.539l9.565,3.086
							c2.069,0.666,3.203,2.886,2.537,4.952L215.154,165.164z"/>
						<path style="fill:#FFFFFF;" d="M207.788,188.011c-0.667,2.068-2.883,3.204-4.953,2.536l-9.565-3.084
							c-2.069-0.667-3.206-2.883-2.538-4.951l3.083-9.564c0.667-2.07,2.885-3.205,4.954-2.539l9.565,3.084
							c2.07,0.668,3.205,2.883,2.538,4.955L207.788,188.011z"/>
						<path style="fill:#FFFFFF;" d="M200.422,210.857c-0.668,2.068-2.884,3.206-4.954,2.538l-9.565-3.084
							c-2.069-0.666-3.205-2.885-2.538-4.955l3.083-9.563c0.667-2.067,2.884-3.204,4.954-2.537l9.565,3.084
							c2.069,0.666,3.204,2.885,2.537,4.952L200.422,210.857z"/>
						<path style="fill:#FFFFFF;" d="M193.055,233.705c-0.667,2.067-2.884,3.206-4.953,2.539l-9.565-3.085
							c-2.069-0.667-3.205-2.887-2.539-4.953l3.085-9.566c0.665-2.066,2.884-3.205,4.953-2.537l9.566,3.084
							c2.069,0.667,3.203,2.886,2.538,4.952L193.055,233.705z"/>
						<path style="fill:#FFFFFF;" d="M242.788,148.854c-0.666,2.065-2.884,3.206-4.953,2.538l-9.565-3.084
							c-2.07-0.667-3.204-2.887-2.538-4.953l3.083-9.565c0.668-2.069,2.885-3.207,4.954-2.541l9.565,3.084
							c2.069,0.668,3.205,2.886,2.537,4.958L242.788,148.854z"/>
						<path style="fill:#FFFFFF;" d="M235.421,171.699c-0.667,2.067-2.884,3.206-4.953,2.539l-9.565-3.085
							c-2.07-0.666-3.204-2.886-2.537-4.953l3.084-9.565c0.667-2.066,2.883-3.206,4.953-2.538l9.565,3.084
							c2.069,0.667,3.205,2.887,2.538,4.953L235.421,171.699z"/>
						<path style="fill:#FFFFFF;" d="M228.055,194.545c-0.667,2.069-2.884,3.204-4.953,2.538l-9.565-3.085
							c-2.069-0.667-3.204-2.883-2.538-4.951l3.083-9.564c0.668-2.07,2.884-3.206,4.953-2.539l9.565,3.084
							c2.069,0.668,3.206,2.884,2.538,4.955L228.055,194.545z"/>
						<path style="fill:#FFFFFF;" d="M221.235,202.874l-9.565-3.084c-2.069-0.666-4.286,0.472-4.952,2.539l-10.451,32.412
							c-0.666,2.066,0.468,4.285,2.538,4.953l9.565,3.084c2.069,0.666,4.287-0.472,4.953-2.538l10.451-32.412
							C224.439,205.76,223.304,203.541,221.235,202.874z"/>
					</g>
				</g>
				<line style="fill:#F9C2A7;" x1="292.939" y1="175.018" x2="253.39" y2="163.329"/>
				<path style="fill:#F9C2A7;" d="M156.621,77.063c4.849,3.209,6.18,9.741,2.969,14.59l0,0c-3.208,4.85-9.737,6.18-14.587,2.971
					l-23.42-11.288c-4.851-3.208-6.18-9.739-2.974-14.589l3.839-5.877c3.208-4.851,9.74-6.179,14.589-2.972L156.621,77.063z"/>
				<path style="fill:#F9C2A7;" d="M147.611,113.597c4.01,3.942,4.067,10.388,0.124,14.398l0,0
					c-3.945,4.011-10.387,4.066-14.398,0.125l-20.146-15.041c-4.01-3.942-4.065-10.388-0.126-14.399l4.731-4.868
					c3.94-4.012,10.385-4.066,14.395-0.126L147.611,113.597z"/>
				<path style="fill:#F9C2A7;" d="M136.23,142.597c3.782,3.716,3.833,9.793,0.121,13.572l0,0
					c-3.718,3.782-9.792,3.833-13.573,0.117l-18.99-14.178c-3.779-3.716-3.831-9.791-0.116-13.57l4.453-4.592
					c3.718-3.779,9.794-3.833,13.575-0.118L136.23,142.597z"/>
				<path style="fill:#F9C2A7;" d="M135.693,177.652c3.781,3.716,3.835,9.792,0.117,13.573l0,0
					c-3.715,3.779-9.791,3.831-13.57,0.117l-22.532-16.568c-3.781-3.717-1.77-11.857,1.946-15.637l2.39-2.525
					c3.718-3.78,9.791-3.834,13.573-0.118L135.693,177.652z"/>
				<g>
					<path style="fill:#F9C2A7;" d="M293.735,178.049l-19.856-40.085c-9.235-18.428-22.975-15.678-22.975-15.678l-41.875,0.234
						c-5.219,29.221,35.051,31.421,35.051,31.421l6.89,17.701c0,0-21.803,31.236,2.645,61.687L293.735,178.049z"/>
					<path style="fill:#E8B69D;" d="M252.519,172.296l-5.826-21.87c0,0-36.982-2.023-35.465-27.917l-2.198,0.012
						c-5.219,29.221,35.051,31.421,35.051,31.421l5.422,17.85c0,0-24.028,36.695,10.691,71.377
						C260.195,243.168,231.917,210.806,252.519,172.296z"/>
				</g>
			</g>
			<g>
				<g>
					<rect x="175.067" y="288.635" style="fill:#FFFFFF;" width="99.441" height="16.229"/>
					<rect x="175.067" y="288.691" style="fill:#DADADA;" width="99.441" height="8.003"/>
				</g>
				<rect x="163.429" y="304.864" style="fill:#2A3A47;" width="122.717" height="120.332"/>
				<g>
					<path style="fill:#C6C6C6;" d="M180.955,296.748c0-3.494,2.835-6.329,6.331-6.329c3.496,0,6.329,2.835,6.329,6.329
						c0,3.497-2.833,6.331-6.329,6.331C183.79,303.079,180.955,300.245,180.955,296.748z"/>
					<g>
						<path style="fill:#FFFFFF;" d="M181.888,296.748c0-2.979,2.417-5.396,5.398-5.396c2.98,0,5.398,2.417,5.398,5.396
							c0,2.982-2.418,5.399-5.398,5.399C184.306,302.147,181.888,299.729,181.888,296.748z"/>
						<path style="fill:#DADADA;" d="M186.686,294.372c1.931,0.463,3.916,2.115,3.864,4.287c-0.029,1.185-0.459,2.209-1.149,3.057
							c1.93-0.823,3.283-2.735,3.283-4.968c0-2.979-2.418-5.396-5.398-5.396c-2.875,0-5.199,2.252-5.367,5.083
							C182.82,294.842,184.378,293.815,186.686,294.372z"/>
						<g>
							<path style="fill:#9C9C9C;" d="M188.192,296.748c0-0.522,0.424-0.946,0.948-0.946c0.522,0,0.948,0.424,0.948,0.946
								c0,0.525-0.427,0.948-0.948,0.948C188.617,297.696,188.192,297.273,188.192,296.748z"/>
							<path style="fill:#9C9C9C;" d="M184.483,296.748c0-0.522,0.425-0.946,0.948-0.946c0.524,0,0.948,0.424,0.948,0.946
								c0,0.525-0.424,0.948-0.948,0.948C184.908,297.696,184.483,297.273,184.483,296.748z"/>
						</g>
					</g>
				</g>
				<g>
					<path style="fill:#C6C6C6;" d="M260.82,345.321c0-4.269,3.46-7.732,7.729-7.732c4.272,0,7.733,3.464,7.733,7.732
						c0,4.272-3.461,7.733-7.733,7.733C264.28,353.055,260.82,349.593,260.82,345.321z"/>
					<g>
						<path style="fill:#FFFFFF;" d="M261.958,345.321c0-3.642,2.951-6.592,6.591-6.592c3.643,0,6.594,2.95,6.594,6.592
							c0,3.643-2.951,6.595-6.594,6.595C264.91,351.916,261.958,348.964,261.958,345.321z"/>
						<path style="fill:#DADADA;" d="M267.819,342.417c2.358,0.566,4.786,2.583,4.719,5.237c-0.033,1.448-0.561,2.7-1.406,3.733
							c2.36-1.006,4.011-3.341,4.011-6.066c0-3.642-2.951-6.592-6.594-6.592c-3.507,0-6.349,2.75-6.554,6.209
							C263.095,342.99,265.001,341.74,267.819,342.417z"/>
						<g>
							<path style="fill:#9C9C9C;" d="M269.657,345.321c0-0.64,0.52-1.157,1.16-1.157c0.639,0,1.156,0.518,1.156,1.157
								c0,0.639-0.517,1.16-1.156,1.16C270.177,346.481,269.657,345.96,269.657,345.321z"/>
							<path style="fill:#9C9C9C;" d="M265.129,345.321c0-0.64,0.518-1.157,1.159-1.157c0.64,0,1.157,0.518,1.157,1.157
								c0,0.639-0.518,1.16-1.157,1.16C265.646,346.481,265.129,345.96,265.129,345.321z"/>
						</g>
					</g>
				</g>
				<g>
					<path style="fill:#C6C6C6;" d="M260.82,325.54c0-4.268,3.46-7.731,7.729-7.731c4.272,0,7.733,3.463,7.733,7.731
						c0,4.273-3.461,7.734-7.733,7.734C264.28,333.274,260.82,329.814,260.82,325.54z"/>
					<g>
						<path style="fill:#FFFFFF;" d="M261.958,325.54c0-3.64,2.951-6.591,6.591-6.591c3.643,0,6.594,2.951,6.594,6.591
							c0,3.642-2.951,6.596-6.594,6.596C264.91,332.136,261.958,329.182,261.958,325.54z"/>
						<path style="fill:#DADADA;" d="M267.819,322.637c2.358,0.567,4.786,2.583,4.719,5.237c-0.033,1.45-0.561,2.699-1.406,3.735
							c2.36-1.008,4.011-3.343,4.011-6.069c0-3.64-2.951-6.591-6.594-6.591c-3.507,0-6.349,2.749-6.554,6.209
							C263.095,323.21,265.001,321.96,267.819,322.637z"/>
						<g>
							<path style="fill:#9C9C9C;" d="M269.657,325.54c0-0.639,0.52-1.156,1.16-1.156c0.639,0,1.156,0.518,1.156,1.156
								c0,0.64-0.517,1.16-1.156,1.16C270.177,326.7,269.657,326.18,269.657,325.54z"/>
							<path style="fill:#9C9C9C;" d="M265.129,325.54c0-0.639,0.518-1.156,1.159-1.156c0.64,0,1.157,0.518,1.157,1.156
								c0,0.64-0.518,1.16-1.157,1.16C265.646,326.7,265.129,326.18,265.129,325.54z"/>
						</g>
					</g>
				</g>
				<rect x="249.96" y="304.864" style="fill:#DADADA;" width="7.24" height="63.967"/>
			</g>
		</g>
	</g>
</g>
</svg>
