<?xml version="1.0" encoding="utf-8"?>
<!-- Generator: Adobe Illustrator 27.5.0, SVG Export Plug-In . SVG Version: 6.00 Build 0)  -->
<svg version="1.1" xmlns="http://www.w3.org/2000/svg" xmlns:xlink="http://www.w3.org/1999/xlink" x="0px" y="0px"
	 viewBox="0 0 800 800" style="enable-background:new 0 0 800 800;" xml:space="preserve">
<g id="Background">
	<rect style="fill:#333A41;" width="800" height="800"/>
	
		<radialGradient id="SVGID_1_" cx="399.7911" cy="399.7961" r="563.4038" gradientTransform="matrix(1.0001 0 0 1.0001 0.1687 0.1639)" gradientUnits="userSpaceOnUse">
		<stop  offset="0" style="stop-color:#FFFFFF;stop-opacity:0"/>
		<stop  offset="0.129" style="stop-color:#FBFBFB;stop-opacity:0.0387"/>
		<stop  offset="0.2617" style="stop-color:#EFEFEF;stop-opacity:0.0785"/>
		<stop  offset="0.3961" style="stop-color:#DADADA;stop-opacity:0.1188"/>
		<stop  offset="0.5317" style="stop-color:#BDBEBD;stop-opacity:0.1595"/>
		<stop  offset="0.6683" style="stop-color:#989998;stop-opacity:0.2005"/>
		<stop  offset="0.8057" style="stop-color:#6B6C6A;stop-opacity:0.2417"/>
		<stop  offset="0.9413" style="stop-color:#363735;stop-opacity:0.2824"/>
		<stop  offset="1" style="stop-color:#1D1E1C;stop-opacity:0.3"/>
	</radialGradient>
	<rect x="0" style="fill:url(#SVGID_1_);" width="800" height="800"/>
	<g>
		<g>
			<path style="fill:#F1F1F1;" d="M288.462,775.651v-0.258c-0.349,0.398-0.692,0.725-1.031,0.973
				c-0.338,0.252-0.706,0.441-1.102,0.57c-0.396,0.133-0.827,0.195-1.296,0.195c-0.621,0-1.196-0.131-1.725-0.392
				c-0.528-0.264-0.986-0.639-1.372-1.127c-0.387-0.486-0.68-1.059-0.879-1.719c-0.199-0.658-0.299-1.371-0.299-2.137
				c0-1.621,0.396-2.885,1.188-3.791c0.791-0.904,1.833-1.357,3.125-1.357c0.747,0,1.377,0.129,1.89,0.385
				c0.513,0.256,1.013,0.652,1.501,1.182v-3.826c0-0.533,0.105-0.934,0.318-1.207c0.211-0.271,0.514-0.408,0.907-0.408
				c0.393,0,0.694,0.125,0.907,0.375c0.212,0.252,0.318,0.619,0.318,1.107v11.436c0,0.494-0.113,0.863-0.342,1.111
				c-0.228,0.246-0.522,0.369-0.883,0.369c-0.354,0-0.647-0.127-0.879-0.383C288.578,776.491,288.462,776.126,288.462,775.651z
				 M283.362,771.843c0,0.703,0.109,1.301,0.328,1.795c0.219,0.494,0.518,0.865,0.897,1.115c0.38,0.25,0.795,0.377,1.244,0.377
				c0.456,0,0.872-0.119,1.25-0.357c0.376-0.236,0.677-0.602,0.902-1.092c0.225-0.49,0.337-1.106,0.337-1.838
				c0-0.691-0.112-1.285-0.337-1.783c-0.225-0.496-0.528-0.875-0.912-1.139c-0.383-0.262-0.803-0.393-1.258-0.393
				c-0.475,0-0.899,0.135-1.273,0.402c-0.374,0.269-0.663,0.654-0.869,1.158C283.464,770.593,283.362,771.177,283.362,771.843z"/>
			<path style="fill:#F1F1F1;" d="M299.896,772.499h-5.071c0.006,0.588,0.124,1.107,0.356,1.557c0.23,0.449,0.538,0.789,0.921,1.016
				c0.383,0.229,0.806,0.342,1.268,0.342c0.31,0,0.593-0.035,0.85-0.107c0.257-0.074,0.505-0.188,0.746-0.344
				c0.241-0.154,0.462-0.32,0.665-0.498c0.202-0.178,0.464-0.42,0.788-0.723c0.133-0.113,0.323-0.172,0.571-0.172
				c0.266,0,0.48,0.074,0.645,0.221c0.165,0.147,0.248,0.35,0.248,0.617c0,0.234-0.093,0.506-0.275,0.82
				c-0.185,0.315-0.462,0.615-0.832,0.902c-0.372,0.289-0.836,0.527-1.397,0.717c-0.56,0.191-1.204,0.285-1.933,0.285
				c-1.665,0-2.96-0.475-3.884-1.424s-1.386-2.238-1.386-3.865c0-0.768,0.113-1.478,0.341-2.133
				c0.228-0.656,0.561-1.217,0.997-1.686c0.437-0.469,0.975-0.828,1.615-1.078c0.639-0.25,1.349-0.375,2.127-0.375
				c1.013,0,1.882,0.213,2.606,0.641c0.726,0.428,1.27,0.98,1.63,1.656c0.36,0.678,0.542,1.369,0.542,2.07
				c0,0.654-0.187,1.076-0.56,1.27C301.101,772.401,300.574,772.499,299.896,772.499z M294.825,771.026h4.702
				c-0.063-0.887-0.303-1.551-0.717-1.99c-0.415-0.441-0.96-0.66-1.638-0.66c-0.646,0-1.177,0.223-1.591,0.668
				C295.165,769.491,294.914,770.151,294.825,771.026z"/>
			<path style="fill:#F1F1F1;" d="M311.711,773.741c0,0.715-0.173,1.328-0.522,1.838c-0.348,0.51-0.862,0.896-1.544,1.16
				c-0.68,0.262-1.508,0.392-2.483,0.392c-0.931,0-1.728-0.142-2.393-0.428c-0.665-0.283-1.156-0.641-1.472-1.066
				c-0.317-0.43-0.475-0.857-0.475-1.289c0-0.285,0.101-0.527,0.304-0.73c0.202-0.201,0.459-0.303,0.77-0.303
				c0.272,0,0.48,0.066,0.626,0.199c0.146,0.133,0.286,0.32,0.418,0.559c0.266,0.465,0.585,0.807,0.956,1.037
				c0.37,0.227,0.875,0.342,1.515,0.342c0.519,0,0.945-0.117,1.277-0.348c0.332-0.232,0.498-0.496,0.498-0.793
				c0-0.457-0.172-0.787-0.518-0.996c-0.345-0.209-0.914-0.41-1.705-0.6c-0.893-0.221-1.619-0.455-2.18-0.699
				c-0.561-0.242-1.008-0.565-1.344-0.963c-0.336-0.398-0.503-0.891-0.503-1.473c0-0.518,0.155-1.01,0.465-1.473
				c0.311-0.461,0.768-0.83,1.374-1.105c0.603-0.275,1.333-0.414,2.188-0.414c0.671,0,1.275,0.07,1.809,0.211
				c0.536,0.137,0.983,0.326,1.34,0.561c0.358,0.232,0.63,0.492,0.816,0.777c0.187,0.285,0.28,0.563,0.28,0.836
				c0,0.297-0.1,0.541-0.298,0.733c-0.199,0.188-0.482,0.285-0.851,0.285c-0.266,0-0.492-0.076-0.679-0.231
				c-0.186-0.15-0.4-0.379-0.641-0.682c-0.196-0.254-0.426-0.457-0.693-0.609c-0.266-0.152-0.627-0.227-1.083-0.227
				c-0.469,0-0.857,0.098-1.168,0.299c-0.31,0.199-0.465,0.447-0.465,0.744c0,0.273,0.114,0.496,0.341,0.67
				c0.229,0.176,0.535,0.32,0.922,0.433c0.386,0.113,0.917,0.252,1.596,0.416c0.803,0.197,1.46,0.432,1.97,0.703
				c0.509,0.271,0.895,0.594,1.16,0.965C311.58,772.845,311.711,773.267,311.711,773.741z"/>
			<path style="fill:#F1F1F1;" d="M314.36,765.384c-0.361,0-0.669-0.111-0.926-0.332c-0.256-0.221-0.385-0.535-0.385-0.941
				c0-0.367,0.131-0.668,0.394-0.906s0.569-0.357,0.917-0.357c0.336,0,0.633,0.107,0.892,0.324c0.26,0.215,0.39,0.527,0.39,0.94
				c0,0.4-0.127,0.711-0.381,0.935C315.009,765.271,314.708,765.384,314.36,765.384z M315.643,768.062v7.494
				c0,0.519-0.124,0.912-0.371,1.178c-0.248,0.266-0.56,0.398-0.941,0.398c-0.38,0-0.689-0.135-0.926-0.408
				c-0.238-0.271-0.356-0.662-0.356-1.168v-7.418c0-0.512,0.118-0.898,0.356-1.158c0.237-0.26,0.546-0.391,0.926-0.391
				c0.38,0,0.693,0.131,0.941,0.391C315.519,767.239,315.643,767.601,315.643,768.062z"/>
			<path style="fill:#F1F1F1;" d="M327.001,768.489v7.531c0,0.861-0.093,1.604-0.277,2.225c-0.182,0.619-0.477,1.133-0.883,1.537
				c-0.405,0.404-0.936,0.707-1.59,0.902c-0.655,0.197-1.471,0.295-2.446,0.295c-0.893,0-1.691-0.125-2.394-0.375
				c-0.702-0.252-1.243-0.574-1.624-0.969c-0.379-0.396-0.57-0.803-0.57-1.221c0-0.316,0.108-0.576,0.324-0.773
				c0.215-0.201,0.475-0.301,0.778-0.301c0.38,0,0.712,0.168,0.998,0.504c0.139,0.17,0.283,0.344,0.432,0.518
				c0.149,0.176,0.314,0.324,0.494,0.447c0.181,0.123,0.397,0.215,0.65,0.275c0.253,0.059,0.545,0.09,0.874,0.09
				c0.671,0,1.192-0.094,1.563-0.281c0.371-0.186,0.63-0.447,0.779-0.783c0.149-0.334,0.236-0.693,0.261-1.078
				c0.025-0.383,0.044-0.998,0.057-1.848c-0.4,0.559-0.859,0.982-1.382,1.273c-0.522,0.291-1.145,0.438-1.866,0.438
				c-0.868,0-1.625-0.223-2.275-0.666c-0.648-0.443-1.147-1.063-1.495-1.861c-0.349-0.799-0.522-1.719-0.522-2.764
				c0-0.777,0.105-1.482,0.317-2.107c0.213-0.629,0.515-1.156,0.907-1.588c0.393-0.43,0.845-0.754,1.358-0.973
				c0.513-0.219,1.076-0.328,1.691-0.328c0.734,0,1.371,0.143,1.909,0.422c0.538,0.283,1.039,0.725,1.501,1.326v-0.352
				c0-0.449,0.11-0.797,0.332-1.045c0.222-0.246,0.507-0.371,0.855-0.371c0.5,0,0.832,0.164,0.997,0.49
				C326.918,767.405,327.001,767.876,327.001,768.489z M319.488,771.776c0,1.051,0.229,1.846,0.688,2.383
				c0.459,0.539,1.053,0.809,1.781,0.809c0.43,0,0.837-0.117,1.22-0.348c0.384-0.231,0.695-0.58,0.937-1.045
				c0.24-0.465,0.361-1.029,0.361-1.695c0-1.057-0.232-1.881-0.698-2.469c-0.466-0.588-1.078-0.883-1.838-0.883
				c-0.741,0-1.335,0.281-1.78,0.846C319.711,769.937,319.488,770.737,319.488,771.776z"/>
			<path style="fill:#F1F1F1;" d="M331.122,768.024v0.313c0.455-0.602,0.954-1.043,1.496-1.324c0.541-0.281,1.163-0.424,1.866-0.424
				c0.684,0,1.295,0.15,1.833,0.447c0.538,0.299,0.941,0.719,1.206,1.262c0.172,0.318,0.282,0.66,0.333,1.027
				c0.051,0.367,0.077,0.836,0.077,1.406v4.824c0,0.519-0.119,0.912-0.357,1.178c-0.237,0.266-0.546,0.398-0.926,0.398
				c-0.387,0-0.7-0.135-0.94-0.408c-0.241-0.271-0.361-0.662-0.361-1.168v-4.322c0-0.854-0.119-1.508-0.356-1.961
				c-0.238-0.451-0.711-0.68-1.42-0.68c-0.461,0-0.883,0.139-1.263,0.414c-0.38,0.275-0.659,0.654-0.836,1.135
				c-0.126,0.387-0.19,1.107-0.19,2.166v3.248c0,0.525-0.123,0.92-0.365,1.184c-0.244,0.262-0.559,0.392-0.945,0.392
				c-0.374,0-0.681-0.135-0.922-0.408c-0.24-0.271-0.361-0.662-0.361-1.168v-7.494c0-0.494,0.107-0.863,0.323-1.107
				c0.215-0.242,0.51-0.365,0.883-0.365c0.228,0,0.435,0.055,0.619,0.162c0.183,0.109,0.331,0.27,0.441,0.484
				C331.067,767.45,331.122,767.714,331.122,768.024z"/>
			<path style="fill:#F1F1F1;" d="M346.896,772.499h-5.071c0.007,0.588,0.124,1.107,0.356,1.557
				c0.231,0.449,0.538,0.789,0.921,1.016c0.382,0.229,0.805,0.342,1.267,0.342c0.311,0,0.594-0.035,0.851-0.107
				c0.255-0.074,0.504-0.188,0.746-0.344c0.24-0.154,0.461-0.32,0.665-0.498c0.202-0.178,0.464-0.42,0.788-0.723
				c0.133-0.113,0.323-0.172,0.57-0.172c0.266,0,0.481,0.074,0.646,0.221c0.165,0.147,0.247,0.35,0.247,0.617
				c0,0.234-0.091,0.506-0.275,0.82c-0.184,0.315-0.461,0.615-0.831,0.902c-0.371,0.289-0.835,0.527-1.396,0.717
				c-0.561,0.191-1.205,0.285-1.933,0.285c-1.665,0-2.96-0.475-3.885-1.424c-0.923-0.949-1.386-2.238-1.386-3.865
				c0-0.768,0.114-1.478,0.342-2.133c0.228-0.656,0.561-1.217,0.998-1.686c0.437-0.469,0.975-0.828,1.614-1.078
				c0.639-0.25,1.349-0.375,2.128-0.375c1.013,0,1.881,0.213,2.606,0.641c0.726,0.428,1.268,0.98,1.63,1.656
				c0.36,0.678,0.541,1.369,0.541,2.07c0,0.654-0.186,1.076-0.561,1.27C348.101,772.401,347.575,772.499,346.896,772.499z
				 M341.825,771.026h4.701c-0.063-0.887-0.302-1.551-0.717-1.99c-0.415-0.441-0.961-0.66-1.638-0.66
				c-0.646,0-1.177,0.223-1.592,0.668C342.165,769.491,341.914,770.151,341.825,771.026z"/>
			<path style="fill:#F1F1F1;" d="M357.466,775.651v-0.258c-0.348,0.398-0.691,0.725-1.03,0.973
				c-0.339,0.252-0.706,0.441-1.102,0.57c-0.395,0.133-0.828,0.195-1.296,0.195c-0.622,0-1.196-0.131-1.724-0.392
				c-0.529-0.264-0.986-0.639-1.373-1.127c-0.387-0.486-0.679-1.059-0.878-1.719c-0.2-0.658-0.299-1.371-0.299-2.137
				c0-1.621,0.396-2.885,1.187-3.791c0.792-0.904,1.833-1.357,3.125-1.357c0.747,0,1.377,0.129,1.89,0.385
				c0.513,0.256,1.013,0.652,1.5,1.182v-3.826c0-0.533,0.107-0.934,0.319-1.207c0.211-0.271,0.515-0.408,0.907-0.408
				c0.392,0,0.694,0.125,0.907,0.375c0.212,0.252,0.318,0.619,0.318,1.107v11.436c0,0.494-0.114,0.863-0.342,1.111
				c-0.228,0.246-0.522,0.369-0.883,0.369c-0.354,0-0.647-0.127-0.879-0.383C357.582,776.491,357.466,776.126,357.466,775.651z
				 M352.367,771.843c0,0.703,0.108,1.301,0.327,1.795c0.218,0.494,0.518,0.865,0.898,1.115c0.379,0.25,0.794,0.377,1.243,0.377
				c0.457,0,0.873-0.119,1.249-0.357c0.377-0.236,0.678-0.602,0.902-1.092c0.225-0.49,0.337-1.106,0.337-1.838
				c0-0.691-0.112-1.285-0.337-1.783c-0.224-0.496-0.528-0.875-0.912-1.139c-0.384-0.262-0.803-0.393-1.259-0.393
				c-0.474,0-0.899,0.135-1.273,0.402c-0.373,0.269-0.663,0.654-0.869,1.158C352.469,770.593,352.367,771.177,352.367,771.843z"/>
			<path style="fill:#F1F1F1;" d="M368.064,764.216v3.959c0.487-0.506,0.984-0.895,1.491-1.162c0.506-0.269,1.134-0.404,1.881-0.404
				c0.861,0,1.616,0.205,2.266,0.611c0.648,0.41,1.151,1.002,1.51,1.777c0.357,0.775,0.537,1.695,0.537,2.76
				c0,0.785-0.1,1.504-0.299,2.16c-0.2,0.656-0.49,1.225-0.869,1.705c-0.38,0.48-0.841,0.854-1.382,1.117
				c-0.542,0.262-1.139,0.392-1.79,0.392c-0.399,0-0.775-0.047-1.126-0.142c-0.352-0.094-0.651-0.219-0.898-0.375
				c-0.246-0.154-0.457-0.315-0.631-0.479c-0.174-0.164-0.404-0.412-0.689-0.742v0.258c0,0.486-0.117,0.855-0.352,1.107
				c-0.233,0.25-0.531,0.373-0.893,0.373c-0.367,0-0.66-0.123-0.878-0.373c-0.219-0.252-0.328-0.621-0.328-1.107v-11.322
				c0-0.525,0.106-0.924,0.317-1.191c0.212-0.269,0.509-0.404,0.889-0.404c0.399,0,0.706,0.129,0.921,0.385
				C367.956,763.376,368.064,763.739,368.064,764.216z M368.188,771.919c0,1.031,0.236,1.824,0.707,2.377
				c0.472,0.555,1.091,0.834,1.857,0.834c0.652,0,1.214-0.283,1.686-0.852c0.472-0.566,0.707-1.379,0.707-2.436
				c0-0.684-0.097-1.273-0.294-1.768c-0.197-0.494-0.475-0.875-0.836-1.144c-0.361-0.268-0.783-0.402-1.264-0.402
				c-0.494,0-0.934,0.135-1.32,0.402c-0.386,0.269-0.69,0.658-0.912,1.168C368.299,770.608,368.188,771.216,368.188,771.919z"/>
			<path style="fill:#F1F1F1;" d="M379.11,777.456l0.237-0.58l-3.191-8.035c-0.196-0.461-0.295-0.799-0.295-1.008
				c0-0.221,0.058-0.426,0.171-0.615c0.114-0.191,0.271-0.344,0.47-0.457c0.2-0.115,0.407-0.172,0.623-0.172
				c0.373,0,0.655,0.119,0.846,0.357c0.19,0.236,0.357,0.576,0.503,1.02l2.194,6.383l2.08-5.935c0.164-0.48,0.313-0.857,0.446-1.131
				c0.133-0.272,0.273-0.455,0.422-0.549c0.148-0.096,0.359-0.144,0.632-0.144c0.197,0,0.385,0.053,0.565,0.158
				c0.18,0.104,0.319,0.244,0.417,0.422c0.098,0.178,0.148,0.363,0.148,0.561c-0.026,0.119-0.066,0.291-0.124,0.514
				c-0.058,0.221-0.127,0.447-0.208,0.674l-3.381,8.852c-0.292,0.779-0.577,1.389-0.855,1.832c-0.279,0.443-0.647,0.785-1.107,1.021
				c-0.46,0.238-1.078,0.357-1.857,0.357c-0.759,0-1.33-0.082-1.708-0.246c-0.381-0.166-0.57-0.467-0.57-0.904
				c0-0.297,0.089-0.527,0.271-0.688c0.18-0.162,0.448-0.244,0.801-0.244c0.14,0,0.276,0.019,0.409,0.059
				c0.165,0.037,0.307,0.057,0.427,0.057c0.297,0,0.532-0.043,0.704-0.133c0.17-0.088,0.324-0.242,0.46-0.461
				C378.776,778.202,378.933,777.88,379.11,777.456z"/>
		</g>
		<g>
			<path style="fill:#F1F1F1;" d="M416.673,766.813h0.619v-0.777c0-0.814,0.1-1.457,0.307-1.938
				c0.203-0.478,0.555-0.826,1.047-1.045c0.49-0.217,1.162-0.326,2.016-0.326c1.52,0,2.273,0.367,2.273,1.113
				c0,0.238-0.08,0.445-0.24,0.615c-0.154,0.17-0.344,0.256-0.559,0.256c-0.1,0-0.277-0.018-0.527-0.059
				c-0.236-0.033-0.451-0.057-0.623-0.057c-0.467,0-0.766,0.141-0.904,0.416c-0.127,0.275-0.195,0.668-0.195,1.184v0.617h0.633
				c0.99,0,1.48,0.297,1.48,0.897c0,0.418-0.127,0.689-0.393,0.805c-0.262,0.113-0.623,0.17-1.088,0.17h-0.633v6.871
				c0,0.512-0.121,0.9-0.369,1.168c-0.242,0.273-0.555,0.406-0.943,0.406c-0.367,0-0.67-0.133-0.918-0.406
				c-0.244-0.267-0.363-0.656-0.363-1.168v-6.871h-0.715c-0.389,0-0.682-0.084-0.892-0.262c-0.209-0.17-0.315-0.398-0.315-0.678
				C415.37,767.122,415.804,766.813,416.673,766.813"/>
			<path style="fill:#F1F1F1;" d="M425.163,773.388v2.168c0,0.523-0.133,0.92-0.375,1.18c-0.246,0.266-0.559,0.394-0.938,0.394
				c-0.381,0-0.688-0.131-0.926-0.4c-0.236-0.264-0.361-0.656-0.361-1.174v-7.223c0-1.166,0.42-1.748,1.262-1.748
				c0.434,0,0.742,0.135,0.934,0.408c0.189,0.273,0.295,0.674,0.316,1.207c0.309-0.533,0.625-0.934,0.949-1.207
				c0.332-0.273,0.762-0.408,1.309-0.408c0.549,0,1.072,0.135,1.586,0.408c0.516,0.273,0.772,0.637,0.772,1.084
				c0,0.315-0.111,0.58-0.326,0.781c-0.221,0.209-0.455,0.313-0.707,0.313c-0.1,0-0.33-0.063-0.691-0.18
				c-0.365-0.113-0.689-0.174-0.963-0.174c-0.381,0-0.693,0.104-0.932,0.299c-0.242,0.205-0.432,0.496-0.565,0.887
				c-0.129,0.395-0.219,0.865-0.273,1.404C425.185,771.948,425.163,772.61,425.163,773.388"/>
			<path style="fill:#F1F1F1;" d="M437.083,772.495h-5.074c0.01,0.588,0.125,1.111,0.355,1.559c0.234,0.447,0.539,0.787,0.924,1.018
				c0.385,0.227,0.805,0.34,1.27,0.34c0.311,0,0.592-0.033,0.85-0.111c0.254-0.07,0.504-0.185,0.744-0.342
				c0.242-0.152,0.461-0.318,0.664-0.5c0.203-0.174,0.467-0.416,0.791-0.719c0.135-0.113,0.324-0.174,0.568-0.174
				c0.268,0,0.481,0.074,0.648,0.223c0.166,0.146,0.244,0.35,0.244,0.617c0,0.234-0.09,0.508-0.268,0.818
				c-0.188,0.318-0.463,0.617-0.836,0.906c-0.375,0.285-0.84,0.527-1.398,0.715c-0.559,0.189-1.205,0.285-1.932,0.285
				c-1.67,0-2.963-0.473-3.887-1.422c-0.924-0.951-1.391-2.242-1.391-3.867c0-0.768,0.117-1.479,0.348-2.135
				c0.225-0.658,0.557-1.217,0.998-1.688c0.436-0.471,0.971-0.828,1.613-1.078c0.637-0.25,1.346-0.375,2.127-0.375
				c1.012,0,1.881,0.215,2.607,0.646c0.723,0.422,1.273,0.977,1.629,1.654c0.361,0.68,0.541,1.367,0.541,2.074
				c0,0.648-0.188,1.07-0.561,1.266C438.286,772.399,437.761,772.495,437.083,772.495 M432.009,771.021h4.701
				c-0.063-0.885-0.297-1.549-0.713-1.986c-0.418-0.441-0.959-0.66-1.641-0.66c-0.646,0-1.178,0.221-1.592,0.67
				C432.351,769.489,432.097,770.148,432.009,771.021"/>
			<path style="fill:#F1F1F1;" d="M447.87,772.495h-5.072c0.006,0.588,0.125,1.111,0.354,1.559c0.232,0.447,0.539,0.787,0.922,1.018
				c0.383,0.227,0.805,0.34,1.272,0.34c0.307,0,0.592-0.033,0.844-0.111c0.26-0.07,0.506-0.185,0.75-0.342
				c0.242-0.152,0.461-0.318,0.664-0.5c0.199-0.174,0.465-0.416,0.789-0.719c0.135-0.113,0.326-0.174,0.568-0.174
				c0.267,0,0.482,0.074,0.65,0.223c0.164,0.146,0.24,0.35,0.24,0.617c0,0.234-0.088,0.508-0.273,0.818
				c-0.178,0.318-0.455,0.617-0.83,0.906c-0.371,0.285-0.84,0.527-1.397,0.715c-0.557,0.189-1.207,0.285-1.934,0.285
				c-1.668,0-2.959-0.473-3.887-1.422c-0.924-0.951-1.389-2.242-1.389-3.867c0-0.768,0.115-1.479,0.348-2.135
				c0.227-0.658,0.559-1.217,0.996-1.688c0.436-0.471,0.973-0.828,1.613-1.078c0.639-0.25,1.352-0.375,2.129-0.375
				c1.01,0,1.879,0.215,2.613,0.646c0.721,0.422,1.266,0.977,1.621,1.654c0.359,0.68,0.545,1.367,0.545,2.074
				c0,0.648-0.191,1.07-0.56,1.266C449.071,772.399,448.546,772.495,447.87,772.495 M442.798,771.021h4.701
				c-0.064-0.885-0.305-1.549-0.715-1.986c-0.422-0.441-0.963-0.66-1.643-0.66c-0.647,0-1.176,0.221-1.594,0.67
				C443.136,769.489,442.882,770.148,442.798,771.021"/>
			<path style="fill:#F1F1F1;" d="M453.55,768.044v0.311c0.486-0.602,0.994-1.043,1.525-1.324c0.518-0.285,1.117-0.428,1.781-0.428
				c0.795,0,1.535,0.209,2.207,0.617c0.672,0.414,1.199,1.016,1.59,1.807c0.389,0.795,0.586,1.73,0.586,2.814
				c0,0.795-0.113,1.531-0.336,2.201c-0.225,0.668-0.537,1.227-0.93,1.68c-0.393,0.449-0.855,0.801-1.389,1.045
				c-0.543,0.242-1.111,0.363-1.729,0.363c-0.738,0-1.363-0.148-1.865-0.447c-0.502-0.291-0.982-0.732-1.441-1.305v3.893
				c0,1.135-0.416,1.709-1.244,1.709c-0.49,0-0.809-0.146-0.971-0.44c-0.152-0.299-0.234-0.723-0.234-1.291v-11.193
				c0-0.494,0.107-0.859,0.32-1.108c0.215-0.238,0.512-0.363,0.885-0.363c0.369,0,0.666,0.125,0.896,0.373
				C453.436,767.212,453.55,767.569,453.55,768.044 M458.634,771.812c0-0.686-0.105-1.273-0.315-1.764
				c-0.209-0.492-0.498-0.867-0.865-1.127c-0.367-0.264-0.783-0.396-1.232-0.396c-0.715,0-1.318,0.283-1.809,0.844
				c-0.492,0.566-0.74,1.394-0.74,2.492c0,1.027,0.244,1.834,0.736,2.406c0.486,0.574,1.086,0.859,1.813,0.859
				c0.428,0,0.83-0.127,1.197-0.373c0.371-0.252,0.664-0.627,0.883-1.127C458.522,773.124,458.634,772.519,458.634,771.812"/>
			<path style="fill:#F1F1F1;" d="M463.851,765.378c-0.363,0-0.67-0.115-0.924-0.336c-0.26-0.223-0.387-0.531-0.387-0.936
				c0-0.369,0.131-0.67,0.396-0.91c0.262-0.234,0.566-0.355,0.914-0.355c0.34,0,0.635,0.105,0.893,0.318
				c0.26,0.219,0.391,0.535,0.391,0.947c0,0.398-0.127,0.711-0.377,0.936C464.503,765.263,464.202,765.378,463.851,765.378
				 M465.134,768.056v7.502c0,0.516-0.123,0.908-0.369,1.172c-0.25,0.27-0.56,0.4-0.941,0.4c-0.381,0-0.685-0.133-0.928-0.406
				c-0.234-0.275-0.355-0.664-0.355-1.166v-7.428c0-0.51,0.121-0.894,0.355-1.154c0.242-0.264,0.547-0.391,0.928-0.391
				c0.381,0,0.691,0.127,0.941,0.391C465.011,767.235,465.134,767.599,465.134,768.056"/>
			<path style="fill:#F1F1F1;" d="M473.493,775.946l-2.283-3.766l-1.408,1.328v2.066c0,0.498-0.133,0.881-0.397,1.148
				c-0.258,0.273-0.566,0.406-0.906,0.406c-0.398,0-0.715-0.131-0.941-0.4c-0.227-0.264-0.344-0.656-0.344-1.174v-11.063
				c0-0.574,0.115-1.012,0.332-1.315c0.223-0.305,0.545-0.451,0.953-0.451c0.398,0,0.713,0.137,0.949,0.41
				c0.234,0.271,0.354,0.674,0.354,1.203v6.293l2.916-3.063c0.361-0.377,0.633-0.641,0.826-0.779c0.19-0.139,0.42-0.207,0.69-0.207
				c0.326,0,0.594,0.103,0.816,0.309c0.211,0.205,0.32,0.465,0.32,0.773c0,0.379-0.353,0.889-1.055,1.521l-1.377,1.262l2.658,4.184
				c0.193,0.313,0.34,0.543,0.424,0.705c0.084,0.16,0.131,0.32,0.131,0.463c0,0.412-0.115,0.734-0.342,0.975
				c-0.225,0.236-0.523,0.353-0.885,0.353c-0.316,0-0.564-0.08-0.734-0.256C474.02,776.702,473.784,776.392,473.493,775.946"/>
			<path style="fill:#F1F1F1;" d="M479.13,777.13c-0.393,0-0.728-0.125-1.014-0.381c-0.285-0.248-0.43-0.605-0.43-1.064
				c0-0.385,0.139-0.719,0.41-0.994c0.275-0.279,0.607-0.42,1.008-0.42c0.398,0,0.736,0.141,1.023,0.412
				c0.279,0.275,0.422,0.613,0.422,1.002c0,0.453-0.143,0.809-0.422,1.061C479.841,777.005,479.509,777.13,479.13,777.13"/>
			<path style="fill:#F1F1F1;" d="M492.028,773.921c0,0.32-0.098,0.668-0.291,1.033c-0.191,0.371-0.488,0.719-0.887,1.051
				c-0.395,0.332-0.891,0.602-1.494,0.803c-0.602,0.203-1.281,0.307-2.031,0.307c-1.605,0-2.857-0.469-3.758-1.4
				c-0.895-0.936-1.346-2.19-1.346-3.76c0-1.068,0.205-2.006,0.619-2.824c0.408-0.814,1.004-1.447,1.781-1.894
				c0.779-0.447,1.717-0.67,2.795-0.67c0.674,0,1.287,0.098,1.852,0.295c0.561,0.195,1.033,0.451,1.426,0.76
				c0.387,0.314,0.686,0.643,0.889,0.992c0.207,0.352,0.309,0.68,0.309,0.986c0,0.309-0.113,0.572-0.344,0.787
				c-0.234,0.215-0.516,0.324-0.838,0.324c-0.219,0-0.398-0.057-0.541-0.166c-0.145-0.111-0.305-0.289-0.478-0.541
				c-0.318-0.479-0.647-0.842-0.996-1.08c-0.344-0.242-0.781-0.361-1.314-0.361c-0.762,0-1.383,0.297-1.853,0.896
				c-0.467,0.596-0.703,1.42-0.703,2.455c0,0.488,0.063,0.939,0.184,1.348c0.117,0.406,0.291,0.756,0.52,1.043
				c0.23,0.287,0.504,0.506,0.826,0.654c0.324,0.154,0.682,0.227,1.065,0.227c0.521,0,0.967-0.121,1.336-0.361
				c0.377-0.24,0.703-0.607,0.986-1.102c0.158-0.291,0.328-0.518,0.51-0.684c0.182-0.164,0.408-0.25,0.676-0.25
				c0.316,0,0.58,0.123,0.785,0.363C491.921,773.392,492.028,773.649,492.028,773.921"/>
			<path style="fill:#F1F1F1;" d="M503.218,771.86c0,0.769-0.121,1.484-0.355,2.139c-0.246,0.652-0.592,1.213-1.049,1.678
				c-0.455,0.469-1.002,0.828-1.633,1.08c-0.639,0.248-1.35,0.375-2.139,0.375c-0.785,0-1.492-0.127-2.121-0.383
				c-0.623-0.248-1.17-0.613-1.625-1.082c-0.461-0.477-0.809-1.033-1.053-1.676c-0.229-0.645-0.35-1.356-0.35-2.131
				c0-0.787,0.123-1.506,0.357-2.158c0.242-0.654,0.59-1.213,1.039-1.674c0.451-0.461,0.994-0.816,1.631-1.07
				c0.645-0.248,1.35-0.373,2.121-0.373c0.785,0,1.498,0.125,2.139,0.381c0.639,0.252,1.184,0.615,1.645,1.08
				c0.457,0.475,0.803,1.029,1.039,1.672C503.099,770.368,503.218,771.077,503.218,771.86 M500.614,771.86
				c0-1.059-0.234-1.881-0.697-2.469c-0.463-0.596-1.09-0.889-1.875-0.889c-0.508,0-0.955,0.133-1.342,0.395
				c-0.387,0.262-0.682,0.648-0.891,1.164c-0.209,0.514-0.315,1.113-0.315,1.799c0,0.678,0.102,1.268,0.309,1.773
				c0.209,0.51,0.502,0.896,0.887,1.166c0.385,0.266,0.834,0.404,1.352,0.404c0.785,0,1.412-0.297,1.875-0.893
				C500.38,773.722,500.614,772.901,500.614,771.86"/>
			<path style="fill:#F1F1F1;" d="M513.11,772.05v3.447c0,0.547-0.121,0.951-0.369,1.227c-0.25,0.273-0.572,0.408-0.979,0.408
				c-0.393,0-0.713-0.135-0.951-0.408c-0.246-0.275-0.371-0.68-0.371-1.227v-4.131c0-0.654-0.022-1.162-0.064-1.525
				c-0.045-0.354-0.168-0.654-0.361-0.883c-0.197-0.234-0.51-0.352-0.932-0.352c-0.85,0-1.406,0.291-1.676,0.881
				c-0.268,0.576-0.406,1.414-0.406,2.508v3.502c0,0.537-0.123,0.945-0.361,1.223c-0.25,0.273-0.568,0.412-0.965,0.412
				c-0.396,0-0.717-0.139-0.967-0.412c-0.252-0.277-0.377-0.686-0.377-1.223v-7.42c0-0.488,0.111-0.859,0.336-1.111
				c0.228-0.256,0.525-0.381,0.889-0.381c0.357,0,0.652,0.123,0.892,0.355c0.236,0.238,0.354,0.566,0.354,0.984v0.244
				c0.453-0.535,0.935-0.932,1.445-1.18c0.516-0.26,1.082-0.387,1.713-0.387c0.65,0,1.211,0.131,1.678,0.391
				c0.469,0.26,0.854,0.654,1.16,1.176c0.439-0.527,0.908-0.922,1.41-1.18c0.5-0.258,1.053-0.387,1.662-0.387
				c0.705,0,1.32,0.143,1.834,0.42c0.51,0.277,0.893,0.68,1.146,1.195c0.221,0.473,0.33,1.209,0.33,2.217v5.063
				c0,0.547-0.121,0.951-0.367,1.227c-0.246,0.273-0.574,0.408-0.978,0.408c-0.395,0-0.715-0.139-0.965-0.412
				c-0.25-0.277-0.377-0.686-0.377-1.223v-4.361c0-0.559-0.023-1.004-0.068-1.338c-0.047-0.338-0.178-0.621-0.383-0.848
				c-0.213-0.227-0.531-0.344-0.953-0.344c-0.342,0-0.666,0.108-0.975,0.309c-0.307,0.197-0.547,0.477-0.721,0.813
				C513.208,770.165,513.11,770.94,513.11,772.05"/>
		</g>
		<g>
			<path style="fill:#F1F1F1;" d="M392.405,771.231c-0.002-0.004-0.002-0.01-0.002-0.017
				C392.403,771.222,392.403,771.227,392.405,771.231z"/>
			<path style="fill:#F1F1F1;" d="M392.536,772.062c0.002,0,0.002,0,0.003,0c-0.05-0.236-0.088-0.471-0.119-0.703
				C392.451,771.593,392.489,771.827,392.536,772.062z"/>
			<path style="fill:#F1F1F1;" d="M393.395,774.468c-0.006-0.01-0.011-0.021-0.017-0.033
				C393.384,774.446,393.389,774.458,393.395,774.468z"/>
			<path style="fill:#F1F1F1;" d="M393.313,774.308c-0.022-0.045-0.044-0.09-0.065-0.135
				C393.269,774.22,393.29,774.263,393.313,774.308z"/>
			<path style="fill:#F1F1F1;" d="M392.777,772.987c0.127,0.4,0.28,0.789,0.457,1.158c-0.18-0.377-0.33-0.766-0.454-1.158
				C392.78,772.987,392.778,772.987,392.777,772.987z"/>
			<path style="fill:#F1F1F1;" d="M402.443,761.296c0.5,0,0.871,0.039,1.294,0.111l0.121-0.764c0,0-1.171-0.359-2.711-0.234
				l-0.121-0.414c0.478-0.102,0.838-0.527,0.838-1.035c0-0.582-0.474-1.053-1.057-1.053c-0.583,0-1.056,0.471-1.056,1.053
				c0,0.508,0.358,0.934,0.836,1.035l0.134,0.463c-1.634,0.225-2.935,0.861-2.935,0.861l0.23,0.705
				c0.989-0.328,1.846-0.529,2.624-0.613C401.402,761.331,401.976,761.296,402.443,761.296z"/>
			<path style="fill:#F1F1F1;" d="M393.375,765.153l0.006-0.008c0.039-0.049,0.076-0.096,0.113-0.143l-0.313-0.225l-0.488-0.357
				c-0.027,0.039-0.795,0.744-1.401,2.049c-0.025-0.041-0.056-0.082-0.09-0.119c-0.182-0.199-0.435-0.301-0.758-0.295
				c-0.004,0-0.009,0-0.015,0c-0.2,0-0.337-0.066-0.427-0.147c0.089-0.113,0.143-0.256,0.143-0.414c0-0.367-0.3-0.668-0.669-0.668
				c-0.369,0-0.669,0.301-0.669,0.668c0,0.371,0.3,0.67,0.669,0.67c0.058,0,0.113-0.01,0.167-0.021
				c0.164,0.183,0.425,0.342,0.808,0.334c0.197-0.002,0.341,0.049,0.438,0.156c0.111,0.121,0.148,0.295,0.16,0.428
				c-0.001,0.002-0.001,0.004-0.003,0.004c-0.436,1.189-0.311,2.67-0.311,2.67l1.057,0.043c0.022-0.539,0.099-1.482,0.372-2.23
				C392.689,766.099,393.348,765.192,393.375,765.153z"/>
			<path style="fill:#F1F1F1;" d="M411.642,762.179c-0.367,0-0.668,0.299-0.668,0.67c0,0.057,0.008,0.111,0.023,0.164
				c-0.184,0.166-0.344,0.428-0.338,0.81c0.004,0.197-0.047,0.34-0.154,0.438c-0.084,0.074-0.191,0.115-0.295,0.141
				c-0.787-1.104-1.756-1.775-1.756-1.775l-0.76,0.813c0.574,0.522,1.16,1.176,1.729,1.99c0.395,0.565,0.799,1.291,1.137,2.016
				l1.023-0.486c0,0-0.467-1.156-1.125-2.191c0.113-0.041,0.228-0.104,0.33-0.193c0.201-0.18,0.299-0.435,0.293-0.758
				c-0.002-0.207,0.066-0.348,0.148-0.441c0.115,0.088,0.258,0.143,0.412,0.143c0.371,0,0.67-0.299,0.67-0.668
				C412.311,762.477,412.013,762.179,411.642,762.179z"/>
			<path style="fill:#F1F1F1;" d="M408.985,771.382c-1.41,0.686-3.729,1.594-6.782,2.02c-1.197,0.166-2.359,0.227-3.428,0.227
				c-1.391,0-2.62-0.104-3.563-0.223c-1.076-0.135-1.918-0.301-2.432-0.418c0.124,0.393,0.273,0.781,0.454,1.158
				c0.003,0.01,0.008,0.021,0.013,0.027c0.021,0.045,0.043,0.09,0.065,0.135c0.022,0.043,0.043,0.086,0.065,0.127
				c0.006,0.012,0.011,0.023,0.017,0.033c0.303,0.57,0.667,1.094,1.081,1.549c1.44,1.574,2.907,1.824,2.921,1.826l0.023,0.002
				l0.022,0.008c0.013,0.006,1.314,0.426,3.292,0.426c1.946,0,3.855-0.393,5.673-1.168c1.348-0.69,2.623-1.736,3.254-2.67
				c0.488-0.723,0.842-1.492,1.051-2.293c0.111-0.426,0.199-1.108,0.146-1.826C410.46,770.589,409.833,770.968,408.985,771.382z"/>
			<path style="fill:#F1F1F1;" d="M393.828,765.487c-0.041,0.061-0.652,0.926-1.135,2.254c-0.362,0.994-0.346,2.443-0.346,2.459
				v0.004c0,0.34,0.019,0.676,0.057,1.01c0,0.008,0,0.014,0.002,0.017c0.004,0.043,0.011,0.084,0.015,0.127
				c0.03,0.232,0.069,0.467,0.119,0.703c0.7,0.178,4.878,1.152,9.549,0.502c2.927-0.408,5.149-1.273,6.499-1.928
				c1.121-0.543,1.842-1.035,2.119-1.238c-0.277-1.027-1.041-2.641-1.742-3.647c-2.006-2.865-4.168-3.6-5.277-3.783
				c-0.425-0.068-0.763-0.109-1.243-0.109c-0.447,0-1.002,0.037-1.744,0.115c-0.743,0.076-1.572,0.272-2.532,0.596
				c-1.348,0.451-2.567,1.158-3.527,2.047l-0.033,0.031C394.466,764.778,394.169,765.054,393.828,765.487z M406.097,764.821
				c0.961,0,1.744,0.781,1.744,1.742c0,0.963-0.783,1.744-1.744,1.744c-0.961,0-1.742-0.781-1.742-1.744
				C404.354,765.602,405.136,764.821,406.097,764.821z M397.855,764.751c1.557,0,2.817,1.262,2.817,2.818
				c0,1.555-1.26,2.815-2.817,2.815c-1.555,0-2.816-1.26-2.816-2.815C395.04,766.013,396.301,764.751,397.855,764.751z"/>
		</g>
	</g>
	<g>
		<polygon style="fill:#F1F1F1;" points="16.062,46.37 18.06,50.42 22.529,51.068 19.295,54.222 20.06,58.672 16.062,56.57 
			12.064,58.672 12.827,54.222 9.593,51.068 14.063,50.42 		"/>
		<polygon style="fill:#F1F1F1;" points="289.504,98.087 291.504,102.138 295.974,102.786 292.739,105.94 293.502,110.39 
			289.504,108.29 285.507,110.39 286.271,105.94 283.037,102.786 287.506,102.138 		"/>
		<polygon style="fill:#F1F1F1;" points="438.447,19.194 440.444,23.245 444.914,23.893 441.68,27.046 442.444,31.497 
			438.447,29.396 434.449,31.497 435.212,27.046 431.977,23.893 436.447,23.245 		"/>
		<polygon style="fill:#F1F1F1;" points="525.501,49.8 527.498,53.85 531.968,54.498 528.733,57.652 529.498,62.102 525.501,60.002 
			521.503,62.102 522.266,57.652 519.031,54.498 523.501,53.85 		"/>
		<polygon style="fill:#F1F1F1;" points="700.967,242.95 702.964,247 707.434,247.648 704.199,250.802 704.964,255.252 
			700.967,253.152 696.969,255.252 697.731,250.802 694.497,247.648 698.967,247 		"/>
		<polygon style="fill:#F1F1F1;" points="777.471,323.452 779.469,327.502 783.938,328.15 780.703,331.304 781.468,335.754 
			777.471,333.654 773.474,335.754 774.236,331.304 771.001,328.15 775.471,327.502 		"/>
		<polygon style="fill:#F1F1F1;" points="707.434,468.677 709.434,472.728 713.903,473.375 710.668,476.529 711.431,480.979 
			707.434,478.879 703.436,480.979 704.201,476.529 700.967,473.375 705.435,472.728 		"/>
		<polygon style="fill:#F1F1F1;" points="758.653,595.861 760.651,599.912 765.121,600.56 761.886,603.714 762.65,608.164 
			758.653,606.065 754.656,608.164 755.419,603.714 752.185,600.56 756.653,599.912 		"/>
		<polygon style="fill:#F1F1F1;" points="601.702,647.276 603.699,651.327 608.169,651.976 604.935,655.129 605.699,659.579 
			601.702,657.479 597.704,659.579 598.467,655.129 595.232,651.976 599.702,651.327 		"/>
		<polygon style="fill:#F1F1F1;" points="542.169,608.166 544.166,612.216 548.636,612.864 545.401,616.018 546.166,620.468 
			542.169,618.368 538.171,620.468 538.934,616.018 535.699,612.864 540.169,612.216 		"/>
		<polygon style="fill:#F1F1F1;" points="168.732,659.581 170.73,663.631 175.2,664.279 171.965,667.433 172.729,671.883 
			168.732,669.783 164.735,671.883 165.498,667.433 162.263,664.279 166.733,663.631 		"/>
		<polygon style="fill:#F1F1F1;" points="48.917,716.187 50.917,720.236 55.386,720.885 52.151,724.038 52.915,728.488 
			48.917,726.389 44.919,728.488 45.684,724.038 42.45,720.885 46.919,720.236 		"/>
		<polygon style="fill:#F1F1F1;" points="231.125,768.503 233.124,772.554 237.594,773.202 234.359,776.356 235.123,780.806 
			231.125,778.706 227.127,780.806 227.892,776.356 224.658,773.202 229.127,772.554 		"/>
		<polygon style="fill:#F1F1F1;" points="588.766,745.953 590.763,750.003 595.232,750.651 591.998,753.805 592.763,758.255 
			588.766,756.155 584.768,758.255 585.53,753.805 582.296,750.651 586.766,750.003 		"/>
		<polygon style="fill:#F1F1F1;" points="727.831,728.49 729.829,732.54 734.299,733.188 731.064,736.343 731.829,740.793 
			727.831,738.692 723.834,740.793 724.597,736.343 721.362,733.188 725.832,732.54 		"/>
		<polygon style="fill:#F1F1F1;" points="94.767,438.91 96.765,442.961 101.234,443.608 97.999,446.763 98.764,451.213 
			94.767,449.112 90.769,451.213 91.532,446.763 88.297,443.608 92.767,442.961 		"/>
		<polygon style="fill:#F1F1F1;" points="42.45,296.391 44.447,300.441 48.917,301.09 45.682,304.243 46.447,308.693 42.45,306.593 
			38.452,308.693 39.215,304.243 35.98,301.09 40.45,300.441 		"/>
		<polygon style="fill:#F1F1F1;" points="224.658,278.351 226.655,282.401 231.125,283.049 227.891,286.203 228.655,290.653 
			224.658,288.553 220.66,290.653 221.423,286.203 218.188,283.049 222.658,282.401 		"/>
		<polygon style="fill:#F1F1F1;" points="783.938,46.37 785.938,50.42 790.407,51.068 787.173,54.222 787.935,58.672 
			783.938,56.572 779.94,58.672 780.705,54.222 777.471,51.068 781.94,50.42 		"/>
	</g>
	<g style="opacity:0.7;">
		<polygon style="fill:#F1F1F1;" points="3.314,13.921 4.337,15.996 6.627,16.328 4.97,17.944 5.362,20.224 3.314,19.146 
			1.266,20.224 1.657,17.944 0,16.328 2.29,15.996 		"/>
		<polygon style="fill:#F1F1F1;" points="143.395,40.416 144.419,42.491 146.709,42.823 145.052,44.438 145.442,46.718 
			143.395,45.642 141.347,46.718 141.738,44.438 140.081,42.823 142.371,42.491 		"/>
		<polygon style="fill:#F1F1F1;" points="219.696,0 220.719,2.075 223.009,2.407 221.352,4.022 221.743,6.302 219.696,5.226 
			217.647,6.302 218.039,4.022 216.382,2.407 218.672,2.075 		"/>
		<polygon style="fill:#F1F1F1;" points="264.292,15.679 265.315,17.753 267.605,18.085 265.948,19.701 266.34,21.981 
			264.292,20.905 262.244,21.981 262.635,19.701 260.978,18.085 263.268,17.753 		"/>
		<polygon style="fill:#F1F1F1;" points="354.181,114.627 355.204,116.701 357.494,117.034 355.837,118.649 356.228,120.929 
			354.181,119.853 352.133,120.929 352.523,118.649 350.866,117.034 353.156,116.701 		"/>
		<polygon style="fill:#F1F1F1;" points="393.373,155.866 394.396,157.941 396.686,158.273 395.028,159.889 395.421,162.169 
			393.373,161.093 391.325,162.169 391.716,159.889 390.059,158.273 392.349,157.941 		"/>
		<polygon style="fill:#F1F1F1;" points="357.494,230.263 358.519,232.338 360.809,232.67 359.15,234.286 359.541,236.565 
			357.494,235.489 355.446,236.565 355.838,234.286 354.181,232.67 356.471,232.338 		"/>
		<polygon style="fill:#F1F1F1;" points="383.732,295.418 384.757,297.493 387.046,297.825 385.389,299.44 385.78,301.721 
			383.732,300.645 381.685,301.721 382.076,299.44 380.419,297.825 382.708,297.493 		"/>
		<polygon style="fill:#F1F1F1;" points="303.329,321.757 304.352,323.832 306.642,324.165 304.985,325.78 305.377,328.06 
			303.329,326.984 301.281,328.06 301.672,325.78 300.015,324.165 302.305,323.832 		"/>
		<polygon style="fill:#F1F1F1;" points="272.831,301.722 273.854,303.796 276.144,304.128 274.487,305.744 274.879,308.023 
			272.831,306.948 270.783,308.023 271.174,305.744 269.517,304.128 271.807,303.796 		"/>
		<polygon style="fill:#F1F1F1;" points="81.525,328.06 82.548,330.136 84.838,330.468 83.181,332.083 83.573,334.362 
			81.525,333.287 79.477,334.362 79.868,332.083 78.211,330.468 80.501,330.136 		"/>
		<polygon style="fill:#F1F1F1;" points="20.145,357.059 21.169,359.134 23.459,359.466 21.802,361.081 22.193,363.361 
			20.145,362.285 18.097,363.361 18.489,361.081 16.832,359.466 19.122,359.134 		"/>
		<polygon style="fill:#F1F1F1;" points="113.488,383.859 114.512,385.935 116.802,386.268 115.145,387.883 115.536,390.162 
			113.488,389.087 111.44,390.162 111.831,387.883 110.175,386.268 112.464,385.935 		"/>
		<polygon style="fill:#F1F1F1;" points="296.702,372.308 297.725,374.383 300.015,374.715 298.357,376.33 298.75,378.61 
			296.702,377.534 294.653,378.61 295.045,376.33 293.388,374.715 295.678,374.383 		"/>
		<polygon style="fill:#F1F1F1;" points="367.943,363.362 368.967,365.436 371.257,365.769 369.6,367.385 369.991,369.664 
			367.943,368.588 365.895,369.664 366.286,367.385 364.629,365.769 366.919,365.436 		"/>
		<polygon style="fill:#F1F1F1;" points="43.633,215.015 44.657,217.089 46.946,217.421 45.29,219.037 45.681,221.316 
			43.633,220.24 41.585,221.316 41.977,219.037 40.319,217.421 42.609,217.089 		"/>
		<polygon style="fill:#F1F1F1;" points="16.832,142.004 17.855,144.079 20.145,144.411 18.488,146.026 18.88,148.306 
			16.832,147.23 14.784,148.306 15.175,146.026 13.518,144.411 15.808,144.079 		"/>
		<polygon style="fill:#F1F1F1;" points="110.175,132.762 111.198,134.837 113.488,135.169 111.831,136.784 112.222,139.064 
			110.175,137.988 108.127,139.064 108.518,136.784 106.86,135.169 109.15,134.837 		"/>
	</g>
	<g style="opacity:0.7;">
		<polygon style="fill:#F1F1F1;" points="403.313,13.921 404.337,15.996 406.627,16.328 404.97,17.944 405.362,20.224 
			403.313,19.146 401.267,20.224 401.657,17.944 400,16.328 402.29,15.996 		"/>
		<polygon style="fill:#F1F1F1;" points="543.394,40.416 544.419,42.491 546.709,42.823 545.052,44.438 545.442,46.718 
			543.394,45.642 541.347,46.718 541.738,44.438 540.081,42.823 542.371,42.491 		"/>
		<polygon style="fill:#F1F1F1;" points="619.696,0 620.719,2.075 623.009,2.407 621.352,4.022 621.743,6.302 619.696,5.226 
			617.647,6.302 618.039,4.022 616.382,2.407 618.672,2.075 		"/>
		<polygon style="fill:#F1F1F1;" points="664.292,15.679 665.315,17.753 667.605,18.085 665.948,19.701 666.34,21.981 
			664.292,20.905 662.244,21.981 662.635,19.701 660.978,18.085 663.268,17.753 		"/>
		<polygon style="fill:#F1F1F1;" points="754.181,114.627 755.204,116.701 757.494,117.034 755.837,118.649 756.228,120.929 
			754.181,119.853 752.133,120.929 752.523,118.649 750.866,117.034 753.156,116.701 		"/>
		<polygon style="fill:#F1F1F1;" points="793.373,155.866 794.396,157.941 796.686,158.273 795.028,159.889 795.421,162.169 
			793.373,161.093 791.325,162.169 791.716,159.889 790.059,158.273 792.349,157.941 		"/>
		<polygon style="fill:#F1F1F1;" points="757.494,230.263 758.519,232.338 760.809,232.67 759.15,234.286 759.541,236.565 
			757.494,235.489 755.446,236.565 755.838,234.286 754.181,232.67 756.471,232.338 		"/>
		<polygon style="fill:#F1F1F1;" points="783.732,295.418 784.757,297.493 787.046,297.825 785.389,299.44 785.78,301.721 
			783.732,300.645 781.685,301.721 782.076,299.44 780.419,297.825 782.708,297.493 		"/>
		<polygon style="fill:#F1F1F1;" points="703.329,321.757 704.352,323.832 706.642,324.165 704.985,325.78 705.377,328.06 
			703.329,326.984 701.281,328.06 701.672,325.78 700.015,324.165 702.305,323.832 		"/>
		<polygon style="fill:#F1F1F1;" points="672.831,301.722 673.854,303.796 676.144,304.128 674.487,305.744 674.879,308.023 
			672.831,306.948 670.783,308.023 671.174,305.744 669.517,304.128 671.807,303.796 		"/>
		<polygon style="fill:#F1F1F1;" points="481.524,328.06 482.548,330.136 484.838,330.468 483.181,332.083 483.573,334.362 
			481.524,333.287 479.477,334.362 479.868,332.083 478.211,330.468 480.501,330.136 		"/>
		<polygon style="fill:#F1F1F1;" points="420.145,357.059 421.169,359.134 423.46,359.466 421.802,361.081 422.193,363.361 
			420.145,362.285 418.097,363.361 418.489,361.081 416.832,359.466 419.122,359.134 		"/>
		<polygon style="fill:#F1F1F1;" points="513.487,383.859 514.513,385.935 516.802,386.268 515.144,387.883 515.536,390.162 
			513.487,389.087 511.44,390.162 511.831,387.883 510.175,386.268 512.464,385.935 		"/>
		<polygon style="fill:#F1F1F1;" points="696.702,372.308 697.725,374.383 700.015,374.715 698.357,376.33 698.75,378.61 
			696.702,377.534 694.653,378.61 695.045,376.33 693.388,374.715 695.678,374.383 		"/>
		<polygon style="fill:#F1F1F1;" points="767.943,363.362 768.967,365.436 771.257,365.769 769.6,367.385 769.991,369.664 
			767.943,368.588 765.896,369.664 766.286,367.385 764.629,365.769 766.919,365.436 		"/>
		<polygon style="fill:#F1F1F1;" points="443.634,215.015 444.657,217.089 446.946,217.421 445.29,219.037 445.681,221.316 
			443.634,220.24 441.585,221.316 441.977,219.037 440.319,217.421 442.608,217.089 		"/>
		<polygon style="fill:#F1F1F1;" points="416.832,142.004 417.855,144.079 420.145,144.411 418.488,146.026 418.88,148.306 
			416.832,147.23 414.784,148.306 415.175,146.026 413.519,144.411 415.808,144.079 		"/>
		<polygon style="fill:#F1F1F1;" points="510.175,132.762 511.198,134.837 513.487,135.169 511.831,136.784 512.222,139.064 
			510.175,137.988 508.127,139.064 508.518,136.784 506.86,135.169 509.15,134.837 		"/>
		<polygon style="fill:#F1F1F1;" points="796.686,13.921 797.71,15.996 800,16.328 798.343,17.944 798.733,20.224 796.686,19.148 
			794.638,20.224 795.029,17.944 793.373,16.328 795.662,15.996 		"/>
	</g>
	<g style="opacity:0.7;">
		<polygon style="fill:#F1F1F1;" points="3.314,423.759 4.337,425.834 6.627,426.166 4.97,427.782 5.362,430.061 3.314,428.984 
			1.266,430.061 1.657,427.782 0,426.166 2.29,425.834 		"/>
		<polygon style="fill:#F1F1F1;" points="143.395,450.253 144.419,452.329 146.709,452.661 145.052,454.276 145.442,456.556 
			143.395,455.479 141.347,456.556 141.738,454.276 140.081,452.661 142.371,452.329 		"/>
		<polygon style="fill:#F1F1F1;" points="219.696,409.838 220.719,411.913 223.009,412.245 221.352,413.86 221.743,416.14 
			219.696,415.064 217.647,416.14 218.039,413.86 216.382,412.245 218.672,411.913 		"/>
		<polygon style="fill:#F1F1F1;" points="264.292,425.517 265.315,427.591 267.605,427.923 265.948,429.539 266.34,431.819 
			264.292,430.743 262.244,431.819 262.635,429.539 260.978,427.923 263.268,427.591 		"/>
		<polygon style="fill:#F1F1F1;" points="354.181,524.464 355.204,526.539 357.494,526.872 355.837,528.487 356.228,530.767 
			354.181,529.69 352.133,530.767 352.523,528.487 350.866,526.872 353.156,526.539 		"/>
		<polygon style="fill:#F1F1F1;" points="393.373,565.704 394.396,567.779 396.686,568.111 395.028,569.727 395.421,572.007 
			393.373,570.931 391.325,572.007 391.716,569.727 390.059,568.111 392.349,567.779 		"/>
		<polygon style="fill:#F1F1F1;" points="357.494,640.101 358.519,642.176 360.809,642.508 359.15,644.124 359.541,646.403 
			357.494,645.327 355.446,646.403 355.838,644.124 354.181,642.508 356.471,642.176 		"/>
		<polygon style="fill:#F1F1F1;" points="383.732,705.256 384.757,707.331 387.046,707.663 385.389,709.278 385.78,711.559 
			383.732,710.482 381.685,711.559 382.076,709.278 380.419,707.663 382.708,707.331 		"/>
		<polygon style="fill:#F1F1F1;" points="303.329,731.595 304.352,733.67 306.642,734.003 304.985,735.618 305.377,737.898 
			303.329,736.822 301.281,737.898 301.672,735.618 300.015,734.003 302.305,733.67 		"/>
		<polygon style="fill:#F1F1F1;" points="272.831,711.56 273.854,713.634 276.144,713.966 274.487,715.582 274.879,717.861 
			272.831,716.786 270.783,717.861 271.174,715.582 269.517,713.966 271.807,713.634 		"/>
		<polygon style="fill:#F1F1F1;" points="81.525,737.898 82.548,739.974 84.838,740.306 83.181,741.921 83.573,744.2 
			81.525,743.125 79.477,744.2 79.868,741.921 78.211,740.306 80.501,739.974 		"/>
		<polygon style="fill:#F1F1F1;" points="20.145,766.896 21.169,768.972 23.459,769.304 21.802,770.919 22.193,773.199 
			20.145,772.123 18.097,773.199 18.489,770.919 16.832,769.304 19.122,768.972 		"/>
		<polygon style="fill:#F1F1F1;" points="113.488,793.697 114.512,795.773 116.802,796.106 115.145,797.721 115.536,800 
			113.488,798.925 111.44,800 111.831,797.721 110.175,796.106 112.464,795.773 		"/>
		<polygon style="fill:#F1F1F1;" points="296.702,782.146 297.725,784.221 300.015,784.553 298.357,786.168 298.75,788.448 
			296.702,787.372 294.653,788.448 295.045,786.168 293.388,784.553 295.678,784.221 		"/>
		<polygon style="fill:#F1F1F1;" points="367.943,773.2 368.967,775.274 371.257,775.606 369.6,777.223 369.991,779.502 
			367.943,778.426 365.895,779.502 366.286,777.223 364.629,775.606 366.919,775.274 		"/>
		<polygon style="fill:#F1F1F1;" points="43.633,624.852 44.657,626.927 46.946,627.259 45.29,628.875 45.681,631.154 
			43.633,630.078 41.585,631.154 41.977,628.875 40.319,627.259 42.609,626.927 		"/>
		<polygon style="fill:#F1F1F1;" points="16.832,551.842 17.855,553.917 20.145,554.249 18.488,555.864 18.88,558.144 
			16.832,557.067 14.784,558.144 15.175,555.864 13.518,554.249 15.808,553.917 		"/>
		<polygon style="fill:#F1F1F1;" points="110.175,542.6 111.198,544.675 113.488,545.007 111.831,546.622 112.222,548.901 
			110.175,547.826 108.127,548.901 108.518,546.622 106.86,545.007 109.15,544.675 		"/>
		<polygon style="fill:#F1F1F1;" points="396.686,423.759 397.71,425.834 400,426.166 398.343,427.782 398.733,430.061 
			396.686,428.985 394.638,430.061 395.029,427.782 393.373,426.166 395.662,425.834 		"/>
	</g>
	<g style="opacity:0.7;">
		<polygon style="fill:#F1F1F1;" points="403.313,423.759 404.337,425.834 406.627,426.166 404.97,427.782 405.362,430.061 
			403.313,428.984 401.267,430.061 401.657,427.782 400,426.166 402.29,425.834 		"/>
		<polygon style="fill:#F1F1F1;" points="543.394,450.253 544.419,452.329 546.709,452.661 545.052,454.276 545.442,456.556 
			543.394,455.479 541.347,456.556 541.738,454.276 540.081,452.661 542.371,452.329 		"/>
		<polygon style="fill:#F1F1F1;" points="619.696,409.838 620.719,411.913 623.009,412.245 621.352,413.86 621.743,416.14 
			619.696,415.064 617.647,416.14 618.039,413.86 616.382,412.245 618.672,411.913 		"/>
		<polygon style="fill:#F1F1F1;" points="664.292,425.517 665.315,427.591 667.605,427.923 665.948,429.539 666.34,431.819 
			664.292,430.743 662.244,431.819 662.635,429.539 660.978,427.923 663.268,427.591 		"/>
		<polygon style="fill:#F1F1F1;" points="754.181,524.464 755.204,526.539 757.494,526.872 755.837,528.487 756.228,530.767 
			754.181,529.69 752.133,530.767 752.523,528.487 750.866,526.872 753.156,526.539 		"/>
		<polygon style="fill:#F1F1F1;" points="793.373,565.704 794.396,567.779 796.686,568.111 795.028,569.727 795.421,572.007 
			793.373,570.931 791.325,572.007 791.716,569.727 790.059,568.111 792.349,567.779 		"/>
		<polygon style="fill:#F1F1F1;" points="757.494,640.101 758.519,642.176 760.809,642.508 759.15,644.124 759.541,646.403 
			757.494,645.327 755.446,646.403 755.838,644.124 754.181,642.508 756.471,642.176 		"/>
		<polygon style="fill:#F1F1F1;" points="783.732,705.256 784.757,707.331 787.046,707.663 785.389,709.278 785.78,711.559 
			783.732,710.482 781.685,711.559 782.076,709.278 780.419,707.663 782.708,707.331 		"/>
		<polygon style="fill:#F1F1F1;" points="703.329,731.595 704.352,733.67 706.642,734.003 704.985,735.618 705.377,737.898 
			703.329,736.822 701.281,737.898 701.672,735.618 700.015,734.003 702.305,733.67 		"/>
		<polygon style="fill:#F1F1F1;" points="672.831,711.56 673.854,713.634 676.144,713.966 674.487,715.582 674.879,717.861 
			672.831,716.786 670.783,717.861 671.174,715.582 669.517,713.966 671.807,713.634 		"/>
		<polygon style="fill:#F1F1F1;" points="481.524,737.898 482.548,739.974 484.838,740.306 483.181,741.921 483.573,744.2 
			481.524,743.125 479.477,744.2 479.868,741.921 478.211,740.306 480.501,739.974 		"/>
		<polygon style="fill:#F1F1F1;" points="420.145,766.896 421.169,768.972 423.46,769.304 421.802,770.919 422.193,773.199 
			420.145,772.123 418.097,773.199 418.489,770.919 416.832,769.304 419.122,768.972 		"/>
		<polygon style="fill:#F1F1F1;" points="513.487,793.697 514.513,795.773 516.802,796.106 515.144,797.721 515.536,800 
			513.487,798.925 511.44,800 511.831,797.721 510.175,796.106 512.464,795.773 		"/>
		<polygon style="fill:#F1F1F1;" points="696.702,782.146 697.725,784.221 700.015,784.553 698.357,786.168 698.75,788.448 
			696.702,787.372 694.653,788.448 695.045,786.168 693.388,784.553 695.678,784.221 		"/>
		<polygon style="fill:#F1F1F1;" points="767.943,773.2 768.967,775.274 771.257,775.606 769.6,777.223 769.991,779.502 
			767.943,778.426 765.896,779.502 766.286,777.223 764.629,775.606 766.919,775.274 		"/>
		<polygon style="fill:#F1F1F1;" points="443.634,624.852 444.657,626.927 446.946,627.259 445.29,628.875 445.681,631.154 
			443.634,630.078 441.585,631.154 441.977,628.875 440.319,627.259 442.608,626.927 		"/>
		<polygon style="fill:#F1F1F1;" points="416.832,551.842 417.855,553.917 420.145,554.249 418.488,555.864 418.88,558.144 
			416.832,557.067 414.784,558.144 415.175,555.864 413.519,554.249 415.808,553.917 		"/>
		<polygon style="fill:#F1F1F1;" points="510.175,542.6 511.198,544.675 513.487,545.007 511.831,546.622 512.222,548.901 
			510.175,547.826 508.127,548.901 508.518,546.622 506.86,545.007 509.15,544.675 		"/>
		<polygon style="fill:#F1F1F1;" points="796.686,423.759 797.71,425.834 800,426.166 798.343,427.782 798.733,430.061 
			796.686,428.985 794.638,430.061 795.029,427.782 793.373,426.166 795.662,425.834 		"/>
	</g>
</g>
<g id="Objects">
	<path style="fill:#F1F1F1;" d="M702.266,422.35c-17.246,0-31.227-13.98-31.227-31.227c0-15.845,11.803-28.923,27.095-30.946
		c-1.557-0.184-3.14-0.281-4.745-0.281c-22.148,0-40.104,17.956-40.104,40.105c0,22.148,17.956,40.105,40.104,40.105
		c22.149,0,40.104-17.957,40.104-40.105c0-1.605-0.098-3.188-0.28-4.744C731.188,410.547,718.11,422.35,702.266,422.35z"/>
	<g>
		<path style="fill:#FAAF3B;" d="M170.133,400c0-1.332-5.223-2.546-13.794-3.46c8.284-2.389,13.216-4.49,12.984-5.8
			c-0.232-1.312-5.586-1.599-14.186-1.013c7.742-3.791,12.235-6.716,11.78-7.966c-0.455-1.251-5.779-0.606-14.146,1.466
			c6.965-5.078,10.883-8.74,10.218-9.892c-0.668-1.153-5.796,0.408-13.679,3.901c5.98-6.211,9.2-10.497,8.347-11.515
			c-0.858-1.021-5.64,1.408-12.793,6.216c4.809-7.154,7.237-11.935,6.22-12.79c-1.021-0.855-5.308,2.365-11.52,8.345
			c3.494-7.882,5.056-13.012,3.906-13.677c-1.155-0.665-4.818,3.25-9.896,10.217c2.071-8.368,2.72-13.691,1.47-14.146
			c-1.253-0.455-4.179,4.038-7.972,11.781c0.588-8.602,0.301-13.956-1.007-14.188c-1.312-0.23-3.413,4.699-5.803,12.976
			c-0.914-8.566-2.126-13.786-3.457-13.786c-1.332,0-2.545,5.223-3.459,13.794c-2.39-8.283-4.491-13.216-5.803-12.984
			c-1.31,0.23-1.599,5.585-1.01,14.185c-3.79-7.741-6.718-12.234-7.967-11.779c-1.251,0.456-0.604,5.778,1.467,14.146
			c-5.08-6.967-8.74-10.884-9.893-10.218c-1.153,0.665,0.408,5.796,3.901,13.676c-6.21-5.979-10.497-9.2-11.517-8.345
			c-1.02,0.856,1.408,5.637,6.216,12.791c-7.154-4.809-11.935-7.236-12.79-6.217c-0.855,1.019,2.365,5.307,8.344,11.516
			c-7.882-3.493-13.011-5.054-13.676-3.901c-0.666,1.153,3.251,4.815,10.217,9.893c-8.369-2.072-13.691-2.718-14.146-1.467
			c-0.457,1.25,4.037,4.177,11.78,7.968c-8.601-0.588-13.956-0.3-14.188,1.011c-0.23,1.31,4.704,3.412,12.985,5.802
			c-8.572,0.914-13.795,2.127-13.795,3.458c0.002,1.332,5.224,2.544,13.795,3.459c-8.283,2.39-13.217,4.491-12.987,5.803
			c0.233,1.311,5.587,1.598,14.188,1.01c-7.742,3.792-12.235,6.719-11.782,7.97c0.457,1.251,5.781,0.605,14.148-1.468
			c-6.965,5.078-10.884,8.74-10.218,9.894c0.666,1.151,5.796-0.41,13.677-3.902c-5.978,6.211-9.2,10.496-8.345,11.518
			c0.855,1.017,5.638-1.41,12.791-6.219c-4.807,7.154-7.236,11.935-6.217,12.791c1.02,0.855,5.307-2.367,11.517-8.346
			c-3.494,7.883-5.055,13.012-3.903,13.678c1.155,0.665,4.815-3.251,9.893-10.217c-2.071,8.367-2.717,13.691-1.467,14.146
			c1.251,0.455,4.179-4.039,7.969-11.779c-0.586,8.6-0.298,13.953,1.012,14.185c1.311,0.23,3.413-4.704,5.803-12.993
			c0.915,8.578,2.128,13.805,3.46,13.805c1.331,0,2.543-5.224,3.458-13.795c2.389,8.281,4.492,13.215,5.801,12.983
			c1.312-0.231,1.6-5.585,1.012-14.186c3.792,7.744,6.718,12.236,7.97,11.781c1.249-0.455,0.604-5.779-1.469-14.146
			c5.078,6.967,8.74,10.882,9.893,10.217c1.153-0.666-0.408-5.795-3.901-13.676c6.21,5.979,10.497,9.198,11.515,8.344
			c1.021-0.855-1.407-5.637-6.217-12.791c7.154,4.809,11.936,7.236,12.79,6.217c0.855-1.02-2.367-5.307-8.345-11.518
			c7.882,3.494,13.012,5.056,13.677,3.904c0.666-1.154-3.251-4.816-10.216-9.894c8.367,2.072,13.691,2.719,14.145,1.468
			c0.455-1.251-4.038-4.178-11.779-7.969c8.601,0.589,13.955,0.3,14.185-1.01c0.232-1.313-4.7-3.414-12.984-5.803
			C164.911,402.543,170.133,401.33,170.133,400z"/>
		<path style="fill:#FBED21;" d="M153.12,400c0,20.056-16.259,36.315-36.313,36.315c-20.058,0-36.317-16.259-36.317-36.315
			c0-20.057,16.26-36.316,36.317-36.316C136.861,363.685,153.12,379.944,153.12,400z"/>
	</g>
	<g>
		<g>
			<path style="fill:#E5E5E5;" d="M238.553,509.752c0,0-0.376-0.575-1.104-1.69c-0.717-1.121-1.834-2.752-3.194-4.94
				c-2.692-4.391-6.553-10.903-10.68-19.596c-4.111-8.69-8.463-19.58-11.998-32.512c-1.714-6.478-3.237-13.449-4.427-20.873
				c-1.113-7.434-1.898-15.308-2.202-23.551c-0.041-2.061-0.082-4.145-0.124-6.248c0.021-2.108,0.096-4.228,0.142-6.373
				c0.004-4.291,0.482-8.645,0.78-13.082c0.188-2.215,0.535-4.433,0.797-6.677c0.142-1.121,0.284-2.247,0.427-3.377
				c0.134-1.131,0.382-2.25,0.568-3.382c0.402-2.26,0.807-4.538,1.215-6.832c0.521-2.271,1.046-4.559,1.574-6.862
				c4.38-18.387,11.892-37.097,22.478-54.806c5.364-8.81,11.478-17.362,18.319-25.479c1.754-1.991,3.438-4.057,5.265-6.003
				c1.84-1.933,3.687-3.872,5.537-5.815c1.939-1.856,3.882-3.716,5.83-5.581c0.957-0.951,1.987-1.824,3.009-2.708l3.065-2.659
				c16.505-14.008,35.57-25.623,56.147-33.476c10.266-3.965,20.86-7.072,31.599-9.295c10.751-2.174,21.643-3.362,32.468-3.753
				c21.654-0.863,43.086,2.174,62.852,8.044c19.828,5.822,37.895,14.848,53.585,25.406c1.94,1.354,3.867,2.699,5.781,4.034
				c1.854,1.417,3.693,2.825,5.521,4.221l1.364,1.048l1.315,1.1c0.875,0.731,1.747,1.46,2.615,2.187
				c0.868,0.727,1.732,1.45,2.594,2.17c0.829,0.757,1.655,1.511,2.477,2.261c1.625,1.521,3.315,2.947,4.849,4.51
				c1.55,1.545,3.087,3.076,4.608,4.592c1.499,1.539,2.908,3.137,4.345,4.679c0.711,0.778,1.419,1.552,2.122,2.322
				c0.673,0.798,1.342,1.592,2.007,2.382c5.419,6.242,10.042,12.69,14.256,18.927c2.014,3.181,4.063,6.228,5.789,9.352
				c0.891,1.545,1.768,3.068,2.632,4.569c0.801,1.535,1.589,3.048,2.364,4.536c6.16,11.938,10.274,22.954,13.075,32.172
				c0.357,1.151,0.705,2.271,1.043,3.36c0.289,1.103,0.57,2.174,0.842,3.212c0.534,2.079,1.073,4.019,1.506,5.84
				c0.761,3.667,1.493,6.769,1.938,9.313c0.845,5.096,1.296,7.814,1.296,7.814l-0.99,0.141c0,0-0.444-2.705-1.278-7.776
				c-0.438-2.532-1.163-5.62-1.914-9.27c-0.429-1.813-0.962-3.744-1.49-5.813c-0.269-1.034-0.547-2.1-0.833-3.197
				c-0.335-1.084-0.68-2.199-1.034-3.345c-2.774-9.176-6.853-20.145-12.966-32.036c-0.77-1.483-1.553-2.989-2.347-4.519
				c-0.858-1.495-1.731-3.012-2.614-4.551c-1.713-3.113-3.75-6.148-5.75-9.318c-4.186-6.214-8.779-12.642-14.167-18.864
				c-0.661-0.787-1.326-1.579-1.994-2.375c-0.699-0.768-1.403-1.54-2.109-2.315c-1.429-1.537-2.83-3.13-4.32-4.665
				c-1.514-1.513-3.041-3.04-4.583-4.58c-1.524-1.558-3.206-2.981-4.822-4.498c-0.818-0.749-1.64-1.501-2.464-2.256
				c-0.857-0.718-1.717-1.44-2.58-2.164c-0.864-0.725-1.731-1.452-2.602-2.182l-1.309-1.097l-1.357-1.046
				c-1.817-1.394-3.648-2.798-5.493-4.212c-1.903-1.333-3.821-2.675-5.753-4.026c-15.613-10.539-33.6-19.558-53.35-25.387
				c-19.707-5.878-41.016-8.935-62.637-8.107c-10.793,0.375-21.655,1.544-32.379,3.696c-10.711,2.202-21.282,5.285-31.526,9.225
				c-20.536,7.803-39.573,19.364-56.064,33.32l-3.063,2.649c-1.021,0.881-2.05,1.751-3.006,2.698
				c-1.947,1.858-3.889,3.712-5.826,5.561c-1.85,1.937-3.695,3.87-5.535,5.797c-1.827,1.939-3.509,3.999-5.263,5.984
				c-6.84,8.092-12.956,16.621-18.323,25.409c-10.593,17.665-18.122,36.338-22.523,54.697c-0.531,2.299-1.059,4.583-1.582,6.852
				c-0.411,2.291-0.818,4.565-1.223,6.823c-0.188,1.131-0.437,2.248-0.572,3.378c-0.144,1.129-0.288,2.253-0.431,3.373
				c-0.266,2.241-0.616,4.457-0.806,6.669c-0.303,4.43-0.787,8.774-0.798,13.067c-0.049,2.143-0.126,4.27-0.15,6.368
				c0.039,2.102,0.077,4.183,0.115,6.244c0.291,8.236,1.065,16.106,2.167,23.537c1.179,7.421,2.691,14.391,4.395,20.868
				c3.515,12.93,7.85,23.822,11.948,32.517c4.113,8.696,7.965,15.214,10.651,19.607c1.357,2.19,2.471,3.822,3.187,4.944
				C238.178,509.177,238.553,509.752,238.553,509.752z"/>
		</g>
		<g>
			<path style="fill:#B6DB86;" d="M400,239.466c-88.825,0-160.833,71.942-160.833,160.688c0,88.745,72.008,160.688,160.833,160.688
				c0.195,0,0.389-0.007,0.584-0.008V239.473C400.389,239.473,400.195,239.466,400,239.466z"/>
			<path style="fill:#31A769;" d="M560.833,400.154c0-88.551-71.693-160.365-160.249-160.682v321.361
				C489.14,560.519,560.833,488.704,560.833,400.154z"/>
			<path style="fill:#3D97D1;" d="M550.3,341.877l-8.393,0.141l-4.211-4.617l-0.807-7.424l-4.307,2.352l-2.316,9.076l-6.219-6.621
				l-0.254-6.258l-6.008-5.172l-2.221-2.203h-6.973l2.208,6.209l8.386,4.676l1.457,1.545l-1.813,0.908l0.068,4.918l-4.078,1.705
				l-3.494-0.766l-2.174-3.09l5.668,0.305l1.529-2.063l-12.568-8.479l-0.957-3.611l-5.105,4.617l-5.182-1.064l-7.881,10.243
				l-1.545,4.011l-5.037,0.459l-7.455,0.047l-4.457-2.084l-1.313-8.853l1.6-4.222l7.586-1.661l8.277,1.661l1.006-4.579l-3.514-0.83
				l1.203-7.129l8.324-1.303l5.822-8.225l6.016-1.009l5.428,0.804h1.994l-1.094-7.725l-6.602,2.664l-2.316-5.772l-3.828-0.534
				l-0.717-3.957l3.129-3.4l7.424-2.911l1.914-3.414c-28.295-24.927-65.361-40.125-105.919-40.215v28.996l3.068,1.359v5.752
				l4.825,1.202l-2.412,4.549h-5.481v20.974l3.328,2.028l-0.26,5.629l-3.068,1.045v3.916l4.675,2.131l-0.137,3.875l-2.058,0.174
				c-0.007-0.064-0.014-0.105-0.014-0.105l-2.467-0.76v107.919l4.012,1.527l14.175,0.137l4.155,6.811l6.282,2.013l-1.211,5.625
				l-6.889,8.756l-2.01,19.369l-6.213,4.918l-9.233-0.276l-3.068,5.33v0.048l2.276,10.01l-2.276,2.911v66.089
				c50.177-0.112,95.02-23.311,124.487-59.5h-5.311v-10.702l-6.137-8.274V469.63l-4.695-4.672l-0.404-5.355l5.955-11.373
				l-11.299-19.934l1.34-13.52l-10.17-1.059l-3.74-3.746h-6.828l-3.471,3.209h-12.043l-0.404,1.069h-6.69l-15.379-17.518
				l0.123-13.648l2.541-0.934l0.943-5.221h-3.607l-1.477-5.482l17.799-12.839v-9.097l8.705-4.837l3.521,0.353h7.171l5.604-3.01
				l18.064-1.408v9.232l14.252,3.613l2.809,2.006h2.609v-5.023l8.223-0.8l7.834,5.823h12.836l0.9-0.824
				C553.374,350.305,551.919,346.053,550.3,341.877z M474.282,296.06l1.477-2.269l5.283-1.07l1.334,6.425l2.814,4.546l1.867,2.146
				l3.41,1.329l-3.205,3.82l-6.221,0.599h-4.682l0.527-5.55l3.889-0.807l-0.328-2.607l-3.623-2.276l-2.543-1.735V296.06z
				 M465.589,306.1l3.219-5.15l4.334-1.004l3.09,1.34l-0.281,3.475l-6.615,4.683h-3.746V306.1z"/>
			<polygon style="fill:#1B595C;" points="400.576,481.932 400.584,481.966 400.584,481.918 			"/>
			<path style="fill:#75D0F7;" d="M392.819,504.818l-3.206,5.888l-9.568,4.6l-6.295,0.954l-0.26,2.67l4.415,1.268l-0.533,2.874
				l-3.957,3.81l2.406,3.021l4.757,0.134l-0.267,3.677l-1.265,3.611l-0.409,2.939l7.038,5.93l-0.936,3.079l-9.575-0.182
				l-9.535-8.321l-7.43-13.051l1.04-12.6l-5.619-7.495l2.276-12.702l-3.343-0.94v-27.555c0,0-9.363-7.099-9.896-7.099
				s-4.948-1.199-4.948-1.199l-0.942-5.216l-12.166-15.251l1.203-5.484l0.396-8.965l8.42-5.885l-1.202-10.036l-12.303-0.926
				l-9.63-10.978l-6.821-1.866l-4.408-0.809l0.525-4.012l-5.617-0.801v2.272l-14.046-3.476l-5.652-8.65l2.304-4.191l-8.9-12.98
				l-1.53-9.496h-3.608l1.202,9.227l6.151,9.497l-0.67,3.753l-5.215-0.804l-6.417-10.942v-12.734l-6.686-3.215V337
				c-8.27,19.359-12.855,40.653-12.855,63c0,88.764,72.217,160.981,160.98,160.981c0.121,0,0.241-0.005,0.362-0.005v-66.089
				L392.819,504.818z"/>
			<path style="fill:#75D0F7;" d="M394.103,317.791l-0.375-2.867h-0.014l2.61-1.798v-2.614l-2.81-0.704l-0.696,2.413l-4.928,0.762
				l-0.492-0.164v0.246l-1.709,0.26l-1.395-2.813l-1.613-0.704h-3.513l-1.599,1.306v2.908l3.007,1.002l2.966,0.416l-0.663,0.291
				l-2.706,3l-1.196-1.5l-2.611-0.69l-7.128,6.708l0.93,0.766l-10.526,5.826l-9.903,10.301l-0.67,4.586l-9.931,6.52l-4.914,4.949
				l0.54,9.896l-6.828-3.178l0.055-5.789l-18.987,0.008l-9.828,4.978l-4.279,7.87l-1.688,6.243l2.769,6.053l7.744,0.943l12.31-8.232
				l1.079,4.08l-3.758,7.098l9.377,1.6l0.93,14.473l12.849,2.18l8.154-9.432l9.903,2.014l3.479,4.838l9.494-0.561l0.266-2.809
				l5.216,2.543l5.892,9.224l10.157,0.141l3.752,6.558l0.533,8.021l7.232,2.754V319.789L394.103,317.791z M378.131,325.897
				l-3.349,0.281l0.178-2.328l1.504-1.869l2.009,1.579L378.131,325.897z M389.888,321.782l-2.291,0.198l-0.465,2.215l-1.763,1.097
				l-2.823,0.235c-0.095-0.662-0.164-1.168-0.164-1.168h-1.094v-2.379h4.608l0.956-2.457l1.831-0.037l2.099,0.434L389.888,321.782z"
				/>
			<path style="fill:#75D0F7;" d="M400.222,239.02c-35.322,0-68,11.466-94.58,30.828l8.118-0.064l3.616,2.002l6.814,1.471
				l0.533,2.678l10.84,0.4l-1.47-3.475l-9.63-0.27l2.27-2.137l-0.793-2.547h-8.708l9.501-7.09h9.098l4.278,5.891l7.101,0.4
				l4.272-4.152l3.219,1.606l-5.892,5.755c0,0-8.161,0.137-7.758,0.137c0.403,0,0.677,5.615,0.677,5.615l9.883-0.273l1.081-2.67
				l6.814-0.402l0.807-4.01l-4.013-0.676l1.34-3.609l3.075-0.932l10.704,0.529l-5.906,5.355l0.957,4.142l6.152,0.939l-0.404-7.49
				l5.885-3.079l10.443-1.203l12.037,5.332v-28.996C400.463,239.023,400.343,239.02,400.222,239.02z"/>
			<polygon style="fill:#75D0F7;" points="399.244,280.883 397.227,286.098 381.63,282.418 393.885,275.891 389.21,271.919 
				378.638,273.256 377.715,274.213 377.681,274.195 377.509,274.424 374.468,277.585 369.443,278.009 369.848,280.518 
				371.597,281.242 371.528,282.069 367.441,282.653 367.141,285.027 363.225,285.233 362.52,280.518 355.494,282.653 
				341.148,291.053 342.761,296.965 346.773,299.579 354.797,300.686 354.797,309.808 358.501,309.209 361.919,302.085 
				370.449,299.381 370.449,288.442 375.192,284.861 386.668,287.567 385.861,294.795 388.944,294.795 397.371,290.65 
				397.774,300.144 400.584,301.856 400.584,280.883 			"/>
			<polygon style="fill:#75D0F7;" points="397.774,311.516 398.171,313.375 400.584,314.475 400.584,310.559 			"/>
		</g>
		<path style="fill:#FAAF3B;" d="M325.347,165.463c0,0-2.404,2.273-6.612,6.25c-2.081,1.987-4.595,4.404-7.41,7.213
			c-1.419,1.399-2.869,2.921-4.433,4.509c-1.498,1.626-3.147,3.292-4.737,5.114c-3.276,3.585-6.596,7.622-9.889,12.038
			c-3.303,4.41-6.449,9.278-9.228,14.555c-2.785,5.271-5.192,10.96-6.99,16.96c-1.766,6.008-2.842,12.324-3.274,18.717l-0.14,2.401
			l-0.07,1.202c-0.01,0.401,0.004,0.802,0.005,1.204c0.014,1.608,0.028,3.214,0.042,4.817c0.08,1.603,0.229,3.202,0.338,4.801
			c0.071,0.797,0.092,1.6,0.203,2.392l0.331,2.374c0.744,6.348,2.323,12.488,3.93,18.406c0.474,1.461,0.943,2.91,1.409,4.345
			c0.487,1.429,0.875,2.88,1.441,4.251c0.53,1.385,1.055,2.755,1.573,4.109c0.526,1.352,1.003,2.706,1.602,3.99
			c1.154,2.584,2.221,5.129,3.356,7.545c1.186,2.394,2.333,4.707,3.434,6.927c1.116,2.215,2.319,4.268,3.392,6.261
			c1.087,1.986,2.111,3.876,3.182,5.588c1.043,1.73,2.018,3.35,2.921,4.848c0.452,0.749,0.885,1.468,1.298,2.155
			c0.438,0.672,0.855,1.313,1.251,1.921c3.179,4.864,4.996,7.644,4.996,7.644s-1.984-2.665-5.457-7.33
			c-0.434-0.585-0.891-1.2-1.37-1.845c-0.456-0.662-0.934-1.354-1.431-2.076c-0.996-1.445-2.073-3.008-3.224-4.678
			c-1.18-1.653-2.322-3.484-3.536-5.412c-1.2-1.935-2.537-3.928-3.797-6.089c-1.248-2.171-2.547-4.434-3.892-6.775
			c-1.296-2.37-2.535-4.878-3.865-7.431c-0.687-1.266-1.257-2.611-1.875-3.953c-0.612-1.347-1.232-2.71-1.859-4.089
			c-0.663-1.365-1.151-2.821-1.74-4.253c-0.566-1.443-1.139-2.899-1.716-4.368c-2.027-5.978-4.048-12.234-5.239-18.831l-0.497-2.468
			c-0.167-0.824-0.243-1.666-0.37-2.501c-0.22-1.675-0.478-3.354-0.665-5.046c-0.12-1.701-0.24-3.406-0.359-5.112
			c-0.027-0.427-0.066-0.854-0.082-1.282l-0.005-1.287l-0.009-2.577c0.041-6.871,0.785-13.784,2.306-20.437
			c1.55-6.643,3.795-13.009,6.47-18.921c2.669-5.919,5.755-11.392,8.998-16.329c3.233-4.944,6.515-9.46,9.723-13.437
			c1.567-2.031,3.168-3.864,4.641-5.669c1.519-1.745,2.941-3.432,4.314-4.962c2.734-3.083,5.152-5.71,7.148-7.864
			c3.989-4.261,6.267-6.696,6.267-6.696L325.347,165.463z"/>
		<g>
			<path style="fill:#F1F1F1;" d="M521.913,226.884c0,0,2.635-2.024,7.574-5.819c4.974-3.749,12.248-9.287,21.835-15.884
				c4.789-3.304,10.143-6.893,16.093-10.62c5.949-3.726,12.491-7.602,19.746-11.296c3.636-1.828,7.452-3.61,11.511-5.181
				c4.057-1.561,8.37-2.942,13.07-3.496c2.343-0.246,4.842-0.264,7.333,0.513c1.22,0.441,2.477,0.982,3.498,1.914l0.394,0.331
				c-0.003-0.013,0.229,0.203,0.254,0.243l0.144,0.168l0.579,0.672c0.195,0.248,0.398,0.596,0.59,0.896
				c0.202,0.313,0.386,0.628,0.5,0.936c1.129,2.487,1.333,5.168,1.192,7.718c-0.151,2.567-0.655,5.073-1.297,7.544
				c-2.682,9.867-7.404,19.28-12.603,28.742c-5.255,9.447-11.218,18.88-17.612,28.385c-12.828,18.983-27.379,38.267-43.115,57.636
				c-15.735,19.372-32.522,38.952-50.107,58.366c-17.582,19.416-35.867,38.751-54.53,57.713
				c-18.696,18.922-37.773,37.484-56.912,55.36c-19.123,17.897-38.417,35.005-57.44,51.147
				c-19.023,16.145-37.907,31.18-56.334,44.756c-18.441,13.543-36.389,25.734-53.999,35.326c-4.408,2.383-8.804,4.587-13.212,6.525
				c-4.409,1.931-8.822,3.641-13.333,4.762c-2.255,0.55-4.519,1.013-6.827,1.149c-2.296,0.142-4.65,0.03-6.899-0.727
				c-0.548-0.227-1.105-0.441-1.626-0.728c-0.503-0.327-1.042-0.594-1.474-1.018l-0.339-0.294l-0.169-0.148
				c-0.078-0.074-0.064-0.044-0.216-0.203l-0.51-0.604c-0.169-0.18-0.34-0.429-0.507-0.702c-0.164-0.262-0.338-0.525-0.484-0.787
				c-1.053-2.085-1.354-4.324-1.356-6.43c0.036-4.24,1.088-8.129,2.256-11.764c1.187-3.641,2.62-7.025,4.085-10.228
				c2.962-6.391,6.102-12.034,9.039-17.061c5.907-10.04,11.108-17.565,14.628-22.703c1.79-2.549,3.163-4.503,4.088-5.82
				c0.934-1.311,1.415-1.987,1.415-1.987s-0.462,0.69-1.358,2.026c-0.887,1.343-2.203,3.334-3.919,5.933
				c-3.389,5.222-8.307,12.925-14.01,23.035c-2.818,5.07-5.824,10.755-8.622,17.143c-1.382,3.197-2.725,6.57-3.808,10.148
				c-1.068,3.566-1.988,7.378-1.932,11.259c0.038,1.923,0.375,3.863,1.249,5.506l0.349,0.543l0.17,0.272
				c0.066,0.094,0.168,0.195,0.25,0.293l0.523,0.594c-0.058-0.068,0.061,0.043,0.083,0.057l0.133,0.109l0.266,0.22
				c0.33,0.325,0.77,0.515,1.161,0.768c0.416,0.218,0.872,0.377,1.315,0.556c1.855,0.583,3.944,0.66,6.046,0.483
				c2.11-0.168,4.251-0.65,6.39-1.221c4.282-1.178,8.575-2.873,12.87-4.827c4.297-1.957,8.603-4.186,12.929-6.597
				c17.288-9.707,34.992-22.064,53.171-35.782c18.169-13.753,36.761-29.012,55.658-45.183
				c18.884-16.191,37.927-33.471,56.998-51.322c19.056-17.875,38.03-36.43,56.654-55.345c18.658-18.875,36.939-38.121,54.516-57.445
				c17.551-19.345,34.498-38.682,50.277-57.902c15.755-19.234,30.539-38.205,43.52-56.908c6.474-9.358,12.509-18.644,17.82-27.909
				c5.254-9.264,10.015-18.52,12.685-27.893c0.641-2.337,1.138-4.686,1.302-6.991c0.164-2.294-0.033-4.57-0.864-6.454
				c-0.087-0.256-0.208-0.452-0.327-0.641c-0.128-0.199-0.197-0.386-0.362-0.605l-0.57-0.68l-0.143-0.169
				c-0.063-0.082,0.038,0.058-0.072-0.055l-0.283-0.238c-0.712-0.688-1.657-1.096-2.603-1.464c-1.963-0.638-4.173-0.724-6.331-0.53
				c-4.343,0.417-8.568,1.648-12.556,3.094c-3.997,1.451-7.799,3.128-11.433,4.86c-7.254,3.503-13.845,7.222-19.847,10.808
				c-6.004,3.587-11.419,7.054-16.268,10.251c-9.688,6.41-17.153,11.674-22.217,15.298
				C524.604,224.935,521.913,226.884,521.913,226.884z"/>
		</g>
		<g>
			<path style="fill:#F1F1F1;" d="M576.174,524.617c0,0,0.529,0.693,1.555,2.036c1.021,1.347,2.534,3.346,4.508,5.954
				c3.909,5.244,9.653,12.938,16.471,23.082c3.408,5.071,7.089,10.753,10.868,17.086c3.769,6.336,7.67,13.317,11.13,21.158
				c1.705,3.93,3.284,8.089,4.381,12.577c0.513,2.252,0.922,4.588,0.955,7.036c0.022,2.424-0.348,5.067-1.798,7.406
				c-0.154,0.304-0.381,0.564-0.602,0.829l-0.331,0.398l-0.167,0.198c-0.04,0.058-0.247,0.254-0.24,0.238
				c-0.461,0.393-0.848,0.789-1.539,1.188c-1.249,0.816-2.509,1.189-3.832,1.485c-2.634,0.5-5.268,0.348-7.83-0.035
				c-5.136-0.801-10.079-2.536-14.977-4.539c-9.786-4.063-19.384-9.417-29.072-15.285c-9.674-5.9-19.402-12.412-29.216-19.356
				c-19.613-13.91-39.61-29.5-59.715-46.304c-20.108-16.802-40.452-34.674-60.608-53.389
				c-20.165-18.703-40.242-38.146-59.902-57.988c-19.639-19.88-38.841-40.179-57.294-60.579
				c-18.468-20.385-36.054-40.986-52.499-61.393c-16.428-20.419-31.623-40.745-44.769-60.914
				c-6.547-10.097-12.615-20.144-17.686-30.335c-2.521-5.1-4.811-10.231-6.571-15.497c-0.867-2.637-1.614-5.303-2.09-8.035
				c-0.464-2.726-0.686-5.543-0.188-8.388c0.044-0.355,0.134-0.708,0.24-1.06c0.104-0.351,0.187-0.705,0.312-1.051
				c0.294-0.685,0.552-1.378,0.986-2.006c0.198-0.321,0.385-0.646,0.649-0.923l0.37-0.431l0.186-0.214
				c-0.023,0.012,0.241-0.262,0.282-0.284l0.747-0.61l0.378-0.304l0.514-0.3l1.04-0.575c0.344-0.151,0.68-0.25,1.021-0.375
				c0.676-0.274,1.364-0.389,2.05-0.518c1.368-0.238,2.725-0.285,4.042-0.218c2.635,0.142,5.169,0.593,7.581,1.253
				c1.219,0.298,2.39,0.697,3.568,1.054c1.152,0.419,2.314,0.798,3.436,1.244c9.008,3.513,16.978,7.933,24.339,12.233
				c14.661,8.728,26.772,17.333,36.65,24.517c9.865,7.208,17.397,13.158,22.53,17.212c5.108,4.086,7.832,6.265,7.832,6.265
				s-2.782-2.104-7.998-6.05c-5.227-3.93-12.956-9.611-22.931-16.636c-10.003-6.972-22.271-15.317-37.015-23.696
				c-7.391-4.122-15.4-8.345-24.249-11.589c-1.102-0.413-2.231-0.754-3.356-1.139c-1.14-0.313-2.275-0.696-3.436-0.96
				c-2.31-0.605-4.686-0.985-7.048-1.085c-1.18-0.047-2.358,0.014-3.478,0.224c-0.559,0.113-1.126,0.208-1.63,0.432
				c-0.255,0.098-0.534,0.179-0.771,0.287c-0.21,0.126-0.421,0.244-0.636,0.357l-0.327,0.167l-0.368,0.303l-0.739,0.619
				c-0.092,0.071,0.087-0.061-0.046,0.068l-0.127,0.154l-0.257,0.306c-0.189,0.189-0.315,0.432-0.453,0.665
				c-0.311,0.441-0.489,0.978-0.71,1.487c-0.093,0.266-0.15,0.551-0.229,0.825c-0.082,0.274-0.152,0.553-0.182,0.851
				c-0.382,2.325-0.182,4.862,0.285,7.378c0.472,2.525,1.211,5.057,2.075,7.578c1.754,5.043,4.052,10.04,6.592,15.018
				c5.105,9.955,11.239,19.838,17.858,29.774c6.637,9.932,13.819,19.901,21.396,29.915c7.586,10.009,15.499,20.116,23.749,30.235
				c16.484,20.253,34.237,40.597,52.655,60.922c18.441,20.305,37.649,40.513,57.265,60.303
				c19.579,19.843,39.562,39.274,59.637,57.973c20.089,18.68,40.189,36.711,60.148,53.559
				c19.974,16.823,39.661,32.648,59.007,46.717c9.677,7.024,19.266,13.614,28.783,19.58c9.526,5.934,18.967,11.345,28.474,15.426
				c4.747,2.014,9.534,3.742,14.3,4.541c2.371,0.389,4.751,0.53,6.938,0.141c0.541-0.106,1.066-0.253,1.574-0.417
				c0.482-0.206,1.009-0.386,1.376-0.643c0.388-0.164,0.875-0.606,1.331-0.985c0.128-0.106,0.026-0.016,0.077-0.078l0.122-0.145
				l0.248-0.288c0.167-0.191,0.345-0.373,0.46-0.607c1.12-1.716,1.538-3.916,1.553-6.103c0.017-2.201-0.318-4.412-0.766-6.568
				c-0.962-4.313-2.421-8.422-4.021-12.32c-3.252-7.789-6.988-14.812-10.612-21.19c-3.635-6.378-7.191-12.118-10.491-17.246
				c-6.627-10.239-12.096-18.121-15.879-23.455c-1.902-2.659-3.362-4.697-4.345-6.071
				C576.685,525.324,576.174,524.617,576.174,524.617z"/>
		</g>
		<g>
			<path style="fill:#B2B2B2;" d="M253.305,605.348c-0.875,1.256-2.603,1.566-3.858,0.69l-11.316-7.884
				c-1.256-0.874-1.565-2.602-0.69-3.858l12.774-18.336c0.875-1.256,2.603-1.565,3.858-0.69l11.316,7.883
				c1.256,0.874,1.565,2.603,0.69,3.858L253.305,605.348z"/>
			<g>
				
					<rect x="264.084" y="591.138" transform="matrix(0.5716 -0.8205 0.8205 0.5716 -373.7579 475.8)" style="fill:#29AAE1;" width="9.411" height="9.411"/>
				
					<rect x="272.789" y="597.202" transform="matrix(0.5716 -0.8205 0.8205 0.5716 -375.0046 485.5409)" style="fill:#29AAE1;" width="9.411" height="9.411"/>
				
					<rect x="281.493" y="603.267" transform="matrix(0.5716 -0.8205 0.8205 0.5716 -376.2528 495.2863)" style="fill:#29AAE1;" width="9.411" height="9.412"/>
				
					<rect x="258.264" y="599.492" transform="matrix(0.5716 -0.8205 0.8205 0.5716 -383.1024 474.588)" style="fill:#29AAE1;" width="9.412" height="9.412"/>
				
					<rect x="266.969" y="605.557" transform="matrix(0.5716 -0.8205 0.8205 0.5716 -384.3537 484.3476)" style="fill:#29AAE1;" width="9.411" height="9.411"/>
				
					<rect x="275.672" y="611.62" transform="matrix(0.5716 -0.8205 0.8205 0.5716 -385.6 494.0873)" style="fill:#29AAE1;" width="9.412" height="9.412"/>
			</g>
			<g>
				
					<rect x="218.596" y="559.449" transform="matrix(0.5717 -0.8205 0.8205 0.5717 -367.2275 424.8353)" style="fill:#29AAE1;" width="9.411" height="9.412"/>
				
					<rect x="227.3" y="565.513" transform="matrix(0.5716 -0.8205 0.8205 0.5716 -368.4894 434.6406)" style="fill:#29AAE1;" width="9.411" height="9.411"/>
				
					<rect x="236.005" y="571.577" transform="matrix(0.5716 -0.8205 0.8205 0.5716 -369.7363 444.3813)" style="fill:#29AAE1;" width="9.411" height="9.411"/>
				
					<rect x="212.776" y="567.803" transform="matrix(0.5716 -0.8205 0.8205 0.5716 -376.5857 423.6861)" style="fill:#29AAE1;" width="9.412" height="9.411"/>
				
					<rect x="221.48" y="573.867" transform="matrix(0.5716 -0.8205 0.8205 0.5716 -377.8329 433.426)" style="fill:#29AAE1;" width="9.412" height="9.412"/>
				
					<rect x="230.185" y="579.931" transform="matrix(0.5717 -0.8205 0.8205 0.5717 -379.0722 443.1311)" style="fill:#29AAE1;" width="9.411" height="9.412"/>
			</g>
			<path style="fill:#B2B2B2;" d="M256.344,565.382c-3.255,4.833-2.047,11.398,2.752,14.741c4.799,3.343,11.376,2.202,14.782-2.525
				L256.344,565.382z"/>
		</g>
		<g>
			<path style="fill:#B2B2B2;" d="M622.783,564.616c1.044,0.223,1.711,1.249,1.487,2.293l-2.011,9.405
				c-0.223,1.044-1.25,1.71-2.295,1.486l-15.239-3.258c-1.044-0.223-1.709-1.249-1.485-2.294l2.01-9.405
				c0.223-1.044,1.251-1.709,2.294-1.486L622.783,564.616z"/>
			<g>
				
					<rect x="609.209" y="553.947" transform="matrix(0.2091 -0.9779 0.9779 0.2091 -60.4767 1039.6847)" style="fill:#29AAE1;" width="6.562" height="6.563"/>
				
					<rect x="610.755" y="546.712" transform="matrix(0.2091 -0.9779 0.9779 0.2091 -52.1698 1035.4862)" style="fill:#29AAE1;" width="6.563" height="6.564"/>
				
					<rect x="612.302" y="539.478" transform="matrix(0.2091 -0.9779 0.9779 0.2091 -43.8789 1031.2672)" style="fill:#29AAE1;" width="6.563" height="6.563"/>
				
					<rect x="616.151" y="555.431" transform="matrix(0.209 -0.9779 0.9779 0.209 -56.4139 1047.6796)" style="fill:#29AAE1;" width="6.564" height="6.563"/>
				
					<rect x="617.699" y="548.196" transform="matrix(0.209 -0.9779 0.9779 0.209 -48.0816 1043.5159)" style="fill:#29AAE1;" width="6.562" height="6.564"/>
				
					<rect x="619.244" y="540.962" transform="matrix(0.2093 -0.9778 0.9778 0.2093 -39.9722 1039.053)" style="fill:#29AAE1;" width="6.565" height="6.564"/>
			</g>
			<g>
				
					<rect x="601.126" y="591.754" transform="matrix(0.2092 -0.9779 0.9779 0.2092 -103.9017 1061.5905)" style="fill:#29AAE1;" width="6.564" height="6.563"/>
				
					<rect x="602.672" y="584.52" transform="matrix(0.209 -0.9779 0.9779 0.209 -95.5047 1057.5313)" style="fill:#29AAE1;" width="6.564" height="6.562"/>
				
					<rect x="604.219" y="577.284" transform="matrix(0.2089 -0.9779 0.9779 0.2089 -87.144 1053.4116)" style="fill:#29AAE1;" width="6.564" height="6.563"/>
				
					<rect x="608.069" y="593.239" transform="matrix(0.209 -0.9779 0.9779 0.209 -99.7852 1069.6714)" style="fill:#29AAE1;" width="6.563" height="6.563"/>
				
					<rect x="609.616" y="586.004" transform="matrix(0.2091 -0.9779 0.9779 0.2091 -91.5023 1065.4388)" style="fill:#29AAE1;" width="6.563" height="6.563"/>
				
					<rect x="611.162" y="578.769" transform="matrix(0.2092 -0.9779 0.9779 0.2092 -83.2519 1061.1587)" style="fill:#29AAE1;" width="6.564" height="6.564"/>
			</g>
			<path style="fill:#B2B2B2;" d="M596.269,573.461c3.986,0.786,7.881-1.765,8.733-5.752c0.853-3.99-1.658-7.91-5.618-8.822
				L596.269,573.461z"/>
		</g>
		<path style="fill:#F1F1F1;" d="M369.633,576.374c-0.234,0.075-0.461,0.164-0.68,0.262c-0.372-0.341-0.785-0.627-1.24-0.84
			c2.024-1.419,2.986-4.037,2.196-6.517c-0.974-3.056-4.24-4.742-7.294-3.769c-1.208,0.386-2.197,1.132-2.897,2.078
			c-1.047-0.419-2.231-0.512-3.39-0.143c-1.174,0.375-2.097,1.15-2.707,2.116c-0.187-0.326-0.403-0.631-0.645-0.908
			c0.195-0.755,0.196-1.569-0.058-2.365c-0.719-2.258-3.132-3.504-5.389-2.784c-0.248,0.079-0.479,0.186-0.702,0.304
			c-0.008-0.024-0.012-0.049-0.02-0.073c-1.398-4.387-6.086-6.808-10.472-5.409c-2.852,0.909-4.863,3.213-5.544,5.916
			c-1.073-0.635-2.392-0.842-3.673-0.433c-2.381,0.759-3.696,3.305-2.937,5.687c0.759,2.381,3.305,3.696,5.686,2.938
			c0.15-0.048,0.283-0.123,0.426-0.186c-0.081,0.71-0.025,1.444,0.206,2.167c0.876,2.749,3.815,4.268,6.565,3.392
			c1.067-0.341,1.94-0.996,2.568-1.827c-0.088,0.724-0.038,1.473,0.198,2.213c0.877,2.751,3.818,4.27,6.568,3.393
			c1.019-0.324,1.867-0.936,2.488-1.712c-0.097,0.986-0.001,2.008,0.319,3.013c1.207,3.785,5.134,5.936,8.936,5.002
			c1.472,1.574,3.768,2.258,5.958,1.56c1.299-0.414,2.346-1.245,3.046-2.299c1.645,1.568,4.073,2.215,6.393,1.476
			c3.383-1.078,5.251-4.695,4.172-8.077C376.632,577.163,373.016,575.296,369.633,576.374z"/>
		<path style="fill:#F1F1F1;" d="M576.938,470.364c0.045,0.242,0.104,0.478,0.173,0.708c-0.386,0.326-0.723,0.698-0.991,1.122
			c-1.149-2.188-3.623-3.478-6.183-3.01c-3.155,0.575-5.245,3.599-4.67,6.752c0.228,1.248,0.842,2.323,1.69,3.14
			c-0.549,0.984-0.792,2.147-0.574,3.344c0.222,1.213,0.873,2.227,1.753,2.955c-0.348,0.144-0.678,0.319-0.983,0.524
			c-0.724-0.29-1.531-0.397-2.354-0.246c-2.331,0.425-3.875,2.659-3.45,4.989c0.047,0.256,0.123,0.5,0.212,0.735
			c-0.025,0.005-0.05,0.006-0.075,0.01c-4.529,0.827-7.529,5.166-6.703,9.695c0.537,2.944,2.565,5.233,5.159,6.254
			c-0.767,0.982-1.141,2.266-0.898,3.589c0.448,2.458,2.806,4.087,5.265,3.639c2.458-0.448,4.088-2.806,3.64-5.265
			c-0.028-0.155-0.086-0.296-0.129-0.445c0.693,0.17,1.429,0.21,2.175,0.073c2.839-0.518,4.721-3.24,4.203-6.078
			c-0.202-1.103-0.74-2.052-1.484-2.781c0.707,0.181,1.456,0.227,2.221,0.087c2.84-0.519,4.723-3.242,4.204-6.081
			c-0.191-1.052-0.689-1.971-1.38-2.686c0.966,0.223,1.991,0.258,3.028,0.069c3.908-0.714,6.543-4.335,6.103-8.224
			c1.75-1.259,2.722-3.448,2.309-5.71c-0.244-1.341-0.935-2.485-1.891-3.314c1.766-1.432,2.718-3.758,2.28-6.151
			c-0.637-3.494-3.985-5.81-7.477-5.171C578.614,463.523,576.301,466.871,576.938,470.364z"/>
		<g>
			<path style="fill:#F1F1F1;" d="M560.947,281.595c-0.246,0-0.489,0.017-0.728,0.044c-0.251-0.439-0.558-0.836-0.926-1.177
				c2.359-0.737,4.071-2.939,4.071-5.542c0-3.207-2.6-5.806-5.806-5.806c-1.268,0-2.437,0.411-3.392,1.1
				c-0.87-0.717-1.971-1.165-3.187-1.165c-1.232,0-2.347,0.46-3.222,1.194c-0.079-0.368-0.192-0.723-0.339-1.061
				c0.415-0.66,0.664-1.435,0.664-2.272c0-2.369-1.92-4.289-4.289-4.289c-0.261,0-0.514,0.032-0.762,0.077
				c0-0.026,0.004-0.051,0.004-0.077c0-4.602-3.732-8.333-8.334-8.333c-2.993,0-5.609,1.583-7.079,3.953
				c-0.829-0.931-2.023-1.528-3.368-1.528c-2.499,0-4.525,2.026-4.525,4.526c0,2.499,2.026,4.526,4.525,4.526
				c0.158,0,0.308-0.031,0.462-0.046c-0.292,0.651-0.462,1.368-0.462,2.127c0,2.885,2.339,5.224,5.225,5.224
				c1.12,0,2.151-0.359,3.002-0.96C532.18,272.77,532,273.5,532,274.276c0,2.887,2.341,5.227,5.227,5.227
				c1.069,0,2.063-0.324,2.891-0.875c-0.392,0.91-0.611,1.913-0.611,2.967c0,3.973,3.089,7.216,6.994,7.48
				c0.925,1.947,2.904,3.296,5.203,3.296c1.363,0,2.613-0.476,3.601-1.267c1.091,1.995,3.208,3.348,5.643,3.348
				c3.551,0,6.429-2.878,6.429-6.429C567.376,284.473,564.498,281.595,560.947,281.595z"/>
			<g>
				<g>
					
						<line style="fill:none;stroke:#00FFFF;stroke-width:0.5;stroke-linecap:round;stroke-miterlimit:10;" x1="495.196" y1="277.52" x2="495.636" y2="277.282"/>
					
						<line style="fill:none;stroke:#00FFFF;stroke-width:0.5;stroke-linecap:round;stroke-miterlimit:10;stroke-dasharray:1.0203,1.0203;" x1="496.534" y1="276.797" x2="517.63" y2="265.4"/>
					
						<line style="fill:none;stroke:#00FFFF;stroke-width:0.5;stroke-linecap:round;stroke-miterlimit:10;" x1="518.079" y1="265.158" x2="518.519" y2="264.92"/>
				</g>
			</g>
			<g>
				<g>
					
						<line style="fill:none;stroke:#00FFFF;stroke-width:0.5;stroke-linecap:round;stroke-miterlimit:10;" x1="500.019" y1="277.52" x2="500.458" y2="277.282"/>
					
						<line style="fill:none;stroke:#00FFFF;stroke-width:0.5;stroke-linecap:round;stroke-miterlimit:10;stroke-dasharray:1.0203,1.0203;" x1="501.356" y1="276.797" x2="522.452" y2="265.4"/>
					
						<line style="fill:none;stroke:#00FFFF;stroke-width:0.5;stroke-linecap:round;stroke-miterlimit:10;" x1="522.901" y1="265.158" x2="523.341" y2="264.92"/>
				</g>
			</g>
			<g>
				<g>
					
						<line style="fill:none;stroke:#00FFFF;stroke-width:0.5;stroke-linecap:round;stroke-miterlimit:10;" x1="497.607" y1="282.052" x2="498.047" y2="281.814"/>
					
						<line style="fill:none;stroke:#00FFFF;stroke-width:0.5;stroke-linecap:round;stroke-miterlimit:10;stroke-dasharray:1.0203,1.0203;" x1="498.945" y1="281.329" x2="520.041" y2="269.932"/>
					
						<line style="fill:none;stroke:#00FFFF;stroke-width:0.5;stroke-linecap:round;stroke-miterlimit:10;" x1="520.49" y1="269.69" x2="520.93" y2="269.452"/>
				</g>
			</g>
			<g>
				<g>
					
						<line style="fill:none;stroke:#00FFFF;stroke-width:0.5;stroke-linecap:round;stroke-miterlimit:10;" x1="502.43" y1="282.052" x2="502.869" y2="281.814"/>
					
						<line style="fill:none;stroke:#00FFFF;stroke-width:0.5;stroke-linecap:round;stroke-miterlimit:10;stroke-dasharray:1.0203,1.0203;" x1="503.768" y1="281.329" x2="524.863" y2="269.932"/>
					
						<line style="fill:none;stroke:#00FFFF;stroke-width:0.5;stroke-linecap:round;stroke-miterlimit:10;" x1="525.313" y1="269.69" x2="525.752" y2="269.452"/>
				</g>
			</g>
			<g>
				<g>
					
						<line style="fill:none;stroke:#00FFFF;stroke-width:0.5;stroke-linecap:round;stroke-miterlimit:10;" x1="505.303" y1="283.819" x2="505.742" y2="283.582"/>
					
						<line style="fill:none;stroke:#00FFFF;stroke-width:0.5;stroke-linecap:round;stroke-miterlimit:10;stroke-dasharray:1.0203,1.0203;" x1="506.641" y1="283.097" x2="527.736" y2="271.7"/>
					
						<line style="fill:none;stroke:#00FFFF;stroke-width:0.5;stroke-linecap:round;stroke-miterlimit:10;" x1="528.185" y1="271.457" x2="528.625" y2="271.22"/>
				</g>
			</g>
			<g>
				<g>
					
						<line style="fill:none;stroke:#00FFFF;stroke-width:0.5;stroke-linecap:round;stroke-miterlimit:10;" x1="505.303" y1="286.969" x2="505.742" y2="286.731"/>
					
						<line style="fill:none;stroke:#00FFFF;stroke-width:0.5;stroke-linecap:round;stroke-miterlimit:10;stroke-dasharray:1.0203,1.0203;" x1="506.641" y1="286.247" x2="527.736" y2="274.85"/>
					
						<line style="fill:none;stroke:#00FFFF;stroke-width:0.5;stroke-linecap:round;stroke-miterlimit:10;" x1="528.185" y1="274.607" x2="528.625" y2="274.37"/>
				</g>
			</g>
			<g>
				<g>
					
						<line style="fill:none;stroke:#00FFFF;stroke-width:0.5;stroke-linecap:round;stroke-miterlimit:10;" x1="510.125" y1="286.969" x2="510.564" y2="286.731"/>
					
						<line style="fill:none;stroke:#00FFFF;stroke-width:0.5;stroke-linecap:round;stroke-miterlimit:10;stroke-dasharray:1.0203,1.0203;" x1="511.463" y1="286.247" x2="532.559" y2="274.85"/>
					
						<line style="fill:none;stroke:#00FFFF;stroke-width:0.5;stroke-linecap:round;stroke-miterlimit:10;" x1="533.008" y1="274.607" x2="533.447" y2="274.37"/>
				</g>
			</g>
			<g>
				<g>
					
						<line style="fill:none;stroke:#00FFFF;stroke-width:0.5;stroke-linecap:round;stroke-miterlimit:10;" x1="507.714" y1="291.501" x2="508.153" y2="291.264"/>
					
						<line style="fill:none;stroke:#00FFFF;stroke-width:0.5;stroke-linecap:round;stroke-miterlimit:10;stroke-dasharray:1.0203,1.0203;" x1="509.052" y1="290.779" x2="530.147" y2="279.382"/>
					
						<line style="fill:none;stroke:#00FFFF;stroke-width:0.5;stroke-linecap:round;stroke-miterlimit:10;" x1="530.597" y1="279.14" x2="531.036" y2="278.902"/>
				</g>
			</g>
			<g>
				<g>
					
						<line style="fill:none;stroke:#00FFFF;stroke-width:0.5;stroke-linecap:round;stroke-miterlimit:10;" x1="512.536" y1="291.501" x2="512.976" y2="291.264"/>
					
						<line style="fill:none;stroke:#00FFFF;stroke-width:0.5;stroke-linecap:round;stroke-miterlimit:10;stroke-dasharray:1.0203,1.0203;" x1="513.874" y1="290.779" x2="534.97" y2="279.382"/>
					
						<line style="fill:none;stroke:#00FFFF;stroke-width:0.5;stroke-linecap:round;stroke-miterlimit:10;" x1="535.419" y1="279.14" x2="535.858" y2="278.902"/>
				</g>
			</g>
			<g>
				<g>
					
						<line style="fill:none;stroke:#00FFFF;stroke-width:0.5;stroke-linecap:round;stroke-miterlimit:10;" x1="515.409" y1="293.269" x2="515.849" y2="293.031"/>
					
						<line style="fill:none;stroke:#00FFFF;stroke-width:0.5;stroke-linecap:round;stroke-miterlimit:10;stroke-dasharray:1.0203,1.0203;" x1="516.747" y1="292.546" x2="537.843" y2="281.149"/>
					
						<line style="fill:none;stroke:#00FFFF;stroke-width:0.5;stroke-linecap:round;stroke-miterlimit:10;" x1="538.292" y1="280.907" x2="538.731" y2="280.669"/>
				</g>
			</g>
			<g>
				<g>
					
						<line style="fill:none;stroke:#00FFFF;stroke-width:0.5;stroke-linecap:round;stroke-miterlimit:10;" x1="516.964" y1="296.419" x2="517.403" y2="296.181"/>
					
						<line style="fill:none;stroke:#00FFFF;stroke-width:0.5;stroke-linecap:round;stroke-miterlimit:10;stroke-dasharray:1.0203,1.0203;" x1="518.302" y1="295.696" x2="539.397" y2="284.299"/>
					
						<line style="fill:none;stroke:#00FFFF;stroke-width:0.5;stroke-linecap:round;stroke-miterlimit:10;" x1="539.847" y1="284.057" x2="540.286" y2="283.819"/>
				</g>
			</g>
			<g>
				<g>
					
						<line style="fill:none;stroke:#00FFFF;stroke-width:0.5;stroke-linecap:round;stroke-miterlimit:10;" x1="521.786" y1="296.419" x2="522.226" y2="296.181"/>
					
						<line style="fill:none;stroke:#00FFFF;stroke-width:0.5;stroke-linecap:round;stroke-miterlimit:10;stroke-dasharray:1.0203,1.0203;" x1="523.124" y1="295.696" x2="544.22" y2="284.299"/>
					
						<line style="fill:none;stroke:#00FFFF;stroke-width:0.5;stroke-linecap:round;stroke-miterlimit:10;" x1="544.669" y1="284.057" x2="545.108" y2="283.819"/>
				</g>
			</g>
			<g>
				<g>
					
						<line style="fill:none;stroke:#00FFFF;stroke-width:0.5;stroke-linecap:round;stroke-miterlimit:10;" x1="519.375" y1="300.951" x2="519.815" y2="300.713"/>
					
						<line style="fill:none;stroke:#00FFFF;stroke-width:0.5;stroke-linecap:round;stroke-miterlimit:10;stroke-dasharray:1.0203,1.0203;" x1="520.713" y1="300.228" x2="541.809" y2="288.832"/>
					
						<line style="fill:none;stroke:#00FFFF;stroke-width:0.5;stroke-linecap:round;stroke-miterlimit:10;" x1="542.258" y1="288.589" x2="542.697" y2="288.352"/>
				</g>
			</g>
			<g>
				<g>
					
						<line style="fill:none;stroke:#00FFFF;stroke-width:0.5;stroke-linecap:round;stroke-miterlimit:10;" x1="524.197" y1="300.951" x2="524.637" y2="300.713"/>
					
						<line style="fill:none;stroke:#00FFFF;stroke-width:0.5;stroke-linecap:round;stroke-miterlimit:10;stroke-dasharray:1.0203,1.0203;" x1="525.535" y1="300.228" x2="546.631" y2="288.832"/>
					
						<line style="fill:none;stroke:#00FFFF;stroke-width:0.5;stroke-linecap:round;stroke-miterlimit:10;" x1="547.08" y1="288.589" x2="547.519" y2="288.352"/>
				</g>
			</g>
			<g>
				<g>
					
						<line style="fill:none;stroke:#00FFFF;stroke-width:0.5;stroke-linecap:round;stroke-miterlimit:10;" x1="527.07" y1="302.719" x2="527.51" y2="302.481"/>
					
						<line style="fill:none;stroke:#00FFFF;stroke-width:0.5;stroke-linecap:round;stroke-miterlimit:10;stroke-dasharray:1.0203,1.0203;" x1="528.408" y1="301.996" x2="549.504" y2="290.599"/>
					
						<line style="fill:none;stroke:#00FFFF;stroke-width:0.5;stroke-linecap:round;stroke-miterlimit:10;" x1="549.953" y1="290.357" x2="550.393" y2="290.119"/>
				</g>
			</g>
			<g>
				<g>
					
						<line style="fill:none;stroke:#00FFFF;stroke-width:0.5;stroke-linecap:round;stroke-miterlimit:10;" x1="527.07" y1="305.281" x2="527.51" y2="305.043"/>
					
						<line style="fill:none;stroke:#00FFFF;stroke-width:0.5;stroke-linecap:round;stroke-miterlimit:10;stroke-dasharray:1.0203,1.0203;" x1="528.408" y1="304.559" x2="549.504" y2="293.162"/>
					
						<line style="fill:none;stroke:#00FFFF;stroke-width:0.5;stroke-linecap:round;stroke-miterlimit:10;" x1="549.953" y1="292.919" x2="550.393" y2="292.682"/>
				</g>
			</g>
			<g>
				<g>
					
						<line style="fill:none;stroke:#00FFFF;stroke-width:0.5;stroke-linecap:round;stroke-miterlimit:10;" x1="531.893" y1="305.281" x2="532.332" y2="305.043"/>
					
						<line style="fill:none;stroke:#00FFFF;stroke-width:0.5;stroke-linecap:round;stroke-miterlimit:10;stroke-dasharray:1.0203,1.0203;" x1="533.23" y1="304.559" x2="554.326" y2="293.162"/>
					
						<line style="fill:none;stroke:#00FFFF;stroke-width:0.5;stroke-linecap:round;stroke-miterlimit:10;" x1="554.775" y1="292.919" x2="555.215" y2="292.682"/>
				</g>
			</g>
		</g>
		<g>
			<path style="fill:#C0272D;" d="M321.858,145.002c0,0-12.926-0.66-16.469,13.892c0,0,3.602-5.943,8.989-3.133L321.858,145.002z"/>
			<path style="fill:#C0272D;" d="M336.615,159.76c0,0,0.661,12.925-13.892,16.468c0,0,5.944-3.601,3.133-8.989L336.615,159.76z"/>
			
				<rect x="315.592" y="152.756" transform="matrix(0.7071 -0.7071 0.7071 0.7071 -19.8118 273.9122)" style="fill:#C0272D;" width="10.306" height="16.232"/>
			<path style="fill:#F1F1F1;" d="M326.35,167.732c6.039-2.189,13.24-6.966,19.908-13.634
				c12.406-12.405,18.268-26.657,13.093-31.832c-5.174-5.175-19.426,0.688-31.832,13.093c-6.668,6.669-11.444,13.869-13.633,19.908
				L326.35,167.732z"/>
			<path style="fill:#C0272D;" d="M359.41,135.439c2.357-5.747,2.523-10.59-0.059-13.173c-2.582-2.582-7.426-2.416-13.172-0.059
				L359.41,135.439z"/>
			<path style="fill:#C0272D;" d="M347.354,143.697c-2.605,2.605-6.829,2.605-9.435,0c-2.605-2.605-2.605-6.829,0-9.435
				c2.605-2.605,6.83-2.605,9.435,0C349.96,136.868,349.96,141.092,347.354,143.697z"/>
			<path style="fill:#F1F1F1;" d="M346.46,142.803c-2.111,2.111-5.534,2.111-7.646,0c-2.111-2.111-2.111-5.534,0-7.646
				c2.111-2.111,5.535-2.111,7.646,0C348.571,137.269,348.571,140.691,346.46,142.803z"/>
		</g>
		<path style="fill:#E5E5E5;" d="M599.845,369.685c-2.297,1.138-4.605,2.067-4.605,2.067c-0.179,0.075-0.315-0.093-0.409-0.296
			c-0.131-0.282-0.918-0.448-1.326,0.337c-0.676,1.304-1.138,3.646-1.047,4.621c0.138,1.473,0.493,22.759,1.309,30.361
			c0.178,1.691,2.034,1.32,2.034,1.32c3.863-0.967,1.957-11.849,1.957-11.849c-0.316-1.369,8.609-11.576,9.896-13.412
			c2.861-4.097-1.3-3.702-2.298-2.727c-1.001,0.97-7.751,5.742-7.978,4.674c-0.16-0.751-0.424-4.582-0.569-6.801
			c-0.058-0.881-0.101-2.338,0.348-3.1c1.148-1.957,4.04-4.396,4.04-4.396c0.308-0.292,0.431-0.546,0.457-0.764
			C601.709,369.228,600.639,369.294,599.845,369.685L599.845,369.685z M594.594,398.611c0.103-0.501,0.592-0.823,1.094-0.72
			c0.501,0.103,0.826,0.593,0.724,1.093c-0.104,0.502-0.593,0.824-1.097,0.72C594.813,399.602,594.491,399.112,594.594,398.611
			L594.594,398.611z M594.481,395.976c0.104-0.501,0.597-0.826,1.1-0.723c0.497,0.103,0.822,0.596,0.719,1.097
			c-0.104,0.5-0.597,0.822-1.094,0.72C594.704,396.966,594.378,396.476,594.481,395.976L594.481,395.976z M594.376,393.337
			c0.102-0.501,0.592-0.823,1.093-0.72c0.502,0.103,0.823,0.591,0.72,1.093c-0.103,0.501-0.593,0.827-1.094,0.724
			C594.594,394.331,594.272,393.839,594.376,393.337L594.376,393.337z M594.261,390.702c0.103-0.501,0.596-0.823,1.097-0.719
			c0.502,0.103,0.824,0.592,0.72,1.093c-0.102,0.501-0.592,0.824-1.093,0.72C594.482,391.692,594.157,391.202,594.261,390.702
			L594.261,390.702z M594.153,388.067c0.104-0.505,0.593-0.827,1.094-0.724c0.501,0.103,0.823,0.593,0.719,1.097
			c-0.102,0.501-0.592,0.824-1.093,0.721C594.371,389.057,594.05,388.568,594.153,388.067L594.153,388.067z M594.042,385.428
			c0.104-0.501,0.593-0.823,1.093-0.721c0.501,0.104,0.823,0.593,0.72,1.093c-0.104,0.501-0.592,0.823-1.093,0.721
			C594.262,386.418,593.938,385.929,594.042,385.428L594.042,385.428z M594.042,385.428"/>
	</g>
</g>
</svg>
