<?xml version="1.0" encoding="utf-8"?>
<!-- Generator: Adobe Illustrator 27.5.0, SVG Export Plug-In . SVG Version: 6.00 Build 0)  -->
<svg version="1.1" id="Layer_1" xmlns="http://www.w3.org/2000/svg" xmlns:xlink="http://www.w3.org/1999/xlink" x="0px" y="0px"
	 viewBox="0 0 4000 4000" style="enable-background:new 0 0 4000 4000;" xml:space="preserve">
<g>
	<g>
		<rect style="fill:#A8F8FF;" width="4000" height="4000"/>
	</g>
	<g>
		<g>
			<path style="fill:#53657B;" d="M3176.874,2688.736c-12.1,24.6-27.3,47.55-44.15,69.15c-27.3,34.95-56.5,66.75-87.2,95.5
				c-35.3,33.15-72.65,62.3-111.55,87.75c-57.55,37.8-118.5,67.5-181.2,90.15c-164.7,59.6-341.4,70.4-500.7,49.9l55.5-190.45
				c83.4-1.45,163.45-13.8,238.7-41.55c13.5-4.95,26.85-10.4,40-16.35c24.4-11.05,48.2-23.85,71.45-38.6
				c45.85-29.05,89.45-65.7,130.3-111.1c20.2-22.35,39.7-46.9,58.5-73.7c11.7-16.65,23.15-34.2,34.3-52.7
				c81.45-128.15,185.05-157.4,253.8-124.1v0.05c9.65,4.65,18.65,10.6,26.75,17.6
				C3211.774,2494.086,3229.573,2581.586,3176.874,2688.736z"/>
		</g>
		<g>
			<path style="fill:#3F5972;" d="M3176.874,2688.736c-12.1,24.6-27.3,47.55-44.15,69.15c-27.3,34.95-56.5,66.75-87.2,95.5
				c-35.3,33.15-72.65,62.3-111.55,87.75c-57.55,37.8-118.5,67.5-181.2,90.15c-164.7,59.6-341.4,70.4-500.7,49.9l55.5-190.45
				c98.35-1.7,192-18.6,278.7-57.9c-6.05,43.1-24.3,155.6,123.95,131.3c175.55-28.75,495.75-310.15,424.4-531.45
				C3204.224,2466.385,3238.074,2564.336,3176.874,2688.736z"/>
		</g>
		<g>
			<path style="fill:#A2B3C7;" d="M2768.374,2947.585c0.3,24.45-4.35,52.2-15.6,83.7c-164.7,59.6-341.4,70.4-500.7,49.9l55.5-190.45
				c3.95-0.05,7.85-0.15,11.8-0.3c3.05-0.05,6.05-0.15,9.1-0.3c2.1-0.1,4.2-0.15,6.25-0.3c2.75-0.1,5.4-0.25,8.1-0.4
				c2.4-0.1,4.85-0.25,7.25-0.45c1.05-0.05,2.15-0.1,3.25-0.2c1.5-0.1,3-0.2,4.55-0.3l1.95-0.15c2.25-0.2,4.55-0.35,6.75-0.55
				c3.05-0.25,6.05-0.55,9.05-0.8c5.5-0.55,11-1.1,16.45-1.75c2.8-0.35,5.65-0.7,8.45-1.05c3.85-0.5,7.6-1,11.4-1.55
				c2.25-0.3,4.45-0.65,6.7-1c0.15,0,0.25-0.05,0.4-0.05c2-0.3,3.95-0.6,5.9-0.95c5.9-0.95,11.8-1.95,17.6-3.05
				c2.9-0.55,5.85-1.1,8.75-1.7c3.8-0.75,7.6-1.55,11.4-2.4c18.35-4,36.4-8.75,54.25-14.35c3.85-1.15,7.65-2.35,11.45-3.65
				c3.85-1.25,7.7-2.6,11.55-4c0.55-0.15,1.15-0.35,1.75-0.6c3.9-1.4,7.85-2.85,11.75-4.35c2.75-1.05,5.55-2.1,8.3-3.25
				c2.75-1.05,5.5-2.2,8.2-3.35c2.75-1.1,5.5-2.3,8.2-3.5c2.7-1.15,5.45-2.35,8.15-3.6c24.4-11.05,48.2-23.85,71.45-38.6
				C2706.274,2816.635,2767.524,2861.785,2768.374,2947.585z"/>
		</g>
		<g>
			<path style="fill:#A2B3C7;" d="M2933.974,2941.135c0.85-29.85-4.2-57.9-13-83.75c-30.3-89.2-104.75-152.65-132.95-174.25
				c20.2-22.35,39.7-46.9,58.5-73.7c97.45,24.6,148.1,91.5,174.45,154.55c13.8,33.1,20.9,65.1,24.55,89.4
				C3010.224,2886.536,2972.874,2915.685,2933.974,2941.135z"/>
		</g>
		<g style="opacity:0.51;">
			<path style="fill:#FFFFFB;" d="M3161.374,2450.286c-0.05,0-0.1-0.05-0.15-0.05c-81.15-32.55-166.5,32.15-193.65,64.15
				c-27.15,32-104.1,180.75-203.65,260.9c-99.55,80.15-215.85,106.55-215.85,106.55l-1.8-32.65c13.5-4.95,26.85-10.4,40-16.35
				c24.4-11.05,48.2-23.85,71.45-38.6c45.85-29.05,89.45-65.7,130.3-111.1c20.2-22.35,39.7-46.9,58.5-73.7
				c11.7-16.65,23.15-34.2,34.3-52.7c81.45-128.15,185.05-157.4,253.8-124.1v0.05
				C3144.274,2437.335,3153.274,2443.285,3161.374,2450.286z"/>
		</g>
		<g>
			<path style="fill:#8AA5BF;" d="M2710.224,2964.135c18.05-2.95,37.6-8.6,58.15-16.55c0.3,24.45-4.35,52.2-15.6,83.7
				c-164.7,59.6-341.4,70.4-500.7,49.9l55.5-190.45c3.95-0.05,7.85-0.15,11.8-0.3c3.05-0.05,6.05-0.15,9.1-0.3
				c2.1-0.1,4.2-0.15,6.25-0.3c2.75-0.1,5.4-0.25,8.1-0.4c2.4-0.1,4.85-0.25,7.25-0.45c1.05-0.05,2.15-0.1,3.25-0.2
				c1.5-0.1,3.05-0.2,4.55-0.3l1.95-0.15c2.25-0.2,4.55-0.35,6.75-0.55c3.05-0.25,6.05-0.55,9.05-0.8c5.5-0.55,11-1.1,16.45-1.75
				c2.8-0.35,5.65-0.7,8.45-1.05c3.85-0.45,7.6-1,11.4-1.55c2.25-0.3,4.45-0.65,6.7-1c0.15,0,0.25-0.05,0.4-0.05
				c1.95-0.3,3.95-0.6,5.9-0.95c5.9-0.95,11.8-1.95,17.6-3.05c2.95-0.55,5.85-1.1,8.75-1.7c3.8-0.75,7.6-1.55,11.4-2.4
				c18.35-4,36.4-8.75,54.25-14.35c3.8-1.15,7.65-2.35,11.45-3.65c3.85-1.25,7.7-2.6,11.55-4c0.55-0.15,1.15-0.35,1.75-0.6
				c3.9-1.4,7.85-2.85,11.75-4.35c2.8-1.05,5.55-2.15,8.3-3.25c2.75-1.1,5.5-2.2,8.2-3.35c2.75-1.15,5.5-2.3,8.2-3.5
				c2.7-1.15,5.45-2.35,8.15-3.6C2580.224,2875.936,2561.973,2988.436,2710.224,2964.135z"/>
		</g>
		<g>
			<path style="fill:#8AA5BF;" d="M2933.974,2941.135c0.85-29.85-4.2-57.9-13-83.75c35.3-27.55,69.45-59.2,100-93.4
				c13.8,33.1,20.9,65.1,24.55,89.4C3010.224,2886.536,2972.874,2915.685,2933.974,2941.135z"/>
		</g>
		<g>
			<path style="fill:#06096A;" d="M2400.423,3105.741c-49.771,0-100.021-3.218-150.289-9.7c-8.215-1.06-14.017-8.579-12.958-16.797
				c1.06-8.215,8.567-13.999,16.796-12.959c169.034,21.807,591.898,34.487,866.917-317.627
				c17.789-22.776,31.694-44.541,42.511-66.538c57.279-116.494,24.797-202.439-29.62-232.993
				c-59.207-33.25-159.657-11.235-240.308,115.637c-72.762,120.598-159.156,206.851-263.937,263.391
				c-92.838,50.095-198.063,75.476-321.688,77.593c-8.29,0.073-15.112-6.458-15.254-14.741s6.458-15.112,14.741-15.254
				c250.555-4.29,428.701-108.127,560.636-326.785c91.306-143.638,209.366-165.935,280.497-126.001
				c66.346,37.253,107.744,138.381,41.854,272.39c-11.737,23.872-26.715,47.346-45.79,71.768
				c-107.59,137.751-249.458,235.376-421.661,290.168C2621.87,3089.43,2512.414,3105.739,2400.423,3105.741z"/>
		</g>
		<g>
			<path style="fill:#EF9EAF;" d="M1079.821,1916.37c0,0-21.986-152.428-80.015-212.439c-10.548-10.908-25.715-16.599-40.749-14.536
				c-13.045,1.79-26.695,8.763-29.112,29.496c-4.835,41.467,37.562,90.744,37.562,90.744s-65.826-78.843-105.806-87.583
				c-39.979-8.74-64.153,38.864-23.43,74.752c0,0-45.93-2.231-47.046,34.401s100.413,95.578,100.413,95.578
				s26.777,129.793,107.107,111.198C1079.077,2019.387,1079.821,1916.37,1079.821,1916.37z"/>
		</g>
		<g>
			<path style="fill:#06096A;" d="M983.242,2054.826c-14.521,0-28.279-4.119-41.083-12.324
				c-40.319-25.84-58.524-85.874-63.65-106.047c-30.382-18.179-103.481-66.128-102.275-105.706
				c0.408-13.386,5.451-24.922,14.584-33.362c5.893-5.444,12.798-9.006,19.519-11.331c-9.723-17.473-10.994-36.694-2.603-53.262
				c10.497-20.725,32.939-30.701,57.17-25.396c15.459,3.379,33.367,14.885,50.367,28.721c-0.81-6.326-0.958-12.69-0.226-18.965
				c2.777-23.809,18.075-39.343,41.973-42.622c19.469-2.671,39.502,4.424,53.571,18.972
				c60.702,62.774,83.153,214.304,84.078,220.725c0.107,0.745,0.159,1.497,0.154,2.249c-0.034,4.69-1.875,115.093-92.692,136.118
				C995.706,2054.083,989.405,2054.826,983.242,2054.826z M836.419,1811.767c-5.614,0-18.446,1.316-25.3,7.708
				c-2.001,1.868-4.685,5.161-4.9,12.188c-0.503,16.536,47.657,55.828,92.954,82.151c3.69,2.143,6.294,5.762,7.157,9.941
				c0.142,0.681,14.899,69.748,52.06,93.518c11.322,7.241,23.416,9.241,36.974,6.096c64.026-14.822,69.053-95.85,69.429-106.055
				c-2.207-14.229-24.412-149.841-75.77-202.954c-7.448-7.703-17.888-11.465-27.928-10.105c-10.352,1.421-15.06,6.164-16.251,16.375
				c-3.209,27.532,21.641,64.236,32.894,77.866c0.536,0.635,0.967,1.147,1.284,1.526c5.281,6.326,4.47,15.73-1.816,21.057
				c-6.285,5.33-15.695,4.59-21.069-1.66c-0.137-0.159-0.497-0.581-1.044-1.243c-24.47-29.06-71.479-75.979-96.594-81.47
				c-10.778-2.344-19.75,1.25-24,9.644c-4.384,8.655-3.428,24.114,13.691,39.202c4.78,4.212,6.377,10.986,3.981,16.892
				c-2.396,5.908-8.283,9.656-14.627,9.343C837.212,1811.771,836.836,1811.767,836.419,1811.767z"/>
		</g>
		<g>
			<path style="fill:#E69FAF;" d="M2693.127,1943.891c0,0,12.141-61.364,70.781-114.917c58.64-53.554,95.83-47.975,105.871-29.008
				c10.042,18.967-36.074,85.661-36.074,85.661s74.132-44.38,109.587-49.091c35.455-4.711,53.306,20.083,39.669,49.587
				c-13.636,29.504-56.033,35.702-86.529,78.347c0,0,81.074-9.917,95.703,28.264c14.628,38.182-17.851,57.521-76.364,43.141
				c0,0-19.834,1.984-45.124,37.19s-88.512,47.603-119.504,24.793c-30.992-22.81-44.628-94.959-44.628-94.959"/>
		</g>
		<g>
			<path style="fill:#06096A;" d="M2791.913,2124.401c-19.313,0-36.804-5-49.661-14.463c-34.74-25.569-48.967-96.274-50.475-104.253
				c-1.538-8.137,3.81-15.976,11.946-17.519c8.135-1.541,15.984,3.806,17.531,11.941c3.513,18.474,17.329,69.88,38.782,85.671
				c10.322,7.595,27.449,10.398,45.814,7.498c22.134-3.496,42.295-14.592,52.616-28.962c27.831-38.745,51.377-42.92,55.814-43.364
				c1.699-0.164,3.413-0.049,5.072,0.361c33.652,8.264,52.545,3.333,58.492-3.406c4.536-5.142,2.657-13.608,0.283-19.805
				c-7.845-20.481-57.211-21.467-79.886-18.74c-5.906,0.718-11.675-2.131-14.706-7.244c-3.03-5.115-2.761-11.536,0.697-16.372
				c17.249-24.119,38.031-37.742,54.731-48.684c14.264-9.351,25.531-16.733,30.382-27.229c4.08-8.828,4.263-16.816,0.503-21.919
				c-4.167-5.657-13.127-8.018-24.581-6.509c-26.531,3.528-83.966,35.19-103.857,47.095c-6.057,3.625-13.823,2.534-18.65-2.617
				c-4.825-5.154-5.406-12.974-1.394-18.782c19.537-28.281,35.931-61.565,34.861-70.628c-1.854-2.927-5.399-4.106-8.121-4.578
				c-6.362-1.101-30.522-1.626-74.081,38.157c-53.951,49.272-66.075,106.226-66.191,106.795c-1.652,8.101-9.54,13.367-17.656,11.731
				c-8.104-1.628-13.369-9.487-11.764-17.598c0.535-2.703,13.806-66.846,75.38-123.081c47.777-43.633,80.449-48.855,99.445-45.562
				c13.413,2.329,23.997,9.648,29.8,20.61c6.711,12.678,1.001,33.052-8.69,53.481c22.75-11.265,48.724-22.336,66.969-24.761
				c22.637-3.01,41.832,3.718,52.686,18.45c10.446,14.177,11.384,33.24,2.576,52.3c-8.455,18.293-24.346,28.708-41.169,39.734
				c-7.764,5.088-15.656,10.261-23.313,16.44c28.03,1.716,62.992,9.919,74.048,38.777c10.182,26.577,0.735,42.976-5.802,50.386
				c-15.559,17.637-45.417,22.41-84.346,13.589c-4.664,1.809-17.317,8.413-33.164,30.474c-15.054,20.957-42.083,36.321-72.3,41.094
				C2804.205,2123.908,2797.969,2124.401,2791.913,2124.401z M2856.168,1806.088L2856.168,1806.088L2856.168,1806.088z"/>
		</g>
		<g>
			<path style="fill:#E4F2F4;" d="M1320.974,2835.435c-33.35,109.55-91.9,271-91.9,271c-140.25-161.25-222.7-358.2-251.95-588
				c0,0,0-0.05,0-0.15c-18.9-148.4-15.55-310.55,8.75-485.6l292.3,429.65c0,0,54.55,249.9,64.85,275.7
				C1346.274,2746.135,1336.274,2785.336,1320.974,2835.435z"/>
		</g>
		<g>
			<path style="fill:#D4E4F9;" d="M1320.974,2835.435c-60.8-14.15-123.2-73-120.65-130.65c5.2-118.25-85.55-318.35-157.7-333.2
				c-70.85-14.65-65.7,141.1-65.5,146.7c-18.9-148.4-15.55-310.55,8.75-485.6l292.3,429.65c0,0,54.55,249.9,64.85,275.7
				C1346.274,2746.135,1336.274,2785.336,1320.974,2835.435z"/>
		</g>
		<g>
			<path style="fill:#06096A;" d="M1229.076,3121.452c-4.296,0-8.44-1.848-11.317-5.156
				c-115.265-132.542-194.24-292.593-234.733-475.703c-39.418-178.252-43.461-383.474-12.019-609.966
				c1.138-8.205,8.721-13.904,16.92-12.795c8.206,1.14,13.933,8.716,12.794,16.921c-60.865,438.452,14.175,788.923,223.041,1042.217
				c54.262-151.301,106.254-311.365,104.874-334.541c-11.328-31.038-59.587-251.548-65.122-276.909
				c-1.766-8.093,3.362-16.086,11.456-17.854c8.087-1.772,16.086,3.362,17.853,11.458c21.82,99.973,56.901,255.266,64.115,273.34
				c3.169,7.937,8.474,21.223-52.813,204.209c-29.487,88.04-60.636,174.036-60.947,174.893c-1.811,4.998-6.132,8.662-11.357,9.634
				C1230.907,3121.369,1229.988,3121.452,1229.076,3121.452z"/>
		</g>
		<g>
			<path style="fill:#E4F2F4;" d="M2741.774,2468.285c-35.3,167.65-109.6,319.35-198.85,429.85c0,0.05-0.05,0.05-0.05,0.05
				c-89.95,111.45-195.1,181.05-290.8,183c0,0-249.2-450.75-36.45-593.55c212.7-142.75,530.3-410.1,530.3-410.1
				C2772.774,2209.736,2768.074,2343.436,2741.774,2468.285z"/>
		</g>
		<g>
			<path style="fill:#D4E4F9;" d="M2741.774,2468.285c0.45-3.9,22.9-183.5-102.95-92.25c-127.2,92.25-241,165.85-237.25,277.45
				c3.7,111.55,31.95,316.15,141.3,244.7c-89.95,111.45-195.1,181.05-290.8,183c0,0-249.2-450.75-36.45-593.55
				c212.7-142.75,530.3-410.1,530.3-410.1C2772.774,2209.736,2768.074,2343.436,2741.774,2468.285z"/>
		</g>
		<g>
			<path style="fill:#06096A;" d="M2252.052,3096.164c-5.45,0-10.482-2.959-13.126-7.742
				c-10.447-18.896-253.284-464.5-31.678-613.235c209.604-140.684,525.861-406.467,529.031-409.133
				c4.05-3.416,9.597-4.441,14.598-2.688c4.999,1.743,8.708,5.991,9.762,11.182c68.754,338.955-66.826,659.102-203.82,830.261
				c-95.708,119.58-206.678,189.324-304.454,191.353C2252.26,3096.164,2252.156,3096.164,2252.052,3096.164z M2735.921,2105.434
				c-72.754,60.513-331.381,273.462-511.956,394.661c-183.764,123.34,5.194,504.924,36.885,565.664
				c86.716-5.952,185.475-70.908,272.546-179.695C2662.978,2724.164,2791.261,2424.936,2735.921,2105.434z"/>
		</g>
		<g>
			<path style="fill:#E4F2F4;" d="M2761.824,2111.736c0,0-108.1,249.45-463.65,410.1c0,0-22.3,35.2,5.45,89.25
				c27.75,54.05,190.4,338.2-27.75,478c-218.2,139.85-359.05,95.2-459.2,30.75c-100.15-64.45-214.2,43.15-258.35,50.1
				c-44.1,6.95-332.2-77.85-332.2-77.85s-43.4-89.35-42.95-236.35c0.3-92.25,17.8-207.3,74.15-337.15l0.1-0.15
				c2.2-5.15,4.5-10.3,6.85-15.45c0,0-142.8-88.75-226.1-261.8c-53.55-111.3-67.15-200.2-40.05-247.55v-0.05
				c15-26.25,42.55-39.7,82.7-37.05c112.55,7.45,288.6,176.55,491.9,186.45s449.25,24.8,449.25,24.8l71.4,17.85
				c83.6-23.2,164.4-48.2,240.75-76.1l0.3-0.15c125.75-45.95,239.4-99.75,334-165.9c5.8-4.05,12.05-7.4,18.85-9.25
				c19.8-5.3,38.6,0.35,53.9,13.75c6.75,5.9,12.8,13.3,17.85,21.9C2779.374,2004.086,2785.024,2057.385,2761.824,2111.736z"/>
		</g>
		<g style="opacity:0.66;">
			<path style="fill:#FFFFFB;" d="M2759.024,1969.885c-2.15-0.1-4.3-0.8-6.4-2.25c-28.65-19.4-124.2,40.2-277.45,118.3
				c-150.8,76.9-311.75,106.25-316.75,107.1l175.7-83.5l0.3-0.15c125.75-45.95,239.4-99.75,334-165.9c5.8-4.05,12.05-7.4,18.85-9.25
				c19.8-5.3,38.6,0.35,53.9,13.75C2747.924,1953.885,2753.974,1961.286,2759.024,1969.885z"/>
		</g>
		<g>
			<path style="fill:#D4E4F9;" d="M1257.424,2518.436c2.2-5.15,4.5-10.3,6.85-15.45c0,0-142.8-88.75-226.1-261.8
				c-53.55-111.3-67.15-200.2-40.05-247.55c0.3,4.1,14.2,186.05,163.5,315.45c141.55,122.7,221.7,15.35,231.15,1.45
				L1257.424,2518.436z"/>
		</g>
		<g>
			<path style="fill:#D4E4F9;" d="M2761.824,2111.736c0,0-108.1,249.45-463.65,410.1c0,0-22.3,35.2,5.45,89.25
				c27.75,54.05,190.4,338.2-27.75,478c-218.2,139.85-359.05,95.2-459.2,30.75c-100.15-64.45-214.2,43.15-258.35,50.1
				c-44.1,6.95-332.2-77.85-332.2-77.85s-43.4-89.35-42.95-236.35c3.25,8.1,5.55,16.5,6.85,25.1
				c38.8,253.9,393.6,195.35,508.65,140.8c115.05-54.5,223.15,85.3,431,8.95c207.85-76.35,139.25-333.7,98.6-411.55
				c-23.218-44.41-30.278-89.796-32.06-120.593c-1.243-21.489,12.222-41.155,32.724-47.715
				c267.321-85.536,582.568-338.247,512.186-502.743h0.05C2774.674,1977.335,2790.874,2043.686,2761.824,2111.736z"/>
		</g>
		<g>
			<path style="fill:#06096A;" d="M2009.043,3196.049c-86.165,0.007-151.51-32.08-200.48-63.596
				c-65.105-41.89-138.717-1.665-192.465,27.717c-22.748,12.434-40.714,22.256-55.434,24.57c-2.075,0.327-4.597,0.483-7.509,0.483
				c-61.807,0.007-302.81-70.381-331.288-78.762c-4.052-1.191-7.412-4.038-9.258-7.834c-1.257-2.59-30.924-64.634-41.107-170.239
				c-9.137-94.749-3.451-243.73,73.918-419.949c-35.686-24.773-149.01-111.699-220.768-260.769
				c-58.105-120.706-70.874-215.654-35.955-267.351c13.246-19.609,40.161-42.217,93.114-38.752
				c50.808,3.359,110.669,35.876,179.983,73.528c92.627,50.315,197.612,107.344,311.649,112.905
				c201.067,9.81,446.97,24.653,449.431,24.802c8.269,0.5,14.567,7.61,14.067,15.879c-0.502,8.269-7.604,14.551-15.879,14.067
				c-2.458-0.149-248.192-14.985-449.082-24.783c-120.876-5.896-229.059-64.663-324.507-116.509
				c-66.212-35.967-123.395-67.031-167.64-69.953c-31.12-2.073-53.409,6.557-66.277,25.608
				c-27.869,41.257-13.616,130.061,38.126,237.546c80.298,166.812,219.135,254.722,220.527,255.591
				c6.385,3.982,8.842,12.083,5.731,18.936c-138.491,305.032-56.959,531.638-40.898,570.466
				c110.813,32.415,289.831,80.042,318.958,75.457c9.569-1.506,27.123-11.101,45.707-21.26
				c56.941-31.128,142.993-78.164,223.09-26.621c91.754,59.05,225.024,108.923,442.961-30.757
				c130.719-83.779,139.8-235.173,26.989-449.973c-1.725-3.284-3.229-6.147-4.468-8.56c-31.331-60.984-5.88-102.407-4.781-104.141
				c1.567-2.473,3.824-4.434,6.493-5.64c346.25-156.465,454.993-399.937,456.05-402.378c25.194-58.97,12.279-113.972-10.394-140.088
				c-7.745-8.921-24.08-22.998-46.47-16.958c-4.463,1.201-9.087,3.501-14.137,7.034
				c-135.264,94.582-319.454,172.217-579.661,244.316c-7.988,2.219-16.249-2.466-18.461-10.449s2.467-16.25,10.45-18.462
				c256.82-71.162,438.093-147.422,570.477-239.99c7.955-5.564,15.656-9.299,23.539-11.418c27.881-7.503,55.916,2.068,76.915,26.26
				c29.562,34.05,45.756,100.322,15.298,171.614c-4.518,10.425-113.535,254.441-466.426,415.664
				c-3.727,8.909-10.946,34.453,7.792,70.925c1.205,2.346,2.667,5.129,4.343,8.32c19.081,36.333,63.765,121.414,77.546,215.842
				c17.684,121.172-20.975,213.137-114.906,273.34C2174.668,3171.764,2083.979,3196.044,2009.043,3196.049z"/>
		</g>
		<g>
			<path style="fill:#E4F2F4;" d="M2535.674,1888.486c16.15,82.95-45.45,167.6-72.4,93.05c0,0-144.3,174.35-374.85,221.95
				l-515.7,14.85c-291.1-19.3-430.4-164.6-430.4-164.6c-75.9,1.95-61.5-97.2-61.5-97.2c-108.15-6.5-54.7-104.85,20.55-215.65
				c0.05-0.05,0.05-0.05,0.05-0.05c16.05-23.65,33.1-47.9,49.8-71.9c13.25-105.45,40.2-201.2,82.7-283.25
				c69.15-133.8,179.55-231.4,338.8-275.85l8.65-2.4c99.7-26.35,218.15-32.25,357.3-13.7c0,0,0-0.05,0.05-0.1
				c0.4-1.7,5.9-24.3,18.1-57.25c34.6-93.25,123.05-269.45,302.15-289.75c224.15-25.4,244.05,151.7,250.35,261.05
				c2.05,35.6,9.25,70.75,22.05,104.05c5.2,13.35,11.5,27.25,19.2,40.5c30.75,53.05,55.55,232.3-151.25,312.25
				c0,0,6.25,11.5,14.5,31.05c15.5,36.8,37.9,102.15,38.55,173.4c17.55,12.5,33.25,24.9,47.25,37.05
				C2649.724,1836.286,2603.374,1939.536,2535.674,1888.486z"/>
		</g>
		<g>
			<path style="fill:#D4E4F9;" d="M2535.674,1888.486c16.15,82.95-45.45,167.6-72.4,93.05c0,0-144.3,174.35-374.85,221.95
				c-182.889,26.254-356.598,34.71-515.7,14.85c-291.1-19.3-430.4-164.6-430.4-164.6c-75.9,1.95-61.5-97.2-61.5-97.2
				c-108.15-6.5-54.7-104.85,20.55-215.65c-1.8,3.45-96.25,182.1,21.6,172.15c0,0-14.9,76.4,76.6,68.5
				c0,0,152.65,213.65,641.05,165.4c488.4-48.25,584-233.9,584-233.9c38.8,1.05,69.4-13.7,68.4-88.9
				c48.3,14.6,52.9-19.05,0.05-116.05c0,0,2.35-0.75,6.55-2.1C2649.724,1836.286,2603.374,1939.536,2535.674,1888.486z"/>
		</g>
		<g>
			<path style="fill:#53657B;" d="M1938.674,1093.736c-166.15,97.45-289.1,370.75-289.1,370.75
				c-101.15-100.8-76.85-354.65-76.85-354.65l8.65-2.4C1681.074,1081.085,1799.524,1075.186,1938.674,1093.736z"/>
		</g>
		<g>
			<path style="fill:#53657B;" d="M1596.774,1103.585c-5.2,1.2-10.3,2.5-15.4,3.85l-8.65,2.4
				c-178.4,49.8-295.4,166.25-361.95,325.55l-0.05,0.05c-132.95-74.7-159.5-193.5-62.45-363.55c12.6-85.8,32.5-150.8,57.2-198
				c0-0.05,0.05-0.1,0.05-0.1c36.05-69.05,82.2-100.05,130.15-102.2c101.2-4.55,207.5,79.35,250.6,273.95h0.05
				C1590.374,1063.885,1593.874,1083.235,1596.774,1103.585z"/>
		</g>
		<g style="opacity:0.51;">
			<path style="fill:#FFFFFB;" d="M1586.274,1045.536c-87.65-188.05-233.25-315.9-380.75-171.75
				c36.05-69.05,82.2-100.05,130.15-102.2C1436.874,767.036,1543.174,850.936,1586.274,1045.536z"/>
		</g>
		<g>
			<path style="fill:#53657B;" d="M2399.324,1464.485c0,0,6.25,11.5,14.5,31.05c-7-4.3-11.95-9.1-14.5-14.3
				c-34.05-68.9-87.25-108.35-87.25-108.35s-75.9-60-161.2-11.4c-85.25,48.6-42.15,87.8-22.3,242.55
				c19.85,154.8-182,226.55-243.45,220.1c-61.5-6.4-67.95-8.9-105.75-148.25c-37.75-139.35,35.55-215.7,98.3-244.95
				c62.75-29.3,83.3-62.5,83.3-62.5c109.05-234.8-22.3-274.7-22.3-274.7s2.1-8.85,6.7-23.7c23.05-74.45,109.4-300.25,313.6-323.4
				c110.45-12.5,171.3,24.1,205.35,77.6c35.1,55.05,41.8,127.95,45,183.45c2.05,35.6,9.25,70.75,22.05,104.05
				c5.2,13.35,11.5,27.25,19.2,40.5C2581.323,1205.286,2606.124,1384.536,2399.324,1464.485z"/>
		</g>
		<g style="opacity:0.51;">
			<path style="fill:#FFFFFB;" d="M2464.324,824.235c-188.8-113-401.197-4.725-514.25,250.5l-4.7-4.7
				c23.05-74.45,109.4-300.25,313.6-323.4C2369.424,734.135,2430.274,770.735,2464.324,824.235z"/>
		</g>
		<g>
			<path style="fill:#53657B;" d="M1477.975,1145.1c0,0-95.674,97.882-17.823,200.031
				c77.851,102.149,115.537,169.091,105.124,267.769c-10.413,98.678-96.198,178.016-172.562,165.124
				c-76.364-12.893-136.364-117.521-138.843-196.859c-2.479-79.339,54.545-142.81,67.934-181.984
				c13.389-39.174-26.895-92.902-49.398-77.939C1272.406,1321.241,1372.327,1176.64,1477.975,1145.1z"/>
		</g>
		<g style="opacity:0.51;">
			<path style="fill:#FFFFFB;" d="M1938.674,1093.736v41.65c-492.65-84.05-704.15,254.35-704.15,254.35l-0.6-4.05
				c69.15-133.8,179.55-231.4,338.8-275.85l8.65-2.4C1681.074,1081.085,1799.524,1075.186,1938.674,1093.736z"/>
		</g>
		<g>
			<path style="fill:#FE6883;" d="M1386.323,1200.885l-75.2,70.5c-91.5,4.95-121.45-47.7-52.8-192.55
				c-5.35-107.4,18.35-157.7,38.15-180.75c13-15.25,24.35-18.55,24.35-18.55s107.1-33.5,114.55,188.9
				c-24.85,1.2-48.1,10.35-62.95,21.55c-23.45,17.55-26.2,40.1,17.8,44.4C1334.224,1158.786,1319.574,1209.036,1386.323,1200.885z"
				/>
		</g>
		<g>
			<path style="fill:#E84D6F;" d="M1372.424,1089.986c9.35-138.4-43.8-179.6-75.95-191.9c13-15.25,24.35-18.55,24.35-18.55
				s107.1-33.5,114.55,188.9C1410.524,1069.635,1387.274,1078.786,1372.424,1089.986z"/>
		</g>
		<g>
			<path style="fill:#FE6883;" d="M2276.824,1368.436c-33.2-46.6-84.3-88.25-84.3-88.25c34.4-26.25,19.5-45.15-32.7-58.55
				c42.6-17.7,53.25-51.1,29.3-73c-15.6-14.35-45.95-23.75-91.8-20.7c72.15-268.5,236.55-266.3,236.55-266.3s31.75-1.25,49.95,32.25
				c16.3,29.9,21.8,87.45-15.75,198.35C2461.824,1276.685,2384.624,1421.586,2276.824,1368.436z"/>
		</g>
		<g>
			<path style="fill:#E84D6F;" d="M2383.823,893.885c0,0-161.5-11.3-191.3,251.2c0,0-1.2,1.3-3.4,3.55
				c-15.6-14.35-45.95-23.75-91.8-20.7c72.15-268.5,236.55-266.3,236.55-266.3S2365.624,860.385,2383.823,893.885z"/>
		</g>
		<g>
			<g>
				<ellipse style="fill:#06096A;" cx="1418.205" cy="1590.496" rx="132.443" ry="139.551"/>
			</g>
			<g>
				
					<ellipse transform="matrix(0.9857 -0.1687 0.1687 0.9857 -244.9087 270.1224)" style="fill:#FFFFFB;" cx="1467.331" cy="1576.453" rx="44.025" ry="51.278"/>
			</g>
			<g style="opacity:0.33;">
				
					<ellipse transform="matrix(0.9371 -0.3489 0.3489 0.9371 -485.5909 572.7596)" style="fill:#FFFFFB;" cx="1346.998" cy="1634.222" rx="27.649" ry="33.601"/>
			</g>
		</g>
		<g>
			<g>
				<ellipse style="fill:#06096A;" cx="1911.839" cy="1604.047" rx="132.443" ry="139.551"/>
			</g>
			<g>
				
					<ellipse transform="matrix(0.9857 -0.1687 0.1687 0.9857 -240.1182 353.5861)" style="fill:#FFFFFB;" cx="1960.964" cy="1590.004" rx="44.025" ry="51.278"/>
			</g>
			<g style="opacity:0.33;">
				
					<ellipse transform="matrix(0.9371 -0.349 0.349 0.9371 -459.2931 745.8716)" style="fill:#FFFFFB;" cx="1840.632" cy="1647.773" rx="27.649" ry="33.601"/>
			</g>
		</g>
		<g>
			<g>
				<polygon style="fill:#FFFFFB;" points="1680.069,1865.922 1668.54,1913.023 1608.664,1913.023 1596.763,1863.932 
					1628.375,1835.538 				"/>
			</g>
			<g>
				<path style="fill:#06096A;" d="M1687.786,1765.1c-1.625,23.403-31.023,42.25-62.386,40.057
					c-31.158-2.178-52.686-22.195-52.686-42.411c0-21.502,25.397-21.913,56.617-21.913
					C1660.551,1740.833,1689.181,1745.017,1687.786,1765.1z"/>
			</g>
			<g>
				<path style="fill:#FFFFFB;" d="M1661.722,1760.553c0,6.92-14.542,12.529-32.479,12.529s-32.479-5.61-32.479-12.529
					s14.542-9.213,32.479-9.213S1661.722,1753.633,1661.722,1760.553z"/>
			</g>
			<g>
				<path style="fill:#06096A;" d="M1644.065,1800.159c-5.552,51.293,54.053,73.488,73.942,20.51
					c2.154-5.059,8.001-7.416,13.061-5.263c12.357,5.728,2.2,24.05-1.536,33.378c-23.039,45.539-85.579,39.526-107.992-3.389
					c-8.548-15.572-10.159-33.804-7.121-49.838C1618.432,1776.761,1645.97,1781.138,1644.065,1800.159L1644.065,1800.159z"/>
			</g>
			<g>
				<path style="fill:#06096A;" d="M1643.363,1810.019c3.778,48.878-44.572,87.45-86.779,51.995
					c-10.342-9.231-16.294-20.859-20.167-32.283c-1.764-5.203,1.024-10.851,6.227-12.615c4.594-1.568,9.435,0.451,11.82,4.405
					c5.616,8.107,11.844,15.139,18.614,19.517c13.125,8.372,26.541,5.789,34.141-7.454c3.712-6.348,5.693-14.979,6.202-23.902
					C1615.022,1790.987,1642.225,1791.376,1643.363,1810.019L1643.363,1810.019z"/>
			</g>
			<g>
				<path style="fill:#06096A;" d="M1605.441,1861.829c5.783,15.888,10.544,32.061,14.975,48.345c0,0-11.751-9.243-11.751-9.243
					c19.958-0.557,39.917-0.494,59.875,0.083l-11.664,9.153c4.383-15.568,8.941-31.094,14.521-46.369
					c1.702-4.66,6.86-7.058,11.52-5.356c4.025,1.47,6.359,5.523,5.825,9.601c-2.106,16.125-5.234,32.001-8.537,47.833
					c-1.105,5.295-5.693,8.971-10.871,9.132c-10.243,0.322-20.488,0.449-30.731,0.497c-9.979-0.037-19.958-0.073-29.937-0.391
					c-5.695,0.111-10.618-3.872-11.752-9.244c-3.517-16.506-6.691-33.063-8.826-49.836c-0.61-4.926,2.888-9.414,7.814-10.025
					C1600.127,1855.487,1604.032,1857.995,1605.441,1861.829L1605.441,1861.829z"/>
			</g>
		</g>
		<g>
			<ellipse style="fill:#F296AB;" cx="1919.821" cy="1848.932" rx="111.074" ry="51.074"/>
		</g>
		<g>
			<ellipse style="fill:#F296AB;" cx="1321.805" cy="1824.156" rx="111.074" ry="51.074"/>
		</g>
		<g>
			<path style="fill:#06096A;" d="M1572.113,2227.546c-143.417,6.95-336.448-64.75-440.617-163.428
				c-0.008-0.007,11.285,4.634,11.191,4.613c-55.536,2.109-79.47-45.678-77.932-95.748c0.087-6.195,0.355-11.8,1.225-18.602
				l13.943,17.128l-12.442-1.215c-8.607-1.414-17.48-3.132-25.591-6.597c-65.462-26.653-28.844-107.054-3.865-150.411
				c30.238-53.58,66.188-102.675,100.884-152.913c0,0-2.566,6.691-2.566,6.691c17.648-139.545,61.613-282.09,152.559-392.564
				c90.289-112.682,228.099-178.8,369.615-197.902c93.966-13.365,189.067-9.984,282.14,2.268l-16.58,11.423
				c4.003-15.908,8.647-30.499,13.794-45.401c53.554-155.627,168.324-311.352,347.314-315.255
				c176.396-7.867,231.719,115.213,238.733,270.932c1.467,29.604,5.965,58.543,14.847,86.743
				c6.52,20.912,15.394,41.395,26.381,60.36c18.866,37.228,23.423,79.939,19.451,120.623
				c-9.852,102.587-87.238,175.638-179.863,210.184c0.001,0.001,7.771-21.152,7.771-21.152
				c33.042,65.724,53.544,137.506,54.87,211.474c-0.001,0-6.291-12.075-6.291-12.075c63.748,45.884,156.765,128.194,152.879,213.798
				c-2.627,34.174-31.854,55.272-64.815,42.478c-8.701-3.039-15.682-7.774-22.504-12.537l23.754-14.843
				c7.37,41.747,0.975,87.404-26.032,121.482c-28.954,33.528-62.97,16.917-75.197-20.467c0,0.001,25.662,4.465,25.662,4.465
				c-18.379,22.301-38.447,41.78-59.786,60.948c-63.351,55.926-136.589,101.974-216.054,131.164
				c-35.168,13.491-72.067,21.965-108.942,28.135c-4.37,0.731-8.506-2.219-9.237-6.589c-0.718-4.209,2.001-8.099,5.991-9.134
				c12.656-3.771,26.414-8.349,39.145-11.986c8.836-2.747,29.274-10.955,38.333-13.94c24.101-9.864,50.542-22.192,73.847-34.103
				c78.888-42.446,152.882-98.035,213.732-163.777c5.714-6.245,15.409-6.675,21.654-0.961c1.748,1.602,3.07,3.585,3.899,5.653
				c2.249,6.096,5.127,11.767,8.128,15.28c0.73,0.913,1.46,1.428,2.098,2.103c0.627,0.318,1.207,0.939,1.616,0.964
				c0.906,0.347,1.142,0.54,2.196,0.261c7.232-1.962,16.601-14.9,20.138-23.532c11.363-24.394,14.369-53.644,9.363-80.234
				c-2.718-12.926,12.902-22.686,23.341-15.127c10.403,7.288,26.578,16.964,35.658,4.642
				c20.85-44.681-40.198-116.939-71.805-146.799c-19.974-19.146-41.758-36.639-64.48-52.92c-4.035-2.877-6.218-7.475-6.291-12.077
				c-1.085-68.097-20.746-136.77-51.301-197.561c-4.216-7.849-0.468-17.84,7.842-21.017c27.501-10.698,53.606-24.449,76.903-41.657
				c22.883-17.388,42.899-38.442,57.462-63.186c32.117-54.219,37.643-126.687,10.463-183.738
				c-19.966-34.596-33.096-72.96-39.759-112.268c-7.083-45.087-5.582-92.036-16.023-136.049
				c-14.83-73.124-54.874-134.573-131.738-149.367c-143.536-25.61-255.674,48.156-328.135,168.79
				c-30.675,50.664-54.637,106.973-69.816,164.158c-1.795,7.576-9.049,12.427-16.581,11.424c-91.06-12-183.554-15.174-273.898-2.314
				c-89.629,12.813-177.559,43.006-251.939,95.267c-160.08,112.593-219.065,290.608-247.311,475.942
				c-32.327,49.776-144.714,191.433-126.6,244.165c8,15.742,26.043,18.246,44.781,19.899c8.227,0.447,14.534,7.479,14.086,15.706
				c-4.139,33.594,1.808,84.396,46.114,81.47c4.362-0.021,8.347,1.78,11.228,4.616c55.472,51.901,124.73,87.422,195.667,113.557
				c16.403,5.157,38.489,13.058,54.882,17.016c21.006,6.469,48.392,11.823,69.917,16.843c33.387,5.895,66.495,10.671,99.716,18.354
				C1584.091,2211.25,1582.794,2226.935,1572.113,2227.546L1572.113,2227.546z"/>
		</g>
		<g>
			<path style="fill:#06096A;" d="M1518.665,2497.563c-54.502,9.36-60.05-41.157-44.455-80.99c-0.001,0,21.652,13.838,21.652,13.838
				c-23.285,23.502-56.219,47.425-91.354,33.789c-23.16-11.109-36.708-33.333-39.39-58.327
				c-2.121-34.379,26.43-59.397,54.026-73.246c2.49-1.233,4.648-2.259,7.724-3.519l3.962,28.811
				c-12.772-1.581-24.25-3.978-36.257-7.357c-18.295-5.351-37.775-13.01-51.912-27.698c-17.57-16.847-18.374-47.415-2.709-65.91
				c26.754-30.544,71.758-30.65,108.331-29.672c11.972,0.697,23.508,1.81,35.666,3.747l-12.935,8.167
				c3.604-10.992,7.347-21.942,11.083-32.893c1.912-5.603,8.004-8.596,13.607-6.684c5.37,1.832,8.332,7.537,6.889,12.938
				c-3.014,11.172-6.022,22.346-9.169,33.477c-1.603,5.721-7.278,9.094-12.937,8.168c-31.722-2.836-66.161-3.77-96.391,6.105
				c-16.112,5.084-30.026,17.586-25.799,33.673c9.948,22.873,51.434,30.539,75.712,34.167c15.199,1.837,17.84,23.151,3.889,28.801
				c-18.988,8.789-43.793,24.201-43.249,47.227c0.343,11.677,10.486,29.041,21.309,33.718c21.484,8.019,44.459-10.358,60.799-25.304
				c5.088-5.392,13.703-5.505,18.88-0.18c3.733,3.821,4.643,9.357,2.773,14.016c-4.369,11.181-8.772,26.836-6.714,38.391
				c1.903,11.772,12.68,12.404,23.994,11.528C1529.517,2474.876,1532.412,2495.119,1518.665,2497.563L1518.665,2497.563z"/>
		</g>
		<g>
			<path style="fill:#06096A;" d="M2333.725,872.373c-125.823,16.546-192.631,148.288-221.941,259.447
				c0,0.001-15.435-18.801-15.435-18.801c42.286-2.598,106.803,2.954,119.142,53.289c5.746,33.003-23.047,57.913-50.211,68.487
				c0,0-1.927-26.915-1.927-26.915c8.201,2.239,16.41,4.716,24.702,8.055c40.958,15.031,50.388,47.448,12.428,74.64
				c0.001,0,0.335-20.543,0.335-20.543c8.206,6.977,15.755,13.856,23.263,21.142c22.48,21.871,43.753,45.043,61.49,71.043
				c3.368,4.865,2.155,11.539-2.71,14.908c-4.785,3.321-11.336,2.176-14.74-2.47c-11.956-15.593-25.31-30.377-39.469-44.432
				c-14.024-13.871-29.214-27.507-44.372-39.911c-5.6-4.536-6.463-12.754-1.927-18.354c5.229-5.137,15.46-12.397,15.148-17.944
				c-8.081-10.727-27.679-14.717-41.21-18.576c-7.605-1.88-12.245-9.57-10.364-17.174c1.136-4.585,4.364-8.075,8.436-9.74
				c20.68-8.469,45.764-29.524,24.862-49.112c-20.259-17.123-54.06-17.973-80.89-16.549c-8.28,0.605-15.483-5.708-15.947-14.001
				c23.211-95.186,70.688-192.875,156.056-247.158c21.37-13.059,44.845-23.099,69.538-28.019c8.871-1.614,16.582-2.781,26.033-2.738
				c5.91,0.049,10.661,4.879,10.612,10.789C2344.596,867.737,2339.613,872.423,2333.725,872.373L2333.725,872.373z"/>
		</g>
		<g>
			<path style="fill:#06096A;" d="M1210.716,1450.429c-2.489,0-5.011-0.62-7.334-1.926
				c-64.733-36.37-105.454-83.342-121.034-139.607c-18.613-67.222-1.293-148.621,51.475-241.958
				c39.43-263.848,142.896-307.717,201.196-310.347c104.367-4.656,239.42,82.803,276.596,344.907
				c1.163,8.203-4.542,15.796-12.744,16.958c-8.202,1.165-15.795-4.543-16.958-12.744
				c-34.349-242.188-153.685-323.296-245.543-319.15c-83.835,3.779-146.993,108.579-173.278,287.527
				c-0.272,1.848-0.887,3.633-1.814,5.256c-49.756,87.175-66.584,161.716-50.017,221.545
				c13.369,48.281,49.308,89.145,106.816,121.46c7.223,4.058,9.788,13.201,5.73,20.425
				C1221.054,1447.672,1215.962,1450.429,1210.716,1450.429z"/>
		</g>
		<g>
			<path style="fill:#06096A;" d="M1317.617,869.284c23.934-7.333,50.767-0.614,70.136,14.516
				c51.998,43.331,59.387,121.154,62.514,184.137c0.317,8.175-6.059,15.064-14.216,15.399c-23.123,1.446-51.243,9.695-65.368,28.507
				c-1.479,2.539-0.766,2.539-1.269,2.187c-0.002,0.561,3.254,3.032,7.495,4.345c4.358,1.499,9.684,2.49,15.008,3.125
				c13.071,1.478,15.492,19.87,3.51,24.804c-15.303,6.584-33.795,17.771-40.5,32.42c-1.322,3.129-1.235,5.281-0.906,6.065
				c0.167,0.834,1.674,2.445,4.982,3.693c6.646,2.538,16.657,2.695,26.125,1.782c13.8-1.047,16.145,19.089,2.49,21.281
				c-59.189,10.194-77.199-34.237-32.13-71.026c9.12-7.485,19.11-13.383,29.552-18.049l3.939,24.856
				c-10.23-0.904-21.249-2.578-30.981-7.964c-15.129-7.616-20.575-26.186-12.105-40.844c11.122-19.61,30.677-29.78,50.022-37.237
				c12.415-4.473,25.455-7.052,38.75-7.745l-14.214,15.398c-3.09-59.211-11.91-180.14-90.734-179.828
				c-2.405,0.006-5.032,0.605-7.395,0.871C1309.47,891.669,1305.347,873.292,1317.617,869.284L1317.617,869.284z"/>
		</g>
		<g>
			<path style="fill:#EF9EAF;" d="M2458.674,3202.186c-5.1,17.55-20.35,30.1-38.3,33.2c-124.3,21.4-262.7,20.55-407.35,9.9
				c0,0-54.9-13.4-42.05-66.45c0,0,68.3-16.3,133.8-66.45c22.6-17.3,57.85-31.65,97.3-40.4h0.05
				c82.5-18.35,183.55-12.55,227.45,40.4c17.2,20.75,25.95,38.9,29.55,54.35C2462.474,3180.785,2461.474,3192.635,2458.674,3202.186
				z"/>
		</g>
		<g>
			<path style="fill:#E27D95;" d="M2458.674,3202.186c-5.1,17.55-20.35,30.1-38.3,33.2c-124.3,21.4-262.7,20.55-407.35,9.9
				c0,0-54.9-13.4-42.05-66.45c0,0,68.3-16.3,133.8-66.45c22.6-17.3,57.85-31.65,97.3-40.4h0.05c0,0-79.85,51.85-78.75,109.2
				c1,51.9,280.55,26.9,335.75-14.45C2462.474,3180.785,2461.474,3192.635,2458.674,3202.186z"/>
		</g>
		<g>
			<path style="fill:#06096A;" d="M2195.028,3267.606c-55.903,0-116.533-2.458-183.083-7.351c-0.828-0.059-1.649-0.188-2.455-0.386
				c-24.022-5.862-66.035-31.074-53.108-84.548c1.325-5.479,5.608-9.751,11.089-11.062c1.086-0.266,66.421-16.499,128.193-63.767
				c71.021-54.346,271.422-86.958,345.457,2.336c38.063,45.908,38.396,81.675,31.973,103.599
				c-6.582,22.463-26.285,39.639-50.198,43.757C2355.208,3261.833,2280.667,3267.606,2195.028,3267.606z M2015.56,3230.441
				c165.302,12.073,293.16,8.95,402.246-9.822c12.71-2.188,23.112-11.072,26.498-22.627c6.277-21.426-2.81-47.71-26.277-76.013
				c-57.966-69.917-237.009-49.028-304.131,2.336c-53.322,40.803-107.913,59.915-129.698,66.431
				C1982.145,3218.72,2007.657,3228.192,2015.56,3230.441z"/>
		</g>
		<g>
			<path style="fill:#06096A;" d="M2274.476,3245.975c13.064-35.698-0.994-61.353-39.973-64.707
				c-8.908-1.053-8.099-14.267,0.858-14.26c43.408-0.583,70.965,27.471,65.699,71.455c-0.655,5.679-1.39,10.345-3.094,16.115
				C2292.386,3271.177,2268.01,3262.273,2274.476,3245.975L2274.476,3245.975z"/>
		</g>
		<g>
			<path style="fill:#06096A;" d="M2378.036,3228.573c7.037-25.31,1.631-56.525-22.046-71.307
				c-3.107-2.588-8.634-4.869-12.221-6.744c-6.476-3.67-22.022-3.286-19.041-14.201c1.238-3.464,4.922-5.363,8.418-4.496
				c10.657,2.366,22.224,5.264,31.707,10.975c32.594,16.783,44.331,57.884,37.36,92.13
				C2398.116,3251.757,2373.324,3245.276,2378.036,3228.573L2378.036,3228.573z"/>
		</g>
		<g>
			<path style="fill:#EF9EAF;" d="M1388.274,3252.585c-70-7.45-132.2-12-173.85-14.55c-33.9-2.1-54.25-2.9-54.25-2.9
				c-108.1-12.15-84.3-90.5,35.7-143.55c41.85-18.5,97.3-22.7,152.2-17.5c102.65,9.7,203.5,52.25,210.25,95.85
				C1568.724,3236.885,1515.174,3266.135,1388.274,3252.585z"/>
		</g>
		<g>
			<path style="fill:#E27D95;" d="M1388.274,3252.585c-70-7.45-132.2-12-173.85-14.55c0-1.5,0.05-2.4,0.05-2.65
				c0-2.65,236.5,6.8,243.95-58.25c7.45-65.1-110.35-103.05-110.35-103.05c102.65,9.7,203.5,52.25,210.25,95.85
				C1568.724,3236.885,1515.174,3266.135,1388.274,3252.585z"/>
		</g>
		<g>
			<path style="fill:#06096A;" d="M1443.37,3270.822c-17.152,0-36.038-1.106-56.709-3.308
				c-124.929-13.311-226.087-17.356-227.094-17.395c-0.364-0.015-0.729-0.042-1.09-0.081c-65.247-7.334-79.318-36.65-81.898-53.472
				c-6.083-39.658,37.296-85.144,113.209-118.708c90.958-40.212,242.14-18.005,326.27,27.961
				c34.435,18.816,53.645,39.609,57.097,61.799c4.539,29.175-1.605,52.83-18.259,70.308
				C1533.922,3259.936,1497.201,3270.822,1443.37,3270.822z M1161.305,3220.165c8.399,0.347,107.432,4.614,228.535,17.52
				c92.926,9.895,129.241-5.659,143.337-20.454c10.028-10.522,13.408-25.244,10.334-45.002c-1.86-11.96-17.111-26.57-41.838-40.083
				c-76.259-41.67-218.117-62.937-299.753-26.851c-67.008,29.629-98.858,66.055-95.687,86.724
				C1108.368,3205.934,1128.939,3216.442,1161.305,3220.165z"/>
		</g>
		<g>
			<path style="fill:#06096A;" d="M1270.946,3253.722c-30.704-14.994-44.578-50.885-19.424-77.673
				c15.258-13.132,36.488-15.52,54.172-17.8c14.231-1.42,28.153-1.867,42.446-1.478c9.05,0.373,9.183,13.771,0.112,14.277
				c-13.352,0.52-27.076,1.875-40.251,4.105c-15.468,3.112-31.373,5.821-42.162,15.607c-12.184,16.601-1.295,32.942,15.355,40.159
				C1297.368,3237.636,1286.74,3261.348,1270.946,3253.722L1270.946,3253.722z"/>
		</g>
		<g>
			<path style="fill:#06096A;" d="M1158.337,3245.167c-25.642-23.417-24.784-71.02,3.849-91.484
				c13.709-10.138,30.474-14.993,46.908-17.91c6.462-1.107,12.699-1.867,19.493-2.231c3.937-0.211,7.3,2.809,7.511,6.746
				c0.217,3.882-2.734,7.173-6.532,7.506c-20.637,3.097-42.983,8.717-58.437,23.302c-1.244,1.655-3.483,3.837-4.284,5.698
				c-8.26,15.058-6.113,37.479,7.065,48.816C1186.543,3236.174,1171.498,3255.125,1158.337,3245.167L1158.337,3245.167z"/>
		</g>
		<g>
			<path style="fill:#06096A;" d="M2848.517,1883.254c2.215,36.17-2.397,75.964-27.651,103.872
				c-7.24,7.67-19.274-2.074-13.312-10.73c17.619-25.226,16.786-59.304,11.342-88.396
				C2814.924,1867.16,2845.756,1862.175,2848.517,1883.254L2848.517,1883.254z"/>
		</g>
		<g>
			<path style="fill:#06096A;" d="M980.852,1816.484c-16.797,30.728-18.446,71.035,3.861,99.555
				c5.84,8.834-6.601,18.323-13.566,10.351c-29.086-30.226-33.505-76.774-20.164-115.303c0.941-2.762,1.819-5.256,3.275-8.514
				c3.369-7.591,12.254-11.014,19.845-7.645C982.349,1798.513,985.566,1808.838,980.852,1816.484L980.852,1816.484z"/>
		</g>
		<g>
			<path style="fill:#06096A;" d="M845.511,1783.667c28.93,19.4,55.51,41.074,76.357,69.309c6.175,8.76-6.136,18.649-13.349,10.756
				c-21.56-22.545-49.723-40.07-77.614-53.851C812.172,1800.078,827.27,1772.887,845.511,1783.667L845.511,1783.667z"/>
		</g>
	</g>
</g>
</svg>
