<?xml version="1.0" encoding="utf-8"?>
<!-- Generator: Adobe Illustrator 27.5.0, SVG Export Plug-In . SVG Version: 6.00 Build 0)  -->
<svg version="1.1" xmlns="http://www.w3.org/2000/svg" xmlns:xlink="http://www.w3.org/1999/xlink" x="0px" y="0px"
	 viewBox="0 0 3710 3710" style="enable-background:new 0 0 3710 3710;" xml:space="preserve">
<g id="Background">
	<g>
		<g>
			<rect style="fill:#FFFFFF;" width="3710" height="3710"/>
		</g>
	</g>
</g>
<g id="Illustration">
	<g>
		<path style="fill:#F4F7FA;" d="M3156.469,1252.867c74.719-680.547-585.066-916.981-1052.803-742.733
			c-471.532,175.662-580.849-115.53-1243.896-32.331C188.4,562.045,529.265,1615.927,529.265,1615.927
			S636.09,2532.344,762.65,2954.759c125.875,420.131,1330.766,268.13,1623.874,255.593c291.421-12.466,544.65,11.595,798.2-449.706
			C3437.809,2300.186,3081.997,1931.158,3156.469,1252.867z"/>
		<g>
			<defs>
				<rect id="SVGID_1_" x="513.6" y="543.878" width="1500.067" height="2140.973"/>
			</defs>
			<clipPath id="SVGID_00000096017354070586835930000003052394917094546600_">
				<use xlink:href="#SVGID_1_"  style="overflow:visible;"/>
			</clipPath>
			<g style="clip-path:url(#SVGID_00000096017354070586835930000003052394917094546600_);">
				<g>
					<defs>
						<path id="SVGID_00000136381675233090156320000017901346122598899100_" d="M1352.225,3253.958
							c-193.014-397.096,78.137-583.979,182.401-685.117c157.238-152.524,243.716-379.749,16.212-493.513
							c-227.503-113.764,7.349-570.346,289.085-767.135c275.699-192.572,162.933-963.33-464.175-620.278
							c-374.508,204.87-321.94,730.793-342.852,1002.999c-20.912,272.206-327.822,277.645-226.512,617.275
							c86.537,290.106,200.491,642.827,68.36,831.549C742.614,3328.46,1446.826,3448.583,1352.225,3253.958z"/>
					</defs>
					<clipPath id="SVGID_00000021095061519010294790000004244495942800899254_">
						<use xlink:href="#SVGID_00000136381675233090156320000017901346122598899100_"  style="overflow:visible;"/>
					</clipPath>
					
						<linearGradient id="SVGID_00000146471382882168914530000006633501541679233434_" gradientUnits="userSpaceOnUse" x1="1677.7865" y1="1080.6243" x2="817.1299" y2="3338.0898">
						<stop  offset="0" style="stop-color:#FCB148"/>
						<stop  offset="0.0521" style="stop-color:#FDBA46"/>
						<stop  offset="0.1424" style="stop-color:#FFC244"/>
						<stop  offset="0.3183" style="stop-color:#FFC444"/>
						<stop  offset="0.4849" style="stop-color:#FDB946"/>
						<stop  offset="0.7754" style="stop-color:#F99C4D"/>
						<stop  offset="0.8658" style="stop-color:#F8924F"/>
						<stop  offset="1" style="stop-color:#F8924F"/>
					</linearGradient>
					
						<path style="clip-path:url(#SVGID_00000021095061519010294790000004244495942800899254_);fill:url(#SVGID_00000146471382882168914530000006633501541679233434_);" d="
						M1839.922,1308.193c-281.734,196.787-472.642,593.314-262.766,758.049c185.496,145.596,114.708,350.074-42.529,502.598
						c-78.26,75.912-250.523,200.131-249.984,425.277c-14.019-2.136,130.379,360.68,116.162,364.449
						c-63.409,16.81-189.373-37.268-192.289,45.768L831.88,3249.842c9.241-88.017,43.607-169.189,96.974-245.415
						c132.13-188.722-35.933-406.132-122.471-696.24c-101.308-339.629,205.603-345.069,226.513-617.274
						c20.911-272.205-31.656-798.127,342.854-1003C2002.857,344.862,2115.625,1115.62,1839.922,1308.193z"/>
					<path style="clip-path:url(#SVGID_00000021095061519010294790000004244495942800899254_);fill:#BEB8F2;" d="M2052.685,790.653
						l-1.473-10.919c-285.192,57.539-510.303,249.735-669.071,571.234c-19.217,38.917-37.457,79.761-54.744,122.438
						c-26.142-365.153,81.326-863.253,82.428-868.31l-8.004-3.344c-1.123,5.152-112.005,519.032-81.564,887.526l0.853-0.094
						c-93.378,236.239-157.665,528.208-191.45,870.64c-6.782,68.749-12.077,137.274-16.138,204.986
						c-61.819-318.284-313.688-546.211-316.324-548.562l-4.516,9.108c2.703,2.413,270.421,244.722,318.713,576.716
						c-3.967,74.07-6.472,146.999-7.815,217.998c-0.005,0.025-0.012,0.049-0.017,0.074l0.014,0.005
						c-2.396,126.745-1.093,247.316,2.25,357.068l8.25-2.187c-3.278-108.617-4.548-227.803-2.2-353.045
						c99.373-513.98,633.923-611.541,639.207-611.912l-0.125-11.032c-5.085-0.282-518.192,96.046-638.115,579.156
						c3.41-134.479,11.116-275.209,25.098-416.862c35.764-362.346,117.808-772.324,296.349-1085.048
						c281.403-211.786,539.817-87.236,542.405-85.947l2.738-10.321c-2.573-1.288-254.088-122.695-532.199,74.076
						C1585.85,1021.012,1780.402,845.592,2052.685,790.653z M856.307,3053.153l-6.302,6.986c1.508,2.367,6.257,7.354,17.806,19.411
						c24.34,25.401,69.534,72.604,115.147,130.241l9.782-2.593c-47.303-60.466-94.668-109.929-119.889-136.252
						C864.554,3062.285,857.391,3054.812,856.307,3053.153z"/>
				</g>
			</g>
			<g style="clip-path:url(#SVGID_00000096017354070586835930000003052394917094546600_);">
				
					<linearGradient id="SVGID_00000147219413700093465580000008220321849293166478_" gradientUnits="userSpaceOnUse" x1="4110.4448" y1="1102.0391" x2="3543.8054" y2="3569.8997" gradientTransform="matrix(-1 0 0 1 4947.2104 0)">
					<stop  offset="0" style="stop-color:#FF9085"/>
					<stop  offset="1" style="stop-color:#FB6FBB"/>
				</linearGradient>
				<path style="fill:url(#SVGID_00000147219413700093465580000008220321849293166478_);" d="M1373.617,2649.344
					c-22.469-18.577,20.509,60.501-9.249,60.501c-61.17,0-30.573,56.033-199.415,17.637H693.041
					c34.568-142.225,144.492-286.908,182.001-362.472c79.155-159.458,99.862-229.734-64.26-559.316
					c-274.043-426.292-301.573-829.265-116.93-951.013c187.085-123.359,374.888,22.5,443.534,244.175
					c43.921,141.829,183.068,52.966,265.276,234.641c72.155,159.463-69.541,413.483-120.383,556.192
					C1149.48,2262.439,1318.184,2440.497,1373.617,2649.344z"/>
				<g>
					<defs>
						<path id="SVGID_00000075863539081338324130000005662358867799151745_" d="M1345.881,2961.666
							c178.904-402.292-254.763-535.415-63.601-1071.976c50.843-142.709,192.538-396.729,120.381-556.192
							c-82.208-181.674-221.356-92.811-265.276-234.641c-68.645-221.675-256.45-367.534-443.532-244.176
							C509.211,976.43,536.74,1379.402,810.78,1805.695c164.122,329.582,143.418,399.858,64.263,559.316
							c-55.444,111.692-269.341,374.409-163.761,556.962C816.863,3104.526,1279.944,3109.935,1345.881,2961.666z"/>
					</defs>
					<clipPath id="SVGID_00000088096155385734174390000000461251730390656180_">
						<use xlink:href="#SVGID_00000075863539081338324130000005662358867799151745_"  style="overflow:visible;"/>
					</clipPath>
					<path style="clip-path:url(#SVGID_00000088096155385734174390000000461251730390656180_);fill:#FCFDFE;" d="M1063.755,2118.067
						c-25.595-365.382,298.714-889.361,301.995-894.609l-6.66-4.736c-3.063,4.905-284.896,460.297-303.729,820.272
						c-9.598-84.726-21.522-168.28-35.81-250.409c-10.51-60.414-22.341-120.129-35.369-179.08l0.046-0.023
						c-0.031-0.074-0.068-0.147-0.1-0.222c-24.239-109.643-52.753-216.543-85.373-319.869l0.125-0.018
						c-24.844-202.301-6.982-420.975-1.112-492.832c1.42-17.395,1.901-23.519,1.723-25.683l-7.971,0.756
						c0.116,1.654-0.695,11.598-1.726,24.187c-5.454,66.773-21.228,259.912-3.688,449.536c0.085,0.922-1.186,1.179-1.477,0.3
						c-8.036-24.349-16.283-48.505-24.779-72.423c-48.135-135.52-102.994-262.65-163.069-377.85
						c-10.468-20.078-22.221-39.987-33.593-59.24c-15.147-25.652-30.812-52.177-43.539-79.309l-7.154,3.823
						c12.901,27.505,28.671,54.209,43.921,80.036c11.311,19.158,23.009,38.968,33.37,58.841
						c59.889,114.838,114.586,241.586,162.584,376.725c45.857,129.122,85.055,264.692,117.212,404.922
						c-96.102-159.82-397.382-278.21-410.888-283.45l-2.733,8.024c3.46,1.344,346.501,136.092,420.577,306.389
						c12.939,58.603,24.696,117.965,35.144,178.019c46.532,267.479,68.227,549.982,64.479,839.661
						c-0.419,32.406-1.261,64.995-2.32,97.675h8.006c1.055-32.64,1.898-65.191,2.316-97.561
						c2.25-173.758-4.712-344.911-20.61-511.84L1063.755,2118.067z M723.721,2570.257c1.449,1.439,64.988,65.247,135.051,157.226
						h10.154c-72.033-95.431-138.26-161.996-139.743-163.47L723.721,2570.257z"/>
				</g>
			</g>
		</g>
		<g>
			<g>
				<path style="fill:#97A6B7;" d="M2187.577,2898.345c-34.931-11.586-61.039-41.232-68.402-77.67l-50.841-251.629l-434.911,15.444
					l-53.525,262.141c-7.496,36.713,22.511,73.544,57.071,87.066l181.957,71.193c33.843,13.241,70.221,18.515,106.378,15.422
					l384.541-32.897c11.241-0.962,20.258-9.798,21.566-21.134c1.309-11.336,9.184-24.065-1.535-27.621L2187.577,2898.345z"/>
				
					<linearGradient id="SVGID_00000031180626917831993910000017002827193179665541_" gradientUnits="userSpaceOnUse" x1="1964.5671" y1="2667.2302" x2="1964.5671" y2="2909.7334">
					<stop  offset="0.494" style="stop-color:#EBEFF2"/>
					<stop  offset="1" style="stop-color:#FFFFFF"/>
				</linearGradient>
				<path style="fill:url(#SVGID_00000031180626917831993910000017002827193179665541_);" d="M2191.881,2883.042
					c-34.896-11.441-60.978-40.714-68.333-76.694l-50.79-248.466l-424.31,15.266l-53.471,258.846
					c-7.489,36.251,12.325,72.604,46.85,85.956l181.774,70.298c33.809,13.075,70.151,18.283,106.271,15.229l384.154-32.483
					c11.23-0.95,20.238-9.675,21.545-20.869c1.307-11.194-5.449-21.76-16.158-25.271L2191.881,2883.042z"/>
			</g>
			<g>
				<g>
					<path style="fill:#97A6B7;" d="M744.742,2736.292c-47.163,2.812-85.747-27.785-85.747-68.219v-1457.34
						c0-40.434,38.584-71.659,85.747-69.615l2181.104,94.505c34.626,1.5,62.664,30.694,62.664,65.082v1239.457
						c0,34.389-28.038,64.039-62.664,66.103L744.742,2736.292z"/>
					<path style="fill:#FFFFFF;" d="M764.344,2736.292c-47.163,2.812-85.747-27.785-85.747-68.219v-1457.34
						c0-40.434,38.584-71.659,85.747-69.615l2181.104,94.505c34.626,1.5,62.663,30.694,62.663,65.082v1239.457
						c0,34.389-28.037,64.039-62.663,66.103L764.344,2736.292z"/>
					<path style="opacity:0.3;fill:#D8DEE8;" d="M2945.448,1264.793l-2181.104-89.727c-25.214-1.037-45.714,15.623-45.714,37.214
						v1133.426v320.168c0,21.592,20.5,37.917,45.714,36.469l2181.104-125.249c18.559-1.066,33.566-16.884,33.566-35.335v-283.335
						v-958.842C2979.015,1281.131,2964.008,1265.556,2945.448,1264.793z"/>
					<path style="fill:#D8DEE8;" d="M764.344,2578.539c-9.816,0.485-17.811-5.954-17.811-14.351v-1350.83
						c0-8.397,7.995-14.915,17.811-14.526l2181.104,86.382c7.239,0.287,13.123,6.379,13.123,13.579v1158.216
						c0,7.2-5.884,13.351-13.123,13.708L764.344,2578.539z"/>
				</g>
				<path style="opacity:0.6;fill:#FFFFFF;" d="M2717.75,2516.059c-183.495-113.506-55.33-436.233-261.4-598.385
					c-207.757-163.479-500.096,37.027-645.626-132.275c-108.36-126.06,18.432-278.272-85.034-396.824
					c-162.257-185.916-577.621,69.781-768.453-113.378c-27.095-26.005-54.436-65.457-69.997-128.754l-122.897-5.325
					c-47.163-2.044-85.747,29.181-85.747,69.615v1457.34c0,40.434,38.584,71.031,85.747,68.219l2181.104-130.027
					c34.626-2.064,62.663-31.714,62.663-66.103v-22.036C2863.286,2567.269,2774.75,2551.319,2717.75,2516.059z"/>
			</g>
		</g>
		<g>
			<polygon style="fill:#FFFFFF;" points="972.837,2525.088 979.445,1290.097 2701.362,1344.797 2695.456,2448.758 			"/>
			
				<linearGradient id="SVGID_00000165211477594924738620000012574222581955097766_" gradientUnits="userSpaceOnUse" x1="1841.6191" y1="1343.3452" x2="1841.6191" y2="3659.4341" gradientTransform="matrix(1 0.0054 -0.0054 1 9.4659 -31.3807)">
				<stop  offset="0" style="stop-color:#38E8C7"/>
				<stop  offset="1" style="stop-color:#425F63"/>
			</linearGradient>
			<polygon style="fill:url(#SVGID_00000165211477594924738620000012574222581955097766_);" points="2667.806,2422.199 
				1007.651,2492.589 1013.913,1322.161 2673.427,1371.705 			"/>
			<g>
				<g>
					<polygon style="fill:#F4F7FA;" points="1893.25,2478.451 1871.592,2479.403 1877.755,1327.429 1899.405,1328.104 					"/>
				</g>
				<g>
					<path style="fill:#F4F7FA;" d="M1886.044,2092.249c-111.664,2.089-203.257-82.727-202.688-189.097
						c0.569-106.37,93.075-192.342,204.725-191.655c110.046,0.676,197.966,85.515,197.411,189.13
						C2084.938,2004.241,1996.104,2090.19,1886.044,2092.249z M1887.972,1731.998c-99.55-0.479-181.911,76.235-182.418,171.014
						c-0.507,94.779,81.038,170.464,180.6,168.734c98.284-1.707,177.721-78.402,178.217-170.988
						C2064.866,1808.174,1986.244,1732.471,1887.972,1731.998z"/>
				</g>
				<g>
					<g>
						<path style="fill:#F4F7FA;" d="M1006.588,1398.622l0.116-21.684c37.106,0.982,67.316-25.215,67.498-59.148l23.977,0.725
							C1097.931,1364.719,1056.976,1399.888,1006.588,1398.622z"/>
					</g>
					<g>
						<path style="fill:#F4F7FA;" d="M2673.059,1440.487c-40.796-1.025-73.98-34.684-73.756-76.583l19.661,0.594
							c-0.164,30.685,24.202,55.741,54.198,56.535L2673.059,1440.487z"/>
					</g>
				</g>
				<g>
					<g>
						<path style="fill:#F4F7FA;" d="M1091.916,2489.016l-23.986,1.017c0.182-33.933-29.758-58.219-66.878-56.781l0.116-21.684
							C1051.573,2409.684,1092.146,2445.892,1091.916,2489.016z"/>
					</g>
					<g>
						<path style="fill:#F4F7FA;" d="M2613.292,2424.51l-19.669,0.834c0.209-39.106,33.762-74.571,74.573-76.096l-0.104,19.454
							C2638.085,2369.864,2613.457,2393.826,2613.292,2424.51z"/>
					</g>
				</g>
				<g>
					<g>
						<g>
							<g>
								<path style="fill:#F4F7FA;" d="M1317.806,2193.989l-336.301,8.218l3.137-586.215l336.236,3.931L1317.806,2193.989z
									 M1005.866,2179.935l288.733-6.669l2.848-532.323l-288.682-2.988L1005.866,2179.935z"/>
							</g>
							<g>
								<path style="fill:#F4F7FA;" d="M1147.009,2069.233l-164.808,2.704l1.742-325.675l164.79,0.603L1147.009,2069.233z
									 M1006.562,2049.86l116.736-1.76l1.497-279.799l-116.726-0.271L1006.562,2049.86z"/>
							</g>
						</g>
						<g>
							<path style="fill:#F4F7FA;" d="M1305.33,2036.998l0.114-21.28c53.133-0.702,92.19-50.363,92.514-110.775
								c0.323-60.412-38.205-109.586-91.334-109.62l0.114-21.279c63.051,0.125,114.626,58.782,114.241,130.755
								C1420.593,1976.772,1368.387,2036.081,1305.33,2036.998z"/>
						</g>
					</g>
					<g>
						<g>
							<g>
								<path style="fill:#F4F7FA;" d="M2688.672,2160.49l-280.27,6.849l2.861-534.669l280.216,3.276L2688.672,2160.49z
									 M2428.679,2147.07l240.628-5.558l2.602-486.34l-240.585-2.491L2428.679,2147.07z"/>
							</g>
							<g>
								<path style="fill:#F4F7FA;" d="M2689.295,2043.924l-134.545,2.208l1.574-294.114l134.53,0.492L2689.295,2043.924z
									 M2574.632,2026.226l95.301-1.436l1.353-252.897l-95.292-0.221L2574.632,2026.226z"/>
							</g>
						</g>
						<g>
							<path style="fill:#F4F7FA;" d="M2426.478,2020.689c-54.9,0.799-100.423-53.731-100.06-121.576
								c0.363-67.845,46.473-122.95,101.368-122.841l-0.106,19.779c-46.2-0.03-80.56,46.147-80.864,102.933
								c-0.304,56.786,33.564,102.535,79.768,101.925L2426.478,2020.689z"/>
						</g>
					</g>
				</g>
			</g>
		</g>
		<g>
			<g>
				<g>
					
						<linearGradient id="SVGID_00000122681603644756046220000009271532331097786804_" gradientUnits="userSpaceOnUse" x1="3295.0742" y1="2213.0879" x2="4256.771" y2="4267.4819" gradientTransform="matrix(-1 0 0 1 6217.5273 0)">
						<stop  offset="0" style="stop-color:#AA80F9"/>
						<stop  offset="0.9964" style="stop-color:#6165D7"/>
					</linearGradient>
					<path style="fill:url(#SVGID_00000122681603644756046220000009271532331097786804_);" d="M2773.259,2129.792
						c0,0,162.03-280.563,381.158,196.56c170.629,371.526,60.348,784.853-334.397,898.267
						c-394.746,113.414-1011.289-115.639-817.765-277.063C2412.762,2605.141,2724.323,2301.632,2773.259,2129.792z"/>
					<g style="opacity:0.3;">
						
							<linearGradient id="SVGID_00000163033014622865189160000005715291225513560213_" gradientUnits="userSpaceOnUse" x1="3736.8269" y1="2518.8779" x2="3647.9717" y2="3041.4324" gradientTransform="matrix(-1 0 0 1 6217.5273 0)">
							<stop  offset="0" style="stop-color:#AA80F9"/>
							<stop  offset="0.9964" style="stop-color:#6165D7"/>
						</linearGradient>
						<path style="fill:url(#SVGID_00000163033014622865189160000005715291225513560213_);" d="M2976.576,2381.92
							c11.535,33.98,14.146,130.788,9.279,242.12c-4.342,99.314,4.674,151.237-153.331,223.472
							c-54.158,24.76-91.613,103.328-174.536,150.069c-37.595,21.19-179.22,97.859-362.122,66.878
							c-121.019-20.498-211.125-79.856-271.803-135.167c399.663-334.913,701.133-630.726,749.196-799.499
							c0,0,59.204-102.431,154.412-78.183C2904.574,2077.36,2896.731,2146.701,2976.576,2381.92z"/>
					</g>
					<g style="opacity:0.3;">
						
							<linearGradient id="SVGID_00000083794467580265067190000015629381047563345563_" gradientUnits="userSpaceOnUse" x1="3295.0737" y1="2213.0884" x2="4256.7729" y2="4267.4868" gradientTransform="matrix(-1 0 0 1 6217.5273 0)">
							<stop  offset="0" style="stop-color:#AA80F9"/>
							<stop  offset="0.9964" style="stop-color:#6165D7"/>
						</linearGradient>
						<path style="fill:url(#SVGID_00000083794467580265067190000015629381047563345563_);" d="M2188.208,3111.763
							c186.688,103.086,498.476,166.006,730.769-6.525c215.082-159.747,234.244-427.282,241.415-508.928
							c12.531-142.691-15.346-266.94-55.542-367.161c16.153,28.233,32.689,60.455,49.566,97.204
							c170.63,371.526,60.348,784.853-334.398,898.267c-388.554,111.635-991.999-108.536-826.276-269.417
							C2040.842,3008.33,2104.39,3065.48,2188.208,3111.763z"/>
					</g>
				</g>
				
					<linearGradient id="SVGID_00000130605232348358064620000017996053887614604941_" gradientUnits="userSpaceOnUse" x1="3055.7119" y1="2626.103" x2="3926.9131" y2="2626.103" gradientTransform="matrix(-1 0 0 1 6143.6299 0)">
					<stop  offset="0" style="stop-color:#AA80F9"/>
					<stop  offset="0.9964" style="stop-color:#6165D7"/>
				</linearGradient>
				<path style="opacity:0.3;fill:url(#SVGID_00000130605232348358064620000017996053887614604941_);" d="M2482.313,3142.377
					c5.531,0,11.083-0.063,16.702-0.187c144.18-3.219,346.603-51.11,492.148-260.966c122.93-177.247,106.477-377.284,71.029-513.881
					c-38.364-147.833-106.658-255.267-107.344-256.335c-0.768-1.196-2.355-1.536-3.545-0.774c-1.193,0.766-1.539,2.352-0.774,3.545
					c0.68,1.063,68.592,107.922,106.732,254.995c35.144,135.52,51.472,333.921-70.315,509.525
					c-144.316,208.082-345.058,255.568-488.045,258.758c-155.155,3.454-277.478-42.898-278.696-43.365
					c-1.315-0.513-2.805,0.151-3.316,1.474c-0.51,1.323,0.15,2.809,1.474,3.315
					C2219.545,3098.938,2334.242,3142.372,2482.313,3142.377z"/>
			</g>
			<g>
				<g>
					<g>
						
							<linearGradient id="SVGID_00000155855773342394242980000015949396117917555612_" gradientUnits="userSpaceOnUse" x1="362.4389" y1="4560.606" x2="562.1785" y2="4560.606" gradientTransform="matrix(-0.6567 -0.7542 -0.7542 0.6567 5392.8315 388.1635)">
							<stop  offset="0" style="stop-color:#40447E"/>
							<stop  offset="0.9964" style="stop-color:#3C3B6B"/>
						</linearGradient>
						<path style="fill:url(#SVGID_00000155855773342394242980000015949396117917555612_);" d="M1708.057,3115.84
							c10.29-11.076,28.726-58.757-4.9-68.552c-33.812-9.851-52.605-22.325-99.164-59.648c-46.559-37.323-58.517-5.274,7.244,55.343
							C1676.998,3103.599,1693.426,3131.591,1708.057,3115.84z"/>
						<path style="fill:#FFFFFF;" d="M1752.113,3046.214l-27.696,24.182c-5.785,5.051-14.203,5.701-20.694,1.596
							c-3.025-1.913-4.963-5.148-5.22-8.718c-0.257-3.57,1.196-7.05,3.915-9.377l40.484-34.64L1752.113,3046.214z"/>
					</g>
					<g>
						
							<linearGradient id="SVGID_00000059291345984863238030000003245019459790127028_" gradientUnits="userSpaceOnUse" x1="3379.1716" y1="2865.4644" x2="4366.7842" y2="3390.0322" gradientTransform="matrix(-0.9981 -0.0611 -0.0611 0.9981 6180.0625 49.9065)">
							<stop  offset="0" style="stop-color:#311944"/>
							<stop  offset="1" style="stop-color:#6B3976"/>
						</linearGradient>
						<path style="fill:url(#SVGID_00000059291345984863238030000003245019459790127028_);" d="M2581.647,2813.354
							c48.937,42.869-53.212,183.456-216.393,137.889c-197.746-55.22-449.236-30.405-618.765,107.625
							c-9.835-8.749-34.194-22.477-23.054-33.742c153.146-154.863,294.992-243.766,412.483-267.62
							C2313.546,2721.442,2442.307,2691.29,2581.647,2813.354z"/>
						<g style="opacity:0.24;">
							<path style="fill:#552D63;" d="M2007.958,2872.237c-28.687,16.687-34.802-17.217-49.601-39.521
								c63.525-39.005,123.179-64.169,177.562-75.21c177.627-36.065,306.389-66.216,445.729,55.848
								c48.937,42.869-53.212,183.456-216.394,137.889c-59.018-16.48-122.853-25.649-187.838-26.99
								C2125.145,2891.384,2082.377,2815.961,2007.958,2872.237z"/>
						</g>
					</g>
				</g>
				<g>
					
						<linearGradient id="SVGID_00000029035782911522949280000016886283792186794125_" gradientUnits="userSpaceOnUse" x1="3005.2083" y1="3100.459" x2="3900.7454" y2="2934.075" gradientTransform="matrix(-0.9981 -0.0611 -0.0611 0.9981 6180.0625 49.9065)">
						<stop  offset="0" style="stop-color:#311944"/>
						<stop  offset="1" style="stop-color:#893976"/>
					</linearGradient>
					<path style="fill:url(#SVGID_00000029035782911522949280000016886283792186794125_);" d="M2610.531,2959.803l10.044,3.839
						c0,0,64.976-61.345,76.556-76.978c14.129-19.074-144.977-67.711-196.644-131.343c-54.291-66.863-11.398,79.38-11.398,79.38
						L2610.531,2959.803z"/>
				</g>
				<g>
					
						<linearGradient id="SVGID_00000142176980356995178870000017249453330960276373_" gradientUnits="userSpaceOnUse" x1="3639.146" y1="2448.8894" x2="3543.9438" y2="2766.23" gradientTransform="matrix(-1 0 0 1 6143.6299 0)">
						<stop  offset="0" style="stop-color:#FF9085"/>
						<stop  offset="1" style="stop-color:#FB6FBB"/>
					</linearGradient>
					<path style="fill:url(#SVGID_00000142176980356995178870000017249453330960276373_);" d="M2669.455,2357.927
						c0,0-57.682,7.907-120.933,120.064c-47.555,84.326-150.804,154.188-150.804,154.188l-10.601,66.354l85.692,15.054
						l30.653-20.185l83.62-177.913L2669.455,2357.927z"/>
					<g>
						
							<linearGradient id="SVGID_00000120535685328478390880000011122496746212453524_" gradientUnits="userSpaceOnUse" x1="3326.6792" y1="2844.8486" x2="2928.1543" y2="4293.6001" gradientTransform="matrix(-0.9981 -0.0611 -0.0611 0.9981 6180.0625 49.9065)">
							<stop  offset="0" style="stop-color:#FF9085"/>
							<stop  offset="1" style="stop-color:#FB6FBB"/>
						</linearGradient>
						<path style="fill:url(#SVGID_00000120535685328478390880000011122496746212453524_);" d="M2781.299,2350.774
							c0,0,142.189,17.536,145.242,181.147c2.818,150.986-51.657,209.483-185.326,335.38
							c-13.441,12.659-35.238,12.664-36.852,14.485c-8.684,9.793-17.486,19.997-26.38,30.67
							c-119.628-114.802-254.517-153.681-254.517-153.681s124.75-258.084,179.567-343.632
							C2659.551,2326.939,2744.794,2342.001,2781.299,2350.774z"/>
						<g style="opacity:0.3;">
							
								<linearGradient id="SVGID_00000104694874209071984560000004016660125266022290_" gradientUnits="userSpaceOnUse" x1="3380.208" y1="3007.3494" x2="3282.335" y2="2624.5564" gradientTransform="matrix(-0.9981 -0.0611 -0.0611 0.9981 6180.0625 49.9065)">
								<stop  offset="0" style="stop-color:#FF9085"/>
								<stop  offset="1" style="stop-color:#FB6FBB"/>
							</linearGradient>
							<path style="fill:url(#SVGID_00000104694874209071984560000004016660125266022290_);" d="M2545.227,2731.913
								c60.021,32.114,145.087,28.482,176.371-11.26c23.558-29.93,27.376-41.083,56.056-88.084
								c23.072-37.812,34.304-43.873,84.715-75.707c19.024-12.014,40.616-29.403,61.79-55.467
								c1.337,9.576,2.181,19.711,2.383,30.526c2.818,150.987-51.657,209.483-185.325,335.381
								c-13.441,12.659-35.238,12.664-36.853,14.484c-8.683,9.794-17.485,19.996-26.379,30.67
								c-119.628-114.802-254.517-153.681-254.517-153.681s20.703-40.593,48.123-97.669
								C2491.477,2694.428,2506.723,2711.311,2545.227,2731.913z"/>
						</g>
					</g>
					<path style="fill:#FFFFFF;" d="M2643.266,2736.716c0,0-26.947,1.244-46.085-6.465s-17.563-9.479-39.592-12.276
						c-21.413-2.719-63.588-15.428-39.71-37.146c26.578-24.173,72.135-17.396,85.226-1.348
						c12.618,15.469,34.491,25.293,34.491,25.293L2643.266,2736.716z"/>
					
						<linearGradient id="SVGID_00000068668452770211570060000000488900753935671983_" gradientUnits="userSpaceOnUse" x1="3227.5276" y1="2817.574" x2="2829.0037" y2="4266.3223" gradientTransform="matrix(-0.9981 -0.0611 -0.0611 0.9981 6180.0625 49.9065)">
						<stop  offset="0" style="stop-color:#FF9085"/>
						<stop  offset="1" style="stop-color:#FB6FBB"/>
					</linearGradient>
					<path style="fill:url(#SVGID_00000068668452770211570060000000488900753935671983_);" d="M2883.614,2432.327
						c0,0,78.97,9.195,32.89,263.492c-23.899,131.891-142.037,113.324-284.692,58.828c-9.657-20.202,2.771-63.021,2.771-63.021
						s177.234,73.077,181.82-33.533C2821.543,2538.564,2837.539,2419.7,2883.614,2432.327z"/>
					
						<linearGradient id="SVGID_00000134208495082628393900000004777859272819400112_" gradientUnits="userSpaceOnUse" x1="2708.3794" y1="2378.7065" x2="2818.5205" y2="2378.7065">
						<stop  offset="0" style="stop-color:#FF9085"/>
						<stop  offset="1" style="stop-color:#FB6FBB"/>
					</linearGradient>
					<path style="fill:url(#SVGID_00000134208495082628393900000004777859272819400112_);" d="M2748.215,2404.875
						c33.801,0,68.138-25.028,69.784-26.244c0.57-0.42,0.691-1.224,0.269-1.794c-0.422-0.572-1.226-0.688-1.793-0.269
						c-0.454,0.334-45.59,33.246-82.126,24.109c-10.123-2.527-17.051-7.481-20.593-14.719c-6.747-13.777,0.898-31.447,0.975-31.622
						c0.286-0.649-0.008-1.406-0.655-1.692c-0.66-0.281-1.408,0.011-1.692,0.654c-0.34,0.768-8.198,18.947-0.935,33.787
						c3.893,7.948,11.389,13.358,22.276,16.079C2738.478,2404.353,2743.341,2404.875,2748.215,2404.875z"/>
					
						<linearGradient id="SVGID_00000042710963936068655010000012214808240070769592_" gradientUnits="userSpaceOnUse" x1="2453.7598" y1="2803.8252" x2="2699.2466" y2="2803.8252">
						<stop  offset="0" style="stop-color:#FF9085"/>
						<stop  offset="1" style="stop-color:#FB6FBB"/>
					</linearGradient>
					<path style="fill:url(#SVGID_00000042710963936068655010000012214808240070769592_);" d="M2697.963,2876.557
						c0.352,0,0.7-0.145,0.952-0.425c0.476-0.524,0.434-1.337-0.093-1.811c-1.273-1.148-128.561-115.088-243.473-143.185
						c-0.703-0.187-1.383,0.258-1.553,0.941c-0.167,0.689,0.255,1.383,0.941,1.553c114.284,27.941,241.098,141.454,242.367,142.596
						C2697.348,2876.447,2697.658,2876.557,2697.963,2876.557z"/>
				</g>
				<g>
					<path style="fill:#FFFFFF;" d="M2785.84,2293.639c0,0-4.409,50.735-0.426,60.344c3.984,9.609-8.602,22.708-33.474,27.755
						c-24.872,5.046-5.18-50.595-5.18-50.595L2785.84,2293.639z"/>
					
						<linearGradient id="SVGID_00000041295005652584101800000018107907823026434203_" gradientUnits="userSpaceOnUse" x1="-2078.2898" y1="2003.493" x2="-2162.5591" y2="1789.4642" gradientTransform="matrix(0.9879 -0.155 0.155 0.9879 4575.0059 118.478)">
						<stop  offset="0" style="stop-color:#311944"/>
						<stop  offset="1" style="stop-color:#6B3976"/>
					</linearGradient>
					<path style="fill:url(#SVGID_00000041295005652584101800000018107907823026434203_);" d="M2714.176,2297.41
						c-25.853-14.098-25.307-80.279-10.688-85.32c8.396-2.895,12.528,17.504,40.224,29.311c21.569,9.195,36.914,4.433,44.781,17.124
						c3.696,5.962,5.109,14.756,3.909,22.158c-0.618,3.813-2.333,8.75-6.436,18.348c-3.64,8.516-3.344,8.191-4.484,10.683
						c-2.74,5.988-8.29,16.26-19.67,29.185c-1.532-3.643-3.687-8.111-6.73-12.842c-1.17-1.82-5.841-8.915-12.063-14.421
						C2731.688,2301.611,2721.589,2301.453,2714.176,2297.41z"/>
					<path style="fill:#FFFFFF;" d="M2776.979,2325.375c0,0-9.681,23.688-36.137,26.196c-23.686,2.245-35.577-49.771-22.398-63.335
						c4.396-4.525,14.151-7.679,22.653-6.708c5.021,0.573,6.969,2.309,15.191,3.086c7.584,0.717,9.512-0.421,12.006,1.075
						c3.122,1.872,6.048,7.22,3.93,23.326c3.743-5.248,8.832-7.85,12.924-6.666c0.653,0.189,2.439,1.026,3.612,2.539
						C2793.002,2310.365,2788.753,2318.916,2776.979,2325.375z"/>
				</g>
				<g>
					<path style="fill:#26264F;" d="M2624.328,2770.89c1.297,0.188,2.487,1.127,2.816,2.359c0.048,0.181-0.456,6.628-0.439,6.82
						c0.127,1.498-0.794,2.887-2.225,3.352l-120.907,39.273l-225.95-88.488l107.357,8.209L2624.328,2770.89z"/>
					<path style="fill:#444B8C;" d="M2624.382,2770.017c1.488,0.216,2.631,1.429,2.759,2.928c0.127,1.498-0.794,2.887-2.224,3.352
						l-120.909,39.273l-225.953-88.489l107.359,8.209L2624.382,2770.017z"/>
					
						<linearGradient id="SVGID_00000119098354644459201370000004817872250000694207_" gradientUnits="userSpaceOnUse" x1="3495.0757" y1="2851.0142" x2="3816.3914" y2="2851.0142" gradientTransform="matrix(-0.9981 -0.0611 -0.0611 0.9981 6180.0625 49.9065)">
						<stop  offset="0" style="stop-color:#40447E"/>
						<stop  offset="0.9964" style="stop-color:#3C3B6B"/>
					</linearGradient>
					<path style="fill:url(#SVGID_00000119098354644459201370000004817872250000694207_);" d="M2509.359,2813.808l-18.011-235.704
						c-0.289-3.778-3.137-6.861-6.88-7.446l-270.588-42.353c-2.423-0.379-4.888,0.35-6.714,1.988
						c-1.826,1.637-2.82,4.008-2.707,6.458l10.156,219.691c0.175,3.791,2.939,6.962,6.671,7.653l281.104,52.043L2509.359,2813.808z"
						/>
					<path style="fill:#26264F;" d="M2503.573,2822.694l-18.576-240.898c-0.291-3.775-3.139-6.855-6.879-7.441l-270.592-42.354
						c-2.423-0.379-4.888,0.35-6.714,1.988c-1.826,1.637-2.82,4.008-2.707,6.458l10.157,219.723c0.175,3.777,2.919,6.94,6.633,7.646
						L2503.573,2822.694z"/>
					<path style="fill:#1F1F44;" d="M2503.572,2822.693l-288.678-54.878c-3.714-0.706-6.458-3.869-6.633-7.646l-3.063-66.266
						c85.995,48.836,193.766,55.047,294.199,74.637L2503.572,2822.693z"/>
				</g>
				<g>
					
						<linearGradient id="SVGID_00000150807115574465358690000014637789633220943279_" gradientUnits="userSpaceOnUse" x1="2652.5591" y1="3786.8674" x2="2812.1516" y2="3786.8674" gradientTransform="matrix(-0.9263 -0.3767 -0.3767 0.9263 5897.2134 267.383)">
						<stop  offset="0" style="stop-color:#40447E"/>
						<stop  offset="0.9964" style="stop-color:#3C3B6B"/>
					</linearGradient>
					<path style="fill:url(#SVGID_00000150807115574465358690000014637789633220943279_);" d="M2014.632,2773.317
						c3.947-13.704,12.669-28.847-18.465-39.895c-22.6-8.021-61.86-10.598-97.543-12.428c-50.003-2.564-61.504,27.352,11.572,46.384
						C1958.053,2779.842,2009.02,2792.803,2014.632,2773.317z"/>
					<path style="fill:#FFFFFF;" d="M1975.671,2752.337c-0.469,7.668,4.413,13.686,10.788,14.597
						c14.795,2.113,12.019-5.503,12.489-13.172c0.469-7.668,6.452-12.993-10.788-14.597
						C1981.748,2738.569,1976.141,2744.669,1975.671,2752.337z"/>
					
						<linearGradient id="SVGID_00000167395112558348921140000010725084367505337496_" gradientUnits="userSpaceOnUse" x1="3299.1682" y1="3014.8545" x2="4035.3909" y2="2943.0808" gradientTransform="matrix(-0.9981 -0.0611 -0.0611 0.9981 6180.0625 49.9065)">
						<stop  offset="0" style="stop-color:#311944"/>
						<stop  offset="1" style="stop-color:#6B3976"/>
					</linearGradient>
					<path style="fill:url(#SVGID_00000167395112558348921140000010725084367505337496_);" d="M2127.496,2708.235l-14.605-2.301
						c0,0-28.451,2.66-106.857,24.279c-16.785,2.785-39.668,51.772,9.513,53.695c49.182,1.923,109.039,38.546,109.039,38.546
						L2127.496,2708.235z"/>
					
						<linearGradient id="SVGID_00000109011356337165109010000005541953890312484513_" gradientUnits="userSpaceOnUse" x1="3016.0999" y1="3159.0745" x2="3911.6414" y2="2992.6897" gradientTransform="matrix(-0.9981 -0.0611 -0.0611 0.9981 6180.0625 49.9065)">
						<stop  offset="0" style="stop-color:#311944"/>
						<stop  offset="1" style="stop-color:#893976"/>
					</linearGradient>
					<path style="fill:url(#SVGID_00000109011356337165109010000005541953890312484513_);" d="M2638.127,2936.162
						c0,0-7.162,63.569-154.978,57.784c-147.817-5.784-411.881-159.233-410.218-239.754c1.663-80.521,99.926-48.354,201.667-1.812
						c85.874,39.284,218.522,62.036,245.708,66.254C2555.111,2824.035,2646.534,2905.627,2638.127,2936.162z"/>
					<g style="opacity:0.2;">
						
							<linearGradient id="SVGID_00000057839567938681016320000014460246199031844264_" gradientUnits="userSpaceOnUse" x1="3335.5266" y1="3042.3591" x2="3877.3262" y2="2926.5613" gradientTransform="matrix(-0.9981 -0.0611 -0.0611 0.9981 6180.0625 49.9065)">
							<stop  offset="0" style="stop-color:#311944"/>
							<stop  offset="1" style="stop-color:#6B3976"/>
						</linearGradient>
						<path style="fill:url(#SVGID_00000057839567938681016320000014460246199031844264_);" d="M2444.718,2856.496
							c-68.421-6.971-83.785-56.071-168.925-70.268c-55.174-9.2-74.657,7.096-102.783-11.742
							c-22.203-14.87-33.536-40.797-38.992-68.955c37.732,3.199,88.661,23.099,140.578,46.85
							c83.407,38.155,210.938,60.715,243.107,65.845c0.952,0.152,22.518-7.561,22.518-7.561s16.053,9.173,27.565,16.416
							C2522.933,2851.123,2469.708,2859.041,2444.718,2856.496z"/>
					</g>
				</g>
			</g>
		</g>
		<g>
			<g>
				<path style="fill:#FFFFFF;" d="M2013.043,2170.572c-51.779,30.388-110.413,48.01-170.686,50.785
					c-57.339,2.694-116.284-7.998-172.04-33.716c-22.511-10.39-43.416-22.711-62.803-36.759
					c-65.678-47.655-112.206-114.665-135.471-189.246c-3.957-12.669-7.216-25.571-9.802-38.624
					c-11.085-56.199-9.275-115.373,7.215-172.881c5.162-18.007,11.745-35.979,19.867-53.593
					c24.262-52.545,59.376-96.813,101.309-131.129c84.791-69.546,197.904-98.945,307.817-76.633
					c27.689,5.495,55.145,14.393,81.978,26.767c36.939,17.056,69.654,39.309,97.808,65.646
					c61.339,57.321,100.717,133.535,113.03,214.982c0.255,1.645,0.496,3.304,0.723,4.95c8.311,59.767,2.109,122.127-20.609,181.834
					c-3.052,7.932-6.362,15.883-9.958,23.692C2128.573,2077.817,2075.971,2133.664,2013.043,2170.572z"/>
				
					<linearGradient id="SVGID_00000011729739201947124880000013191553879492675756_" gradientUnits="userSpaceOnUse" x1="3258.2229" y1="2065.7844" x2="3379.1558" y2="2065.7844" gradientTransform="matrix(0.7231 0.6907 -0.6907 0.7231 1206.1381 -1898.5978)">
					<stop  offset="0" style="stop-color:#2B3582"/>
					<stop  offset="1" style="stop-color:#150E42"/>
				</linearGradient>
				<path style="fill:url(#SVGID_00000011729739201947124880000013191553879492675756_);" d="M2171.378,1982.955l-54.133-108.932
					l-3.093-6.234l4.995-4.648l69.255-64.306l2.861-2.664c0.255,1.645,0.496,3.304,0.723,4.95
					C2200.298,1860.888,2194.095,1923.248,2171.378,1982.955z"/>
				
					<linearGradient id="SVGID_00000054947627374083240350000008421166267399817660_" gradientUnits="userSpaceOnUse" x1="2351.9651" y1="2600.7295" x2="2553.9302" y2="2600.7295" gradientTransform="matrix(0.908 0.419 -0.419 0.908 837.968 -1826.5374)">
					<stop  offset="0" style="stop-color:#2B3582"/>
					<stop  offset="1" style="stop-color:#150E42"/>
				</linearGradient>
				<path style="fill:url(#SVGID_00000054947627374083240350000008421166267399817660_);" d="M2078.227,1581.192l-125.29,20.505
					l-54.496-112.925c27.697,5.493,55.156,14.398,81.983,26.776C2017.362,1532.591,2050.074,1554.845,2078.227,1581.192z"/>
				
					<linearGradient id="SVGID_00000116204899297278115090000014780312819994028949_" gradientUnits="userSpaceOnUse" x1="2067.5547" y1="2873.7058" x2="2165.2256" y2="2873.7058" gradientTransform="matrix(0.908 0.419 -0.419 0.908 837.968 -1826.5374)">
					<stop  offset="0" style="stop-color:#2B3582"/>
					<stop  offset="1" style="stop-color:#150E42"/>
				</linearGradient>
				<path style="fill:url(#SVGID_00000116204899297278115090000014780312819994028949_);" d="M1611.459,1664.989l-142.006,85.153
					c5.157-18.019,11.748-35.983,19.878-53.604c24.249-52.554,59.361-96.817,101.297-131.13L1611.459,1664.989z"/>
				
					<linearGradient id="SVGID_00000016071558217575108680000016535427501329928636_" gradientUnits="userSpaceOnUse" x1="2858.7097" y1="2601.1416" x2="3087.3945" y2="2601.1416" gradientTransform="matrix(0.7231 0.6907 -0.6907 0.7231 1206.1381 -1898.5978)">
					<stop  offset="0" style="stop-color:#2B3582"/>
					<stop  offset="1" style="stop-color:#150E42"/>
				</linearGradient>
				<path style="fill:url(#SVGID_00000016071558217575108680000016535427501329928636_);" d="M1607.513,2150.882
					c-65.678-47.655-112.206-114.665-135.471-189.246l132.653,45.065l2.114,0.723l0.06,11.46L1607.513,2150.882z"/>
				
					<linearGradient id="SVGID_00000119837931409048710000000003078055992676921249_" gradientUnits="userSpaceOnUse" x1="3289.8293" y1="2462.5427" x2="3394.2515" y2="2462.5427" gradientTransform="matrix(0.7231 0.6907 -0.6907 0.7231 1206.1381 -1898.5978)">
					<stop  offset="0" style="stop-color:#2B3582"/>
					<stop  offset="1" style="stop-color:#150E42"/>
				</linearGradient>
				<path style="fill:url(#SVGID_00000119837931409048710000000003078055992676921249_);" d="M2013.043,2170.572
					c-51.779,30.388-110.413,48.01-170.686,50.785l53.106-77.562l3.103-4.55l5.324,1.461L2013.043,2170.572z"/>
				
					<linearGradient id="SVGID_00000171703431275460918140000001110508967814516394_" gradientUnits="userSpaceOnUse" x1="2436.1367" y1="2696.8755" x2="2453.5764" y2="2696.8755" gradientTransform="matrix(0.908 0.419 -0.419 0.908 837.968 -1826.5374)">
					<stop  offset="0" style="stop-color:#2B3582"/>
					<stop  offset="1" style="stop-color:#150E42"/>
				</linearGradient>
				<path style="fill:url(#SVGID_00000171703431275460918140000001110508967814516394_);" d="M1897.48,1704.923
					c-0.094-0.043-0.182-0.084-0.27-0.136c-2.689-1.419-3.723-4.754-2.304-7.443l56.244-106.584c1.424-2.686,4.814-3.778,7.452-2.3
					c2.689,1.419,3.723,4.754,2.305,7.442l-56.244,106.584C1903.285,1705.087,1900.118,1706.14,1897.48,1704.923z"/>
				
					<linearGradient id="SVGID_00000162330842951635024820000015676597604231869827_" gradientUnits="userSpaceOnUse" x1="-405.5754" y1="2949.2046" x2="-388.1326" y2="2949.2046" gradientTransform="matrix(-0.0824 0.9966 -1.1419 -0.0945 5391.7837 2534.8179)">
					<stop  offset="0" style="stop-color:#2B3582"/>
					<stop  offset="1" style="stop-color:#150E42"/>
				</linearGradient>
				<path style="fill:url(#SVGID_00000162330842951635024820000015676597604231869827_);" d="M1986.034,1856.737
					c-2.132-0.984-3.474-3.264-3.157-5.713c0.392-3.021,3.153-5.15,6.176-4.762l136.89,17.761c3.023,0.399,5.148,3.158,4.755,6.179
					c-0.391,3.021-3.152,5.15-6.175,4.763l-136.891-17.763C1987.063,1857.128,1986.528,1856.965,1986.034,1856.737z"/>
				
					<linearGradient id="SVGID_00000005960269135184411480000010035056644532274058_" gradientUnits="userSpaceOnUse" x1="2159.7102" y1="2851.9741" x2="2300.1655" y2="2851.9741" gradientTransform="matrix(0.908 0.419 -0.419 0.908 837.968 -1826.5374)">
					<stop  offset="0" style="stop-color:#2B3582"/>
					<stop  offset="1" style="stop-color:#150E42"/>
				</linearGradient>
				<path style="fill:url(#SVGID_00000005960269135184411480000010035056644532274058_);" d="M1721.789,1734.814
					c-0.152-0.07-0.299-0.15-0.446-0.229l-112.633-64.823c-2.64-1.514-3.55-4.887-2.029-7.528c1.522-2.642,4.936-3.45,7.529-2.028
					l112.633,64.823c2.638,1.514,3.549,4.885,2.028,7.527C1727.436,1735.049,1724.35,1735.996,1721.789,1734.814z"/>
				
					<linearGradient id="SVGID_00000018954308898052680140000009114427775524011443_" gradientUnits="userSpaceOnUse" x1="2300.7244" y1="3093.9204" x2="2357.4971" y2="3093.9204" gradientTransform="matrix(0.908 0.419 -0.419 0.908 837.968 -1826.5374)">
					<stop  offset="0" style="stop-color:#2B3582"/>
					<stop  offset="1" style="stop-color:#150E42"/>
				</linearGradient>
				<path style="fill:url(#SVGID_00000018954308898052680140000009114427775524011443_);" d="M1603.658,2018.452
					c-0.509-0.235-0.99-0.552-1.422-0.953c-2.242-2.066-2.385-5.547-0.326-7.785l100.958-109.608
					c2.064-2.236,5.571-2.397,7.789-0.318c2.242,2.066,2.385,5.547,0.326,7.786l-100.958,109.607
					C1608.361,2018.986,1605.775,2019.428,1603.658,2018.452z"/>
				
					<linearGradient id="SVGID_00000035494366783412507560000005626898737877650332_" gradientUnits="userSpaceOnUse" x1="2287.3767" y1="2894.6943" x2="2595.929" y2="2894.6943" gradientTransform="matrix(0.908 0.419 -0.419 0.908 837.968 -1826.5374)">
					<stop  offset="0" style="stop-color:#2B3582"/>
					<stop  offset="1" style="stop-color:#150E42"/>
				</linearGradient>
				<polygon style="fill:url(#SVGID_00000035494366783412507560000005626898737877650332_);" points="1692.48,1921.612 
					1717.068,1727.666 1905.171,1688.234 1996.711,1858.081 1865.636,2001.506 				"/>
				
					<linearGradient id="SVGID_00000085961889117657872130000004008232679077782680_" gradientUnits="userSpaceOnUse" x1="2531.4985" y1="3098.6851" x2="2630.1316" y2="3098.6851" gradientTransform="matrix(0.908 0.419 -0.419 0.908 837.968 -1826.5374)">
					<stop  offset="0" style="stop-color:#2B3582"/>
					<stop  offset="1" style="stop-color:#150E42"/>
				</linearGradient>
				<path style="fill:url(#SVGID_00000085961889117657872130000004008232679077782680_);" d="M1896.262,2144.248
					c-1.515-0.699-2.695-2.074-3.078-3.827l-31.138-141.614c-0.657-2.971,1.227-5.908,4.197-6.564
					c2.976-0.667,5.915,1.223,6.568,4.203l31.137,141.615c0.657,2.971-1.225,5.908-4.197,6.564
					C1898.532,2144.891,1897.313,2144.733,1896.262,2144.248z"/>
			</g>
			<g style="opacity:0.1;">
				
					<linearGradient id="SVGID_00000158714108017949516830000004437948015335484583_" gradientUnits="userSpaceOnUse" x1="2824.9421" y1="2324.4458" x2="3408.4043" y2="2324.4458" gradientTransform="matrix(0.7231 0.6907 -0.6907 0.7231 1206.1381 -1898.5978)">
					<stop  offset="0" style="stop-color:#2B3582"/>
					<stop  offset="1" style="stop-color:#150E42"/>
				</linearGradient>
				<path style="fill:url(#SVGID_00000158714108017949516830000004437948015335484583_);" d="M2013.043,2170.572
					c-51.779,30.388-110.413,48.01-170.686,50.785c-57.339,2.694-116.284-7.998-172.04-33.716
					c-22.511-10.39-43.416-22.711-62.803-36.759c-65.678-47.655-112.206-114.665-135.471-189.246
					c-3.957-12.669-7.216-25.571-9.802-38.624c83.178,25.4,149.036,28.357,201.684,19.383c6.336-1.065,12.477-2.316,18.426-3.724
					c10.148-2.398,19.758-5.23,28.845-8.428c8.269-2.896,16.112-6.093,23.571-9.498c95.062-43.544,130.478-124.854,209.494-159.994
					c12.967-5.763,27.098-10.282,42.863-13.188c68.047-12.547,136.677,10.44,201.279,51.272c1.208,0.757,2.389,1.515,3.584,2.286
					c8.311,59.767,2.109,122.127-20.609,181.834c-3.052,7.932-6.362,15.883-9.958,23.692
					C2128.573,2077.817,2075.971,2133.664,2013.043,2170.572z"/>
			</g>
		</g>
		<g>
			
				<linearGradient id="SVGID_00000133530849665255901100000005325926535713977276_" gradientUnits="userSpaceOnUse" x1="1128.6818" y1="2125.9741" x2="1069.3268" y2="2345.7292">
				<stop  offset="0" style="stop-color:#311944"/>
				<stop  offset="1" style="stop-color:#A03976"/>
			</linearGradient>
			<path style="fill:url(#SVGID_00000133530849665255901100000005325926535713977276_);" d="M1214.668,2157.625
				c-15.811,2.234-30.046,10.77-39.473,23.663c-12.727,17.416-32.712,43.422-51.955,62.918c-31.682,32.101-146.443,0-146.443,0
				l-23.267,57.763c0,0,9.628,25.676,106.712,35.304c97.088,9.628,124.168-111.127,124.168-111.127s16.549-2.106,23.77-4.814
				s11.434-15.345,12.938-18.053c1.505-2.708,26.177-14.744,7.823-17.752c-2.196-0.36-4.302-0.315-6.314,0.006
				c10.31-7.682,20.752-16.394,23.765-23.174C1249.971,2154.309,1231.621,2155.23,1214.668,2157.625z"/>
			
				<linearGradient id="SVGID_00000044142651011255527160000017914838174478231185_" gradientUnits="userSpaceOnUse" x1="1179.5184" y1="2167.001" x2="1235.9729" y2="3308.6365">
				<stop  offset="0" style="stop-color:#311944"/>
				<stop  offset="1" style="stop-color:#A03976"/>
			</linearGradient>
			<path style="fill:url(#SVGID_00000044142651011255527160000017914838174478231185_);" d="M1119.463,2497.081
				c8.949-0.776,317.091,64.855,288.206,165.954c-28.885,101.098-175.318,353.844-175.318,353.844l-19.657,4.799
				c0,0-16.85-262.791,62.585-327.566s-245.047,56.009-272.002,0C976.32,2638.102,1062.339,2502.031,1119.463,2497.081z"/>
			
				<linearGradient id="SVGID_00000074430312333884128260000014224671375504200102_" gradientUnits="userSpaceOnUse" x1="1205.0942" y1="2352.553" x2="1238.7935" y2="2723.2471">
				<stop  offset="0" style="stop-color:#AA80F9"/>
				<stop  offset="0.9964" style="stop-color:#6165D7"/>
			</linearGradient>
			<path style="fill:url(#SVGID_00000074430312333884128260000014224671375504200102_);" d="M1256.021,2519.411
				c0,0,125.196,35.589,132.391,64.992c-52.154,53.759-159.671,132.29-159.671,132.29s-123.564,35.536-148.438,14.609
				C1055.43,2710.374,1150.109,2516.201,1256.021,2519.411z"/>
			
				<linearGradient id="SVGID_00000142168716491321823400000010121127378410458047_" gradientUnits="userSpaceOnUse" x1="813.5778" y1="2420.1812" x2="1231.8811" y2="2517.915">
				<stop  offset="0" style="stop-color:#311944"/>
				<stop  offset="1" style="stop-color:#A03976"/>
			</linearGradient>
			<path style="fill:url(#SVGID_00000142168716491321823400000010121127378410458047_);" d="M1071.477,2523.423
				c0,0,135.737-152.45,382.548-139.612s303.279-12.838,303.279-12.838v37.711c0,0-244.415,117.146-353.44,100.296
				s-378.772,349.832-476.661,174.916L1071.477,2523.423z"/>
			
				<linearGradient id="SVGID_00000008133570208275176850000003719462213386109316_" gradientUnits="userSpaceOnUse" x1="995.5516" y1="2017.5635" x2="725.9571" y2="3015.7068">
				<stop  offset="0" style="stop-color:#AA80F9"/>
				<stop  offset="0.9964" style="stop-color:#6165D7"/>
			</linearGradient>
			<path style="fill:url(#SVGID_00000008133570208275176850000003719462213386109316_);" d="M931.688,2693.509
				c-1.735,0.866-3.272,1.493-4.621,1.877c-5.825,1.637-11.796,0.914-18.293-2.022c-35.914-16.128-88.437-99.366-220.682-227.423
				c-56.713-54.834-61.188-110.775-43.812-159.833c0.625-1.829,1.302-3.658,2.022-5.439
				c32.496-83.43,126.279-145.533,126.279-145.533c125.555-74.62,178.542,34.502,242.732,139.612
				c31.149,51.006,73.478,134.894,111.272,168.738c1.058,0.963,0.208,1.877,3.672,2.695c0,0,0,0,0,0.049
				c3.464,7.075,12.599,11.939,13.751,13.864C1150.269,2490.542,977.809,2671.026,931.688,2693.509z"/>
			
				<linearGradient id="SVGID_00000129196356647031515310000002976783126631626119_" gradientUnits="userSpaceOnUse" x1="781.318" y1="2192.9822" x2="714.1136" y2="2022.2953">
				<stop  offset="0" style="stop-color:#311944"/>
				<stop  offset="1" style="stop-color:#6B3976"/>
			</linearGradient>
			<path style="fill:url(#SVGID_00000129196356647031515310000002976783126631626119_);" d="M723.489,2123.179
				c0,0-52.839-16.323-36.039-37.188s-7.204-40.916,19.837-56.633c27.041-15.716,37.88-46.607,53.596-26.555
				s24.929,45.264,10.839,56.91C757.631,2071.359,735.682,2131.373,723.489,2123.179z"/>
			
				<linearGradient id="SVGID_00000017507181273675648950000011702799390542838188_" gradientUnits="userSpaceOnUse" x1="882.9419" y1="2288.877" x2="926.8627" y2="3177.053">
				<stop  offset="0" style="stop-color:#AA80F9"/>
				<stop  offset="0.9964" style="stop-color:#6165D7"/>
			</linearGradient>
			<path style="opacity:0.3;fill:url(#SVGID_00000017507181273675648950000011702799390542838188_);" d="M931.688,2693.509
				c-1.735,0.866-3.272,1.493-4.621,1.877c-5.825,1.637-11.796,0.914-18.293-2.022c-35.914-16.128-88.437-99.366-220.682-227.423
				c-56.713-54.834-61.188-110.775-43.812-159.833c0.625-1.829,1.302-3.658,2.022-5.439c29.896-7.221,47.037-3.418,57.098,4.718
				c22.482,18.053,5.825,53.967,32.11,72.55c37.649,26.623,95.612-30.281,140.237-8.087
				c52.909,26.237,25.806,133.112,66.628,141.633c18.632,3.9,25.18-18.101,66.003-30.86c58.062-18.245,94.841,10.689,115.785-8.568
				c1.73-1.541,3.366-3.467,4.814-5.825c7.894,7.075,13.239,11.939,14.391,13.864
				C1149.63,2490.542,977.809,2671.026,931.688,2693.509z"/>
			
				<linearGradient id="SVGID_00000021115157847137100620000000110433047400717199_" gradientUnits="userSpaceOnUse" x1="6351.2671" y1="-586.8661" x2="6320.4619" y2="-324.2069" gradientTransform="matrix(-0.8126 0.5828 0.5828 0.8126 6130.8052 -1193.4417)">
				<stop  offset="0" style="stop-color:#311944"/>
				<stop  offset="1" style="stop-color:#A03976"/>
			</linearGradient>
			<path style="fill:url(#SVGID_00000021115157847137100620000000110433047400717199_);" d="M775.802,2138.311
				c4.956,13.81,20.401,20.778,33.997,15.262c16.469-6.681,36.929-14.264,47.345-15.334c19.12-1.965-42.154,28.411-93.45,63.411
				c-32.024,21.851-58.094,35.196-73.164,42.139c-4.047,1.863-7.879-2.9-5.241-6.487c9.665-13.144,25.829-33.883,41.589-48.482
				c19.51-18.077,8.567-81.891,8.567-81.891l30.352,3.513L775.802,2138.311z"/>
			
				<linearGradient id="SVGID_00000062182117860348691300000013138513754069049533_" gradientUnits="userSpaceOnUse" x1="1822.1687" y1="-4144.2329" x2="1789.0781" y2="-4061.5068" gradientTransform="matrix(-0.3744 0.9273 0.9273 0.3744 5141.1943 1950.3997)">
				<stop  offset="0" style="stop-color:#311944"/>
				<stop  offset="1" style="stop-color:#A03976"/>
			</linearGradient>
			<path style="fill:url(#SVGID_00000062182117860348691300000013138513754069049533_);" d="M738.737,2128.763
				c0,0,29.105,10.206,52.516-11.648c20.962-19.57-16.446-71.878-39.216-70.837c-7.595,0.347-18.239,6.624-24.16,15.068
				c-3.497,4.987-3.49,8.13-9.361,16.169c-5.416,7.412-7.985,8.242-8.629,11.688c-0.809,4.311,1.676,11.226,17.895,22.192
				c-7.726-0.82-14.141,1.691-16.344,6.327c-0.352,0.74-1.026,3.02-0.598,5.286C712.389,2131.214,723.497,2134.218,738.737,2128.763
				z"/>
			
				<linearGradient id="SVGID_00000055678011345674338870000015380703782434352317_" gradientUnits="userSpaceOnUse" x1="1128.6003" y1="2398.459" x2="1166.7738" y2="3170.4109">
				<stop  offset="0" style="stop-color:#AA80F9"/>
				<stop  offset="0.9964" style="stop-color:#6165D7"/>
			</linearGradient>
			<path style="fill:url(#SVGID_00000055678011345674338870000015380703782434352317_);" d="M1352.451,2577.727
				c0,0-205.567,154.295-295.401,178.366c-37.404,10.013-115.687-9.196-127.431-54.738c-1.11-4.043-1.636-8.328-1.542-12.854
				c0-0.241,0.047-0.482,0.047-0.722c0.244-6.307,1.448-12.132,3.418-17.573c0.052-0.048,0.099-0.096,0.099-0.145
				c7.508-20.557,26.093-35.528,43.328-49.153c11.551-9.1,23.54-17.812,33.361-28.885c11.702-13.239,12.421-28.019,19.689-43.424
				c4.814-10.11,10.978-19.257,18.923-27.153c29.463-29.462,73.464-50.019,109.716-69.613
				c41.593-22.482,83.91-43.375,126.852-63.162c5.2,17.283,12.275,34.133,18.486,51.079c1.829,4.958,3.658,9.916,5.439,14.875
				l10.978,29.896C1329.776,2515.576,1341.088,2546.676,1352.451,2577.727z"/>
			<path style="fill:#FFFFFF;" d="M1318.413,2485.312c0,0-359.669,168.489-378.926,204.595c-4.043,7.559-7.367,10.924-9.868,11.646
				c-1.11-4.043-1.636-8.427-1.542-12.952c0-0.241,0.047-0.531,0.047-0.771c0.244-6.307,1.448-12.156,3.418-17.597
				c0.052-0.048,0.099-0.109,0.099-0.157c3.756-6.21,9.097-11.897,16.271-15.459c0,0,132.391-108.738,186.55-123.181
				c53.488-14.25,170.039-75.231,172.973-75.231c0.052,0,0.052,0,0.052,0L1318.413,2485.312z"/>
			
				<linearGradient id="SVGID_00000100367949304636416460000009006301729804862617_" gradientUnits="userSpaceOnUse" x1="-4001.334" y1="-3402.2693" x2="-3914.2546" y2="-3402.2693" gradientTransform="matrix(0.9624 -0.2718 -0.2718 -0.9624 4652.7593 -2002.6364)">
				<stop  offset="0" style="stop-color:#40447E"/>
				<stop  offset="0.9964" style="stop-color:#3C3B6B"/>
			</linearGradient>
			<path style="fill:url(#SVGID_00000100367949304636416460000009006301729804862617_);" d="M1754.33,2410.286
				c0.455-0.094,1.47-0.073,2.901-0.071c6.402,0.013,21.117-0.347,31.241-13.16c12.384-15.676,12.136-52.305,10.212-96.185
				c-1.923-43.882-26.824-6.538-29.435-0.037c-2.611,6.501-32.2,95.392-32.2,95.392L1754.33,2410.286z"/>
			
				<linearGradient id="SVGID_00000078017498169196934790000008568779208247774597_" gradientUnits="userSpaceOnUse" x1="2225.5793" y1="-1454.9558" x2="2312.6626" y2="-1454.9558" gradientTransform="matrix(-0.5511 0.8345 0.8345 0.5511 3711.2239 1968.3179)">
				<stop  offset="0" style="stop-color:#40447E"/>
				<stop  offset="0.9964" style="stop-color:#3C3B6B"/>
			</linearGradient>
			<path style="fill:url(#SVGID_00000078017498169196934790000008568779208247774597_);" d="M1216.236,3003.22
				c-0.283,0.369-1.066,1.016-2.15,1.948c-4.856,4.172-15.762,14.057-15.058,30.372c0.863,19.958,24.979,47.531,55.1,79.498
				c30.121,31.969,24.581-12.572,22.311-19.2c-2.269-6.628-37.933-93.261-37.933-93.261L1216.236,3003.22z"/>
			
				<linearGradient id="SVGID_00000008114235194724853580000012375322374777224118_" gradientUnits="userSpaceOnUse" x1="1210.8516" y1="2927.5364" x2="1318.4133" y2="2927.5364">
				<stop  offset="0" style="stop-color:#AA80F9"/>
				<stop  offset="0.9964" style="stop-color:#6165D7"/>
			</linearGradient>
			<path style="fill:url(#SVGID_00000008114235194724853580000012375322374777224118_);" d="M1219.528,2833.195l98.885,34.443
				l-86.062,154.039c0,0-21.124,2.431-20.861-9.613C1211.753,3000.021,1207.106,2860.735,1219.528,2833.195z"/>
			
				<linearGradient id="SVGID_00000008112464834773103600000011386770940059354269_" gradientUnits="userSpaceOnUse" x1="1501.4287" y1="2434.3999" x2="1761.3304" y2="2434.3999">
				<stop  offset="0" style="stop-color:#AA80F9"/>
				<stop  offset="0.9964" style="stop-color:#6165D7"/>
			</linearGradient>
			<path style="fill:url(#SVGID_00000008112464834773103600000011386770940059354269_);" d="M1501.429,2385.911
				c0,0,35.02,93.582,14.334,111.916c128.704-27.962,238.567-87.54,238.567-87.54s14.029-39.313,2.369-39.313
				C1737.238,2370.973,1501.429,2385.911,1501.429,2385.911z"/>
			
				<linearGradient id="SVGID_00000141436589839049122360000017429007874397658001_" gradientUnits="userSpaceOnUse" x1="1331.5452" y1="2937.0249" x2="1248.0654" y2="3246.0991" gradientTransform="matrix(0.9833 0.182 -0.182 0.9833 3.5969 -612.7668)">
				<stop  offset="0" style="stop-color:#311944"/>
				<stop  offset="1" style="stop-color:#A03976"/>
			</linearGradient>
			<path style="fill:url(#SVGID_00000141436589839049122360000017429007874397658001_);" d="M610.633,2437.183
				c0,0-92.522,318.25-33.044,339.049c59.478,20.798,183.339-11.361,195.685-11.932c12.346-0.571,33.11,26.119,50,29.652
				c16.89,3.533,5.279,33.208,14.774,25.99c9.496-7.219,23.381-58.004,5.673-72.547c-17.708-14.543-49.999-27.454-64.55-21.579
				c-14.551,5.875-143.635-13.116-143.635-13.116l65.658-226.935L610.633,2437.183z"/>
			
				<linearGradient id="SVGID_00000095325315368764241510000011117934957904446096_" gradientUnits="userSpaceOnUse" x1="808.8297" y1="1967.1307" x2="539.2346" y2="2965.2764">
				<stop  offset="0" style="stop-color:#AA80F9"/>
				<stop  offset="0.9964" style="stop-color:#6165D7"/>
			</linearGradient>
			<path style="fill:url(#SVGID_00000095325315368764241510000011117934957904446096_);" d="M674.333,2250.078
				c0,0-71.438,93.606-81.067,165.021c-9.628,71.415-19.257,125.976-19.257,125.976s157.264,25.087,166.892,32.603
				C751.782,2530.256,832.427,2228.676,674.333,2250.078z"/>
		</g>
		<g>
			<g>
				
					<linearGradient id="SVGID_00000011718951135818996450000004272938494780725135_" gradientUnits="userSpaceOnUse" x1="2117.5974" y1="980.4629" x2="3035.6521" y2="980.4629">
					<stop  offset="0" style="stop-color:#2B3582"/>
					<stop  offset="1" style="stop-color:#150E42"/>
				</linearGradient>
				<polygon style="fill:url(#SVGID_00000011718951135818996450000004272938494780725135_);" points="2883.22,1089.654 
					3035.652,1094.371 3035.652,873.484 2840.755,866.554 2810.404,933.178 2117.597,909.26 2117.597,1065.124 2883.22,1089.732 
									"/>
				<g>
					
						<linearGradient id="SVGID_00000129203151094042437500000001737458532488788636_" gradientUnits="userSpaceOnUse" x1="4071.6179" y1="756.9006" x2="4939.147" y2="1671.45" gradientTransform="matrix(1 0 0 1 -1789.6733 0)">
						<stop  offset="0" style="stop-color:#AA80F9"/>
						<stop  offset="0.9964" style="stop-color:#6165D7"/>
					</linearGradient>
					<polygon style="fill:url(#SVGID_00000129203151094042437500000001737458532488788636_);" points="2898.213,1089.836 
						2128.169,1065.267 2128.17,909.529 2898.213,936.095 					"/>
					<polygon style="fill:#FFFFFF;" points="2156.832,1037.706 2156.833,938.993 2870.251,963.268 2870.251,1060.807 					"/>
					
						<linearGradient id="SVGID_00000047741820169888624540000011213848439213136565_" gradientUnits="userSpaceOnUse" x1="4608.8101" y1="896.4382" x2="5000.3569" y2="1309.2068" gradientTransform="matrix(1 0 0 1 -1789.6733 0)">
						<stop  offset="0" style="stop-color:#AA80F9"/>
						<stop  offset="0.9964" style="stop-color:#6165D7"/>
					</linearGradient>
					<polygon style="fill:url(#SVGID_00000047741820169888624540000011213848439213136565_);" points="3046.892,1094.502 
						2748.785,1084.99 2853.464,866.927 3046.891,873.82 					"/>
					<polygon style="fill:#FFFFFF;" points="2793.174,1058.233 2871.158,895.693 3019.071,900.895 3019.071,1065.548 					"/>
					<polygon style="fill:#FFFFFF;" points="2229.329,1025.123 2177.837,1023.443 2177.838,954.652 2229.329,956.391 					"/>
					<polygon style="fill:#FFFFFF;" points="2298.966,1027.395 2247.594,1025.719 2247.594,957.008 2298.966,958.743 					"/>
					<polygon style="fill:#FFFFFF;" points="2368.442,1029.662 2317.189,1027.989 2317.189,959.358 2368.442,961.09 					"/>
					<polygon style="fill:#FFFFFF;" points="2437.756,1031.923 2386.622,1030.255 2386.622,961.704 2437.756,963.431 					"/>
					
						<linearGradient id="SVGID_00000170241009116470109480000001092021601910346927_" gradientUnits="userSpaceOnUse" x1="4410.9238" y1="864.4001" x2="4068.7222" y2="1194.0317" gradientTransform="matrix(1 0 0 1 -1789.6733 0)">
						<stop  offset="0" style="stop-color:#AA80F9"/>
						<stop  offset="0.9964" style="stop-color:#6165D7"/>
					</linearGradient>
					<polygon style="fill:url(#SVGID_00000170241009116470109480000001092021601910346927_);" points="2506.909,1034.18 
						2455.894,1032.516 2455.894,964.043 2506.909,965.766 					"/>
					
						<linearGradient id="SVGID_00000065073443380642407740000013022580204879208323_" gradientUnits="userSpaceOnUse" x1="4444.46" y1="900.9059" x2="4102.8242" y2="1229.9922" gradientTransform="matrix(1 0 0 1 -1789.6733 0)">
						<stop  offset="0" style="stop-color:#AA80F9"/>
						<stop  offset="0.9964" style="stop-color:#6165D7"/>
					</linearGradient>
					<polygon style="fill:url(#SVGID_00000065073443380642407740000013022580204879208323_);" points="2575.904,1036.432 
						2525.007,1034.771 2525.007,966.378 2575.904,968.097 					"/>
					
						<linearGradient id="SVGID_00000031178861644664067400000003381652606705258384_" gradientUnits="userSpaceOnUse" x1="4477.9531" y1="937.2928" x2="4136.8789" y2="1265.838" gradientTransform="matrix(1 0 0 1 -1789.6733 0)">
						<stop  offset="0" style="stop-color:#AA80F9"/>
						<stop  offset="0.9964" style="stop-color:#6165D7"/>
					</linearGradient>
					<polygon style="fill:url(#SVGID_00000031178861644664067400000003381652606705258384_);" points="2644.738,1038.677 
						2593.958,1037.02 2593.958,968.707 2644.738,970.422 					"/>
					
						<linearGradient id="SVGID_00000169522382640813566720000015654351461238313914_" gradientUnits="userSpaceOnUse" x1="4511.4033" y1="973.563" x2="4170.8931" y2="1301.5651" gradientTransform="matrix(1 0 0 1 -1789.6733 0)">
						<stop  offset="0" style="stop-color:#AA80F9"/>
						<stop  offset="0.9964" style="stop-color:#6165D7"/>
					</linearGradient>
					<polygon style="fill:url(#SVGID_00000169522382640813566720000015654351461238313914_);" points="2713.414,1040.918 
						2662.751,1039.265 2662.751,971.031 2713.414,972.742 					"/>
				</g>
			</g>
			<g>
				
					<linearGradient id="SVGID_00000023993396799082823540000005039956607710605467_" gradientUnits="userSpaceOnUse" x1="2255.188" y1="1251.4569" x2="3046.8816" y2="1251.4569">
					<stop  offset="0" style="stop-color:#2B3582"/>
					<stop  offset="1" style="stop-color:#150E42"/>
				</linearGradient>
				<polygon style="fill:url(#SVGID_00000023993396799082823540000005039956607710605467_);" points="2255.188,1332.606 
					3008.166,1340.858 3046.882,1181.554 2323.106,1162.056 				"/>
				<g>
					
						<linearGradient id="SVGID_00000004547085242010833100000010070984420364128440_" gradientUnits="userSpaceOnUse" x1="2749.3672" y1="1062.1775" x2="2595.1897" y2="1459.7341">
						<stop  offset="0" style="stop-color:#AA80F9"/>
						<stop  offset="0.9964" style="stop-color:#6165D7"/>
					</linearGradient>
					<polygon style="fill:url(#SVGID_00000004547085242010833100000010070984420364128440_);" points="3018.694,1340.769 
						2267.157,1332.519 2334.942,1162.137 3057.338,1181.612 					"/>
					<g>
						<g>
							<path style="fill:#FFFFFF;" d="M2445.331,1224.753c0,17.632-14.419,31.501-32.377,30.973
								c-18.15-0.534-33.007-15.543-33.007-33.519s14.857-31.827,33.007-30.948
								C2430.912,1192.129,2445.331,1207.121,2445.331,1224.753z"/>
							<path style="fill:#FFFFFF;" d="M2474.202,1307.921c-9.392-23.179-32.89-41.742-60.821-42.462
								c-28.398-0.732-53.036,17.643-63.082,40.787L2474.202,1307.921z"/>
						</g>
						<g>
							<path style="fill:#FFFFFF;" d="M2586.088,1230.234c0,16.894-13.234,30.2-29.71,29.715
								c-16.645-0.49-30.264-14.841-30.264-32.05c0-17.208,13.619-30.499,30.264-29.693
								C2572.854,1199.004,2586.088,1213.34,2586.088,1230.234z"/>
							<path style="fill:#FFFFFF;" d="M2612.601,1309.792c-8.627-22.866-30.203-39.974-55.832-40.635
								c-26.04-0.672-48.617,16.265-57.818,39.099L2612.601,1309.792z"/>
						</g>
						<g>
							<path style="fill:#FFFFFF;" d="M2715.531,1235.274c0,16.215-12.19,29.001-27.36,28.554
								c-15.319-0.451-27.849-14.199-27.849-30.704c0-16.505,12.53-29.277,27.849-28.535
								C2703.341,1205.324,2715.531,1219.059,2715.531,1235.274z"/>
							<path style="fill:#FFFFFF;" d="M2739.964,1311.514c-7.952-22.578-27.832-38.35-51.433-38.959
								c-23.964-0.618-44.728,14.997-53.187,37.545L2739.964,1311.514z"/>
						</g>
						<g>
							<path style="fill:#FFFFFF;" d="M2837.534,1235.538c0,16.488-12.605,29.479-28.297,29.013
								c-15.851-0.471-28.82-14.469-28.82-31.262c0-16.792,12.969-29.769,28.82-28.992
								C2824.928,1205.066,2837.534,1219.05,2837.534,1235.538z"/>
							<path style="fill:#FFFFFF;" d="M2862.788,1313.175c-8.218-22.314-28.769-39.003-53.179-39.638
								c-24.798-0.645-46.296,15.891-55.056,38.174L2862.788,1313.175z"/>
						</g>
						<g>
							<path style="fill:#FFFFFF;" d="M2960.863,1240.394c0,15.83-11.617,28.317-26.074,27.888
								c-14.598-0.434-26.536-13.849-26.536-29.959c0-16.11,11.939-28.585,26.536-27.869
								C2949.245,1211.162,2960.863,1224.564,2960.863,1240.394z"/>
							<path style="fill:#FFFFFF;" d="M2984.149,1314.816c-7.579-22.039-26.526-37.43-49.018-38.015
								c-22.834-0.594-42.618,14.656-50.678,36.667L2984.149,1314.816z"/>
						</g>
					</g>
				</g>
			</g>
			<g>
				
					<linearGradient id="SVGID_00000075120785532432383500000005136963431275567253_" gradientUnits="userSpaceOnUse" x1="2255.188" y1="1506.4625" x2="3046.8816" y2="1506.4625">
					<stop  offset="0" style="stop-color:#2B3582"/>
					<stop  offset="1" style="stop-color:#150E42"/>
				</linearGradient>
				<polygon style="fill:url(#SVGID_00000075120785532432383500000005136963431275567253_);" points="2255.188,1591.701 
					3008.166,1592.45 3046.882,1432.761 2323.106,1420.475 				"/>
				<g>
					
						<linearGradient id="SVGID_00000007422362859744533080000006117278783840641719_" gradientUnits="userSpaceOnUse" x1="2750.759" y1="1313.8201" x2="2593.9275" y2="1718.2207">
						<stop  offset="0" style="stop-color:#AA80F9"/>
						<stop  offset="0.9964" style="stop-color:#6165D7"/>
					</linearGradient>
					<polygon style="fill:url(#SVGID_00000007422362859744533080000006117278783840641719_);" points="3018.694,1592.256 
						2267.157,1591.495 2334.942,1420.438 3057.338,1432.715 					"/>
					<g>
						<g>
							<path style="fill:#FFFFFF;" d="M2445.331,1481.954c0,17.632-14.419,31.645-32.377,31.296
								c-18.15-0.354-33.007-15.215-33.007-33.19s14.857-31.975,33.007-31.277
								C2430.912,1449.473,2445.331,1464.322,2445.331,1481.954z"/>
							<path style="fill:#FFFFFF;" d="M2474.202,1564.834c-9.392-23.086-32.89-41.414-60.821-41.856
								c-28.398-0.449-53.036,18.171-63.082,41.416L2474.202,1564.834z"/>
						</g>
						<g>
							<path style="fill:#FFFFFF;" d="M2586.088,1486.032c0,16.894-13.234,30.331-29.71,30.011
								c-16.645-0.324-30.264-14.54-30.264-31.748s13.619-30.635,30.264-29.995
								C2572.854,1454.934,2586.088,1469.138,2586.088,1486.032z"/>
							<path style="fill:#FFFFFF;" d="M2612.601,1565.327c-8.627-22.78-30.203-39.673-55.832-40.079
								c-26.04-0.412-48.617,16.75-57.818,39.675L2612.601,1565.327z"/>
						</g>
						<g>
							<path style="fill:#FFFFFF;" d="M2715.531,1489.782c0,16.215-12.19,29.122-27.36,28.827
								c-15.319-0.298-27.849-13.922-27.849-30.427c0-16.505,12.53-29.402,27.849-28.813
								C2703.341,1459.954,2715.531,1473.568,2715.531,1489.782z"/>
							<path style="fill:#FFFFFF;" d="M2739.964,1565.779c-7.952-22.498-27.832-38.073-51.433-38.447
								c-23.964-0.379-44.728,15.443-53.187,38.075L2739.964,1565.779z"/>
						</g>
						<g>
							<path style="fill:#FFFFFF;" d="M2837.534,1488.831c0,16.488-12.605,29.605-28.297,29.295
								c-15.851-0.313-28.82-14.182-28.82-30.975c0-16.792,12.969-29.899,28.82-29.279
								C2824.928,1458.485,2837.534,1472.343,2837.534,1488.831z"/>
							<path style="fill:#FFFFFF;" d="M2862.788,1566.216c-8.218-22.232-28.769-38.716-53.179-39.108
								c-24.798-0.398-46.296,16.352-55.056,38.723L2862.788,1566.216z"/>
						</g>
						<g>
							<path style="fill:#FFFFFF;" d="M2960.863,1492.458c0,15.83-11.617,28.433-26.074,28.147
								c-14.598-0.288-26.536-13.584-26.536-29.695c0-16.11,11.939-28.704,26.536-28.134
								C2949.245,1463.342,2960.863,1476.628,2960.863,1492.458z"/>
							<path style="fill:#FFFFFF;" d="M2984.149,1566.647c-7.579-21.964-26.526-37.166-49.018-37.527
								c-22.834-0.366-42.618,15.081-50.678,37.172L2984.149,1566.647z"/>
						</g>
					</g>
				</g>
			</g>
		</g>
	</g>
</g>
</svg>
