<?xml version="1.0" encoding="utf-8"?>
<!-- Generator: Adobe Illustrator 27.5.0, SVG Export Plug-In . SVG Version: 6.00 Build 0)  -->
<svg version="1.1" id="PRINT" xmlns="http://www.w3.org/2000/svg" xmlns:xlink="http://www.w3.org/1999/xlink" x="0px" y="0px"
	 viewBox="0 0 595.276 841.89" style="enable-background:new 0 0 595.276 841.89;" xml:space="preserve">
<rect x="-14.173" y="-14.173" style="fill:#FCFFFF;" width="623.622" height="870.236"/>
<g>
	<rect x="0" style="fill:#FCFFFF;" width="595.275" height="841.89"/>
	<g>
		
			<text transform="matrix(1 0 0 1 49.7292 92.613)" style="fill:#524F61; font-family:'NotoSerifDisplay-ExtraBoldItalic'; font-size:56px; letter-spacing:-3;">To do list</text>
	</g>
	<g>
		
			<text transform="matrix(1 0 0 1 387.1985 82.6757)" style="fill:#524F61; font-family:'NotoSerifDisplay-ExtraBoldItalic'; font-size:12px;">date :</text>
	</g>
	<path style="fill:none;stroke:#524F61;stroke-width:0.75;stroke-miterlimit:10;" d="M382.974,515.831h188.16V147.084
		c0-7.382-5.984-13.367-13.367-13.367H396.341c-7.382,0-13.367,5.984-13.367,13.367V515.831z"/>
	
		<line style="fill:none;stroke:#524F61;stroke-width:0.75;stroke-miterlimit:10;" x1="382.896" y1="171.464" x2="571.213" y2="171.464"/>
	<path style="fill:none;stroke:#524F61;stroke-width:0.75;stroke-miterlimit:10;" d="M382.974,799.456h188.16v-136.99
		c0-7.382-5.984-13.366-13.367-13.366H396.341c-7.382,0-13.367,5.984-13.367,13.366V799.456z"/>
	
		<line style="fill:none;stroke:#524F61;stroke-width:0.75;stroke-miterlimit:10;" x1="382.896" y1="686.846" x2="571.213" y2="686.846"/>
	<g>
		
			<text transform="matrix(1 0 0 1 397.577 158.575)" style="fill:#524F61; font-family:'NotoSerifDisplay-ExtraBoldItalic'; font-size:15px;">Notes</text>
	</g>
	<path style="fill:none;stroke:#524F61;stroke-width:0.75;stroke-miterlimit:10;" d="M41.348,799.456h319.919V318.085
		c0-7.382-5.984-13.367-13.366-13.367H54.715c-7.382,0-13.367,5.984-13.367,13.367V799.456z"/>
	
		<line style="fill:none;stroke:#524F61;stroke-width:0.75;stroke-miterlimit:10;" x1="41.277" y1="343.696" x2="361.267" y2="343.696"/>
	<g>
		
			<text transform="matrix(1 0 0 1 55.9579 330.8077)" style="fill:#524F61; font-family:'NotoSerifDisplay-ExtraBoldItalic'; font-size:15px;">Tasks</text>
	</g>
	<g>
		
			<text transform="matrix(1 0 0 1 55.9579 158.575)" style="fill:#524F61; font-family:'NotoSerifDisplay-ExtraBoldItalic'; font-size:15px;">Top three priorities</text>
	</g>
	<g>
		
			<text transform="matrix(1 0 0 1 397.577 673.9575)" style="fill:#524F61; font-family:'NotoSerifDisplay-ExtraBoldItalic'; font-size:15px;">Water tracker</text>
	</g>
	<path style="fill:none;stroke:#524F61;stroke-width:0.75;stroke-miterlimit:10;" d="M382.974,633.301h188.16v-86.113
		c0-7.382-5.984-13.367-13.367-13.367H396.341c-7.382,0-13.367,5.984-13.367,13.367V633.301z"/>
	
		<line style="fill:none;stroke:#524F61;stroke-width:0.75;stroke-miterlimit:10;" x1="382.896" y1="571.567" x2="571.213" y2="571.567"/>
	<g>
		
			<text transform="matrix(1 0 0 1 397.577 558.6788)" style="fill:#524F61; font-family:'NotoSerifDisplay-ExtraBoldItalic'; font-size:15px;">Mood tracker</text>
	</g>
	<g>
		<g>
			<circle style="fill:none;stroke:#524F61;stroke-width:0.75;stroke-miterlimit:10;" cx="419.402" cy="601.924" r="15.929"/>
			<path style="fill:none;stroke:#524F61;stroke-width:0.75;stroke-miterlimit:10;" d="M421.581,605.119
				c0,1.204-0.976,2.179-2.179,2.179c-1.204,0-2.179-0.976-2.179-2.179H421.581z"/>
			<g>
				<g>
					<circle style="fill:#524F61;" cx="413.215" cy="601.126" r="2.169"/>
					<circle style="fill:#524F61;" cx="425.589" cy="601.126" r="2.169"/>
				</g>
			</g>
		</g>
		<g>
			<circle style="fill:none;stroke:#524F61;stroke-width:0.75;stroke-miterlimit:10;" cx="457.837" cy="601.924" r="15.929"/>
			<path style="fill:none;stroke:#524F61;stroke-width:0.75;stroke-miterlimit:10;" d="M460.016,605.119
				c0,1.204-0.976,2.179-2.179,2.179c-1.204,0-2.179-0.976-2.179-2.179"/>
			<g>
				<g>
					<circle style="fill:#524F61;" cx="451.65" cy="601.126" r="2.169"/>
					<circle style="fill:#524F61;" cx="464.024" cy="601.126" r="2.169"/>
				</g>
			</g>
		</g>
		<g>
			<circle style="fill:none;stroke:#524F61;stroke-width:0.75;stroke-miterlimit:10;" cx="534.707" cy="601.924" r="15.929"/>
			<path style="fill:none;stroke:#524F61;stroke-width:0.75;stroke-miterlimit:10;" d="M532.527,607.299
				c0-1.204,0.976-2.179,2.179-2.179c1.204,0,2.179,0.976,2.179,2.179"/>
			<g>
				<g>
					<circle style="fill:#524F61;" cx="528.52" cy="601.126" r="2.169"/>
					<circle style="fill:#524F61;" cx="540.894" cy="601.126" r="2.169"/>
				</g>
			</g>
		</g>
		<g>
			<circle style="fill:none;stroke:#524F61;stroke-width:0.75;stroke-miterlimit:10;" cx="496.272" cy="601.924" r="15.929"/>
			<g>
				<g>
					<circle style="fill:#524F61;" cx="490.085" cy="601.126" r="2.169"/>
					<circle style="fill:#524F61;" cx="502.459" cy="601.126" r="2.169"/>
				</g>
			</g>
			
				<line style="fill:none;stroke:#524F61;stroke-width:0.75;stroke-miterlimit:10;" x1="494.092" y1="607.299" x2="498.451" y2="607.299"/>
		</g>
	</g>
	<g>
		<g>
			<path style="fill:none;stroke:#524F61;stroke-width:0.75;stroke-miterlimit:10;" d="M427.31,735.48h-12.943
				c-1.574,0-2.89-1.199-3.036-2.766l-2.945-31.62c-0.167-1.788,1.24-3.331,3.035-3.331h18.832c1.795,0,3.202,1.544,3.035,3.331
				l-2.945,31.62C430.199,734.282,428.884,735.48,427.31,735.48z"/>
			<path style="fill:none;stroke:#524F61;stroke-width:0.75;stroke-miterlimit:10;" d="M408.956,708.301
				c1.983,2.215,3.383,5.169,7.115,5.169c5.976,0,5.976-7.561,11.952-7.561c2.109,0,3.473,0.941,4.619,2.16"/>
		</g>
		<g>
			<path style="fill:none;stroke:#524F61;stroke-width:0.75;stroke-miterlimit:10;" d="M464.787,735.48h-12.943
				c-1.574,0-2.889-1.199-3.035-2.766l-2.945-31.62c-0.166-1.788,1.24-3.331,3.036-3.331h18.832c1.795,0,3.202,1.544,3.035,3.331
				l-2.945,31.62C467.677,734.282,466.361,735.48,464.787,735.48z"/>
			<path style="fill:none;stroke:#524F61;stroke-width:0.75;stroke-miterlimit:10;" d="M446.434,708.301
				c1.983,2.215,3.383,5.169,7.115,5.169c5.976,0,5.976-7.561,11.952-7.561c2.109,0,3.473,0.941,4.619,2.16"/>
		</g>
		<g>
			<path style="fill:none;stroke:#524F61;stroke-width:0.75;stroke-miterlimit:10;" d="M502.264,735.48h-12.943
				c-1.574,0-2.889-1.199-3.035-2.766l-2.945-31.62c-0.167-1.788,1.24-3.331,3.035-3.331h18.832c1.795,0,3.202,1.544,3.035,3.331
				l-2.945,31.62C505.154,734.282,503.839,735.48,502.264,735.48z"/>
			<path style="fill:none;stroke:#524F61;stroke-width:0.75;stroke-miterlimit:10;" d="M483.911,708.301
				c1.983,2.215,3.383,5.169,7.115,5.169c5.976,0,5.976-7.561,11.952-7.561c2.109,0,3.473,0.941,4.619,2.16"/>
		</g>
		<g>
			<path style="fill:none;stroke:#524F61;stroke-width:0.75;stroke-miterlimit:10;" d="M539.742,735.48h-12.943
				c-1.574,0-2.89-1.199-3.036-2.766l-2.945-31.62c-0.167-1.788,1.24-3.331,3.035-3.331h18.832c1.795,0,3.202,1.544,3.036,3.331
				l-2.945,31.62C542.631,734.282,541.316,735.48,539.742,735.48z"/>
			<path style="fill:none;stroke:#524F61;stroke-width:0.75;stroke-miterlimit:10;" d="M521.388,708.301
				c1.983,2.215,3.383,5.169,7.115,5.169c5.976,0,5.976-7.561,11.952-7.561c2.109,0,3.473,0.941,4.619,2.16"/>
		</g>
		<g>
			<path style="fill:none;stroke:#524F61;stroke-width:0.75;stroke-miterlimit:10;" d="M427.31,783.95h-12.943
				c-1.574,0-2.89-1.199-3.036-2.766l-2.945-31.62c-0.167-1.788,1.24-3.331,3.035-3.331h18.832c1.795,0,3.202,1.544,3.035,3.331
				l-2.945,31.62C430.199,782.751,428.884,783.95,427.31,783.95z"/>
			<path style="fill:none;stroke:#524F61;stroke-width:0.75;stroke-miterlimit:10;" d="M408.956,756.771
				c1.983,2.215,3.383,5.169,7.115,5.169c5.976,0,5.976-7.561,11.952-7.561c2.109,0,3.473,0.942,4.619,2.16"/>
		</g>
		<g>
			<path style="fill:none;stroke:#524F61;stroke-width:0.75;stroke-miterlimit:10;" d="M464.787,783.95h-12.943
				c-1.574,0-2.889-1.199-3.035-2.766l-2.945-31.62c-0.166-1.788,1.24-3.331,3.036-3.331h18.832c1.795,0,3.202,1.544,3.035,3.331
				l-2.945,31.62C467.677,782.751,466.361,783.95,464.787,783.95z"/>
			<path style="fill:none;stroke:#524F61;stroke-width:0.75;stroke-miterlimit:10;" d="M446.434,756.771
				c1.983,2.215,3.383,5.169,7.115,5.169c5.976,0,5.976-7.561,11.952-7.561c2.109,0,3.473,0.942,4.619,2.16"/>
		</g>
		<g>
			<path style="fill:none;stroke:#524F61;stroke-width:0.75;stroke-miterlimit:10;" d="M502.264,783.95h-12.943
				c-1.574,0-2.889-1.199-3.035-2.766l-2.945-31.62c-0.167-1.788,1.24-3.331,3.035-3.331h18.832c1.795,0,3.202,1.544,3.035,3.331
				l-2.945,31.62C505.154,782.751,503.839,783.95,502.264,783.95z"/>
			<path style="fill:none;stroke:#524F61;stroke-width:0.75;stroke-miterlimit:10;" d="M483.911,756.771
				c1.983,2.215,3.383,5.169,7.115,5.169c5.976,0,5.976-7.561,11.952-7.561c2.109,0,3.473,0.942,4.619,2.16"/>
		</g>
		<g>
			<path style="fill:none;stroke:#524F61;stroke-width:0.75;stroke-miterlimit:10;" d="M539.742,783.95h-12.943
				c-1.574,0-2.89-1.199-3.036-2.766l-2.945-31.62c-0.167-1.788,1.24-3.331,3.035-3.331h18.832c1.795,0,3.202,1.544,3.036,3.331
				l-2.945,31.62C542.631,782.751,541.316,783.95,539.742,783.95z"/>
			<path style="fill:none;stroke:#524F61;stroke-width:0.75;stroke-miterlimit:10;" d="M521.388,756.771
				c1.983,2.215,3.383,5.169,7.115,5.169c5.976,0,5.976-7.561,11.952-7.561c2.109,0,3.473,0.942,4.619,2.16"/>
		</g>
	</g>
	
		<line style="fill:none;stroke:#524F61;stroke-width:0.75;stroke-miterlimit:10;" x1="41.277" y1="102.04" x2="361.267" y2="102.04"/>
	
		<line style="fill:none;stroke:#524F61;stroke-width:0.75;stroke-miterlimit:10;" x1="41.348" y1="206.061" x2="361.267" y2="206.061"/>
	
		<line style="fill:none;stroke:#524F61;stroke-width:0.75;stroke-miterlimit:10;" x1="41.348" y1="171.464" x2="361.267" y2="171.464"/>
	<rect x="41.348" y="171.464" style="fill:#524F61;" width="24.791" height="34.597"/>
	
		<text transform="matrix(1 0 0 1 47.6628 192.4274)" style="fill:#FCFFFF; font-family:'PlayfairDisplay-Bold'; font-size:12px; letter-spacing:3;">1.</text>
	<g>
		
			<line style="fill:none;stroke:#524F61;stroke-width:0.75;stroke-miterlimit:10;" x1="41.348" y1="246.516" x2="361.267" y2="246.516"/>
	</g>
	<rect x="41.348" y="211.919" style="fill:#524F61;" width="24.791" height="34.597"/>
	
		<text transform="matrix(1 0 0 1 47.6628 232.883)" style="fill:#FCFFFF; font-family:'PlayfairDisplay-Bold'; font-size:12px; letter-spacing:3;">2.</text>
	<rect x="41.348" y="252.375" style="fill:#524F61;" width="24.791" height="34.597"/>
	
		<text transform="matrix(1 0 0 1 47.6628 273.3386)" style="fill:#FCFFFF; font-family:'PlayfairDisplay-Bold'; font-size:12px; letter-spacing:3;">3.</text>
	<path style="fill:none;stroke:#524F61;stroke-width:0.75;stroke-miterlimit:10;" d="M347.901,133.718H54.644
		c-7.382,0-13.367,5.984-13.367,13.367v139.888h319.99V147.084C361.267,139.702,355.283,133.718,347.901,133.718z"/>
	<g>
		<g>
			
				<line style="fill:none;stroke:#524F61;stroke-linecap:round;stroke-linejoin:round;stroke-miterlimit:10;stroke-dasharray:0,5;" x1="52.69" y1="395.516" x2="349.926" y2="395.516"/>
			<g>
				<path style="fill:none;stroke:#524F61;stroke-width:0.75;stroke-miterlimit:10;" d="M67.071,386.321h-9.186
					c-1.684,0-3.049-1.365-3.049-3.049v-9.762c0-1.684,1.365-3.049,3.049-3.049h9.186c1.684,0,3.049,1.365,3.049,3.049v9.762
					C70.12,384.956,68.755,386.321,67.071,386.321z"/>
			</g>
		</g>
		<g>
			
				<line style="fill:none;stroke:#524F61;stroke-linecap:round;stroke-linejoin:round;stroke-miterlimit:10;stroke-dasharray:0,5;" x1="52.69" y1="443.195" x2="349.926" y2="443.195"/>
			<g>
				<path style="fill:none;stroke:#524F61;stroke-width:0.75;stroke-miterlimit:10;" d="M67.071,433.999h-9.186
					c-1.684,0-3.049-1.365-3.049-3.049v-9.762c0-1.684,1.365-3.049,3.049-3.049h9.186c1.684,0,3.049,1.365,3.049,3.049v9.762
					C70.12,432.634,68.755,433.999,67.071,433.999z"/>
			</g>
		</g>
		<g>
			
				<line style="fill:none;stroke:#524F61;stroke-linecap:round;stroke-linejoin:round;stroke-miterlimit:10;stroke-dasharray:0,5;" x1="52.69" y1="490.873" x2="349.926" y2="490.873"/>
			<g>
				<path style="fill:none;stroke:#524F61;stroke-width:0.75;stroke-miterlimit:10;" d="M67.071,481.677h-9.186
					c-1.684,0-3.049-1.365-3.049-3.049v-9.762c0-1.684,1.365-3.049,3.049-3.049h9.186c1.684,0,3.049,1.365,3.049,3.049v9.762
					C70.12,480.312,68.755,481.677,67.071,481.677z"/>
			</g>
		</g>
		<g>
			
				<line style="fill:none;stroke:#524F61;stroke-linecap:round;stroke-linejoin:round;stroke-miterlimit:10;stroke-dasharray:0,5;" x1="52.69" y1="538.551" x2="349.926" y2="538.551"/>
			<g>
				<path style="fill:none;stroke:#524F61;stroke-width:0.75;stroke-miterlimit:10;" d="M67.071,529.355h-9.186
					c-1.684,0-3.049-1.365-3.049-3.049v-9.762c0-1.684,1.365-3.049,3.049-3.049h9.186c1.684,0,3.049,1.365,3.049,3.049v9.762
					C70.12,527.991,68.755,529.355,67.071,529.355z"/>
			</g>
		</g>
		<g>
			
				<line style="fill:none;stroke:#524F61;stroke-linecap:round;stroke-linejoin:round;stroke-miterlimit:10;stroke-dasharray:0,5;" x1="52.69" y1="586.229" x2="349.926" y2="586.229"/>
			<g>
				<path style="fill:none;stroke:#524F61;stroke-width:0.75;stroke-miterlimit:10;" d="M67.071,577.034h-9.186
					c-1.684,0-3.049-1.365-3.049-3.049v-9.762c0-1.684,1.365-3.049,3.049-3.049h9.186c1.684,0,3.049,1.365,3.049,3.049v9.762
					C70.12,575.669,68.755,577.034,67.071,577.034z"/>
			</g>
		</g>
		<g>
			
				<line style="fill:none;stroke:#524F61;stroke-linecap:round;stroke-linejoin:round;stroke-miterlimit:10;stroke-dasharray:0,5;" x1="52.69" y1="633.907" x2="349.926" y2="633.907"/>
			<g>
				<path style="fill:none;stroke:#524F61;stroke-width:0.75;stroke-miterlimit:10;" d="M67.071,624.712h-9.186
					c-1.684,0-3.049-1.365-3.049-3.049v-9.762c0-1.684,1.365-3.049,3.049-3.049h9.186c1.684,0,3.049,1.365,3.049,3.049v9.762
					C70.12,623.347,68.755,624.712,67.071,624.712z"/>
			</g>
		</g>
		<g>
			
				<line style="fill:none;stroke:#524F61;stroke-linecap:round;stroke-linejoin:round;stroke-miterlimit:10;stroke-dasharray:0,5;" x1="52.69" y1="681.586" x2="349.926" y2="681.586"/>
			<g>
				<path style="fill:none;stroke:#524F61;stroke-width:0.75;stroke-miterlimit:10;" d="M67.071,672.39h-9.186
					c-1.684,0-3.049-1.365-3.049-3.049v-9.762c0-1.684,1.365-3.049,3.049-3.049h9.186c1.684,0,3.049,1.365,3.049,3.049v9.762
					C70.12,671.025,68.755,672.39,67.071,672.39z"/>
			</g>
		</g>
		<g>
			
				<line style="fill:none;stroke:#524F61;stroke-linecap:round;stroke-linejoin:round;stroke-miterlimit:10;stroke-dasharray:0,5;" x1="52.69" y1="729.264" x2="349.926" y2="729.264"/>
			<g>
				<path style="fill:none;stroke:#524F61;stroke-width:0.75;stroke-miterlimit:10;" d="M67.071,720.068h-9.186
					c-1.684,0-3.049-1.365-3.049-3.049v-9.762c0-1.684,1.365-3.049,3.049-3.049h9.186c1.684,0,3.049,1.365,3.049,3.049v9.762
					C70.12,718.703,68.755,720.068,67.071,720.068z"/>
			</g>
		</g>
		<g>
			
				<line style="fill:none;stroke:#524F61;stroke-linecap:round;stroke-linejoin:round;stroke-miterlimit:10;stroke-dasharray:0,5;" x1="52.69" y1="776.942" x2="349.926" y2="776.942"/>
			<g>
				<path style="fill:none;stroke:#524F61;stroke-width:0.75;stroke-miterlimit:10;" d="M67.071,767.747h-9.186
					c-1.684,0-3.049-1.365-3.049-3.049v-9.762c0-1.684,1.365-3.049,3.049-3.049h9.186c1.684,0,3.049,1.365,3.049,3.049v9.762
					C70.12,766.382,68.755,767.747,67.071,767.747z"/>
			</g>
		</g>
	</g>
	<g>
		
			<line style="fill:none;stroke:#524F61;stroke-width:0.75;stroke-miterlimit:10;" x1="513.069" y1="84.97" x2="553.998" y2="84.97"/>
		<line style="fill:none;stroke:#524F61;stroke-width:0.75;stroke-miterlimit:10;" x1="472.5" y1="84.97" x2="503.714" y2="84.97"/>
		
			<line style="fill:none;stroke:#524F61;stroke-width:0.75;stroke-miterlimit:10;" x1="429.723" y1="84.97" x2="463.672" y2="84.97"/>
		<g>
			
				<line style="fill:none;stroke:#524F61;stroke-width:0.75;stroke-miterlimit:10;" x1="467.704" y1="84.97" x2="472.714" y2="73.136"/>
			
				<line style="fill:none;stroke:#524F61;stroke-width:0.75;stroke-miterlimit:10;" x1="508.007" y1="84.97" x2="513.017" y2="73.136"/>
		</g>
	</g>
	<g>
		
			<line style="fill:none;stroke:#524F61;stroke-linecap:round;stroke-linejoin:round;stroke-miterlimit:10;stroke-dasharray:0,5;" x1="394.866" y1="206.061" x2="559.989" y2="206.061"/>
		
			<line style="fill:none;stroke:#524F61;stroke-linecap:round;stroke-linejoin:round;stroke-miterlimit:10;stroke-dasharray:0,5;" x1="394.866" y1="246.516" x2="559.989" y2="246.516"/>
		
			<line style="fill:none;stroke:#524F61;stroke-linecap:round;stroke-linejoin:round;stroke-miterlimit:10;stroke-dasharray:0,5;" x1="394.866" y1="286.972" x2="559.989" y2="286.972"/>
		
			<line style="fill:none;stroke:#524F61;stroke-linecap:round;stroke-linejoin:round;stroke-miterlimit:10;stroke-dasharray:0,5;" x1="394.866" y1="327.428" x2="559.989" y2="327.428"/>
		
			<line style="fill:none;stroke:#524F61;stroke-linecap:round;stroke-linejoin:round;stroke-miterlimit:10;stroke-dasharray:0,5;" x1="394.866" y1="367.883" x2="559.989" y2="367.883"/>
		
			<line style="fill:none;stroke:#524F61;stroke-linecap:round;stroke-linejoin:round;stroke-miterlimit:10;stroke-dasharray:0,5;" x1="394.866" y1="408.339" x2="559.989" y2="408.339"/>
		
			<line style="fill:none;stroke:#524F61;stroke-linecap:round;stroke-linejoin:round;stroke-miterlimit:10;stroke-dasharray:0,5;" x1="394.866" y1="448.794" x2="559.989" y2="448.794"/>
		
			<line style="fill:none;stroke:#524F61;stroke-linecap:round;stroke-linejoin:round;stroke-miterlimit:10;stroke-dasharray:0,5;" x1="394.866" y1="489.25" x2="559.989" y2="489.25"/>
	</g>
</g>
</svg>
