<?xml version="1.0" encoding="utf-8"?>
<!-- Generator: Adobe Illustrator 27.5.0, SVG Export Plug-In . SVG Version: 6.00 Build 0)  -->
<svg version="1.1" xmlns="http://www.w3.org/2000/svg" xmlns:xlink="http://www.w3.org/1999/xlink" x="0px" y="0px"
	 viewBox="0 0 500 500" style="enable-background:new 0 0 500 500;" xml:space="preserve">
<g id="BACKGROUND">
	<g>
		<defs>
			<rect id="SVGID_1_" width="500" height="500"/>
		</defs>
		<use xlink:href="#SVGID_1_"  style="overflow:visible;fill:#FCF5EB;"/>
		<clipPath id="SVGID_00000181061635698768379620000009215720733950440354_">
			<use xlink:href="#SVGID_1_"  style="overflow:visible;"/>
		</clipPath>
		
			<rect x="-42" y="-40" style="clip-path:url(#SVGID_00000181061635698768379620000009215720733950440354_);fill:#FFF2E0;" width="586" height="585"/>
	</g>
</g>
<g id="OBJECTS">
	<g>
		<ellipse style="fill:#D4D1CD;" cx="364.019" cy="133.326" rx="99.5" ry="4.315"/>
		<g>
			<path style="fill:#BABAB8;" d="M457.181,111.021c0,1.763-1.428,3.192-3.191,3.192h-3.109c-1.764,0-3.191-1.429-3.191-3.192l0,0
				c0-1.763,1.428-3.191,3.191-3.191h3.109C455.753,107.83,457.181,109.259,457.181,111.021L457.181,111.021z"/>
			<g>
				<path style="fill:#161B29;" d="M269.097,110.454c0,0,2.399,5.884,23.588,5.884h157.762l-9.836-23.125l-47.092-9.75h-86.084
					l-28.807,10.25L269.097,110.454z"/>
				<g>
					<path style="fill:#2B344F;" d="M309.972,114.884c0,10.15-8.228,18.379-18.377,18.379c-10.151,0-18.379-8.229-18.379-18.379
						s8.228-18.378,18.379-18.378C301.744,96.506,309.972,104.734,309.972,114.884z"/>
					<path style="fill:#BABAB8;" d="M291.595,127.85c-7.15,0-12.967-5.815-12.967-12.966c0-7.149,5.816-12.966,12.967-12.966
						c7.148,0,12.966,5.817,12.966,12.966C304.56,122.035,298.743,127.85,291.595,127.85z"/>
					<path style="fill:#2B344F;" d="M291.595,124.243c-5.161,0-9.359-4.198-9.359-9.358c0-5.16,4.198-9.358,9.359-9.358
						c5.159,0,9.357,4.198,9.357,9.358C300.952,120.044,296.754,124.243,291.595,124.243z"/>
					<path style="fill:#EBEBEB;" d="M291.595,122.438c-4.166,0-7.555-3.388-7.555-7.554c0-4.165,3.389-7.554,7.555-7.554
						c4.164,0,7.554,3.389,7.554,7.554C299.148,119.05,295.759,122.438,291.595,122.438z"/>
					<circle style="fill:#2B344F;" cx="422.231" cy="116.043" r="18.379"/>
					<path style="fill:#BABAB8;" d="M422.231,129.01c-7.149,0-12.967-5.817-12.967-12.967c0-7.149,5.817-12.966,12.967-12.966
						c7.15,0,12.967,5.817,12.967,12.966C435.198,123.193,429.381,129.01,422.231,129.01z"/>
					
						<ellipse transform="matrix(1 -0.0036 0.0036 1 -0.4189 1.5351)" style="fill:#2B344F;" cx="422.231" cy="116.043" rx="9.358" ry="9.358"/>
					<path style="fill:#EBEBEB;" d="M422.231,123.596c-4.166,0-7.555-3.387-7.555-7.553c0-4.165,3.389-7.554,7.555-7.554
						c4.166,0,7.555,3.389,7.555,7.554C429.786,120.21,426.397,123.596,422.231,123.596z"/>
				</g>
				<g>
					<path style="fill:#BFD6F7;" d="M270.854,87.371v14.547c2.166,0,7.098-1.756,7.098-3.922v-6.702
						C277.952,89.127,273.02,87.371,270.854,87.371z"/>
					<path style="fill:#FFCA42;" d="M266.932,91.294v6.702c0,2.166,1.757,3.922,3.923,3.922V87.371
						C268.688,87.371,266.932,89.127,266.932,91.294z"/>
				</g>
				<path style="fill:#BFD6F7;" d="M270.685,107.463c0,0,0.383-24.745,29.334-30.334c15-2.896,29-1.666,29-1.666l12-18
					c0,0,84.668-25,110,58.333c0,0-12.084-22.708-30.084-22.708c-18,0-23.25,25.375-23.25,25.375h-81.332c0,0-3.978-27-22.334-27
					C275.663,91.463,270.685,107.463,270.685,107.463z"/>
				<rect x="318.435" y="114.213" style="fill:#63A0F7;" width="79.25" height="4.25"/>
				<path style="fill:#FFFFFF;" d="M343.519,63.269c6.666-5.138,18.165-5.972,28-5.972V76.13h-37.334
					C334.185,76.13,338.528,67.115,343.519,63.269z"/>
				<path style="fill:#FFFFFF;" d="M374.685,57.297V76.13l37.668-0.834C412.352,75.297,403.019,59.63,374.685,57.297z"/>
				<g>
					<g>
						<path style="fill:#63A0F7;" d="M364.019,86.797c2.111,0,4.223,0,6.334,0c1.935,0,1.935-3,0-3c-2.111,0-4.223,0-6.334,0
							C362.084,83.797,362.084,86.797,364.019,86.797L364.019,86.797z"/>
					</g>
				</g>
				<g>
					<path style="fill:#63A0F7;" d="M301.435,82.463c-16.25-2.75-24.651,5.487-28.75,11.25c-4.622,6.5-6.377,19.75-3.627,20
						c0.251,0.023,0.515-0.128,0.799-0.414c1.572-10.696,10.785-18.907,21.918-18.907c12.237,0,22.158,9.92,22.158,22.158
						c0,0-0.123,1.913,2.42,1.913c3.582,0,10.202,0,10.202,0S322.776,86.075,301.435,82.463z"/>
					<path style="fill:#63A0F7;" d="M421.185,83.463c-19,0-27.687,19.625-28,27.25c-0.149,3.637,0.25,7.75,4.5,7.75
						c0.809,0,2-0.334,2.101-2.005c0.049-12.195,9.949-22.065,22.155-22.065c11.97,0,21.718,9.494,22.138,21.362
						c0.48,4.431,5.684,4.468,10.105,3.959C454.185,119.713,450.435,83.463,421.185,83.463z"/>
				</g>
				<path style="fill:#BABAB8;" d="M272.495,107.488c0,1.763-1.43,3.192-3.191,3.192h-3.111c-1.762,0-3.191-1.429-3.191-3.192l0,0
					c0-1.763,1.43-3.191,3.191-3.191h3.111C271.065,104.297,272.495,105.726,272.495,107.488L272.495,107.488z"/>
			</g>
			<path style="fill:none;stroke:#FFFFFF;stroke-width:2;stroke-linecap:round;stroke-miterlimit:10;" d="M321.435,92.463
				c0,0,6.375,8.25,7.584,18.559h60.333"/>
		</g>
	</g>
	<g>
		<ellipse style="fill:#D4D1CD;" cx="137.834" cy="133.326" rx="99.5" ry="4.315"/>
		<g>
			<path style="fill:#FFCA42;" d="M141.672,75.504l37.25,4.251c0,0,0-11.251,7.75-10.001s0,17.75-4.5,18s-41.5-4.5-41.5-4.5
				L141.672,75.504z"/>
			<g>
				<path style="fill:#FFCA42;" d="M138.672,62.754c0,7.25,0,14.5,0,21.75c0,1.935,3,1.935,3,0c0-7.25,0-14.5,0-21.75
					C141.672,60.82,138.672,60.82,138.672,62.754L138.672,62.754z"/>
			</g>
			<path style="fill:#900000;" d="M41.922,107.768c-3.24-6.192-4.124-28.698,21.5-36.347c16.75-5,64-4,70.25-1.5c0,0,2.5,8,7,8.75
				s34.667,5.084,41.333,4.917c6.667-0.167,6.667-5.167,7.5-6.333c0,0,38.667-2.167,38.667,41.5c0,0-152.333,0-162.833,0
				S45.838,115.254,41.922,107.768z"/>
			<path style="fill:#212121;" d="M84.379,107.088c0,5.638-4.57,10.207-10.206,10.207c-5.637,0-10.207-4.569-10.207-10.207
				c0-5.637,4.57-10.207,10.207-10.207C79.809,96.881,84.379,101.451,84.379,107.088z"/>
			<path style="fill:#FFCA42;" d="M232.672,114.754c0,3.406-2.761,6.167-6.167,6.167H109.172c-3.406,0-6.167-2.761-6.167-6.167l0,0
				c0-3.406,2.761-6.167,6.167-6.167h117.333C229.911,108.587,232.672,111.348,232.672,114.754L232.672,114.754z"/>
			<g>
				<g>
					<g>
						<g>
							<g>
								<polygon style="fill:#F5F2F1;" points="75.493,107.663 74.127,93.089 72.866,107.661 72.368,107.618 73.868,90.283 
									74.366,90.281 75.991,107.616 								"/>
							</g>
							<g>
								<polygon style="fill:#F5F2F1;" points="74.227,109.347 74.18,108.849 88.752,107.483 74.182,106.222 74.225,105.724 
									91.559,107.224 91.56,107.722 								"/>
							</g>
							<g>
								<polygon style="fill:#F5F2F1;" points="73.993,124.791 72.368,107.457 72.866,107.411 74.232,121.983 75.493,107.413 
									75.991,107.456 74.491,124.79 								"/>
							</g>
							<g>
								<polygon style="fill:#F5F2F1;" points="74.119,109.347 56.785,107.847 56.783,107.349 74.117,105.724 74.164,106.222 
									59.592,107.588 74.162,108.849 								"/>
							</g>
						</g>
						<g>
							<g>
								<polygon style="fill:#F5F2F1;" points="75.505,108.896 75.12,108.578 84.459,97.307 73.264,106.719 72.942,106.336 
									86.261,95.14 86.613,95.491 								"/>
							</g>
							<g>
								<polygon style="fill:#F5F2F1;" points="86.329,119.962 72.922,108.855 73.242,108.47 84.512,117.808 75.099,106.613 
									75.482,106.29 86.679,119.609 								"/>
							</g>
							<g>
								<polygon style="fill:#F5F2F1;" points="62.1,120.184 61.746,119.834 72.853,106.427 73.238,106.746 63.9,118.017 
									75.096,108.606 75.417,108.989 								"/>
							</g>
							<g>
								<polygon style="fill:#F5F2F1;" points="72.845,108.779 61.649,95.461 62,95.108 75.407,106.216 75.087,106.601 
									63.817,97.263 73.228,108.456 								"/>
							</g>
						</g>
					</g>
					<g>
						<g>
							<g>
								<polygon style="fill:#F5F2F1;" points="75.93,108.259 75.451,108.119 79.562,94.073 73.009,107.148 72.562,106.923 
									80.357,91.37 80.821,91.552 								"/>
							</g>
							<g>
								<polygon style="fill:#F5F2F1;" points="90.254,114.128 73.545,109.238 73.686,108.757 87.733,112.869 74.658,106.318 
									74.881,105.871 90.437,113.665 								"/>
							</g>
							<g>
								<polygon style="fill:#F5F2F1;" points="68.001,123.702 67.539,123.518 72.428,106.809 72.908,106.95 68.796,120.998 
									75.349,107.922 75.796,108.147 								"/>
							</g>
							<g>
								<polygon style="fill:#F5F2F1;" points="73.447,109.199 57.891,101.405 58.073,100.941 74.782,105.831 74.641,106.31 
									60.595,102.2 73.67,108.752 								"/>
							</g>
						</g>
						<g>
							<g>
								<polygon style="fill:#F5F2F1;" points="74.896,109.215 74.656,108.776 87.497,101.751 73.617,106.364 73.459,105.889 
									89.971,100.402 90.169,100.858 								"/>
							</g>
							<g>
								<polygon style="fill:#F5F2F1;" points="80.896,123.451 72.539,108.177 72.977,107.937 80.003,120.777 75.39,106.898 
									75.864,106.74 81.352,123.252 								"/>
							</g>
							<g>
								<polygon style="fill:#F5F2F1;" points="58.389,114.669 58.19,114.211 73.462,105.854 73.703,106.294 60.864,113.319 
									74.742,108.706 74.9,109.18 								"/>
							</g>
							<g>
								<polygon style="fill:#F5F2F1;" points="72.495,108.078 67.007,91.568 67.464,91.369 75.821,106.642 75.383,106.882 
									68.356,94.043 72.97,107.919 								"/>
							</g>
						</g>
					</g>
				</g>
				<g>
					<path style="fill:#FFFFFF;" d="M74.172,84.422c-12.765,0-23.113,10.348-23.113,23.113c0,12.765,10.348,23.114,23.113,23.114
						c12.766,0,23.114-10.35,23.114-23.114C97.286,94.77,86.937,84.422,74.172,84.422z M74.172,123.883
						c-9.014,0-16.348-7.334-16.348-16.349c0-9.014,7.334-16.348,16.348-16.348c9.015,0,16.349,7.334,16.349,16.348
						C90.52,116.549,83.186,123.883,74.172,123.883z"/>
					<path style="fill:#212121;" d="M74.172,79.755c-15.096,0-27.333,12.237-27.333,27.333c0,15.095,12.237,27.333,27.333,27.333
						c15.096,0,27.333-12.238,27.333-27.333C101.505,91.992,89.268,79.755,74.172,79.755z M74.172,126.421
						c-10.66,0-19.333-8.673-19.333-19.333c0-10.66,8.673-19.333,19.333-19.333c10.661,0,19.333,8.673,19.333,19.333
						C93.505,117.748,84.832,126.421,74.172,126.421z"/>
					<circle style="fill:#FFFFFF;" cx="74.172" cy="107.536" r="4.75"/>
				</g>
			</g>
			<path style="fill:#FFEAB5;" d="M225.271,112.171c0,0.642-0.52,1.161-1.161,1.161H108.833c-0.641,0-1.161-0.519-1.161-1.161l0,0
				c0-0.642,0.52-1.161,1.161-1.161H224.11C224.751,111.01,225.271,111.53,225.271,112.171L225.271,112.171z"/>
			<path style="fill:#212121;" d="M217.622,107.088c0,5.638-4.57,10.207-10.207,10.207c-5.637,0-10.207-4.569-10.207-10.207
				c0-5.637,4.57-10.207,10.207-10.207C213.052,96.881,217.622,101.451,217.622,107.088z"/>
			<path style="fill:none;stroke:#FFFFFF;stroke-width:2;stroke-linecap:round;stroke-miterlimit:10;" d="M55.672,79.755
				c0,0,16.5-11.501,73.5-6.126"/>
			<g>
				<g>
					<g>
						<g>
							<g>
								<polygon style="fill:#F5F2F1;" points="208.705,107.663 207.338,93.089 206.078,107.661 205.58,107.618 207.08,90.283 
									207.578,90.281 209.203,107.616 								"/>
							</g>
							<g>
								<polygon style="fill:#F5F2F1;" points="207.438,109.347 207.391,108.849 221.963,107.483 207.393,106.222 207.436,105.724 
									224.77,107.224 224.772,107.722 								"/>
							</g>
							<g>
								<polygon style="fill:#F5F2F1;" points="207.205,124.791 205.58,107.457 206.078,107.411 207.444,121.983 208.705,107.413 
									209.203,107.456 207.703,124.79 								"/>
							</g>
							<g>
								<polygon style="fill:#F5F2F1;" points="207.331,109.347 189.997,107.847 189.995,107.349 207.329,105.724 207.375,106.222 
									192.803,107.588 207.373,108.849 								"/>
							</g>
						</g>
						<g>
							<g>
								<polygon style="fill:#F5F2F1;" points="208.716,108.896 208.331,108.578 217.67,97.307 206.475,106.719 206.154,106.336 
									219.472,95.14 219.825,95.491 								"/>
							</g>
							<g>
								<polygon style="fill:#F5F2F1;" points="219.54,119.962 206.134,108.855 206.453,108.47 217.724,117.808 208.31,106.613 
									208.693,106.29 219.891,119.609 								"/>
							</g>
							<g>
								<polygon style="fill:#F5F2F1;" points="195.311,120.184 194.957,119.834 206.065,106.427 206.45,106.746 197.112,118.017 
									208.307,108.606 208.628,108.989 								"/>
							</g>
							<g>
								<polygon style="fill:#F5F2F1;" points="206.057,108.779 194.86,95.461 195.212,95.108 208.618,106.216 208.299,106.601 
									197.028,97.263 206.439,108.456 								"/>
							</g>
						</g>
					</g>
					<g>
						<g>
							<g>
								<polygon style="fill:#F5F2F1;" points="209.142,108.259 208.662,108.119 212.773,94.073 206.221,107.148 205.773,106.923 
									213.568,91.37 214.032,91.552 								"/>
							</g>
							<g>
								<polygon style="fill:#F5F2F1;" points="223.466,114.128 206.757,109.238 206.897,108.757 220.944,112.869 207.869,106.318 
									208.093,105.871 223.648,113.665 								"/>
							</g>
							<g>
								<polygon style="fill:#F5F2F1;" points="201.213,123.702 200.75,123.518 205.64,106.809 206.119,106.95 202.008,120.998 
									208.56,107.922 209.008,108.147 								"/>
							</g>
							<g>
								<polygon style="fill:#F5F2F1;" points="206.658,109.199 191.102,101.405 191.284,100.941 207.993,105.831 207.852,106.31 
									193.807,102.2 206.882,108.752 								"/>
							</g>
						</g>
						<g>
							<g>
								<polygon style="fill:#F5F2F1;" points="208.107,109.215 207.867,108.776 220.708,101.751 206.828,106.364 206.671,105.889 
									223.183,100.402 223.381,100.858 								"/>
							</g>
							<g>
								<polygon style="fill:#F5F2F1;" points="214.108,123.451 205.75,108.177 206.189,107.937 213.214,120.777 208.601,106.898 
									209.076,106.74 214.564,123.252 								"/>
							</g>
							<g>
								<polygon style="fill:#F5F2F1;" points="191.601,114.669 191.401,114.211 206.674,105.854 206.914,106.294 194.075,113.319 
									207.953,108.706 208.111,109.18 								"/>
							</g>
							<g>
								<polygon style="fill:#F5F2F1;" points="205.706,108.078 200.218,91.568 200.675,91.369 209.033,106.642 208.594,106.882 
									201.568,94.043 206.181,107.919 								"/>
							</g>
						</g>
					</g>
				</g>
				<g>
					<path style="fill:#FFFFFF;" d="M207.383,84.422c-12.765,0-23.113,10.348-23.113,23.113c0,12.765,10.348,23.114,23.113,23.114
						c12.766,0,23.114-10.35,23.114-23.114C230.497,94.77,220.149,84.422,207.383,84.422z M207.383,123.883
						c-9.014,0-16.348-7.334-16.348-16.349c0-9.014,7.334-16.348,16.348-16.348c9.015,0,16.349,7.334,16.349,16.348
						C223.732,116.549,216.398,123.883,207.383,123.883z"/>
					<path style="fill:#212121;" d="M207.383,79.755c-15.096,0-27.333,12.237-27.333,27.333c0,15.095,12.237,27.333,27.333,27.333
						c15.096,0,27.334-12.238,27.334-27.333C234.717,91.992,222.479,79.755,207.383,79.755z M207.383,126.421
						c-10.66,0-19.333-8.673-19.333-19.333c0-10.66,8.673-19.333,19.333-19.333c10.661,0,19.334,8.673,19.334,19.333
						C226.717,117.748,218.044,126.421,207.383,126.421z"/>
					<circle style="fill:#FFFFFF;" cx="207.383" cy="107.536" r="4.75"/>
				</g>
			</g>
		</g>
	</g>
	<g>
		<path style="fill:#D4D1CD;" d="M463.519,287.365c0,2.383-44.548,4.315-99.5,4.315c-54.952,0-99.5-1.933-99.5-4.315
			c0-2.383,44.548-4.315,99.5-4.315C418.971,283.05,463.519,284.982,463.519,287.365z"/>
		<g>
			<g>
				<g>
					<path style="fill:#999999;" d="M343.231,212.816c-3.199,3.2-6.399,6.399-9.599,9.599c-1.252,1.252,0.688,3.191,1.94,1.939
						c3.199-3.2,6.399-6.399,9.599-9.599C346.423,213.504,344.483,211.564,343.231,212.816L343.231,212.816z"/>
				</g>
			</g>
			<g>
				<path style="fill:#BABAB8;" d="M333.23,183.638c0,19.428,0,38.856,0,58.284c0,1.769,2.743,1.769,2.743,0
					c0-19.428,0-38.856,0-58.284C335.974,181.869,333.23,181.869,333.23,183.638L333.23,183.638z"/>
			</g>
			<polygon style="fill:#CCCCCC;" points="292.369,224.556 283.626,224.556 283.626,250.989 294.254,250.989 			"/>
			<path style="fill:#FFCA42;" d="M293.077,234.477l-2.089,0.249l-1.369,26.904h166.643c0,0,0.408-42.859-20.089-47.843
				l-42.095,4.983c-11.629,2.658-10.633,18.939-21.138,18.939h-39.667v-22.262l-36.282,8.058L293.077,234.477z"/>
			<rect x="436.251" y="255.496" style="fill:#999999;" width="22.997" height="6.133"/>
			<g>
				<path style="fill:#212121;" d="M440.886,263.279c0,13.334-10.81,24.147-24.146,24.147c-13.336,0-24.146-10.813-24.146-24.147
					c0-13.331,10.811-24.141,24.146-24.141C430.076,239.138,440.886,249.948,440.886,263.279z"/>
				<path style="fill:#BFD6F7;" d="M416.74,280.315c-9.392,0-17.035-7.643-17.035-17.035c0-9.387,7.643-17.031,17.035-17.031
					c9.394,0,17.035,7.644,17.035,17.031C433.775,272.672,426.134,280.315,416.74,280.315z"/>
				<path style="fill:#212121;" d="M416.74,275.574c-6.779,0-12.296-5.516-12.296-12.295c0-6.776,5.517-12.29,12.296-12.29
					c6.778,0,12.295,5.514,12.295,12.29C429.035,270.059,423.519,275.574,416.74,275.574z"/>
				<path style="fill:#EBEBEB;" d="M416.74,266.832c-1.959,0-3.552-1.593-3.552-3.553c0-1.957,1.593-3.551,3.552-3.551
					c1.958,0,3.552,1.594,3.552,3.551C420.292,265.239,418.698,266.832,416.74,266.832z"/>
			</g>
			<g>
				<path style="fill:#212121;" d="M320.067,263.279c0,13.334-10.811,24.147-24.145,24.147c-13.337,0-24.147-10.813-24.147-24.147
					c0-13.331,10.81-24.141,24.147-24.141C309.257,239.138,320.067,249.948,320.067,263.279z"/>
				<path style="fill:#BFD6F7;" d="M295.923,280.315c-9.394,0-17.037-7.643-17.037-17.035c0-9.387,7.644-17.031,17.037-17.031
					c9.393,0,17.035,7.644,17.035,17.031C312.958,272.672,305.315,280.315,295.923,280.315z"/>
				<path style="fill:#212121;" d="M295.923,275.574c-6.78,0-12.297-5.516-12.297-12.295c0-6.776,5.517-12.29,12.297-12.29
					c6.777,0,12.295,5.514,12.295,12.29C308.218,270.059,302.7,275.574,295.923,275.574z"/>
				<path style="fill:#EBEBEB;" d="M295.923,266.832c-1.96,0-3.554-1.593-3.554-3.553c0-1.957,1.594-3.551,3.554-3.551
					c1.957,0,3.551,1.594,3.551,3.551C299.474,265.239,297.88,266.832,295.923,266.832z"/>
			</g>
			<g>
				<path style="fill:#BABAB8;" d="M287.748,219.434v15.871c2.364,0,9.243-1.591,9.243-7.936l0,0
					C296.991,221.606,290.112,219.434,287.748,219.434z"/>
			</g>
			<g>
				<g>
					<path style="fill:#C28E0A;" d="M278.886,235.977c5.602,0,11.203,0,16.805,0c3.632,0,7.264,0,10.896,0c1.188,0,2.375,0,3.563,0
						c1.936,0,0.69,0.233,0.138-0.611c3.386,5.171,6.771,10.343,10.156,15.515c1.871,2.858,3.741,5.716,5.612,8.575
						c0.607,0.928,1.585,3.282,2.815,3.62c3.411,0.939,8.198,0.054,11.689,0.054c7.901,0,15.804,0,23.705,0
						c5.767,0,11.532,0,17.298,0c3.186,0,4.229-3.71,5.717-6.155c3.255-5.349,6.51-10.697,9.764-16.045
						c1.159-1.905,2.318-3.809,3.478-5.713c1.24-2.04-1.452-0.382,0.413-0.382c9.617,0,19.234,0,28.851,0c1.935,0,1.935-3,0-3
						c-5.806,0-11.611,0-17.417,0c-3.321,0-6.642,0-9.962,0c-1.142,0-3.098-0.399-3.813,0.776c-3.035,4.988-6.07,9.975-9.105,14.963
						c-1.864,3.064-3.729,6.127-5.594,9.192c-0.604,0.994-1.21,1.988-1.815,2.983c-1.003,1.649-0.574,0.382,0.516,0.382
						c-12.563,0-25.124,0-37.686,0c-5.087,0-10.175,0-15.262,0c-1.161,0,1.316,1.353,0.725,0.45
						c-0.462-0.706-0.925-1.413-1.387-2.119c-1.984-3.031-3.969-6.062-5.953-9.094c-3.086-4.714-6.172-9.428-9.258-14.143
						c-1.529-2.338-2.419-2.247-5.176-2.247c-9.904,0-19.81,0-29.714,0C276.951,232.977,276.951,235.977,278.886,235.977
						L278.886,235.977z"/>
				</g>
			</g>
			<path style="fill:#141414;" d="M396.101,217.105l54.764-13.485l-1.429,14.4c0,0-46.798,3.428-52.056,3.886
				c-5.257,0.457-5.147-3.886-2.285-4.571"/>
			<g>
				<g>
					<path style="fill:#BABAB8;" d="M336.983,206.093c5.108,5.102,10.261,10.158,15.314,15.314c1.239,1.265,3.178-0.676,1.939-1.939
						c-5.054-5.156-10.206-10.212-15.314-15.314C337.67,202.902,335.73,204.842,336.983,206.093L336.983,206.093z"/>
				</g>
			</g>
			<path style="fill:#EBEBEB;" d="M399.758,219.434c0,1.01-0.818,1.829-1.828,1.829s-1.829-0.819-1.829-1.829
				c0-1.01,0.819-1.828,1.829-1.828S399.758,218.424,399.758,219.434z"/>
			<g>
				<g>
					<path style="fill:#C28E0A;" d="M333.803,244.62c3.733,0,7.466,0,11.199,0c1.768,0,1.768-2.743,0-2.743
						c-3.733,0-7.466,0-11.199,0C332.034,241.877,332.034,244.62,333.803,244.62L333.803,244.62z"/>
				</g>
			</g>
			
				<line style="fill:none;stroke:#FFFFFF;stroke-width:1.8285;stroke-linecap:round;stroke-miterlimit:10;" x1="299.819" y1="226.706" x2="329.497" y2="221.263"/>
		</g>
	</g>
	<g>
		<path style="fill:#D4D1CD;" d="M249.22,287.365c0,2.383-48.151,4.315-107.548,4.315c-59.397,0-107.548-1.933-107.548-4.315
			c0-2.383,48.151-4.315,107.548-4.315C201.069,283.05,249.22,284.982,249.22,287.365z"/>
		<g>
			<g>
				<g>
					<path style="fill:#BABAB8;" d="M61.682,212.697c0,4.505,0,9.009,0,13.514c0,2.12,3.287,2.12,3.287,0c0-4.505,0-9.009,0-13.514
						C64.969,210.577,61.682,210.577,61.682,212.697L61.682,212.697z"/>
				</g>
			</g>
			<polygon style="fill:#FFFFFF;" points="118.458,204.507 109.119,225.534 156.535,224.406 156.535,197.251 			"/>
			<path style="fill:#259688;" d="M149.781,223.834v-19.327c0,0-26.15,0-31.323,0c-5.172,0-3.161-2.801,10.058-4.993
				c13.219-2.191,27.3-3.628,27.3-3.628l19.829,8.046l7.417,21.602L149.781,223.834z"/>
			<path style="fill:#3AE7D0;" d="M50.549,267.296c0,0-7.809-44.994,12.657-44.994c20.466,0,110.949,0,121.452,0
				c10.503,0,49.551,1.103,58.437,44.994H50.549z"/>
			<polygon style="fill:#212121;" points="41.904,253.916 98.945,252.919 115.744,267.296 190.616,266.348 200.852,251.143 
				234.535,250.554 248.691,270.73 34.652,270.73 			"/>
			<polygon style="fill:#C9FBF4;" points="64.645,242.294 64.645,222.302 110.443,222.302 110.443,261 			"/>
			<g>
				<g>
					<path style="fill:#10403B;" d="M76.027,267.519c0,10.343-8.384,18.726-18.726,18.726c-10.344,0-18.728-8.383-18.728-18.726
						c0-10.341,8.384-18.725,18.728-18.725C67.644,248.794,76.027,257.178,76.027,267.519z"/>
					<path style="fill:#BABAB8;" d="M57.302,280.729c-7.286,0-13.213-5.927-13.213-13.211c0-7.286,5.927-13.21,13.213-13.21
						c7.284,0,13.211,5.924,13.211,13.21C70.513,274.803,64.586,280.729,57.302,280.729z"/>
					<path style="fill:#10403B;" d="M57.302,277.053c-5.259,0-9.537-4.276-9.537-9.534c0-5.259,4.278-9.534,9.537-9.534
						c5.257,0,9.535,4.275,9.535,9.534C66.836,272.776,62.559,277.053,57.302,277.053z"/>
					<path style="fill:#EEEEEE;" d="M57.302,275.214c-4.245,0-7.698-3.452-7.698-7.695c0-4.246,3.453-7.696,7.698-7.696
						c4.243,0,7.697,3.45,7.697,7.696C64.999,271.762,61.544,275.214,57.302,275.214z"/>
				</g>
				<path style="fill:#10403B;" d="M234.2,268.697c0,10.344-8.385,18.729-18.728,18.729c-10.343,0-18.727-8.385-18.727-18.729
					c0-10.339,8.384-18.721,18.727-18.721C225.815,249.976,234.2,258.358,234.2,268.697z"/>
				<path style="fill:#BABAB8;" d="M215.472,281.91c-7.285,0-13.212-5.926-13.212-13.213c0-7.283,5.928-13.207,13.212-13.207
					c7.285,0,13.213,5.924,13.213,13.207C228.685,275.984,222.757,281.91,215.472,281.91z"/>
				<path style="fill:#10403B;" d="M215.472,278.233c-5.258,0-9.536-4.277-9.536-9.536c0-5.256,4.278-9.532,9.536-9.532
					c5.258,0,9.536,4.276,9.536,9.532C225.008,273.956,220.73,278.233,215.472,278.233z"/>
				<path style="fill:#EEEEEE;" d="M215.472,276.394c-4.245,0-7.698-3.45-7.698-7.696c0-4.244,3.453-7.697,7.698-7.697
					c4.245,0,7.698,3.453,7.698,7.697C223.17,272.943,219.717,276.394,215.472,276.394z"/>
			</g>
			<g>
				<g>
					<g>
						<path style="fill:#3AE7D0;" d="M69.601,228.772c11.962,0,23.924,0,35.886,0c1.06,0,1.06-1.644,0-1.644
							c-11.962,0-23.924,0-35.886,0C68.54,227.128,68.54,228.772,69.601,228.772L69.601,228.772z"/>
					</g>
				</g>
				<g>
					<g>
						<path style="fill:#3AE7D0;" d="M69.601,232.819c11.962,0,23.924,0,35.886,0c1.06,0,1.06-1.644,0-1.644
							c-11.962,0-23.924,0-35.886,0C68.54,231.175,68.54,232.819,69.601,232.819L69.601,232.819z"/>
					</g>
				</g>
				<g>
					<g>
						<path style="fill:#3AE7D0;" d="M69.601,236.866c11.962,0,23.924,0,35.886,0c1.06,0,1.06-1.644,0-1.644
							c-11.962,0-23.924,0-35.886,0C68.54,235.222,68.54,236.866,69.601,236.866L69.601,236.866z"/>
					</g>
				</g>
				<g>
					<g>
						<path style="fill:#3AE7D0;" d="M69.601,240.914c11.962,0,23.924,0,35.886,0c1.06,0,1.06-1.644,0-1.644
							c-11.962,0-23.924,0-35.886,0C68.54,239.27,68.54,240.914,69.601,240.914L69.601,240.914z"/>
					</g>
				</g>
				<g>
					<g>
						<path style="fill:#3AE7D0;" d="M69.601,244.961c11.962,0,23.924,0,35.886,0c1.06,0,1.06-1.644,0-1.644
							c-11.962,0-23.924,0-35.886,0C68.54,243.317,68.54,244.961,69.601,244.961L69.601,244.961z"/>
					</g>
				</g>
			</g>
			<g>
				<g>
					<g>
						<path style="fill:#3AE7D0;" d="M69.601,236.866c11.962,0,23.924,0,35.886,0c1.06,0,1.06-1.643,0-1.643
							c-11.962,0-23.924,0-35.886,0C68.54,235.223,68.54,236.866,69.601,236.866L69.601,236.866z"/>
					</g>
				</g>
				<g>
					<g>
						<path style="fill:#3AE7D0;" d="M69.601,240.914c11.962,0,23.924,0,35.886,0c1.06,0,1.06-1.644,0-1.644
							c-11.962,0-23.924,0-35.886,0C68.54,239.27,68.54,240.914,69.601,240.914L69.601,240.914z"/>
					</g>
				</g>
				<g>
					<g>
						<path style="fill:#3AE7D0;" d="M69.601,244.96c11.962,0,23.924,0,35.886,0c1.06,0,1.06-1.644,0-1.644
							c-11.962,0-23.924,0-35.886,0C68.54,243.317,68.54,244.96,69.601,244.96L69.601,244.96z"/>
					</g>
				</g>
				<g>
					<g>
						<path style="fill:#3AE7D0;" d="M69.601,249.008c11.962,0,23.924,0,35.886,0c1.06,0,1.06-1.643,0-1.643
							c-11.962,0-23.924,0-35.886,0C68.54,247.364,68.54,249.008,69.601,249.008L69.601,249.008z"/>
					</g>
				</g>
				<g>
					<g>
						<path style="fill:#3AE7D0;" d="M69.601,253.056c11.962,0,23.924,0,35.886,0c1.06,0,1.06-1.645,0-1.645
							c-11.962,0-23.924,0-35.886,0C68.54,251.411,68.54,253.056,69.601,253.056L69.601,253.056z"/>
					</g>
				</g>
			</g>
			<path style="fill:#BABAB8;" d="M63.325,247.852c-0.692,4.232-16.035,2.815-20.265,2.124c-4.23-0.691-3.278-4.176-2.193-8.323
				c1.466-5.608,2.095-7.131,6.325-6.439C51.422,235.905,64.017,243.624,63.325,247.852z"/>
			<g>
				<path style="fill:#31C5B2;" d="M215.472,253.916c10.554,0,19.425,7.12,22.12,16.814h11.099c0,0-4.383-30.312-33.219-30.312
					c-28.835,0-33.8,22.556-33.8,22.556c0.097,0,0.129,0,0.127,0c0.001,0-0.031,0-0.127,0c-0.805,0-6.182,0-35.582,0
					c-39.777,0-45.692-20-76.585-22.556c-30.893-2.556-34.853,30.312-34.853,30.312h0.212c2.696-9.694,11.566-16.814,22.12-16.814
					s19.425,7.12,22.12,16.814h114.248C196.048,261.036,204.917,253.916,215.472,253.916z"/>
			</g>
			<g>
				<g>
					<path style="fill:#259688;" d="M116.834,232.055c3.348,0,6.697,0,10.045,0c2.12,0,2.12-3.287,0-3.287
						c-3.348,0-6.697,0-10.045,0C114.715,228.768,114.715,232.055,116.834,232.055L116.834,232.055z"/>
				</g>
			</g>
		</g>
		<path style="fill:none;stroke:#FFFFFF;stroke-width:2;stroke-linecap:round;stroke-miterlimit:10;" d="M116.834,252.824
			c0,0,3.968,3.223,14.666,4.754c9.225,1.322,23.172,0.984,47.25,0.984"/>
	</g>
	<g>
		<ellipse style="fill:#D4D1CD;" cx="364.019" cy="446.267" rx="99.5" ry="4.315"/>
		<g>
			<g>
				<g>
					<path style="fill:#E58233;" d="M459.19,398.349l-5.202,1.468l0.701,4.868l5.573-1.174
						C459.775,400.54,459.19,398.349,459.19,398.349z"/>
					<path style="fill:#FFFFFF;" d="M455.466,410.082l0.689,4.779h4.315c0.399-1.699,0.486-3.699,0.399-5.71L455.466,410.082z"/>
					<path style="fill:#6F2400;" d="M460.263,403.511l-5.573,1.174l0.776,5.397l5.404-0.931
						C460.788,407.19,460.542,405.222,460.263,403.511z"/>
				</g>
				<polygon style="fill:#CCCCCC;" points="267.278,395.262 262.712,395.629 264.588,411.164 269.113,410.493 				"/>
				<g>
					<path style="fill:#675381;" d="M323.668,424.335c0,0-0.232,3.18,3.309,3.302c3.541,0.122,77.927,0.001,77.927,0.001
						c2.676,0,2.987-4.178,3.015-4.413"/>
					<path style="fill:#090000;" d="M301.175,405.497c-11.604,0-21.209,8.549-22.864,19.691h32.556h13.173
						C322.382,414.046,312.777,405.497,301.175,405.497z"/>
					<path style="fill:none;stroke:#F2F2F2;stroke-width:0.9786;stroke-miterlimit:10;" d="M278.31,425.189
						c0,0,2.94-19.691,22.864-19.691c19.925,0,22.864,19.691,22.864,19.691h83.154c0,0,2.899-19.691,22.864-19.691
						c19.967,0,22.864,19.691,22.864,19.691h4.522"/>
					<g>
						<path style="fill:#675381;" d="M449.81,386.181c-3.932-6-9.692-16.156-15.168-24.357c-0.885-1.326-2.218-2.5-3.913-3.542
							h-93.851l-16.479,25.88c0,0-37.138,2.9-45.236,3.96c-8.098,1.06-10.168,1.551-9.611,8.103
							c0.558,6.554,3.002,28.965,3.002,28.965h9.757c1.655-11.143,11.26-19.691,22.864-19.691c11.603,0,21.207,8.549,22.864,19.691
							h83.154c1.657-11.143,11.261-19.691,22.864-19.691c11.603,0,21.209,8.549,22.864,19.691h4.522
							C458.531,402.56,455.896,395.467,449.81,386.181z"/>
						<path style="fill:#FFFFFF;" d="M377.963,350.684c-9.133-0.246-37.292,0.503-41.084,7.598c-0.581,1.089,0,0,0,0h93.851
							C416.745,349.69,395.849,351.164,377.963,350.684z"/>
					</g>
					<path style="fill:#8B71AF;" d="M404.256,425.189c0-14.25,11.552-25.803,25.802-25.803s25.804,11.553,25.804,25.803"/>
					<path style="fill:#8B71AF;" d="M275.373,425.189c0-14.25,11.552-25.564,25.802-25.564s25.801,11.314,25.801,25.564"/>
					<g>
						<g>
							<path style="fill:#423552;" d="M336.104,359.016c31.911,0,63.822,0,95.733,0c0.946,0,0.946-1.469,0-1.469
								c-31.911,0-63.822,0-95.733,0C335.158,357.547,335.158,359.016,336.104,359.016L336.104,359.016z"/>
						</g>
					</g>
					<path style="fill:#090000;" d="M430.058,405.497c-11.604,0-21.207,8.549-22.864,19.691h45.728
						C451.267,414.046,441.661,405.497,430.058,405.497z"/>
					<path style="fill:#090000;" d="M301.175,405.497c-11.604,0-21.209,8.549-22.864,19.691h45.729
						C322.382,414.046,312.777,405.497,301.175,405.497z"/>
				</g>
				<path style="fill:none;stroke:#FFFFFF;stroke-width:1.9571;stroke-linecap:round;stroke-miterlimit:10;" d="M278.31,425.189
					c0,0,2.45-19.691,22.864-19.691c17.121,0,22.864,15.979,22.864,19.691h83.154c0,0,3.021-19.691,22.864-19.691
					c19.845,0,22.864,19.691,22.864,19.691h4.522"/>
				<polygon style="fill:#FFFFFF;" points="325.992,384.458 339.529,362.93 383.804,362.93 383.972,384.458 				"/>
				<polygon style="fill:#FFFFFF;" points="426.813,362.93 440.118,384.458 387.642,384.458 387.642,362.93 				"/>
				<g>
					<g>
						<path style="fill:#8B71AF;" d="M372.474,395.792c3.37,0,6.741,0,10.111,0c1.893,0,1.893-2.936,0-2.936
							c-3.37,0-6.741,0-10.111,0C370.58,392.856,370.58,395.792,372.474,395.792L372.474,395.792z"/>
					</g>
				</g>
				<path style="fill:#CCCCCC;" d="M276.953,423.403c0,2.368-1.919,4.288-4.287,4.288H265.8c-2.369,0-2.529-1.92-2.529-4.288l0,0
					c0-2.368,0.16-4.288,2.529-4.288h6.866C275.034,419.115,276.953,421.035,276.953,423.403L276.953,423.403z"/>
				<path style="fill:#CCCCCC;" d="M454.405,423.403c0-2.368,1.918-4.288,4.288-4.288h2.17c2.368,0,2.526,1.92,2.526,4.288l0,0
					c0,2.368-0.158,4.288-2.526,4.288h-2.17C456.323,427.691,454.405,425.772,454.405,423.403L454.405,423.403z"/>
				<g>
					<path style="fill:#3A3A3A;" d="M443.83,427.69c0,7.607-6.166,13.772-13.772,13.772c-7.605,0-13.772-6.166-13.772-13.772
						c0-7.606,6.166-13.771,13.772-13.771C437.664,413.919,443.83,420.084,443.83,427.69z"/>
					<path style="fill:#090000;" d="M439.5,427.69c0,5.216-4.227,9.442-9.442,9.442c-5.214,0-9.441-4.227-9.441-9.442
						c0-5.215,4.228-9.442,9.441-9.442C435.273,418.248,439.5,422.476,439.5,427.69z"/>
					<g>
						<path style="fill:#6D6D6B;" d="M430.058,409.328c-10.142,0-18.363,8.222-18.363,18.363c0,10.141,8.222,18.363,18.363,18.363
							s18.363-8.223,18.363-18.363C448.421,417.55,440.199,409.328,430.058,409.328z M430.058,440.183
							c-6.889,0-12.492-5.603-12.492-12.491c0-6.889,5.603-12.492,12.492-12.492c6.888,0,12.492,5.604,12.492,12.492
							C442.55,434.579,436.945,440.183,430.058,440.183z"/>
						<path style="fill:#FFFFFF;" d="M430.058,417.289c-5.735,0-10.401,4.666-10.401,10.402c0,5.735,4.666,10.401,10.401,10.401
							c5.735,0,10.402-4.666,10.402-10.401C440.46,421.955,435.793,417.289,430.058,417.289z M435.363,433.998
							c-0.307,0.26-0.635,0.494-0.977,0.708l-4.329-4.605l-4.329,4.605c-0.342-0.214-0.669-0.448-0.975-0.708l3.94-5.283
							l-6.59-2.927c0.1-0.404,0.222-0.799,0.379-1.177l6.211,1.412l0.733-6.439c0.209-0.016,0.419-0.032,0.631-0.032
							c0.214,0,0.422,0.017,0.631,0.032l0.617,6.685l6.326-1.657c0.156,0.378,0.28,0.772,0.379,1.177l-6.136,2.927L435.363,433.998z
							"/>
					</g>
					<path style="fill:#FFFFFF;" d="M433.345,428.026c0,1.815-1.472,3.287-3.287,3.287s-3.287-1.472-3.287-3.287
						c0-1.814,1.472-3.286,3.287-3.286S433.345,426.212,433.345,428.026z"/>
				</g>
				<g>
					<path style="fill:#3A3A3A;" d="M314.946,427.69c0,7.607-6.167,13.772-13.772,13.772c-7.607,0-13.772-6.166-13.772-13.772
						c0-7.606,6.165-13.771,13.772-13.771C308.779,413.919,314.946,420.084,314.946,427.69z"/>
					<path style="fill:#090000;" d="M310.616,427.69c0,5.216-4.227,9.442-9.441,9.442c-5.216,0-9.442-4.227-9.442-9.442
						c0-5.215,4.227-9.442,9.442-9.442C306.389,418.248,310.616,422.476,310.616,427.69z"/>
					<g>
						<path style="fill:#6D6D6B;" d="M301.175,409.328c-10.143,0-18.363,8.222-18.363,18.363c0,10.141,8.221,18.363,18.363,18.363
							c10.141,0,18.363-8.223,18.363-18.363C319.538,417.55,311.315,409.328,301.175,409.328z M301.175,440.183
							c-6.889,0-12.492-5.603-12.492-12.491c0-6.889,5.604-12.492,12.492-12.492c6.888,0,12.492,5.604,12.492,12.492
							C313.667,434.579,308.063,440.183,301.175,440.183z"/>
						<path style="fill:#FFFFFF;" d="M301.175,417.289c-5.736,0-10.403,4.666-10.403,10.402c0,5.735,4.667,10.401,10.403,10.401
							c5.735,0,10.4-4.666,10.4-10.401C311.575,421.955,306.91,417.289,301.175,417.289z M306.478,433.998
							c-0.306,0.26-0.633,0.494-0.975,0.708l-4.329-4.605l-4.329,4.605c-0.342-0.214-0.67-0.448-0.977-0.708l3.942-5.283
							l-6.591-2.927c0.1-0.404,0.223-0.799,0.38-1.177l6.211,1.412l0.732-6.439c0.208-0.016,0.417-0.032,0.631-0.032
							c0.212,0,0.421,0.017,0.631,0.032l0.615,6.685l6.328-1.657c0.156,0.378,0.279,0.772,0.378,1.177l-6.135,2.927L306.478,433.998
							z"/>
					</g>
					<path style="fill:#FFFFFF;" d="M304.462,428.026c0,1.815-1.472,3.287-3.287,3.287s-3.287-1.472-3.287-3.287
						c0-1.814,1.472-3.286,3.287-3.286S304.462,426.212,304.462,428.026z"/>
				</g>
			</g>
			<path style="fill:none;stroke:#FFFFFF;stroke-width:1.7893;stroke-linecap:round;stroke-miterlimit:10;" d="M271.355,393.021
				c0,0,26.748-5.383,77.47-4.567"/>
		</g>
	</g>
	<g>
		<ellipse style="fill:#D4D1CD;" cx="137.834" cy="446.267" rx="99.5" ry="4.315"/>
		<g>
			<polyline style="fill:none;stroke:#212121;stroke-width:2.6747;stroke-miterlimit:10;" points="222.266,421.027 222.266,430.601 
				235.257,430.601 235.257,424.815 			"/>
			<g>
				<path style="fill:#A52B21;" d="M225.317,404.393v-27.108l-8.92-29.19h-90.5l-26.75,29.049l-52.912,14.008l-4.146,18.056H36.27
					l0.528,4.747l6.197,5.155c2.851-10.114,12.138-17.529,23.164-17.529c13.294,0,24.072,10.776,24.072,24.071h82.943
					c0-13.295,10.777-24.071,24.071-24.071c13.294,0,24.072,10.776,24.072,24.071l3.628-1.25v-9.25l5.885-1.629v-9.13H225.317z"/>
				<path style="fill:#150E13;" d="M70.397,403.212c-12.222-1.812-23.75,3.689-26.75,16.439l-0.651-0.542l8.526,6.542h38.71H89.69
					C89.69,425.651,88.34,405.871,70.397,403.212z"/>
				<path style="fill:#150E13;" d="M66.16,401.58c-11.026,0-20.313,7.415-23.164,17.529l0.651,0.542
					c3-12.75,14.528-18.251,26.75-16.439c17.943,2.659,19.293,22.439,19.293,22.439h0.542
					C90.232,412.356,79.455,401.58,66.16,401.58z"/>
				<path style="fill:#150E13;" d="M197.247,401.58c-13.295,0-24.071,10.776-24.071,24.071h48.143
					C221.318,412.356,210.541,401.58,197.247,401.58z"/>
			</g>
			<g>
				<path style="fill:#212121;" d="M217.95,425.651c0,11.698-9.483,21.184-21.183,21.184s-21.183-9.485-21.183-21.184
					c0-11.7,9.484-21.183,21.183-21.183S217.95,413.951,217.95,425.651z"/>
				<path style="fill:#6D6D6B;" d="M196.768,440.597c-8.24,0-14.944-6.705-14.944-14.945c0-8.238,6.705-14.945,14.944-14.945
					c8.241,0,14.945,6.707,14.945,14.945C211.712,433.892,205.008,440.597,196.768,440.597z"/>
				<path style="fill:#212121;" d="M196.768,436.438c-5.947,0-10.787-4.839-10.787-10.786c0-5.947,4.84-10.786,10.787-10.786
					c5.947,0,10.786,4.839,10.786,10.786C207.554,431.599,202.714,436.438,196.768,436.438z"/>
				<path style="fill:#EBEBEB;" d="M196.768,428.769c-1.718,0-3.116-1.397-3.116-3.117c0-1.718,1.397-3.115,3.116-3.115
					c1.718,0,3.116,1.397,3.116,3.115C199.884,427.371,198.485,428.769,196.768,428.769z"/>
			</g>
			<g>
				<path style="fill:#212121;" d="M87.168,425.651c0,11.698-9.484,21.184-21.182,21.184c-11.7,0-21.184-9.485-21.184-21.184
					c0-11.7,9.484-21.183,21.184-21.183C77.684,404.469,87.168,413.951,87.168,425.651z"/>
				<path style="fill:#6D6D6B;" d="M65.986,440.597c-8.241,0-14.946-6.705-14.946-14.945c0-8.238,6.706-14.945,14.946-14.945
					c8.24,0,14.945,6.707,14.945,14.945C80.931,433.892,74.227,440.597,65.986,440.597z"/>
				<path style="fill:#212121;" d="M65.986,436.438c-5.948,0-10.788-4.839-10.788-10.786c0-5.947,4.839-10.786,10.788-10.786
					c5.946,0,10.786,4.839,10.786,10.786C76.772,431.599,71.932,436.438,65.986,436.438z"/>
				<path style="fill:#EBEBEB;" d="M71.404,431.065c-1.388,1.389-3.304,2.248-5.415,2.248c-4.228,0-7.666-3.436-7.666-7.664
					c0-4.225,3.438-7.66,7.666-7.66c4.221,0,7.66,3.436,7.66,7.66C73.649,427.763,72.79,429.679,71.404,431.065"/>
				<path style="fill:#EBEBEB;" d="M202.185,431.065c-1.388,1.389-3.304,2.248-5.415,2.248c-4.228,0-7.667-3.436-7.667-7.664
					c0-4.225,3.439-7.66,7.667-7.66c4.221,0,7.66,3.436,7.66,7.66C204.43,427.763,203.572,429.679,202.185,431.065"/>
			</g>
			<path style="fill:#FFFFFF;" d="M174.73,424.946c0,1.427-1.156,2.583-2.583,2.583H91.251c-1.427,0-2.583-1.156-2.583-2.583l0,0
				c0-1.427,1.156-2.583,2.583-2.583h80.896C173.574,422.363,174.73,423.52,174.73,424.946L174.73,424.946z"/>
			<path style="fill:#212121;" d="M204.697,402.756l26.135,1.637v2.935h-17.979C212.853,407.328,209.438,404.277,204.697,402.756z"
				/>
			<rect x="202.685" y="388.573" style="fill:#87231B;" width="14.472" height="8.976"/>
			<polygon style="fill:#FFFFFF;" points="225.317,377.284 204.39,377.284 204.39,352.401 176.647,352.401 174.73,348.095 
				216.397,348.095 			"/>
			<polygon style="fill:#BFD6F7;" points="176.647,352.401 185.98,377.284 208.606,377.284 208.606,352.401 			"/>
			<polyline style="fill:#87231B;" points="167.897,352.758 167.897,422.363 105.951,422.363 105.951,376.151 			"/>
			<polygon style="fill:#BFD6F7;" points="161.147,352.758 127.647,352.758 105.951,376.151 105.951,383.649 122.397,383.649 
				127.897,378.149 167.897,378.149 167.897,352.758 			"/>
			<polygon style="fill:#FFFFFF;" points="167.897,348.095 167.897,352.758 127.647,352.758 125.897,348.095 			"/>
			<g>
				<g>
					<path style="fill:#87231B;" d="M153.753,386.046c0.889,0.889,1.778,1.778,2.667,2.667c1.369,1.369,3.49-0.752,2.121-2.121
						c-0.889-0.89-1.778-1.778-2.667-2.667C154.505,382.556,152.384,384.677,153.753,386.046L153.753,386.046z"/>
				</g>
			</g>
			<g>
				<g>
					<path style="fill:#A52B21;" d="M153.813,388.373c2.444,0,4.889,0,7.334,0c1.934,0,1.934-3,0-3c-2.444,0-4.889,0-7.334,0
						C151.879,385.373,151.879,388.373,153.813,388.373L153.813,388.373z"/>
				</g>
			</g>
			<path style="fill:#150E13;" d="M239.397,423.443c0,2.292-1.858,4.15-4.151,4.15c-2.292,0-4.15-1.858-4.15-4.15
				c0-2.293,1.858-4.15,4.15-4.15C237.539,419.293,239.397,421.15,239.397,423.443z"/>
			
				<line style="fill:none;stroke:#FFFFFF;stroke-width:1.7893;stroke-linecap:round;stroke-miterlimit:10;" x1="49.911" y1="394.81" x2="97.897" y2="382.401"/>
			<polygon style="fill:#212121;" points="36.27,409.207 48.588,409.207 50.325,407.526 			"/>
			<path style="fill:#A52B21;" d="M113.85,384.791c-3.005,0.873-4.591-1.309-5.464-4.313l0,0c-0.874-3.006-0.705-5.697,2.301-6.57"
				/>
			<polyline style="fill:#A52B21;" points="108.051,376.534 103.278,379.446 102.612,383.649 110.445,383.735 			"/>
		</g>
	</g>
</g>
<g id="DESIGNED_BY_FREEPIK">
	<g id="XMLID_76_">
		<g id="XMLID_929_">
			<path id="XMLID_958_" style="fill:#3F3F3F;" d="M181.087,472.134c-0.246,0-0.435,0.085-0.567,0.255
				c-0.133,0.17-0.199,0.421-0.199,0.753v2.393c-0.304-0.332-0.617-0.579-0.937-0.739c-0.321-0.159-0.715-0.24-1.182-0.24
				c-0.807,0-1.458,0.283-1.953,0.849c-0.494,0.566-0.742,1.355-0.742,2.369c0,0.479,0.063,0.923,0.188,1.335
				c0.124,0.412,0.307,0.77,0.549,1.074c0.241,0.305,0.526,0.539,0.857,0.703c0.33,0.164,0.689,0.246,1.078,0.246
				c0.293,0,0.563-0.04,0.809-0.122c0.247-0.08,0.477-0.199,0.689-0.356c0.212-0.155,0.426-0.358,0.644-0.607v0.16
				c0,0.297,0.072,0.525,0.217,0.685c0.145,0.16,0.328,0.24,0.549,0.24c0.226,0,0.409-0.077,0.552-0.231
				c0.143-0.154,0.213-0.386,0.213-0.694v-7.147c0-0.305-0.066-0.534-0.199-0.69C181.52,472.212,181.332,472.134,181.087,472.134z
				 M180.021,478.975c-0.141,0.306-0.329,0.533-0.563,0.682c-0.236,0.148-0.496,0.223-0.781,0.223c-0.28,0-0.539-0.078-0.777-0.236
				c-0.237-0.154-0.424-0.387-0.561-0.695c-0.136-0.31-0.205-0.683-0.205-1.122c0-0.415,0.063-0.78,0.193-1.096
				c0.128-0.314,0.31-0.556,0.543-0.724c0.233-0.168,0.499-0.252,0.795-0.252c0.285,0,0.547,0.082,0.787,0.245
				c0.239,0.165,0.429,0.402,0.569,0.713c0.141,0.311,0.21,0.682,0.21,1.113C180.232,478.283,180.163,478.667,180.021,478.975z"/>
			<path id="XMLID_954_" style="fill:#3F3F3F;" d="M188.452,478.054c0.233-0.122,0.35-0.385,0.35-0.793
				c0-0.438-0.113-0.87-0.338-1.294c-0.225-0.423-0.564-0.769-1.019-1.035c-0.453-0.268-0.996-0.399-1.628-0.399
				c-0.487,0-0.93,0.077-1.33,0.233c-0.4,0.156-0.737,0.381-1.01,0.674c-0.272,0.293-0.48,0.643-0.623,1.054
				c-0.143,0.409-0.213,0.853-0.213,1.332c0,1.017,0.289,1.822,0.867,2.415c0.577,0.593,1.387,0.891,2.427,0.891
				c0.456,0,0.858-0.06,1.207-0.178c0.352-0.12,0.641-0.268,0.874-0.448c0.231-0.181,0.404-0.368,0.519-0.565
				c0.115-0.196,0.172-0.366,0.172-0.514c0-0.166-0.052-0.294-0.155-0.386c-0.103-0.09-0.237-0.137-0.403-0.137
				c-0.154,0-0.273,0.036-0.356,0.107c-0.203,0.19-0.366,0.34-0.492,0.451s-0.265,0.216-0.415,0.313
				c-0.15,0.098-0.305,0.167-0.466,0.214c-0.16,0.044-0.337,0.067-0.531,0.067c-0.289,0-0.553-0.07-0.792-0.213
				c-0.239-0.143-0.432-0.355-0.576-0.636c-0.144-0.281-0.219-0.605-0.222-0.974h3.168
				C187.89,478.234,188.219,478.174,188.452,478.054z M184.297,477.315c0.055-0.547,0.212-0.96,0.472-1.238
				c0.259-0.28,0.59-0.418,0.994-0.418c0.423,0,0.764,0.137,1.024,0.411c0.259,0.275,0.409,0.69,0.448,1.245H184.297z"/>
			<path id="XMLID_952_" style="fill:#3F3F3F;" d="M193.878,477.617c-0.319-0.17-0.729-0.316-1.231-0.439
				c-0.424-0.104-0.756-0.19-0.997-0.261c-0.242-0.07-0.434-0.161-0.576-0.27c-0.143-0.108-0.213-0.247-0.213-0.418
				c0-0.186,0.097-0.342,0.291-0.465c0.194-0.126,0.437-0.188,0.73-0.188c0.286,0,0.511,0.047,0.677,0.142
				c0.166,0.096,0.31,0.223,0.433,0.381c0.151,0.189,0.284,0.331,0.401,0.426c0.116,0.096,0.258,0.144,0.424,0.144
				c0.23,0,0.407-0.061,0.532-0.178c0.124-0.119,0.187-0.271,0.187-0.457c0-0.171-0.058-0.345-0.175-0.523
				c-0.116-0.178-0.286-0.34-0.51-0.485c-0.223-0.147-0.502-0.265-0.837-0.351c-0.333-0.088-0.71-0.131-1.13-0.131
				c-0.535,0-0.99,0.085-1.367,0.259c-0.378,0.172-0.665,0.402-0.859,0.69c-0.194,0.289-0.291,0.597-0.291,0.92
				c0,0.364,0.105,0.671,0.315,0.921c0.21,0.249,0.489,0.45,0.839,0.602c0.351,0.152,0.804,0.298,1.362,0.435
				c0.494,0.12,0.849,0.244,1.066,0.375c0.216,0.131,0.323,0.338,0.323,0.622c0,0.187-0.104,0.352-0.311,0.497
				c-0.208,0.144-0.474,0.216-0.798,0.216c-0.4,0-0.715-0.07-0.947-0.213c-0.232-0.144-0.431-0.357-0.597-0.647
				c-0.082-0.149-0.169-0.267-0.261-0.351c-0.091-0.082-0.221-0.124-0.39-0.124c-0.194,0-0.355,0.064-0.481,0.19
				c-0.128,0.126-0.191,0.278-0.191,0.456c0,0.27,0.099,0.537,0.296,0.805c0.198,0.267,0.505,0.489,0.92,0.667
				c0.415,0.179,0.914,0.268,1.495,0.268c0.609,0,1.127-0.082,1.552-0.246c0.425-0.164,0.747-0.405,0.964-0.725
				c0.218-0.318,0.326-0.701,0.326-1.148c0-0.297-0.081-0.56-0.246-0.792C194.438,477.988,194.196,477.787,193.878,477.617z"/>
			<path id="XMLID_950_" style="fill:#3F3F3F;" d="M196.486,474.543c-0.238,0-0.431,0.081-0.579,0.243
				c-0.149,0.162-0.222,0.404-0.222,0.724v4.636c0,0.316,0.073,0.56,0.222,0.73c0.148,0.17,0.341,0.255,0.579,0.255
				c0.238,0,0.433-0.083,0.588-0.249c0.154-0.166,0.232-0.412,0.232-0.736v-4.683c0-0.288-0.078-0.515-0.232-0.677
				C196.919,474.624,196.724,474.543,196.486,474.543z"/>
			<path id="XMLID_949_" style="fill:#3F3F3F;" d="M196.504,472.204c-0.217,0-0.409,0.073-0.573,0.223
				c-0.165,0.149-0.246,0.337-0.246,0.567c0,0.254,0.08,0.449,0.24,0.588c0.16,0.138,0.353,0.208,0.579,0.208
				c0.217,0,0.405-0.071,0.563-0.212c0.158-0.14,0.238-0.335,0.238-0.584c0-0.258-0.081-0.453-0.244-0.588
				C196.9,472.272,196.714,472.204,196.504,472.204z"/>
			<path id="XMLID_945_" style="fill:#3F3F3F;" d="M203.626,474.543c-0.217,0-0.396,0.077-0.535,0.231
				c-0.139,0.154-0.208,0.372-0.208,0.652v0.221c-0.289-0.376-0.602-0.651-0.938-0.829c-0.337-0.175-0.734-0.264-1.193-0.264
				c-0.384,0-0.736,0.068-1.056,0.204c-0.321,0.138-0.604,0.34-0.849,0.609c-0.245,0.268-0.433,0.599-0.566,0.991
				c-0.133,0.392-0.199,0.831-0.199,1.317c0,0.653,0.108,1.228,0.327,1.728c0.217,0.498,0.529,0.886,0.934,1.163
				c0.406,0.276,0.88,0.415,1.422,0.415c0.45,0,0.839-0.091,1.166-0.272c0.327-0.182,0.614-0.447,0.864-0.797
				c-0.008,0.531-0.02,0.916-0.036,1.155c-0.016,0.24-0.07,0.465-0.164,0.674c-0.093,0.209-0.255,0.373-0.486,0.489
				c-0.232,0.117-0.557,0.176-0.977,0.176c-0.205,0-0.387-0.02-0.545-0.057c-0.159-0.038-0.294-0.095-0.406-0.171
				c-0.112-0.078-0.216-0.171-0.309-0.28c-0.093-0.108-0.183-0.217-0.27-0.323c-0.178-0.21-0.386-0.315-0.624-0.315
				c-0.189,0-0.352,0.062-0.486,0.188c-0.135,0.123-0.202,0.284-0.202,0.482c0,0.262,0.119,0.516,0.356,0.764
				c0.238,0.247,0.576,0.448,1.014,0.605c0.439,0.155,0.938,0.233,1.496,0.233c0.609,0,1.119-0.061,1.528-0.184
				c0.409-0.122,0.741-0.311,0.994-0.563c0.253-0.254,0.438-0.574,0.551-0.961c0.115-0.389,0.173-0.852,0.173-1.39v-4.706
				c0-0.384-0.051-0.678-0.155-0.882C204.146,474.646,203.938,474.543,203.626,474.543z M202.6,478.908
				c-0.151,0.291-0.346,0.508-0.586,0.653c-0.239,0.144-0.493,0.217-0.762,0.217c-0.455,0-0.826-0.168-1.113-0.505
				c-0.287-0.336-0.431-0.834-0.431-1.49c0-0.648,0.139-1.149,0.419-1.501c0.279-0.352,0.649-0.528,1.113-0.528
				c0.475,0,0.858,0.184,1.148,0.553c0.291,0.367,0.437,0.882,0.437,1.542C202.825,478.265,202.749,478.617,202.6,478.908z"/>
			<path id="XMLID_944_" style="fill:#3F3F3F;" d="M210.978,475.61c-0.165-0.339-0.418-0.602-0.753-0.788
				c-0.337-0.187-0.718-0.279-1.146-0.279c-0.439,0-0.828,0.088-1.166,0.264c-0.338,0.177-0.65,0.452-0.935,0.828v-0.195
				c0-0.193-0.034-0.358-0.104-0.493c-0.069-0.134-0.162-0.234-0.276-0.302c-0.114-0.068-0.244-0.102-0.387-0.102
				c-0.233,0-0.416,0.076-0.552,0.229c-0.134,0.152-0.201,0.383-0.201,0.691v4.683c0,0.316,0.076,0.56,0.226,0.73
				c0.15,0.17,0.342,0.255,0.576,0.255c0.241,0,0.438-0.082,0.59-0.246c0.152-0.164,0.228-0.411,0.228-0.739v-2.03
				c0-0.66,0.04-1.11,0.119-1.353c0.11-0.3,0.284-0.537,0.522-0.71c0.237-0.172,0.5-0.258,0.788-0.258
				c0.444,0,0.74,0.143,0.888,0.425c0.148,0.282,0.223,0.691,0.223,1.226v2.7c0,0.316,0.074,0.56,0.226,0.73
				c0.15,0.17,0.346,0.255,0.587,0.255c0.238,0,0.431-0.083,0.578-0.249c0.149-0.166,0.224-0.412,0.224-0.736v-3.016
				c0-0.357-0.017-0.648-0.048-0.878C211.155,476.023,211.085,475.809,210.978,475.61z"/>
			<path id="XMLID_939_" style="fill:#3F3F3F;" d="M217.821,478.054c0.233-0.122,0.35-0.385,0.35-0.793
				c0-0.438-0.113-0.87-0.338-1.294c-0.226-0.423-0.565-0.769-1.019-1.035c-0.453-0.268-0.996-0.399-1.628-0.399
				c-0.487,0-0.93,0.077-1.33,0.233c-0.4,0.156-0.736,0.381-1.009,0.674c-0.273,0.293-0.481,0.643-0.624,1.054
				c-0.142,0.409-0.213,0.853-0.213,1.332c0,1.017,0.289,1.822,0.866,2.415c0.578,0.593,1.387,0.891,2.428,0.891
				c0.455,0,0.858-0.06,1.208-0.178c0.351-0.12,0.64-0.268,0.872-0.448c0.232-0.181,0.405-0.368,0.52-0.565
				c0.114-0.196,0.172-0.366,0.172-0.514c0-0.166-0.051-0.294-0.154-0.386c-0.103-0.09-0.238-0.137-0.404-0.137
				c-0.154,0-0.273,0.036-0.356,0.107c-0.201,0.19-0.366,0.34-0.492,0.451c-0.128,0.111-0.266,0.216-0.415,0.313
				c-0.151,0.098-0.307,0.167-0.466,0.214c-0.161,0.044-0.338,0.067-0.532,0.067c-0.288,0-0.553-0.07-0.792-0.213
				c-0.239-0.143-0.431-0.355-0.575-0.636c-0.145-0.281-0.219-0.605-0.223-0.974h3.169
				C217.26,478.234,217.588,478.174,217.821,478.054z M213.666,477.315c0.056-0.547,0.212-0.96,0.471-1.238
				c0.259-0.28,0.591-0.418,0.995-0.418c0.423,0,0.765,0.137,1.024,0.411c0.259,0.275,0.409,0.69,0.448,1.245H213.666z"/>
			<path id="XMLID_936_" style="fill:#3F3F3F;" d="M224.206,472.134c-0.245,0-0.434,0.085-0.567,0.255
				c-0.132,0.17-0.199,0.421-0.199,0.753v2.393c-0.304-0.332-0.617-0.579-0.938-0.739c-0.32-0.159-0.714-0.24-1.181-0.24
				c-0.808,0-1.458,0.283-1.953,0.849c-0.495,0.566-0.741,1.355-0.741,2.369c0,0.479,0.062,0.923,0.187,1.335
				c0.125,0.412,0.308,0.77,0.549,1.074c0.241,0.305,0.527,0.539,0.857,0.703c0.33,0.164,0.689,0.246,1.077,0.246
				c0.293,0,0.563-0.04,0.81-0.122c0.248-0.08,0.476-0.199,0.689-0.356c0.211-0.155,0.426-0.358,0.643-0.607v0.16
				c0,0.297,0.072,0.525,0.217,0.685c0.145,0.16,0.328,0.24,0.549,0.24c0.226,0,0.41-0.077,0.552-0.231
				c0.143-0.154,0.213-0.386,0.213-0.694v-7.147c0-0.305-0.065-0.534-0.199-0.69C224.641,472.212,224.452,472.134,224.206,472.134z
				 M223.141,478.975c-0.14,0.306-0.328,0.533-0.564,0.682c-0.235,0.148-0.495,0.223-0.781,0.223c-0.281,0-0.54-0.078-0.776-0.236
				c-0.238-0.154-0.425-0.387-0.562-0.695c-0.137-0.31-0.205-0.683-0.205-1.122c0-0.415,0.064-0.78,0.193-1.096
				c0.129-0.314,0.31-0.556,0.543-0.724c0.233-0.168,0.499-0.252,0.795-0.252c0.285,0,0.547,0.082,0.787,0.245
				c0.239,0.165,0.43,0.402,0.57,0.713c0.14,0.311,0.21,0.682,0.21,1.113C223.352,478.283,223.281,478.667,223.141,478.975z"/>
			<path id="XMLID_933_" style="fill:#3F3F3F;" d="M233.586,474.938c-0.406-0.255-0.877-0.383-1.415-0.383
				c-0.467,0-0.859,0.084-1.175,0.252c-0.317,0.168-0.627,0.411-0.932,0.728v-2.476c0-0.297-0.068-0.524-0.202-0.686
				c-0.135-0.159-0.326-0.239-0.576-0.239c-0.237,0-0.423,0.084-0.555,0.252c-0.133,0.168-0.198,0.416-0.198,0.744v7.075
				c0,0.305,0.068,0.535,0.205,0.692c0.136,0.156,0.319,0.233,0.549,0.233c0.226,0,0.412-0.077,0.558-0.233
				c0.146-0.157,0.22-0.388,0.22-0.692v-0.16c0.178,0.205,0.322,0.36,0.43,0.463c0.109,0.103,0.241,0.203,0.395,0.3
				c0.154,0.098,0.341,0.175,0.561,0.234c0.22,0.06,0.454,0.089,0.704,0.089c0.407,0,0.781-0.082,1.119-0.246
				c0.338-0.164,0.626-0.397,0.864-0.698c0.237-0.3,0.418-0.655,0.543-1.064c0.124-0.41,0.187-0.859,0.187-1.35
				c0-0.665-0.112-1.241-0.336-1.725C234.305,475.564,233.991,475.193,233.586,474.938z M232.796,479.348
				c-0.295,0.354-0.646,0.531-1.053,0.531c-0.479,0-0.866-0.174-1.161-0.521c-0.295-0.346-0.442-0.841-0.442-1.486
				c0-0.44,0.069-0.818,0.207-1.136c0.138-0.319,0.328-0.563,0.57-0.73c0.24-0.168,0.516-0.252,0.825-0.252
				c0.3,0,0.563,0.084,0.789,0.252c0.225,0.168,0.399,0.406,0.521,0.716c0.123,0.308,0.184,0.677,0.184,1.103
				C233.238,478.486,233.09,478.993,232.796,479.348z"/>
			<path id="XMLID_931_" style="fill:#3F3F3F;" d="M240.529,474.641c-0.112-0.065-0.23-0.098-0.353-0.098
				c-0.171,0-0.302,0.029-0.395,0.09c-0.093,0.058-0.181,0.173-0.264,0.344c-0.083,0.17-0.176,0.406-0.279,0.705l-1.3,3.71
				l-1.371-3.988c-0.091-0.277-0.195-0.489-0.314-0.638c-0.119-0.148-0.295-0.223-0.529-0.223c-0.135,0-0.264,0.035-0.389,0.107
				c-0.124,0.07-0.222,0.166-0.294,0.285c-0.071,0.117-0.107,0.246-0.107,0.385c0,0.131,0.062,0.341,0.184,0.629l1.995,5.022
				l-0.148,0.362c-0.111,0.265-0.208,0.466-0.294,0.601c-0.085,0.139-0.181,0.234-0.288,0.289c-0.107,0.056-0.254,0.084-0.44,0.084
				c-0.075,0-0.163-0.013-0.266-0.036c-0.083-0.024-0.168-0.036-0.256-0.036c-0.221,0-0.388,0.051-0.501,0.151
				c-0.113,0.101-0.169,0.245-0.169,0.431c0,0.272,0.119,0.461,0.356,0.564c0.237,0.103,0.593,0.153,1.068,0.153
				c0.487,0,0.873-0.073,1.161-0.223c0.287-0.147,0.517-0.361,0.691-0.638c0.174-0.277,0.353-0.659,0.535-1.146l2.113-5.531
				c0.051-0.143,0.095-0.283,0.13-0.421c0.037-0.14,0.061-0.246,0.078-0.321c0-0.123-0.032-0.239-0.093-0.35
				C240.729,474.794,240.642,474.706,240.529,474.641z"/>
		</g>
		<g id="XMLID_365_">
			<g id="XMLID_380_">
				<path id="XMLID_928_" style="fill:#3F3F3F;" d="M262.93,472.129c-0.533,0-0.954,0.068-1.26,0.204
					c-0.308,0.137-0.527,0.354-0.654,0.652c-0.13,0.301-0.191,0.702-0.191,1.211v0.487h-0.387c-0.543,0-0.815,0.191-0.815,0.582
					c0,0.174,0.065,0.315,0.196,0.423c0.132,0.111,0.316,0.164,0.559,0.164h0.446v4.294c0,0.318,0.074,0.563,0.228,0.729
					c0.154,0.17,0.344,0.254,0.573,0.254c0.243,0,0.438-0.084,0.589-0.254c0.155-0.167,0.23-0.411,0.23-0.729v-4.294h0.396
					c0.291,0,0.517-0.035,0.681-0.107c0.166-0.071,0.245-0.24,0.245-0.503c0-0.373-0.307-0.559-0.926-0.559h-0.396v-0.387
					c0-0.321,0.043-0.567,0.122-0.739c0.087-0.172,0.273-0.26,0.565-0.26c0.108,0,0.241,0.014,0.39,0.034
					c0.155,0.026,0.268,0.038,0.33,0.038c0.134,0,0.252-0.055,0.348-0.16c0.102-0.107,0.15-0.235,0.15-0.385
					C264.35,472.358,263.879,472.129,262.93,472.129z"/>
				<path id="XMLID_926_" style="fill:#3F3F3F;" d="M268.089,474.795c-0.32-0.171-0.648-0.255-0.99-0.255
					c-0.342,0-0.61,0.084-0.818,0.255c-0.202,0.171-0.4,0.421-0.592,0.755c-0.015-0.334-0.08-0.584-0.199-0.755
					c-0.119-0.171-0.313-0.255-0.583-0.255c-0.525,0-0.788,0.364-0.788,1.093v4.514c0,0.323,0.078,0.568,0.226,0.732
					c0.149,0.169,0.34,0.251,0.579,0.251c0.236,0,0.432-0.081,0.586-0.247c0.15-0.163,0.233-0.41,0.233-0.736v-1.356
					c0-0.486,0.014-0.899,0.045-1.238c0.033-0.337,0.09-0.631,0.17-0.878c0.084-0.243,0.201-0.425,0.353-0.554
					c0.149-0.122,0.345-0.186,0.582-0.186c0.172,0,0.374,0.036,0.602,0.108c0.227,0.073,0.371,0.112,0.434,0.112
					c0.157,0,0.304-0.064,0.44-0.194c0.135-0.126,0.204-0.292,0.204-0.488C268.571,475.192,268.411,474.966,268.089,474.795z"/>
				<path id="XMLID_922_" style="fill:#3F3F3F;" d="M274.176,478.052c0.233-0.122,0.351-0.385,0.351-0.791
					c0-0.44-0.112-0.87-0.339-1.296c-0.222-0.423-0.565-0.77-1.018-1.033c-0.453-0.27-0.997-0.403-1.629-0.403
					c-0.488,0-0.931,0.078-1.329,0.232c-0.402,0.157-0.735,0.381-1.008,0.675c-0.275,0.295-0.484,0.644-0.624,1.055
					c-0.145,0.41-0.218,0.854-0.218,1.333c0,1.017,0.293,1.823,0.87,2.418c0.576,0.593,1.385,0.889,2.429,0.889
					c0.453,0,0.857-0.061,1.207-0.179c0.349-0.117,0.64-0.269,0.874-0.446c0.232-0.182,0.404-0.368,0.522-0.566
					c0.111-0.194,0.167-0.365,0.167-0.512c0-0.167-0.048-0.294-0.152-0.386c-0.104-0.093-0.237-0.139-0.405-0.139
					c-0.152,0-0.271,0.038-0.355,0.108c-0.202,0.189-0.367,0.34-0.493,0.449c-0.128,0.113-0.264,0.218-0.415,0.313
					c-0.15,0.097-0.307,0.17-0.466,0.213c-0.16,0.048-0.336,0.069-0.531,0.069c-0.29,0-0.552-0.07-0.792-0.212
					c-0.24-0.145-0.431-0.357-0.578-0.636c-0.145-0.28-0.216-0.606-0.222-0.974h3.171
					C273.615,478.233,273.942,478.173,274.176,478.052z M270.02,477.313c0.055-0.546,0.213-0.957,0.472-1.236
					c0.26-0.28,0.592-0.418,0.995-0.418c0.426,0,0.764,0.136,1.024,0.412c0.261,0.273,0.407,0.688,0.446,1.242H270.02z"/>
				<path id="XMLID_919_" style="fill:#3F3F3F;" d="M280.916,478.052c0.232-0.122,0.352-0.385,0.352-0.791
					c0-0.44-0.116-0.87-0.341-1.296c-0.222-0.423-0.564-0.77-1.013-1.033c-0.46-0.27-1.003-0.403-1.634-0.403
					c-0.486,0-0.932,0.078-1.33,0.232c-0.4,0.157-0.736,0.381-1.009,0.675c-0.273,0.295-0.48,0.644-0.622,1.055
					c-0.145,0.41-0.218,0.854-0.218,1.333c0,1.017,0.291,1.823,0.868,2.418c0.58,0.593,1.387,0.889,2.43,0.889
					c0.453,0,0.859-0.061,1.208-0.179c0.348-0.117,0.641-0.269,0.872-0.446c0.234-0.182,0.408-0.368,0.518-0.566
					c0.116-0.194,0.171-0.365,0.171-0.512c0-0.167-0.047-0.294-0.15-0.386c-0.104-0.093-0.238-0.139-0.406-0.139
					c-0.151,0-0.27,0.038-0.355,0.108c-0.202,0.189-0.367,0.34-0.492,0.449c-0.127,0.113-0.264,0.218-0.415,0.313
					c-0.152,0.097-0.307,0.17-0.469,0.213c-0.157,0.048-0.335,0.069-0.527,0.069c-0.291,0-0.556-0.07-0.795-0.212
					c-0.238-0.145-0.431-0.357-0.575-0.636c-0.144-0.28-0.218-0.606-0.222-0.974h3.17
					C280.354,478.233,280.682,478.173,280.916,478.052z M276.762,477.313c0.053-0.546,0.211-0.957,0.47-1.236
					c0.261-0.28,0.592-0.418,0.995-0.418c0.425,0,0.764,0.136,1.026,0.412c0.257,0.273,0.407,0.688,0.446,1.242H276.762z"/>
				<path id="XMLID_390_" style="fill:#3F3F3F;" d="M286.927,474.938c-0.42-0.257-0.883-0.387-1.379-0.387
					c-0.415,0-0.79,0.09-1.114,0.268c-0.331,0.176-0.648,0.452-0.952,0.827v-0.194c0-0.297-0.071-0.52-0.218-0.678
					c-0.144-0.155-0.329-0.233-0.56-0.233c-0.233,0-0.419,0.078-0.554,0.228c-0.133,0.154-0.199,0.382-0.199,0.691v6.995
					c0,0.354,0.051,0.62,0.145,0.807c0.102,0.183,0.301,0.274,0.607,0.274c0.517,0,0.777-0.358,0.777-1.068v-2.434
					c0.286,0.358,0.586,0.635,0.9,0.817c0.314,0.187,0.704,0.279,1.166,0.279c0.385,0,0.741-0.076,1.079-0.228
					c0.334-0.152,0.622-0.372,0.868-0.653c0.245-0.283,0.44-0.632,0.58-1.05c0.14-0.418,0.21-0.878,0.21-1.376
					c0-0.677-0.122-1.261-0.366-1.758C287.676,475.571,287.346,475.195,286.927,474.938z M286.45,478.94
					c-0.137,0.313-0.32,0.546-0.552,0.704c-0.229,0.153-0.48,0.233-0.748,0.233c-0.454,0-0.828-0.179-1.133-0.536
					c-0.307-0.358-0.46-0.862-0.46-1.504c0-0.687,0.155-1.204,0.462-1.558c0.307-0.35,0.685-0.527,1.131-0.527
					c0.281,0,0.54,0.083,0.77,0.247c0.229,0.163,0.411,0.398,0.542,0.705c0.13,0.306,0.196,0.674,0.196,1.101
					C286.658,478.248,286.589,478.627,286.45,478.94z"/>
				<path id="XMLID_389_" style="fill:#3F3F3F;" d="M289.9,474.54c-0.238,0-0.428,0.079-0.58,0.244
					c-0.146,0.163-0.222,0.403-0.222,0.722v4.642c0,0.313,0.076,0.555,0.222,0.729c0.152,0.17,0.342,0.254,0.58,0.254
					s0.432-0.082,0.588-0.251c0.154-0.164,0.231-0.409,0.231-0.731v-4.688c0-0.286-0.077-0.512-0.231-0.675
					C290.332,474.619,290.139,474.54,289.9,474.54z"/>
				<path id="XMLID_388_" style="fill:#3F3F3F;" d="M289.917,472.199c-0.217,0-0.407,0.076-0.571,0.223
					c-0.166,0.149-0.247,0.339-0.247,0.568c0,0.253,0.08,0.447,0.242,0.586c0.158,0.138,0.35,0.209,0.576,0.209
					c0.22,0,0.408-0.071,0.566-0.21c0.157-0.14,0.236-0.335,0.236-0.585c0-0.257-0.082-0.454-0.244-0.591
					C290.314,472.267,290.13,472.199,289.917,472.199z"/>
				<path id="XMLID_387_" style="fill:#3F3F3F;" d="M297.258,479.569l-1.662-2.614l0.861-0.788c0.438-0.395,0.658-0.714,0.658-0.951
					c0-0.192-0.068-0.354-0.2-0.483c-0.138-0.128-0.306-0.192-0.509-0.192c-0.169,0-0.313,0.043-0.432,0.13
					c-0.121,0.086-0.29,0.251-0.517,0.486l-1.822,1.913v-3.933c0-0.329-0.074-0.581-0.221-0.751
					c-0.147-0.171-0.344-0.257-0.593-0.257c-0.256,0-0.457,0.093-0.596,0.283c-0.136,0.188-0.207,0.462-0.207,0.82v6.914
					c0,0.323,0.073,0.568,0.215,0.732c0.141,0.169,0.339,0.251,0.588,0.251c0.213,0,0.405-0.084,0.566-0.254
					c0.164-0.167,0.247-0.406,0.247-0.719v-1.29l0.88-0.83l1.428,2.352c0.182,0.278,0.329,0.472,0.435,0.58
					c0.107,0.109,0.261,0.16,0.459,0.16c0.226,0,0.412-0.073,0.553-0.222c0.142-0.15,0.214-0.351,0.214-0.609
					c0-0.089-0.029-0.189-0.082-0.288C297.47,479.909,297.379,479.765,297.258,479.569z"/>
				<path id="XMLID_386_" style="fill:#3F3F3F;" d="M299.45,479.343c-0.251,0-0.459,0.087-0.63,0.262
					c-0.171,0.173-0.257,0.381-0.257,0.622c0,0.287,0.091,0.51,0.269,0.665c0.179,0.159,0.389,0.238,0.633,0.238
					c0.237,0,0.444-0.079,0.624-0.241c0.175-0.157,0.264-0.38,0.264-0.662c0-0.243-0.089-0.454-0.264-0.626
					C299.909,479.43,299.698,479.343,299.45,479.343z"/>
				<path id="XMLID_385_" style="fill:#3F3F3F;" d="M306.835,478.416c-0.166,0-0.308,0.055-0.422,0.156
					c-0.113,0.104-0.219,0.245-0.318,0.427c-0.177,0.31-0.381,0.538-0.616,0.69c-0.23,0.149-0.509,0.225-0.834,0.225
					c-0.24,0-0.463-0.045-0.666-0.141c-0.201-0.094-0.372-0.229-0.516-0.409c-0.144-0.18-0.252-0.398-0.325-0.652
					c-0.075-0.256-0.114-0.537-0.114-0.842c0-0.646,0.147-1.161,0.44-1.533c0.293-0.375,0.682-0.561,1.158-0.561
					c0.333,0,0.606,0.075,0.82,0.227c0.219,0.147,0.425,0.376,0.623,0.674c0.108,0.158,0.209,0.27,0.299,0.339
					c0.09,0.069,0.201,0.104,0.338,0.104c0.202,0,0.377-0.068,0.524-0.203c0.143-0.135,0.214-0.3,0.214-0.491
					c0-0.192-0.062-0.397-0.192-0.617c-0.127-0.218-0.315-0.424-0.556-0.62c-0.245-0.192-0.54-0.352-0.891-0.474
					c-0.353-0.124-0.736-0.185-1.156-0.185c-0.674,0-1.26,0.139-1.747,0.419c-0.485,0.278-0.858,0.673-1.113,1.183
					c-0.259,0.511-0.387,1.098-0.387,1.765c0,0.982,0.281,1.765,0.841,2.35c0.563,0.582,1.345,0.876,2.349,0.876
					c0.469,0,0.894-0.065,1.269-0.191c0.377-0.126,0.688-0.295,0.935-0.503c0.248-0.207,0.434-0.425,0.553-0.655
					c0.122-0.23,0.183-0.446,0.183-0.647c0-0.169-0.066-0.331-0.198-0.481C307.198,478.493,307.033,478.416,306.835,478.416z"/>
				<path id="XMLID_382_" style="fill:#3F3F3F;" d="M313.646,475.453c-0.288-0.291-0.628-0.518-1.026-0.675
					c-0.4-0.16-0.847-0.238-1.336-0.238c-0.482,0-0.924,0.078-1.326,0.233c-0.398,0.158-0.737,0.38-1.02,0.669
					c-0.281,0.288-0.498,0.637-0.648,1.045c-0.146,0.408-0.225,0.857-0.225,1.349c0,0.485,0.076,0.93,0.22,1.332
					c0.151,0.401,0.369,0.75,0.657,1.048c0.284,0.292,0.626,0.521,1.016,0.676c0.393,0.159,0.835,0.239,1.326,0.239
					c0.492,0,0.937-0.08,1.336-0.234c0.394-0.157,0.735-0.382,1.02-0.675c0.286-0.291,0.502-0.642,0.656-1.05
					c0.145-0.408,0.222-0.854,0.222-1.336c0-0.488-0.075-0.932-0.221-1.339C314.148,476.096,313.933,475.749,313.646,475.453z
					 M312.455,479.368c-0.29,0.373-0.682,0.558-1.171,0.558c-0.324,0-0.604-0.086-0.846-0.253c-0.24-0.168-0.424-0.409-0.554-0.729
					c-0.129-0.316-0.193-0.685-0.193-1.108c0-0.428,0.066-0.803,0.197-1.124c0.13-0.321,0.314-0.564,0.556-0.728
					c0.242-0.163,0.522-0.245,0.84-0.245c0.489,0,0.881,0.182,1.171,0.555c0.289,0.367,0.436,0.881,0.436,1.542
					C312.891,478.486,312.744,478.999,312.455,479.368z"/>
				<path id="XMLID_381_" style="fill:#3F3F3F;" d="M323.569,474.814c-0.32-0.173-0.705-0.263-1.146-0.263
					c-0.38,0-0.726,0.081-1.038,0.241c-0.314,0.161-0.607,0.408-0.882,0.738c-0.191-0.326-0.431-0.572-0.725-0.735
					c-0.292-0.162-0.642-0.244-1.048-0.244c-0.395,0-0.748,0.079-1.07,0.241c-0.319,0.156-0.62,0.403-0.903,0.738v-0.153
					c0-0.261-0.073-0.466-0.221-0.616c-0.15-0.145-0.335-0.221-0.558-0.221c-0.226,0-0.412,0.078-0.556,0.238
					c-0.14,0.157-0.21,0.389-0.21,0.694v4.636c0,0.337,0.078,0.592,0.235,0.765c0.156,0.171,0.358,0.258,0.604,0.258
					c0.248,0,0.447-0.087,0.603-0.258c0.149-0.173,0.227-0.428,0.227-0.765v-2.189c0-0.683,0.086-1.206,0.253-1.566
					c0.169-0.369,0.517-0.55,1.048-0.55c0.264,0,0.459,0.071,0.582,0.22c0.121,0.142,0.197,0.33,0.226,0.552
					c0.027,0.226,0.04,0.544,0.04,0.952v2.581c0,0.342,0.078,0.594,0.232,0.768c0.148,0.17,0.35,0.255,0.595,0.255
					c0.254,0,0.454-0.085,0.61-0.255c0.156-0.174,0.23-0.426,0.23-0.768v-2.153c0-0.694,0.063-1.178,0.178-1.452
					c0.109-0.209,0.259-0.383,0.451-0.508c0.191-0.125,0.395-0.191,0.608-0.191c0.264,0,0.463,0.071,0.596,0.215
					c0.128,0.142,0.209,0.318,0.238,0.528c0.029,0.21,0.044,0.486,0.044,0.837v2.725c0,0.337,0.078,0.592,0.234,0.765
					c0.157,0.171,0.356,0.258,0.604,0.258c0.252,0,0.458-0.085,0.611-0.255c0.154-0.174,0.229-0.426,0.229-0.768v-3.163
					c0-0.629-0.068-1.091-0.206-1.386C324.128,475.237,323.889,474.987,323.569,474.814z"/>
			</g>
			<g id="XMLID_366_">
				<path id="XMLID_379_" style="fill:#3F3F3F;" d="M245.273,477.443c-0.001-0.003-0.001-0.006-0.001-0.011
					C245.272,477.438,245.272,477.44,245.273,477.443z"/>
				<path id="XMLID_378_" style="fill:#3F3F3F;" d="M245.355,477.961c0.001,0,0.001,0,0.001,0c-0.03-0.146-0.055-0.294-0.073-0.438
					C245.301,477.669,245.326,477.816,245.355,477.961z"/>
				<path id="XMLID_377_" style="fill:#3F3F3F;" d="M245.891,479.466c-0.003-0.007-0.006-0.014-0.01-0.021
					C245.885,479.452,245.888,479.459,245.891,479.466z"/>
				<path id="XMLID_376_" style="fill:#3F3F3F;" d="M245.84,479.365c-0.014-0.027-0.027-0.056-0.04-0.083
					C245.812,479.311,245.826,479.338,245.84,479.365z"/>
				<path id="XMLID_375_" style="fill:#3F3F3F;" d="M245.505,478.541c0.08,0.25,0.175,0.492,0.286,0.724
					c-0.113-0.236-0.206-0.478-0.284-0.724H245.505z"/>
				<path id="XMLID_374_" style="fill:#3F3F3F;" d="M250.736,470.682l-0.076-0.26c0.299-0.063,0.523-0.329,0.523-0.647
					c0-0.363-0.296-0.659-0.66-0.659c-0.365,0-0.66,0.296-0.66,0.659c0,0.317,0.225,0.584,0.522,0.647l0.084,0.289
					c-1.021,0.141-1.834,0.539-1.834,0.539l0.144,0.44c0.617-0.206,1.153-0.331,1.64-0.383c0.476-0.051,0.833-0.073,1.126-0.073
					c0.313,0,0.545,0.025,0.81,0.069l0.075-0.476C252.43,470.828,251.697,470.603,250.736,470.682z"/>
				<path id="XMLID_373_" style="fill:#3F3F3F;" d="M245.453,473.189c-0.017,0.023-0.497,0.465-0.876,1.279
					c-0.016-0.025-0.035-0.051-0.056-0.074c-0.114-0.124-0.272-0.188-0.474-0.184c-0.003,0-0.006,0-0.01,0
					c-0.124,0-0.21-0.042-0.266-0.093c0.056-0.07,0.089-0.16,0.089-0.258c0-0.23-0.188-0.419-0.419-0.419
					c-0.23,0-0.417,0.189-0.417,0.419c0,0.231,0.188,0.417,0.417,0.417c0.037,0,0.071-0.005,0.105-0.012
					c0.102,0.113,0.266,0.214,0.504,0.209c0.124-0.002,0.214,0.03,0.273,0.097c0.07,0.075,0.093,0.185,0.1,0.267
					c-0.001,0.002-0.001,0.004-0.002,0.004c-0.272,0.743-0.194,1.668-0.194,1.668l0.661,0.025c0.014-0.336,0.061-0.925,0.232-1.393
					c0.329-0.906,0.741-1.472,0.757-1.496l0.004-0.005c0.024-0.031,0.047-0.06,0.071-0.089l-0.196-0.142L245.453,473.189z"/>
				<path id="XMLID_372_" style="fill:#3F3F3F;" d="M257.294,471.787c-0.23,0-0.419,0.186-0.419,0.417
					c0,0.037,0.006,0.071,0.016,0.104c-0.115,0.104-0.215,0.267-0.211,0.506c0.002,0.123-0.03,0.213-0.097,0.273
					c-0.053,0.047-0.119,0.071-0.185,0.087c-0.492-0.689-1.098-1.109-1.098-1.109l-0.474,0.509c0.358,0.326,0.725,0.734,1.08,1.244
					c0.246,0.352,0.499,0.806,0.71,1.258l0.64-0.304c0,0-0.292-0.722-0.703-1.369c0.071-0.025,0.143-0.063,0.206-0.12
					c0.126-0.113,0.188-0.272,0.184-0.474c-0.001-0.13,0.041-0.218,0.093-0.275c0.071,0.054,0.16,0.089,0.258,0.089
					c0.232,0,0.418-0.188,0.418-0.419C257.712,471.974,257.525,471.787,257.294,471.787z"/>
				<path id="XMLID_371_" style="fill:#3F3F3F;" d="M255.633,477.537c-0.88,0.429-2.33,0.996-4.236,1.262
					c-0.749,0.104-1.475,0.143-2.143,0.143c-0.869,0-1.638-0.064-2.227-0.14c-0.672-0.084-1.198-0.188-1.52-0.261
					c0.078,0.245,0.171,0.487,0.284,0.724c0.002,0.006,0.005,0.013,0.008,0.018c0.013,0.027,0.027,0.056,0.04,0.083
					c0.014,0.027,0.027,0.055,0.041,0.079c0.004,0.008,0.007,0.015,0.01,0.021c0.19,0.357,0.417,0.684,0.676,0.968
					c0.899,0.984,1.816,1.139,1.825,1.141l0.015,0.002l0.013,0.005c0.009,0.003,0.821,0.265,2.057,0.265
					c1.215,0,2.409-0.244,3.545-0.729c0.842-0.431,1.639-1.085,2.033-1.668c0.306-0.452,0.526-0.934,0.656-1.434
					c0.069-0.266,0.124-0.692,0.092-1.141C256.555,477.042,256.163,477.279,255.633,477.537z"/>
				<path id="XMLID_367_" style="fill:#3F3F3F;" d="M252.322,471.655c-0.265-0.044-0.477-0.068-0.777-0.068
					c-0.279,0-0.626,0.022-1.088,0.07c-0.465,0.049-0.982,0.171-1.583,0.373c-0.842,0.282-1.604,0.725-2.204,1.28l-0.02,0.019
					c-0.089,0.081-0.275,0.254-0.488,0.525c-0.025,0.037-0.408,0.578-0.709,1.408c-0.226,0.621-0.216,1.526-0.216,1.537v0.001
					c0,0.212,0.013,0.423,0.036,0.632c0,0.005,0,0.008,0.001,0.011c0.003,0.027,0.007,0.053,0.01,0.08
					c0.019,0.144,0.043,0.291,0.074,0.438c0.438,0.112,3.048,0.721,5.967,0.314c1.829-0.254,3.218-0.795,4.061-1.204
					c0.701-0.34,1.151-0.647,1.325-0.773c-0.173-0.643-0.651-1.65-1.089-2.278C254.367,472.228,253.016,471.77,252.322,471.655z
					 M248.679,476.914c-0.972,0-1.759-0.787-1.759-1.76c0-0.972,0.788-1.76,1.759-1.76c0.973,0,1.761,0.788,1.761,1.76
					C250.439,476.127,249.651,476.914,248.679,476.914z M253.828,475.617c-0.601,0-1.088-0.489-1.088-1.09
					c0-0.603,0.487-1.09,1.088-1.09s1.09,0.487,1.09,1.09C254.918,475.128,254.429,475.617,253.828,475.617z"/>
			</g>
		</g>
	</g>
</g>
</svg>
