<?xml version="1.0" encoding="utf-8"?>
<!-- Generator: Adobe Illustrator 27.5.0, SVG Export Plug-In . SVG Version: 6.00 Build 0)  -->
<svg version="1.1" id="Layer_1" xmlns="http://www.w3.org/2000/svg" xmlns:xlink="http://www.w3.org/1999/xlink" x="0px" y="0px"
	 viewBox="0 0 900 900" style="enable-background:new 0 0 900 900;" xml:space="preserve">
<g>
	<polyline style="opacity:0.4;fill:#705D57;" points="158.106,826.696 246.048,898.072 898.28,898.072 898.28,447.644 
		742.308,53.867 	"/>
	<g>
		<g>
			<path style="fill:#FFCA3E;" d="M148.685,44.375h596.732v790.874H148.685V44.375z M659.95,129.843H234.152v608.949H659.95V129.843
				z"/>
			<g style="opacity:0.2;">
				<polygon style="fill:#FFFFFF;" points="592.189,835.249 433.607,835.249 405.339,738.792 599.515,738.792 599.515,129.843 
					314.602,129.843 289.553,44.375 340.683,44.375 				"/>
			</g>
		</g>
		<polygon style="opacity:0.7;fill:#F4BD31;" points="709.615,81.004 709.615,87.416 702.685,92.3 702.684,752.222 191.421,781.405 
			191.421,788.853 184.092,788.853 184.092,81.004 		"/>
		<polygon style="opacity:0.7;fill:#F4BD31;" points="710.01,87.109 710.01,791.294 191.418,791.294 191.418,87.109 703.102,91.993 
					"/>
		<rect x="191.418" y="96.092" style="fill:#FFC98F;" width="511.265" height="685.435"/>
		<rect x="191.418" y="87.109" style="fill:#7F6C5D;" width="511.265" height="591.618"/>
		<polygon style="fill:#705D57;" points="191.418,206.995 702.694,206.995 702.684,87.109 191.418,87.109 		"/>
		<polygon style="opacity:0.4;fill:#705D57;" points="656.299,129.864 679.865,139.169 702.684,148.178 702.684,731.8 
			669.729,757.438 216.752,757.438 216.752,677.592 228.983,677.592 		"/>
		<polygon style="fill:#A59FA2;" points="226.86,652.18 666.193,650.098 658.151,574.765 232.458,574.765 		"/>
		<g>
			<path style="fill:#777174;" d="M369.411,635.244c-0.062,2.273,1.723,4.136,3.962,4.136l142.779,0.002
				c2.24,0,4.012-1.861,3.937-4.136l-2.194-48.792c-0.131-2.273-2.24-4.135-4.684-4.135H375.983c-2.446,0-4.543,1.861-4.659,4.135
				L369.411,635.244z"/>
		</g>
		<rect x="232.458" y="397.308" style="fill:#777174;" width="425.693" height="177.456"/>
		<path style="opacity:0.4;fill:#423F41;" d="M232.458,502.965c0,0,134.104,13.927,221.485,13.927
			c87.384,0,204.208-13.93,204.208-13.93V160.039l-425.693,0.002V502.965z"/>
		<g>
			<rect x="232.458" y="482.266" style="fill:#D2D7DB;" width="179.856" height="92.499"/>
			<polyline style="opacity:0.4;fill:#FFFFFF;" points="412.314,496.971 412.314,537.567 232.458,537.567 232.458,496.971 			"/>
			
				<linearGradient id="SVGID_1_" gradientUnits="userSpaceOnUse" x1="-8772.7402" y1="507.2641" x2="-8772.7402" y2="624.9692" gradientTransform="matrix(-1 0 0 1 -8450.3535 0)">
				<stop  offset="0" style="stop-color:#C9C9C9"/>
				<stop  offset="0.0252" style="stop-color:#C1C1C1"/>
				<stop  offset="0.2008" style="stop-color:#929091"/>
				<stop  offset="0.375" style="stop-color:#6A6868"/>
				<stop  offset="0.5446" style="stop-color:#4B4849"/>
				<stop  offset="0.708" style="stop-color:#353132"/>
				<stop  offset="0.8629" style="stop-color:#282425"/>
				<stop  offset="1" style="stop-color:#231F20"/>
			</linearGradient>
			<rect x="232.458" y="551.005" style="opacity:0.1;fill:url(#SVGID_1_);" width="179.856" height="23.76"/>
		</g>
		<g>
			<g>
				<g>
					<rect x="513.199" y="534.273" style="opacity:0.8;fill:#2C2F3E;" width="112.189" height="13.872"/>
					<path style="fill:#BCBCBC;" d="M516.486,537.558h105.614v7.301H516.486V537.558 M509.911,530.985v6.572v7.301v6.574h6.575
						h105.614h6.574v-6.574v-7.301v-6.572h-6.574H516.486H509.911L509.911,530.985z"/>
				</g>
				<g style="opacity:0.6;">
					<rect x="509.911" y="551.433" style="fill:#423F41;" width="118.764" height="5.425"/>
				</g>
				<g>
					<g>
						<g>
							<g style="opacity:0.7;">
								<g>
									
										<line style="fill:none;stroke:#FFFFFF;stroke-width:3.3619;stroke-miterlimit:10;" x1="495.876" y1="539.39" x2="495.8" y2="547.042"/>
									<g>
										<polygon style="fill:#FFFFFF;" points="491.36,542.744 495.861,540.885 500.324,542.833 495.948,532.165 										"/>
									</g>
								</g>
							</g>
						</g>
					</g>
				</g>
			</g>
		</g>
		<g>
			<rect x="226.984" y="671.979" style="fill:#D2D7DB;" width="439.209" height="76.31"/>
			<g>
				<g>
					<rect x="340.224" y="689.087" style="fill:#3A3737;" width="218.261" height="27.609"/>
					<path style="fill:#EAEFF3;" d="M344.363,693.224h209.982v19.334H344.363V693.224 M333.643,724.26h220.703h10.72v-39.315
						H333.643V724.26z"/>
				</g>
				<g style="opacity:0.5;">
					<rect x="344.363" y="708.03" style="fill:#FFFFFF;" width="209.982" height="4.564"/>
				</g>
			</g>
		</g>
		<g>
			<g>
				<g>
					<path style="fill:#D2D7DB;" d="M374.793,635.644c-0.058,2.053,1.6,3.736,3.679,3.736h132.581c2.079,0,3.724-1.681,3.654-3.734
						l-2.038-44.082c-0.121-2.055-2.079-3.736-4.349-3.736H380.895c-2.269,0-4.217,1.682-4.326,3.736L374.793,635.644z"/>
				</g>
			</g>
			<g style="opacity:0.5;">
				<polygon style="fill:#3B3E4D;stroke:#3B3E4D;stroke-width:2.5691;stroke-linejoin:round;stroke-miterlimit:10;" points="
					477.327,592.056 490.102,592.056 490.404,598.615 477.456,598.615 				"/>
				<polygon style="fill:#3B3E4D;stroke:#3B3E4D;stroke-width:2.5691;stroke-linejoin:round;stroke-miterlimit:10;" points="
					439.428,592.056 452.233,592.056 452.326,598.616 439.351,598.616 				"/>
				<polygon style="fill:#3B3E4D;stroke:#3B3E4D;stroke-width:2.5691;stroke-linejoin:round;stroke-miterlimit:10;" points="
					458.375,592.056 471.173,592.056 471.368,598.615 458.4,598.616 				"/>
			</g>
			<g style="opacity:0.5;">
				<polygon style="fill:#3B3E4D;stroke:#3B3E4D;stroke-width:2.5691;stroke-linejoin:round;stroke-miterlimit:10;" points="
					477.547,603.427 490.612,603.427 490.918,610.837 477.672,610.837 				"/>
				<polygon style="fill:#3B3E4D;stroke:#3B3E4D;stroke-width:2.5691;stroke-linejoin:round;stroke-miterlimit:10;" points="
					458.417,603.431 471.508,603.427 471.707,610.837 458.439,610.837 				"/>
				<polygon style="fill:#3B3E4D;stroke:#3B3E4D;stroke-width:2.5691;stroke-linejoin:round;stroke-miterlimit:10;" points="
					439.294,603.431 452.391,603.431 452.489,610.837 439.212,610.837 				"/>
			</g>
			<g style="opacity:0.5;">
				<polygon style="fill:#3B3E4D;stroke:#3B3E4D;stroke-width:2.5691;stroke-linejoin:round;stroke-miterlimit:10;" points="
					439.16,615.651 452.548,615.651 452.638,623.061 439.086,623.061 				"/>
				<polygon style="fill:#3B3E4D;stroke:#3B3E4D;stroke-width:2.5691;stroke-linejoin:round;stroke-miterlimit:10;" points="
					477.747,615.649 491.105,615.649 491.377,623.061 477.853,623.061 				"/>
				<polygon style="fill:#3B3E4D;stroke:#3B3E4D;stroke-width:2.5691;stroke-linejoin:round;stroke-miterlimit:10;" points="
					458.452,615.651 471.831,615.649 472.012,623.061 458.467,623.061 				"/>
			</g>
			<g style="opacity:0.5;">
				<polygon style="fill:#3B3E4D;stroke:#3B3E4D;stroke-width:2.5691;stroke-linejoin:round;stroke-miterlimit:10;" points="
					458.475,627.872 472.121,627.87 472.278,635.153 458.482,635.153 				"/>
				<polygon style="fill:#3B3E4D;stroke:#3B3E4D;stroke-width:2.5691;stroke-linejoin:round;stroke-miterlimit:10;" points="
					477.916,627.87 491.542,627.87 491.774,635.153 477.999,635.153 				"/>
				<polygon style="fill:#3B3E4D;stroke:#3B3E4D;stroke-width:2.5691;stroke-linejoin:round;stroke-miterlimit:10;" points="
					439.039,627.872 452.694,627.872 452.776,635.153 438.972,635.153 				"/>
			</g>
			<g>
				<g>
					<path style="fill:#BEBABF;" d="M477.423,590.054c-0.009-0.414,0.353-0.757,0.807-0.757h11.166c0.452,0,0.836,0.339,0.857,0.753
						l0.232,5.057c0.019,0.414-0.331,0.752-0.778,0.752h-11.355c-0.447,0-0.821-0.34-0.828-0.754L477.423,590.054z"/>
				</g>
				<g>
					<path style="fill:#BEBABF;" d="M439.4,590.056c0.005-0.416,0.38-0.759,0.831-0.759h11.196c0.453,0,0.827,0.343,0.833,0.759
						l0.07,5.047c0.005,0.416-0.355,0.756-0.802,0.756h-11.386c-0.448,0-0.809-0.34-0.803-0.756L439.4,590.056z"/>
				</g>
				<g>
					<path style="fill:#BEBABF;" d="M458.407,590.056c0-0.416,0.369-0.759,0.821-0.759h11.187c0.454,0,0.834,0.343,0.847,0.757
						l0.151,5.051c0.011,0.414-0.343,0.754-0.791,0.754h-11.377c-0.447,0-0.813-0.34-0.814-0.756L458.407,590.056z"/>
				</g>
			</g>
			<g>
				<g>
					<path style="fill:#BEBABF;" d="M477.645,601.425c-0.009-0.413,0.348-0.754,0.791-0.754h11.489c0.441,0,0.82,0.34,0.838,0.752
						l0.247,5.906c0.016,0.414-0.33,0.75-0.767,0.75h-11.69c-0.439,0-0.801-0.336-0.809-0.752L477.645,601.425z"/>
				</g>
				<g>
					<path style="fill:#BEBABF;" d="M458.452,601.429c-0.001-0.417,0.36-0.757,0.803-0.757h11.512c0.444,0,0.815,0.34,0.828,0.753
						l0.161,5.902c0.012,0.416-0.34,0.752-0.777,0.752l-11.711,0.004c-0.439,0-0.798-0.34-0.798-0.758L458.452,601.429z"/>
				</g>
				<g>
					<path style="fill:#BEBABF;" d="M439.267,601.429c0.004-0.417,0.371-0.757,0.813-0.757h11.521c0.444,0,0.811,0.34,0.816,0.757
						l0.077,5.896c0.007,0.418-0.349,0.758-0.784,0.758h-11.722c-0.437,0-0.793-0.34-0.787-0.758L439.267,601.429z"/>
				</g>
			</g>
			<g>
				<g>
					<path style="fill:#BEBABF;" d="M439.133,613.65c0.005-0.418,0.364-0.757,0.798-0.757h11.845c0.435,0,0.794,0.339,0.799,0.757
						l0.072,5.898c0.006,0.415-0.342,0.756-0.772,0.756h-12.029c-0.428,0-0.776-0.341-0.771-0.756L439.133,613.65z"/>
				</g>
				<g>
					<path style="fill:#BEBABF;" d="M477.844,613.648c-0.005-0.416,0.345-0.755,0.78-0.755h11.814c0.435,0,0.802,0.339,0.82,0.751
						l0.217,5.907c0.016,0.413-0.322,0.752-0.752,0.752h-12c-0.431,0-0.786-0.341-0.79-0.756L477.844,613.648z"/>
				</g>
				<g>
					<path style="fill:#BEBABF;" d="M458.487,613.65c-0.002-0.418,0.354-0.757,0.788-0.757h11.836c0.435,0,0.799,0.339,0.808,0.755
						l0.146,5.899c0.011,0.415-0.332,0.756-0.761,0.756H459.28c-0.429,0-0.78-0.341-0.78-0.756L458.487,613.65z"/>
				</g>
			</g>
			<g>
				<g>
					<path style="fill:#BEBABF;" d="M458.508,625.872c0-0.416,0.349-0.754,0.774-0.754h12.137c0.428,0,0.781,0.337,0.791,0.753
						l0.125,5.771c0.01,0.416-0.327,0.754-0.746,0.754H459.28c-0.421,0-0.763-0.338-0.763-0.754L458.508,625.872z"/>
				</g>
				<g>
					<path style="fill:#B9C91F;" d="M478.014,625.871c-0.005-0.416,0.339-0.753,0.763-0.753h12.118c0.426,0,0.785,0.336,0.799,0.749
						l0.186,5.777c0.014,0.414-0.32,0.751-0.74,0.751h-12.287c-0.42,0-0.767-0.337-0.771-0.752L478.014,625.871z"/>
				</g>
				<g>
					<path style="fill:#BEBABF;" d="M439.011,625.872c0.005-0.416,0.354-0.754,0.781-0.754h12.146c0.426,0,0.777,0.338,0.782,0.754
						l0.064,5.77c0.004,0.416-0.336,0.754-0.755,0.754h-12.315c-0.421,0-0.761-0.338-0.756-0.754L439.011,625.872z"/>
				</g>
			</g>
			
				<polygon style="opacity:0.5;fill:#3B3E4D;stroke:#3B3E4D;stroke-width:2.5691;stroke-linejoin:round;stroke-miterlimit:10;" points="
				425.634,599.425 399.334,599.423 399.587,592.863 425.873,592.862 			"/>
			
				<polygon style="opacity:0.5;fill:#3B3E4D;stroke:#3B3E4D;stroke-width:2.5691;stroke-linejoin:round;stroke-miterlimit:10;" points="
				425.211,611.644 398.907,611.644 399.158,604.237 425.462,604.237 			"/>
			
				<polygon style="opacity:0.5;fill:#3B3E4D;stroke:#3B3E4D;stroke-width:2.5691;stroke-linejoin:round;stroke-miterlimit:10;" points="
				424.825,623.866 398.536,623.866 398.755,616.459 425.057,616.459 			"/>
			
				<polygon style="opacity:0.5;fill:#3B3E4D;stroke:#3B3E4D;stroke-width:2.5691;stroke-linejoin:round;stroke-miterlimit:10;" points="
				424.479,635.958 398.227,635.958 398.407,628.681 424.683,628.681 			"/>
			<g>
				<path style="fill:#BEBABF;" d="M425.576,595.104c-0.013,0.414-0.393,0.754-0.839,0.754h-24.781
					c-0.447,0-0.799-0.338-0.783-0.751l0.197-5.058c0.017-0.412,0.4-0.753,0.852-0.753h24.748c0.452,0,0.808,0.343,0.792,0.757
					L425.576,595.104z"/>
			</g>
			<g>
				<path style="fill:#BEBABF;" d="M425.15,607.328c-0.015,0.415-0.384,0.755-0.822,0.755h-24.82c-0.439,0-0.786-0.339-0.771-0.754
					l0.204-5.906c0.015-0.412,0.39-0.751,0.833-0.751h24.797c0.444,0,0.794,0.34,0.781,0.756L425.15,607.328z"/>
			</g>
			<g>
				<path style="fill:#BEBABF;" d="M424.758,619.548c-0.012,0.416-0.372,0.756-0.803,0.756h-24.839c-0.43,0-0.771-0.339-0.759-0.752
					l0.179-5.904c0.014-0.415,0.376-0.754,0.812-0.754h24.831c0.436,0,0.778,0.339,0.766,0.755L424.758,619.548z"/>
			</g>
			<g>
				<path style="fill:#FF6A5F;" d="M424.406,631.644c-0.012,0.415-0.365,0.752-0.785,0.752l-24.836,0.001
					c-0.421,0-0.756-0.337-0.747-0.752l0.147-5.777c0.012-0.413,0.368-0.749,0.794-0.749h24.841c0.425,0,0.763,0.338,0.749,0.753
					L424.406,631.644z"/>
			</g>
		</g>
		<rect x="226.86" y="648.956" style="fill:#777174;" width="439.333" height="23.023"/>
		<g>
			<line style="opacity:0.4;fill:#FFFFFF;" x1="232.458" y1="482.266" x2="412.314" y2="482.266"/>
			<path style="opacity:0.4;fill:#423F41;" d="M412.314,515.556c-82.783-3.009-179.856-13.088-179.856-13.088v-23.142h179.856
				V515.556z"/>
		</g>
		<path style="fill:#CEC9CF;" d="M232.458,497.089c0,0,134.104,13.926,221.485,13.926c87.384,0,204.208-13.928,204.208-13.928
			V130.964l-425.693,0.003V497.089z"/>
		<path style="opacity:0.5;fill:#FFFFFF;" d="M605.642,444.391c3.139,0,5.707-9.489,5.707-6.349v8.348
			c0,3.14-2.568,5.707-5.707,5.707l-319.408,0.001c-3.14,0-5.708-2.568-5.708-5.707v-8.35c0-3.139,2.568,6.35,5.708,6.35
			L605.642,444.391z"/>
		<g>
			<path style="fill:#777174;" d="M604.279,218.55c3.217,0,5.849,2.632,5.849,5.849v216.286c0,3.217-2.632,5.849-5.849,5.849
				l-316.683,0.001c-3.217,0-5.849-2.632-5.849-5.849V224.399c0-3.217,2.632-5.849,5.849-5.849L604.279,218.55z"/>
		</g>
		<g>
			
				<linearGradient id="SVGID_00000012473723419303863470000010785089764755782790_" gradientUnits="userSpaceOnUse" x1="-8965.6191" y1="519.2966" x2="-8810.5566" y2="73.6462" gradientTransform="matrix(-1 0 0 1 -8450.3535 0)">
				<stop  offset="0" style="stop-color:#1D9FC4"/>
				<stop  offset="1" style="stop-color:#3D8DC4"/>
			</linearGradient>
			<path style="fill:url(#SVGID_00000012473723419303863470000010785089764755782790_);" d="M286.298,425.964
				c0,3.928,3.213,7.141,7.141,7.141l304.998,0c3.928,0,7.142-3.213,7.142-7.141V214.137c0-3.928-3.214-7.142-7.142-7.142
				l-304.998,0.001c-3.928,0-7.141,3.213-7.141,7.141V425.964z"/>
			<path style="fill:none;stroke:#2F2F33;stroke-width:8;stroke-miterlimit:10;" d="M286.298,425.964
				c0,3.928,3.213,7.141,7.141,7.141l304.998,0c3.928,0,7.142-3.213,7.142-7.141V214.137c0-3.928-3.214-7.142-7.142-7.142
				l-304.998,0.001c-3.928,0-7.141,3.213-7.141,7.141V425.964z"/>
		</g>
		<g>
			<path style="fill:#FFFFFF;" d="M377.152,481.646c0,2.142,1.752,3.894,3.894,3.894h123.871c2.142,0,3.894-1.752,3.894-3.894
				v-4.045c0-2.142-1.752-3.894-3.894-3.894H381.046c-2.142,0-3.894,1.752-3.894,3.894V481.646z"/>
		</g>
		<g style="opacity:0.2;">
			<polygon style="fill:#FFFFFF;" points="472.43,427.746 377.637,427.746 328.267,259.286 334.567,212.58 408.071,212.58 			"/>
		</g>
		<g style="opacity:0.2;">
			<polygon style="fill:#FFFFFF;" points="547.93,427.746 516.861,427.746 452.505,212.58 483.571,212.58 			"/>
		</g>
		<g>
			<g>
				<rect x="263.675" y="533.513" style="fill:#A59FA2;" width="93.34" height="12.429"/>
				<rect x="266.615" y="539.32" style="fill:#4A4D59;" width="87.459" height="4.313"/>
			</g>
		</g>
		<polygon style="opacity:0.8;fill:#FFFFFF;" points="266.615,543.555 263.675,547.6 357.015,547.6 354.074,543.555 		"/>
		<g>
			<path style="opacity:0.4;fill:#705D57;" d="M378.779,539.454c0-4.572-3.705-8.277-8.276-8.277c-4.569,0-8.277,3.705-8.277,8.277
				c0,4.571,3.708,8.277,8.277,8.277C375.074,547.732,378.779,544.024,378.779,539.454z"/>
			<path style="fill:#DCE523;" d="M375.57,539.454c0-2.799-2.269-5.068-5.067-5.068c-2.797,0-5.067,2.269-5.067,5.068
				c0,2.799,2.271,5.065,5.067,5.065C373.302,544.519,375.57,542.249,375.57,539.454z"/>
			<path style="fill:#FFFFFF;" d="M372.858,538.167c0-0.826-0.674-1.498-1.498-1.498c-0.83,0-1.501,0.672-1.501,1.498
				c0,0.828,0.671,1.5,1.501,1.5C372.185,539.667,372.858,538.995,372.858,538.167z"/>
		</g>
		<g>
			<path style="fill:#FFFFFF;" d="M367.685,247.532v7.507v4.741h5.441v33.773H403.2c-1.624,2.435-4.734,7.409-5.688,11.079
				l-0.244,0.946l0.695,0.685c0.817,0.801,2.102,1.755,3.67,2.482c0.083,0.062,0.167,0.122,0.251,0.183l-0.051,0.025
				c0.214,0.45,0.935,1.963,1.861,3.89c-0.061,0.347-0.237,0.696-0.595,1.053c-0.541,0.541-1.096,1.072-1.682,1.565
				c-1.302,1.098-2.359,2.405-1.692,4.158c0.986,2.583,1.954,5.236,3.398,7.57c2.689,4.352,6.688,7.577,10.423,10.993
				c0.331,0.303,0.57,0.584,0.736,0.897h-0.16c0,1.098,0.109,6.872,2.27,12.847c1.502,4.148,3.675,7.461,6.41,9.821v13.96h3.386
				v-11.676c0.643,0.328,1.307,0.616,1.991,0.859l1.138-3.188c-11.674-4.155-11.81-21.869-11.81-22.622h-0.103l1.372-0.492
				c3.258-1.79,4.314-4.072,3.329-7.664c-0.439-1.597-1.265-3.089-1.922-4.647c0.211-0.28,0.486-0.642,0.745-0.982
				c0.698,0.575,1.225,1.008,1.803,1.483c0.405-0.509,0.742-0.934,1.12-1.41c-0.872-0.735-1.376-1.516-1.578-2.368
				c1.546-3.263,1.776-7.797,0.968-10.304c-0.483-1.497-1.316-3.181-2.013-4.465c1.626-0.46,3.784-1.308,5.579-2.842
				c2.042-1.74,3.018-3.561,3.48-4.795c2.734-0.121,8.918-1.07,14.666-6.744l-0.083-0.083c0.221-0.087,0.446-0.16,0.668-0.214h8.857
				v9.532c-9.771,6.285-16.836,14.617-18.53,21.899c-1.296,5.571-1.186,13.852-1.111,19.333c0.014,1.064,0.025,1.982,0.025,2.748
				h3.387c0-0.788-0.014-1.717-0.027-2.794c-0.071-5.316-0.179-13.351,1.024-18.521c1.543-6.637,8.371-14.416,17.818-20.297
				c0.498-0.31,0.798-0.853,0.798-1.437v-21.439c0-3.083,0.207-7.585,1.188-11.537c1.209-4.87,3.174-7.339,5.843-7.339
				c1.128,0,2.087,0.428,2.935,1.311c3.616,3.774,3.996,14.283,3.837,18.014c-0.001,0.025-0.002,0.05-0.002,0.074v27.73h3.386
				v-17.275h4.427v35.112c0,7.872-0.654,14.973-8.683,22.174c-6.43,5.771-6.426,9.271-6.421,14.564l0.001,10.914h3.386V365.4
				c-0.008-5-0.009-7.281,5.295-12.039c9.057-8.125,9.808-16.318,9.808-24.696v-35.112h38.111V259.78h6.41v-4.742v-7.506H367.685z
				 M474.968,287.479h25.932h1.852l-0.026-2.02c0-5.666,4.611-10.31,10.279-10.351l1.813-0.013v-20.057h2.418v34.858l-42.268,0
				V287.479z M455.685,270.224c-1.066,4.285-1.287,9.083-1.287,12.353v1.247l-59.495-0.001c-0.744-6.332-5.74-11.399-12.044-12.247
				v-16.537l128.303,0v16.544c-6.28,0.867-11.255,5.931-11.999,12.24l-24.194,0.001v-0.691c0.015-0.423,0.13-3.857-0.32-7.923
				c-0.655-5.917-2.153-10.135-4.454-12.537c-1.5-1.565-3.31-2.358-5.381-2.358C459.302,260.315,456.806,265.704,455.685,270.224z
				 M420.085,318.688c-0.356,2.035-1.092,3.691-1.971,4.429c-1.01,0.847-2.417,1.221-3.762,0.999
				c-0.855-0.142-1.571-0.53-1.863-1.012c-0.479-0.794-3.717-7.49-6.365-13.018c0.265-0.066,0.529-0.134,0.787-0.21
				c1.418-0.06,2.894-0.429,4.359-1.26c5.995-3.402,11.292-13.937,11.842-15.06h16.781c-0.989,0.711-1.982,1.355-2.991,1.912
				c-4.174,1.991-7.548,1.759-7.743,1.744l-1.617-0.165l-0.209,1.614c-0.014,0.086-0.358,2.141-2.721,4.158
				c-2.499,2.129-6.16,2.551-6.194,2.555l-2.694,0.281l1.435,2.298c0.021,0.033,2.006,3.229,2.823,5.67
				c0.138,0.621,0.24,1.249,0.31,1.882C420.339,316.41,420.289,317.511,420.085,318.688z M405.266,316.111
				c1.873,3.884,3.885,8.012,4.33,8.746c0.814,1.342,2.347,2.29,4.204,2.598c0.434,0.071,0.873,0.106,1.31,0.106
				c0.514,0,1.025-0.05,1.527-0.145c2.355,1.261,3.595,5.082,2.666,7.072c-0.84,1.798-3.278,2.27-4.857,0.841
				c-1.699-1.541-3.199-3.307-4.926-4.813c-3.462-3.02-5.393-6.95-6.862-11.162c-0.147-0.424,0.12-1.181,0.454-1.542
				C403.689,317.189,404.441,316.727,405.266,316.111z M406.128,295.268c0.486-0.555,0.998-1.092,1.537-1.608
				c0.038-0.033,0.075-0.07,0.113-0.105h10.914c-2.023,4.729-4.603,8.906-8.843,11.696c-0.718,0.472-1.478,0.879-2.268,1.162
				c-2.785,0.514-5.281-1.004-6.484-1.923C402.209,301.328,404.797,297.257,406.128,295.268z M376.783,255.039h2.417v20.062
				l1.823,0.006c5.689,0.021,10.316,4.665,10.316,10.354l-0.005,0.168l-0.021,1.851h63.084v2.418l-77.614,0V255.039z"/>
			<g>
				<path style="fill:#FFFFFF;" d="M385.008,404.601c-0.526,0.259-1.711,0.536-3.252,0.536c-4.381,0-6.637-2.679-6.637-6.227
					c0-4.25,3.084-6.615,6.918-6.615c1.485,0,2.613,0.296,3.121,0.554l-0.583,2.236c-0.583-0.24-1.391-0.462-2.406-0.462
					c-2.274,0-4.042,1.349-4.042,4.121c0,2.495,1.504,4.065,4.06,4.065c0.865,0,1.824-0.185,2.388-0.406L385.008,404.601z"/>
				<path style="fill:#FFFFFF;" d="M392.207,404.952l-0.17-0.905h-0.056c-0.602,0.721-1.542,1.108-2.632,1.108
					c-1.861,0-2.971-1.33-2.971-2.772c0-2.347,2.144-3.474,5.396-3.456v-0.129c0-0.48-0.263-1.164-1.673-1.164
					c-0.94,0-1.937,0.314-2.538,0.684l-0.526-1.811c0.639-0.351,1.898-0.794,3.572-0.794c3.064,0,4.041,1.774,4.041,3.899v3.142
					c0,0.868,0.038,1.7,0.132,2.199H392.207z M391.868,400.684c-1.504-0.019-2.669,0.333-2.669,1.423
					c0,0.721,0.488,1.072,1.128,1.072c0.714,0,1.297-0.462,1.485-1.035c0.037-0.148,0.056-0.314,0.056-0.48V400.684z"/>
				<path style="fill:#FFFFFF;" d="M397.263,402.495c0.526,0.314,1.616,0.684,2.463,0.684c0.864,0,1.222-0.295,1.222-0.758
					c0-0.462-0.282-0.684-1.354-1.035c-1.898-0.628-2.632-1.645-2.613-2.716c0-1.682,1.467-2.957,3.741-2.957
					c1.071,0,2.03,0.24,2.595,0.518l-0.508,1.94c-0.414-0.222-1.203-0.517-1.993-0.517c-0.695,0-1.09,0.277-1.09,0.739
					c0,0.425,0.356,0.647,1.485,1.035c1.748,0.591,2.48,1.46,2.5,2.79c0,1.682-1.353,2.919-3.985,2.919
					c-1.203,0-2.274-0.258-2.971-0.628L397.263,402.495z"/>
				<path style="fill:#FFFFFF;" d="M405.815,391.832h2.857v5.155h0.038c0.301-0.388,0.676-0.684,1.127-0.924
					c0.414-0.222,0.959-0.351,1.485-0.351c1.823,0,3.215,1.238,3.215,3.955v5.285h-2.857v-4.971c0-1.183-0.413-1.996-1.485-1.996
					c-0.752,0-1.222,0.48-1.429,0.979c-0.075,0.185-0.094,0.425-0.094,0.628v5.359h-2.857V391.832z"/>
				<path style="fill:#FFFFFF;" d="M423.353,395.916l0.732,3.696c0.189,0.942,0.377,1.94,0.527,2.975h0.037
					c0.188-1.035,0.451-2.069,0.677-2.957l0.978-3.714h2.256l0.921,3.604c0.245,1.016,0.489,2.033,0.677,3.067h0.038
					c0.132-1.035,0.319-2.051,0.526-3.086l0.789-3.585h2.801l-2.819,9.036h-2.689l-0.864-3.178c-0.226-0.887-0.396-1.7-0.583-2.809
					h-0.037c-0.17,1.127-0.357,1.958-0.602,2.809l-0.922,3.178h-2.688l-2.67-9.036H423.353z"/>
				<path style="fill:#FFFFFF;" d="M438.974,393.403c0,0.776-0.602,1.404-1.541,1.404c-0.902,0-1.504-0.628-1.485-1.404
					c-0.019-0.813,0.583-1.423,1.504-1.423S438.955,392.59,438.974,393.403z M436.022,404.952v-9.036h2.857v9.036H436.022z"/>
				<path style="fill:#FFFFFF;" d="M444.744,393.329v2.587h2.049v2.07h-2.049v3.27c0,1.09,0.264,1.589,1.128,1.589
					c0.357,0,0.64-0.037,0.847-0.074l0.018,2.125c-0.376,0.148-1.053,0.24-1.861,0.24c-0.921,0-1.692-0.314-2.144-0.776
					c-0.525-0.536-0.789-1.404-0.789-2.679v-3.696h-1.222v-2.07h1.222v-1.958L444.744,393.329z"/>
				<path style="fill:#FFFFFF;" d="M448.823,391.832h2.858v5.155h0.037c0.301-0.388,0.677-0.684,1.128-0.924
					c0.414-0.222,0.959-0.351,1.485-0.351c1.823,0,3.215,1.238,3.215,3.955v5.285h-2.857v-4.971c0-1.183-0.414-1.996-1.485-1.996
					c-0.752,0-1.222,0.48-1.429,0.979c-0.075,0.185-0.094,0.425-0.094,0.628v5.359h-2.858V391.832z"/>
				<path style="fill:#FFFFFF;" d="M469.125,391.832v10.422c0,1.016,0.037,2.088,0.075,2.698h-2.538l-0.132-1.33h-0.037
					c-0.583,1.017-1.692,1.534-2.876,1.534c-2.182,0-3.93-1.829-3.93-4.638c-0.019-3.049,1.918-4.805,4.117-4.805
					c1.128,0,2.012,0.388,2.425,1.017h0.038v-4.897H469.125z M466.268,399.741c0-0.148-0.02-0.351-0.038-0.499
					c-0.169-0.757-0.789-1.386-1.673-1.386c-1.297,0-1.974,1.146-1.974,2.568c0,1.534,0.77,2.495,1.955,2.495
					c0.827,0,1.485-0.554,1.654-1.349c0.056-0.204,0.075-0.407,0.075-0.647V399.741z"/>
				<path style="fill:#FFFFFF;" d="M471.793,398.891c0-1.331-0.037-2.199-0.075-2.975h2.463l0.094,1.663h0.075
					c0.47-1.312,1.598-1.866,2.482-1.866c0.263,0,0.395,0,0.602,0.037v2.642c-0.207-0.037-0.451-0.074-0.771-0.074
					c-1.053,0-1.768,0.554-1.955,1.423c-0.038,0.185-0.057,0.407-0.057,0.628v4.582h-2.857V398.891z"/>
				<path style="fill:#FFFFFF;" d="M484.331,404.952l-0.169-0.905h-0.057c-0.602,0.721-1.541,1.108-2.632,1.108
					c-1.86,0-2.97-1.33-2.97-2.772c0-2.347,2.143-3.474,5.395-3.456v-0.129c0-0.48-0.263-1.164-1.673-1.164
					c-0.939,0-1.936,0.314-2.538,0.684l-0.525-1.811c0.639-0.351,1.898-0.794,3.571-0.794c3.064,0,4.042,1.774,4.042,3.899v3.142
					c0,0.868,0.037,1.7,0.131,2.199H484.331z M483.993,400.684c-1.504-0.019-2.67,0.333-2.67,1.423c0,0.721,0.489,1.072,1.128,1.072
					c0.715,0,1.297-0.462,1.485-1.035c0.038-0.148,0.057-0.314,0.057-0.48V400.684z"/>
				<path style="fill:#FFFFFF;" d="M491.154,395.916l0.733,3.696c0.189,0.942,0.376,1.94,0.526,2.975h0.038
					c0.188-1.035,0.451-2.069,0.677-2.957l0.978-3.714h2.256l0.921,3.604c0.244,1.016,0.488,2.033,0.677,3.067h0.038
					c0.131-1.035,0.319-2.051,0.525-3.086l0.79-3.585h2.801l-2.819,9.036h-2.689l-0.864-3.178c-0.227-0.887-0.396-1.7-0.583-2.809
					h-0.038c-0.169,1.127-0.357,1.958-0.602,2.809l-0.921,3.178h-2.688l-2.669-9.036H491.154z"/>
				<path style="fill:#FFFFFF;" d="M508.918,404.952l-0.169-0.905h-0.056c-0.602,0.721-1.542,1.108-2.633,1.108
					c-1.86,0-2.97-1.33-2.97-2.772c0-2.347,2.144-3.474,5.396-3.456v-0.129c0-0.48-0.264-1.164-1.674-1.164
					c-0.94,0-1.935,0.314-2.537,0.684l-0.526-1.811c0.639-0.351,1.898-0.794,3.571-0.794c3.065,0,4.042,1.774,4.042,3.899v3.142
					c0,0.868,0.038,1.7,0.132,2.199H508.918z M508.58,400.684c-1.504-0.019-2.67,0.333-2.67,1.423c0,0.721,0.489,1.072,1.129,1.072
					c0.714,0,1.297-0.462,1.484-1.035c0.038-0.148,0.057-0.314,0.057-0.48V400.684z"/>
				<path style="fill:#FFFFFF;" d="M513.993,391.832h2.857v13.12h-2.857V391.832z"/>
			</g>
		</g>
		<path style="opacity:0.3;fill:#423F41;" d="M350.712,692.885l27.649,55.404h197.473l-27.65-50.259H350.712"/>
		<defs>
			<filter id="Adobe_OpacityMaskFilter" filterUnits="userSpaceOnUse" x="349.716" y="663.209" width="199.468" height="68.44">
				<feColorMatrix  type="matrix" values="1 0 0 0 0  0 1 0 0 0  0 0 1 0 0  0 0 0 1 0"/>
			</filter>
		</defs>
		
			<mask maskUnits="userSpaceOnUse" x="349.716" y="663.209" width="199.468" height="68.44" id="SVGID_00000151523592583633431400000000510644263863823288_">
			<g style="filter:url(#Adobe_OpacityMaskFilter);">
				<rect x="324.002" y="663.013" style="fill:#FFFFFF;" width="256.377" height="114.085"/>
				<rect x="319.3" y="649.693" width="261.079" height="45.815"/>
			</g>
		</mask>
		<g style="mask:url(#SVGID_00000151523592583633431400000000510644263863823288_);">
			<path style="fill:#EDDFB9;" d="M549.184,679.908l-199.468,0.001v51.74h199.468V679.908"/>
			<g>
				<g style="enable-background:new    ;">
					<g>
						<path style="fill:#B59B6D;" d="M431.747,669.129c5.105-2.878,11.106-4.54,17.522-4.54c6.415,0,12.414,1.662,17.52,4.54h74.15
							v51.179h-71.925c-5.546,3.714-12.372,5.91-19.745,5.91c-7.377,0-14.201-2.196-19.746-5.91h-71.557V669.13L431.747,669.129
							 M544.858,665.089H354.67l-0.313,61.565l190.186-0.001v-63.444"/>
						<path style="fill:#A9A769;" d="M510.639,684.497c-5.123,0-9.276,3.406-9.276,7.615c0,4.202,4.153,7.611,9.276,7.611
							c5.125,0,9.279-3.409,9.279-7.611C519.918,687.903,515.764,684.497,510.639,684.497"/>
						<path style="fill:#C5B47E;" d="M388.093,680.69c-6.072,0-10.995,4.038-10.995,9.022c0,4.983,4.923,9.025,10.995,9.025
							c6.074,0,10.998-4.042,10.998-9.025S394.167,680.69,388.093,680.69"/>
						<polyline style="fill:#C5B47E;" points="399.776,702.737 376.412,702.735 376.412,705.45 399.776,705.45 399.776,702.737 
													"/>
						<polyline style="fill:#D6C899;" points="412.147,674.401 364.554,674.401 364.554,677.112 412.147,677.112 412.147,674.401 
													"/>
						<polyline style="fill:#D6C899;" points="534.644,678.63 484.99,678.63 484.99,681.342 534.644,681.342 534.644,678.63 						
							"/>
						<polyline style="fill:#D6C899;" points="524.335,672.991 495.301,672.991 495.301,675.702 524.335,675.702 524.335,672.991 
													"/>
						<polyline style="fill:#D6C899;" points="525.192,709.646 496.155,709.646 496.155,712.358 525.192,712.358 525.192,709.646 
													"/>
						<polyline style="fill:#C5B47E;" points="396.685,710.07 380.017,710.07 380.017,712.782 396.685,712.782 396.685,710.07 
													"/>
						<polyline style="fill:#C5B47E;" points="522.442,702.89 499.078,702.89 499.078,705.3 522.442,705.3 522.442,702.89 						"/>
						<path style="fill:#BAA878;" d="M449.27,666.7c-17.092,0-30.999,12.877-30.999,28.703c0,8.787,4.289,16.665,11.024,21.934
							c0.087-0.161,0.077-0.231,0.158-0.373c0.509-0.893,1.067-1.75,1.897-2.539c-0.321-0.041-0.57-0.104-0.811-0.104
							c-0.011,0-0.02,0-0.03,0c-0.016,0.002-0.034,0.002-0.049,0.002c-0.576,0-0.929-0.279-1.231-0.642
							c-0.819-0.978-1.318-2.041-1.357-3.241c-0.004-0.107-0.01-0.216-0.014-0.324c0-0.007-0.022-0.015-0.066-0.039
							c-0.384,0.309-0.791,0.606-1.087,1.018c-0.06-0.621-0.102-1.248-0.184-1.868c-0.125-0.974-0.399-1.898-1.089-2.736
							c-0.347-0.424-0.319-0.982-0.417-1.485c-0.209-1.057-0.687-2.051-0.942-3.096c-0.054-0.223,0.038-0.488-0.234-0.661
							c0-0.136,0-0.269,0-0.405c0.085-0.324,0.085-0.647,0-0.973c0-0.158,0-0.322,0-0.486c0.174-0.176,0.083-0.393,0.127-0.588
							c0.2-0.906,0.674-1.716,1.266-2.49c0.751-0.983,1.651-1.883,2.447-2.843c0.636-0.768,1.082-1.577,1.272-2.513
							c0.596-2.875,1.46-5.709,2.117-8.576c0.176-0.777,0.686-1.485,1.128-2.197c1.209-1.948,2.727-3.717,4.628-5.263
							c1.005-0.817,2.15-1.468,3.386-2.015c2.413-1.066,4.963-1.795,7.705-2.024c0.469-0.04,0.95,0.006,1.412-0.104
							c0.128,0,0.26,0,0.395,0c0.163,0.034,0.329,0.052,0.492,0.052c0.162,0,0.33-0.018,0.496-0.052c0.132,0,0.261,0,0.394,0
							c0.509,0.159,1.067,0.111,1.58,0.242c0,0.001,0,0.001,0,0.001c1.289,0.15,2.558,0.373,3.776,0.754
							c1.03,0.317,2.068,0.626,3.059,1.011c1.8,0.699,3.299,1.747,4.518,3.017c2.645,2.747,4.556,5.795,5.372,9.264
							c0.097,0.404,0.303,0.766,0.546,1.123c1.398,2.037,2.901,4.016,4.754,5.8c0.698,0.67,1.258,1.417,1.726,2.212
							c0.56,0.945,0.797,1.904,0.415,2.932c-0.079,0.211-0.055,0.418,0,0.634c0.157,0.616,0.048,1.212-0.303,1.771
							c-0.306,0.477-0.634,0.945-0.952,1.418c-0.883,1.302-0.722,2.392,0.503,3.479c0.607,0.539,1.319,0.977,2.032,1.41
							c0.005,0.002,0.006,0.006,0.009,0.006c1.371-3.238,2.125-6.76,2.125-10.443C480.264,679.576,466.36,666.7,449.27,666.7"/>
						<path style="fill:#AD9662;" d="M455.46,706.849c-0.077,0.049-0.158,0.099-0.247,0.133c0.027,0.014,0.048,0.029,0.061,0.051
							C455.318,706.956,455.384,706.899,455.46,706.849"/>
						<path style="fill:#D6C48E;" d="M439.963,705.422c-0.07,0-0.156-0.03-0.263-0.101c-0.714-0.467-1.479-0.887-2.039-1.5
							c-0.064-0.068-0.198-0.139-0.132-0.24c0.04-0.059,0.108-0.08,0.179-0.08c0.06,0,0.126,0.017,0.177,0.039
							c0.596,0.245,1.242,0.382,1.879,0.542c0.373,0.095,0.62,0.355,0.573,0.716c0.018,0.154-0.005,0.301-0.101,0.431
							C440.149,705.345,440.074,705.422,439.963,705.422 M436.964,701.845c-0.01-0.039-0.021-0.076-0.026-0.113
							c0.532-0.264,1.058-0.552,1.614-0.785c0.065-0.028,0.131-0.039,0.19-0.039c0.247,0,0.459,0.185,0.645,0.292
							c0.193,0.108,0.368,0.162,0.543,0.162c0.176,0,0.347-0.054,0.527-0.16c0.213-0.125,0.423-0.179,0.639-0.179
							c0.226,0,0.452,0.059,0.694,0.163c1.07,0.452,2.177,0.851,3.391,1.001c-0.348,0.015-0.694,0.024-1.042,0.024
							c-0.637,0-1.271-0.032-1.902-0.123c-0.576-0.081-1.171-0.1-1.759-0.105c-0.933-0.009-1.849-0.179-2.78-0.179
							C437.453,701.804,437.211,701.815,436.964,701.845 M446.939,687.581c0.121,0,0.226-0.074,0.353-0.178
							c0.329-0.272,0.669-0.436,1.089-0.436c0.191,0,0.397,0.034,0.627,0.109c0.939,0.313,1.835,0.648,2.572,1.229
							c0.153,0.117,0.303,0.244,0.174,0.417c-0.086,0.11-0.198,0.179-0.339,0.179c-0.066,0-0.139-0.017-0.213-0.051
							c-0.074-0.035-0.13-0.05-0.171-0.05c-0.113,0-0.12,0.111-0.12,0.237c-0.007,0.451-0.29,0.727-0.806,0.854
							c-0.171,0.042-0.344,0.095-0.517,0.142c-0.152,0.043-0.307,0.061-0.45,0.061c-0.753,0-1.31-0.542-1.149-1.244
							c0.079-0.339,0.095-0.685,0.305-1.004c-0.045-0.021-0.088-0.046-0.131-0.068c-0.29,0.254-0.58,0.506-0.872,0.758
							c-0.088,0.073-0.174,0.129-0.252,0.129c-0.072,0-0.133-0.049-0.173-0.175c-0.149-0.438-0.504-0.773-0.848-1.137
							c0.09-0.035,0.173-0.052,0.252-0.052c0.155,0,0.285,0.061,0.385,0.147C446.765,687.542,446.856,687.581,446.939,687.581
							 M433.483,685.756c0.07,0,0.169-0.041,0.318-0.112c0.226-0.111,0.482-0.208,0.645-0.364c0.165-0.165,0.341-0.232,0.517-0.232
							c0.164,0,0.326,0.056,0.487,0.143c1.503,0.811,3.257,0.925,4.944,1.224c0.314,0.055,0.362,0.165,0.299,0.394
							c-0.257,0.888-0.524,1.776-0.743,2.67c-0.406,1.645-0.708,3.308-1.188,4.938c-0.211,0.705-0.409,1.414-0.611,2.119
							c-0.164,0.559,0.09,0.895,0.765,1.044c1.296,0.286,2.611,0.502,3.936,0.673c0.253,0.033,0.507,0.084,0.758,0.129
							c-0.001,0.037-0.004,0.072-0.008,0.108c-0.152-0.004-0.306-0.006-0.457-0.006c-0.236,0-0.472,0.003-0.707,0.006
							c-0.226,0.002-0.452,0.004-0.682,0.004c-0.426,0-0.855-0.01-1.283-0.049c-0.653-0.056-1.301-0.1-1.954-0.151
							c-0.567-0.046-0.999-0.208-1.296-0.61c-0.06-0.078-0.14-0.151-0.228-0.211c-0.928-0.648-0.765-1.429-0.485-2.268
							c0.4-1.203,0.736-2.424,1.094-3.639c0.091-0.305,0.452-0.605,0.188-0.914c-0.231-0.27-0.693-0.193-1.042-0.29
							c-0.471-0.136-0.728-0.45-0.846-0.836c-0.032-0.09-0.025-0.192-0.067-0.276c-0.057-0.1,0.029-0.277-0.176-0.301
							c-0.011-0.002-0.02-0.003-0.027-0.003c-0.142,0-0.172,0.13-0.231,0.214c-0.091,0.143-0.221,0.192-0.36,0.192
							c-0.093,0-0.188-0.022-0.279-0.058c-0.246-0.09-0.225-0.336-0.115-0.461c0.469-0.525,0.888-1.125,1.775-1.25
							c0.095-0.013,0.18-0.019,0.267-0.019c0.493,0,0.929,0.194,1.358,0.388c0.109,0.051,0.2,0.084,0.277,0.084
							c0.104,0,0.19-0.057,0.274-0.209c0.15-0.263,0.126-0.376-0.233-0.452c-0.473-0.098-0.803-0.41-1.202-0.616
							c-0.665-0.342-1.334-0.569-2.01-0.569c-0.53,0-1.069,0.142-1.617,0.481c-0.079,0.048-0.155,0.069-0.221,0.069
							c-0.167,0-0.29-0.127-0.344-0.275c-0.083-0.229-0.125-0.477-0.125-0.714c-0.003-0.243,0.287-0.256,0.489-0.34
							C433.343,685.65,433.37,685.756,433.483,685.756 M444.883,686.02c-0.236,0-0.464-0.034-0.65-0.185
							c-0.071-0.057-0.142-0.12-0.12-0.208c0.031-0.101,0.143-0.087,0.237-0.104c1.476-0.241,2.953-0.485,4.424-0.728
							c0.325-0.053,0.653-0.084,0.96-0.174c0.125-0.035,0.242-0.051,0.356-0.051c0.299,0,0.563,0.111,0.834,0.258
							c0.691,0.366,1.301,0.817,1.952,1.223c0.242,0.15,0.464,0.34,0.274,0.616c-0.084,0.128-0.195,0.165-0.32,0.165
							c-0.119,0-0.253-0.037-0.375-0.063c-0.826-0.17-1.658-0.327-2.359-0.761c-0.282-0.173-0.592-0.239-0.922-0.239
							c-0.157,0-0.319,0.014-0.488,0.041c-0.689,0.105-1.402,0.031-2.104,0.1c-0.518,0.053-1.044,0.074-1.564,0.106
							C444.971,686.019,444.927,686.02,444.883,686.02 M452.685,671.015c0.002,0.006,0.002,0.013,0.002,0.019
							c0.079,0.007,0.154,0.016,0.231,0.026c1.99,0.243,2.675,1.078,2.328,1.894c0,0-5.265,2.976-5.401,2.994
							c-0.012,0.003-0.089,0.003-0.218,0.003c-1.692,0-12.568-0.179-9.78-2.199c-2.747,1.806-4.804,4.011-5.844,6.809
							c-0.224,0.604-0.542,1.195-0.724,1.802c-0.208,0.69-0.431,1.384-0.506,2.099c-0.162,1.48-0.314,2.957-0.627,4.42
							c-0.13,0.602-0.11,1.212-0.014,1.813c0.064,0.422,0.057,0.832-0.131,1.238c-0.502,1.072-0.691,2.201-0.776,3.33
							c-0.071,0.883,0.16,1.771,0.292,2.652c0.161,1.084,0.269,2.172,0.364,3.262c0.038,0.475,0.154,0.928,0.398,1.367
							c0.711,1.277,1.396,2.564,2.302,3.762c1.234,1.636,2.733,3.027,4.945,3.82c1.001,0.357,1.997,0.59,3.037,0.59
							c0.432,0,0.871-0.039,1.32-0.125c2.416-0.47,4.849-0.895,7.126-1.747c1.202-0.447,2.336-0.999,3.425-1.603
							c0.214-0.119,0.414-0.271,0.697-0.285c0.029,0.005,0.057,0.014,0.081,0.025c0.089-0.034,0.17-0.084,0.247-0.133
							c-0.076,0.051-0.142,0.107-0.186,0.184c0.012,0.015,0.021,0.03,0.024,0.047c-0.069,0.325-0.371,0.52-0.684,0.65
							c-2.093,0.867-3.953,2.039-5.922,3.058c-0.988,0.511-2.058,0.854-3.148,1.159c-0.22,0.063-0.447,0.106-0.646,0.197
							c-0.889,0.4-1.829,0.493-2.789,0.493c-0.318,0-0.642-0.011-0.965-0.024c-0.501-0.016-0.961-0.179-1.432-0.307
							c-0.11-0.027-0.207-0.043-0.288-0.043c-0.259,0-0.368,0.148-0.348,0.462c0.011,0.136,0.058,0.267,0.1,0.396
							c0.283,0.865,0.444,1.742,0.405,2.643c-0.021,0.632,0.104,1.258,0.482,1.801c0.358,0.513,0.472,1,0.392,1.473
							c0.5,0.549,2.268,0.972,4.559,0.972c2.298,0,5.116-0.423,7.715-1.565c0.367-0.279,0.753-0.539,1.163-0.785
							c2.858-1.722,4.853-3.976,6.034-6.72c0.314-0.722,0.699-1.424,0.918-2.175c0.143-0.496,0.236-0.998,0.239-1.513
							c0.018-1.188-0.018-2.374-0.106-3.558c-0.021-0.258-0.088-0.519-0.158-0.907c-0.355,0.502-0.574,0.936-0.922,1.298
							c-0.008,0.074-0.03,0.185-0.106,0.185c-0.008,0-0.015-0.002-0.022-0.002c-0.124-0.034-0.055-0.125,0.028-0.183
							c0.051-0.533,0.363-1.004,0.632-1.471c0.961-1.68,0.819-3.369,0.218-5.08c-0.013-0.035-0.013-0.073-0.024-0.144
							c0.393,0.247,0.739,0.487,1.109,0.7c0.161,0.092,0.362,0.132,0.572,0.132c0.418,0,0.873-0.169,1.078-0.444
							c0.07-0.094,0.061-0.171,0.018-0.266c-0.473-1.031-0.93-2.065-1.402-3.091c-0.058-0.13-0.099-0.288-0.303-0.288
							c-0.04,0-0.086,0.006-0.135,0.018c-0.031,0.007-0.054,0.011-0.075,0.011c-0.128,0-0.092-0.14-0.108-0.219
							c-0.064-0.438-0.059-0.888-0.209-1.303c-0.311-0.844-0.766-1.646-1.555-2.268c-0.522-0.413-0.893-0.861-0.948-1.456
							c-0.048-0.475-0.039-0.986,0.384-1.331c0.994-0.81,1-1.736,0.626-2.731c-0.152-0.404-0.374-0.793-0.604-1.26
							c0.462,0.193,0.598,0.51,0.751,0.779c0.623,1.091,1.083,2.209,0.983,3.458c-0.084,1.084,0.413,2.024,1.387,2.786
							c0.575,0.446,1.096,0.92,1.414,1.537c0.216,0.412,0.194,0.85,0.219,1.266c0.087,1.374,0.625,2.533,1.828,3.548
							c0.916,0.782,2.017,1.364,2.965,2.101c1.055,0.818,1.805,1.773,1.521,2.995c-0.197,0.86-0.788,1.622-1.46,2.313
							c-0.578,0.594-1.255,1.072-2.053,1.482c-1.228,0.632-1.623,2.262-0.991,3.43c0.541,1.01,0.946,2.074,1.833,2.935
							c0.061,0.057,0.129,0.144,0.049,0.221c0,0,2.013,1.667,5.225,1.667c0.009,0,0.011,0,0.015,0
							c2.267-2.435,4.098-5.227,5.385-8.268c-0.003,0-0.004-0.004-0.009-0.006c-0.713-0.434-1.425-0.871-2.032-1.41
							c-1.225-1.088-1.386-2.178-0.503-3.479c0.318-0.473,0.646-0.94,0.952-1.418c0.351-0.56,0.46-1.155,0.303-1.771
							c-0.055-0.216-0.079-0.423,0-0.634c0.382-1.027,0.146-1.986-0.415-2.932c-0.468-0.795-1.028-1.542-1.726-2.212
							c-1.853-1.784-3.356-3.763-4.754-5.8c-0.243-0.357-0.449-0.719-0.546-1.123c-0.816-3.469-2.728-6.517-5.372-9.264
							c-1.219-1.269-2.718-2.317-4.518-3.017c-0.99-0.385-2.029-0.693-3.059-1.011C455.242,671.388,453.974,671.165,452.685,671.015
							"/>
						<path style="fill:#D0BE8A;" d="M463.871,711.44c-0.999,0-2.011,0.381-2.531,1.084c-0.795,1.07-1.916,1.871-3.064,2.652
							c-1.331,0.896-2.62,1.836-4.024,2.65c-0.665,0.383-1.295,0.818-2.071,1.057c0.179-0.153,0.358-0.299,0.547-0.441
							c-2.599,1.143-5.417,1.565-7.715,1.565c-2.29,0-4.059-0.423-4.559-0.972c-0.072,0.434-0.309,0.857-0.665,1.28
							c-0.374,0.444-0.683,0.925-1.043,1.377c-0.057,0.071,0.018,0.284-0.089,0.681c3.313,1.121,6.887,1.732,10.613,1.732
							c9.379,0,17.798-3.877,23.484-9.993c-0.004,0-0.006,0-0.015,0c-3.213,0-5.225-1.667-5.225-1.667
							c-0.049,0.044-0.098,0.061-0.151,0.061c-0.066,0-0.141-0.027-0.213-0.057c-0.708-0.277-1.406-0.58-2.138-0.83
							C464.655,711.5,464.264,711.44,463.871,711.44"/>
						<path style="fill:#AC9464;" d="M459.067,683.595c0.23,0.467,0.452,0.855,0.604,1.26c0.374,0.994,0.368,1.921-0.626,2.731
							c-0.423,0.345-0.432,0.857-0.384,1.331c0.056,0.595,0.426,1.043,0.948,1.456c0.789,0.622,1.244,1.424,1.555,2.268
							c0.15,0.415,0.145,0.865,0.209,1.303c0.017,0.079-0.02,0.219,0.108,0.219c0.021,0,0.044-0.004,0.075-0.011
							c0.049-0.013,0.095-0.018,0.135-0.018c0.204,0,0.245,0.158,0.303,0.288c0.473,1.026,0.93,2.06,1.402,3.091
							c0.044,0.095,0.053,0.172-0.018,0.266c-0.205,0.275-0.66,0.444-1.078,0.444c-0.21,0-0.411-0.04-0.572-0.132
							c-0.37-0.213-0.717-0.453-1.109-0.7c0.012,0.07,0.012,0.108,0.024,0.144c0.602,1.711,0.743,3.4-0.218,5.08
							c-0.268,0.467-0.581,0.938-0.632,1.471c0.033,0,0.065,0,0.101,0c0.348-0.361,0.566-0.796,0.922-1.298
							c0.07,0.388,0.137,0.649,0.158,0.907c0.089,1.184,0.124,2.369,0.106,3.558c-0.003,0.515-0.097,1.017-0.239,1.513
							c-0.219,0.751-0.604,1.453-0.918,2.175c-1.181,2.744-3.176,4.998-6.034,6.72c-0.41,0.246-0.796,0.506-1.163,0.785
							c-0.188,0.143-0.368,0.288-0.547,0.441c0.776-0.238,1.406-0.674,2.071-1.057c1.405-0.815,2.693-1.754,4.024-2.65
							c1.148-0.781,2.269-1.582,3.064-2.652c0.521-0.703,1.532-1.084,2.531-1.084c0.393,0,0.784,0.06,1.141,0.18
							c0.731,0.25,1.43,0.553,2.138,0.83c0.072,0.029,0.147,0.057,0.213,0.057c0.054,0,0.103-0.017,0.151-0.061
							c0.08-0.077,0.013-0.164-0.049-0.221c-0.887-0.861-1.292-1.926-1.833-2.935c-0.632-1.168-0.236-2.798,0.991-3.43
							c0.798-0.41,1.475-0.889,2.053-1.482c0.672-0.691,1.263-1.453,1.46-2.313c0.284-1.222-0.466-2.177-1.521-2.995
							c-0.949-0.736-2.049-1.318-2.965-2.101c-1.203-1.015-1.741-2.174-1.828-3.548c-0.024-0.416-0.003-0.854-0.219-1.266
							c-0.318-0.617-0.839-1.091-1.414-1.537c-0.974-0.762-1.471-1.702-1.387-2.786c0.1-1.249-0.36-2.367-0.983-3.458
							C459.665,684.104,459.529,683.788,459.067,683.595"/>
						<path style="fill:#AC9464;" d="M434.964,685.047c-0.176,0-0.352,0.067-0.517,0.232c-0.163,0.156-0.419,0.253-0.645,0.364
							c-0.149,0.071-0.248,0.112-0.318,0.112c-0.113,0-0.141-0.106-0.146-0.347c-0.202,0.084-0.492,0.097-0.489,0.34
							c0,0.236,0.042,0.485,0.125,0.714c0.054,0.148,0.177,0.275,0.344,0.275c0.065,0,0.142-0.022,0.221-0.069
							c0.548-0.339,1.087-0.481,1.617-0.481c0.676,0,1.345,0.228,2.01,0.569c0.399,0.206,0.729,0.518,1.202,0.616
							c0.359,0.076,0.384,0.189,0.233,0.452c-0.084,0.152-0.17,0.209-0.274,0.209c-0.077,0-0.168-0.033-0.277-0.084
							c-0.43-0.193-0.865-0.388-1.358-0.388c-0.087,0-0.172,0.006-0.267,0.019c-0.888,0.125-1.307,0.725-1.775,1.25
							c-0.109,0.125-0.131,0.371,0.115,0.461c0.091,0.035,0.186,0.058,0.279,0.058c0.14,0,0.27-0.05,0.36-0.192
							c0.06-0.084,0.089-0.214,0.231-0.214c0.008,0,0.017,0.001,0.027,0.003c0.205,0.023,0.119,0.201,0.176,0.301
							c0.043,0.084,0.035,0.187,0.067,0.276c0.118,0.386,0.375,0.7,0.846,0.836c0.349,0.097,0.81,0.021,1.042,0.29
							c0.264,0.309-0.098,0.609-0.188,0.914c-0.357,1.215-0.693,2.436-1.094,3.639c-0.279,0.839-0.442,1.619,0.485,2.268
							c0.089,0.06,0.169,0.133,0.228,0.211c0.297,0.402,0.729,0.564,1.296,0.61c0.653,0.052,1.301,0.096,1.954,0.151
							c0.428,0.039,0.857,0.049,1.283,0.049c0.229,0,0.456-0.002,0.682-0.004c0.235-0.003,0.471-0.006,0.707-0.006
							c0.151,0,0.305,0.002,0.457,0.006c0.004-0.035,0.007-0.07,0.008-0.108c-0.251-0.045-0.505-0.096-0.758-0.129
							c-1.325-0.171-2.641-0.387-3.936-0.673c-0.675-0.149-0.929-0.485-0.765-1.044c0.202-0.705,0.4-1.414,0.611-2.119
							c0.479-1.631,0.781-3.293,1.188-4.938c0.219-0.893,0.486-1.782,0.743-2.67c0.064-0.229,0.016-0.339-0.299-0.394
							c-1.687-0.299-3.441-0.412-4.944-1.224C435.29,685.103,435.128,685.047,434.964,685.047"/>
						<path style="fill:#AC9464;" d="M448.381,686.968c-0.42,0-0.76,0.163-1.089,0.436c-0.127,0.104-0.232,0.178-0.353,0.178
							c-0.083,0-0.175-0.039-0.285-0.132c-0.1-0.087-0.23-0.147-0.385-0.147c-0.079,0-0.162,0.017-0.252,0.052
							c0.344,0.364,0.699,0.698,0.848,1.137c0.04,0.126,0.101,0.175,0.173,0.175c0.078,0,0.164-0.056,0.252-0.129
							c0.292-0.252,0.582-0.504,0.872-0.758c0.043,0.022,0.086,0.047,0.131,0.068c-0.21,0.318-0.226,0.665-0.305,1.004
							c-0.161,0.702,0.396,1.244,1.149,1.244c0.143,0,0.298-0.018,0.45-0.061c0.173-0.047,0.346-0.1,0.517-0.142
							c0.516-0.128,0.799-0.403,0.806-0.854c0-0.126,0.007-0.237,0.12-0.237c0.042,0,0.098,0.015,0.171,0.05
							c0.075,0.034,0.147,0.051,0.213,0.051c0.141,0,0.253-0.068,0.339-0.179c0.129-0.173-0.02-0.3-0.174-0.417
							c-0.737-0.58-1.633-0.916-2.572-1.229C448.778,687.002,448.572,686.968,448.381,686.968"/>
						<path style="fill:#AC9464;" d="M450.09,684.571c-0.114,0-0.231,0.016-0.356,0.051c-0.307,0.09-0.635,0.121-0.96,0.174
							c-1.471,0.242-2.948,0.486-4.424,0.728c-0.095,0.017-0.206,0.003-0.237,0.104c-0.021,0.088,0.049,0.151,0.12,0.208
							c0.186,0.15,0.414,0.185,0.65,0.185c0.044,0,0.088-0.001,0.134-0.002c0.52-0.032,1.046-0.054,1.564-0.106
							c0.702-0.068,1.415,0.006,2.104-0.1c0.169-0.027,0.331-0.041,0.488-0.041c0.33,0,0.64,0.066,0.922,0.239
							c0.701,0.434,1.533,0.591,2.359,0.761c0.122,0.025,0.256,0.063,0.375,0.063c0.125,0,0.236-0.037,0.32-0.165
							c0.189-0.276-0.032-0.466-0.274-0.616c-0.651-0.406-1.261-0.856-1.952-1.223C450.652,684.683,450.389,684.571,450.09,684.571"
							/>
						<path style="fill:#AC9464;" d="M438.742,700.907c-0.06,0-0.125,0.011-0.19,0.039c-0.557,0.233-1.082,0.521-1.614,0.785
							c0.005,0.037,0.017,0.074,0.026,0.113c0.247-0.03,0.489-0.041,0.734-0.041c0.931,0,1.847,0.17,2.78,0.179
							c0.588,0.005,1.183,0.024,1.759,0.105c0.632,0.091,1.266,0.123,1.902,0.123c0.348,0,0.694-0.01,1.042-0.024
							c-1.214-0.15-2.32-0.549-3.391-1.001c-0.242-0.104-0.469-0.163-0.694-0.163c-0.216,0-0.426,0.054-0.639,0.179
							c-0.181,0.107-0.352,0.16-0.527,0.16c-0.175,0-0.35-0.054-0.543-0.162C439.201,701.093,438.99,700.907,438.742,700.907"/>
						<path style="fill:#AC9464;" d="M437.708,703.501c-0.07,0-0.139,0.022-0.179,0.08c-0.066,0.102,0.068,0.172,0.132,0.24
							c0.56,0.613,1.325,1.033,2.039,1.5c0.106,0.07,0.192,0.101,0.263,0.101c0.111,0,0.186-0.077,0.273-0.193
							c0.096-0.13,0.119-0.276,0.101-0.431c0.047-0.36-0.2-0.621-0.573-0.716c-0.637-0.16-1.283-0.297-1.879-0.542
							C437.834,703.518,437.768,703.501,437.708,703.501"/>
						<path style="fill:#AD9662;" d="M459.895,704.083c-0.035,0-0.067,0-0.101,0c-0.083,0.058-0.152,0.149-0.028,0.183
							c0.008,0,0.014,0.002,0.022,0.002C459.866,704.269,459.888,704.157,459.895,704.083"/>
						<path style="fill:#AC9464;" d="M451.104,670.771c-0.133,0-0.262,0-0.394,0c-0.166,0.034-0.334,0.052-0.496,0.052
							c-0.163,0-0.329-0.018-0.492-0.052c-0.135,0-0.267,0-0.395,0c-0.462,0.109-0.943,0.064-1.412,0.104
							c-2.742,0.229-5.292,0.958-7.705,2.024c-1.235,0.547-2.381,1.197-3.386,2.015c-1.901,1.546-3.42,3.314-4.628,5.263
							c-0.443,0.712-0.953,1.42-1.128,2.197c-0.657,2.867-1.521,5.701-2.117,8.576c-0.19,0.936-0.636,1.744-1.272,2.513
							c-0.796,0.96-1.696,1.859-2.447,2.843c-0.592,0.774-1.065,1.584-1.266,2.49c-0.044,0.195,0.047,0.412-0.127,0.588
							c0,0.164,0,0.328,0,0.486c0.085,0.325,0.085,0.648,0,0.973c0,0.137,0,0.27,0,0.405c0.272,0.173,0.181,0.438,0.234,0.661
							c0.256,1.045,0.733,2.039,0.942,3.096c0.098,0.504,0.07,1.062,0.417,1.485c0.689,0.838,0.964,1.763,1.089,2.736
							c0.082,0.62,0.124,1.247,0.184,1.868c0.296-0.411,0.703-0.709,1.087-1.018c0.044,0.024,0.066,0.032,0.066,0.039
							c0.004,0.108,0.01,0.217,0.014,0.324c0.038,1.2,0.537,2.264,1.357,3.241c0.302,0.362,0.655,0.642,1.231,0.642
							c0.015,0,0.033,0,0.049-0.002c0.011,0,0.02,0,0.03,0c0.24,0,0.489,0.063,0.811,0.104c-0.83,0.789-1.389,1.646-1.897,2.539
							c-0.081,0.142-0.071,0.212-0.158,0.373c2.755,2.154,5.915,3.87,9.362,5.037c0.107-0.396,0.033-0.609,0.089-0.681
							c0.36-0.452,0.669-0.933,1.043-1.377c0.356-0.423,0.593-0.847,0.665-1.28c0.08-0.473-0.033-0.96-0.392-1.473
							c-0.378-0.543-0.503-1.169-0.482-1.801c0.039-0.9-0.122-1.777-0.405-2.643c-0.042-0.129-0.089-0.26-0.1-0.396
							c-0.021-0.313,0.089-0.462,0.348-0.462c0.081,0,0.178,0.016,0.288,0.043c0.471,0.128,0.931,0.291,1.432,0.307
							c0.323,0.014,0.647,0.024,0.965,0.024c0.96,0,1.9-0.093,2.789-0.493c0.199-0.092,0.427-0.135,0.646-0.197
							c1.091-0.306,2.16-0.648,3.148-1.159c1.97-1.019,3.829-2.19,5.922-3.058c0.313-0.131,0.615-0.325,0.684-0.65
							c-0.004-0.017-0.013-0.032-0.024-0.047c-0.014-0.021-0.035-0.037-0.061-0.051c-0.024-0.012-0.052-0.021-0.081-0.025
							c-0.283,0.014-0.483,0.166-0.697,0.285c-1.089,0.604-2.223,1.155-3.425,1.603c-2.277,0.852-4.71,1.277-7.126,1.747
							c-0.449,0.086-0.889,0.125-1.32,0.125c-1.04,0-2.036-0.232-3.037-0.59c-2.212-0.793-3.711-2.184-4.945-3.82
							c-0.905-1.197-1.59-2.484-2.302-3.762c-0.243-0.44-0.359-0.893-0.398-1.367c-0.096-1.09-0.203-2.178-0.364-3.262
							c-0.132-0.882-0.363-1.769-0.292-2.652c0.085-1.129,0.274-2.258,0.776-3.33c0.188-0.406,0.195-0.816,0.131-1.238
							c-0.097-0.601-0.116-1.211,0.014-1.813c0.313-1.463,0.465-2.94,0.627-4.42c0.075-0.715,0.298-1.409,0.506-2.099
							c0.182-0.606,0.5-1.198,0.724-1.802c1.04-2.798,3.097-5.003,5.844-6.809c2.48-1.799,6.695-2.836,10.63-2.836
							c0.75,0,1.492,0.039,2.21,0.117c0-0.007,0-0.014-0.002-0.019c0,0,0,0,0-0.001
							C452.172,670.883,451.613,670.931,451.104,670.771"/>
						<path style="fill:#AC9464;" d="M429.295,717.337c-6.735-5.269-11.024-13.146-11.024-21.934
							c0-15.826,13.907-28.703,30.999-28.703c17.091,0,30.994,12.876,30.994,28.701c0,3.684-0.754,7.205-2.125,10.443
							c-1.287,3.042-3.118,5.833-5.385,8.268c-5.686,6.116-14.105,9.993-23.484,9.993c-3.726,0-7.3-0.611-10.613-1.732
							C435.21,721.207,432.05,719.491,429.295,717.337 M449.27,664.589c-6.416,0-12.417,1.662-17.522,4.54
							c-9.615,5.426-16.042,15.175-16.042,26.274c0,10.222,5.447,19.296,13.818,24.904c5.545,3.714,12.369,5.91,19.746,5.91
							c7.373,0,14.199-2.196,19.745-5.91c8.371-5.608,13.819-14.683,13.819-24.906c0-11.098-6.427-20.848-16.045-26.272
							C461.684,666.251,455.685,664.589,449.27,664.589"/>
						<path style="fill:#D6C48E;" d="M450.477,670.917c-3.935,0-8.15,1.037-10.63,2.836c-2.788,2.021,8.088,2.199,9.78,2.199
							c0.129,0,0.206,0,0.218-0.003c0.137-0.019,5.401-2.994,5.401-2.994c0.347-0.816-0.338-1.651-2.328-1.894
							c-0.077-0.011-0.152-0.02-0.231-0.026C451.969,670.956,451.227,670.917,450.477,670.917"/>
					</g>
				</g>
			</g>
		</g>
		<path style="opacity:0.4;fill:#705D57;" d="M191.418,781.526l73.532-32.438v-76.916h-3.29V649.18l20.696-74.072
			c0,0-1.756-17.499,0.701-35.813c2.456-18.315,9.547-35.396,9.547-35.396l46.258-321.457h320.051v-94.7l-467.495-0.632V781.526z"/>
		<rect x="344.953" y="693.338" style="opacity:0.3;fill:#423F41;" width="209.09" height="8.546"/>
		<g style="opacity:0.4;">
			<rect x="226.927" y="671.698" style="fill:#705D57;" width="439.6" height="5.424"/>
		</g>
		<path style="fill:#F4BD31;" d="M702.684,87.109"/>
	</g>
</g>
</svg>
