<?xml version="1.0" encoding="utf-8"?>
<!-- Generator: Adobe Illustrator 27.5.0, SVG Export Plug-In . SVG Version: 6.00 Build 0)  -->
<svg version="1.1" xmlns="http://www.w3.org/2000/svg" xmlns:xlink="http://www.w3.org/1999/xlink" x="0px" y="0px"
	 viewBox="0 0 500 500" style="enable-background:new 0 0 500 500;" xml:space="preserve">
<g id="BACKGROUND">
	<rect style="fill:#D0DAE6;" width="500" height="500"/>
</g>
<g id="OBJECTS">
	<g>
		<path style="opacity:0.5;fill:#9CA9B5;" d="M435.026,111.58v289.34c0,2.57-2.09,4.66-4.66,4.66H57.026
			c-2.57,0-4.66-2.09-4.66-4.66V111.58c0-0.76,0.18-1.48,0.51-2.11c0.77-1.51,2.34-2.55,4.15-2.55h373.34
			c1.81,0,3.38,1.04,4.15,2.55C434.846,110.1,435.026,110.82,435.026,111.58z"/>
		<path style="fill:#F2F2F2;" d="M447.53,99.08v289.34c0,2.57-2.09,4.66-4.66,4.66H69.53c-2.57,0-4.66-2.09-4.66-4.66V99.08
			c0-0.76,0.18-1.48,0.51-2.11c0.77-1.51,2.34-2.55,4.15-2.55h373.34c1.81,0,3.38,1.04,4.15,2.55
			C447.35,97.6,447.53,98.32,447.53,99.08z"/>
		<g>
			<path style="fill:#537696;" d="M447.53,99.08v21.97H64.87V99.08c0-0.76,0.18-1.48,0.51-2.11c0.77-1.51,2.34-2.55,4.15-2.55
				h373.34c1.81,0,3.38,1.04,4.15,2.55C447.35,97.6,447.53,98.32,447.53,99.08z"/>
			<path style="fill:#759DBA;" d="M447.016,96.97H65.376c0.77-1.51,2.34-2.55,4.15-2.55h373.34
				C444.676,94.42,446.246,95.46,447.016,96.97z"/>
			<rect x="64.87" y="118.48" style="fill:#3B5A72;" width="382.66" height="2.57"/>
		</g>
		<g>
			<circle style="fill:#3B5A72;" cx="125.8" cy="109.566" r="5.688"/>
			<circle style="fill:#3B5A72;" cx="105.175" cy="109.566" r="5.688"/>
			<circle style="fill:#3B5A72;" cx="84.55" cy="109.566" r="5.688"/>
			<circle style="fill:#39BD46;" cx="127.092" cy="108.274" r="5.688"/>
			<circle style="fill:#39BD46;" cx="127.092" cy="108.274" r="4.688"/>
			<circle style="fill:#FDCC0D;" cx="106.467" cy="108.274" r="5.688"/>
			<circle style="fill:#FDCC0D;" cx="106.467" cy="108.274" r="4.688"/>
			<circle style="fill:#FF283F;" cx="85.842" cy="108.274" r="5.688"/>
			<circle style="fill:#FF283F;" cx="85.837" cy="108.274" r="4.688"/>
			<path style="opacity:0.5;fill:#F2F2F2;" d="M123.305,105.517c0.85-1.17,2.23-1.93,3.79-1.93c2.58,0,4.68,2.1,4.68,4.69
				c0,1.54-0.75,2.91-1.9,3.76c0.56-0.77,0.89-1.72,0.89-2.75c0-2.58-2.1-4.68-4.69-4.68
				C125.045,104.607,124.085,104.937,123.305,105.517z"/>
			<path style="opacity:0.5;fill:#F2F2F2;" d="M102.694,105.517c0.84-1.17,2.22-1.93,3.77-1.93c2.59,0,4.69,2.1,4.69,4.69
				c0,1.55-0.76,2.93-1.92,3.78c0.56-0.78,0.9-1.73,0.9-2.77c0-2.58-2.1-4.68-4.68-4.68
				C104.425,104.607,103.465,104.937,102.694,105.517z"/>
			<path style="opacity:0.5;fill:#F2F2F2;" d="M82.05,105.517c0.85-1.17,2.23-1.93,3.79-1.93c2.58,0,4.69,2.1,4.69,4.69
				c0,1.54-0.75,2.91-1.91,3.76c0.56-0.77,0.89-1.72,0.89-2.75c0-2.58-2.1-4.68-4.69-4.68
				C83.79,104.607,82.83,104.937,82.05,105.517z"/>
		</g>
		<g>
			<g>
				<path style="fill:#F2F2F2;" d="M434.229,107.735l2.498-2.498c0.311-0.311,0.311-0.814,0-1.124c-0.311-0.31-0.814-0.31-1.124,0
					l-2.498,2.498l-2.498-2.498c-0.311-0.31-0.814-0.31-1.124,0c-0.311,0.311-0.311,0.814,0,1.124l2.498,2.498l-2.498,2.498
					c-0.311,0.311-0.311,0.814,0,1.124c0.155,0.155,0.359,0.233,0.562,0.233c0.203,0,0.407-0.078,0.562-0.233l2.498-2.498
					l2.498,2.498c0.155,0.155,0.359,0.233,0.562,0.233s0.407-0.078,0.562-0.233c0.311-0.311,0.311-0.814,0-1.124L434.229,107.735z"
					/>
			</g>
		</g>
		<g style="opacity:0.4;">
			<rect x="64.87" y="121.04" style="fill:#1B2B38;" width="382.66" height="2.56"/>
		</g>
		<path style="fill:#D2D5D8;" d="M447.526,365.25v23.17c0,2.57-2.09,4.66-4.66,4.66H69.526c-2.57,0-4.66-2.09-4.66-4.66v-23.17
			H447.526z"/>
		<rect x="64.866" y="365.219" style="opacity:0.4;fill:#F2F2F2;" width="382.66" height="1.94"/>
		<path style="opacity:0.2;fill:#6F7072;" d="M447.526,386.42v1.94c0,2.57-2.09,4.66-4.66,4.66H69.526c-2.57,0-4.66-2.09-4.66-4.66
			v-1.94c0,2.57,2.09,4.66,4.66,4.66h373.34C445.436,391.08,447.526,388.99,447.526,386.42z"/>
		<g>
			<g>
				<path style="opacity:0.3;fill:#6F7072;" d="M398.383,386.273h-26.018c-1.948,0-3.527-1.579-3.527-3.527v-8.222
					c0-1.948,1.579-3.526,3.527-3.526h26.018c1.948,0,3.527,1.579,3.527,3.526v8.222
					C401.909,384.694,400.33,386.273,398.383,386.273z"/>
			</g>
			<g>
				<path style="fill:#537696;" d="M435.062,386.273h-26.018c-1.948,0-3.526-1.579-3.526-3.527v-8.222
					c0-1.948,1.579-3.526,3.526-3.526h26.018c1.948,0,3.527,1.579,3.527,3.526v8.222
					C438.588,384.694,437.01,386.273,435.062,386.273z"/>
			</g>
		</g>
		<g>
			<g>
				<g>
					<g>
						<g>
							<g>
								<path style="fill:#C5C5C7;" d="M435.75,152.647H79.217c-0.196,0-0.354-0.158-0.354-0.354s0.158-0.354,0.354-0.354H435.75
									c0.196,0,0.354,0.158,0.354,0.354S435.946,152.647,435.75,152.647z"/>
							</g>
						</g>
					</g>
				</g>
				<g>
					<g>
						<g>
							<g>
								<path style="fill:#C5C5C7;" d="M435.75,170.824H79.217c-0.196,0-0.354-0.158-0.354-0.354c0-0.196,0.158-0.354,0.354-0.354
									H435.75c0.196,0,0.354,0.158,0.354,0.354C436.104,170.665,435.946,170.824,435.75,170.824z"/>
							</g>
						</g>
					</g>
				</g>
			</g>
			<g>
				<g>
					<g>
						<g>
							<g>
								<path style="fill:#C5C5C7;" d="M435.75,189H79.217c-0.196,0-0.354-0.158-0.354-0.354c0-0.196,0.158-0.354,0.354-0.354
									H435.75c0.196,0,0.354,0.158,0.354,0.354C436.104,188.842,435.946,189,435.75,189z"/>
							</g>
						</g>
					</g>
				</g>
			</g>
		</g>
		<g>
			<g>
				<g>
					<path style="fill:#767677;" d="M117.149,374.123h-11.041c-0.208,0-0.376-0.168-0.376-0.376c0-0.208,0.168-0.376,0.376-0.376
						h11.041c0.208,0,0.376,0.168,0.376,0.376C117.525,373.955,117.357,374.123,117.149,374.123z"/>
				</g>
				<g>
					<path style="fill:#767677;" d="M114.213,375.816h-8.19c-0.208,0-0.376-0.168-0.376-0.376c0-0.208,0.168-0.376,0.376-0.376h8.19
						c0.208,0,0.376,0.168,0.376,0.376C114.589,375.648,114.42,375.816,114.213,375.816z"/>
				</g>
				<g>
					<path style="fill:#767677;" d="M117.149,377.509h-11.041c-0.208,0-0.376-0.168-0.376-0.376c0-0.208,0.168-0.376,0.376-0.376
						h11.041c0.208,0,0.376,0.168,0.376,0.376C117.525,377.341,117.357,377.509,117.149,377.509z"/>
				</g>
				<g>
					<path style="fill:#767677;" d="M114.213,379.201h-8.19c-0.208,0-0.376-0.168-0.376-0.376c0-0.208,0.168-0.376,0.376-0.376h8.19
						c0.208,0,0.376,0.168,0.376,0.376C114.589,379.033,114.42,379.201,114.213,379.201z"/>
				</g>
				<g>
					<path style="fill:#767677;" d="M117.149,380.894h-11.041c-0.208,0-0.376-0.168-0.376-0.376c0-0.208,0.168-0.376,0.376-0.376
						h11.041c0.208,0,0.376,0.168,0.376,0.376C117.525,380.726,117.357,380.894,117.149,380.894z"/>
				</g>
				<g>
					<path style="fill:#767677;" d="M114.213,382.587h-8.19c-0.208,0-0.376-0.168-0.376-0.376c0-0.208,0.168-0.376,0.376-0.376h8.19
						c0.208,0,0.376,0.168,0.376,0.376C114.589,382.418,114.42,382.587,114.213,382.587z"/>
				</g>
				<g>
					<path style="fill:#767677;" d="M117.149,384.279h-11.041c-0.208,0-0.376-0.168-0.376-0.376c0-0.208,0.168-0.376,0.376-0.376
						h11.041c0.208,0,0.376,0.168,0.376,0.376C117.525,384.111,117.357,384.279,117.149,384.279z"/>
				</g>
			</g>
			<g>
				<g>
					<path style="fill:#9F9FA0;" d="M141.748,374.123h-11.041c-0.208,0-0.376-0.168-0.376-0.376c0-0.208,0.168-0.376,0.376-0.376
						h11.041c0.208,0,0.376,0.168,0.376,0.376C142.124,373.955,141.956,374.123,141.748,374.123z"/>
				</g>
				<g>
					<path style="fill:#9F9FA0;" d="M140.322,375.816h-8.189c-0.208,0-0.376-0.168-0.376-0.376c0-0.208,0.168-0.376,0.376-0.376
						h8.189c0.208,0,0.376,0.168,0.376,0.376C140.698,375.648,140.53,375.816,140.322,375.816z"/>
				</g>
				<g>
					<path style="fill:#9F9FA0;" d="M141.748,377.509h-11.041c-0.208,0-0.376-0.168-0.376-0.376c0-0.208,0.168-0.376,0.376-0.376
						h11.041c0.208,0,0.376,0.168,0.376,0.376C142.124,377.341,141.956,377.509,141.748,377.509z"/>
				</g>
				<g>
					<path style="fill:#9F9FA0;" d="M140.322,379.201h-8.189c-0.208,0-0.376-0.168-0.376-0.376c0-0.208,0.168-0.376,0.376-0.376
						h8.189c0.208,0,0.376,0.168,0.376,0.376C140.698,379.033,140.53,379.201,140.322,379.201z"/>
				</g>
				<g>
					<path style="fill:#9F9FA0;" d="M141.748,380.894h-11.041c-0.208,0-0.376-0.168-0.376-0.376c0-0.208,0.168-0.376,0.376-0.376
						h11.041c0.208,0,0.376,0.168,0.376,0.376C142.124,380.726,141.956,380.894,141.748,380.894z"/>
				</g>
				<g>
					<path style="fill:#9F9FA0;" d="M140.322,382.587h-8.189c-0.208,0-0.376-0.168-0.376-0.376c0-0.208,0.168-0.376,0.376-0.376
						h8.189c0.208,0,0.376,0.168,0.376,0.376C140.698,382.418,140.53,382.587,140.322,382.587z"/>
				</g>
				<g>
					<path style="fill:#9F9FA0;" d="M141.748,384.279h-11.041c-0.208,0-0.376-0.168-0.376-0.376c0-0.208,0.168-0.376,0.376-0.376
						h11.041c0.208,0,0.376,0.168,0.376,0.376C142.124,384.111,141.956,384.279,141.748,384.279z"/>
				</g>
			</g>
			<g>
				<g>
					<path style="fill:#9F9FA0;" d="M166.347,374.123h-11.041c-0.208,0-0.376-0.168-0.376-0.376c0-0.208,0.168-0.376,0.376-0.376
						h11.041c0.208,0,0.376,0.168,0.376,0.376C166.724,373.955,166.555,374.123,166.347,374.123z"/>
				</g>
				<g>
					<path style="fill:#9F9FA0;" d="M166.433,375.816h-8.189c-0.208,0-0.376-0.168-0.376-0.376c0-0.208,0.168-0.376,0.376-0.376
						h8.189c0.208,0,0.376,0.168,0.376,0.376C166.809,375.648,166.641,375.816,166.433,375.816z"/>
				</g>
				<g>
					<path style="fill:#9F9FA0;" d="M166.347,377.509h-11.041c-0.208,0-0.376-0.168-0.376-0.376c0-0.208,0.168-0.376,0.376-0.376
						h11.041c0.208,0,0.376,0.168,0.376,0.376C166.724,377.341,166.555,377.509,166.347,377.509z"/>
				</g>
				<g>
					<path style="fill:#9F9FA0;" d="M166.433,379.201h-8.189c-0.208,0-0.376-0.168-0.376-0.376c0-0.208,0.168-0.376,0.376-0.376
						h8.189c0.208,0,0.376,0.168,0.376,0.376C166.809,379.033,166.641,379.201,166.433,379.201z"/>
				</g>
				<g>
					<path style="fill:#9F9FA0;" d="M166.347,380.894h-11.041c-0.208,0-0.376-0.168-0.376-0.376c0-0.208,0.168-0.376,0.376-0.376
						h11.041c0.208,0,0.376,0.168,0.376,0.376C166.724,380.726,166.555,380.894,166.347,380.894z"/>
				</g>
				<g>
					<path style="fill:#9F9FA0;" d="M166.433,382.587h-8.189c-0.208,0-0.376-0.168-0.376-0.376c0-0.208,0.168-0.376,0.376-0.376
						h8.189c0.208,0,0.376,0.168,0.376,0.376C166.809,382.418,166.641,382.587,166.433,382.587z"/>
				</g>
				<g>
					<path style="fill:#9F9FA0;" d="M166.347,384.279h-11.041c-0.208,0-0.376-0.168-0.376-0.376c0-0.208,0.168-0.376,0.376-0.376
						h11.041c0.208,0,0.376,0.168,0.376,0.376C166.724,384.111,166.555,384.279,166.347,384.279z"/>
				</g>
			</g>
			<g>
				<path style="fill:#9F9FA0;" d="M263.314,372.435h-1.839v-0.098c0-0.343-0.278-0.622-0.622-0.622h-2.833
					c-0.343,0-0.622,0.278-0.622,0.622v0.098h-1.839c-0.216,0-0.392,0.175-0.392,0.392v0.655c0,0.216,0.176,0.392,0.392,0.392h0.216
					v8.76c0,0.446,0.358,0.812,0.812,0.812h5.699c0.454,0,0.812-0.366,0.812-0.812v-8.76h0.215c0.217,0,0.392-0.176,0.392-0.392
					v-0.655C263.706,372.61,263.53,372.435,263.314,372.435z M257.798,381.551c0,0.231-0.191,0.422-0.43,0.422h-0.135
					c-0.231,0-0.422-0.191-0.422-0.422v-6.304c0-0.239,0.191-0.43,0.422-0.43h0.135c0.239,0,0.43,0.191,0.43,0.43V381.551z
					 M259.931,381.551c0,0.231-0.191,0.422-0.43,0.422h-0.135c-0.231,0-0.422-0.191-0.422-0.422v-6.304
					c0-0.239,0.191-0.43,0.422-0.43h0.135c0.239,0,0.43,0.191,0.43,0.43V381.551z M262.064,381.551c0,0.231-0.191,0.422-0.43,0.422
					h-0.127c-0.239,0-0.43-0.191-0.43-0.422v-6.304c0-0.239,0.191-0.43,0.43-0.43h0.127c0.239,0,0.43,0.191,0.43,0.43V381.551z"/>
			</g>
			<g>
				<g>
					<path style="fill:#9F9FA0;" d="M82.01,381.431h-4.32l-0.824,1.994h-2.207l4.147-9.305h2.127l4.161,9.305h-2.26L82.01,381.431z
						 M81.332,379.795l-1.475-3.563l-1.476,3.563H81.332z"/>
					<path style="fill:#9F9FA0;" d="M92.249,379.344v4.081h-1.94v-0.89c-0.386,0.651-1.13,0.997-2.18,0.997
						c-1.675,0-2.672-0.931-2.672-2.167c0-1.262,0.891-2.14,3.071-2.14h1.649c0-0.89-0.532-1.409-1.649-1.409
						c-0.757,0-1.542,0.253-2.06,0.665l-0.745-1.449c0.785-0.558,1.941-0.864,3.084-0.864
						C90.986,376.167,92.249,377.177,92.249,379.344z M90.175,381.165v-0.731h-1.422c-0.971,0-1.276,0.358-1.276,0.837
						c0,0.518,0.439,0.864,1.17,0.864C89.338,382.135,89.936,381.816,90.175,381.165z"/>
				</g>
				<g>
					<g>
						<path style="fill:#9F9FA0;" d="M94.532,379.883l2.176,2.176c0.079,0.079,0.206,0.079,0.285,0l2.176-2.176
							c0.127-0.127,0.041-0.344-0.138-0.344c-1.012,0-3.347,0-4.36,0C94.49,379.539,94.405,379.756,94.532,379.883z"/>
					</g>
				</g>
			</g>
			<g>
				<path style="fill:#9F9FA0;" d="M190.553,380.755c0,1.9-1.508,3-4.398,3h-5.686v-10.995h5.372c2.748,0,4.163,1.147,4.163,2.859
					c0,1.1-0.566,1.948-1.461,2.419C189.768,378.43,190.553,379.373,190.553,380.755z M182.998,374.676v2.591h2.529
					c1.24,0,1.916-0.439,1.916-1.304c0-0.864-0.675-1.287-1.916-1.287H182.998z M187.993,380.488c0-0.927-0.707-1.367-2.026-1.367
					h-2.969v2.718h2.969C187.286,381.839,187.993,381.43,187.993,380.488z"/>
			</g>
			<g>
				<path style="fill:#9F9FA0;" d="M210.232,372.759h2.042l-2.199,10.995h-2.042L210.232,372.759z"/>
			</g>
			<g>
				<g>
					<path style="fill:#9F9FA0;" d="M230.559,378.133v-5.46h1.797v5.39c0,1.991,0.898,2.847,2.46,2.847
						c1.562,0,2.446-0.857,2.446-2.847v-5.39h1.769v5.46c0,2.82-1.589,4.354-4.229,4.354
						C232.149,382.487,230.559,380.953,230.559,378.133z"/>
				</g>
				<polyline style="fill:#9F9FA0;" points="240.293,384.977 229.297,384.977 229.297,383.517 240.293,383.517 				"/>
			</g>
		</g>
	</g>
</g>
<g id="TEXTS">
	<g>
		<g>
			<g>
				
					<text transform="matrix(1 0 0 1 336.754 380.7246)" style="fill:#767677; font-family:'Montserrat-Medium'; font-size:7.1184px;">Cancel</text>
			</g>
		</g>
		<g>
			
				<text transform="matrix(1 0 0 1 376.9561 380.7247)" style="fill:#F8F8F8; font-family:'Montserrat-Medium'; font-size:7.1184px;">Save</text>
		</g>
		<g>
			
				<text transform="matrix(1 0 0 1 412.8028 380.7246)" style="fill:#F8F8F8; font-family:'Montserrat-Medium'; font-size:7.1184px;">Send</text>
		</g>
		<g>
			<text transform="matrix(1 0 0 1 82.7534 146.7793)" style="fill:#B0B1B3; font-family:'Montserrat-Medium'; font-size:8.498px;">To</text>
		</g>
		<g>
			<text transform="matrix(1 0 0 1 82.7534 164.248)" style="fill:#B0B1B3; font-family:'Montserrat-Medium'; font-size:8.498px;">Cc</text>
		</g>
		<g>
			<g>
				
					<text transform="matrix(1 0 0 1 424.858 186.5586)" style="fill:#929292; font-family:'Montserrat-Light'; font-size:5.4041px;">Bcc</text>
			</g>
		</g>
		<g>
			<text transform="matrix(1 0 0 1 82.7534 182.4248)" style="fill:#B0B1B3; font-family:'Montserrat-Medium'; font-size:8.498px;">From</text>
		</g>
	</g>
</g>
</svg>
